#N canvas 0 0 1267 930 12;
#X obj 161 816 *~ 0;
#X obj 456 819 *~ 0;
#X obj 481 740 dbtorms;
#X obj 186 737 dbtorms;
#X obj 28 34 inlet~;
#X obj 83 35 inlet~;
#X obj 792 58 r c21;
#X obj 1128 -63 r c22;
#X obj 298 923 dac~;
#X obj 792 103 / 2.55;
#X obj 480 26 inlet~;
#X obj 533 26 inlet~;
#X obj 279 -20 inlet;
#X obj 17 165 spigot~;
#X obj 545 163 spigot~;
#X obj 458 161 spigot~;
#X obj 97 166 spigot~;
#X obj 279 10 sel 1 4;
#X floatatom 724 122 5 0 0 0 - - -;
#X floatatom 545 760 15 0 0 0 - - -;
#X msg 152 84 0;
#X msg 197 84 1;
#X msg 324 74 0;
#X msg 366 73 1;
#X floatatom 228 -1 5 0 0 0 - - -;
#X floatatom 248 757 15 0 0 0 - - -;
#X floatatom 1193 6 5 0 0 0 - - -;
#X obj 751 -78 vsl 15 128 0 255 0 0 empty empty empty 0 -9 0 10 -262144
-1 -1 12700 1;
#X obj 1029 -90 hsl 128 15 0 255 0 0 empty empty empty -2 -8 0 10 -262144
-1 -1 5800 1;
#X obj 553 441 spigot;
#X obj 685 439 spigot;
#X obj 685 504 *;
#X obj 670 442 bng 15 250 50 0 empty empty empty 17 7 0 10 -262144
-1 -1;
#X obj 909 130 bng 15 250 50 0 empty empty empty 17 7 0 10 -262144
-1 -1;
#X obj 987 129 bng 15 250 50 0 empty empty empty 17 7 0 10 -262144
-1 -1;
#X obj 938 64 int;
#X msg 634 393 1;
#X msg 677 394 0;
#X obj 938 131 sel 0;
#X obj 1128 -14 / 127.5;
#X floatatom 699 524 5 0 0 0 - - -;
#X msg 1026 -146 128;
#X obj 1235 636 spigot;
#X obj 948 561 spigot;
#X obj 948 626 *;
#X obj 997 580 bng 15 250 50 0 empty empty empty 17 7 0 10 -262144
-1 -1;
#X msg 1080 468 1;
#X msg 1123 469 0;
#X floatatom 974 646 5 0 0 0 - - -;
#X floatatom 1243 656 5 0 0 0 - - -;
#X floatatom 589 460 5 0 0 0 - - -;
#X text 786 34 Volumen;
#X text 1173 -65 Pan;
#X text 250 -41 Selector entrada;
#X text 65 11 L/R;
#X text 513 -4 L/R;
#X floatatom 1164 110 5 0 0 0 - - -;
#X obj 1128 90 - 2;
#X obj 1282 639 bng 15 250 50 0 empty empty empty 17 7 0 10 -262144
-1 -1;
#X floatatom 711 261 5 0 0 0 - - -;
#X obj 746 262 float;
#X obj 758 235 t b;
#X obj 1128 157 abs;
#X connect 0 0 8 0;
#X connect 1 0 8 1;
#X connect 2 0 1 1;
#X connect 2 0 19 0;
#X connect 3 0 0 1;
#X connect 3 0 25 0;
#X connect 4 0 13 0;
#X connect 5 0 16 0;
#X connect 6 0 9 0;
#X connect 7 0 39 0;
#X connect 9 0 18 0;
#X connect 9 0 60 0;
#X connect 10 0 15 0;
#X connect 11 0 14 0;
#X connect 12 0 17 0;
#X connect 12 0 24 0;
#X connect 13 0 0 0;
#X connect 14 0 1 0;
#X connect 15 0 0 0;
#X connect 16 0 1 0;
#X connect 17 0 20 0;
#X connect 17 0 23 0;
#X connect 17 1 21 0;
#X connect 17 1 22 0;
#X connect 17 2 21 0;
#X connect 17 2 23 0;
#X connect 20 0 13 1;
#X connect 20 0 16 1;
#X connect 21 0 16 1;
#X connect 21 0 13 1;
#X connect 22 0 15 1;
#X connect 22 0 14 1;
#X connect 23 0 15 1;
#X connect 23 0 14 1;
#X connect 27 0 9 0;
#X connect 28 0 39 0;
#X connect 29 0 3 0;
#X connect 29 0 50 0;
#X connect 30 0 31 0;
#X connect 30 0 32 0;
#X connect 31 0 2 0;
#X connect 31 0 40 0;
#X connect 35 0 38 0;
#X connect 36 0 29 1;
#X connect 36 0 30 1;
#X connect 37 0 29 1;
#X connect 37 0 30 1;
#X connect 38 0 33 0;
#X connect 38 0 36 0;
#X connect 38 0 47 0;
#X connect 38 0 61 0;
#X connect 38 1 34 0;
#X connect 38 1 37 0;
#X connect 38 1 46 0;
#X connect 38 1 61 0;
#X connect 39 0 26 0;
#X connect 39 0 31 1;
#X connect 39 0 35 0;
#X connect 39 0 57 0;
#X connect 41 0 28 0;
#X connect 42 0 2 0;
#X connect 42 0 49 0;
#X connect 42 0 58 0;
#X connect 43 0 44 0;
#X connect 43 0 45 0;
#X connect 44 0 48 0;
#X connect 44 0 3 0;
#X connect 46 0 42 1;
#X connect 46 0 43 1;
#X connect 47 0 42 1;
#X connect 47 0 43 1;
#X connect 57 0 56 0;
#X connect 57 0 62 0;
#X connect 60 0 59 0;
#X connect 60 0 29 0;
#X connect 60 0 30 0;
#X connect 60 0 42 0;
#X connect 60 0 43 0;
#X connect 61 0 60 0;
#X connect 62 0 44 1;
#X coords 0 0 1 1 150 100 0;
