#N canvas 30 548 1272 969 10;
#X msg 128 334 open \$1;
#X msg 371 657 start;
#X msg 426 658 stop;
#X obj 372 747 oggread~;
#X msg 479 660 resume;
#X obj 128 162 inlet;
#X obj 223 162 inlet;
#X obj 128 281 spigot;
#X msg 223 237 1;
#X msg 268 238 0;
#X obj 426 436 / 25;
#X obj 426 493 select 0 6 7;
#X obj 426 463 int;
#X obj 426 336 spigot;
#X obj 223 203 select 4;
#X obj 205 888 outlet~;
#X obj 273 890 outlet~;
#X obj 426 176 r \$0-c9;
#X connect 0 0 3 0;
#X connect 1 0 3 0;
#X connect 2 0 3 0;
#X connect 3 0 15 0;
#X connect 3 1 16 0;
#X connect 4 0 3 0;
#X connect 5 0 7 0;
#X connect 6 0 14 0;
#X connect 7 0 0 0;
#X connect 8 0 7 1;
#X connect 8 0 13 1;
#X connect 9 0 7 1;
#X connect 9 0 13 1;
#X connect 10 0 12 0;
#X connect 11 0 1 0;
#X connect 11 1 2 0;
#X connect 11 2 4 0;
#X connect 12 0 11 0;
#X connect 13 0 10 0;
#X connect 14 0 8 0;
#X connect 14 1 9 0;
#X connect 17 0 13 0;
