#N canvas 0 0 450 300 10;
#X obj 191 846 *~ 0;
#X obj 486 849 *~ 0;
#X obj 511 770 dbtorms;
#X obj 216 767 dbtorms;
#X obj 58 64 inlet~;
#X obj 113 65 inlet~;
#X obj 328 953 dac~;
#X obj 822 133 / 2.55;
#X obj 510 56 inlet~;
#X obj 563 56 inlet~;
#X obj 309 10 inlet;
#X obj 47 195 spigot~;
#X obj 575 193 spigot~;
#X obj 488 191 spigot~;
#X obj 127 196 spigot~;
#X obj 309 40 sel 1 4;
#X msg 182 114 0;
#X msg 227 114 1;
#X msg 354 104 0;
#X msg 396 103 1;
#X obj 583 471 spigot;
#X obj 715 469 spigot;
#X obj 715 534 *;
#X obj 700 472 bng 15 250 50 0 empty empty empty 17 7 0 10 -262144
-1 -1;
#X obj 939 160 bng 15 250 50 0 empty empty empty 17 7 0 10 -262144
-1 -1;
#X obj 1017 159 bng 15 250 50 0 empty empty empty 17 7 0 10 -262144
-1 -1;
#X obj 968 94 int;
#X msg 664 423 1;
#X msg 707 424 0;
#X obj 968 161 sel 0;
#X obj 1158 16 / 127.5;
#X obj 1265 666 spigot;
#X obj 978 591 spigot;
#X obj 978 656 *;
#X obj 1027 610 bng 15 250 50 0 empty empty empty 17 7 0 10 -262144
-1 -1;
#X msg 1110 498 1;
#X msg 1153 499 0;
#X floatatom 1273 686 5 0 0 0 - - -;
#X text 280 -11 Selector entrada;
#X text 95 41 L/R;
#X text 543 26 L/R;
#X obj 1158 120 - 2;
#X obj 1312 669 bng 15 250 50 0 empty empty empty 17 7 0 10 -262144
-1 -1;
#X obj 776 292 float;
#X obj 788 265 t b;
#X obj 1158 187 abs;
#X obj 822 57 inlet;
#X text 816 33 Volumen c21;
#X obj 1158 -33 inlet;
#X text 1150 -59 Pan c22;
#X connect 0 0 6 0;
#X connect 1 0 6 1;
#X connect 2 0 1 1;
#X connect 3 0 0 1;
#X connect 4 0 11 0;
#X connect 5 0 14 0;
#X connect 7 0 43 0;
#X connect 8 0 13 0;
#X connect 9 0 12 0;
#X connect 10 0 15 0;
#X connect 11 0 0 0;
#X connect 12 0 1 0;
#X connect 13 0 0 0;
#X connect 14 0 1 0;
#X connect 15 0 16 0;
#X connect 15 0 19 0;
#X connect 15 1 17 0;
#X connect 15 1 18 0;
#X connect 15 2 17 0;
#X connect 15 2 19 0;
#X connect 16 0 11 1;
#X connect 16 0 14 1;
#X connect 17 0 14 1;
#X connect 17 0 11 1;
#X connect 18 0 13 1;
#X connect 18 0 12 1;
#X connect 19 0 13 1;
#X connect 19 0 12 1;
#X connect 20 0 3 0;
#X connect 21 0 22 0;
#X connect 21 0 23 0;
#X connect 22 0 2 0;
#X connect 26 0 29 0;
#X connect 27 0 20 1;
#X connect 27 0 21 1;
#X connect 28 0 20 1;
#X connect 28 0 21 1;
#X connect 29 0 24 0;
#X connect 29 0 27 0;
#X connect 29 0 36 0;
#X connect 29 0 44 0;
#X connect 29 1 25 0;
#X connect 29 1 28 0;
#X connect 29 1 35 0;
#X connect 29 1 44 0;
#X connect 30 0 22 1;
#X connect 30 0 26 0;
#X connect 30 0 41 0;
#X connect 31 0 2 0;
#X connect 31 0 37 0;
#X connect 31 0 42 0;
#X connect 32 0 33 0;
#X connect 32 0 34 0;
#X connect 33 0 3 0;
#X connect 35 0 31 1;
#X connect 35 0 32 1;
#X connect 36 0 31 1;
#X connect 36 0 32 1;
#X connect 41 0 45 0;
#X connect 43 0 20 0;
#X connect 43 0 21 0;
#X connect 43 0 31 0;
#X connect 43 0 32 0;
#X connect 44 0 43 0;
#X connect 45 0 33 1;
#X connect 46 0 7 0;
#X connect 48 0 30 0;
