#N canvas 127 75 889 617 10;
#X obj -66 44 t b;
#X obj 350 38 bng 15 250 50 0 empty empty empty 17 7 0 10 -262144 -1
-1;
#X obj 41 429 symbol;
#X symbolatom 13 41 50 0 0 0 - - -;
#X obj 512 182 loadbang;
#X text 320 19 change path;
#X text 96 23 current path;
#X obj 350 134 openpanel;
#X obj 350 166 symbol2list /;
#X obj 350 196 t l l;
#X obj 406 221 list length;
#X obj 406 248 - 1;
#X obj 350 277 list split;
#X obj 350 306 l2s /;
#X text 508 324 Default Path \; Edit this to your media path;
#X text 44 8 Path to medias;
#X msg 512 306 /home/santi/PMS/svn/media;
#X obj -66 14 r config_r;
#X obj 41 505 s config_s;
#X connect 0 0 2 0;
#X connect 1 0 7 0;
#X connect 2 0 3 0;
#X connect 2 0 18 0;
#X connect 4 0 16 0;
#X connect 7 0 8 0;
#X connect 8 0 9 0;
#X connect 9 0 12 0;
#X connect 9 1 10 0;
#X connect 10 0 11 0;
#X connect 11 0 12 1;
#X connect 12 0 13 0;
#X connect 13 0 2 0;
#X connect 16 0 2 0;
#X connect 17 0 0 0;
#X coords 0 0 1 1 400 60 2 0 0;
