#N canvas 326 145 889 617 10;
#X obj 65 169 symbol;
#X symbolatom 3 41 50 0 0 0 - - -;
#X text 96 23 current path;
#X text 44 8 Path to medias;
#X obj 302 10 bng 15 250 50 0 empty empty Refresh_Path 17 7 0 10 -262144
-1 -1;
#X obj 206 125 r path_r;
#X obj 209 215 s path_s;
#X obj 65 112 r path;
#X connect 0 0 1 0;
#X connect 0 0 6 0;
#X connect 4 0 0 0;
#X connect 5 0 0 0;
#X connect 7 0 0 0;
#X coords 0 0 1 1 400 60 2 0 0;
