#N canvas 0 87 1379 854 10;
#X obj 451 320 artnetin;
#X obj -165 472 list split 32;
#X text 309 118 Subnet Universo;
#X obj 81 -54 loadbang;
#X obj -193 438 list split;
#X obj -4 476 list split 32;
#X obj -32 439 list split;
#X obj -136 407 - 1;
#X obj 25 395 - 1;
#X msg 106 61 1;
#X msg 168 59 33;
#X floatatom 106 141 5 0 0 0 - - -;
#X floatatom 167 140 5 0 0 0 - - -;
#X text 100 123 Layer 1;
#X text 159 121 Layer 2;
#X text 181 101 DMX Address;
#X obj 467 140 bng 15 250 50 0 empty empty empty 17 7 0 10 -262144
-1 -1;
#X text 351 99 ArtNet control;
#X floatatom 317 139 5 0 0 0 - - -;
#X floatatom 365 140 5 0 0 0 - - -;
#X obj 427 137 bng 15 250 50 0 empty empty empty 17 7 0 10 -262144
-1 -1;
#X obj 317 189 t f;
#X obj 317 223 pack f f;
#X msg 336 39 0;
#X text 210 122 Layer 3;
#X text 262 121 Layer 4;
#X floatatom 217 140 5 0 0 0 - - -;
#X floatatom 271 140 5 0 0 0 - - -;
#X msg 217 61 65;
#X msg 271 63 73;
#X msg 467 199 close;
#X obj 511 338 bng 15 250 50 0 empty empty empty 17 7 0 10 -262144
-1 -1;
#X msg 398 252 open \$1 \$2;
#X text 420 118 open;
#X text 456 120 close;
#N canvas 541 273 449 300 demux_1 0;
#X obj -441 434 s c1;
#X obj -396 434 s c2;
#X obj -347 435 s c3;
#X obj -251 438 s c5;
#X obj -461 554 s c6;
#X obj -411 554 s c7;
#X obj -364 553 s c8;
#X obj -317 554 s c9;
#X obj -272 554 s c10;
#X obj -226 554 s c11;
#X obj -180 556 s c12;
#X obj -130 558 s c13;
#X obj -81 556 s c14;
#X obj -33 557 s c15;
#X obj 18 561 s c16;
#X obj 66 589 s c17;
#X obj 111 593 s c18;
#X obj 155 597 s c19;
#X obj 203 597 s c20;
#X obj 251 597 s c21;
#X obj 302 597 s c22;
#X obj 351 598 s c23;
#X obj 401 597 s c24;
#X obj 454 604 s c25;
#X obj 503 604 s c26;
#X obj 351 491 s c28;
#X obj 553 604 s c27;
#X obj 400 492 s c29;
#X obj 445 490 s c30;
#X obj 99 335 unpack f f f f f f f f f f f f f f f f f f f f f f f
f f f f f f f f f;
#X obj 493 490 s c31;
#X obj 542 488 s c32;
#X obj -299 437 s c4;
#X obj 79 344 bng 15 250 50 0 empty empty empty 17 7 0 10 -262144 -1
-1;
#X obj -318 522 change;
#X obj -272 523 change;
#X obj -228 523 change;
#X obj -179 524 change;
#X obj -132 525 change;
#X obj -83 525 change;
#X obj -34 527 change;
#X obj 15 526 change;
#X obj 64 524 change;
#X obj 110 525 change;
#X obj 154 525 change;
#X obj 203 526 change;
#X obj 250 527 change;
#X obj 299 527 change;
#X obj 348 529 change;
#X obj 397 528 change;
#X obj 452 526 change;
#X obj 498 527 change;
#X obj 542 527 change;
#X obj 343 413 change;
#X obj 390 414 change;
#X obj 439 414 change;
#X obj 488 416 change;
#X obj 537 415 change;
#X obj -441 405 change;
#X obj -395 406 change;
#X obj -351 406 change;
#X obj -302 407 change;
#X obj -255 408 change;
#X obj -463 521 change;
#X obj -414 523 change;
#X obj -365 522 change;
#X floatatom -435 480 5 0 0 0 - - -;
#X floatatom 2 338 5 0 0 0 - - -;
#X floatatom -352 479 5 0 0 0 - - -;
#X floatatom -395 480 5 0 0 0 - - -;
#X floatatom -308 479 5 0 0 0 - - -;
#X obj 99 281 inlet;
#X connect 29 0 33 0;
#X connect 29 0 58 0;
#X connect 29 1 59 0;
#X connect 29 1 67 0;
#X connect 29 2 60 0;
#X connect 29 3 61 0;
#X connect 29 4 62 0;
#X connect 29 5 63 0;
#X connect 29 6 64 0;
#X connect 29 7 65 0;
#X connect 29 8 34 0;
#X connect 29 9 35 0;
#X connect 29 10 36 0;
#X connect 29 11 37 0;
#X connect 29 12 38 0;
#X connect 29 13 39 0;
#X connect 29 14 40 0;
#X connect 29 15 41 0;
#X connect 29 16 42 0;
#X connect 29 17 43 0;
#X connect 29 18 44 0;
#X connect 29 19 45 0;
#X connect 29 20 46 0;
#X connect 29 21 47 0;
#X connect 29 22 48 0;
#X connect 29 23 49 0;
#X connect 29 24 50 0;
#X connect 29 25 51 0;
#X connect 29 26 52 0;
#X connect 29 27 53 0;
#X connect 29 28 54 0;
#X connect 29 29 55 0;
#X connect 29 30 56 0;
#X connect 29 31 57 0;
#X connect 34 0 7 0;
#X connect 35 0 8 0;
#X connect 36 0 9 0;
#X connect 37 0 10 0;
#X connect 38 0 11 0;
#X connect 39 0 12 0;
#X connect 40 0 13 0;
#X connect 41 0 14 0;
#X connect 42 0 15 0;
#X connect 43 0 16 0;
#X connect 44 0 17 0;
#X connect 45 0 18 0;
#X connect 46 0 19 0;
#X connect 47 0 20 0;
#X connect 48 0 21 0;
#X connect 49 0 22 0;
#X connect 50 0 23 0;
#X connect 51 0 24 0;
#X connect 52 0 26 0;
#X connect 53 0 25 0;
#X connect 54 0 27 0;
#X connect 55 0 28 0;
#X connect 56 0 30 0;
#X connect 57 0 31 0;
#X connect 58 0 0 0;
#X connect 58 0 66 0;
#X connect 59 0 1 0;
#X connect 59 0 69 0;
#X connect 60 0 2 0;
#X connect 60 0 68 0;
#X connect 61 0 32 0;
#X connect 61 0 70 0;
#X connect 62 0 3 0;
#X connect 63 0 4 0;
#X connect 64 0 5 0;
#X connect 65 0 6 0;
#X connect 71 0 29 0;
#X restore -165 506 pd demux_1;
#N canvas 0 0 1280 943 demux_2 0;
#X obj 109 345 unpack f f f f f f f f f f f f f f f f f f f f f f f
f f f f f f f f f;
#X obj 89 354 bng 15 250 50 0 empty empty empty 17 7 0 10 -262144 -1
-1;
#X obj -308 532 change;
#X obj -262 533 change;
#X obj -218 533 change;
#X obj -169 534 change;
#X obj -122 535 change;
#X obj -73 535 change;
#X obj -24 537 change;
#X obj 25 536 change;
#X obj 74 534 change;
#X obj 120 535 change;
#X obj 164 535 change;
#X obj 213 536 change;
#X obj 260 537 change;
#X obj 309 537 change;
#X obj 358 539 change;
#X obj 407 538 change;
#X obj 462 536 change;
#X obj 508 537 change;
#X obj 552 537 change;
#X obj 353 423 change;
#X obj 400 424 change;
#X obj 449 424 change;
#X obj 498 426 change;
#X obj 547 425 change;
#X obj -431 415 change;
#X obj -385 416 change;
#X obj -341 416 change;
#X obj -292 417 change;
#X obj -245 418 change;
#X obj -453 531 change;
#X obj -404 533 change;
#X obj -355 532 change;
#X floatatom -425 490 5 0 0 0 - - -;
#X floatatom 12 348 5 0 0 0 - - -;
#X floatatom -342 489 5 0 0 0 - - -;
#X floatatom -385 490 5 0 0 0 - - -;
#X floatatom -298 489 5 0 0 0 - - -;
#X obj 109 291 inlet;
#X obj -431 444 s c33;
#X obj -386 444 s c34;
#X obj -337 445 s c35;
#X obj -289 447 s c36;
#X obj -241 448 s c37;
#X obj -451 564 s c38;
#X obj -401 564 s c39;
#X obj -354 563 s c40;
#X obj -307 564 s c41;
#X obj -262 564 s c42;
#X obj -216 564 s c43;
#X obj -170 566 s c44;
#X obj -120 568 s c45;
#X obj -71 566 s c46;
#X obj -23 567 s c47;
#X obj 28 571 s c48;
#X obj 76 599 s c49;
#X obj 121 603 s c50;
#X obj 165 607 s c51;
#X obj 213 607 s c52;
#X obj 261 607 s c53;
#X obj 312 607 s c54;
#X obj 361 608 s c55;
#X obj 411 607 s c56;
#X obj 464 614 s c57;
#X obj 513 614 s c58;
#X obj 563 614 s c59;
#X obj 361 501 s c60;
#X obj 410 502 s c61;
#X obj 455 500 s c62;
#X obj 503 500 s c63;
#X obj 552 498 s c64;
#X connect 0 0 1 0;
#X connect 0 0 26 0;
#X connect 0 1 27 0;
#X connect 0 1 35 0;
#X connect 0 2 28 0;
#X connect 0 3 29 0;
#X connect 0 4 30 0;
#X connect 0 5 31 0;
#X connect 0 6 32 0;
#X connect 0 7 33 0;
#X connect 0 8 2 0;
#X connect 0 9 3 0;
#X connect 0 10 4 0;
#X connect 0 11 5 0;
#X connect 0 12 6 0;
#X connect 0 13 7 0;
#X connect 0 14 8 0;
#X connect 0 15 9 0;
#X connect 0 16 10 0;
#X connect 0 17 11 0;
#X connect 0 18 12 0;
#X connect 0 19 13 0;
#X connect 0 20 14 0;
#X connect 0 21 15 0;
#X connect 0 22 16 0;
#X connect 0 23 17 0;
#X connect 0 24 18 0;
#X connect 0 25 19 0;
#X connect 0 26 20 0;
#X connect 0 27 21 0;
#X connect 0 28 22 0;
#X connect 0 29 23 0;
#X connect 0 30 24 0;
#X connect 0 31 25 0;
#X connect 2 0 48 0;
#X connect 3 0 49 0;
#X connect 4 0 50 0;
#X connect 5 0 51 0;
#X connect 6 0 52 0;
#X connect 7 0 53 0;
#X connect 8 0 54 0;
#X connect 9 0 55 0;
#X connect 10 0 56 0;
#X connect 11 0 57 0;
#X connect 12 0 58 0;
#X connect 13 0 59 0;
#X connect 14 0 60 0;
#X connect 15 0 61 0;
#X connect 16 0 62 0;
#X connect 17 0 63 0;
#X connect 18 0 64 0;
#X connect 19 0 65 0;
#X connect 20 0 66 0;
#X connect 21 0 67 0;
#X connect 22 0 68 0;
#X connect 23 0 69 0;
#X connect 24 0 70 0;
#X connect 25 0 71 0;
#X connect 26 0 34 0;
#X connect 26 0 40 0;
#X connect 27 0 37 0;
#X connect 27 0 41 0;
#X connect 28 0 36 0;
#X connect 28 0 42 0;
#X connect 29 0 38 0;
#X connect 29 0 43 0;
#X connect 30 0 44 0;
#X connect 31 0 45 0;
#X connect 32 0 46 0;
#X connect 33 0 47 0;
#X connect 39 0 0 0;
#X restore -4 513 pd demux_2;
#X obj 113 471 list split 32;
#X obj 85 434 list split;
#X obj 142 390 - 1;
#N canvas 0 0 1280 943 demux_3 0;
#X obj 109 345 unpack f f f f f f f f f f f f f f f f f f f f f f f
f f f f f f f f f;
#X obj 89 354 bng 15 250 50 0 empty empty empty 17 7 0 10 -262144 -1
-1;
#X obj -308 532 change;
#X obj -262 533 change;
#X obj -218 533 change;
#X obj -169 534 change;
#X obj -122 535 change;
#X obj -73 535 change;
#X obj -24 537 change;
#X obj 25 536 change;
#X obj 74 534 change;
#X obj 120 535 change;
#X obj 164 535 change;
#X obj 213 536 change;
#X obj 260 537 change;
#X obj 309 537 change;
#X obj 358 539 change;
#X obj 407 538 change;
#X obj 462 536 change;
#X obj 508 537 change;
#X obj 552 537 change;
#X obj 353 423 change;
#X obj 400 424 change;
#X obj 449 424 change;
#X obj 498 426 change;
#X obj 547 425 change;
#X obj -431 415 change;
#X obj -385 416 change;
#X obj -341 416 change;
#X obj -292 417 change;
#X obj -245 418 change;
#X obj -453 531 change;
#X obj -404 533 change;
#X obj -355 532 change;
#X floatatom -425 490 5 0 0 0 - - -;
#X floatatom 12 348 5 0 0 0 - - -;
#X floatatom -342 489 5 0 0 0 - - -;
#X floatatom -385 490 5 0 0 0 - - -;
#X floatatom -298 489 5 0 0 0 - - -;
#X obj 109 291 inlet;
#X obj -431 444 s c65;
#X obj -386 444 s c66;
#X obj -337 445 s c67;
#X obj -289 447 s c68;
#X obj -241 448 s c69;
#X obj -451 564 s c70;
#X obj -401 564 s c71;
#X obj -354 563 s c72;
#X obj -307 564 s c73;
#X obj -262 564 s c74;
#X obj -216 564 s c75;
#X obj -170 566 s c76;
#X obj -122 567 s c77;
#X obj -73 565 s c78;
#X obj -24 567 s c79;
#X obj 25 573 s c80;
#X obj 74 598 s c81;
#X obj 121 603 s c82;
#X obj 165 607 s c83;
#X obj 213 607 s c84;
#X obj 261 607 s c85;
#X obj 312 607 s c86;
#X obj 361 608 s c87;
#X obj 411 607 s c88;
#X obj 464 614 s c89;
#X obj 513 614 s c90;
#X obj 563 614 s c91;
#X obj 361 501 s c92;
#X obj 410 502 s c93;
#X obj 455 500 s c94;
#X obj 503 500 s c95;
#X obj 552 498 s c96;
#X connect 0 0 1 0;
#X connect 0 0 26 0;
#X connect 0 1 27 0;
#X connect 0 1 35 0;
#X connect 0 2 28 0;
#X connect 0 3 29 0;
#X connect 0 4 30 0;
#X connect 0 5 31 0;
#X connect 0 6 32 0;
#X connect 0 7 33 0;
#X connect 0 8 2 0;
#X connect 0 9 3 0;
#X connect 0 10 4 0;
#X connect 0 11 5 0;
#X connect 0 12 6 0;
#X connect 0 13 7 0;
#X connect 0 14 8 0;
#X connect 0 15 9 0;
#X connect 0 16 10 0;
#X connect 0 17 11 0;
#X connect 0 18 12 0;
#X connect 0 19 13 0;
#X connect 0 20 14 0;
#X connect 0 21 15 0;
#X connect 0 22 16 0;
#X connect 0 23 17 0;
#X connect 0 24 18 0;
#X connect 0 25 19 0;
#X connect 0 26 20 0;
#X connect 0 27 21 0;
#X connect 0 28 22 0;
#X connect 0 29 23 0;
#X connect 0 30 24 0;
#X connect 0 31 25 0;
#X connect 2 0 48 0;
#X connect 3 0 49 0;
#X connect 4 0 50 0;
#X connect 5 0 51 0;
#X connect 6 0 52 0;
#X connect 7 0 53 0;
#X connect 8 0 54 0;
#X connect 9 0 55 0;
#X connect 10 0 56 0;
#X connect 11 0 57 0;
#X connect 12 0 58 0;
#X connect 13 0 59 0;
#X connect 14 0 60 0;
#X connect 15 0 61 0;
#X connect 16 0 62 0;
#X connect 17 0 63 0;
#X connect 18 0 64 0;
#X connect 19 0 65 0;
#X connect 20 0 66 0;
#X connect 21 0 67 0;
#X connect 22 0 68 0;
#X connect 23 0 69 0;
#X connect 24 0 70 0;
#X connect 25 0 71 0;
#X connect 26 0 34 0;
#X connect 26 0 40 0;
#X connect 27 0 37 0;
#X connect 27 0 41 0;
#X connect 28 0 36 0;
#X connect 28 0 42 0;
#X connect 29 0 38 0;
#X connect 29 0 43 0;
#X connect 30 0 44 0;
#X connect 31 0 45 0;
#X connect 32 0 46 0;
#X connect 33 0 47 0;
#X connect 39 0 0 0;
#X restore 113 508 pd demux_3;
#X obj 247 475 list split 32;
#X obj 219 438 list split;
#X obj 276 394 - 1;
#N canvas 0 0 1280 943 demux_4 0;
#X obj 109 345 unpack f f f f f f f f f f f f f f f f f f f f f f f
f f f f f f f f f;
#X obj 89 354 bng 15 250 50 0 empty empty empty 17 7 0 10 -262144 -1
-1;
#X obj -308 532 change;
#X obj -262 533 change;
#X obj -218 533 change;
#X obj -169 534 change;
#X obj -122 535 change;
#X obj -73 535 change;
#X obj -24 537 change;
#X obj 25 536 change;
#X obj 74 534 change;
#X obj 120 535 change;
#X obj 164 535 change;
#X obj 213 536 change;
#X obj 260 537 change;
#X obj 309 537 change;
#X obj 358 539 change;
#X obj 407 538 change;
#X obj 462 536 change;
#X obj 508 537 change;
#X obj 552 537 change;
#X obj 353 423 change;
#X obj 400 424 change;
#X obj 449 424 change;
#X obj 498 426 change;
#X obj 547 425 change;
#X obj -431 415 change;
#X obj -385 416 change;
#X obj -341 416 change;
#X obj -292 417 change;
#X obj -245 418 change;
#X obj -453 531 change;
#X obj -404 533 change;
#X obj -355 532 change;
#X floatatom -425 490 5 0 0 0 - - -;
#X floatatom 12 348 5 0 0 0 - - -;
#X floatatom -342 489 5 0 0 0 - - -;
#X floatatom -385 490 5 0 0 0 - - -;
#X floatatom -298 489 5 0 0 0 - - -;
#X obj 109 291 inlet;
#X obj -431 444 s c97;
#X obj -386 444 s c98;
#X obj -337 445 s c99;
#X obj -289 447 s c100;
#X obj -241 448 s c101;
#X obj -451 564 s c102;
#X obj -401 564 s c103;
#X obj -354 563 s c104;
#X obj -307 564 s c105;
#X obj -262 564 s c106;
#X obj -216 564 s c107;
#X obj -170 566 s c108;
#X obj -122 567 s c109;
#X obj -73 565 s c110;
#X obj -24 567 s c111;
#X obj 25 573 s c112;
#X obj 74 598 s c113;
#X obj 121 603 s c114;
#X obj 165 607 s c115;
#X obj 213 607 s c116;
#X obj 261 607 s c117;
#X obj 312 607 s c118;
#X obj 361 608 s c119;
#X obj 411 607 s c120;
#X obj 464 614 s c121;
#X obj 513 614 s c122;
#X obj 563 614 s c123;
#X obj 361 501 s c124;
#X obj 410 502 s c125;
#X obj 455 500 s c126;
#X obj 504 501 s c127;
#X obj 552 498 s c128;
#X connect 0 0 1 0;
#X connect 0 0 26 0;
#X connect 0 1 27 0;
#X connect 0 1 35 0;
#X connect 0 2 28 0;
#X connect 0 3 29 0;
#X connect 0 4 30 0;
#X connect 0 5 31 0;
#X connect 0 6 32 0;
#X connect 0 7 33 0;
#X connect 0 8 2 0;
#X connect 0 9 3 0;
#X connect 0 10 4 0;
#X connect 0 11 5 0;
#X connect 0 12 6 0;
#X connect 0 13 7 0;
#X connect 0 14 8 0;
#X connect 0 15 9 0;
#X connect 0 16 10 0;
#X connect 0 17 11 0;
#X connect 0 18 12 0;
#X connect 0 19 13 0;
#X connect 0 20 14 0;
#X connect 0 21 15 0;
#X connect 0 22 16 0;
#X connect 0 23 17 0;
#X connect 0 24 18 0;
#X connect 0 25 19 0;
#X connect 0 26 20 0;
#X connect 0 27 21 0;
#X connect 0 28 22 0;
#X connect 0 29 23 0;
#X connect 0 30 24 0;
#X connect 0 31 25 0;
#X connect 2 0 48 0;
#X connect 3 0 49 0;
#X connect 4 0 50 0;
#X connect 5 0 51 0;
#X connect 6 0 52 0;
#X connect 7 0 53 0;
#X connect 8 0 54 0;
#X connect 9 0 55 0;
#X connect 10 0 56 0;
#X connect 11 0 57 0;
#X connect 12 0 58 0;
#X connect 13 0 59 0;
#X connect 14 0 60 0;
#X connect 15 0 61 0;
#X connect 16 0 62 0;
#X connect 17 0 63 0;
#X connect 18 0 64 0;
#X connect 19 0 65 0;
#X connect 20 0 66 0;
#X connect 21 0 67 0;
#X connect 22 0 68 0;
#X connect 23 0 69 0;
#X connect 24 0 70 0;
#X connect 25 0 71 0;
#X connect 26 0 34 0;
#X connect 26 0 40 0;
#X connect 27 0 37 0;
#X connect 27 0 41 0;
#X connect 28 0 36 0;
#X connect 28 0 42 0;
#X connect 29 0 38 0;
#X connect 29 0 43 0;
#X connect 30 0 44 0;
#X connect 31 0 45 0;
#X connect 32 0 46 0;
#X connect 33 0 47 0;
#X connect 39 0 0 0;
#X restore 247 512 pd demux_4;
#X connect 0 0 4 0;
#X connect 0 0 31 0;
#X connect 0 0 6 0;
#X connect 0 0 38 0;
#X connect 0 0 42 0;
#X connect 1 0 35 0;
#X connect 3 0 10 0;
#X connect 3 0 9 0;
#X connect 3 0 28 0;
#X connect 3 0 29 0;
#X connect 4 1 1 0;
#X connect 5 0 36 0;
#X connect 6 1 5 0;
#X connect 7 0 4 1;
#X connect 8 0 6 1;
#X connect 9 0 11 0;
#X connect 10 0 12 0;
#X connect 11 0 7 0;
#X connect 12 0 8 0;
#X connect 16 0 30 0;
#X connect 18 0 21 0;
#X connect 19 0 22 1;
#X connect 20 0 19 0;
#X connect 20 0 18 0;
#X connect 21 0 22 0;
#X connect 22 0 32 0;
#X connect 23 0 19 0;
#X connect 23 0 18 0;
#X connect 26 0 39 0;
#X connect 27 0 43 0;
#X connect 28 0 26 0;
#X connect 29 0 27 0;
#X connect 30 0 0 0;
#X connect 32 0 0 0;
#X connect 37 0 40 0;
#X connect 38 1 37 0;
#X connect 39 0 38 1;
#X connect 41 0 44 0;
#X connect 42 1 41 0;
#X connect 43 0 42 1;
#X coords 0 -1 1 1 420 60 1 100 100;
