#N canvas 0 54 1144 689 10;
#X obj 205 -51 artnetin;
#X obj 597 379 unpack f f f f f f f f f f f f f f f f f f f f f f f
f f f f f f f f f;
#X obj 543 438 s c33;
#X obj 574 473 s c34;
#X obj 612 474 s c35;
#X obj 626 496 s c36;
#X obj 639 526 s c37;
#X obj 650 558 s c38;
#X obj 661 587 s c39;
#X obj 675 617 s c40;
#X obj 684 473 s c41;
#X obj 695 499 s c42;
#X obj 707 528 s c43;
#X obj 719 557 s c44;
#X obj 731 585 s c45;
#X obj 744 617 s c46;
#X obj 754 475 s c47;
#X obj 765 500 s c48;
#X obj 778 529 s c49;
#X obj 791 558 s c50;
#X obj 803 589 s c51;
#X obj 816 619 s c52;
#X obj 826 481 s c53;
#X obj 838 505 s c54;
#X obj 850 533 s c55;
#X obj 862 562 s c56;
#X obj 874 593 s c57;
#X obj 886 622 s c58;
#X obj 898 478 s c59;
#X obj 910 500 s c60;
#X obj 923 530 s c61;
#X obj 935 558 s c62;
#X obj 952 586 s c63;
#X obj 981 618 s c64;
#X obj 102 298 list split 32;
#X obj 24 451 s c1;
#X obj 65 452 s c2;
#X obj 101 505 s c3;
#X obj 139 482 s c5;
#X obj 150 514 s c6;
#X obj 161 543 s c7;
#X obj 175 573 s c8;
#X obj 184 429 s c9;
#X obj 195 455 s c10;
#X obj 207 484 s c11;
#X obj 219 513 s c12;
#X obj 231 541 s c13;
#X obj 244 573 s c14;
#X obj 254 431 s c15;
#X obj 265 456 s c16;
#X obj 278 485 s c17;
#X obj 291 514 s c18;
#X obj 303 545 s c19;
#X obj 316 575 s c20;
#X obj 326 437 s c21;
#X obj 338 461 s c22;
#X obj 350 489 s c23;
#X obj 362 518 s c24;
#X obj 374 549 s c25;
#X obj 386 578 s c26;
#X obj 410 456 s c28;
#X obj 398 434 s c27;
#X obj 423 486 s c29;
#X obj 435 514 s c30;
#X obj 102 356 unpack f f f f f f f f f f f f f f f f f f f f f f f
f f f f f f f f f;
#X obj 452 542 s c31;
#X obj 481 574 s c32;
#X obj 122 528 s c4;
#X msg 284 -113 destroy;
#X text 309 118 Subnet Universo;
#X obj 104 -47 loadbang;
#X obj 74 264 list split;
#X obj 582 332 list split 32;
#X obj 569 282 list split;
#X obj 131 233 - 1;
#X obj 626 238 - 1;
#X msg 106 61 1;
#X msg 168 59 33;
#X floatatom 86 614 5 0 0 0 - - -;
#X obj 149 627 bng 15 250 50 0 empty empty empty 17 7 0 10 -262144
-1 -1;
#X obj 205 -115 metro 50;
#X obj 205 -276 r render_status_sendr;
#X obj 379 -272 r input_selector;
#X obj 205 -171 spigot;
#X obj 379 -241 select 0;
#X msg 325 -205 1;
#X msg 371 -204 0;
#X floatatom 106 141 5 0 0 0 - - -;
#X floatatom 167 140 5 0 0 0 - - -;
#X text 100 123 Layer 1;
#X text 159 121 Layer 2;
#X text 181 101 DMX Address;
#X msg 391 -88 create \$1;
#X obj 467 140 bng 15 250 50 0 empty empty empty 17 7 0 10 -262144
-1 -1;
#X text 455 117 Destroy;
#X text 351 99 ArtNet control;
#X floatatom 317 139 5 0 0 0 - - -;
#X floatatom 365 140 5 0 0 0 - - -;
#X obj 423 139 bng 15 250 50 0 empty empty empty 17 7 0 10 -262144
-1 -1;
#X text 412 116 create;
#X obj 317 189 t f;
#X obj 317 223 pack f f;
#X msg 336 39 0;
#X text 210 122 Layer 3;
#X text 262 121 Layer 4;
#X floatatom 217 140 5 0 0 0 - - -;
#X floatatom 271 140 5 0 0 0 - - -;
#X msg 217 61 65;
#X msg 271 63 73;
#X connect 0 0 71 0;
#X connect 0 0 73 0;
#X connect 1 0 2 0;
#X connect 1 1 3 0;
#X connect 1 2 4 0;
#X connect 1 3 5 0;
#X connect 1 4 6 0;
#X connect 1 5 7 0;
#X connect 1 6 8 0;
#X connect 1 7 9 0;
#X connect 1 8 10 0;
#X connect 1 9 11 0;
#X connect 1 10 12 0;
#X connect 1 11 13 0;
#X connect 1 12 14 0;
#X connect 1 13 15 0;
#X connect 1 14 16 0;
#X connect 1 15 17 0;
#X connect 1 16 18 0;
#X connect 1 17 19 0;
#X connect 1 18 20 0;
#X connect 1 19 21 0;
#X connect 1 20 22 0;
#X connect 1 21 23 0;
#X connect 1 22 24 0;
#X connect 1 23 25 0;
#X connect 1 24 26 0;
#X connect 1 25 27 0;
#X connect 1 26 28 0;
#X connect 1 27 29 0;
#X connect 1 28 30 0;
#X connect 1 29 31 0;
#X connect 1 30 32 0;
#X connect 1 31 33 0;
#X connect 34 0 64 0;
#X connect 64 0 35 0;
#X connect 64 0 78 0;
#X connect 64 0 79 0;
#X connect 64 1 36 0;
#X connect 64 2 37 0;
#X connect 64 3 67 0;
#X connect 64 4 38 0;
#X connect 64 5 39 0;
#X connect 64 6 40 0;
#X connect 64 7 41 0;
#X connect 64 8 42 0;
#X connect 64 9 43 0;
#X connect 64 10 44 0;
#X connect 64 11 45 0;
#X connect 64 12 46 0;
#X connect 64 13 47 0;
#X connect 64 14 48 0;
#X connect 64 15 49 0;
#X connect 64 16 50 0;
#X connect 64 17 51 0;
#X connect 64 18 52 0;
#X connect 64 19 53 0;
#X connect 64 20 54 0;
#X connect 64 21 55 0;
#X connect 64 22 56 0;
#X connect 64 23 57 0;
#X connect 64 24 58 0;
#X connect 64 25 59 0;
#X connect 64 26 61 0;
#X connect 64 27 60 0;
#X connect 64 28 62 0;
#X connect 64 29 63 0;
#X connect 64 30 65 0;
#X connect 64 31 66 0;
#X connect 68 0 0 0;
#X connect 70 0 77 0;
#X connect 70 0 76 0;
#X connect 70 0 102 0;
#X connect 70 0 107 0;
#X connect 70 0 108 0;
#X connect 71 1 34 0;
#X connect 72 0 1 0;
#X connect 73 1 72 0;
#X connect 74 0 71 1;
#X connect 75 0 73 1;
#X connect 76 0 87 0;
#X connect 77 0 88 0;
#X connect 80 0 0 0;
#X connect 81 0 83 0;
#X connect 82 0 84 0;
#X connect 83 0 80 0;
#X connect 84 0 85 0;
#X connect 84 1 86 0;
#X connect 85 0 83 1;
#X connect 86 0 83 1;
#X connect 87 0 74 0;
#X connect 88 0 75 0;
#X connect 92 0 0 0;
#X connect 93 0 68 0;
#X connect 96 0 100 0;
#X connect 97 0 101 1;
#X connect 98 0 92 0;
#X connect 100 0 101 0;
#X connect 101 0 92 0;
#X connect 102 0 97 0;
#X connect 102 0 96 0;
#X connect 107 0 105 0;
#X connect 108 0 106 0;
#X coords 0 -1 1 1 420 60 1 100 100;
