#N canvas 517 54 827 809 10;
#X obj 60 281 pix_image;
#X msg -163 159 open \$1;
#X msg 174 230 thread 1;
#X obj 174 204 loadbang;
#X obj 60 90 gemhead;
#X obj 60 203 rotateXYZ;
#X obj 82 113 r c12;
#X obj 127 112 r c13;
#X obj 172 115 r c14;
#X obj 81 137 * 1.5;
#X obj 125 136 * 1.5;
#X obj 172 140 * 1.5;
#X obj -163 57 inlet;
#X obj 60 3 inlet;
#X msg 60 61 1;
#X msg 117 61 0;
#X obj -163 107 spigot;
#X obj 60 34 select 2;
#X obj 60 341 outlet;
#X connect 0 0 18 0;
#X connect 1 0 0 0;
#X connect 2 0 0 0;
#X connect 3 0 2 0;
#X connect 4 0 5 0;
#X connect 5 0 0 0;
#X connect 6 0 9 0;
#X connect 7 0 10 0;
#X connect 8 0 11 0;
#X connect 9 0 5 1;
#X connect 10 0 5 2;
#X connect 11 0 5 3;
#X connect 12 0 16 0;
#X connect 13 0 17 0;
#X connect 14 0 4 0;
#X connect 14 0 16 1;
#X connect 15 0 4 0;
#X connect 15 0 16 1;
#X connect 16 0 1 0;
#X connect 17 0 14 0;
#X connect 17 1 15 0;
