#N canvas 69 75 951 665 10;
#X obj 630 78 unpack f f f f f f f f f f f f f f f f f f f f f f f
f f f f f f f f f;
#X obj 50 242 change;
#X obj 144 242 change;
#X obj 234 278 change;
#X obj 331 278 change;
#X obj 425 300 change;
#X obj 523 300 change;
#X obj 621 300 change;
#X obj 234 362 change;
#X obj 331 362 change;
#X obj 425 384 change;
#X obj 523 384 change;
#X obj 621 384 change;
#X obj 783 242 change;
#X obj 834 242 change;
#X obj 903 242 change;
#X obj 964 242 change;
#X obj 1021 242 change;
#X obj 764 323 change;
#X obj 821 323 change;
#X obj 889 323 change;
#X obj 964 326 change;
#X obj 1021 326 change;
#X obj 1097 323 change;
#X obj 1081 178 change;
#X obj -228 158 change;
#X obj -136 158 change;
#X obj -48 158 change;
#X obj 50 158 change;
#X obj 144 158 change;
#X obj -228 242 change;
#X obj -136 242 change;
#X obj -48 242 change;
#X obj 630 36 list split 32;
#X obj 1464 -6 unpack f f f f f f f f f f f f f f f f f f f f f f f
f f f f f f f f f;
#X obj 1304 262 change;
#X obj 1376 262 change;
#X obj 1433 178 change;
#X obj 1503 178 change;
#X obj 1562 178 change;
#X obj 1611 178 change;
#X obj 1672 178 change;
#X obj 1433 262 change;
#X obj 1503 262 change;
#X obj 1562 262 change;
#X obj 1611 262 change;
#X obj 1672 262 change;
#X obj 1760 178 change;
#X obj 1816 178 change;
#X obj 1881 178 change;
#X obj 1939 178 change;
#X obj 1996 178 change;
#X obj 1760 262 change;
#X obj 1816 262 change;
#X obj 1881 262 change;
#X obj 1939 262 change;
#X obj 1996 262 change;
#X obj 2067 178 change;
#X obj 2136 178 change;
#X obj 1135 178 change;
#X obj 1190 178 change;
#X obj 1248 178 change;
#X obj 1304 178 change;
#X obj 1376 178 change;
#X obj 1135 262 change;
#X obj 1190 262 change;
#X obj 1248 262 change;
#X obj 425 426 << 8;
#X obj 425 468 +;
#X obj 523 426 << 8;
#X obj 523 468 +;
#X obj 621 426 << 8;
#X obj 621 468 +;
#X text 821 406 Alpha High;
#X text 1021 409 Alpha Low;
#X obj 630 -6 inlet;
#X obj -228 200 s \$0-c1;
#X obj -136 200 s \$0-c2;
#X obj -48 200 s \$0-c3;
#X obj 50 200 s \$0-c4;
#X obj 144 200 s \$0-c5;
#X obj -221 300 s \$0-c6;
#X obj -138 300 s \$0-c7;
#X obj -50 300 s \$0-c8;
#X obj 54 300 s \$0-c9;
#X obj 148 300 s \$0-c10;
#X obj 234 320 s \$0-c11;
#X obj 331 320 s \$0-c12;
#X obj 425 342 s \$0-c13;
#X obj 523 342 s \$0-c14;
#X obj 621 342 s \$0-c15;
#X obj 234 404 s \$0-c16;
#X obj 327 492 s \$0-c17;
#X obj 425 510 s \$0-c18;
#X obj 523 510 s \$0-c19;
#X obj 621 510 s \$0-c20;
#X obj 764 365 s \$0-c26;
#X obj 821 365 s \$0-c27;
#X obj 889 365 s \$0-c28;
#X obj 964 368 s \$0-c29;
#X obj 1021 368 s \$0-c30;
#X obj 1097 365 s \$0-c31;
#X obj 1081 220 s \$0-c32;
#X obj 1135 220 s \$0-c33;
#X obj 1190 220 s \$0-c34;
#X obj 1248 220 s \$0-c35;
#X obj 1304 220 s \$0-c36;
#X obj 1376 220 s \$0-c37;
#X obj 1433 220 s \$0-c43;
#X obj 1503 220 s \$0-c44;
#X obj 1562 220 s \$0-c45;
#X obj 1611 220 s \$0-c46;
#X obj 1672 220 s \$0-c47;
#X obj 1135 304 s \$0-c38;
#X obj 1190 304 s \$0-c39;
#X obj 1248 304 s \$0-c40;
#X obj 1304 304 s \$0-c41;
#X obj 1376 304 s \$0-c42;
#X obj 1433 304 s \$0-c48;
#X obj 1503 304 s \$0-c49;
#X obj 1562 304 s \$0-c50;
#X obj 1611 304 s \$0-c51;
#X obj 1672 304 s \$0-c52;
#X obj 1760 304 s \$0-c58;
#X obj 1816 304 s \$0-c59;
#X obj 1881 304 s \$0-c60;
#X obj 1939 304 s \$0-c61;
#X obj 1996 304 s \$0-c62;
#X obj 1760 220 s \$0-c53;
#X obj 1816 220 s \$0-c54;
#X obj 1881 220 s \$0-c55;
#X obj 1939 220 s \$0-c56;
#X obj 1996 220 s \$0-c57;
#X obj 2067 220 s \$0-c63;
#X obj 2136 220 s \$0-c64;
#X obj 964 284 s \$0-c24;
#X obj 1021 284 s \$0-c25;
#N canvas 4 163 1272 777 selector 0;
#X obj 1190 257 symbol;
#X obj 1499 -20 loadbang;
#X obj 748 604 outlet;
#X obj 1370 621 outlet;
#X obj 1326 -23 / 25;
#X obj 1055 255 symbol;
#X obj 909 252 symbol;
#X obj 1326 11 int;
#X obj 646 323 getfilenames;
#X obj 645 131 spigot;
#X msg 845 101 1;
#X msg 845 137 0;
#X msg 1198 138 1;
#X msg 1288 136 2;
#X msg 1354 138 3;
#X msg 1418 139 4;
#X obj 1326 59 select 1 2 3 4;
#X msg 1499 144 0;
#X text 1230 638 Tipo de media: 0 Off 1 Video 2 Imagen 3 Texto 4 Audio
;
#X obj 748 520 getfilenames;
#X msg 817 422 symbol \$1;
#X obj 646 359 makefilename %s/*;
#X text 641 5 folder;
#X text 746 408 file;
#X msg 715 282 symbol \$1;
#X obj 789 473 t b;
#X obj 715 183 r config_s;
#X obj 909 215 t b;
#X obj 1055 211 t b;
#X obj 1190 210 t b;
#X obj 1326 36 change;
#X obj 646 225 int;
#X obj 906 172 t b;
#X obj 715 251 makefilename %s/video/*.vid;
#X obj 909 288 makefilename %s/image/*;
#X obj 1055 291 makefilename %s/fonts/*;
#X obj 1190 293 makefilename %s/ogg/*;
#X obj 645 24 r \$0-c6;
#X obj 748 426 r \$0-c7;
#X obj 1326 -57 r \$0-c8;
#X connect 0 0 36 0;
#X connect 1 0 17 0;
#X connect 4 0 7 0;
#X connect 5 0 35 0;
#X connect 6 0 34 0;
#X connect 7 0 30 0;
#X connect 8 0 21 0;
#X connect 9 0 31 0;
#X connect 10 0 9 1;
#X connect 11 0 9 1;
#X connect 12 0 3 0;
#X connect 12 0 32 0;
#X connect 13 0 3 0;
#X connect 13 0 27 0;
#X connect 14 0 3 0;
#X connect 14 0 28 0;
#X connect 15 0 3 0;
#X connect 15 0 29 0;
#X connect 16 0 12 0;
#X connect 16 0 10 0;
#X connect 16 1 13 0;
#X connect 16 1 11 0;
#X connect 16 2 14 0;
#X connect 16 2 11 0;
#X connect 16 3 11 0;
#X connect 16 3 15 0;
#X connect 16 4 11 0;
#X connect 16 4 17 0;
#X connect 17 0 3 0;
#X connect 19 0 2 0;
#X connect 20 0 19 1;
#X connect 20 0 25 0;
#X connect 21 0 20 0;
#X connect 24 0 8 1;
#X connect 25 0 19 0;
#X connect 26 0 6 0;
#X connect 26 0 5 0;
#X connect 26 0 0 0;
#X connect 26 0 33 0;
#X connect 27 0 6 0;
#X connect 28 0 5 0;
#X connect 29 0 0 0;
#X connect 30 0 16 0;
#X connect 31 0 8 0;
#X connect 32 0 31 0;
#X connect 32 0 8 0;
#X connect 33 0 24 0;
#X connect 34 0 20 0;
#X connect 35 0 20 0;
#X connect 36 0 20 0;
#X connect 37 0 9 0;
#X connect 38 0 19 0;
#X connect 39 0 4 0;
#X restore 332 583 pd selector;
#N canvas 6 51 450 300 imagen 0;
#X obj 100 321 pix_image;
#X msg 4 240 open \$1;
#X msg 214 270 thread 1;
#X obj 214 244 loadbang;
#X obj 100 187 gemhead;
#X obj 4 53 inlet;
#X obj 100 43 inlet;
#X msg 100 101 1;
#X msg 145 100 0;
#X obj 4 188 spigot;
#X obj 100 74 select 2;
#X obj 100 381 outlet;
#X connect 0 0 11 0;
#X connect 1 0 0 0;
#X connect 2 0 0 0;
#X connect 3 0 2 0;
#X connect 4 0 0 0;
#X connect 5 0 9 0;
#X connect 6 0 10 0;
#X connect 7 0 4 0;
#X connect 7 0 9 1;
#X connect 8 0 4 0;
#X connect 8 0 9 1;
#X connect 9 0 1 0;
#X connect 10 0 7 0;
#X connect 10 1 8 0;
#X restore 176 737 pd imagen;
#N canvas 1028 73 1016 665 video 1;
#X msg 22 982 open \$1;
#X obj 147 982 gemhead;
#X obj 22 913 spigot;
#X obj 28 36 inlet;
#X obj 106 36 inlet;
#X msg 154 864 0;
#X msg 103 860 1;
#X obj 103 822 select 1;
#X obj 150 1322 outlet;
#X obj 973 437 expr $f1 > 244 && $f1 < 250;
#X obj 843 476 select 1;
#X obj 845 437 > 249;
#X obj 1447 899 counter;
#X msg 1731 790 0;
#X obj 1966 273 / 25;
#X obj 1966 307 int 0;
#X obj 1793 349 select 0;
#X obj 1864 349 select 1;
#X msg 1778 791 1;
#X obj 1927 350 select 2;
#X obj 1986 352 select 3;
#X obj 2052 352 select 4;
#X obj 2186 362 select 6;
#X obj 2123 359 select 5;
#X obj 1801 491 t b;
#X obj 1910 488 t b;
#X obj 2120 546 t b;
#X obj 2328 712 t b;
#X obj 1447 711 metro 25;
#X msg 1446 649 1;
#X obj 1447 1098 ==;
#X obj 2286 712 t b;
#X text 1551 1412 Un solo disparo;
#X msg 2286 1249 0;
#X msg 2328 1252 1;
#X obj 1659 1413 spigot;
#X obj 2265 357 select 7;
#X text 1789 13 0-10 Normal 11-20 Back 21-30 Ping-pong 31-40 Normal
una vez 41-50 Back una vez 51-60 Ping-Pong una vez 61-70 Stop/pause
71-80 Continue;
#X obj 1447 764 spigot 1;
#X msg 1604 642 0;
#X text 1443 747 play/pause;
#X text 1609 620 Pause;
#X msg 1523 637 1;
#X text 1528 620 Play;
#X text 1742 764 Modos del contador;
#X obj 1248 536 *;
#X obj 1248 612 int;
#X obj 1317 437 int;
#X msg 1505 1019 1;
#X msg 1536 1019 0;
#X obj 1769 1062 spigot;
#X msg 1847 1008 1;
#X msg 1886 1014 0;
#X obj 1770 1107 ==;
#X obj 1248 404 t b;
#X obj 1447 1050 spigot;
#X obj 1447 1166 t b;
#X text 1483 1165 Normal - Forward;
#X obj 1770 1208 t b;
#X text 1791 464 Normal;
#X text 1909 466 Back;
#X text 2143 549 PingPong;
#X text 1782 1248 Back;
#X msg 2116 992 1;
#X text 1273 614 Loop inferior;
#X obj 2085 1041 spigot;
#X msg 2148 992 0;
#X text 2072 1228 PingPong;
#X obj 1449 1225 int;
#X obj 1616 342 t b;
#X obj 1616 458 *;
#X text 1533 498 loop superior;
#X obj 1544 341 int 255;
#X obj 1275 437 int 0;
#X text 672 67 0-244 Speed 244-249 auto 1 vez 250-255 auto loop;
#X text 883 404 Metodos Auto;
#X text 1003 419 Auto 1 vez;
#X text 799 415 Auto Loop;
#X obj 1248 483 / 255;
#X obj 1631 418 * 0.00392157;
#X obj 1616 498 int;
#X obj 1544 61 loadbang;
#X obj 1616 285 int;
#X obj 1248 354 int;
#X obj 1513 413 t b;
#X obj 973 478 select 1;
#X obj 1447 1129 sel 1;
#X obj 1770 1154 sel 1;
#X obj 2031 1090 ==;
#X obj 2031 1158 t b;
#X obj 2031 1121 sel 1;
#X obj 2128 1094 ==;
#X obj 2129 1180 t b;
#X obj 2129 1126 sel 1;
#X obj 2143 1066 - 1;
#X text 961 12 c5;
#X text 1231 66 Inicio Loop c10;
#X text 1600 44 Final loop c11;
#X text 1901 54 Control y modos de reproduccion c9;
#X obj 512 656 loadbang;
#X msg 202 931 1;
#X obj 1248 83 r \$0-c10;
#X obj 1616 65 r \$0-c11;
#X obj 1965 76 r \$0-c9;
#X obj 171 1112 pix_film;
#X obj 193 1166 unpack f f f;
#X msg 287 977 colorspace RGBA;
#X msg 694 857 auto 1;
#X obj 794 660 spigot;
#X obj 285 1136 s \$0-end;
#X obj 903 613 r \$0-end;
#X msg 794 688 0;
#X obj 909 740 s \$0-framein;
#X obj 192 1217 s \$0-frameout;
#X obj 277 1036 r \$0-framein;
#X obj 1143 161 expr $f1 < 244;
#X obj 973 67 r \$0-c5;
#X obj 1085 975 s \$0-framein;
#X obj 1276 227 select 1;
#X obj 1110 226 spigot;
#X floatatom 1008 203 5 0 0 0 - - -;
#X floatatom 1153 368 5 0 0 0 - - -;
#X obj 1386 1258 bng 15 250 50 0 empty empty empty 17 7 0 10 -262144
-1 -1;
#X floatatom 1396 969 5 0 0 0 - - -;
#X obj 792 492 bng 15 250 50 0 empty empty empty 17 7 0 10 -262144
-1 -1;
#X obj 935 467 bng 15 250 50 0 empty empty empty 17 7 0 10 -262144
-1 -1;
#X obj 1314 290 bng 15 250 50 0 empty empty empty 17 7 0 10 -262144
-1 -1;
#X obj 360 1183 bng 15 250 50 0 empty empty empty 17 7 0 10 -262144
-1 -1;
#X obj 972 653 spigot;
#X floatatom 330 1084 5 0 0 0 - - -;
#X msg 588 855 auto 0;
#X obj 1024 652 r \$0-frameout;
#X obj 972 687 int;
#X obj 2186 421 s \$0-pause;
#X obj 2265 420 s \$0-play;
#X obj 1523 605 r \$0-play;
#X obj 1604 604 r \$0-pause;
#X obj 1173 229 select 1;
#X obj 588 796 r \$0-pauseauto;
#X obj 694 797 r \$0-playauto;
#X obj 1173 274 s \$0-pauseauto;
#X obj 719 539 s \$0-playauto;
#X msg 1094 596 0;
#X msg 1009 597 1;
#X msg 805 611 0;
#X msg 848 610 1;
#X obj 1013 740 s \$0-pauseauto;
#X floatatom 1375 391 5 0 0 0 - - -;
#X floatatom 1206 706 5 0 0 0 - - -;
#X floatatom 1351 180 5 0 0 0 - - -;
#X obj 1448 298 r \$0-frameout;
#X obj 665 634 r \$0-play;
#X obj 668 716 spigot;
#X obj 668 759 s \$0-playauto;
#X obj 595 634 r \$0-pause;
#X msg 726 659 0;
#X msg 750 689 1;
#X obj 600 716 spigot;
#X obj 570 759 s \$0-pauseauto;
#X obj 1085 937 spigot;
#X obj 1118 877 - 1;
#X msg 1148 720 1;
#X floatatom 1008 968 5 0 0 0 - - -;
#X connect 0 0 104 0;
#X connect 1 0 104 0;
#X connect 2 0 0 0;
#X connect 3 0 2 0;
#X connect 4 0 7 0;
#X connect 5 0 2 1;
#X connect 5 0 1 0;
#X connect 6 0 2 1;
#X connect 6 0 1 0;
#X connect 7 0 6 0;
#X connect 7 1 5 0;
#X connect 9 0 85 0;
#X connect 10 0 124 0;
#X connect 10 0 141 0;
#X connect 10 0 142 0;
#X connect 10 0 145 0;
#X connect 10 0 156 0;
#X connect 11 0 10 0;
#X connect 12 0 55 0;
#X connect 12 0 50 0;
#X connect 12 0 65 0;
#X connect 12 0 123 0;
#X connect 12 0 159 0;
#X connect 13 0 12 1;
#X connect 14 0 15 0;
#X connect 15 0 16 0;
#X connect 15 0 17 0;
#X connect 15 0 19 0;
#X connect 15 0 20 0;
#X connect 15 0 21 0;
#X connect 15 0 22 0;
#X connect 15 0 23 0;
#X connect 15 0 36 0;
#X connect 16 0 24 0;
#X connect 16 0 31 0;
#X connect 16 0 134 0;
#X connect 17 0 25 0;
#X connect 17 0 31 0;
#X connect 17 0 134 0;
#X connect 18 0 12 1;
#X connect 19 0 26 0;
#X connect 19 0 31 0;
#X connect 19 0 134 0;
#X connect 20 0 24 0;
#X connect 20 0 27 0;
#X connect 20 0 134 0;
#X connect 21 0 25 0;
#X connect 21 0 27 0;
#X connect 21 0 134 0;
#X connect 22 0 133 0;
#X connect 23 0 27 0;
#X connect 23 0 26 0;
#X connect 23 0 134 0;
#X connect 24 0 13 0;
#X connect 24 0 12 2;
#X connect 24 0 46 0;
#X connect 24 0 48 0;
#X connect 24 0 52 0;
#X connect 24 0 66 0;
#X connect 25 0 18 0;
#X connect 25 0 12 2;
#X connect 25 0 49 0;
#X connect 25 0 51 0;
#X connect 25 0 66 0;
#X connect 25 0 80 0;
#X connect 26 0 52 0;
#X connect 26 0 63 0;
#X connect 26 0 49 0;
#X connect 26 0 13 0;
#X connect 26 0 46 0;
#X connect 27 0 34 0;
#X connect 28 0 38 0;
#X connect 29 0 28 0;
#X connect 30 0 86 0;
#X connect 31 0 33 0;
#X connect 33 0 35 1;
#X connect 34 0 35 1;
#X connect 35 0 39 0;
#X connect 36 0 134 0;
#X connect 38 0 12 0;
#X connect 39 0 38 1;
#X connect 42 0 38 1;
#X connect 45 0 46 0;
#X connect 46 0 53 1;
#X connect 46 0 12 2;
#X connect 46 0 68 1;
#X connect 46 0 12 3;
#X connect 46 0 94 0;
#X connect 46 0 148 0;
#X connect 47 0 45 1;
#X connect 48 0 55 1;
#X connect 49 0 55 1;
#X connect 50 0 53 0;
#X connect 51 0 50 1;
#X connect 51 0 12 1;
#X connect 52 0 50 1;
#X connect 53 0 87 0;
#X connect 54 0 73 0;
#X connect 54 0 78 0;
#X connect 55 0 30 0;
#X connect 56 0 35 0;
#X connect 56 0 68 0;
#X connect 58 0 35 0;
#X connect 58 0 12 4;
#X connect 63 0 65 1;
#X connect 65 0 88 0;
#X connect 65 0 91 0;
#X connect 66 0 65 1;
#X connect 68 0 12 2;
#X connect 68 0 122 0;
#X connect 69 0 70 0;
#X connect 70 0 80 0;
#X connect 72 0 70 0;
#X connect 73 0 78 0;
#X connect 78 0 45 0;
#X connect 79 0 70 1;
#X connect 80 0 30 1;
#X connect 80 0 12 4;
#X connect 80 0 88 1;
#X connect 81 0 72 0;
#X connect 82 0 69 0;
#X connect 82 0 72 0;
#X connect 83 0 47 0;
#X connect 83 0 54 0;
#X connect 84 0 70 0;
#X connect 85 0 125 0;
#X connect 85 0 141 0;
#X connect 85 0 143 0;
#X connect 85 0 144 0;
#X connect 85 0 156 0;
#X connect 86 0 56 0;
#X connect 87 0 58 0;
#X connect 88 0 90 0;
#X connect 89 0 18 0;
#X connect 90 0 89 0;
#X connect 91 0 93 0;
#X connect 92 0 13 0;
#X connect 92 0 35 0;
#X connect 93 0 92 0;
#X connect 94 0 91 1;
#X connect 99 0 5 0;
#X connect 99 0 106 0;
#X connect 100 0 1 0;
#X connect 101 0 83 0;
#X connect 101 0 149 0;
#X connect 102 0 82 0;
#X connect 103 0 14 0;
#X connect 104 0 8 0;
#X connect 104 1 100 0;
#X connect 104 1 105 0;
#X connect 104 2 109 0;
#X connect 104 2 127 0;
#X connect 105 0 113 0;
#X connect 106 0 104 0;
#X connect 107 0 104 0;
#X connect 108 0 111 0;
#X connect 110 0 108 0;
#X connect 110 0 128 0;
#X connect 111 0 112 0;
#X connect 114 0 104 1;
#X connect 114 0 129 0;
#X connect 115 0 119 1;
#X connect 115 0 118 0;
#X connect 115 0 137 0;
#X connect 116 0 9 0;
#X connect 116 0 11 0;
#X connect 116 0 115 0;
#X connect 116 0 119 0;
#X connect 116 0 120 0;
#X connect 118 0 126 0;
#X connect 119 0 28 1;
#X connect 119 0 121 0;
#X connect 128 0 132 0;
#X connect 130 0 104 0;
#X connect 131 0 132 1;
#X connect 132 0 112 0;
#X connect 132 0 146 0;
#X connect 135 0 42 0;
#X connect 136 0 39 0;
#X connect 137 0 140 0;
#X connect 137 0 142 0;
#X connect 137 0 144 0;
#X connect 137 0 155 0;
#X connect 137 0 161 0;
#X connect 138 0 130 0;
#X connect 139 0 107 0;
#X connect 142 0 128 1;
#X connect 143 0 128 1;
#X connect 144 0 108 1;
#X connect 145 0 108 1;
#X connect 150 0 29 0;
#X connect 150 0 73 0;
#X connect 150 0 79 0;
#X connect 150 0 84 0;
#X connect 150 0 147 0;
#X connect 151 0 152 0;
#X connect 152 0 153 0;
#X connect 154 0 157 0;
#X connect 155 0 152 1;
#X connect 155 0 157 1;
#X connect 156 0 152 1;
#X connect 156 0 157 1;
#X connect 156 0 160 0;
#X connect 157 0 158 0;
#X connect 159 0 117 0;
#X connect 159 0 162 0;
#X connect 160 0 159 1;
#X connect 161 0 159 1;
#X restore 284 737 pd video;
#N canvas 0 51 1280 973 audio_player 0;
#X msg 138 344 open \$1;
#X msg 381 667 start;
#X msg 436 668 stop;
#X obj 382 757 oggread~;
#X msg 489 670 resume;
#X obj 138 172 inlet;
#X obj 233 172 inlet;
#X obj 138 291 spigot;
#X msg 233 247 1;
#X msg 278 248 0;
#X obj 436 446 / 25;
#X obj 436 503 select 0 6 7;
#X obj 436 473 int;
#X obj 436 346 spigot;
#X obj 233 213 select 4;
#X obj 215 898 outlet~;
#X obj 283 900 outlet~;
#X obj 436 186 r \$0-c9;
#X connect 0 0 3 0;
#X connect 1 0 3 0;
#X connect 2 0 3 0;
#X connect 3 0 15 0;
#X connect 3 1 16 0;
#X connect 4 0 3 0;
#X connect 5 0 7 0;
#X connect 6 0 14 0;
#X connect 7 0 0 0;
#X connect 8 0 7 1;
#X connect 8 0 13 1;
#X connect 9 0 7 1;
#X connect 9 0 13 1;
#X connect 10 0 12 0;
#X connect 11 0 1 0;
#X connect 11 1 2 0;
#X connect 11 2 4 0;
#X connect 12 0 11 0;
#X connect 13 0 10 0;
#X connect 14 0 8 0;
#X connect 14 1 9 0;
#X connect 17 0 13 0;
#X restore 440 737 pd audio_player;
#N canvas 420 110 1016 665 video_render 0;
#X obj 232 74 inlet;
#X obj 231 542 colorRGB;
#X obj 462 445 / 255;
#X text 540 63 Green;
#X text 498 62 Red;
#X text 590 64 Blue;
#X text 635 63 Alpha;
#X obj 232 233 rotateXYZ;
#X obj 713 779 pack f f f;
#X msg 256 772 1;
#X obj 256 737 loadbang;
#X obj 231 694 translateXYZ;
#X obj 853 742 t b;
#X obj 231 835 scale XYZ;
#X obj 232 170 alpha;
#X text 313 49 c12;
#X text 373 45 c13;
#X text 435 51 c14;
#X text 490 49 c2;
#X text 536 53 c3;
#X text 585 53 c4;
#X text 632 51 c1;
#X text 693 61 c18;
#X text 746 64 c19;
#X text 794 61 c20;
#X text 867 66 c15;
#X text 913 61 c16;
#X text 968 61 c17;
#X obj 231 423 pix_alpha;
#X obj 488 545 - 32768;
#X obj 426 543 - 32768;
#X obj 426 592 / 4096;
#X obj 488 594 / 4096;
#X obj 551 592 / 4096;
#X obj 670 697 / 128;
#X obj 715 697 / 128;
#X obj 763 697 / 128;
#X obj 551 548 - 32768;
#X obj 551 635 - 8;
#X obj 318 442 / 128;
#X obj 365 443 / 128;
#X obj 414 444 / 128;
#X msg -202 196 0;
#X msg -262 174 1;
#X msg -261 202 0;
#X msg -202 155 1;
#X obj 314 106 - 128;
#X obj 374 110 - 128;
#X obj 433 110 - 128;
#X obj -254 114 loadbang;
#X msg 587 1011 set 1 1 \$1 \$2 \$3;
#X msg 375 1011 set 1 0 \$1 \$2 \$3;
#X msg 726 1011 set 0 1 \$1 \$2 \$3;
#X obj 230 1006 pix_texture;
#X obj 442 888 - 128;
#X obj 504 888 - 128;
#X obj 515 952 t b;
#X obj 574 888 - 128;
#X obj 636 888 - 128;
#X obj 655 950 t b;
#X obj 734 888 - 128;
#X obj 780 888 - 128;
#X obj 810 945 t b;
#X msg 886 1016 set 0 0 \$1 \$2 \$3;
#X obj 872 888 - 128;
#X obj 934 888 - 128;
#X obj 948 955 t b;
#X obj 230 1105 curve3d 1 1;
#X obj 586 978 pack f f 5;
#X obj 748 979 pack f f 5;
#X obj 886 979 pack f f 5;
#X obj 456 979 pack f f 5;
#X obj 442 925 / 16;
#X obj 504 925 / 16;
#X obj 574 925 / 16;
#X obj 636 925 / 16;
#X obj 734 925 / 16;
#X obj 780 925 / 16;
#X obj 872 925 / 16;
#X obj 934 925 / 16;
#N canvas 1444 236 1144 624 fx 0;
#X obj 1088 -68 inlet;
#X obj 856 515 outlet;
#X obj 855 3 + 1;
#X msg 23 -19 BackDropKeyVFX;
#X msg 24 15 BackLightVFX;
#X msg 24 46 BloomVFX.;
#X msg 24 77 BurnVFX;
#X msg 26 110 ChromiumVFX;
#X msg 26 141 ColourReduceVFX;
#X msg 26 172 ColourWarpVFX;
#X msg 27 202 DeInterlaceVFX;
#X msg 27 233 DilateVFX;
#X msg 27 264 DirectionalBlurVFX;
#X msg 27 295 DodgeVFX;
#X msg 27 326 ExclusionVFX;
#X msg 27 357 FishEyeVFX;
#X msg 27 388 GaussianBlurVFX;
#X msg 27 419 GlowVFX;
#X msg 27 450 HalfToneVFX;
#X msg 28 511 LevelsVFX;
#X msg 28 542 LionelBlurVFX;
#X msg 28 573 LumaCycleVFX;
#X msg 28 604 LumaKeyVFX;
#X msg 28 635 LumaOffsetVFX;
#X msg 28 666 MetaImageVFX;
#X msg 28 697 MixerVFX;
#X msg 28 728 PanSpinZoomVFX;
#X msg 28 759 PosterizeVFX;
#X msg 28 788 RadialBlurVFX;
#X msg 28 817 RectDistortVFX;
#X msg 28 846 RefractionVFX;
#X msg 29 901 SlideVFX;
#X msg 28 878 SmearVFX;
#X msg 28 923 SolarizeVFX;
#X msg 27 947 SpiralBlurVFX;
#X msg 26 981 SquashVFX;
#X msg 26 1010 StaticVFX;
#X msg 26 1039 StretchVFX;
#X msg 26 1068 TileVFX;
#X msg 26 1094 TimeBlurVFX;
#X msg 26 1119 TimeSliceVFX;
#X msg 26 1148 TimeWarpVFX;
#X msg 26 1177 TVPixelVFX;
#X msg 26 1206 VectorizeVFX;
#X msg 29 1235 WaveVFX;
#X msg 28 480 open KaleidascopeVFX;
#X text 795 37 Bypass;
#X obj 855 -73 r \$0-c40;
#X obj 960 -75 loadbang;
#X msg 960 -40 0;
#N canvas 1502 570 940 592 ef_bitmask 0;
#X obj 271 49 inlet;
#X obj 300 271 outlet;
#X obj 402 207 pix_bitmask;
#X floatatom 443 170 5 0 255 2 single - -;
#X floatatom 558 207 5 0 0 0 - - -;
#X floatatom 595 192 5 0 0 0 - - -;
#X floatatom 637 192 5 0 0 0 - - -;
#X obj 558 228 pack 0 0 0;
#X obj 637 213 bng 15 250 50 0 empty empty empty 17 7 0 10 -262144
-1 -1;
#X msg 558 250 \$1 \$2 \$3;
#X text 329 48 gemin;
#X text 348 270 gemout;
#X obj 475 92 r \$0-c41;
#X obj 575 131 r \$0-c42;
#X obj 596 170 r \$0-c43;
#X obj 637 170 r \$0-c44;
#X connect 0 0 2 0;
#X connect 2 0 1 0;
#X connect 3 0 2 1;
#X connect 4 0 7 0;
#X connect 5 0 7 1;
#X connect 5 0 8 0;
#X connect 6 0 7 2;
#X connect 6 0 8 0;
#X connect 7 0 9 0;
#X connect 8 0 7 0;
#X connect 9 0 2 2;
#X connect 12 0 3 0;
#X connect 13 0 4 0;
#X connect 14 0 5 0;
#X connect 15 0 6 0;
#X coords 0 0 1 1 85 60 0;
#X restore 866 99 pd ef_bitmask;
#X obj 855 38 gate 5;
#N canvas 1727 524 1223 405 ef_halftone 0;
#X obj 261 67 inlet;
#X obj 290 289 outlet;
#X obj 373 226 pix_halftone;
#X floatatom 397 156 5 1 32 2 size - -;
#X floatatom 450 187 5 0 0 2 angle - -;
#X floatatom 495 204 5 0 1 2 smooth - -;
#X msg 74 187 style \$1;
#X obj 10 11 cnv 15 150 75 empty empty empty 2 12 0 14 -191407 -66577
0;
#X obj 19 16 tgl 15 0 \$1gempix_ef_halftone_on \$1gempix_ef_halftone_on_init
Halftone 17 7 0 10 -260097 -1 -1 0 1;
#X floatatom 87 48 5 1 32 1 size #1gempix_ef_halftone_size_init #1gempix_ef_halftone_size
;
#X floatatom 88 65 5 0 0 1 angle #1gempix_ef_halftone_angle_init #1gempix_ef_halftone_angle
;
#X floatatom 87 31 5 0 1 1 smooth #1gempix_ef_halftone_smooth_init
#1gempix_ef_halftone_smooth;
#X obj 13 49 hradio 15 1 0 5 \$1gempix_ef_halftone_style \$1gempix_ef_halftone_style_init
style 40 -6 0 8 -262144 -1 -1 0;
#X obj 127 17 cnv 15 20 10 empty \$1gempix_ef_halftone_id \$1 5 5 0
10 -260097 -33289 0;
#X obj 21 66 bng 15 250 50 0 \$1gempix_ef_halftone_midi_on empty midi
17 7 0 8 -4160 -1 -1;
#X obj 397 101 / 8;
#X obj 397 21 r \$0-c41;
#X obj 472 23 r \$0-c42;
#X obj 597 22 r \$0-c43;
#X obj 73 102 r \$0-c44;
#X obj 74 131 / 64;
#X obj 74 161 int;
#X obj 597 98 / 255;
#X obj 469 100 * 2;
#X connect 0 0 2 0;
#X connect 2 0 1 0;
#X connect 3 0 2 1;
#X connect 4 0 2 2;
#X connect 5 0 2 3;
#X connect 6 0 2 0;
#X connect 15 0 3 0;
#X connect 16 0 15 0;
#X connect 17 0 23 0;
#X connect 18 0 22 0;
#X connect 19 0 20 0;
#X connect 20 0 21 0;
#X connect 21 0 6 0;
#X connect 22 0 5 0;
#X connect 23 0 4 0;
#X restore 884 131 pd ef_halftone;
#N canvas 252 340 1181 514 ef_rds 0;
#X obj 266 44 inlet;
#X obj 295 266 outlet;
#X text 224 43 gemin;
#X text 343 263 gemout;
#X obj 387 110 tgl 15 0 empty empty mode 20 8 0 8 -262144 -1 -1 0 1
;
#X msg 378 131 method \$1;
#X obj 297 185 pix_rds;
#X floatatom 529 172 5 10 100 1 stride - -;
#X obj 387 12 r \$0-c41;
#X obj 536 66 r \$0-c42;
#X obj 557 114 / 2.55;
#X obj 407 51 / 128;
#X obj 407 81 int;
#X text 167 116 Casca!!!!!;
#X connect 4 0 5 0;
#X connect 5 0 6 0;
#X connect 6 0 1 0;
#X connect 8 0 11 0;
#X connect 9 0 10 0;
#X connect 10 0 6 1;
#X connect 10 0 7 0;
#X connect 11 0 12 0;
#X connect 12 0 5 0;
#X connect 12 0 4 0;
#X restore 908 163 pd ef_rds;
#N canvas 1830 524 1045 512 ef_roll 0;
#X obj 259 57 inlet;
#X obj 288 279 outlet;
#X text 317 57 gemin;
#X text 336 276 gemout;
#X floatatom 721 169 5 0 0 2 roll - -;
#X obj 400 212 pix_roll;
#X msg 406 165 axis \$1;
#X obj 442 139 tgl 15 0 empty empty empty 0 -6 0 8 -262144 -1 -1 0
1;
#X obj 405 40 r \$0-c41;
#X obj 405 75 / 128;
#X obj 405 106 int;
#X obj 537 81 r \$0-c42;
#X obj 542 146 - 128;
#X obj 544 193 * 2;
#X connect 0 0 5 0;
#X connect 5 0 1 0;
#X connect 6 0 5 0;
#X connect 8 0 9 0;
#X connect 9 0 10 0;
#X connect 10 0 6 0;
#X connect 10 0 7 0;
#X connect 11 0 12 0;
#X connect 12 0 4 0;
#X connect 12 0 13 0;
#X connect 13 0 5 1;
#X restore 493 133 pd ef_roll;
#X obj 752 95 gate 5;
#X floatatom 710 -31 5 0 0 0 - - -;
#X obj 751 66 - 3;
#N canvas 1885 412 1672 947 ef_invert 0;
#X obj 262 55 inlet;
#X obj 291 277 outlet;
#X text 339 274 gemout;
#X obj 394 194 pix_invert;
#X obj 475 154 tgl 15 0 empty empty empty 0 -6 0 8 -262144 -1 -1 0
1;
#X obj 413 153 int;
#X obj 427 53 r \$0-c41;
#X floatatom 575 111 5 0 0 0 - - -;
#X obj 423 110 / 128;
#X connect 0 0 3 0;
#X connect 3 0 1 0;
#X connect 5 0 3 0;
#X connect 5 0 4 0;
#X connect 6 0 7 0;
#X connect 6 0 8 0;
#X connect 8 0 5 0;
#X restore 565 161 pd ef_invert;
#N canvas 0 120 1680 951 ef_scanline 0;
#X obj 250 40 inlet;
#X obj 279 262 outlet;
#X text 308 40 gemin;
#X text 327 259 gemout;
#X floatatom 678 169 5 0 0 2 interlace - -;
#X obj 279 220 pix_scanline;
#X obj 386 122 tgl 15 0 empty empty empty 0 -6 0 8 -262144 -1 -1 0
1;
#X msg 424 159 mode \$1;
#X obj 10 10 cnv 15 150 75 empty empty empty 2 12 0 14 -191407 -66577
0;
#X obj 18 14 tgl 15 0 \$1gempix_ef_scanline_on \$1gempix_ef_scanline_on_init
scanline 17 7 0 10 -260097 -1 -1 0 1;
#X floatatom 103 54 5 0 0 0 npixels #1gempix_ef_scanline_interlace_init
#1gempix_ef_scanline_interlace;
#X obj 103 32 tgl 15 0 \$1gempix_ef_scanline_mode \$1gempix_ef_scanline_mode_init
duplicated/draw -90 8 0 8 -262144 -1 -1 0 1;
#X obj 114 12 cnv 15 20 10 empty \$1gempix_ef_scanline_id \$1 5 5 0
10 -260097 -33289 0;
#X obj 14 66 bng 15 250 50 0 \$1gempix_ef_scanline_midi_on empty midi
17 7 0 8 -4160 -1 -1;
#X obj 424 30 r \$0-c41;
#X obj 682 70 r \$0-c42;
#X obj 425 72 / 128;
#X obj 423 104 int;
#X connect 0 0 5 0;
#X connect 4 0 5 1;
#X connect 5 0 1 0;
#X connect 7 0 5 0;
#X connect 14 0 16 0;
#X connect 15 0 4 0;
#X connect 16 0 17 0;
#X connect 17 0 7 0;
#X connect 17 0 6 0;
#X restore 630 188 pd ef_scanline;
#N canvas 119 330 863 690 ef_threshold 0;
#X obj 280 40 inlet;
#X obj 309 262 outlet;
#X text 338 40 gemin;
#X text 357 259 gemout;
#X obj 443 191 pix_threshold;
#X floatatom 710 103 5 0 0 0 - - -;
#X floatatom 745 104 5 0 0 0 - - -;
#X floatatom 780 105 5 0 0 0 - - -;
#X obj 708 125 pack 0 0 0;
#X obj 816 145 bng 15 250 50 0 empty empty empty 17 7 0 10 -262144
-1 -1;
#X msg 708 144 \$1 \$2 \$3;
#X msg 721 179 set \$1 \$2 \$3;
#X msg 753 212 0 0 0;
#X obj 443 14 r \$0-c41;
#X obj 441 56 / 128;
#X obj 440 96 int;
#X obj 733 -16 r \$0-c42;
#X obj 772 4 r \$0-c43;
#X obj 801 26 r \$0-c44;
#X obj 715 73 / 255;
#X obj 751 73 / 255;
#X obj 787 72 / 255;
#X connect 0 0 4 0;
#X connect 4 0 1 0;
#X connect 5 0 8 0;
#X connect 6 0 8 1;
#X connect 6 0 9 0;
#X connect 7 0 8 2;
#X connect 7 0 9 0;
#X connect 8 0 10 0;
#X connect 8 0 11 0;
#X connect 9 0 8 0;
#X connect 10 0 4 2;
#X connect 11 0 12 0;
#X connect 13 0 14 0;
#X connect 14 0 15 0;
#X connect 15 0 4 1;
#X connect 16 0 19 0;
#X connect 17 0 20 0;
#X connect 18 0 21 0;
#X connect 19 0 5 0;
#X connect 20 0 6 0;
#X connect 21 0 7 0;
#X restore 702 219 pd ef_threshold;
#N canvas 1684 496 1144 595 ef_metaimage 0;
#X obj 257 36 inlet;
#X obj 286 258 outlet;
#X text 315 36 gemin;
#X text 334 255 gemout;
#X obj 415 184 pix_metaimage;
#X floatatom 857 74 3 0 1 1 size - -;
#X obj 421 136 tgl 15 0 empty empty empty 0 -6 0 8 -262144 -1 -1 0
1;
#X msg 421 154 cheap \$1;
#X obj 485 136 tgl 15 0 empty empty empty 0 -6 0 8 -262144 -1 -1 0
1;
#X msg 485 154 distance \$1;
#X obj 420 42 r \$0-c41;
#X obj 491 46 r \$0-c42;
#X obj 603 24 r \$0-c43;
#X obj 417 75 / 128;
#X obj 417 108 int;
#X obj 490 73 / 128;
#X obj 490 106 int;
#X obj 604 79 / 255;
#X connect 0 0 4 0;
#X connect 4 0 1 0;
#X connect 6 0 7 0;
#X connect 7 0 4 0;
#X connect 8 0 9 0;
#X connect 9 0 4 0;
#X connect 10 0 13 0;
#X connect 11 0 15 0;
#X connect 12 0 5 0;
#X connect 12 0 17 0;
#X connect 13 0 14 0;
#X connect 14 0 6 0;
#X connect 15 0 16 0;
#X connect 16 0 8 0;
#X connect 17 0 4 1;
#X restore 935 333 pd ef_metaimage;
#X obj 937 270 gate 5;
#X obj 936 241 - 7;
#N canvas 1787 512 1041 579 ef_refraction 0;
#X obj 304 44 inlet;
#X obj 452 436 outlet;
#X text 500 433 gemout;
#X floatatom 868 179 3 0.01 16 1 - - -;
#X msg 833 227 refract \$1;
#X msg 694 133 mag \$1;
#X msg 433 199 width \$1;
#X msg 576 109 height \$1;
#X obj 451 372 pix_refraction;
#X obj 694 114 tgl 15 0 empty empty empty 0 -6 0 8 -262144 -1 -1 0
0.65625;
#X obj 433 2 r \$0-c41;
#X obj 576 2 r \$0-c42;
#X obj 692 -2 r \$0-c43;
#X obj 833 80 r \$0-c44;
#X obj 692 37 / 128;
#X floatatom 526 100 5 0 0 0 - - -;
#X floatatom 388 91 5 0 0 0 - - -;
#X floatatom 754 67 5 0 0 0 - - -;
#X obj 830 143 / 16;
#X connect 0 0 8 0;
#X connect 4 0 8 0;
#X connect 5 0 8 0;
#X connect 6 0 8 0;
#X connect 7 0 8 0;
#X connect 8 0 1 0;
#X connect 9 0 5 0;
#X connect 10 0 16 0;
#X connect 10 0 6 0;
#X connect 11 0 7 0;
#X connect 11 0 15 0;
#X connect 12 0 14 0;
#X connect 12 0 17 0;
#X connect 13 0 18 0;
#X connect 14 0 9 0;
#X connect 18 0 4 0;
#X connect 18 0 3 0;
#X restore 951 360 pd ef_refraction;
#N canvas 1684 186 986 659 ef_convolve 0;
#X obj 280 39 inlet;
#X obj 317 428 outlet;
#X text 338 39 gemin;
#X text 367 418 gemout;
#X obj 611 177 cnv 15 100 40 empty empty empty 20 12 0 14 -233017 -66577
0;
#X floatatom 627 176 3 -1 2 0 - - -;
#X floatatom 650 176 3 -1 2 0 - - -;
#X floatatom 673 176 3 -1 2 0 - - -;
#X floatatom 627 190 3 -1 2 0 - - -;
#X floatatom 650 190 3 -1 2 0 - - -;
#X floatatom 673 190 3 -1 2 0 - - -;
#X floatatom 627 204 3 -1 2 0 - - -;
#X floatatom 650 204 3 -1 2 0 - - -;
#X floatatom 673 204 3 -1 2 0 - - -;
#N canvas 0 0 450 469 pack 0;
#X obj 69 169 pack 0 0 0 0 0 0 0 0 0;
#X obj 69 139 t b f;
#X obj 106 139 t b f;
#X obj 143 139 t b f;
#X obj 180 139 t b f;
#X obj 217 139 t b f;
#X obj 254 139 t b f;
#X obj 291 139 t b f;
#X obj 328 139 t b f;
#X obj 32 111 inlet;
#X obj 69 111 inlet;
#X obj 106 111 inlet;
#X obj 143 111 inlet;
#X obj 180 111 inlet;
#X obj 217 111 inlet;
#X obj 254 111 inlet;
#X obj 291 111 inlet;
#X obj 328 111 inlet;
#X obj 61 349 outlet;
#X obj 274 355 outlet;
#X obj 71 190 t l l;
#X obj 257 232 unpack 0 0 0 0 0 0 0 0 0;
#X obj 399 256 +;
#X obj 358 256 +;
#X obj 318 256 +;
#X obj 277 256 +;
#X obj 379 286 +;
#X obj 298 286 +;
#X obj 349 316 +;
#X obj 268 316 +;
#X obj 58 294 select 0;
#X msg 48 323 1;
#X obj 132 391 /;
#X msg 132 365 1 \$1;
#X connect 0 0 20 0;
#X connect 1 0 0 0;
#X connect 1 1 0 1;
#X connect 2 0 0 0;
#X connect 2 1 0 2;
#X connect 3 0 0 0;
#X connect 3 1 0 3;
#X connect 4 0 0 0;
#X connect 4 1 0 4;
#X connect 5 0 0 0;
#X connect 5 1 0 5;
#X connect 6 0 0 0;
#X connect 6 1 0 6;
#X connect 7 0 0 0;
#X connect 7 1 0 7;
#X connect 8 0 0 0;
#X connect 8 1 0 8;
#X connect 9 0 0 0;
#X connect 10 0 1 0;
#X connect 11 0 2 0;
#X connect 12 0 3 0;
#X connect 13 0 4 0;
#X connect 14 0 5 0;
#X connect 15 0 6 0;
#X connect 16 0 7 0;
#X connect 17 0 8 0;
#X connect 20 0 21 0;
#X connect 20 1 19 0;
#X connect 21 0 29 0;
#X connect 21 1 25 0;
#X connect 21 2 25 1;
#X connect 21 3 24 0;
#X connect 21 4 24 1;
#X connect 21 5 23 0;
#X connect 21 6 23 1;
#X connect 21 7 22 0;
#X connect 21 8 22 1;
#X connect 22 0 26 1;
#X connect 23 0 26 0;
#X connect 24 0 27 1;
#X connect 25 0 27 0;
#X connect 26 0 28 1;
#X connect 27 0 28 0;
#X connect 28 0 29 1;
#X connect 29 0 30 0;
#X connect 30 0 31 0;
#X connect 30 1 33 0;
#X connect 31 0 18 0;
#X connect 32 0 18 0;
#X connect 33 0 32 0;
#X restore 609 238 pd pack 9 . . .;
#X obj 452 330 pix_convolve 3 3;
#X floatatom 498 279 5 0 0 1 scale - -;
#N canvas 411 476 605 305 unpack 0;
#X obj 60 270 outlet;
#X obj 111 270 outlet;
#X obj 164 270 outlet;
#X obj 215 270 outlet;
#X obj 266 270 outlet;
#X obj 317 270 outlet;
#X obj 370 270 outlet;
#X obj 421 270 outlet;
#X obj 471 271 outlet;
#X obj 179 173 unpack 0 0 0 0 0 0 0 0 0;
#X obj 130 13 inlet;
#X obj 130 40 route edge1 edge2 smooth none;
#X msg 130 124 -1 -1 -1 -1 8 -1 -1 -1 -1;
#X msg 179 102 -1 -4 -1 -4 20 -4 -1 -4 -1;
#X msg 229 82 1 2 1 2 4 2 1 2 1;
#X msg 278 62 0 0 0 0 1 0 0 0 0;
#X connect 9 0 0 0;
#X connect 9 1 1 0;
#X connect 9 2 2 0;
#X connect 9 3 3 0;
#X connect 9 4 4 0;
#X connect 9 5 5 0;
#X connect 9 6 6 0;
#X connect 9 7 7 0;
#X connect 9 8 8 0;
#X connect 10 0 11 0;
#X connect 11 0 12 0;
#X connect 11 1 13 0;
#X connect 11 2 14 0;
#X connect 11 3 15 0;
#X connect 12 0 9 0;
#X connect 13 0 9 0;
#X connect 14 0 9 0;
#X connect 15 0 9 0;
#X restore 630 157 pd unpack 9 . . .;
#X msg 616 134 none;
#X msg 697 134 edge1;
#X msg 739 134 edge2;
#X msg 650 134 smooth;
#X obj 498 -3 r \$0-c41;
#X obj 649 -8 r \$0-c42;
#X obj 649 20 / 64;
#X obj 649 73 select 1 2 3 4;
#X obj 649 44 int;
#X obj 496 126 / 16;
#X connect 0 0 15 0;
#X connect 5 0 14 0;
#X connect 6 0 14 1;
#X connect 7 0 14 2;
#X connect 8 0 14 3;
#X connect 9 0 14 4;
#X connect 10 0 14 5;
#X connect 11 0 14 6;
#X connect 12 0 14 7;
#X connect 13 0 14 8;
#X connect 14 1 15 2;
#X connect 15 0 1 0;
#X connect 16 0 15 1;
#X connect 17 0 5 0;
#X connect 17 1 6 0;
#X connect 17 2 7 0;
#X connect 17 3 8 0;
#X connect 17 4 9 0;
#X connect 17 5 10 0;
#X connect 17 6 11 0;
#X connect 17 7 12 0;
#X connect 17 8 13 0;
#X connect 18 0 17 0;
#X connect 19 0 17 0;
#X connect 20 0 17 0;
#X connect 21 0 17 0;
#X connect 22 0 27 0;
#X connect 23 0 24 0;
#X connect 24 0 26 0;
#X connect 25 0 18 0;
#X connect 25 1 21 0;
#X connect 25 2 19 0;
#X connect 25 3 20 0;
#X connect 26 0 25 0;
#X connect 27 0 16 0;
#X restore 982 406 pd ef_convolve;
#N canvas 1116 501 1432 797 ef_gain 0;
#X obj 254 43 inlet;
#X obj 283 265 outlet;
#X text 331 262 gemout;
#X obj 397 194 pix_gain;
#X floatatom 551 210 5 0 0 0 - - -;
#X floatatom 586 211 5 0 0 0 - - -;
#X floatatom 621 212 5 0 0 0 - - -;
#X obj 549 232 pack 0 0 0;
#X obj 637 232 bng 15 250 50 0 empty empty empty 17 7 0 10 -262144
-1 -1;
#X msg 549 251 \$1 \$2 \$3;
#X obj 587 65 r \$0-c42;
#X obj 423 107 r \$0-c41;
#X obj 609 95 r \$0-c43;
#X obj 637 128 r \$0-c44;
#X obj 548 164 / 128;
#X obj 594 166 / 128;
#X obj 652 165 / 128;
#X obj 422 141 / 128;
#X connect 0 0 3 0;
#X connect 3 0 1 0;
#X connect 4 0 7 0;
#X connect 4 0 8 0;
#X connect 5 0 7 1;
#X connect 5 0 8 0;
#X connect 6 0 7 2;
#X connect 6 0 8 0;
#X connect 7 0 9 0;
#X connect 8 0 7 0;
#X connect 9 0 3 2;
#X connect 10 0 14 0;
#X connect 11 0 17 0;
#X connect 12 0 15 0;
#X connect 13 0 16 0;
#X connect 14 0 4 0;
#X connect 15 0 5 0;
#X connect 16 0 6 0;
#X connect 17 0 3 1;
#X restore 1010 447 pd ef_gain;
#N canvas 0 107 1440 801 ef_lumaoffset 0;
#X obj 256 52 inlet;
#X obj 285 274 outlet;
#X text 314 52 gemin;
#X text 333 271 gemout;
#X obj 414 193 pix_lumaoffset;
#X floatatom 549 243 5 0 0 2 offset - -;
#X floatatom 576 192 5 0 0 2 gap - -;
#X obj 496 155 tgl 15 0 empty empty empty 0 -6 0 8 -262144 -1 -1 0
50;
#X msg 496 173 smooth \$1;
#X msg 428 172 fill \$1;
#X msg 496 173 smooth \$1;
#X obj 428 154 tgl 15 0 empty empty empty 0 -6 0 8 -262144 -1 -1 0
50;
#X obj 439 88 r \$0-c41;
#X obj 505 113 r \$0-c42;
#X obj 578 155 r \$0-c43;
#X obj 589 216 r \$0-c44;
#X connect 0 0 4 0;
#X connect 4 0 1 0;
#X connect 5 0 4 1;
#X connect 6 0 4 2;
#X connect 7 0 8 0;
#X connect 7 0 10 0;
#X connect 8 0 4 0;
#X connect 9 0 4 0;
#X connect 10 0 4 0;
#X connect 11 0 9 0;
#X connect 12 0 11 0;
#X connect 13 0 7 0;
#X connect 14 0 6 0;
#X connect 15 0 5 0;
#X restore 356 387 pd ef_lumaoffset;
#N canvas 4 107 1432 797 ef_tIIR 0;
#X obj 251 69 inlet;
#X obj 280 291 outlet;
#X text 309 69 gemin;
#X text 328 288 gemout;
#X floatatom 413 249 3 0 1 2 fb0 - -;
#X floatatom 440 249 3 0 1 2 fb1 - -;
#X floatatom 466 249 3 0 1 2 fb2 - -;
#X floatatom 503 249 3 0 1 2 ff0 - -;
#X obj 400 269 pix_tIIR 2 1;
#X floatatom 530 249 3 0 1 2 ff1 - -;
#N canvas 4 107 450 300 init 0;
#X msg 175 214 0.3;
#X msg 247 215 0.6;
#X msg 277 215 0.4;
#X obj 104 258 outlet;
#X obj 154 258 outlet;
#X obj 204 258 outlet;
#X obj 254 258 outlet;
#X obj 304 258 outlet;
#X msg 104 214 0.2;
#X msg 140 215 0.5;
#X obj 238 127 inlet;
#X connect 0 0 5 0;
#X connect 1 0 6 0;
#X connect 2 0 7 0;
#X connect 8 0 3 0;
#X connect 9 0 4 0;
#X connect 10 0 8 0;
#X connect 10 0 9 0;
#X connect 10 0 0 0;
#X connect 10 0 1 0;
#X connect 10 0 2 0;
#X restore 600 408 pd init;
#X msg 43 130 set;
#X msg 42 159 set 0;
#X obj 760 298 loadbang;
#X obj 572 150 r \$0-c41;
#X obj 589 169 r \$0-c42;
#X obj 600 193 r \$0-c43;
#X obj 619 220 r \$0-c44;
#X obj 630 243 r \$0-c45;
#X obj 514 168 / 255;
#X obj 524 190 / 255;
#X obj 539 211 / 255;
#X obj 572 225 / 255;
#X obj 577 246 / 255;
#X text 113 94 Casca;
#X connect 0 0 8 0;
#X connect 4 0 8 1;
#X connect 5 0 8 2;
#X connect 6 0 8 3;
#X connect 7 0 8 4;
#X connect 8 0 1 0;
#X connect 9 0 8 5;
#X connect 10 0 4 0;
#X connect 10 1 5 0;
#X connect 10 2 6 0;
#X connect 10 3 7 0;
#X connect 10 4 9 0;
#X connect 11 0 8 0;
#X connect 12 0 8 0;
#X connect 13 0 10 0;
#X connect 14 0 19 0;
#X connect 15 0 20 0;
#X connect 16 0 21 0;
#X connect 17 0 22 0;
#X connect 18 0 23 0;
#X connect 19 0 4 0;
#X connect 20 0 5 0;
#X connect 21 0 6 0;
#X connect 22 0 7 0;
#X connect 23 0 9 0;
#X restore 404 420 pd ef_tIIR;
#X obj 465 322 - 11;
#X obj 466 358 gate 5;
#N canvas 5 107 1095 541 ef_rtx 0;
#X obj 256 52 inlet;
#X obj 285 274 outlet;
#X text 314 52 gemin;
#X text 333 271 gemout;
#X obj 402 223 pix_rtx;
#X msg 419 196 mode \$1;
#X obj 419 176 tgl 15 0 empty empty empty 0 -6 0 8 -262144 -1 -1 0
1;
#X obj 421 80 r \$0-c41;
#X obj 419 116 / 128;
#X obj 416 149 int;
#X connect 0 0 4 0;
#X connect 4 0 1 0;
#X connect 5 0 4 0;
#X connect 6 0 5 0;
#X connect 7 0 8 0;
#X connect 8 0 9 0;
#X connect 9 0 6 0;
#X restore 456 467 pd ef_rtx;
#N canvas 36 136 925 631 ef_normalize 0;
#X obj 250 46 inlet;
#X obj 279 268 outlet;
#X text 327 265 gemout;
#X obj 377 179 pix_normalize;
#X connect 0 0 3 0;
#X connect 3 0 1 0;
#X restore 512 505 pd ef_normalize;
#N canvas 1455 122 1048 691 ef_kaleidoskope 0;
#X obj 250 51 inlet;
#X obj 306 643 outlet;
#X text 308 51 gemin;
#X text 354 640 gemout;
#X obj 435 573 pix_kaleidoscope;
#X obj 735 246 pack;
#X obj 789 246 t b f;
#X obj 609 233 pack;
#X obj 674 213 t b f;
#X obj 456 45 r \$0-c41;
#X obj 454 81 / 8;
#X obj 518 45 r \$0-c42;
#X obj 518 80 - 128;
#X obj 519 114 * 1.5;
#X obj 609 49 r \$0-c43;
#X obj 609 213 / 255;
#X obj 672 50 r \$0-c44;
#X obj 672 193 / 255;
#X obj 739 85 - 128;
#X obj 740 119 * 1.5;
#X obj 765 162 r \$0-c46;
#X obj 742 56 r \$0-c45;
#X obj 831 162 r \$0-c47;
#X obj 734 226 / 255;
#X obj 787 225 / 255;
#X obj 707 336 r \$0-c48;
#X obj 708 379 / 2.55;
#X obj 832 339 r \$0-c49;
#X obj 827 381 / 2.55;
#X connect 0 0 4 0;
#X connect 4 0 1 0;
#X connect 5 0 4 5;
#X connect 6 0 5 0;
#X connect 6 1 5 1;
#X connect 7 0 4 3;
#X connect 8 0 7 0;
#X connect 8 1 7 1;
#X connect 9 0 10 0;
#X connect 10 0 4 1;
#X connect 11 0 12 0;
#X connect 12 0 13 0;
#X connect 13 0 4 2;
#X connect 14 0 15 0;
#X connect 15 0 7 0;
#X connect 16 0 17 0;
#X connect 17 0 8 0;
#X connect 18 0 19 0;
#X connect 19 0 4 4;
#X connect 20 0 23 0;
#X connect 21 0 18 0;
#X connect 22 0 24 0;
#X connect 23 0 5 0;
#X connect 24 0 6 0;
#X connect 25 0 26 0;
#X connect 26 0 4 6;
#X connect 27 0 28 0;
#X connect 28 0 4 7;
#X restore 607 548 pd ef_kaleidoskope;
#X floatatom 331 346 5 0 0 0 - - -;
#X floatatom 1049 305 5 0 0 0 - - -;
#X floatatom 620 83 5 0 0 0 - - -;
#X connect 0 0 51 1;
#X connect 2 0 51 0;
#X connect 47 0 2 0;
#X connect 47 0 56 0;
#X connect 47 0 57 0;
#X connect 47 0 63 0;
#X connect 47 0 69 0;
#X connect 48 0 49 0;
#X connect 49 0 2 0;
#X connect 50 0 1 0;
#X connect 51 0 1 0;
#X connect 51 1 50 0;
#X connect 51 2 52 0;
#X connect 51 3 53 0;
#X connect 51 4 55 1;
#X connect 52 0 1 0;
#X connect 53 0 1 0;
#X connect 54 0 1 0;
#X connect 55 0 54 0;
#X connect 55 1 58 0;
#X connect 55 2 59 0;
#X connect 55 3 60 0;
#X connect 55 4 62 1;
#X connect 57 0 55 0;
#X connect 57 0 76 0;
#X connect 58 0 1 0;
#X connect 59 0 1 0;
#X connect 60 0 1 0;
#X connect 61 0 1 0;
#X connect 62 0 61 0;
#X connect 62 1 64 0;
#X connect 62 2 65 0;
#X connect 62 3 66 0;
#X connect 62 4 70 1;
#X connect 63 0 62 0;
#X connect 63 0 75 0;
#X connect 64 0 1 0;
#X connect 65 0 1 0;
#X connect 66 0 1 0;
#X connect 67 0 1 0;
#X connect 68 0 1 0;
#X connect 69 0 70 0;
#X connect 69 0 74 0;
#X connect 70 0 67 0;
#X connect 70 1 68 0;
#X connect 70 2 71 0;
#X connect 70 3 72 0;
#X connect 70 4 73 0;
#X connect 71 0 1 0;
#X connect 72 0 1 0;
#X connect 73 0 1 0;
#X restore 232 894 pd fx;
#X text -146 41 R;
#X text -71 41 G;
#X text -52 60 B;
#X obj -123 193 pack f f f;
#X obj -123 111 t b;
#X obj -154 81 / 255;
#X obj -80 83 / 255;
#X obj -7 83 / 255;
#X obj -123 152 delay 10;
#X obj -150 42 r \$0-c26;
#X obj -80 42 r \$0-c27;
#X obj -7 42 r \$0-c28;
#X text 125 41 G;
#X text 127 60 B;
#X obj 73 193 pack f f f;
#X obj 73 111 t b;
#X obj 47 83 / 255;
#X obj 116 83 / 255;
#X obj 189 83 / 255;
#X obj 73 152 delay 10;
#X obj 47 42 r \$0-c29;
#X obj 116 42 r \$0-c30;
#X obj 189 44 r \$0-c31;
#X obj 314 70 r \$0-c12;
#X obj 374 68 r \$0-c13;
#X obj 433 70 r \$0-c14;
#X obj 494 78 r \$0-c2;
#X obj 540 79 r \$0-c3;
#X obj 589 80 r \$0-c4;
#X obj 637 81 r \$0-c1;
#X obj 695 81 r \$0-c18;
#X obj 748 82 r \$0-c19;
#X obj 799 80 r \$0-c20;
#X obj 871 82 r \$0-c15;
#X obj 916 82 r \$0-c16;
#X obj 964 81 r \$0-c17;
#X obj 442 851 r \$0-c32;
#X obj 504 851 r \$0-c33;
#X obj 574 851 r \$0-c34;
#X obj 636 851 r \$0-c35;
#X obj 725 851 r \$0-c36;
#X obj 780 851 r \$0-c37;
#X obj 872 851 r \$0-c38;
#X obj 934 851 r \$0-c39;
#X msg 362 902 8 8 5;
#X msg 343 949 8 -8 5;
#X msg 378 855 -8 8 5;
#X msg 427 793 -8 -8 5;
#X obj 435 707 bng 15 250 50 0 empty empty empty 17 7 0 10 -262144
-1 -1;
#X obj 361 759 delay 500;
#X obj 527 715 r init;
#X connect 0 0 14 0;
#X connect 1 0 11 0;
#X connect 2 0 1 4;
#X connect 7 0 28 0;
#X connect 8 0 13 2;
#X connect 9 0 13 1;
#X connect 10 0 9 0;
#X connect 10 0 130 0;
#X connect 11 0 13 0;
#X connect 12 0 8 0;
#X connect 13 0 80 0;
#X connect 14 0 7 0;
#X connect 28 0 1 0;
#X connect 29 0 32 0;
#X connect 30 0 31 0;
#X connect 31 0 11 1;
#X connect 32 0 11 2;
#X connect 33 0 38 0;
#X connect 34 0 8 0;
#X connect 35 0 8 1;
#X connect 35 0 12 0;
#X connect 36 0 8 2;
#X connect 36 0 12 0;
#X connect 37 0 33 0;
#X connect 38 0 11 3;
#X connect 39 0 1 1;
#X connect 40 0 1 2;
#X connect 41 0 1 3;
#X connect 42 0 28 2;
#X connect 43 0 28 1;
#X connect 44 0 28 1;
#X connect 45 0 28 2;
#X connect 46 0 7 1;
#X connect 47 0 7 2;
#X connect 48 0 7 3;
#X connect 49 0 43 0;
#X connect 49 0 42 0;
#X connect 50 0 67 0;
#X connect 51 0 67 0;
#X connect 52 0 67 0;
#X connect 53 0 67 0;
#X connect 54 0 72 0;
#X connect 55 0 73 0;
#X connect 56 0 71 0;
#X connect 57 0 74 0;
#X connect 58 0 75 0;
#X connect 59 0 68 0;
#X connect 60 0 76 0;
#X connect 61 0 77 0;
#X connect 62 0 69 0;
#X connect 63 0 67 0;
#X connect 64 0 78 0;
#X connect 65 0 79 0;
#X connect 66 0 70 0;
#X connect 68 0 50 0;
#X connect 69 0 52 0;
#X connect 70 0 63 0;
#X connect 71 0 51 0;
#X connect 72 0 71 0;
#X connect 73 0 56 0;
#X connect 73 0 71 1;
#X connect 74 0 68 0;
#X connect 75 0 59 0;
#X connect 75 0 68 1;
#X connect 76 0 69 0;
#X connect 77 0 62 0;
#X connect 77 0 69 1;
#X connect 78 0 70 0;
#X connect 79 0 66 0;
#X connect 79 0 70 1;
#X connect 80 0 53 0;
#X connect 84 0 28 3;
#X connect 85 0 89 0;
#X connect 86 0 84 0;
#X connect 87 0 85 0;
#X connect 87 0 84 1;
#X connect 88 0 85 0;
#X connect 88 0 84 2;
#X connect 89 0 84 0;
#X connect 90 0 86 0;
#X connect 91 0 87 0;
#X connect 92 0 88 0;
#X connect 95 0 28 4;
#X connect 96 0 100 0;
#X connect 97 0 95 0;
#X connect 98 0 96 0;
#X connect 98 0 95 1;
#X connect 99 0 96 0;
#X connect 99 0 95 2;
#X connect 100 0 95 0;
#X connect 101 0 97 0;
#X connect 102 0 98 0;
#X connect 103 0 99 0;
#X connect 104 0 46 0;
#X connect 105 0 47 0;
#X connect 106 0 48 0;
#X connect 107 0 39 0;
#X connect 108 0 40 0;
#X connect 109 0 41 0;
#X connect 110 0 2 0;
#X connect 111 0 30 0;
#X connect 112 0 29 0;
#X connect 113 0 37 0;
#X connect 114 0 34 0;
#X connect 115 0 35 0;
#X connect 116 0 36 0;
#X connect 117 0 54 0;
#X connect 118 0 55 0;
#X connect 119 0 57 0;
#X connect 120 0 58 0;
#X connect 121 0 60 0;
#X connect 122 0 61 0;
#X connect 123 0 64 0;
#X connect 124 0 65 0;
#X connect 125 0 50 0;
#X connect 126 0 51 0;
#X connect 127 0 52 0;
#X connect 128 0 63 0;
#X connect 129 0 10 0;
#X connect 130 0 128 0;
#X connect 130 0 127 0;
#X connect 130 0 125 0;
#X connect 130 0 126 0;
#X connect 131 0 10 0;
#X connect 131 0 129 0;
#X restore -85 843 pd video_render;
#N canvas 4 51 1272 969 audio_mix 0;
#X obj 649 548 *~ 0;
#X obj 706 548 *~ 0;
#X obj 727 470 dbtorms;
#X obj 670 470 dbtorms;
#X obj 355 63 inlet~;
#X obj 434 65 inlet~;
#X obj 698 662 dac~;
#X obj 785 146 / 2.55;
#X obj 499 66 inlet~;
#X obj 586 66 inlet~;
#X obj 687 69 inlet;
#X obj 428 384 spigot~;
#X obj 956 382 spigot~;
#X obj 869 380 spigot~;
#X obj 508 385 spigot~;
#X obj 687 276 sel 1 4;
#X msg 587 338 0;
#X msg 632 339 1;
#X msg 773 340 0;
#X msg 815 339 1;
#X text 645 43 Selector entrada;
#X text 402 41 L/R;
#X text 553 36 L/R;
#X obj 649 619 gpan~;
#X obj 913 142 / 255;
#X obj 785 70 r \$0-c24;
#X text 779 46 Volumen c24;
#X text 905 53 Pan c25;
#X obj 913 79 r \$0-c25;
#X connect 0 0 23 0;
#X connect 1 0 23 1;
#X connect 2 0 1 1;
#X connect 3 0 0 1;
#X connect 4 0 11 0;
#X connect 5 0 14 0;
#X connect 7 0 3 0;
#X connect 7 0 2 0;
#X connect 8 0 13 0;
#X connect 9 0 12 0;
#X connect 10 0 15 0;
#X connect 11 0 0 0;
#X connect 12 0 1 0;
#X connect 13 0 0 0;
#X connect 14 0 1 0;
#X connect 15 0 16 0;
#X connect 15 0 19 0;
#X connect 15 1 17 0;
#X connect 15 1 18 0;
#X connect 15 2 17 0;
#X connect 15 2 19 0;
#X connect 16 0 11 1;
#X connect 16 0 14 1;
#X connect 17 0 14 1;
#X connect 17 0 11 1;
#X connect 18 0 13 1;
#X connect 18 0 12 1;
#X connect 19 0 13 1;
#X connect 19 0 12 1;
#X connect 23 0 6 0;
#X connect 23 1 6 1;
#X connect 24 0 23 2;
#X connect 25 0 7 0;
#X connect 28 0 24 0;
#X restore 274 875 pd audio_mix;
#N canvas 69 75 951 689 texto 0;
#X obj 356 -379 gemhead;
#X msg 252 -31 font \$1;
#X obj 421 -307 rotateXYZ;
#X obj 422 76 text3d;
#X obj 421 -335 alpha;
#X obj 421 -204 colorRGB;
#X obj 639 -273 / 255;
#X obj 421 -31 translateXYZ;
#X obj 252 -484 inlet;
#X obj 252 -385 spigot;
#X obj 420 -514 inlet;
#X msg 466 -434 0;
#X msg 420 -438 1;
#X obj 420 -476 select 3;
#X text 851 -478 Texto c6;
#X text 942 -478 c12;
#X text 981 -478 c13;
#X text 1025 -478 c14;
#X text 1099 -478 Red c2;
#X text 1143 -478 Green c3;
#X text 1196 -478 Blue c4;
#X text 1243 -478 Alpha c1;
#X text 1322 -475 c18;
#X text 1384 -475 c19;
#X text 1442 -475 c20;
#X text 1492 -478 Size c15;
#X obj 853 -454 r \$0-c6;
#X obj 925 -454 r \$0-c12;
#X obj 984 -454 r \$0-c13;
#X obj 1044 -453 r \$0-c14;
#X obj 1099 -454 r \$0-c2;
#X obj 1149 -454 r \$0-c3;
#X obj 1204 -454 r \$0-c4;
#X obj 1255 -454 r \$0-c1;
#X obj 1376 -454 r \$0-c19;
#X obj 1508 -454 r \$0-c15;
#X obj 1440 -454 r \$0-c20;
#X obj 1317 -454 r \$0-c18;
#X obj 459 -115 - 32768;
#X obj 520 -115 - 32768;
#X obj 576 -115 - 32768;
#X obj 459 -77 / 4096;
#X obj 520 -77 / 4096;
#X obj 576 -78 / 4096;
#X obj 495 -273 / 128;
#X obj 542 -273 / 128;
#X obj 591 -273 / 128;
#X obj 490 -335 - 128;
#X obj 543 -335 - 128;
#X obj 596 -335 - 128;
#X obj 856 -55 coll text.txt;
#C flags 1 0;
#C 1 Hello!;
#C 2 Next Generation;
#C 3 Pure Media Server;
#C 4 como mola;
#C 5 esto es una frase muy pero que muy larga y no puedo usar comas
;
#C 6 otra frasecita;
#C 7 ya no se que poner;
#C 8 otra mais;
#C 9 así hasta 255;
#C 10 Hay que acabar las frases con punto y coma;
#C 11 si no da error;
#C 12 y no se pueden usar comas en las frases;
#C restore;
#X obj 856 1 prepend text;
#X obj 1363 91 / 8;
#X obj 422 114 outlet;
#X connect 0 0 4 0;
#X connect 1 0 3 0;
#X connect 2 0 5 0;
#X connect 3 0 53 0;
#X connect 4 0 2 0;
#X connect 5 0 7 0;
#X connect 6 0 5 4;
#X connect 7 0 3 0;
#X connect 8 0 9 0;
#X connect 9 0 1 0;
#X connect 10 0 13 0;
#X connect 11 0 0 0;
#X connect 11 0 9 1;
#X connect 12 0 0 0;
#X connect 12 0 9 1;
#X connect 13 0 12 0;
#X connect 13 1 11 0;
#X connect 26 0 50 0;
#X connect 27 0 47 0;
#X connect 28 0 48 0;
#X connect 29 0 49 0;
#X connect 30 0 44 0;
#X connect 31 0 45 0;
#X connect 32 0 46 0;
#X connect 33 0 6 0;
#X connect 34 0 39 0;
#X connect 35 0 52 0;
#X connect 36 0 40 0;
#X connect 37 0 38 0;
#X connect 38 0 41 0;
#X connect 39 0 42 0;
#X connect 40 0 43 0;
#X connect 41 0 7 1;
#X connect 42 0 7 2;
#X connect 43 0 7 3;
#X connect 44 0 5 1;
#X connect 45 0 5 2;
#X connect 46 0 5 3;
#X connect 47 0 2 1;
#X connect 48 0 2 2;
#X connect 49 0 2 3;
#X connect 50 0 51 0;
#X connect 51 0 3 0;
#X connect 52 0 3 1;
#X restore -67 722 pd texto;
#X floatatom 217 9 5 0 0 0 - - -;
#X symbolatom 0 9 35 0 0 0 - - -;
#X connect 0 0 25 0;
#X connect 0 1 26 0;
#X connect 0 2 27 0;
#X connect 0 3 28 0;
#X connect 0 4 29 0;
#X connect 0 5 30 0;
#X connect 0 6 31 0;
#X connect 0 7 32 0;
#X connect 0 8 1 0;
#X connect 0 9 2 0;
#X connect 0 10 3 0;
#X connect 0 11 4 0;
#X connect 0 12 5 0;
#X connect 0 13 6 0;
#X connect 0 14 7 0;
#X connect 0 15 8 0;
#X connect 0 16 9 0;
#X connect 0 17 10 0;
#X connect 0 18 11 0;
#X connect 0 19 12 0;
#X connect 0 20 13 0;
#X connect 0 21 14 0;
#X connect 0 22 15 0;
#X connect 0 23 16 0;
#X connect 0 24 17 0;
#X connect 0 25 18 0;
#X connect 0 26 19 0;
#X connect 0 27 20 0;
#X connect 0 28 21 0;
#X connect 0 29 22 0;
#X connect 0 30 23 0;
#X connect 0 31 24 0;
#X connect 1 0 84 0;
#X connect 2 0 85 0;
#X connect 3 0 86 0;
#X connect 4 0 87 0;
#X connect 5 0 88 0;
#X connect 6 0 89 0;
#X connect 7 0 90 0;
#X connect 8 0 91 0;
#X connect 9 0 92 0;
#X connect 10 0 67 0;
#X connect 11 0 69 0;
#X connect 12 0 71 0;
#X connect 13 0 68 1;
#X connect 14 0 70 1;
#X connect 15 0 72 1;
#X connect 16 0 135 0;
#X connect 17 0 136 0;
#X connect 18 0 96 0;
#X connect 19 0 97 0;
#X connect 20 0 98 0;
#X connect 21 0 99 0;
#X connect 22 0 100 0;
#X connect 23 0 101 0;
#X connect 24 0 102 0;
#X connect 25 0 76 0;
#X connect 26 0 77 0;
#X connect 27 0 78 0;
#X connect 28 0 79 0;
#X connect 29 0 80 0;
#X connect 30 0 81 0;
#X connect 31 0 82 0;
#X connect 32 0 83 0;
#X connect 33 0 0 0;
#X connect 33 1 34 0;
#X connect 34 0 59 0;
#X connect 34 1 60 0;
#X connect 34 2 61 0;
#X connect 34 3 62 0;
#X connect 34 4 63 0;
#X connect 34 5 64 0;
#X connect 34 6 65 0;
#X connect 34 7 66 0;
#X connect 34 8 35 0;
#X connect 34 9 36 0;
#X connect 34 10 37 0;
#X connect 34 11 38 0;
#X connect 34 12 39 0;
#X connect 34 13 40 0;
#X connect 34 14 41 0;
#X connect 34 15 42 0;
#X connect 34 16 43 0;
#X connect 34 17 44 0;
#X connect 34 18 45 0;
#X connect 34 19 46 0;
#X connect 34 20 47 0;
#X connect 34 21 48 0;
#X connect 34 22 49 0;
#X connect 34 23 50 0;
#X connect 34 24 51 0;
#X connect 34 25 52 0;
#X connect 34 26 53 0;
#X connect 34 27 54 0;
#X connect 34 28 55 0;
#X connect 34 29 56 0;
#X connect 34 30 57 0;
#X connect 34 31 58 0;
#X connect 35 0 116 0;
#X connect 36 0 117 0;
#X connect 37 0 108 0;
#X connect 38 0 109 0;
#X connect 39 0 110 0;
#X connect 40 0 111 0;
#X connect 41 0 112 0;
#X connect 42 0 118 0;
#X connect 43 0 119 0;
#X connect 44 0 120 0;
#X connect 45 0 121 0;
#X connect 46 0 122 0;
#X connect 47 0 128 0;
#X connect 48 0 129 0;
#X connect 49 0 130 0;
#X connect 50 0 131 0;
#X connect 51 0 132 0;
#X connect 52 0 123 0;
#X connect 53 0 124 0;
#X connect 54 0 125 0;
#X connect 55 0 126 0;
#X connect 56 0 127 0;
#X connect 57 0 133 0;
#X connect 58 0 134 0;
#X connect 59 0 103 0;
#X connect 60 0 104 0;
#X connect 61 0 105 0;
#X connect 62 0 106 0;
#X connect 63 0 107 0;
#X connect 64 0 113 0;
#X connect 65 0 114 0;
#X connect 66 0 115 0;
#X connect 67 0 68 0;
#X connect 68 0 93 0;
#X connect 69 0 70 0;
#X connect 70 0 94 0;
#X connect 71 0 72 0;
#X connect 72 0 95 0;
#X connect 75 0 33 0;
#X connect 137 0 138 0;
#X connect 137 0 139 0;
#X connect 137 0 140 0;
#X connect 137 0 143 0;
#X connect 137 0 145 0;
#X connect 137 1 138 1;
#X connect 137 1 139 1;
#X connect 137 1 140 1;
#X connect 137 1 143 1;
#X connect 137 1 144 0;
#X connect 138 0 141 0;
#X connect 139 0 141 0;
#X connect 140 0 142 2;
#X connect 140 1 142 3;
#X coords 0 -1 1 1 250 30 1 0 0;
