#N canvas 60 170 1217 604 10;
#X obj 214 96 unpack f f f f f f f f f f f f f f f f f f f f f f f
f f f f f f f f f;
#X obj 156 352 change;
#X obj 204 351 change;
#X obj 282 267 change;
#X obj 336 268 change;
#X obj 390 267 change;
#X obj 442 267 change;
#X obj 496 268 change;
#X obj 282 369 change;
#X obj 337 363 change;
#X obj 391 366 change;
#X obj 445 366 change;
#X obj 498 365 change;
#X obj 589 270 change;
#X obj 646 270 change;
#X obj 698 271 change;
#X obj 760 274 change;
#X obj 813 274 change;
#X obj 580 352 change;
#X obj 107 268 change;
#X obj 156 268 change;
#X obj 204 267 change;
#X obj 16 352 change;
#X obj 62 352 change;
#X obj 107 352 change;
#X obj 214 56 list split 32;
#X obj 391 408 << 8;
#X obj 391 450 +;
#X obj 445 408 << 8;
#X obj 445 450 +;
#X obj 214 26 inlet;
#X obj 16 311 s \$0-c1;
#X obj 62 310 s \$0-c2;
#X obj 107 310 s \$0-c3;
#X obj 156 310 s \$0-c4;
#X obj 204 309 s \$0-c5;
#X obj 16 409 s \$0-c6;
#X obj 62 408 s \$0-c7;
#X obj 107 409 s \$0-c8;
#X obj 156 408 s \$0-c9;
#X obj 204 409 s \$0-c10;
#X obj 282 309 s \$0-c11;
#X obj 336 310 s \$0-c12;
#X obj 390 309 s \$0-c13;
#X obj 442 309 s \$0-c14;
#X obj 496 310 s \$0-c15;
#X obj 282 411 s \$0-c16;
#X obj 337 410 s \$0-c17;
#X obj 391 492 s \$0-c18;
#X obj 445 492 s \$0-c19;
#X obj 580 375 s \$0-c26;
#X obj 637 374 s \$0-c27;
#X obj 689 374 s \$0-c28;
#X obj 744 375 s \$0-c29;
#X obj 797 375 s \$0-c30;
#X obj 839 238 s \$0-c31;
#X obj 897 235 s \$0-c32;
#X obj 970 240 s \$0-c33;
#X obj 1025 240 s \$0-c34;
#X obj 1083 243 s \$0-c35;
#X obj 1139 244 s \$0-c36;
#X obj 1197 245 s \$0-c37;
#X obj 760 294 s \$0-c24;
#X obj 813 295 s \$0-c25;
#N canvas 197 105 1024 669 selector 0;
#X obj 1505 -9 loadbang;
#X obj 875 782 outlet;
#X obj 1430 308 outlet;
#X obj 1327 6 / 25;
#X obj 1055 266 symbol;
#X obj 909 266 symbol;
#X obj 682 67 spigot;
#X msg 775 20 1;
#X msg 845 6 0;
#X msg 1361 162 1;
#X msg 1401 163 2;
#X msg 1437 163 3;
#X msg 1505 164 0;
#X msg 910 434 symbol \$1;
#X text 680 9 folder;
#X text 1094 455 file;
#X obj 909 305 makefilename %s/image/*;
#X obj 1055 305 makefilename %s/fonts/*;
#X obj 682 31 r \$0-c6;
#X obj 1093 478 r \$0-c7;
#X obj 1327 -32 r \$0-c8;
#X obj 1327 45 int;
#X obj 732 109 symbol;
#X obj 901 582 hcs/folder_list;
#X obj 1003 623 t l;
#X obj 908 722 list split 1;
#X obj 880 695 list split;
#X obj 910 473 t b a;
#X obj 988 543 symbol;
#X obj 874 514 t b b;
#X obj 901 543 t b b;
#X obj 880 656 list;
#X obj 901 621 list prepend;
#X obj 1093 517 b;
#X msg 732 176 symbol \$1;
#X obj 645 228 hcs/folder_list;
#X obj 704 198 b;
#X obj 750 268 t l;
#X obj 624 302 list;
#X obj 645 268 list prepend;
#X obj 624 339 list split;
#X obj 652 367 list split 1;
#X obj 652 389 makefilename %s/*;
#X obj 732 148 makefilename %s/video/*;
#X obj 666 609 int;
#X obj 704 607 + 1;
#X msg 605 574 0;
#X msg 643 501 0;
#X msg 677 502 1;
#X obj 729 705 b;
#X obj 875 750 symbol;
#X obj 1327 85 select 1 2 3;
#X text 1213 357 Tipo de media: 0 Off 1 Video 2 Imagen 3 Texto;
#X obj 666 571 metro 10;
#X obj 666 668 select 10;
#X obj 732 67 r path;
#X obj 1191 637 change;
#X connect 0 0 12 0;
#X connect 3 0 21 0;
#X connect 4 0 17 0;
#X connect 5 0 16 0;
#X connect 6 0 40 1;
#X connect 6 0 36 0;
#X connect 7 0 6 1;
#X connect 8 0 6 1;
#X connect 9 0 2 0;
#X connect 10 0 2 0;
#X connect 11 0 2 0;
#X connect 12 0 2 0;
#X connect 13 0 27 0;
#X connect 16 0 13 0;
#X connect 17 0 13 0;
#X connect 18 0 6 0;
#X connect 19 0 26 1;
#X connect 19 0 33 0;
#X connect 20 0 3 0;
#X connect 21 0 51 0;
#X connect 22 0 43 0;
#X connect 23 0 32 0;
#X connect 24 0 32 1;
#X connect 25 0 50 1;
#X connect 26 1 25 0;
#X connect 27 0 29 0;
#X connect 27 0 48 0;
#X connect 27 1 28 0;
#X connect 28 0 23 1;
#X connect 29 0 31 0;
#X connect 29 1 30 0;
#X connect 30 0 23 0;
#X connect 30 1 32 1;
#X connect 31 0 26 0;
#X connect 32 0 24 0;
#X connect 32 0 31 1;
#X connect 33 0 31 0;
#X connect 33 0 48 0;
#X connect 34 0 35 1;
#X connect 34 0 36 0;
#X connect 35 0 39 0;
#X connect 36 0 35 0;
#X connect 36 0 39 1;
#X connect 36 0 38 0;
#X connect 37 0 39 1;
#X connect 38 0 40 0;
#X connect 39 0 37 0;
#X connect 39 0 38 1;
#X connect 40 1 41 0;
#X connect 41 0 42 0;
#X connect 42 0 13 0;
#X connect 43 0 34 0;
#X connect 44 0 45 0;
#X connect 44 0 54 0;
#X connect 45 0 44 1;
#X connect 46 0 44 1;
#X connect 47 0 53 0;
#X connect 48 0 53 0;
#X connect 49 0 50 0;
#X connect 50 0 1 0;
#X connect 51 0 9 0;
#X connect 51 0 7 0;
#X connect 51 0 22 0;
#X connect 51 1 10 0;
#X connect 51 1 8 0;
#X connect 51 1 5 0;
#X connect 51 2 11 0;
#X connect 51 2 8 0;
#X connect 51 2 4 0;
#X connect 51 3 8 0;
#X connect 51 3 12 0;
#X connect 53 0 44 0;
#X connect 54 0 47 0;
#X connect 54 0 46 0;
#X connect 54 0 49 0;
#X connect 55 0 5 0;
#X connect 55 0 4 0;
#X connect 55 0 22 0;
#X restore 618 -147 pd selector;
#N canvas 1 104 1016 665 imagen 0;
#X obj 100 321 pix_image;
#X msg 4 240 open \$1;
#X obj 4 53 inlet;
#X obj 100 43 inlet;
#X msg 100 101 1;
#X msg 145 100 0;
#X obj 4 188 spigot;
#X obj 100 74 select 2;
#X obj 100 381 outlet;
#X msg 214 270 thread 0;
#X obj 205 196 loadbang;
#X obj 100 195 gemhead;
#X connect 0 0 8 0;
#X connect 1 0 0 0;
#X connect 2 0 6 0;
#X connect 3 0 7 0;
#X connect 4 0 6 1;
#X connect 4 0 11 0;
#X connect 5 0 6 1;
#X connect 5 0 11 0;
#X connect 6 0 1 0;
#X connect 7 0 4 0;
#X connect 7 1 5 0;
#X connect 9 0 0 0;
#X connect 10 0 9 0;
#X connect 11 0 0 0;
#X restore 514 -19 pd imagen;
#N canvas 335 102 1016 665 video 0;
#X msg 22 982 open \$1;
#X obj 147 982 gemhead;
#X obj 22 913 spigot;
#X obj 30 173 inlet;
#X obj 108 173 inlet;
#X msg 148 863 0;
#X msg 103 860 1;
#X obj 103 822 select 1;
#X obj 150 1322 outlet;
#X obj 973 437 expr $f1 > 244 && $f1 < 250;
#X obj 843 476 select 1;
#X obj 845 437 > 249;
#X obj 1442 915 counter;
#X msg 1474 831 0;
#X msg 1521 832 1;
#X obj 1777 571 t b;
#X obj 1902 613 t b;
#X obj 2019 634 t b;
#X obj 2138 707 t b;
#X obj 1449 608 metro 25;
#X obj 1478 1123 ==;
#X obj 2096 707 t b;
#X text 1472 1315 Un solo disparo;
#X msg 2096 1244 0;
#X msg 2138 1247 1;
#X obj 1580 1316 spigot;
#X text 1532 265 0-10 Normal 11-20 Back 21-30 Ping-pong 31-40 Normal
una vez 41-50 Back una vez 51-60 Ping-Pong una vez 61-70 Stop/pause
71-80 Continue;
#X obj 1449 716 spigot 1;
#X msg 1577 665 0;
#X text 1445 699 play/pause;
#X text 1582 641 Pause;
#X msg 1510 658 1;
#X text 1515 641 Play;
#X text 1485 805 Modos del contador;
#X obj 1268 617 *;
#X obj 1349 825 int;
#X msg 1472 1025 1;
#X msg 1503 1025 0;
#X obj 1635 1076 spigot;
#X msg 1705 1022 1;
#X msg 1746 1025 0;
#X obj 1628 1142 ==;
#X obj 1245 495 t b;
#X obj 1433 1076 spigot;
#X text 1271 1234 Normal - Forward;
#X text 1738 551 Normal;
#X text 1876 591 Back;
#X text 1962 626 PingPong;
#X text 1636 1205 Back;
#X msg 1979 995 1;
#X text 1376 829 Loop inferior;
#X obj 1908 1045 spigot;
#X msg 2011 995 0;
#X text 2025 1211 PingPong;
#X obj 1364 1206 int;
#X obj 1608 466 *;
#X text 1630 495 loop superior;
#X text 679 206 0-244 Speed 244-249 auto 1 vez 250-255 auto loop;
#X text 883 404 Metodos Auto;
#X text 1003 419 Auto 1 vez;
#X text 799 415 Auto Loop;
#X obj 1631 418 * 0.00392157;
#X obj 1606 528 int;
#X obj 1566 424 t b;
#X obj 973 478 select 1;
#X obj 1507 1155 sel 1;
#X obj 1628 1182 sel 1;
#X obj 1817 1094 ==;
#X obj 1817 1127 sel 1;
#X obj 1986 1157 ==;
#X obj 1986 1194 sel 1;
#X text 1252 432 Inicio Loop c10;
#X text 1600 353 Final loop c11;
#X text 1902 162 Control y modos de reproduccion c9;
#X obj 251 792 loadbang;
#X msg 202 941 1;
#X obj 1269 449 r \$0-c10;
#X obj 1616 374 r \$0-c11;
#X obj 1966 184 r \$0-c9;
#X obj 187 1176 unpack f f f;
#X msg 222 985 colorspace RGBA;
#X msg 436 1048 auto 1;
#X obj 830 668 spigot;
#X obj 298 1170 s \$0-end;
#X obj 903 613 r \$0-end;
#X msg 830 701 0;
#X obj 909 740 s \$0-framein;
#X obj 192 1217 s \$0-frameout;
#X obj 543 1054 r \$0-framein;
#X obj 1181 265 expr $f1 < 244;
#X obj 980 206 r \$0-c5;
#X obj 1085 975 s \$0-framein;
#X obj 1492 551 spigot;
#X obj 972 653 spigot;
#X msg 330 1046 auto 0;
#X obj 1028 652 r \$0-frameout;
#X obj 972 687 int;
#X obj 2100 407 s \$0-pause;
#X obj 2123 368 s \$0-play;
#X obj 1510 626 r \$0-play;
#X obj 1577 625 r \$0-pause;
#X obj 1095 340 select 1;
#X obj 330 987 r \$0-pauseauto;
#X obj 436 988 r \$0-playauto;
#X obj 1131 394 s \$0-pauseauto;
#X obj 710 528 s \$0-playauto;
#X msg 1094 596 0;
#X msg 1009 597 1;
#X msg 810 616 0;
#X msg 853 615 1;
#X obj 1027 739 s \$0-pauseauto;
#X obj 1447 374 r \$0-frameout;
#X obj 665 634 r \$0-play;
#X obj 665 747 spigot;
#X obj 665 808 s \$0-playauto;
#X obj 595 634 r \$0-pause;
#X msg 697 688 0;
#X msg 731 688 1;
#X obj 595 746 spigot;
#X obj 595 787 s \$0-pauseauto;
#X obj 1085 940 spigot;
#X obj 1118 871 - 1;
#X msg 1174 869 1;
#X obj 1878 338 select 0 1 2 3 4 5 6 7;
#X obj 1966 278 int;
#X obj 252 901 s %0-pause;
#X obj 76 982 s \$0-metro;
#X obj 1449 578 r \$0-metro;
#X obj 153 1112 pix_filmQT;
#X obj 1966 228 * 0.04;
#X obj 1245 550 * 0.00392157;
#X obj 1580 1345 s \$0-pause;
#X obj 1632 815 - 1;
#X obj 1797 1239 spigot;
#X connect 0 0 128 0;
#X connect 1 0 128 0;
#X connect 2 0 0 0;
#X connect 3 0 2 0;
#X connect 4 0 7 0;
#X connect 5 0 2 1;
#X connect 5 0 1 0;
#X connect 5 0 125 0;
#X connect 5 0 126 0;
#X connect 6 0 2 1;
#X connect 6 0 1 0;
#X connect 6 0 126 0;
#X connect 7 0 6 0;
#X connect 7 1 5 0;
#X connect 9 0 64 0;
#X connect 10 0 105 0;
#X connect 10 0 106 0;
#X connect 10 0 109 0;
#X connect 10 0 117 0;
#X connect 11 0 10 0;
#X connect 12 0 43 0;
#X connect 12 0 38 0;
#X connect 12 0 51 0;
#X connect 12 0 120 0;
#X connect 13 0 12 1;
#X connect 14 0 12 1;
#X connect 15 0 13 0;
#X connect 15 0 12 2;
#X connect 15 0 35 0;
#X connect 15 0 36 0;
#X connect 15 0 40 0;
#X connect 15 0 52 0;
#X connect 16 0 14 0;
#X connect 16 0 12 2;
#X connect 16 0 37 0;
#X connect 16 0 39 0;
#X connect 16 0 52 0;
#X connect 16 0 62 0;
#X connect 17 0 40 0;
#X connect 17 0 49 0;
#X connect 17 0 37 0;
#X connect 17 0 13 0;
#X connect 17 0 35 0;
#X connect 18 0 24 0;
#X connect 19 0 27 0;
#X connect 20 0 65 0;
#X connect 21 0 23 0;
#X connect 23 0 25 1;
#X connect 23 0 133 1;
#X connect 24 0 25 1;
#X connect 24 0 133 1;
#X connect 25 0 131 0;
#X connect 27 0 12 0;
#X connect 28 0 27 1;
#X connect 31 0 27 1;
#X connect 34 0 35 0;
#X connect 35 0 41 1;
#X connect 35 0 12 2;
#X connect 35 0 54 1;
#X connect 35 0 12 3;
#X connect 35 0 69 1;
#X connect 36 0 43 1;
#X connect 37 0 43 1;
#X connect 38 0 41 0;
#X connect 39 0 38 1;
#X connect 39 0 12 1;
#X connect 40 0 38 1;
#X connect 41 0 66 0;
#X connect 42 0 130 0;
#X connect 43 0 20 0;
#X connect 49 0 51 1;
#X connect 51 0 67 0;
#X connect 51 0 69 0;
#X connect 52 0 51 1;
#X connect 54 0 12 2;
#X connect 54 0 25 0;
#X connect 55 0 62 0;
#X connect 61 0 55 1;
#X connect 62 0 132 0;
#X connect 63 0 55 0;
#X connect 64 0 105 0;
#X connect 64 0 107 0;
#X connect 64 0 108 0;
#X connect 64 0 117 0;
#X connect 65 0 54 0;
#X connect 65 0 25 0;
#X connect 66 0 12 4;
#X connect 66 0 25 0;
#X connect 67 0 68 0;
#X connect 68 0 14 0;
#X connect 69 0 70 0;
#X connect 70 0 13 0;
#X connect 70 0 133 0;
#X connect 70 0 23 0;
#X connect 74 0 5 0;
#X connect 74 0 80 0;
#X connect 75 0 1 0;
#X connect 76 0 42 0;
#X connect 76 0 34 1;
#X connect 77 0 55 0;
#X connect 78 0 129 0;
#X connect 79 0 87 0;
#X connect 80 0 128 0;
#X connect 81 0 128 0;
#X connect 82 0 85 0;
#X connect 84 0 82 0;
#X connect 84 0 93 0;
#X connect 85 0 86 0;
#X connect 88 0 128 1;
#X connect 89 0 92 1;
#X connect 89 0 101 0;
#X connect 90 0 9 0;
#X connect 90 0 11 0;
#X connect 90 0 89 0;
#X connect 90 0 92 0;
#X connect 92 0 19 1;
#X connect 93 0 96 0;
#X connect 94 0 128 0;
#X connect 95 0 96 1;
#X connect 96 0 86 0;
#X connect 96 0 110 0;
#X connect 99 0 31 0;
#X connect 100 0 28 0;
#X connect 101 0 104 0;
#X connect 101 0 106 0;
#X connect 101 0 108 0;
#X connect 101 0 116 0;
#X connect 101 0 122 0;
#X connect 102 0 94 0;
#X connect 103 0 81 0;
#X connect 106 0 93 1;
#X connect 107 0 93 1;
#X connect 108 0 82 1;
#X connect 109 0 82 1;
#X connect 111 0 61 0;
#X connect 111 0 63 0;
#X connect 111 0 130 0;
#X connect 112 0 113 0;
#X connect 113 0 114 0;
#X connect 115 0 118 0;
#X connect 116 0 113 1;
#X connect 116 0 118 1;
#X connect 117 0 113 1;
#X connect 117 0 118 1;
#X connect 117 0 121 0;
#X connect 118 0 119 0;
#X connect 120 0 91 0;
#X connect 121 0 120 1;
#X connect 122 0 120 1;
#X connect 123 0 15 0;
#X connect 123 0 21 0;
#X connect 123 0 98 0;
#X connect 123 1 98 0;
#X connect 123 1 16 0;
#X connect 123 1 21 0;
#X connect 123 2 98 0;
#X connect 123 2 17 0;
#X connect 123 2 21 0;
#X connect 123 3 98 0;
#X connect 123 3 15 0;
#X connect 123 3 18 0;
#X connect 123 4 98 0;
#X connect 123 4 16 0;
#X connect 123 4 18 0;
#X connect 123 5 98 0;
#X connect 123 5 17 0;
#X connect 123 5 18 0;
#X connect 123 6 98 0;
#X connect 123 6 97 0;
#X connect 123 7 98 0;
#X connect 124 0 123 0;
#X connect 127 0 19 0;
#X connect 128 0 8 0;
#X connect 128 1 75 0;
#X connect 128 1 79 0;
#X connect 128 2 83 0;
#X connect 129 0 124 0;
#X connect 130 0 34 0;
#X connect 132 0 20 1;
#X connect 132 0 12 4;
#X connect 132 0 67 1;
#X connect 133 0 25 0;
#X restore 639 -20 pd video;
#N canvas 624 145 653 615 video_render 1;
#X obj 232 95 inlet;
#X text 336 319 Green;
#X text 255 317 Red;
#X text 418 317 Blue;
#X msg 255 772 1;
#X obj 255 725 loadbang;
#X obj 231 694 translateXYZ;
#X obj 482 748 t b;
#X obj 232 161 alpha;
#X obj 233 287 pix_alpha;
#X obj 351 625 - 32768;
#X obj 254 627 - 32768;
#X msg 310 211 0;
#X msg 252 211 1;
#X obj 280 170 loadbang;
#X msg 647 981 set 1 1 \$1 \$2 \$3;
#X msg 375 1011 set 1 0 \$1 \$2 \$3;
#X msg 872 966 set 0 1 \$1 \$2 \$3;
#X obj 230 933 pix_texture;
#X obj 464 951 t b;
#X obj 673 906 t b;
#X obj 876 903 t b;
#X msg 1074 1023 set 0 0 \$1 \$2 \$3;
#X obj 1083 920 t b;
#X obj 647 957 pack f f 5;
#X obj 869 940 pack f f 5;
#X obj 1074 986 pack f f 5;
#X obj 438 985 pack f f 5;
#N canvas 265 88 528 679 fx 0;
#X obj 284 -71 inlet;
#X obj 228 614 outlet;
#X msg 23 -19 BackDropKeyVFX;
#X msg 23 12 BackLightVFX;
#X msg 23 43 BloomVFX.;
#X msg 23 74 BurnVFX;
#X msg 23 105 ChromiumVFX;
#X msg 23 136 ColourReduceVFX;
#X msg 23 167 ColourWarpVFX;
#X msg 23 198 DeInterlaceVFX;
#X msg 23 229 DilateVFX;
#X msg 23 260 DirectionalBlurVFX;
#X msg 23 291 DodgeVFX;
#X msg 23 322 ExclusionVFX;
#X msg 23 353 FishEyeVFX;
#X msg 23 384 GaussianBlurVFX;
#X msg 23 415 GlowVFX;
#X msg 23 446 LevelsVFX;
#X msg 23 477 LionelBlurVFX;
#X msg 23 508 LumaCycleVFX;
#X msg 23 539 LumaKeyVFX;
#X msg 23 570 MixerVFX;
#X msg 23 601 PanSpinZoomVFX;
#X msg 23 632 PosterizeVFX;
#X msg 23 663 RadialBlurVFX;
#X msg 24 676 RectDistortVFX;
#X msg 24 705 RefractionVFX;
#X msg 24 763 SlideVFX;
#X msg 24 734 SmearVFX;
#X msg 24 792 SolarizeVFX;
#X msg 24 821 SpiralBlurVFX;
#X msg 24 850 SquashVFX;
#X msg 24 879 StaticVFX;
#X msg 24 908 StretchVFX;
#X msg 24 937 TileVFX;
#X msg 24 966 TimeBlurVFX;
#X msg 24 995 TimeSliceVFX;
#X msg 24 1024 TimeWarpVFX;
#X msg 24 1053 TVPixelVFX;
#X msg 20 1080 VectorizeVFX;
#X msg 23 1109 WaveVFX;
#N canvas 156 362 479 405 ef_halftone 0;
#X obj 122 269 pix_halftone;
#X msg 380 225 style \$1;
#X obj 380 169 / 64;
#X obj 380 199 int;
#X obj 263 164 * 2;
#X obj 204 204 + 1;
#X obj 207 161 * 0.125;
#X obj 290 169 * 0.00392157;
#X obj 60 -14 inlet;
#X obj 62 330 outlet;
#X text 60 -31 gemin;
#X text 59 345 gemout;
#X obj 60 107 gate 2;
#X obj -18 -16 r \$0-c36;
#X msg -18 37 2;
#X msg 27 38 1;
#X obj -18 8 select 2;
#X obj 215 -27 r \$0-fx1;
#X obj 211 47 spigot;
#X obj 210 79 list split 4;
#X obj 209 116 unpack f f f f;
#X obj 244 19 - 1;
#X floatatom 157 152 5 0 0 0 - - -;
#X floatatom 332 224 5 0 0 0 - - -;
#X connect 0 0 9 0;
#X connect 1 0 0 0;
#X connect 2 0 3 0;
#X connect 3 0 1 0;
#X connect 3 0 23 0;
#X connect 4 0 0 2;
#X connect 5 0 0 1;
#X connect 6 0 5 0;
#X connect 7 0 0 3;
#X connect 8 0 12 1;
#X connect 12 0 9 0;
#X connect 12 1 0 0;
#X connect 13 0 16 0;
#X connect 14 0 21 0;
#X connect 14 0 12 0;
#X connect 15 0 21 0;
#X connect 15 0 12 0;
#X connect 16 0 14 0;
#X connect 16 1 15 0;
#X connect 17 0 18 0;
#X connect 18 0 19 0;
#X connect 19 0 20 0;
#X connect 20 0 6 0;
#X connect 20 0 22 0;
#X connect 20 1 4 0;
#X connect 20 2 7 0;
#X connect 20 3 2 0;
#X connect 21 0 18 1;
#X restore 385 106 pd ef_halftone;
#N canvas 1649 160 378 440 ef_rds 0;
#X msg 205 248 method \$1;
#X obj 200 301 pix_rds;
#X obj 280 248 / 2.55;
#X obj 208 193 / 128;
#X obj 205 221 int;
#X obj 60 -14 inlet;
#X obj 51 366 outlet;
#X text 60 -31 gemin;
#X text 48 381 gemout;
#X obj 53 168 gate 2;
#X obj 86 21 r \$0-c36;
#X msg 86 74 2;
#X msg 131 75 1;
#X obj 219 -16 r \$0-fx1;
#X obj 214 90 list split 2;
#X obj 215 130 unpack f f;
#X obj 215 58 spigot;
#X obj 248 30 - 1;
#X obj 86 45 select 3;
#X connect 0 0 1 0;
#X connect 1 0 6 0;
#X connect 2 0 1 1;
#X connect 3 0 4 0;
#X connect 4 0 0 0;
#X connect 5 0 9 1;
#X connect 9 0 6 0;
#X connect 9 1 1 0;
#X connect 10 0 18 0;
#X connect 11 0 17 0;
#X connect 11 0 9 0;
#X connect 12 0 17 0;
#X connect 12 0 9 0;
#X connect 13 0 16 0;
#X connect 14 0 15 0;
#X connect 15 0 3 0;
#X connect 15 1 2 0;
#X connect 16 0 14 0;
#X connect 17 0 16 1;
#X connect 18 0 11 0;
#X connect 18 1 12 0;
#X restore 385 136 pd ef_rds;
#N canvas 1705 147 309 512 ef_roll 0;
#X obj 125 275 pix_roll;
#X msg 157 243 axis \$1;
#X obj 163 189 / 128;
#X obj 161 216 int;
#X obj 225 195 - 128;
#X obj 227 242 * 2;
#X obj 112 -10 inlet;
#X obj 59 339 outlet;
#X text 112 -27 gemin;
#X text 56 354 gemout;
#X obj 60 107 gate 2;
#X obj 27 18 r \$0-c36;
#X msg 27 71 2;
#X msg 70 71 1;
#X obj 219 -16 r \$0-fx1;
#X obj 214 90 list split 2;
#X obj 219 128 unpack f f;
#X obj 215 58 spigot;
#X obj 248 30 - 1;
#X obj 27 42 select 4;
#X connect 0 0 7 0;
#X connect 1 0 0 0;
#X connect 2 0 3 0;
#X connect 3 0 1 0;
#X connect 4 0 5 0;
#X connect 5 0 0 1;
#X connect 6 0 10 1;
#X connect 10 0 7 0;
#X connect 10 1 0 0;
#X connect 11 0 19 0;
#X connect 12 0 18 0;
#X connect 12 0 10 0;
#X connect 13 0 18 0;
#X connect 13 0 10 0;
#X connect 14 0 17 0;
#X connect 15 0 16 0;
#X connect 16 0 2 0;
#X connect 16 1 4 0;
#X connect 17 0 15 0;
#X connect 18 0 17 1;
#X connect 19 0 12 0;
#X connect 19 1 13 0;
#X restore 385 166 pd ef_roll;
#X floatatom 164 -73 5 0 0 0 - - -;
#N canvas 1687 56 328 740 ef_invert 0;
#X obj 131 283 pix_invert;
#X obj 150 242 int;
#X obj 160 199 / 128;
#X obj 144 -8 inlet;
#X obj 62 330 outlet;
#X text 144 -25 gemin;
#X text 59 345 gemout;
#X obj 60 107 gate 2;
#X obj 59 8 r \$0-c36;
#X msg 44 58 2;
#X msg 85 58 1;
#X obj 204 -15 r \$0-fx1;
#X obj 202 124 spigot;
#X obj 201 156 list split 1;
#X obj 235 96 - 1;
#X obj 59 32 select 5;
#X connect 0 0 4 0;
#X connect 1 0 0 0;
#X connect 2 0 1 0;
#X connect 3 0 7 1;
#X connect 7 0 4 0;
#X connect 7 1 0 0;
#X connect 8 0 15 0;
#X connect 9 0 14 0;
#X connect 9 0 7 0;
#X connect 10 0 14 0;
#X connect 10 0 7 0;
#X connect 11 0 12 0;
#X connect 12 0 13 0;
#X connect 13 0 2 0;
#X connect 14 0 12 1;
#X connect 15 0 9 0;
#X connect 15 1 10 0;
#X restore 385 196 pd ef_invert;
#N canvas 72 187 336 512 ef_scanline 0;
#X obj 212 262 pix_scanline;
#X msg 212 236 mode \$1;
#X obj 213 166 / 128;
#X obj 214 202 int;
#X obj 152 -26 inlet;
#X obj 56 306 outlet;
#X text 152 -43 gemin;
#X text 53 321 gemout;
#X obj 60 107 gate 2;
#X obj 38 -24 r \$0-c36;
#X msg 38 29 2;
#X msg 83 30 1;
#X obj 219 -16 r \$0-fx1;
#X obj 215 58 spigot;
#X obj 214 90 list split 2;
#X obj 213 127 unpack f f;
#X obj 248 30 - 1;
#X obj 38 0 select 6;
#X connect 0 0 5 0;
#X connect 1 0 0 0;
#X connect 2 0 3 0;
#X connect 3 0 1 0;
#X connect 4 0 8 1;
#X connect 8 0 5 0;
#X connect 8 1 0 0;
#X connect 9 0 17 0;
#X connect 10 0 16 0;
#X connect 10 0 8 0;
#X connect 11 0 16 0;
#X connect 11 0 8 0;
#X connect 12 0 13 0;
#X connect 13 0 14 0;
#X connect 14 0 15 0;
#X connect 15 0 2 0;
#X connect 15 1 0 1;
#X connect 16 0 13 1;
#X connect 17 0 10 0;
#X connect 17 1 11 0;
#X restore 385 226 pd ef_scanline;
#N canvas 1504 436 529 427 ef_threshold 0;
#X obj 192 302 pix_threshold;
#X floatatom 282 200 5 0 0 0 - - -;
#X floatatom 317 201 5 0 0 0 - - -;
#X floatatom 352 202 5 0 0 0 - - -;
#X obj 280 222 pack 0 0 0;
#X obj 388 242 bng 15 250 50 0 empty empty empty 17 7 0 10 -262144
-1 -1;
#X msg 275 269 \$1 \$2 \$3;
#X msg 349 276 set \$1 \$2 \$3;
#X msg 345 317 0.498039 0.501961 0;
#X obj 202 173 / 128;
#X obj 201 213 int;
#X obj 287 170 / 255;
#X obj 323 170 / 255;
#X obj 359 169 / 255;
#X obj 60 -14 inlet;
#X obj 62 330 outlet;
#X text 60 -31 gemin;
#X text 59 345 gemout;
#X obj 60 107 gate 2;
#X obj 86 21 r \$0-c36;
#X msg 86 74 2;
#X msg 131 75 1;
#X obj 219 -16 r \$0-fx1;
#X obj 215 58 spigot;
#X obj 214 90 list split 4;
#X obj 213 127 unpack f f f f;
#X obj 248 30 - 1;
#X obj 86 45 select 7;
#X connect 0 0 15 0;
#X connect 1 0 4 0;
#X connect 2 0 4 1;
#X connect 2 0 5 0;
#X connect 3 0 4 2;
#X connect 3 0 5 0;
#X connect 4 0 6 0;
#X connect 4 0 7 0;
#X connect 5 0 4 0;
#X connect 6 0 0 2;
#X connect 7 0 8 0;
#X connect 9 0 10 0;
#X connect 10 0 0 1;
#X connect 11 0 1 0;
#X connect 12 0 2 0;
#X connect 13 0 3 0;
#X connect 14 0 18 1;
#X connect 18 0 15 0;
#X connect 18 1 0 0;
#X connect 19 0 27 0;
#X connect 20 0 26 0;
#X connect 20 0 18 0;
#X connect 21 0 26 0;
#X connect 21 0 18 0;
#X connect 22 0 23 0;
#X connect 23 0 24 0;
#X connect 24 0 25 0;
#X connect 25 0 9 0;
#X connect 25 1 11 0;
#X connect 25 2 12 0;
#X connect 25 3 13 0;
#X connect 26 0 23 1;
#X connect 27 0 20 0;
#X connect 27 1 21 0;
#X restore 385 256 pd ef_threshold;
#N canvas 1565 333 439 430 ef_metaimage 0;
#X obj 127 281 pix_metaimage;
#X obj 150 222 tgl 15 0 empty empty empty 0 -6 0 8 -262144 -1 -1 0
1;
#X msg 150 240 cheap \$1;
#X obj 214 222 tgl 15 0 empty empty empty 0 -6 0 8 -262144 -1 -1 0
1;
#X msg 214 240 distance \$1;
#X obj 146 161 / 128;
#X obj 146 194 int;
#X obj 219 159 / 128;
#X obj 219 192 int;
#X obj 60 -14 inlet;
#X obj 62 330 outlet;
#X text 60 -31 gemin;
#X text 59 345 gemout;
#X obj 60 107 gate 2;
#X obj 86 21 r \$0-c36;
#X msg 86 74 2;
#X msg 131 75 1;
#X obj 219 -16 r \$0-fx1;
#X obj 215 58 spigot;
#X obj 248 30 - 1;
#X obj 214 90 list split 3;
#X obj 213 127 unpack f f f;
#X obj 86 45 select 8;
#X obj 301 241 / 512;
#X connect 0 0 10 0;
#X connect 1 0 2 0;
#X connect 2 0 0 0;
#X connect 3 0 4 0;
#X connect 4 0 0 0;
#X connect 5 0 6 0;
#X connect 6 0 1 0;
#X connect 7 0 8 0;
#X connect 8 0 3 0;
#X connect 9 0 13 1;
#X connect 13 0 10 0;
#X connect 13 1 0 0;
#X connect 14 0 22 0;
#X connect 15 0 19 0;
#X connect 15 0 13 0;
#X connect 16 0 19 0;
#X connect 16 0 13 0;
#X connect 17 0 18 0;
#X connect 18 0 20 0;
#X connect 19 0 18 1;
#X connect 20 0 21 0;
#X connect 21 0 5 0;
#X connect 21 1 7 0;
#X connect 21 2 23 0;
#X connect 22 0 15 0;
#X connect 22 1 16 0;
#X connect 23 0 0 1;
#X restore 385 286 pd ef_metaimage;
#N canvas 1637 188 401 542 ef_refraction 0;
#X msg 267 366 refract \$1;
#X msg 302 290 mag \$1;
#X msg 149 283 width \$1;
#X msg 221 288 height \$1;
#X obj 112 405 pix_refraction;
#X obj 300 251 / 128;
#X obj 363 293 / 16;
#X obj 60 -14 inlet;
#X obj 77 452 outlet;
#X text 60 -31 gemin;
#X text 74 467 gemout;
#X obj 60 107 gate 2;
#X obj 13 21 r \$0-c36;
#X msg 13 74 2;
#X msg 58 75 1;
#X obj 219 -16 r \$0-fx1;
#X obj 215 58 spigot;
#X obj 214 90 list split 4;
#X obj 213 127 unpack f f f f;
#X obj 248 30 - 1;
#X obj 13 45 select 9;
#X connect 0 0 4 0;
#X connect 1 0 4 0;
#X connect 2 0 4 0;
#X connect 3 0 4 0;
#X connect 4 0 8 0;
#X connect 5 0 1 0;
#X connect 6 0 0 0;
#X connect 7 0 11 1;
#X connect 11 0 8 0;
#X connect 11 1 4 0;
#X connect 12 0 20 0;
#X connect 13 0 19 0;
#X connect 13 0 11 0;
#X connect 14 0 19 0;
#X connect 14 0 11 0;
#X connect 15 0 16 0;
#X connect 16 0 17 0;
#X connect 17 0 18 0;
#X connect 18 0 2 0;
#X connect 18 1 3 0;
#X connect 18 2 5 0;
#X connect 18 3 6 0;
#X connect 19 0 16 1;
#X connect 20 0 13 0;
#X connect 20 1 14 0;
#X restore 385 316 pd ef_refraction;
#N canvas 1642 174 416 566 ef_convolve 0;
#X obj 239 297 cnv 15 100 40 empty empty empty 20 12 0 14 -233017 -66577
0;
#X floatatom 255 296 3 -1 2 0 - - -;
#X floatatom 278 296 3 -1 2 0 - - -;
#X floatatom 301 296 3 -1 2 0 - - -;
#X floatatom 255 310 3 -1 2 0 - - -;
#X floatatom 278 310 3 -1 2 0 - - -;
#X floatatom 301 310 3 -1 2 0 - - -;
#X floatatom 255 324 3 -1 2 0 - - -;
#X floatatom 278 324 3 -1 2 0 - - -;
#X floatatom 301 324 3 -1 2 0 - - -;
#N canvas 0 0 450 469 pack 0;
#X obj 69 169 pack 0 0 0 0 0 0 0 0 0;
#X obj 69 139 t b f;
#X obj 106 139 t b f;
#X obj 143 139 t b f;
#X obj 180 139 t b f;
#X obj 217 139 t b f;
#X obj 254 139 t b f;
#X obj 291 139 t b f;
#X obj 328 139 t b f;
#X obj 32 111 inlet;
#X obj 69 111 inlet;
#X obj 106 111 inlet;
#X obj 143 111 inlet;
#X obj 180 111 inlet;
#X obj 217 111 inlet;
#X obj 254 111 inlet;
#X obj 291 111 inlet;
#X obj 328 111 inlet;
#X obj 61 349 outlet;
#X obj 274 355 outlet;
#X obj 71 190 t l l;
#X obj 257 232 unpack 0 0 0 0 0 0 0 0 0;
#X obj 399 256 +;
#X obj 358 256 +;
#X obj 318 256 +;
#X obj 277 256 +;
#X obj 379 286 +;
#X obj 298 286 +;
#X obj 349 316 +;
#X obj 268 316 +;
#X obj 58 294 select 0;
#X msg 48 323 1;
#X obj 132 391 /;
#X msg 132 365 1 \$1;
#X connect 0 0 20 0;
#X connect 1 0 0 0;
#X connect 1 1 0 1;
#X connect 2 0 0 0;
#X connect 2 1 0 2;
#X connect 3 0 0 0;
#X connect 3 1 0 3;
#X connect 4 0 0 0;
#X connect 4 1 0 4;
#X connect 5 0 0 0;
#X connect 5 1 0 5;
#X connect 6 0 0 0;
#X connect 6 1 0 6;
#X connect 7 0 0 0;
#X connect 7 1 0 7;
#X connect 8 0 0 0;
#X connect 8 1 0 8;
#X connect 9 0 0 0;
#X connect 10 0 1 0;
#X connect 11 0 2 0;
#X connect 12 0 3 0;
#X connect 13 0 4 0;
#X connect 14 0 5 0;
#X connect 15 0 6 0;
#X connect 16 0 7 0;
#X connect 17 0 8 0;
#X connect 20 0 21 0;
#X connect 20 1 19 0;
#X connect 21 0 29 0;
#X connect 21 1 25 0;
#X connect 21 2 25 1;
#X connect 21 3 24 0;
#X connect 21 4 24 1;
#X connect 21 5 23 0;
#X connect 21 6 23 1;
#X connect 21 7 22 0;
#X connect 21 8 22 1;
#X connect 22 0 26 1;
#X connect 23 0 26 0;
#X connect 24 0 27 1;
#X connect 25 0 27 0;
#X connect 26 0 28 1;
#X connect 27 0 28 0;
#X connect 28 0 29 1;
#X connect 29 0 30 0;
#X connect 30 0 31 0;
#X connect 30 1 33 0;
#X connect 31 0 18 0;
#X connect 32 0 18 0;
#X connect 33 0 32 0;
#X restore 237 358 pd pack 9 . . .;
#X obj 201 457 pix_convolve 3 3;
#N canvas 411 476 605 305 unpack 0;
#X obj 60 270 outlet;
#X obj 111 270 outlet;
#X obj 164 270 outlet;
#X obj 215 270 outlet;
#X obj 266 270 outlet;
#X obj 317 270 outlet;
#X obj 370 270 outlet;
#X obj 421 270 outlet;
#X obj 471 271 outlet;
#X obj 179 173 unpack 0 0 0 0 0 0 0 0 0;
#X obj 130 13 inlet;
#X obj 130 40 route edge1 edge2 smooth none;
#X msg 130 124 -1 -1 -1 -1 8 -1 -1 -1 -1;
#X msg 179 102 -1 -4 -1 -4 20 -4 -1 -4 -1;
#X msg 229 82 1 2 1 2 4 2 1 2 1;
#X msg 278 62 0 0 0 0 1 0 0 0 0;
#X connect 9 0 0 0;
#X connect 9 1 1 0;
#X connect 9 2 2 0;
#X connect 9 3 3 0;
#X connect 9 4 4 0;
#X connect 9 5 5 0;
#X connect 9 6 6 0;
#X connect 9 7 7 0;
#X connect 9 8 8 0;
#X connect 10 0 11 0;
#X connect 11 0 12 0;
#X connect 11 1 13 0;
#X connect 11 2 14 0;
#X connect 11 3 15 0;
#X connect 12 0 9 0;
#X connect 13 0 9 0;
#X connect 14 0 9 0;
#X connect 15 0 9 0;
#X restore 258 277 pd unpack 9 . . .;
#X msg 244 254 none;
#X msg 325 255 edge1;
#X msg 361 254 edge2;
#X msg 278 254 smooth;
#X obj 281 170 / 64;
#X obj 281 223 select 1 2 3 4;
#X obj 281 194 int;
#X obj 225 418 / 16;
#X obj 60 -14 inlet;
#X obj 63 443 outlet;
#X text 60 -31 gemin;
#X text 60 458 gemout;
#X obj 60 107 gate 2;
#X obj 86 21 r \$0-c36;
#X msg 86 74 2;
#X msg 131 75 1;
#X obj 219 -16 r \$0-fx1;
#X obj 215 58 spigot;
#X obj 248 30 - 1;
#X obj 213 127 unpack f f;
#X obj 214 90 list split 2;
#X obj 86 45 select 10;
#X connect 1 0 10 0;
#X connect 2 0 10 1;
#X connect 3 0 10 2;
#X connect 4 0 10 3;
#X connect 5 0 10 4;
#X connect 6 0 10 5;
#X connect 7 0 10 6;
#X connect 8 0 10 7;
#X connect 9 0 10 8;
#X connect 10 1 11 2;
#X connect 11 0 22 0;
#X connect 12 0 1 0;
#X connect 12 1 2 0;
#X connect 12 2 3 0;
#X connect 12 3 4 0;
#X connect 12 4 5 0;
#X connect 12 5 6 0;
#X connect 12 6 7 0;
#X connect 12 7 8 0;
#X connect 12 8 9 0;
#X connect 13 0 12 0;
#X connect 14 0 12 0;
#X connect 15 0 12 0;
#X connect 16 0 12 0;
#X connect 17 0 19 0;
#X connect 18 0 13 0;
#X connect 18 1 16 0;
#X connect 18 2 14 0;
#X connect 18 3 15 0;
#X connect 19 0 18 0;
#X connect 20 0 11 1;
#X connect 21 0 25 1;
#X connect 25 0 22 0;
#X connect 25 1 11 0;
#X connect 26 0 34 0;
#X connect 27 0 31 0;
#X connect 27 0 25 0;
#X connect 28 0 31 0;
#X connect 28 0 25 0;
#X connect 29 0 30 0;
#X connect 30 0 33 0;
#X connect 31 0 30 1;
#X connect 32 0 20 0;
#X connect 32 1 17 0;
#X connect 33 0 32 0;
#X connect 34 0 27 0;
#X connect 34 1 28 0;
#X restore 385 346 pd ef_convolve;
#N canvas 1655 186 387 528 ef_gain 0;
#X obj 154 287 pix_gain;
#X floatatom 238 211 5 0 0 0 - - -;
#X floatatom 273 212 5 0 0 0 - - -;
#X floatatom 308 213 5 0 0 0 - - -;
#X obj 236 233 pack 0 0 0;
#X obj 324 233 bng 15 250 50 0 empty empty empty 17 7 0 10 -262144
-1 -1;
#X msg 236 252 \$1 \$2 \$3;
#X obj 235 165 / 128;
#X obj 281 167 / 128;
#X obj 339 166 / 128;
#X obj 179 234 / 128;
#X obj 60 -14 inlet;
#X obj 62 330 outlet;
#X text 60 -31 gemin;
#X text 59 345 gemout;
#X obj 60 107 gate 2;
#X obj 86 21 r \$0-c36;
#X msg 86 74 2;
#X msg 131 75 1;
#X obj 219 -16 r \$0-fx1;
#X obj 215 58 spigot;
#X obj 214 90 list split 4;
#X obj 213 127 unpack f f f f;
#X obj 248 30 - 1;
#X obj 86 45 select 11;
#X connect 0 0 12 0;
#X connect 1 0 4 0;
#X connect 1 0 5 0;
#X connect 2 0 4 1;
#X connect 2 0 5 0;
#X connect 3 0 4 2;
#X connect 3 0 5 0;
#X connect 4 0 6 0;
#X connect 5 0 4 0;
#X connect 6 0 0 2;
#X connect 7 0 1 0;
#X connect 8 0 2 0;
#X connect 9 0 3 0;
#X connect 10 0 0 1;
#X connect 11 0 15 1;
#X connect 15 0 12 0;
#X connect 15 1 0 0;
#X connect 16 0 24 0;
#X connect 17 0 23 0;
#X connect 17 0 15 0;
#X connect 18 0 23 0;
#X connect 18 0 15 0;
#X connect 19 0 20 0;
#X connect 20 0 21 0;
#X connect 21 0 22 0;
#X connect 22 0 10 0;
#X connect 22 1 7 0;
#X connect 22 2 8 0;
#X connect 22 3 9 0;
#X connect 23 0 20 1;
#X connect 24 0 17 0;
#X connect 24 1 18 0;
#X restore 385 376 pd ef_gain;
#N canvas 1644 292 348 472 ef_lumaoffset 0;
#X obj 124 292 pix_lumaoffset;
#X msg 210 213 smooth \$1;
#X msg 148 212 fill \$1;
#X obj 60 -14 inlet;
#X obj 62 330 outlet;
#X text 60 -31 gemin;
#X text 59 345 gemout;
#X obj 60 107 gate 2;
#X obj 86 21 r \$0-c36;
#X msg 86 74 2;
#X msg 131 75 1;
#X obj 219 -16 r \$0-fx1;
#X obj 215 58 spigot;
#X obj 214 90 list split 4;
#X obj 213 127 unpack f f f f;
#X obj 248 30 - 1;
#X obj 86 45 select 12;
#X connect 0 0 4 0;
#X connect 1 0 0 0;
#X connect 2 0 0 0;
#X connect 3 0 7 1;
#X connect 7 0 4 0;
#X connect 7 1 0 0;
#X connect 8 0 16 0;
#X connect 9 0 15 0;
#X connect 9 0 7 0;
#X connect 10 0 15 0;
#X connect 10 0 7 0;
#X connect 11 0 12 0;
#X connect 12 0 13 0;
#X connect 13 0 14 0;
#X connect 14 0 2 0;
#X connect 14 1 1 0;
#X connect 14 2 0 2;
#X connect 14 3 0 1;
#X connect 15 0 12 1;
#X connect 16 0 9 0;
#X connect 16 1 10 0;
#X restore 385 406 pd ef_lumaoffset;
#N canvas 1351 487 567 502 ef_tIIR 0;
#X floatatom 152 296 3 0 1 2 fb0 - -;
#X floatatom 179 341 3 0 1 2 fb1 - -;
#X floatatom 205 341 3 0 1 2 fb2 - -;
#X floatatom 242 341 3 0 1 2 ff0 - -;
#X obj 139 361 pix_tIIR 2 1;
#X floatatom 269 341 3 0 1 2 ff1 - -;
#N canvas 4 107 450 300 init 0;
#X msg 175 214 0.3;
#X msg 247 215 0.6;
#X msg 277 215 0.4;
#X obj 104 258 outlet;
#X obj 154 258 outlet;
#X obj 204 258 outlet;
#X obj 254 258 outlet;
#X obj 304 258 outlet;
#X msg 104 214 0.2;
#X msg 140 215 0.5;
#X obj 238 127 inlet;
#X connect 0 0 5 0;
#X connect 1 0 6 0;
#X connect 2 0 7 0;
#X connect 8 0 3 0;
#X connect 9 0 4 0;
#X connect 10 0 8 0;
#X connect 10 0 9 0;
#X connect 10 0 0 0;
#X connect 10 0 1 0;
#X connect 10 0 2 0;
#X restore 442 284 pd init;
#X obj 441 252 loadbang;
#X obj 151 219 * 0.00392157;
#X obj 230 219 * 0.00392157;
#X obj 312 219 * 0.00392157;
#X obj 390 219 * 0.00392157;
#X obj 477 218 * 0.00392157;
#X obj 60 -14 inlet;
#X obj 62 330 outlet;
#X text 60 -31 gemin;
#X text 59 345 gemout;
#X obj 60 107 gate 2;
#X obj 86 21 r \$0-c36;
#X msg 66 75 2;
#X msg 131 75 1;
#X obj 219 -16 r \$0-fx1;
#X obj 215 58 spigot;
#X obj 248 30 - 1;
#X obj 214 90 list split 5;
#X obj 214 141 unpack f f f f f;
#X obj 86 45 select 13;
#X connect 0 0 4 1;
#X connect 1 0 4 2;
#X connect 2 0 4 3;
#X connect 3 0 4 4;
#X connect 4 0 14 0;
#X connect 5 0 4 5;
#X connect 6 0 0 0;
#X connect 6 1 1 0;
#X connect 6 2 2 0;
#X connect 6 3 3 0;
#X connect 6 4 5 0;
#X connect 7 0 6 0;
#X connect 8 0 0 0;
#X connect 9 0 1 0;
#X connect 10 0 2 0;
#X connect 11 0 3 0;
#X connect 12 0 5 0;
#X connect 13 0 17 1;
#X connect 17 0 14 0;
#X connect 17 1 4 0;
#X connect 18 0 26 0;
#X connect 19 0 23 0;
#X connect 19 0 17 0;
#X connect 20 0 23 0;
#X connect 20 0 17 0;
#X connect 21 0 22 0;
#X connect 22 0 24 0;
#X connect 23 0 22 1;
#X connect 24 0 25 0;
#X connect 25 0 8 0;
#X connect 25 1 9 0;
#X connect 25 2 10 0;
#X connect 25 3 11 0;
#X connect 25 4 12 0;
#X connect 26 0 19 0;
#X connect 26 1 20 0;
#X restore 385 436 pd ef_tIIR;
#N canvas 1651 248 339 425 ef_rtx 0;
#X obj 190 235 pix_rtx;
#X msg 207 208 mode \$1;
#X obj 207 128 / 128;
#X obj 204 161 int;
#X obj 161 -10 inlet;
#X obj 62 330 outlet;
#X text 161 -27 gemin;
#X text 59 345 gemout;
#X obj 60 107 gate 2;
#X obj 49 -5 r \$0-c36;
#X msg 49 48 2;
#X msg 94 49 1;
#X obj 219 -16 r \$0-fx1;
#X obj 215 58 spigot;
#X obj 248 30 - 1;
#X obj 214 90 list split 1;
#X obj 49 19 select 14;
#X connect 0 0 5 0;
#X connect 1 0 0 0;
#X connect 2 0 3 0;
#X connect 3 0 1 0;
#X connect 4 0 8 1;
#X connect 8 0 5 0;
#X connect 8 1 0 0;
#X connect 9 0 16 0;
#X connect 10 0 8 0;
#X connect 10 0 14 0;
#X connect 11 0 14 0;
#X connect 11 0 8 0;
#X connect 12 0 13 0;
#X connect 13 0 15 0;
#X connect 14 0 13 1;
#X connect 15 0 2 0;
#X connect 16 0 10 0;
#X connect 16 1 11 0;
#X restore 385 466 pd ef_rtx;
#N canvas 1793 84 194 411 ef_normalize 0;
#X obj 98 224 pix_normalize;
#X obj 122 1 inlet;
#X obj 62 330 outlet;
#X text 122 -16 gemin;
#X text 59 345 gemout;
#X obj 60 107 gate 2;
#X obj 24 24 r \$0-c36;
#X msg 24 77 2;
#X msg 69 78 1;
#X obj 24 48 select 15;
#X connect 0 0 2 0;
#X connect 1 0 5 1;
#X connect 5 0 2 0;
#X connect 5 1 0 0;
#X connect 6 0 9 0;
#X connect 7 0 5 0;
#X connect 8 0 5 0;
#X connect 9 0 7 0;
#X connect 9 1 8 0;
#X restore 385 496 pd ef_normalize;
#N canvas 142 257 615 435 ef_kaleidoskope 0;
#X obj 130 264 pix_kaleidoscope;
#X obj 371 178 pack;
#X obj 425 178 t b f;
#X obj 219 190 pack;
#X obj 284 170 t b f;
#X obj 119 165 / 8;
#X obj 154 164 - 128;
#X obj 155 198 * 1.5;
#X obj 219 170 / 255;
#X obj 282 150 / 255;
#X obj 330 158 - 128;
#X obj 331 192 * 1.5;
#X obj 370 158 / 255;
#X obj 423 157 / 255;
#X obj 489 161 / 2.55;
#X obj 540 162 r \$0-c49;
#X obj 535 204 / 2.55;
#X obj 126 -12 inlet;
#X obj 62 330 outlet;
#X text 126 -29 gemin;
#X text 59 345 gemout;
#X obj 60 107 gate 2;
#X obj 32 -17 r \$0-c36;
#X msg 32 36 2;
#X msg 86 34 1;
#X obj 219 -16 r \$0-fx1;
#X obj 215 94 spigot;
#X obj 248 66 - 1;
#X obj 215 124 unpack f f f f f f f f;
#X obj 32 7 select 16;
#X connect 0 0 18 0;
#X connect 1 0 0 5;
#X connect 2 0 1 0;
#X connect 2 1 1 1;
#X connect 3 0 0 3;
#X connect 4 0 3 0;
#X connect 4 1 3 1;
#X connect 5 0 0 1;
#X connect 6 0 7 0;
#X connect 7 0 0 2;
#X connect 8 0 3 0;
#X connect 9 0 4 0;
#X connect 10 0 11 0;
#X connect 11 0 0 4;
#X connect 12 0 1 0;
#X connect 13 0 2 0;
#X connect 14 0 0 6;
#X connect 15 0 16 0;
#X connect 16 0 0 7;
#X connect 17 0 21 1;
#X connect 21 0 18 0;
#X connect 21 1 0 0;
#X connect 22 0 29 0;
#X connect 23 0 27 0;
#X connect 23 0 21 0;
#X connect 24 0 27 0;
#X connect 24 0 21 0;
#X connect 25 0 26 0;
#X connect 26 0 28 0;
#X connect 27 0 26 1;
#X connect 28 0 5 0;
#X connect 28 1 6 0;
#X connect 28 2 8 0;
#X connect 28 3 9 0;
#X connect 28 4 10 0;
#X connect 28 5 12 0;
#X connect 28 6 13 0;
#X connect 28 7 14 0;
#X connect 29 0 23 0;
#X connect 29 1 24 0;
#X restore 385 526 pd ef_kaleidoskope;
#X obj 215 -73 r \$0-c36;
#X obj 164 -51 loadbang;
#X msg 214 7 1;
#X obj 215 -23 select 0;
#X obj 251 36 gate 2;
#X msg 256 5 2;
#N canvas 836 175 433 592 ef_bitmask 0;
#X obj 120 202 pix_bitmask;
#X msg 242 163 \$1 \$2 \$3;
#X obj 93 -5 inlet;
#X obj 62 330 outlet;
#X text 93 -22 gemin;
#X text 59 345 gemout;
#X obj 60 107 gate 2;
#X obj -5 -16 r \$0-c36;
#X msg -5 37 2;
#X msg 40 38 1;
#X obj 219 -16 r \$0-fx1;
#X obj 215 58 spigot;
#X obj 214 90 list split 4;
#X obj 213 125 list split 1;
#X obj 248 30 - 1;
#X floatatom 452 33 5 0 0 0 - - -;
#X obj -5 8 select 1;
#X connect 0 0 3 0;
#X connect 1 0 0 2;
#X connect 2 0 6 1;
#X connect 6 0 3 0;
#X connect 6 1 0 0;
#X connect 7 0 16 0;
#X connect 8 0 14 0;
#X connect 8 0 6 0;
#X connect 9 0 14 0;
#X connect 9 0 6 0;
#X connect 10 0 11 0;
#X connect 10 0 15 0;
#X connect 11 0 12 0;
#X connect 12 0 13 0;
#X connect 13 0 0 1;
#X connect 13 1 1 0;
#X connect 14 0 11 1;
#X connect 16 0 8 0;
#X connect 16 1 9 0;
#X coords 0 0 1 1 85 60 0;
#X restore 385 76 pd ef_bitmask;
#X connect 0 0 61 1;
#X connect 41 0 42 0;
#X connect 42 0 43 0;
#X connect 43 0 45 0;
#X connect 45 0 46 0;
#X connect 46 0 47 0;
#X connect 47 0 48 0;
#X connect 48 0 49 0;
#X connect 49 0 50 0;
#X connect 50 0 51 0;
#X connect 51 0 52 0;
#X connect 52 0 53 0;
#X connect 53 0 54 0;
#X connect 54 0 55 0;
#X connect 55 0 56 0;
#X connect 56 0 1 0;
#X connect 57 0 44 0;
#X connect 57 0 60 0;
#X connect 58 0 59 0;
#X connect 59 0 61 0;
#X connect 60 0 59 0;
#X connect 60 1 62 0;
#X connect 61 0 1 0;
#X connect 61 1 63 0;
#X connect 62 0 61 0;
#X connect 63 0 41 0;
#X restore 231 870 pd fx;
#X obj 508 265 pack f f f;
#X obj 508 190 t b;
#X obj 508 224 delay 10;
#X obj 703 270 pack f f f;
#X obj 711 197 t b;
#X obj 711 232 delay 10;
#X obj 247 338 r \$0-c2;
#X obj 338 338 r \$0-c3;
#X obj 414 337 r \$0-c4;
#X obj 509 334 r \$0-c1;
#X obj 254 597 r \$0-c18;
#X obj 351 597 r \$0-c19;
#X obj 371 693 r \$0-c15;
#X obj 452 690 r \$0-c16;
#X obj 414 829 r \$0-c32;
#X obj 505 829 r \$0-c33;
#X obj 649 776 r \$0-c34;
#X obj 711 776 r \$0-c35;
#X obj 247 378 * 0.0078125;
#X obj 338 380 * 0.0078125;
#X obj 414 381 * 0.0078125;
#X obj 254 655 * 0.000244141;
#X obj 351 664 * 0.000244141;
#X obj 411 922 * 0.0625;
#X obj 503 921 * 0.0625;
#X obj 648 852 * 0.0625;
#X obj 710 852 * 0.0625;
#X obj 927 851 * 0.0625;
#X obj 1053 861 * 0.0625;
#X obj 1116 861 * 0.0625;
#X obj 509 379 * 0.00392157;
#X obj 458 153 * 0.00392157;
#X obj 543 153 * 0.00392157;
#X obj 621 154 * 0.00392157;
#X obj 705 150 * 0.00392157;
#X obj 789 151 * 0.00392157;
#X obj 862 151 * 0.00392157;
#X obj 450 663 - 8;
#X obj 371 719 * 0.0078125;
#X obj 451 718 * 0.0078125;
#X obj 231 429 colorRGB 1 1 1;
#X obj 450 580 r \$0-c17;
#X obj 450 608 - 128;
#X obj 450 636 * 0.125;
#X obj 459 123 r \$0-c22;
#X obj 544 122 r \$0-c23;
#X obj 619 121 r \$0-c24;
#X obj 708 117 r \$0-c25;
#X obj 788 118 r \$0-c26;
#X obj 1056 765 r \$0-c28;
#X obj 1118 765 r \$0-c29;
#X obj 866 723 r \$0-c30;
#X obj 933 726 r \$0-c31;
#X obj 387 795 pack f f 1;
#X obj 231 835 scale XYZ;
#X obj 858 121 r \$0-c27;
#X obj 230 1080 curve3d;
#X obj 484 770 delay 10;
#X obj 931 804 - 127;
#X obj 710 815 - 127;
#X obj 648 815 - 127;
#X obj 504 888 - 127;
#X obj 413 888 - 127;
#X obj 1055 824 - 127;
#X obj 1117 824 - 127;
#X obj 866 799 - 127;
#X obj 862 851 * 0.0625;
#X floatatom 875 827 5 0 0 0 - - -;
#X obj 758 596 bng 15 250 50 0 empty empty empty 17 7 0 10 -262144
-1 -1;
#X obj 78 937 t b;
#X obj 78 983 spigot;
#X obj 143 867 loadbang;
#X msg 142 901 1;
#X msg 167 998 0;
#X obj 301 63 r \$0-c46;
#X obj 756 656 delay 10;
#X obj 231 537 rotateXYZ;
#X obj 325 503 - 128;
#X obj 385 507 - 128;
#X obj 444 507 - 128;
#X obj 325 467 r \$0-c12;
#X obj 385 465 r \$0-c13;
#X obj 444 467 r \$0-c14;
#X obj 230 1185 outlet;
#X obj 167 971 delay 10;
#X connect 0 0 8 0;
#X connect 4 0 83 1;
#X connect 5 0 4 0;
#X connect 6 0 83 0;
#X connect 7 0 86 0;
#X connect 8 0 9 0;
#X connect 9 0 69 0;
#X connect 9 0 105 0;
#X connect 10 0 51 0;
#X connect 11 0 50 0;
#X connect 12 0 9 2;
#X connect 13 0 9 1;
#X connect 14 0 13 0;
#X connect 14 0 12 0;
#X connect 15 0 85 0;
#X connect 16 0 85 0;
#X connect 17 0 85 0;
#X connect 18 0 98 0;
#X connect 18 0 85 0;
#X connect 19 0 27 0;
#X connect 20 0 24 0;
#X connect 21 0 25 0;
#X connect 22 0 85 0;
#X connect 23 0 26 0;
#X connect 24 0 15 0;
#X connect 25 0 17 0;
#X connect 26 0 22 0;
#X connect 27 0 16 0;
#X connect 28 0 18 0;
#X connect 29 0 9 3;
#X connect 30 0 31 0;
#X connect 31 0 29 0;
#X connect 32 0 9 4;
#X connect 33 0 34 0;
#X connect 34 0 32 0;
#X connect 35 0 47 0;
#X connect 36 0 48 0;
#X connect 37 0 49 0;
#X connect 38 0 59 0;
#X connect 39 0 11 0;
#X connect 40 0 10 0;
#X connect 41 0 67 0;
#X connect 42 0 68 0;
#X connect 43 0 91 0;
#X connect 44 0 90 0;
#X connect 45 0 89 0;
#X connect 46 0 88 0;
#X connect 47 0 69 1;
#X connect 48 0 69 2;
#X connect 49 0 69 3;
#X connect 50 0 6 1;
#X connect 51 0 6 2;
#X connect 52 0 27 0;
#X connect 53 0 19 0;
#X connect 53 0 27 1;
#X connect 54 0 24 0;
#X connect 55 0 20 0;
#X connect 55 0 24 1;
#X connect 56 0 21 0;
#X connect 56 0 25 1;
#X connect 57 0 26 0;
#X connect 58 0 23 0;
#X connect 58 0 26 1;
#X connect 59 0 69 4;
#X connect 60 0 29 0;
#X connect 61 0 30 0;
#X connect 61 0 29 1;
#X connect 62 0 30 0;
#X connect 62 0 29 2;
#X connect 63 0 32 0;
#X connect 64 0 33 0;
#X connect 64 0 32 1;
#X connect 65 0 33 0;
#X connect 65 0 32 2;
#X connect 66 0 6 3;
#X connect 67 0 82 0;
#X connect 68 0 82 1;
#X connect 68 0 7 0;
#X connect 70 0 71 0;
#X connect 71 0 72 0;
#X connect 72 0 66 0;
#X connect 73 0 60 0;
#X connect 74 0 61 0;
#X connect 75 0 62 0;
#X connect 76 0 63 0;
#X connect 77 0 64 0;
#X connect 78 0 92 0;
#X connect 79 0 93 0;
#X connect 80 0 94 0;
#X connect 81 0 87 0;
#X connect 82 0 83 2;
#X connect 83 0 28 0;
#X connect 84 0 65 0;
#X connect 85 0 112 0;
#X connect 86 0 82 0;
#X connect 87 0 56 0;
#X connect 88 0 55 0;
#X connect 89 0 54 0;
#X connect 90 0 53 0;
#X connect 91 0 52 0;
#X connect 92 0 57 0;
#X connect 93 0 58 0;
#X connect 94 0 95 0;
#X connect 94 0 96 0;
#X connect 95 0 25 0;
#X connect 97 0 94 0;
#X connect 97 0 92 0;
#X connect 97 0 93 0;
#X connect 97 0 87 0;
#X connect 97 0 88 0;
#X connect 97 0 89 0;
#X connect 97 0 90 0;
#X connect 97 0 91 0;
#X connect 97 0 104 0;
#X connect 98 0 99 0;
#X connect 99 0 97 0;
#X connect 99 0 113 0;
#X connect 100 0 101 0;
#X connect 101 0 99 1;
#X connect 102 0 99 1;
#X connect 103 0 8 1;
#X connect 104 0 26 0;
#X connect 104 0 25 0;
#X connect 104 0 24 0;
#X connect 104 0 27 0;
#X connect 105 0 6 0;
#X connect 106 0 105 1;
#X connect 107 0 105 2;
#X connect 108 0 105 3;
#X connect 109 0 106 0;
#X connect 110 0 107 0;
#X connect 111 0 108 0;
#X connect 113 0 102 0;
#X restore 591 15 pd video_render;
#N canvas 363 88 951 665 texto 0;
#X obj 421 -381 gemhead;
#X msg 252 -31 font \$1;
#X obj 421 -307 rotateXYZ;
#X obj 421 57 text3d;
#X obj 421 -352 alpha;
#X obj 421 -204 colorRGB;
#X obj 421 -31 translateXYZ;
#X obj 252 -484 inlet;
#X obj 252 -385 spigot;
#X obj 420 -514 inlet;
#X msg 466 -434 0;
#X msg 420 -438 1;
#X obj 420 -476 select 3;
#X text 851 -478 Texto c6;
#X text 942 -478 c12;
#X text 981 -478 c13;
#X text 1025 -478 c14;
#X text 1099 -478 Red c2;
#X text 1143 -478 Green c3;
#X text 1196 -478 Blue c4;
#X text 1243 -478 Alpha c1;
#X text 1322 -475 c18;
#X text 1384 -475 c19;
#X text 754 -148 Size c15;
#X obj 853 -454 r \$0-c6;
#X obj 925 -454 r \$0-c12;
#X obj 984 -454 r \$0-c13;
#X obj 1044 -453 r \$0-c14;
#X obj 1099 -454 r \$0-c2;
#X obj 1149 -454 r \$0-c3;
#X obj 1204 -454 r \$0-c4;
#X obj 1255 -454 r \$0-c1;
#X obj 1376 -454 r \$0-c19;
#X obj 756 -128 r \$0-c15;
#X obj 1317 -454 r \$0-c18;
#X obj 479 -115 - 32768;
#X obj 573 -116 - 32768;
#X obj 490 -335 - 128;
#X obj 543 -335 - 128;
#X obj 596 -335 - 128;
#X obj 856 -3 prepend text;
#X obj 479 -78 * 0.000244141;
#X obj 573 -78 * 0.000244141;
#X obj 455 -275 * 0.0078125;
#X obj 536 -275 * 0.0078125;
#X obj 626 -275 * 0.0078125;
#X obj 708 -275 * 0.00392157;
#X obj 788 -63 t b;
#X obj 755 -104 * 0.0078125;
#X obj 842 -105 * 0.0078125;
#X msg 504 -6 1;
#X obj 504 -31 loadbang;
#X obj 842 -130 r \$0-c16;
#X msg 932 -70 read text.txt;
#X obj 421 22 scale XY;
#X obj 1440 -454 r \$0-c17;
#X obj 659 -115 - 128;
#X obj 659 -78 * 0.125;
#X obj 776 -29 pack f f 1;
#X obj 932 -112 loadbang;
#X obj 856 -29 coll;
#C restore;
#X connect 0 0 4 0;
#X connect 1 0 3 0;
#X connect 2 0 5 0;
#X connect 4 0 2 0;
#X connect 5 0 6 0;
#X connect 6 0 54 0;
#X connect 7 0 8 0;
#X connect 8 0 1 0;
#X connect 9 0 12 0;
#X connect 10 0 0 0;
#X connect 10 0 8 1;
#X connect 11 0 0 0;
#X connect 11 0 8 1;
#X connect 12 0 11 0;
#X connect 12 1 10 0;
#X connect 24 0 60 0;
#X connect 25 0 37 0;
#X connect 26 0 38 0;
#X connect 27 0 39 0;
#X connect 28 0 43 0;
#X connect 29 0 44 0;
#X connect 30 0 45 0;
#X connect 31 0 46 0;
#X connect 32 0 36 0;
#X connect 33 0 48 0;
#X connect 34 0 35 0;
#X connect 35 0 41 0;
#X connect 36 0 42 0;
#X connect 37 0 2 1;
#X connect 38 0 2 2;
#X connect 39 0 2 3;
#X connect 40 0 3 0;
#X connect 41 0 6 1;
#X connect 42 0 6 2;
#X connect 43 0 5 1;
#X connect 44 0 5 2;
#X connect 45 0 5 3;
#X connect 46 0 5 4;
#X connect 47 0 58 0;
#X connect 48 0 58 0;
#X connect 49 0 47 0;
#X connect 49 0 58 1;
#X connect 50 0 54 1;
#X connect 51 0 50 0;
#X connect 52 0 49 0;
#X connect 53 0 60 0;
#X connect 54 0 3 0;
#X connect 55 0 56 0;
#X connect 56 0 57 0;
#X connect 57 0 6 3;
#X connect 58 0 54 2;
#X connect 59 0 53 0;
#X connect 60 0 40 0;
#X restore 742 -17 pd texto;
#X obj 450 430 t b;
#X obj 397 429 t b;
#X obj 1184 135 list split 8;
#X obj 1185 174 s \$0-fx1;
#X obj 646 292 s \$0-c22;
#X obj 698 293 s \$0-c23;
#X obj 1029 80 list split 5;
#X obj 1029 132 unpack f f f f f;
#X obj 423 -41 outlet;
#X obj 1267 213 unpack f f f f;
#X obj 1269 269 s \$0-c46;
#X obj 1283 174 list split 4;
#X text 18 -152 (c) 2012 Santiago Noreña puremediaserver@gmail.com
GPL License;
#X obj 592 45 outlet;
#X obj 847 -154 inlet;
#X obj 574 -56 spigot;
#X obj 692 -60 spigot;
#X obj 792 -58 spigot;
#X obj 854 -88 select 0;
#X obj 903 -26 bng 15 250 50 0 empty empty empty 17 7 0 10 -262144
-1 -1;
#X floatatom 922 -110 5 0 0 0 - - -;
#X floatatom 736 23 5 0 0 0 - - -;
#X msg 852 -50 0;
#X obj 692 -114 float;
#X floatatom 716 -146 5 0 0 0 - - -;
#X floatatom 705 -85 5 0 0 0 - - -;
#X obj 656 -120 bng 15 250 50 0 empty empty empty 17 7 0 10 -262144
-1 -1;
#X obj 931 -48 bng 15 250 50 0 empty empty empty 17 7 0 10 -262144
-1 -1;
#X obj 655 -39 bng 15 250 50 0 empty empty empty 17 7 0 10 -262144
-1 -1;
#X obj 897 -63 b;
#X obj 16 269 change 2;
#X obj 64 269 change 2;
#X text 770 407 comment;
#X obj 637 352 change 2;
#X obj 692 352 change 2;
#X obj 744 355 change 2;
#X obj 803 337 change 2;
#X obj 839 208 change 2;
#X obj 897 210 change 2;
#X obj 970 213 change 2;
#X obj 1025 213 change 2;
#X obj 1083 212 change 2;
#X obj 1139 213 change 2;
#X obj 1197 214 change 2;
#X connect 0 0 99 0;
#X connect 0 1 100 0;
#X connect 0 2 19 0;
#X connect 0 3 20 0;
#X connect 0 4 21 0;
#X connect 0 5 22 0;
#X connect 0 6 23 0;
#X connect 0 7 24 0;
#X connect 0 8 1 0;
#X connect 0 9 2 0;
#X connect 0 10 3 0;
#X connect 0 11 4 0;
#X connect 0 12 5 0;
#X connect 0 13 6 0;
#X connect 0 14 7 0;
#X connect 0 15 8 0;
#X connect 0 16 9 0;
#X connect 0 17 10 0;
#X connect 0 18 11 0;
#X connect 0 19 12 0;
#X connect 0 20 13 0;
#X connect 0 21 14 0;
#X connect 0 22 15 0;
#X connect 0 23 16 0;
#X connect 0 24 17 0;
#X connect 0 25 18 0;
#X connect 0 26 102 0;
#X connect 0 27 103 0;
#X connect 0 28 104 0;
#X connect 0 29 105 0;
#X connect 0 30 106 0;
#X connect 0 31 107 0;
#X connect 1 0 39 0;
#X connect 2 0 40 0;
#X connect 3 0 41 0;
#X connect 4 0 42 0;
#X connect 5 0 43 0;
#X connect 6 0 44 0;
#X connect 7 0 45 0;
#X connect 8 0 46 0;
#X connect 9 0 47 0;
#X connect 10 0 26 0;
#X connect 11 0 28 0;
#X connect 12 0 70 0;
#X connect 12 0 27 1;
#X connect 13 0 69 0;
#X connect 13 0 29 1;
#X connect 14 0 73 0;
#X connect 15 0 74 0;
#X connect 16 0 62 0;
#X connect 17 0 63 0;
#X connect 18 0 50 0;
#X connect 19 0 33 0;
#X connect 20 0 34 0;
#X connect 21 0 35 0;
#X connect 22 0 36 0;
#X connect 23 0 37 0;
#X connect 24 0 38 0;
#X connect 25 0 0 0;
#X connect 25 1 75 0;
#X connect 26 0 27 0;
#X connect 27 0 48 0;
#X connect 28 0 29 0;
#X connect 29 0 49 0;
#X connect 30 0 25 0;
#X connect 64 0 68 0;
#X connect 64 0 65 0;
#X connect 64 0 66 0;
#X connect 64 0 77 0;
#X connect 64 1 92 0;
#X connect 64 1 93 0;
#X connect 65 0 67 0;
#X connect 66 0 67 0;
#X connect 67 0 82 0;
#X connect 69 0 29 0;
#X connect 70 0 27 0;
#X connect 71 0 72 0;
#X connect 71 1 80 0;
#X connect 75 0 76 0;
#X connect 75 1 71 0;
#X connect 76 0 108 0;
#X connect 76 1 109 0;
#X connect 76 2 110 0;
#X connect 76 3 111 0;
#X connect 76 4 112 0;
#X connect 78 0 79 0;
#X connect 80 0 78 0;
#X connect 83 0 86 1;
#X connect 83 0 85 1;
#X connect 83 0 84 1;
#X connect 83 0 87 0;
#X connect 83 0 89 0;
#X connect 84 0 65 1;
#X connect 85 0 66 1;
#X connect 85 0 90 0;
#X connect 85 0 97 0;
#X connect 86 0 68 1;
#X connect 87 0 88 0;
#X connect 87 0 91 0;
#X connect 87 1 96 0;
#X connect 87 1 98 0;
#X connect 91 0 68 1;
#X connect 91 0 66 1;
#X connect 91 0 65 1;
#X connect 91 0 90 0;
#X connect 92 0 84 0;
#X connect 92 0 85 0;
#X connect 92 0 86 0;
#X connect 92 0 94 0;
#X connect 95 0 92 0;
#X connect 98 0 92 0;
#X connect 99 0 31 0;
#X connect 100 0 32 0;
#X connect 102 0 51 0;
#X connect 103 0 52 0;
#X connect 104 0 53 0;
#X connect 105 0 54 0;
#X connect 106 0 55 0;
#X connect 107 0 56 0;
#X connect 108 0 57 0;
#X connect 109 0 58 0;
#X connect 110 0 59 0;
#X connect 111 0 60 0;
#X connect 112 0 61 0;
#X coords 0 604 1 603 50 30 0;
