#N canvas 1719 241 581 511 10;
#X obj 338 -313 tgl 50 1 render_status_send render_status_receive Render
-20 -15 0 25 -260097 -1 -260097 0 1;
#X text 83 -365 A render ON;
#X text 83 -346 S render OFF;
#X text 83 -308 C create Window;
#X text 83 -289 F Fullscreen;
#X text 83 -270 R Reset graphics;
#N canvas 72 75 951 617 interface 0;
#X msg 2122 -164 color 0 0 0;
#X msg 962 -164 create;
#X msg 2306 -165 destroy;
#X msg 1730 -162 reset;
#X msg 1852 -164 print;
#X msg 1412 -147 border \$1;
#X msg 1210 -145 fullscreen \$1;
#X msg 1558 -164 topmost \$1;
#X floatatom 1306 -361 5 0 0 0 - - -;
#X msg 626 -51 1;
#X obj 2275 -226 select 27;
#X msg 468 -51 0;
#X text 2342 -232 Escape;
#X msg 1210 -190 1;
#X msg 1880 -58 cursor 0;
#X floatatom 2072 -342 5 0 0 0 - - -;
#X obj 2392 -228 select 9;
#X obj 626 -162 select 38;
#X text 1086 30 A para renderizar Escape destruye la ventana de video
S para la renderizacion C para crear la pantalla f pantalla completa
R resetea propiedades graficas;
#X obj 468 -162 select 39;
#X obj 1524 -361 loadbang;
#X obj 554 7 s render_status_receive;
#X obj 1022 -51 r render_status_send;
#X obj 626 -207 select 65;
#X text 656 -189 A;
#X obj 468 -207 select 83;
#X text 500 -208 S;
#X obj 800 -207 select 67;
#X text 830 -165 C;
#X msg 1964 -164 title PMS;
#X obj 1730 -207 select 82;
#X obj 1210 -235 select 70;
#X obj 1866 -361 gemkeyboard;
#X floatatom 2409 -75 5 0 0 0 - - -;
#X floatatom 2457 -75 5 0 0 0 - - -;
#X msg 2508 -129 0;
#X floatatom 2408 -30 5 0 0 0 - - -;
#X floatatom 2458 -30 5 0 0 0 - - -;
#X obj 2222 -14 pack f f;
#X msg 2222 31 offset \$1 \$2;
#X obj 2436 53 pack f f;
#X obj 2222 -77 t b;
#X obj 2555 10 t b;
#X text 2406 -99 Window position;
#X text 2417 -53 Window Size;
#X msg 2436 98 dimen \$1 \$2;
#X msg 1962 -51 offset 300 300;
#X msg 1962 -6 dimen 300 300;
#X obj 1808 126 print WINDOW;
#X obj 1934 -207 delay 50;
#X obj 1190 -361 key;
#X obj 797 -90 t b;
#X obj 797 -37 s init;
#X msg 1412 -235 0;
#X obj 1560 -13 gemwin 60;
#X msg 2585 -71 320;
#X msg 2713 -54 200;
#X msg 2408 -129 1280;
#X connect 0 0 54 0;
#X connect 1 0 48 0;
#X connect 1 0 54 0;
#X connect 2 0 48 0;
#X connect 2 0 54 0;
#X connect 3 0 48 0;
#X connect 3 0 54 0;
#X connect 4 0 54 0;
#X connect 5 0 54 0;
#X connect 6 0 48 0;
#X connect 6 0 54 0;
#X connect 7 0 54 0;
#X connect 9 0 21 0;
#X connect 10 0 2 0;
#X connect 11 0 21 0;
#X connect 13 0 6 0;
#X connect 14 0 54 0;
#X connect 16 0 2 0;
#X connect 17 0 9 0;
#X connect 19 0 11 0;
#X connect 20 0 11 0;
#X connect 20 0 0 0;
#X connect 20 0 29 0;
#X connect 20 0 35 0;
#X connect 20 0 53 0;
#X connect 20 0 56 0;
#X connect 20 0 14 0;
#X connect 22 0 54 0;
#X connect 23 0 9 0;
#X connect 25 0 11 0;
#X connect 27 0 1 0;
#X connect 27 0 9 0;
#X connect 27 0 51 0;
#X connect 29 0 54 0;
#X connect 30 0 3 0;
#X connect 30 0 49 0;
#X connect 31 0 13 0;
#X connect 32 0 15 0;
#X connect 32 0 16 0;
#X connect 32 0 17 0;
#X connect 32 0 19 0;
#X connect 33 0 38 0;
#X connect 34 0 38 1;
#X connect 34 0 41 0;
#X connect 35 0 34 0;
#X connect 35 0 57 0;
#X connect 36 0 40 0;
#X connect 37 0 40 1;
#X connect 37 0 42 0;
#X connect 38 0 39 0;
#X connect 39 0 48 0;
#X connect 39 0 54 0;
#X connect 40 0 45 0;
#X connect 41 0 38 0;
#X connect 42 0 40 0;
#X connect 45 0 48 0;
#X connect 45 0 54 0;
#X connect 46 0 54 0;
#X connect 47 0 54 0;
#X connect 49 0 29 0;
#X connect 50 0 8 0;
#X connect 50 0 10 0;
#X connect 50 0 23 0;
#X connect 50 0 25 0;
#X connect 50 0 27 0;
#X connect 50 0 30 0;
#X connect 50 0 31 0;
#X connect 51 0 52 0;
#X connect 53 0 7 0;
#X connect 53 0 5 0;
#X connect 55 0 36 0;
#X connect 56 0 37 0;
#X connect 56 0 55 0;
#X connect 57 0 33 0;
#X coords 0 -1 1 0 100 100 2 2400 -100;
#X restore 208 -367 pd interface;
#X obj 34 71 config;
#N canvas 71 91 951 599 dmx 0;
#X obj 310 -54 loadbang;
#X obj -7 437 list split;
#X obj 99 444 list split;
#X obj 50 385 - 1;
#X obj 156 386 - 1;
#X msg 213 11 1;
#X floatatom 207 144 5 0 0 0 - - -;
#X floatatom 258 144 5 0 0 0 - - -;
#X text 201 119 Layer 1;
#X text 250 120 Layer 2;
#X text 269 100 DMX Address;
#X obj 564 160 bng 30 250 50 0 empty empty Close 0 -7 0 10 -258113
-258113 -258113;
#X floatatom 475 171 5 0 0 0 - - -;
#X obj 527 161 bng 30 250 50 0 empty empty Open 0 -7 0 10 -4034 -4034
-4034;
#X msg 668 50 0;
#X text 300 119 Layer 3;
#X text 353 119 Layer 4;
#X floatatom 309 144 5 0 0 0 - - -;
#X floatatom 361 144 5 0 0 0 - - -;
#X msg 563 309 close;
#X obj 202 447 list split;
#X obj 259 390 - 1;
#X obj 308 446 list split;
#X obj 365 367 - 1;
#X obj 489 347 ola2pd;
#X msg 438 307 universe \$1;
#X msg 523 306 open;
#X text 461 149 Universo;
#X text 495 117 OLA Control;
#X obj 433 122 bng 20 200 200 0 empty empty DMX 0 -7 0 10 -262144 -1
-1;
#X obj 21 479 list split 64;
#X obj 127 482 list split 64;
#X obj 230 482 list split 64;
#X obj 336 483 list split 64;
#X msg 260 14 65;
#X msg 314 14 129;
#X msg 367 16 193;
#X obj 21 520 outlet;
#X obj 127 523 outlet;
#X obj 230 523 outlet;
#X obj 336 524 outlet;
#X floatatom 207 184 5 0 0 0 - - -;
#X floatatom 258 184 5 0 0 0 - - -;
#X floatatom 309 184 5 0 0 0 - - -;
#X floatatom 361 184 5 0 0 0 - - -;
#X text 199 163 Layer 5;
#X text 250 162 Layer 6;
#X text 300 163 Layer 7;
#X text 354 162 Layer 8;
#X msg 219 58 257;
#X msg 268 56 321;
#X msg 331 57 385;
#X msg 388 62 449;
#X obj 434 457 list split;
#X obj 491 378 - 1;
#X obj 462 494 list split 64;
#X obj 462 535 outlet;
#X obj 558 448 list split;
#X obj 615 369 - 1;
#X obj 586 485 list split 64;
#X obj 586 526 outlet;
#X obj 675 449 list split;
#X obj 732 370 - 1;
#X obj 703 486 list split 64;
#X obj 703 527 outlet;
#X obj 800 445 list split;
#X obj 857 366 - 1;
#X obj 828 482 list split 64;
#X obj 828 523 outlet;
#X obj 212 248 tgl 15 0 empty empty empty 17 7 0 10 -262144 -1 -1 0
1;
#X obj 238 248 tgl 15 0 empty empty empty 17 7 0 10 -262144 -1 -1 0
1;
#X obj 263 247 tgl 15 0 empty empty empty 17 7 0 10 -262144 -1 -1 0
1;
#X obj 284 248 tgl 15 0 empty empty empty 17 7 0 10 -262144 -1 -1 0
1;
#X obj 307 248 tgl 15 0 empty empty empty 17 7 0 10 -262144 -1 -1 0
1;
#X obj 332 248 tgl 15 0 empty empty empty 17 7 0 10 -262144 -1 -1 0
1;
#X obj 355 248 tgl 15 0 empty empty empty 17 7 0 10 -262144 -1 -1 0
1;
#X obj 376 248 tgl 15 0 empty empty empty 17 7 0 10 -262144 -1 -1 0
1;
#X obj -7 379 spigot;
#X obj 95 402 spigot;
#X obj 204 397 spigot;
#X obj 314 393 spigot;
#X obj 421 395 spigot;
#X obj 556 405 spigot;
#X obj 672 407 spigot;
#X obj 798 394 spigot;
#X connect 0 0 34 0;
#X connect 0 0 5 0;
#X connect 0 0 35 0;
#X connect 0 0 36 0;
#X connect 0 0 52 0;
#X connect 0 0 51 0;
#X connect 0 0 50 0;
#X connect 0 0 49 0;
#X connect 1 1 30 0;
#X connect 2 1 31 0;
#X connect 3 0 1 1;
#X connect 4 0 2 1;
#X connect 5 0 6 0;
#X connect 6 0 3 0;
#X connect 7 0 4 0;
#X connect 11 0 19 0;
#X connect 12 0 25 0;
#X connect 13 0 26 0;
#X connect 14 0 12 0;
#X connect 17 0 21 0;
#X connect 18 0 23 0;
#X connect 19 0 24 0;
#X connect 20 1 32 0;
#X connect 21 0 20 1;
#X connect 22 1 33 0;
#X connect 23 0 22 1;
#X connect 24 0 29 0;
#X connect 24 0 77 0;
#X connect 24 0 78 0;
#X connect 24 0 79 0;
#X connect 24 0 80 0;
#X connect 24 0 81 0;
#X connect 24 0 82 0;
#X connect 24 0 83 0;
#X connect 24 0 84 0;
#X connect 25 0 24 0;
#X connect 26 0 24 0;
#X connect 30 0 37 0;
#X connect 31 0 38 0;
#X connect 32 0 39 0;
#X connect 33 0 40 0;
#X connect 34 0 7 0;
#X connect 35 0 17 0;
#X connect 36 0 18 0;
#X connect 41 0 54 0;
#X connect 42 0 58 0;
#X connect 43 0 62 0;
#X connect 44 0 66 0;
#X connect 49 0 41 0;
#X connect 50 0 42 0;
#X connect 51 0 43 0;
#X connect 52 0 44 0;
#X connect 53 1 55 0;
#X connect 54 0 53 1;
#X connect 55 0 56 0;
#X connect 57 1 59 0;
#X connect 58 0 57 1;
#X connect 59 0 60 0;
#X connect 61 1 63 0;
#X connect 62 0 61 1;
#X connect 63 0 64 0;
#X connect 65 1 67 0;
#X connect 66 0 65 1;
#X connect 67 0 68 0;
#X connect 69 0 77 1;
#X connect 70 0 78 1;
#X connect 71 0 79 1;
#X connect 72 0 80 1;
#X connect 73 0 81 1;
#X connect 74 0 82 1;
#X connect 75 0 83 1;
#X connect 76 0 84 1;
#X connect 77 0 1 0;
#X connect 78 0 2 0;
#X connect 79 0 20 0;
#X connect 80 0 22 0;
#X connect 81 0 53 0;
#X connect 82 0 57 0;
#X connect 83 0 61 0;
#X connect 84 0 65 0;
#X coords 0 -1 1 1 400 200 2 200 100;
#X restore 35 -257 pd dmx;
#N canvas 69 75 450 300 fondo 0;
#X obj 1250 -123 color 0 0 0;
#X obj 1250 -167 alpha;
#X obj 1250 31 pix_alpha;
#X text 1216 -226 Pantalla fondo Negra;
#X floatatom 1274 -48 5 0 0 0 - - -;
#X floatatom 1354 -47 5 0 0 0 - - -;
#X obj 1274 -84 tgl 15 0 empty empty empty 17 7 0 10 -262144 -1 -1
0 1;
#X obj 1354 -84 tgl 15 0 empty empty empty 17 7 0 10 -262144 -1 -1
0 1;
#X msg 1750 -41 0 0 0;
#X msg 1444 -45 0 0 0;
#X msg 1550 -43 1 1 1;
#X msg 1650 -42 1 1 1;
#X obj 1250 -204 gemhead 5;
#X obj 1250 94 translateXYZ;
#X obj 1528 24 loadbang;
#X obj 1250 131 rectangle 16 12;
#X obj 1686 105 bng 15 250 50 0 empty empty empty 17 7 0 10 -262144
-1 -1;
#X msg 1444 63 -50;
#X msg 1426 -149 1 1 1;
#X connect 0 0 2 0;
#X connect 1 0 0 0;
#X connect 2 0 13 0;
#X connect 4 0 2 1;
#X connect 5 0 2 2;
#X connect 6 0 4 0;
#X connect 7 0 5 0;
#X connect 8 0 2 4;
#X connect 9 0 2 3;
#X connect 10 0 2 3;
#X connect 11 0 2 4;
#X connect 12 0 1 0;
#X connect 13 0 15 0;
#X connect 14 0 17 0;
#X connect 16 0 17 0;
#X connect 17 0 13 3;
#X connect 18 0 0 1;
#X restore 25 -282 pd fondo;
#X obj 16 -54 layer;
#X text 83 -327 Esc Destroy Window;
#N canvas 6 75 450 389 medidor 0;
#X floatatom 107 133 0 0 0 0 - - -;
#X obj 107 189 cputime;
#X obj 107 49 loadbang;
#X obj 4 137 metro 1000;
#X msg 107 77 1;
#X obj 107 161 t b b;
#X obj 107 249 * 0.1;
#X obj 107 218 int;
#X text 128 106 <- on/off;
#X obj 106 107 tgl 15 0 empty empty empty 17 7 0 10 -262144 -1 -1 0
1;
#X text 134 133 CPU load;
#X connect 1 0 7 0;
#X connect 2 0 4 0;
#X connect 3 0 5 0;
#X connect 4 0 9 0;
#X connect 5 0 1 0;
#X connect 5 1 1 1;
#X connect 6 0 0 0;
#X connect 7 0 6 0;
#X connect 9 0 3 0;
#X coords 0 -1 1 1 100 60 2 100 100;
#X restore 325 -142 pd medidor;
#X obj 16 3 layer;
#X obj 13 35 layer;
#X obj 17 -28 layer;
#X obj 274 -49 layer;
#X obj 274 -24 layer;
#X obj 273 7 layer;
#X obj 272 35 layer;
#X connect 8 0 10 0;
#X connect 8 1 15 0;
#X connect 8 2 13 0;
#X connect 8 3 14 0;
#X connect 8 4 16 0;
#X connect 8 5 17 0;
#X connect 8 6 18 0;
#X connect 8 7 19 0;
#X coords 0 0 1 1 85 60 0;
