#N canvas 0 54 1550 937 10;
#X msg 1034 -158 color 0 0 0;
#X msg 281 -163 create;
#X msg 863 -159 destroy;
#X msg 665 -160 reset;
#X obj 874 128 video_1;
#X obj 226 -59 pipe 500;
#X msg 726 -159 print;
#X obj 506 -205 tgl 15 0 empty empty empty 17 7 0 10 -262144 -1 -1
0 1;
#X msg 506 -160 border \$1;
#X msg 405 -160 fullscreen \$1;
#X msg 579 -160 topmost \$1;
#X obj 579 -204 tgl 15 0 empty empty empty 17 7 0 10 -262144 -1 -1
0 1;
#X floatatom 453 -345 5 0 0 0 - - -;
#X msg 113 -50 1;
#X obj 863 -199 select 27;
#X obj 34 -208 select 115;
#X msg 34 -52 0;
#X text 50 -194 s;
#X text 870 -217 Escape;
#X obj 200 -202 select 99;
#X obj 405 -236 select 102;
#X msg 405 -190 1;
#X msg 932 -160 offset 1280 0;
#X text 918 -176 Escritorio extendido;
#X obj 665 -198 select 114;
#X obj 113 -205 select 97;
#X text 128 -190 a;
#X msg 340 -162 cursor 0;
#X floatatom 836 -343 5 0 0 0 - - -;
#X obj 864 -253 select 9;
#X obj 580 -15 gemwin 25;
#X obj 113 -159 select 38;
#X text 377 11 A para renderizar Escape destruye la ventana de video
S para la renderizacion C para crear la pantalla f pantalla completa
R resetea propiedades graficas;
#X obj 34 -165 select 39;
#X text 262 -205 c;
#X obj 13 -355 loadbang;
#X obj 226 165 tgl 50 1 empty empty Go! 17 7 0 25 -232576 -1 -260097
1 1;
#X text 320 188 Quitar la x final (dejar en "manual") y renombrar dmx
para tener acceso al control mediante una pantalla de faders. Solo
la capa 1 de momento.;
#X obj 395 -362 keyx;
#X obj 733 -360 gemkeyboardx;
#X obj 681 79 fondo;
#X obj 873 215 imagen_2x;
#X obj 984 216 texto_2x;
#X obj 931 216 video_2x;
#X obj 920 127 imagen_1;
#X obj 970 127 texto_1;
#X obj 446 166 manualx;
#X obj 367 164 midi;
#X obj 409 165 dmxx;
#X msg 1101 -87 dimen 640 480;
#X msg 1104 -120 dimen 1024 768;
#X obj 1017 128 audio_1;
#X floatatom 1059 85 5 0 0 0 - - -;
#X symbolatom 830 49 80 0 0 0 - - -;
#X obj 899 68 selector_medios_1;
#X connect 0 0 30 0;
#X connect 1 0 30 0;
#X connect 2 0 30 0;
#X connect 3 0 30 0;
#X connect 5 0 30 0;
#X connect 6 0 30 0;
#X connect 7 0 8 0;
#X connect 8 0 30 0;
#X connect 9 0 30 0;
#X connect 10 0 30 0;
#X connect 11 0 10 0;
#X connect 13 0 36 0;
#X connect 14 0 2 0;
#X connect 15 0 16 0;
#X connect 16 0 36 0;
#X connect 19 0 1 0;
#X connect 19 0 13 0;
#X connect 20 0 21 0;
#X connect 20 0 27 0;
#X connect 21 0 9 0;
#X connect 22 0 30 0;
#X connect 24 0 3 0;
#X connect 25 0 13 0;
#X connect 27 0 30 0;
#X connect 29 0 2 0;
#X connect 31 0 13 0;
#X connect 33 0 16 0;
#X connect 35 0 16 0;
#X connect 36 0 5 0;
#X connect 36 0 1 0;
#X connect 38 0 12 0;
#X connect 38 0 14 0;
#X connect 38 0 15 0;
#X connect 38 0 19 0;
#X connect 38 0 24 0;
#X connect 38 0 25 0;
#X connect 38 0 20 0;
#X connect 39 0 28 0;
#X connect 39 0 29 0;
#X connect 39 0 31 0;
#X connect 39 0 33 0;
#X connect 49 0 30 0;
#X connect 50 0 30 0;
#X connect 54 0 53 0;
#X connect 54 0 4 0;
#X connect 54 0 44 0;
#X connect 54 0 45 0;
#X connect 54 0 51 0;
#X connect 54 1 52 0;
#X connect 54 1 4 1;
#X connect 54 1 44 1;
#X connect 54 1 45 1;
#X connect 54 1 51 1;
