#N canvas 0 548 948 686 10;
#X obj 702 -148 notein;
#X floatatom 584 -131 5 0 0 0 - - -;
#X floatatom 824 -131 5 0 0 0 - - -;
#X obj 58 308 s c1;
#X obj 58 277 int;
#X obj 100 277 int;
#X obj 100 309 s c2;
#X obj 147 278 int;
#X obj 189 278 int;
#X obj 147 309 s c3;
#X obj 189 310 s c4;
#X obj 230 278 int;
#X obj 272 278 int;
#X obj 319 279 int;
#X obj 361 279 int;
#X obj 230 309 s c5;
#X obj 184 100 select 0 1 2 3 4 5 6 7 8 9 10 11 12 13 14 15 16 17 18
19;
#X obj 400 282 int;
#X obj 442 282 int;
#X obj 489 283 int;
#X obj 531 283 int;
#X obj 572 283 int;
#X obj 614 283 int;
#X obj 661 284 int;
#X obj 703 284 int;
#X obj 746 284 int;
#X obj 793 285 int;
#X obj 835 285 int;
#X obj 272 312 s c6;
#X obj 321 312 s c7;
#X obj 361 312 s c8;
#X obj 400 313 s c9;
#X obj 442 315 s c10;
#X obj 489 314 s c11;
#X obj 531 315 s c12;
#X obj 572 314 s c13;
#X obj 614 316 s c14;
#X obj 661 316 s c15;
#X obj 703 317 s c16;
#X obj 746 317 s c17;
#X obj 793 317 s c18;
#X obj 835 318 s c19;
#X obj 882 283 int;
#X obj 882 316 s c20;
#X obj 1060 290 int;
#X obj 1102 290 int;
#X obj 1149 291 int;
#X obj 1191 291 int;
#X obj 1232 291 int;
#X obj 1274 291 int;
#X obj 1321 292 int;
#X obj 1363 292 int;
#X obj 1402 295 int;
#X obj 1444 295 int;
#X obj 1491 296 int;
#X obj 1533 296 int;
#X obj 1574 296 int;
#X obj 1616 296 int;
#X obj 1663 297 int;
#X obj 1705 297 int;
#X obj 1748 297 int;
#X obj 1795 298 int;
#X obj 1837 298 int;
#X obj 1884 296 int;
#X obj 67 651 int;
#X obj 109 651 int;
#X obj 156 652 int;
#X obj 198 652 int;
#X obj 239 652 int;
#X obj 281 652 int;
#X obj 328 653 int;
#X obj 370 653 int;
#X obj 409 656 int;
#X obj 451 656 int;
#X obj 498 657 int;
#X obj 540 657 int;
#X obj 581 657 int;
#X obj 623 657 int;
#X obj 670 658 int;
#X obj 712 658 int;
#X obj 755 658 int;
#X obj 804 658 int;
#X obj 849 658 int;
#X obj 896 656 int;
#X obj 1042 674 int;
#X obj 1084 674 int;
#X obj 1131 675 int;
#X obj 1173 675 int;
#X obj 1214 675 int;
#X obj 1256 675 int;
#X obj 1303 676 int;
#X obj 1345 676 int;
#X obj 1384 679 int;
#X obj 1426 679 int;
#X obj 1473 680 int;
#X obj 1515 680 int;
#X obj 1556 680 int;
#X obj 1598 680 int;
#X obj 1645 681 int;
#X obj 1687 681 int;
#X obj 1730 681 int;
#X obj 1777 682 int;
#X obj 1819 682 int;
#X obj 1866 680 int;
#X obj 1722 143 int;
#X obj 1704 527 int;
#X obj 729 504 int;
#X obj 1059 321 s c33;
#X obj 1102 322 s c34;
#X obj 1149 322 s c35;
#X obj 1191 323 s c36;
#X obj 1232 324 s c37;
#X obj 1275 325 s c38;
#X obj 1323 325 s c39;
#X obj 1363 325 s c40;
#X obj 1402 326 s c41;
#X obj 1444 328 s c42;
#X obj 1491 328 s c43;
#X obj 1533 328 s c44;
#X obj 1574 327 s c45;
#X obj 1616 329 s c46;
#X obj 1663 329 s c47;
#X obj 1704 330 s c48;
#X obj 1748 330 s c49;
#X obj 1795 330 s c50;
#X obj 1837 331 s c51;
#X obj 1884 329 s c52;
#X obj 1191 66 select 32 34 35 36 37 38 39 40 41 42 43 44 45 46 47
48 49 50 51 52;
#X obj 193 474 select 64 65 66 67 68 69 70 71 72 73 74 75 76 77 78
79 80 81 82 83;
#X obj 1168 497 select 96 97 98 99 100 101 102 103 104 105 106 107
108 109 110 111 112 113 114 115;
#X obj 67 682 s c65;
#X obj 110 683 s c66;
#X obj 156 683 s c67;
#X obj 198 684 s c68;
#X obj 239 683 s c69;
#X obj 281 686 s c70;
#X obj 330 686 s c71;
#X obj 371 686 s c72;
#X obj 409 687 s c73;
#X obj 451 689 s c74;
#X obj 499 688 s c75;
#X obj 540 689 s c76;
#X obj 581 688 s c77;
#X obj 623 690 s c78;
#X obj 670 690 s c79;
#X obj 712 691 s c80;
#X obj 755 691 s c81;
#X obj 804 690 s c82;
#X obj 849 691 s c83;
#X obj 896 689 s c84;
#X obj 1042 706 s c97;
#X obj 1084 706 s c98;
#X obj 1132 706 s c99;
#X obj 1173 707 s c100;
#X obj 1214 706 s c101;
#X obj 1256 709 s c102;
#X obj 1305 709 s c103;
#X obj 1345 709 s c104;
#X obj 1384 710 s c105;
#X obj 1426 712 s c106;
#X obj 1473 711 s c107;
#X obj 1515 712 s c108;
#X obj 1556 711 s c109;
#X obj 1598 713 s c110;
#X obj 1645 713 s c111;
#X obj 1687 714 s c112;
#X obj 1730 714 s c113;
#X obj 1776 714 s c114;
#X obj 1819 715 s c115;
#X obj 1866 713 s c116;
#X floatatom 27 679 5 0 0 0 - - -;
#X floatatom 57 325 5 0 0 0 - - -;
#X floatatom 189 327 5 0 0 0 - - -;
#X floatatom 477 765 5 0 0 0 - - -;
#X floatatom 1044 747 5 0 0 0 - - -;
#X obj 718 -61 spigot;
#X obj 824 -98 != 0;
#X floatatom 882 -76 5 0 0 0 - - -;
#X obj 719 97 int;
#X obj 719 44 + 1;
#X obj 719 22 * 2;
#X msg 882 -54 0;
#X obj 914 -76 bng 15 250 50 0 empty empty empty 17 7 0 10 -262144
-1 -1;
#X floatatom 230 326 5 0 0 0 - - -;
#X floatatom 671 61 5 0 0 0 - - -;
#X floatatom 320 330 5 0 0 0 - - -;
#X connect 0 0 1 0;
#X connect 0 0 16 0;
#X connect 0 0 128 0;
#X connect 0 0 127 0;
#X connect 0 0 129 0;
#X connect 0 1 2 0;
#X connect 0 1 176 0;
#X connect 0 1 175 0;
#X connect 4 0 3 0;
#X connect 4 0 171 0;
#X connect 5 0 6 0;
#X connect 7 0 9 0;
#X connect 8 0 10 0;
#X connect 8 0 172 0;
#X connect 11 0 15 0;
#X connect 11 0 183 0;
#X connect 12 0 28 0;
#X connect 13 0 29 0;
#X connect 13 0 185 0;
#X connect 14 0 30 0;
#X connect 16 0 4 0;
#X connect 16 1 5 0;
#X connect 16 2 7 0;
#X connect 16 3 8 0;
#X connect 16 4 11 0;
#X connect 16 5 12 0;
#X connect 16 6 13 0;
#X connect 16 7 14 0;
#X connect 16 8 17 0;
#X connect 16 9 18 0;
#X connect 16 10 19 0;
#X connect 16 11 20 0;
#X connect 16 12 21 0;
#X connect 16 13 22 0;
#X connect 16 14 23 0;
#X connect 16 15 24 0;
#X connect 16 16 25 0;
#X connect 16 17 26 0;
#X connect 16 18 27 0;
#X connect 16 19 42 0;
#X connect 17 0 31 0;
#X connect 18 0 32 0;
#X connect 19 0 33 0;
#X connect 20 0 34 0;
#X connect 21 0 35 0;
#X connect 22 0 36 0;
#X connect 23 0 37 0;
#X connect 24 0 38 0;
#X connect 25 0 39 0;
#X connect 26 0 40 0;
#X connect 27 0 41 0;
#X connect 42 0 43 0;
#X connect 44 0 107 0;
#X connect 45 0 108 0;
#X connect 46 0 109 0;
#X connect 47 0 110 0;
#X connect 48 0 111 0;
#X connect 49 0 112 0;
#X connect 50 0 113 0;
#X connect 51 0 114 0;
#X connect 52 0 115 0;
#X connect 53 0 116 0;
#X connect 54 0 117 0;
#X connect 55 0 118 0;
#X connect 56 0 119 0;
#X connect 57 0 120 0;
#X connect 58 0 121 0;
#X connect 59 0 122 0;
#X connect 60 0 123 0;
#X connect 61 0 124 0;
#X connect 62 0 125 0;
#X connect 63 0 126 0;
#X connect 64 0 130 0;
#X connect 64 0 170 0;
#X connect 65 0 131 0;
#X connect 66 0 132 0;
#X connect 67 0 133 0;
#X connect 68 0 134 0;
#X connect 69 0 135 0;
#X connect 70 0 136 0;
#X connect 71 0 137 0;
#X connect 72 0 138 0;
#X connect 73 0 139 0;
#X connect 74 0 140 0;
#X connect 74 0 173 0;
#X connect 75 0 141 0;
#X connect 76 0 142 0;
#X connect 77 0 143 0;
#X connect 78 0 144 0;
#X connect 79 0 145 0;
#X connect 80 0 146 0;
#X connect 81 0 147 0;
#X connect 82 0 148 0;
#X connect 83 0 149 0;
#X connect 84 0 150 0;
#X connect 84 0 174 0;
#X connect 85 0 151 0;
#X connect 86 0 152 0;
#X connect 87 0 153 0;
#X connect 88 0 154 0;
#X connect 89 0 155 0;
#X connect 90 0 156 0;
#X connect 91 0 157 0;
#X connect 92 0 158 0;
#X connect 93 0 159 0;
#X connect 94 0 160 0;
#X connect 95 0 161 0;
#X connect 96 0 162 0;
#X connect 97 0 163 0;
#X connect 98 0 164 0;
#X connect 99 0 165 0;
#X connect 100 0 166 0;
#X connect 101 0 167 0;
#X connect 102 0 168 0;
#X connect 103 0 169 0;
#X connect 104 0 44 1;
#X connect 104 0 45 1;
#X connect 104 0 46 1;
#X connect 104 0 47 1;
#X connect 104 0 48 1;
#X connect 104 0 49 1;
#X connect 104 0 50 1;
#X connect 104 0 51 1;
#X connect 104 0 52 1;
#X connect 104 0 53 1;
#X connect 104 0 54 1;
#X connect 104 0 55 1;
#X connect 104 0 56 1;
#X connect 104 0 57 1;
#X connect 104 0 58 1;
#X connect 104 0 59 1;
#X connect 104 0 60 1;
#X connect 104 0 61 1;
#X connect 104 0 62 1;
#X connect 104 0 63 1;
#X connect 105 0 84 1;
#X connect 105 0 85 1;
#X connect 105 0 86 1;
#X connect 105 0 87 1;
#X connect 105 0 88 1;
#X connect 105 0 89 1;
#X connect 105 0 90 1;
#X connect 105 0 91 1;
#X connect 105 0 92 1;
#X connect 105 0 93 1;
#X connect 105 0 94 1;
#X connect 105 0 95 1;
#X connect 105 0 96 1;
#X connect 105 0 97 1;
#X connect 105 0 98 1;
#X connect 105 0 99 1;
#X connect 105 0 100 1;
#X connect 105 0 101 1;
#X connect 105 0 102 1;
#X connect 105 0 103 1;
#X connect 106 0 64 1;
#X connect 106 0 65 1;
#X connect 106 0 66 1;
#X connect 106 0 67 1;
#X connect 106 0 68 1;
#X connect 106 0 69 1;
#X connect 106 0 70 1;
#X connect 106 0 71 1;
#X connect 106 0 72 1;
#X connect 106 0 73 1;
#X connect 106 0 74 1;
#X connect 106 0 75 1;
#X connect 106 0 76 1;
#X connect 106 0 77 1;
#X connect 106 0 78 1;
#X connect 106 0 79 1;
#X connect 106 0 80 1;
#X connect 106 0 81 1;
#X connect 106 0 82 1;
#X connect 106 0 83 1;
#X connect 127 0 44 0;
#X connect 127 1 45 0;
#X connect 127 2 46 0;
#X connect 127 3 47 0;
#X connect 127 4 48 0;
#X connect 127 5 49 0;
#X connect 127 6 50 0;
#X connect 127 7 51 0;
#X connect 127 8 52 0;
#X connect 127 9 53 0;
#X connect 127 10 54 0;
#X connect 127 11 55 0;
#X connect 127 12 56 0;
#X connect 127 13 57 0;
#X connect 127 14 58 0;
#X connect 127 15 59 0;
#X connect 127 16 60 0;
#X connect 127 17 61 0;
#X connect 127 18 62 0;
#X connect 127 19 63 0;
#X connect 128 0 64 0;
#X connect 128 1 65 0;
#X connect 128 2 66 0;
#X connect 128 3 67 0;
#X connect 128 4 68 0;
#X connect 128 5 69 0;
#X connect 128 6 70 0;
#X connect 128 7 71 0;
#X connect 128 8 72 0;
#X connect 128 9 73 0;
#X connect 128 10 74 0;
#X connect 128 11 75 0;
#X connect 128 12 76 0;
#X connect 128 13 77 0;
#X connect 128 14 78 0;
#X connect 128 15 79 0;
#X connect 128 16 80 0;
#X connect 128 17 81 0;
#X connect 128 18 82 0;
#X connect 128 19 83 0;
#X connect 129 0 84 0;
#X connect 129 1 85 0;
#X connect 129 2 86 0;
#X connect 129 3 87 0;
#X connect 129 4 88 0;
#X connect 129 5 89 0;
#X connect 129 6 90 0;
#X connect 129 7 91 0;
#X connect 129 8 92 0;
#X connect 129 9 93 0;
#X connect 129 10 94 0;
#X connect 129 11 95 0;
#X connect 129 12 96 0;
#X connect 129 13 97 0;
#X connect 129 14 98 0;
#X connect 129 15 99 0;
#X connect 129 16 100 0;
#X connect 129 17 101 0;
#X connect 129 18 102 0;
#X connect 129 19 103 0;
#X connect 175 0 180 0;
#X connect 176 0 175 1;
#X connect 176 0 177 0;
#X connect 176 0 181 0;
#X connect 176 0 182 0;
#X connect 178 0 4 1;
#X connect 178 0 5 1;
#X connect 178 0 7 1;
#X connect 178 0 8 1;
#X connect 178 0 11 1;
#X connect 178 0 12 1;
#X connect 178 0 13 1;
#X connect 178 0 14 1;
#X connect 178 0 17 1;
#X connect 178 0 18 1;
#X connect 178 0 19 1;
#X connect 178 0 20 1;
#X connect 178 0 21 1;
#X connect 178 0 22 1;
#X connect 178 0 23 1;
#X connect 178 0 24 1;
#X connect 178 0 25 1;
#X connect 178 0 26 1;
#X connect 178 0 27 1;
#X connect 178 0 42 1;
#X connect 178 0 104 0;
#X connect 178 0 105 0;
#X connect 178 0 106 0;
#X connect 179 0 178 0;
#X connect 179 0 184 0;
#X connect 180 0 179 0;
#X connect 181 0 178 0;
