#N canvas 0 75 1024 669 10;
#N canvas 4 75 1016 665 audio_player 0;
#X msg 138 344 open \$1;
#X msg 381 667 start;
#X msg 436 668 stop;
#X obj 382 757 oggread~;
#X msg 489 670 resume;
#X obj 138 172 inlet;
#X obj 233 172 inlet;
#X obj 138 291 spigot;
#X msg 233 247 1;
#X msg 278 248 0;
#X obj 436 446 / 25;
#X obj 436 503 select 0 6 7;
#X obj 436 346 spigot;
#X obj 233 213 select 4;
#X obj 215 898 outlet~;
#X obj 283 900 outlet~;
#X obj 436 186 r \$0-c9;
#X obj 436 475 int;
#X connect 0 0 3 0;
#X connect 1 0 3 0;
#X connect 2 0 3 0;
#X connect 3 0 14 0;
#X connect 3 1 15 0;
#X connect 4 0 3 0;
#X connect 5 0 7 0;
#X connect 6 0 13 0;
#X connect 7 0 0 0;
#X connect 8 0 7 1;
#X connect 8 0 12 1;
#X connect 9 0 7 1;
#X connect 9 0 12 1;
#X connect 10 0 17 0;
#X connect 11 0 1 0;
#X connect 11 1 2 0;
#X connect 11 2 4 0;
#X connect 12 0 10 0;
#X connect 13 0 8 0;
#X connect 13 1 9 0;
#X connect 16 0 12 0;
#X connect 17 0 11 0;
#X restore 430 283 pd audio_player;
#N canvas 4 75 1016 665 audio_mix 0;
#X obj 649 548 *~ 0;
#X obj 706 548 *~ 0;
#X obj 766 434 dbtorms;
#X obj 709 434 dbtorms;
#X obj 698 662 dac~;
#X obj 785 146 / 2.55;
#X obj 499 66 inlet~;
#X obj 586 66 inlet~;
#X obj 687 69 inlet;
#X msg 783 323 0;
#X msg 674 315 1;
#X text 645 43 Selector entrada;
#X text 553 36 L/R;
#X obj 649 619 gpan~;
#X obj 913 142 / 255;
#X obj 785 70 r \$0-c24;
#X text 779 46 Volumen c24;
#X text 905 53 Pan c25;
#X obj 913 79 r \$0-c25;
#X obj 687 276 sel 4;
#X connect 0 0 13 0;
#X connect 1 0 13 1;
#X connect 2 0 1 1;
#X connect 3 0 0 1;
#X connect 5 0 3 0;
#X connect 5 0 2 0;
#X connect 6 0 0 0;
#X connect 7 0 1 0;
#X connect 8 0 19 0;
#X connect 13 0 4 0;
#X connect 13 1 4 1;
#X connect 14 0 13 2;
#X connect 15 0 5 0;
#X connect 18 0 14 0;
#X connect 19 0 10 0;
#X connect 19 1 9 0;
#X restore 436 359 pd audio_mix;
#X connect 0 0 1 0;
#X connect 0 1 1 1;
