#N canvas 55 126 838 622 10;
#N canvas 345 102 1016 665 dmx 0;
#X obj -7 437 list split;
#X obj 99 444 list split;
#X obj 50 385 - 1;
#X obj 156 386 - 1;
#X msg 613 211 close;
#X obj 202 447 list split;
#X obj 259 390 - 1;
#X obj 308 446 list split;
#X obj 365 367 - 1;
#X obj 469 251 ola2pd;
#X msg 391 201 universe \$1;
#X msg 560 208 open;
#X obj 21 520 outlet;
#X obj 127 523 outlet;
#X obj 230 523 outlet;
#X obj 336 524 outlet;
#X obj 434 457 list split;
#X obj 491 378 - 1;
#X obj 462 535 outlet;
#X obj 558 448 list split;
#X obj 615 369 - 1;
#X obj 586 526 outlet;
#X obj 675 449 list split;
#X obj 744 353 - 1;
#X obj 703 527 outlet;
#X obj 800 445 list split;
#X obj 857 366 - 1;
#X obj 828 523 outlet;
#X obj -7 379 spigot;
#X obj 95 402 spigot;
#X obj 204 397 spigot;
#X obj 314 393 spigot;
#X obj 421 395 spigot;
#X obj 556 405 spigot;
#X obj 672 407 spigot;
#X obj 798 394 spigot;
#X obj 64 236 r layer1;
#X obj 389 152 r universe;
#X obj 143 241 r layer2;
#X obj 557 124 r ola;
#X obj 224 240 r layer3;
#X obj 309 240 r layer4;
#X obj 484 312 r layer5;
#X obj 635 291 r layer6;
#X obj 727 294 r layer7;
#X obj 833 281 r layer8;
#X obj 21 479 list split 32;
#X obj 127 482 list split 32;
#X obj 230 482 list split 32;
#X obj 336 483 list split 32;
#X obj 462 494 list split 32;
#X obj 586 485 list split 32;
#X obj 703 486 list split 32;
#X obj 828 482 list split 32;
#X floatatom 319 191 5 0 0 0 - - -;
#X floatatom 655 182 5 0 0 0 - - -;
#X obj 522 204 bng 15 250 50 0 empty empty empty 17 7 0 10 -262144
-1 -1;
#X obj 690 221 bng 15 250 50 0 empty empty empty 17 7 0 10 -262144
-1 -1;
#X obj 560 178 select 1;
#X obj 420 326 bng 15 250 50 0 empty empty empty 17 7 0 10 -262144
-1 -1;
#X floatatom 2 572 5 0 0 0 - - -;
#X connect 0 1 46 0;
#X connect 1 1 47 0;
#X connect 2 0 0 1;
#X connect 3 0 1 1;
#X connect 4 0 9 0;
#X connect 5 1 48 0;
#X connect 6 0 5 1;
#X connect 7 1 49 0;
#X connect 8 0 7 1;
#X connect 9 0 28 0;
#X connect 9 0 29 0;
#X connect 9 0 30 0;
#X connect 9 0 31 0;
#X connect 9 0 32 0;
#X connect 9 0 33 0;
#X connect 9 0 34 0;
#X connect 9 0 35 0;
#X connect 9 0 59 0;
#X connect 10 0 9 0;
#X connect 11 0 9 0;
#X connect 16 1 50 0;
#X connect 17 0 16 1;
#X connect 19 1 51 0;
#X connect 20 0 19 1;
#X connect 22 1 52 0;
#X connect 23 0 22 1;
#X connect 25 1 53 0;
#X connect 26 0 25 1;
#X connect 28 0 0 0;
#X connect 29 0 1 0;
#X connect 30 0 5 0;
#X connect 31 0 7 0;
#X connect 32 0 16 0;
#X connect 33 0 19 0;
#X connect 34 0 22 0;
#X connect 35 0 25 0;
#X connect 36 0 2 0;
#X connect 36 0 28 1;
#X connect 37 0 10 0;
#X connect 37 0 54 0;
#X connect 38 0 29 1;
#X connect 38 0 3 0;
#X connect 39 0 55 0;
#X connect 39 0 58 0;
#X connect 40 0 30 0;
#X connect 40 0 6 0;
#X connect 41 0 31 0;
#X connect 41 0 8 0;
#X connect 42 0 32 1;
#X connect 42 0 17 0;
#X connect 43 0 33 1;
#X connect 43 0 20 0;
#X connect 44 0 34 1;
#X connect 44 0 23 0;
#X connect 45 0 26 0;
#X connect 45 0 35 1;
#X connect 46 0 12 0;
#X connect 46 0 60 0;
#X connect 47 0 13 0;
#X connect 48 0 14 0;
#X connect 49 0 15 0;
#X connect 50 0 18 0;
#X connect 51 0 21 0;
#X connect 52 0 24 0;
#X connect 53 0 27 0;
#X connect 58 0 11 0;
#X connect 58 0 56 0;
#X connect 58 1 4 0;
#X connect 58 1 57 0;
#X coords 0 665 1 664 1 1 0;
#X restore -23 245 pd dmx;
#X obj -249 348 layer_audio;
#X msg 433 64 \; pd dsp 1;
#X msg 509 64 \; pd dsp 0;
#X obj 433 38 loadbang;
#X msg -249 380 send 1 \$1;
#X obj -16 560 netsend;
#X msg -136 387 send 2 \$1;
#X msg -22 390 send 3 \$1;
#X msg 75 392 send 4 \$1;
#X msg 163 389 send 5 \$1;
#X msg 255 393 send 6 \$1;
#X msg 354 395 send 7 \$1;
#X msg 448 395 send 8 \$1;
#X obj 373 459 loadbang;
#X obj 373 481 delay 50;
#X msg 373 503 send 0;
#X msg 203 482 connect localhost 9198;
#X obj 81 -30 netreceive 9197;
#X obj -124 3 unpack f f s;
#X obj -220 158 float;
#X obj -221 187 s layer1;
#X obj -153 155 float;
#X obj -80 151 float;
#X obj 0 155 float;
#X obj 84 151 float;
#X obj 156 149 float;
#X obj 232 147 float;
#X obj 309 145 float;
#X obj 385 145 float;
#X obj 464 142 float;
#X obj -154 184 s layer2;
#X obj -81 180 s layer3;
#X obj -1 184 s layer4;
#X obj 83 180 s layer5;
#X obj 155 178 s layer6;
#X obj 231 176 s layer7;
#X obj 308 174 s layer8;
#X obj 384 174 s ola;
#X obj 463 171 s universe;
#X obj 184 28 s path;
#X obj -9 75 select 11 12 13 14 15 16 17 18 20 21;
#X obj -36 346 layer_audio;
#X obj 52 349 layer_audio;
#X obj 141 354 layer_audio;
#X obj -141 344 layer_audio;
#X obj 237 350 layer_audio;
#X obj 336 340 layer_audio;
#X obj 434 337 layer_audio;
#X connect 0 0 1 0;
#X connect 0 1 45 0;
#X connect 0 2 42 0;
#X connect 0 3 43 0;
#X connect 0 4 44 0;
#X connect 0 5 46 0;
#X connect 0 6 47 0;
#X connect 0 7 48 0;
#X connect 1 0 5 0;
#X connect 4 0 2 0;
#X connect 5 0 6 0;
#X connect 7 0 6 0;
#X connect 8 0 6 0;
#X connect 9 0 6 0;
#X connect 10 0 6 0;
#X connect 11 0 6 0;
#X connect 12 0 6 0;
#X connect 13 0 6 0;
#X connect 14 0 15 0;
#X connect 14 0 17 0;
#X connect 15 0 16 0;
#X connect 16 0 6 0;
#X connect 17 0 6 0;
#X connect 18 0 19 0;
#X connect 19 0 41 0;
#X connect 19 1 20 1;
#X connect 19 1 22 1;
#X connect 19 1 23 1;
#X connect 19 1 24 1;
#X connect 19 1 25 1;
#X connect 19 1 26 1;
#X connect 19 1 27 1;
#X connect 19 1 28 1;
#X connect 19 1 29 1;
#X connect 19 1 30 1;
#X connect 19 2 40 0;
#X connect 20 0 21 0;
#X connect 22 0 31 0;
#X connect 23 0 32 0;
#X connect 24 0 33 0;
#X connect 25 0 34 0;
#X connect 26 0 35 0;
#X connect 27 0 36 0;
#X connect 28 0 37 0;
#X connect 29 0 38 0;
#X connect 30 0 39 0;
#X connect 41 0 20 0;
#X connect 41 1 22 0;
#X connect 41 2 23 0;
#X connect 41 3 24 0;
#X connect 41 4 25 0;
#X connect 41 5 26 0;
#X connect 41 6 27 0;
#X connect 41 7 28 0;
#X connect 41 8 29 0;
#X connect 41 9 30 0;
#X connect 42 0 8 0;
#X connect 43 0 9 0;
#X connect 44 0 10 0;
#X connect 45 0 7 0;
#X connect 46 0 11 0;
#X connect 47 0 12 0;
#X connect 48 0 13 0;
