#N canvas 21 573 435 231 10;
#N canvas 37 126 1124 491 interface 0;
#X msg 987 -347 color 0 0 0;
#X msg 117 -352 create;
#X msg 192 -352 destroy;
#X msg 721 -349 print;
#X msg 561 -352 border \$1;
#X msg 467 -352 fullscreen \$1;
#X msg 641 -350 topmost \$1;
#X msg 773 -349 cursor 0;
#X obj 698 -474 loadbang;
#X msg 918 -348 title PMS;
#X obj 368 -400 pack f f;
#X msg 368 -355 offset \$1 \$2;
#X obj 264 -401 pack f f;
#X msg 264 -354 dimen \$1 \$2;
#X obj 19 -349 s init;
#X msg 840 -348 profile 2;
#X obj 38 -467 inlet;
#X obj 8 -425 select 1;
#X obj 76 -424 select 0;
#X obj 365 -473 r winposx;
#X obj 431 -472 r winposy;
#X obj 382 -434 t b;
#X obj 212 -474 r winsizex;
#X obj 288 -475 r winsizey;
#X obj 274 -433 t b;
#X msg 605 -427 0;
#X obj 122 -473 gemkeyboard;
#X obj 160 -425 select 9;
#X msg 117 -261 1;
#X obj 117 -293 delay 10;
#X obj 117 -323 t b;
#X obj 308 -220 gemwin 30;
#X connect 0 0 31 0;
#X connect 1 0 30 0;
#X connect 1 0 31 0;
#X connect 2 0 31 0;
#X connect 3 0 31 0;
#X connect 4 0 31 0;
#X connect 5 0 31 0;
#X connect 6 0 31 0;
#X connect 7 0 31 0;
#X connect 8 0 0 0;
#X connect 8 0 9 0;
#X connect 8 0 25 0;
#X connect 8 0 7 0;
#X connect 8 0 15 0;
#X connect 9 0 31 0;
#X connect 10 0 11 0;
#X connect 11 0 31 0;
#X connect 12 0 13 0;
#X connect 13 0 31 0;
#X connect 15 0 31 0;
#X connect 16 0 17 0;
#X connect 16 0 18 0;
#X connect 17 0 1 0;
#X connect 17 0 14 0;
#X connect 18 0 2 0;
#X connect 19 0 10 0;
#X connect 20 0 10 1;
#X connect 20 0 21 0;
#X connect 21 0 10 0;
#X connect 22 0 12 0;
#X connect 23 0 12 1;
#X connect 23 0 24 0;
#X connect 24 0 12 0;
#X connect 25 0 6 0;
#X connect 25 0 4 0;
#X connect 26 0 27 0;
#X connect 27 0 2 0;
#X connect 28 0 31 0;
#X connect 29 0 28 0;
#X connect 30 0 29 0;
#X coords 0 -1 1 0 10 10 1 0 0;
#X restore 0 -316 pd interface;
#N canvas 349 113 952 599 dmx 0;
#X obj -7 437 list split;
#X obj 99 444 list split;
#X obj 50 385 - 1;
#X obj 156 386 - 1;
#X msg 432 206 close;
#X obj 202 447 list split;
#X obj 259 390 - 1;
#X obj 308 446 list split;
#X obj 365 367 - 1;
#X obj 410 243 ola2pd;
#X msg 330 206 universe \$1;
#X msg 486 209 open;
#X obj 21 520 outlet;
#X obj 127 523 outlet;
#X obj 230 523 outlet;
#X obj 336 524 outlet;
#X obj 434 457 list split;
#X obj 491 378 - 1;
#X obj 462 535 outlet;
#X obj 558 448 list split;
#X obj 615 369 - 1;
#X obj 586 526 outlet;
#X obj 675 449 list split;
#X obj 732 370 - 1;
#X obj 703 527 outlet;
#X obj 800 445 list split;
#X obj 857 366 - 1;
#X obj 828 523 outlet;
#X obj -7 379 spigot;
#X obj 95 402 spigot;
#X obj 204 397 spigot;
#X obj 314 393 spigot;
#X obj 421 395 spigot;
#X obj 556 405 spigot;
#X obj 672 407 spigot;
#X obj 798 394 spigot;
#X obj 21 479 list split 49;
#X obj 127 482 list split 49;
#X obj 230 482 list split 49;
#X obj 336 483 list split 49;
#X obj 462 494 list split 49;
#X obj 586 485 list split 49;
#X obj 703 486 list split 49;
#X obj 828 482 list split 49;
#X obj 27 208 r layer1;
#X obj 100 204 r layer2;
#X obj 167 209 r layer3;
#X obj 233 202 r layer4;
#X obj 521 256 r layer5;
#X obj 606 281 r layer6;
#X obj 722 280 r layer7;
#X obj 858 278 r layer8;
#X obj 435 94 r ola;
#X obj 434 154 select 0;
#X obj 331 93 r universe;
#X connect 0 1 36 0;
#X connect 1 1 37 0;
#X connect 2 0 0 1;
#X connect 3 0 1 1;
#X connect 4 0 9 0;
#X connect 5 1 38 0;
#X connect 6 0 5 1;
#X connect 7 1 39 0;
#X connect 8 0 7 1;
#X connect 9 0 28 0;
#X connect 9 0 29 0;
#X connect 9 0 30 0;
#X connect 9 0 31 0;
#X connect 9 0 32 0;
#X connect 9 0 33 0;
#X connect 9 0 34 0;
#X connect 9 0 35 0;
#X connect 10 0 9 0;
#X connect 11 0 9 0;
#X connect 16 1 40 0;
#X connect 17 0 16 1;
#X connect 19 1 41 0;
#X connect 20 0 19 1;
#X connect 22 1 42 0;
#X connect 23 0 22 1;
#X connect 25 1 43 0;
#X connect 26 0 25 1;
#X connect 28 0 0 0;
#X connect 29 0 1 0;
#X connect 30 0 5 0;
#X connect 31 0 7 0;
#X connect 32 0 16 0;
#X connect 33 0 19 0;
#X connect 34 0 22 0;
#X connect 35 0 25 0;
#X connect 36 0 12 0;
#X connect 37 0 13 0;
#X connect 38 0 14 0;
#X connect 39 0 15 0;
#X connect 40 0 18 0;
#X connect 41 0 21 0;
#X connect 42 0 24 0;
#X connect 43 0 27 0;
#X connect 44 0 2 0;
#X connect 44 0 28 1;
#X connect 45 0 29 1;
#X connect 45 0 3 0;
#X connect 46 0 30 1;
#X connect 46 0 6 0;
#X connect 47 0 8 0;
#X connect 47 0 31 1;
#X connect 48 0 17 0;
#X connect 48 0 32 1;
#X connect 49 0 20 0;
#X connect 49 0 33 1;
#X connect 50 0 23 0;
#X connect 50 0 34 1;
#X connect 51 0 26 0;
#X connect 51 0 35 1;
#X connect 52 0 53 0;
#X connect 53 0 4 0;
#X connect 53 1 11 0;
#X connect 54 0 10 0;
#X coords 0 -1 1 1 10 10 1 10 10;
#X restore 339 -191 pd dmx;
#N canvas 69 165 240 272 fondo 0;
#X obj -452 -118 color 0 0 0;
#X obj -452 -150 alpha;
#X text -486 -209 Pantalla fondo Negra;
#X obj -452 -187 gemhead 5;
#X obj -451 -49 translateXYZ;
#X obj -352 -170 loadbang;
#X obj -451 3 rectangle 16 12;
#X msg -352 -110 -50;
#X connect 0 0 4 0;
#X connect 1 0 0 0;
#X connect 3 0 1 0;
#X connect 4 0 6 0;
#X connect 5 0 7 0;
#X connect 7 0 4 3;
#X restore -11 -417 pd fondo;
#X obj 71 -398 select 1;
#X obj 123 -358 select 2 3 4 5;
#X obj 22 -242 s winposx;
#X obj 101 -240 s winposy;
#X obj 170 -238 s winsizex;
#X obj 249 -238 s winsizey;
#X obj 22 -266 float;
#X obj 101 -268 float;
#X obj 170 -274 float;
#X obj 250 -270 float;
#X obj 342 -231 s layer1;
#X obj 677 -389 select 11 12 13 14 15 16 17 18;
#X obj 400 -228 s layer2;
#X obj 460 -226 s layer3;
#X obj 540 -223 s layer4;
#X obj 599 -223 s layer5;
#X obj 663 -221 s layer6;
#X obj 725 -224 s layer7;
#X obj 791 -226 s layer8;
#X obj 342 -266 float;
#X obj 396 -267 float;
#X obj 451 -266 float;
#X obj 540 -266 float;
#X obj 789 -263 float;
#X obj 592 -265 float;
#X obj 659 -269 float;
#X obj 721 -263 float;
#X obj 861 -252 float;
#X obj 861 -227 s ola;
#X obj 911 -252 float;
#X obj 911 -226 s universe;
#X obj 718 -415 s path;
#X obj -1 -351 float;
#X obj 452 -449 unpack f f s;
#X obj 452 -477 netreceive 9195;
#X obj 314 11 netsend;
#X obj 1000 11 loadbang;
#X msg 832 41 connect localhost 9196;
#X msg -157 -118 send 1 \$1;
#X msg 77 -96 send 2 \$1;
#X msg 268 -64 send 3 \$1;
#X msg 492 -78 send 4 \$1;
#X msg 678 -79 send 5 \$1;
#X msg 894 -82 send 6 \$1;
#X msg 441 133 send 7 \$1;
#X msg 741 118 send 8 \$1;
#X obj -159 -143 layer;
#X msg 1000 73 send 0;
#X obj 1000 42 delay 50;
#X obj 872 -324 select 20 21;
#X floatatom 331 -444 5 0 0 0 - - -;
#X obj 77 -126 layer;
#X obj 738 81 layer;
#X obj 896 -117 layer;
#X obj 492 -108 layer;
#X obj 269 -114 layer;
#X obj 678 -117 layer;
#X obj 441 99 layer;
#X msg -212 -150 1;
#X msg -265 -151 0;
#X obj -292 -59 bng 15 250 50 0 empty empty empty 17 7 0 10 -262144
-1 -1;
#X msg -338 -82 file layer1 90;
#X obj -214 28 pix_writer;
#X obj -265 -242 r layer1;
#X obj -265 -211 select 0;
#X obj -263 -121 metro 1000;
#X msg -210 -54 size 60 40;
#X msg 25 -119 1;
#X msg -28 -120 0;
#X obj -79 -22 bng 15 250 50 0 empty empty empty 17 7 0 10 -262144
-1 -1;
#X obj 23 59 pix_writer;
#X obj -28 -180 select 0;
#X obj -26 -90 metro 1000;
#X msg 23 -1 size 60 40;
#X obj -28 -211 r layer2;
#X msg -41 -51 file layer2 90;
#X msg 215 -117 1;
#X msg 162 -118 0;
#X obj 135 -26 bng 15 250 50 0 empty empty empty 17 7 0 10 -262144
-1 -1;
#X obj 213 61 pix_writer;
#X obj 162 -178 select 0;
#X obj 164 -88 metro 1000;
#X msg 213 1 size 60 40;
#X obj 162 -209 r layer3;
#X msg 149 -49 file layer3 90;
#X msg 457 -109 1;
#X msg 404 -110 0;
#X obj 380 -53 bng 15 250 50 0 empty empty empty 17 7 0 10 -262144
-1 -1;
#X obj 405 4 pix_writer;
#X obj 404 -135 select 0;
#X obj 406 -80 metro 1000;
#X msg 405 -26 size 60 40;
#X msg 406 -52 file layer4 90;
#X obj 404 -162 r layer4;
#X msg 642 -106 1;
#X msg 589 -107 0;
#X obj 562 -15 bng 15 250 50 0 empty empty empty 17 7 0 10 -262144
-1 -1;
#X obj 591 -14 pix_writer;
#X obj 589 -129 select 0;
#X obj 591 -77 metro 1000;
#X msg 711 -35 size 60 40;
#X obj 589 -154 r layer5;
#X msg 857 -119 1;
#X msg 804 -120 0;
#X obj 780 -63 bng 15 250 50 0 empty empty empty 17 7 0 10 -262144
-1 -1;
#X obj 805 -6 pix_writer;
#X obj 804 -145 select 0;
#X obj 806 -90 metro 1000;
#X msg 805 -36 size 60 40;
#X obj 804 -172 r layer6;
#X msg 359 118 1;
#X msg 306 117 0;
#X obj 282 174 bng 15 250 50 0 empty empty empty 17 7 0 10 -262144
-1 -1;
#X obj 307 231 pix_writer;
#X obj 306 92 select 0;
#X obj 308 147 metro 1000;
#X msg 307 201 size 60 40;
#X obj 306 65 r layer7;
#X msg 661 97 1;
#X msg 608 96 0;
#X obj 584 153 bng 15 250 50 0 empty empty empty 17 7 0 10 -262144
-1 -1;
#X obj 609 210 pix_writer;
#X obj 608 71 select 0;
#X obj 610 126 metro 1000;
#X msg 609 180 size 60 40;
#X obj 608 44 r layer8;
#X msg 610 154 file layer8 90;
#X msg 308 175 file layer7 90;
#X msg 806 -62 file layer6 90;
#X msg 591 -47 file layer5 90;
#X text -369 -471 (c) 2012 Santi Noreña puremediaserver@gmail.com
GPL License;
#X connect 1 0 49 0;
#X connect 1 1 54 0;
#X connect 1 2 58 0;
#X connect 1 3 57 0;
#X connect 1 4 59 0;
#X connect 1 5 56 0;
#X connect 1 6 60 0;
#X connect 1 7 55 0;
#X connect 3 0 35 0;
#X connect 3 1 4 0;
#X connect 4 0 9 0;
#X connect 4 1 10 0;
#X connect 4 2 11 0;
#X connect 4 3 12 0;
#X connect 4 4 14 0;
#X connect 9 0 5 0;
#X connect 10 0 6 0;
#X connect 11 0 7 0;
#X connect 12 0 8 0;
#X connect 14 0 22 0;
#X connect 14 1 23 0;
#X connect 14 2 24 0;
#X connect 14 3 25 0;
#X connect 14 4 27 0;
#X connect 14 5 28 0;
#X connect 14 6 29 0;
#X connect 14 7 26 0;
#X connect 14 8 52 0;
#X connect 22 0 13 0;
#X connect 23 0 15 0;
#X connect 24 0 16 0;
#X connect 25 0 17 0;
#X connect 26 0 21 0;
#X connect 27 0 18 0;
#X connect 28 0 19 0;
#X connect 29 0 20 0;
#X connect 30 0 31 0;
#X connect 32 0 33 0;
#X connect 35 0 0 0;
#X connect 36 0 3 0;
#X connect 36 0 53 0;
#X connect 36 1 9 1;
#X connect 36 1 10 1;
#X connect 36 1 11 1;
#X connect 36 1 12 1;
#X connect 36 1 22 1;
#X connect 36 1 23 1;
#X connect 36 1 24 1;
#X connect 36 1 25 1;
#X connect 36 1 27 1;
#X connect 36 1 28 1;
#X connect 36 1 29 1;
#X connect 36 1 26 1;
#X connect 36 1 30 1;
#X connect 36 1 32 1;
#X connect 36 1 35 1;
#X connect 36 2 34 0;
#X connect 37 0 36 0;
#X connect 39 0 40 0;
#X connect 39 0 51 0;
#X connect 40 0 38 0;
#X connect 41 0 38 0;
#X connect 42 0 38 0;
#X connect 43 0 38 0;
#X connect 44 0 38 0;
#X connect 45 0 38 0;
#X connect 46 0 38 0;
#X connect 47 0 38 0;
#X connect 48 0 38 0;
#X connect 49 0 41 0;
#X connect 49 1 65 0;
#X connect 50 0 38 0;
#X connect 51 0 50 0;
#X connect 52 0 30 0;
#X connect 52 1 32 0;
#X connect 54 0 42 0;
#X connect 54 1 73 0;
#X connect 55 0 48 0;
#X connect 55 1 124 0;
#X connect 56 0 46 0;
#X connect 56 1 108 0;
#X connect 57 0 44 0;
#X connect 57 1 91 0;
#X connect 58 0 43 0;
#X connect 58 1 82 0;
#X connect 59 0 45 0;
#X connect 59 1 100 0;
#X connect 60 0 47 0;
#X connect 60 1 116 0;
#X connect 61 0 68 0;
#X connect 62 0 68 0;
#X connect 63 0 65 0;
#X connect 64 0 65 0;
#X connect 66 0 67 0;
#X connect 66 0 49 1;
#X connect 67 0 62 0;
#X connect 67 1 61 0;
#X connect 68 0 65 0;
#X connect 68 0 64 0;
#X connect 69 0 65 0;
#X connect 70 0 75 0;
#X connect 71 0 75 0;
#X connect 72 0 73 0;
#X connect 74 0 71 0;
#X connect 74 1 70 0;
#X connect 75 0 73 0;
#X connect 75 0 78 0;
#X connect 76 0 73 0;
#X connect 77 0 74 0;
#X connect 77 0 54 1;
#X connect 78 0 73 0;
#X connect 79 0 84 0;
#X connect 80 0 84 0;
#X connect 81 0 82 0;
#X connect 83 0 80 0;
#X connect 83 1 79 0;
#X connect 84 0 82 0;
#X connect 84 0 87 0;
#X connect 85 0 82 0;
#X connect 86 0 83 0;
#X connect 86 0 58 1;
#X connect 87 0 82 0;
#X connect 88 0 93 0;
#X connect 89 0 93 0;
#X connect 90 0 91 0;
#X connect 92 0 89 0;
#X connect 92 1 88 0;
#X connect 93 0 91 0;
#X connect 93 0 95 0;
#X connect 94 0 91 0;
#X connect 95 0 91 0;
#X connect 96 0 92 0;
#X connect 96 0 57 1;
#X connect 97 0 102 0;
#X connect 98 0 102 0;
#X connect 99 0 100 0;
#X connect 101 0 98 0;
#X connect 101 1 97 0;
#X connect 102 0 100 0;
#X connect 102 0 132 0;
#X connect 103 0 100 0;
#X connect 104 0 101 0;
#X connect 104 0 59 1;
#X connect 105 0 110 0;
#X connect 106 0 110 0;
#X connect 107 0 108 0;
#X connect 109 0 106 0;
#X connect 109 1 105 0;
#X connect 110 0 108 0;
#X connect 110 0 131 0;
#X connect 111 0 108 0;
#X connect 112 0 109 0;
#X connect 112 0 56 1;
#X connect 113 0 118 0;
#X connect 114 0 118 0;
#X connect 115 0 116 0;
#X connect 117 0 114 0;
#X connect 117 1 113 0;
#X connect 118 0 116 0;
#X connect 118 0 130 0;
#X connect 119 0 116 0;
#X connect 120 0 117 0;
#X connect 120 0 60 1;
#X connect 121 0 126 0;
#X connect 122 0 126 0;
#X connect 123 0 124 0;
#X connect 125 0 122 0;
#X connect 125 1 121 0;
#X connect 126 0 124 0;
#X connect 126 0 129 0;
#X connect 127 0 124 0;
#X connect 128 0 125 0;
#X connect 128 0 55 1;
#X connect 129 0 124 0;
#X connect 130 0 116 0;
#X connect 131 0 108 0;
#X connect 132 0 100 0;
#X coords 0 0 1 1 85 60 0;
