#N canvas 81 87 909 491 10;
#X obj 1180 247 symbol;
#X obj 1489 -30 loadbang;
#X obj 738 594 outlet;
#X obj 1360 611 outlet;
#X obj 1316 -33 / 25;
#X obj 1045 245 symbol;
#X obj 899 242 symbol;
#X obj 1316 1 int;
#X obj 636 313 getfilenames;
#X obj 635 121 spigot;
#X msg 835 91 1;
#X msg 835 127 0;
#X msg 1188 128 1;
#X msg 1278 126 2;
#X msg 1344 128 3;
#X msg 1408 129 4;
#X obj 1316 49 select 1 2 3 4;
#X msg 1489 134 0;
#X text 1220 628 Tipo de media: 0 Off 1 Video 2 Imagen 3 Texto 4 Audio
;
#X obj 738 416 inlet;
#X obj 635 16 inlet;
#X obj 1316 -67 inlet;
#X obj 738 503 getfilenames;
#X msg 807 412 symbol \$1;
#X obj 636 349 makefilename %s/*;
#X obj 899 278 makefilename /%s/image/*;
#X obj 1045 281 makefilename /%s/fonts/*;
#X obj 1180 283 makefilename /%s/ogg/*;
#X obj 705 241 makefilename /%s/video/*.vid;
#X text 631 -5 folder;
#X text 736 398 file;
#X msg 705 272 symbol \$1;
#X obj 779 463 t b;
#X obj 705 173 r config_s;
#X obj 899 205 t b;
#X obj 1045 201 t b;
#X obj 1180 200 t b;
#X obj 1316 26 change;
#X obj 636 215 int;
#X obj 738 470 int;
#X obj 568 241 bng 15 250 50 0 empty empty empty 17 7 0 10 -262144
-1 -1;
#X connect 0 0 27 0;
#X connect 1 0 17 0;
#X connect 4 0 7 0;
#X connect 5 0 26 0;
#X connect 6 0 25 0;
#X connect 7 0 37 0;
#X connect 8 0 24 0;
#X connect 9 0 38 0;
#X connect 10 0 9 1;
#X connect 11 0 9 1;
#X connect 12 0 3 0;
#X connect 12 0 38 0;
#X connect 13 0 3 0;
#X connect 13 0 34 0;
#X connect 14 0 3 0;
#X connect 14 0 35 0;
#X connect 15 0 3 0;
#X connect 15 0 36 0;
#X connect 16 0 12 0;
#X connect 16 0 10 0;
#X connect 16 1 13 0;
#X connect 16 1 11 0;
#X connect 16 2 14 0;
#X connect 16 2 11 0;
#X connect 16 3 11 0;
#X connect 16 3 15 0;
#X connect 16 4 11 0;
#X connect 16 4 17 0;
#X connect 17 0 3 0;
#X connect 19 0 39 0;
#X connect 20 0 9 0;
#X connect 21 0 4 0;
#X connect 22 0 2 0;
#X connect 23 0 22 1;
#X connect 23 0 32 0;
#X connect 24 0 23 0;
#X connect 25 0 23 0;
#X connect 26 0 23 0;
#X connect 27 0 23 0;
#X connect 28 0 31 0;
#X connect 31 0 8 1;
#X connect 32 0 22 0;
#X connect 33 0 28 0;
#X connect 33 0 6 0;
#X connect 33 0 5 0;
#X connect 33 0 0 0;
#X connect 34 0 6 0;
#X connect 35 0 5 0;
#X connect 36 0 0 0;
#X connect 37 0 16 0;
#X connect 38 0 8 0;
#X connect 39 0 22 0;
#X connect 40 0 8 0;
