#N canvas -95 135 1272 898 10;
#X obj 371 -25 gemhead;
#X msg 202 338 font \$1;
#X msg 1132 525 justify left base;
#X obj 371 36 rotateXYZ;
#X obj 777 546 text3d;
#X obj 371 8 alpha;
#X obj 371 165 colorRGB;
#X obj 589 99 / 255;
#X obj 541 98 / 127;
#X obj 492 97 / 127;
#X obj 445 96 / 127;
#X obj 446 66 r c2;
#X obj 492 67 r c3;
#X obj 541 68 r c4;
#X obj 589 69 r c1;
#X text 492 51 Green;
#X text 450 50 Red;
#X text 542 52 Blue;
#X text 587 51 Alpha;
#X text 939 88 Texto;
#X obj 642 209 expr $f1 < 25;
#X obj 785 207 expr $f1 >= 25 && $f1 <50;
#X obj 494 -27 r c12;
#X obj 539 -27 r c13;
#X obj 584 -26 r c14;
#X msg 642 287 text hello world!;
#X obj 955 208 expr $f1 >=50 && $f1<75;
#X obj 640 326 bng 15 250 50 0 empty empty empty 17 7 0 10 -262144
-1 -1;
#X obj 791 328 bng 15 250 50 0 empty empty empty 17 7 0 10 -262144
-1 -1;
#X obj 960 327 bng 15 250 50 0 empty empty empty 17 7 0 10 -262144
-1 -1;
#X floatatom 575 204 5 0 0 0 - - -;
#X obj 617 210 bng 15 250 50 0 empty empty empty 17 7 0 10 -262144
-1 -1;
#X floatatom 826 242 5 0 0 0 - - -;
#X obj 806 244 bng 15 250 50 0 empty empty empty 17 7 0 10 -262144
-1 -1;
#X floatatom 1037 233 5 0 0 0 - - -;
#X obj 1013 239 bng 15 250 50 0 empty empty empty 17 7 0 10 -262144
-1 -1;
#X obj 642 249 spigot;
#X obj 784 261 spigot;
#X obj 953 264 spigot;
#X obj 1117 325 bng 15 250 50 0 empty empty empty 17 7 0 10 -262144
-1 -1;
#X obj 1170 237 bng 15 250 50 0 empty empty empty 17 7 0 10 -262144
-1 -1;
#X obj 1110 262 spigot;
#X msg 1112 287 text Server;
#X obj 1112 206 expr $f1 >=75 && $f1<100;
#X msg 955 289 text Media;
#X obj 1283 324 bng 15 250 50 0 empty empty empty 17 7 0 10 -262144
-1 -1;
#X obj 1336 236 bng 15 250 50 0 empty empty empty 17 7 0 10 -262144
-1 -1;
#X obj 1276 261 spigot;
#X msg 1278 286 text Next;
#X obj 1278 205 expr $f1 >=100 && $f1<125;
#X obj 1450 323 bng 15 250 50 0 empty empty empty 17 7 0 10 -262144
-1 -1;
#X obj 1503 235 bng 15 250 50 0 empty empty empty 17 7 0 10 -262144
-1 -1;
#X obj 1443 260 spigot;
#X obj 1445 204 expr $f1 >=125 && $f1<150;
#X msg 1445 285 text Generation;
#X obj 1313 429 r c15;
#X text 1315 412 Size;
#X floatatom 821 119 5 0 0 0 - - -;
#X obj 371 345 translateXYZ;
#X obj 409 206 r c18;
#X obj 470 206 r c19;
#X obj 526 204 r c20;
#X obj 546 14 * 1.5;
#X obj 493 9 * 1.5;
#X obj 440 10 * 1.5;
#X obj 1313 460 / 3;
#X msg 785 291 text Pure;
#X obj 526 257 / 10;
#X obj 526 296 - 20;
#X obj 409 254 / 5;
#X obj 470 257 / 5;
#X obj 407 292 - 25;
#X obj 470 289 - 25;
#X obj 202 -115 inlet;
#X obj 202 -16 spigot;
#X obj 370 -145 inlet;
#X obj 371 -104 select 2;
#X msg 417 -65 0;
#X msg 371 -65 1;
#X obj 943 105 r c6;
#X connect 0 0 5 0;
#X connect 1 0 4 0;
#X connect 2 0 4 0;
#X connect 3 0 6 0;
#X connect 5 0 3 0;
#X connect 6 0 58 0;
#X connect 7 0 6 4;
#X connect 8 0 6 3;
#X connect 9 0 6 2;
#X connect 10 0 6 1;
#X connect 11 0 10 0;
#X connect 12 0 9 0;
#X connect 13 0 8 0;
#X connect 14 0 7 0;
#X connect 20 0 30 0;
#X connect 20 0 31 0;
#X connect 20 0 36 1;
#X connect 20 0 36 0;
#X connect 21 0 32 0;
#X connect 21 0 33 0;
#X connect 21 0 37 1;
#X connect 21 0 37 0;
#X connect 22 0 64 0;
#X connect 23 0 63 0;
#X connect 24 0 62 0;
#X connect 25 0 4 0;
#X connect 25 0 27 0;
#X connect 26 0 35 0;
#X connect 26 0 34 0;
#X connect 26 0 38 1;
#X connect 26 0 38 0;
#X connect 36 0 25 0;
#X connect 37 0 66 0;
#X connect 38 0 44 0;
#X connect 41 0 42 0;
#X connect 42 0 39 0;
#X connect 42 0 4 0;
#X connect 43 0 40 0;
#X connect 43 0 41 1;
#X connect 43 0 41 0;
#X connect 44 0 4 0;
#X connect 44 0 29 0;
#X connect 47 0 48 0;
#X connect 48 0 45 0;
#X connect 48 0 4 0;
#X connect 49 0 46 0;
#X connect 49 0 47 1;
#X connect 49 0 47 0;
#X connect 52 0 54 0;
#X connect 53 0 51 0;
#X connect 53 0 52 1;
#X connect 53 0 52 0;
#X connect 54 0 50 0;
#X connect 54 0 4 0;
#X connect 55 0 65 0;
#X connect 58 0 4 0;
#X connect 59 0 69 0;
#X connect 60 0 70 0;
#X connect 61 0 67 0;
#X connect 62 0 3 3;
#X connect 63 0 3 2;
#X connect 64 0 3 1;
#X connect 65 0 4 1;
#X connect 66 0 4 0;
#X connect 66 0 28 0;
#X connect 67 0 68 0;
#X connect 68 0 58 3;
#X connect 69 0 71 0;
#X connect 70 0 72 0;
#X connect 71 0 58 1;
#X connect 72 0 58 2;
#X connect 73 0 74 0;
#X connect 74 0 1 0;
#X connect 75 0 76 0;
#X connect 76 0 78 0;
#X connect 76 1 77 0;
#X connect 77 0 0 0;
#X connect 77 0 74 1;
#X connect 78 0 0 0;
#X connect 78 0 74 1;
#X connect 79 0 20 0;
#X connect 79 0 21 0;
#X connect 79 0 26 0;
#X connect 79 0 43 0;
#X connect 79 0 49 0;
#X connect 79 0 53 0;
#X connect 79 0 57 0;
