#N canvas 0 0 450 300 10;
#X obj 401 5 gemhead;
#X msg 232 368 font \$1;
#X msg 1162 555 justify left base;
#X obj 401 66 rotateXYZ;
#X obj 807 576 text3d;
#X obj 401 38 alpha;
#X obj 401 195 colorRGB;
#X obj 619 129 / 255;
#X obj 571 128 / 127;
#X obj 522 127 / 127;
#X obj 475 126 / 127;
#X obj 672 239 expr $f1 < 25;
#X obj 815 237 expr $f1 >= 25 && $f1 <50;
#X msg 672 317 text hello world!;
#X obj 985 238 expr $f1 >=50 && $f1<75;
#X obj 670 356 bng 15 250 50 0 empty empty empty 17 7 0 10 -262144
-1 -1;
#X obj 821 358 bng 15 250 50 0 empty empty empty 17 7 0 10 -262144
-1 -1;
#X obj 990 357 bng 15 250 50 0 empty empty empty 17 7 0 10 -262144
-1 -1;
#X obj 647 240 bng 15 250 50 0 empty empty empty 17 7 0 10 -262144
-1 -1;
#X floatatom 856 272 5 0 0 0 - - -;
#X obj 836 274 bng 15 250 50 0 empty empty empty 17 7 0 10 -262144
-1 -1;
#X floatatom 1067 263 5 0 0 0 - - -;
#X obj 1043 269 bng 15 250 50 0 empty empty empty 17 7 0 10 -262144
-1 -1;
#X obj 672 279 spigot;
#X obj 814 291 spigot;
#X obj 983 294 spigot;
#X obj 1147 355 bng 15 250 50 0 empty empty empty 17 7 0 10 -262144
-1 -1;
#X obj 1200 267 bng 15 250 50 0 empty empty empty 17 7 0 10 -262144
-1 -1;
#X obj 1140 292 spigot;
#X msg 1142 317 text Server;
#X obj 1142 236 expr $f1 >=75 && $f1<100;
#X msg 985 319 text Media;
#X obj 1313 354 bng 15 250 50 0 empty empty empty 17 7 0 10 -262144
-1 -1;
#X obj 1366 266 bng 15 250 50 0 empty empty empty 17 7 0 10 -262144
-1 -1;
#X obj 1306 291 spigot;
#X msg 1308 316 text Next;
#X obj 1308 235 expr $f1 >=100 && $f1<125;
#X obj 1480 353 bng 15 250 50 0 empty empty empty 17 7 0 10 -262144
-1 -1;
#X obj 1533 265 bng 15 250 50 0 empty empty empty 17 7 0 10 -262144
-1 -1;
#X obj 1473 290 spigot;
#X obj 1475 234 expr $f1 >=125 && $f1<150;
#X msg 1475 315 text Generation;
#X obj 401 375 translateXYZ;
#X obj 576 44 * 1.5;
#X obj 523 39 * 1.5;
#X obj 470 40 * 1.5;
#X obj 1343 490 / 3;
#X msg 815 321 text Pure;
#X obj 556 287 / 10;
#X obj 556 326 - 20;
#X obj 439 284 / 5;
#X obj 500 287 / 5;
#X obj 437 322 - 25;
#X obj 500 319 - 25;
#X obj 232 -85 inlet;
#X obj 232 14 spigot;
#X obj 400 -115 inlet;
#X msg 446 -36 0;
#X msg 401 -35 1;
#X obj 401 -74 select 3;
#X text 834 -109 Texto c6;
#X obj 838 -92 inlet;
#X text 925 -105 c12;
#X text 967 -102 c13;
#X text 1006 -102 c14;
#X obj 920 -82 inlet;
#X obj 965 -82 inlet;
#X obj 1010 -81 inlet;
#X text 1091 -97 Red c2;
#X text 1133 -96 Green c3;
#X text 1183 -95 Blue c4;
#X text 1228 -96 Alpha c1;
#X obj 1133 -80 inlet;
#X obj 1087 -81 inlet;
#X obj 1182 -79 inlet;
#X obj 1230 -78 inlet;
#X text 1301 -95 c18;
#X text 1363 -92 c19;
#X text 1421 -95 c20;
#X obj 1303 -73 inlet;
#X obj 1364 -73 inlet;
#X obj 1420 -75 inlet;
#X text 1487 -92 Size c15;
#X obj 1485 -75 inlet;
#X connect 0 0 5 0;
#X connect 1 0 4 0;
#X connect 2 0 4 0;
#X connect 3 0 6 0;
#X connect 5 0 3 0;
#X connect 6 0 42 0;
#X connect 7 0 6 4;
#X connect 8 0 6 3;
#X connect 9 0 6 2;
#X connect 10 0 6 1;
#X connect 11 0 18 0;
#X connect 11 0 23 1;
#X connect 11 0 23 0;
#X connect 12 0 19 0;
#X connect 12 0 20 0;
#X connect 12 0 24 1;
#X connect 12 0 24 0;
#X connect 13 0 4 0;
#X connect 13 0 15 0;
#X connect 14 0 22 0;
#X connect 14 0 21 0;
#X connect 14 0 25 1;
#X connect 14 0 25 0;
#X connect 23 0 13 0;
#X connect 24 0 47 0;
#X connect 25 0 31 0;
#X connect 28 0 29 0;
#X connect 29 0 26 0;
#X connect 29 0 4 0;
#X connect 30 0 27 0;
#X connect 30 0 28 1;
#X connect 30 0 28 0;
#X connect 31 0 4 0;
#X connect 31 0 17 0;
#X connect 34 0 35 0;
#X connect 35 0 32 0;
#X connect 35 0 4 0;
#X connect 36 0 33 0;
#X connect 36 0 34 1;
#X connect 36 0 34 0;
#X connect 39 0 41 0;
#X connect 40 0 38 0;
#X connect 40 0 39 1;
#X connect 40 0 39 0;
#X connect 41 0 37 0;
#X connect 41 0 4 0;
#X connect 42 0 4 0;
#X connect 43 0 3 3;
#X connect 44 0 3 2;
#X connect 45 0 3 1;
#X connect 46 0 4 1;
#X connect 47 0 4 0;
#X connect 47 0 16 0;
#X connect 48 0 49 0;
#X connect 49 0 42 3;
#X connect 50 0 52 0;
#X connect 51 0 53 0;
#X connect 52 0 42 1;
#X connect 53 0 42 2;
#X connect 54 0 55 0;
#X connect 55 0 1 0;
#X connect 56 0 59 0;
#X connect 57 0 0 0;
#X connect 57 0 55 1;
#X connect 58 0 0 0;
#X connect 58 0 55 1;
#X connect 59 0 58 0;
#X connect 59 1 57 0;
#X connect 61 0 11 0;
#X connect 61 0 12 0;
#X connect 61 0 14 0;
#X connect 61 0 30 0;
#X connect 61 0 36 0;
#X connect 61 0 40 0;
#X connect 65 0 45 0;
#X connect 66 0 44 0;
#X connect 67 0 43 0;
#X connect 72 0 9 0;
#X connect 73 0 10 0;
#X connect 74 0 8 0;
#X connect 75 0 7 0;
#X connect 79 0 50 0;
#X connect 80 0 51 0;
#X connect 81 0 48 0;
#X connect 83 0 46 0;
