#N canvas 456 57 923 742 10;
#X obj 144 187 pix_film;
#X msg 16 122 open \$1;
#X obj 166 232 unpack f f f;
#X obj 144 758 pix_texture;
#X obj 144 419 colorRGB;
#X obj 343 341 / 255;
#X obj 295 340 / 127;
#X obj 246 339 / 127;
#X obj 199 338 / 127;
#X obj 200 308 r c2;
#X obj 246 309 r c3;
#X obj 295 310 r c4;
#X obj 343 311 r c1;
#X obj 144 -27 gemhead;
#X obj 16 -16 spigot;
#X text 246 293 Green;
#X text 204 292 Red;
#X text 296 294 Blue;
#X text 341 293 Alpha;
#X obj 196 112 pix_film_player_1;
#X obj 144 42 rotateXYZ;
#X obj 251 -42 r c12;
#X obj 311 -44 r c13;
#X obj 370 -42 r c14;
#X obj 169 453 r c18;
#X obj 222 454 r c19;
#X obj 273 452 r c20;
#X obj 251 -6 * 1.5;
#X obj 311 -2 * 1.5;
#X obj 370 -2 * 1.5;
#X obj 281 601 r c15;
#X obj 326 601 r c16;
#X obj 374 600 r c17;
#X obj 281 669 pack f f f;
#X msg 169 662 1;
#X obj 169 627 loadbang;
#X floatatom 338 129 5 0 0 0 - - -;
#X floatatom 268 249 5 0 0 0 - - -;
#X obj 144 88 color 0 0 0;
#X obj 365 204 bng 15 250 50 0 empty empty empty 17 7 0 10 -262144
-1 -1;
#X obj 144 571 translateXYZ;
#X obj 273 529 - 20;
#X obj 273 487 / 10;
#X obj 405 689 t b;
#X obj 281 636 / 128;
#X obj 326 635 / 128;
#X obj 222 488 / 5;
#X obj 169 487 / 5;
#X obj 169 531 - 25;
#X obj 222 530 - 25;
#X obj 16 -135 inlet;
#X obj 142 -146 inlet;
#X obj 142 -105 select 0;
#X msg 187 -67 0;
#X msg 142 -67 1;
#X obj 144 7 alpha;
#X obj 374 637 / 128;
#X obj 144 712 scale XYZ;
#X obj 144 801 rectangle 16 12;
#X connect 0 0 4 0;
#X connect 0 1 2 0;
#X connect 0 2 39 0;
#X connect 0 2 19 0;
#X connect 1 0 0 0;
#X connect 2 0 19 1;
#X connect 2 0 37 0;
#X connect 3 0 58 0;
#X connect 4 0 40 0;
#X connect 5 0 4 4;
#X connect 6 0 4 3;
#X connect 7 0 4 2;
#X connect 8 0 4 1;
#X connect 9 0 8 0;
#X connect 10 0 7 0;
#X connect 11 0 6 0;
#X connect 12 0 5 0;
#X connect 13 0 55 0;
#X connect 14 0 1 0;
#X connect 19 0 0 0;
#X connect 19 1 0 1;
#X connect 19 1 36 0;
#X connect 20 0 38 0;
#X connect 21 0 27 0;
#X connect 22 0 28 0;
#X connect 23 0 29 0;
#X connect 24 0 47 0;
#X connect 25 0 46 0;
#X connect 26 0 42 0;
#X connect 27 0 20 1;
#X connect 28 0 20 2;
#X connect 29 0 20 3;
#X connect 30 0 44 0;
#X connect 31 0 45 0;
#X connect 32 0 56 0;
#X connect 33 0 57 2;
#X connect 34 0 57 1;
#X connect 35 0 34 0;
#X connect 38 0 0 0;
#X connect 40 0 57 0;
#X connect 41 0 40 3;
#X connect 42 0 41 0;
#X connect 43 0 33 0;
#X connect 44 0 33 0;
#X connect 45 0 33 1;
#X connect 45 0 43 0;
#X connect 46 0 49 0;
#X connect 47 0 48 0;
#X connect 48 0 40 1;
#X connect 49 0 40 2;
#X connect 50 0 14 0;
#X connect 51 0 52 0;
#X connect 52 0 54 0;
#X connect 52 1 53 0;
#X connect 53 0 13 0;
#X connect 53 0 14 1;
#X connect 54 0 13 0;
#X connect 54 0 14 1;
#X connect 55 0 20 0;
#X connect 56 0 33 2;
#X connect 56 0 43 0;
#X connect 57 0 3 0;
