#N canvas 1 301 765 627 10;
#X msg 16 122 open \$1;
#X obj 142 8 gemhead;
#X obj 16 -16 spigot;
#X floatatom 181 238 5 0 0 0 - - -;
#X obj 16 -135 inlet;
#X obj 142 -146 inlet;
#X msg 187 -67 0;
#X msg 142 -67 1;
#X obj 142 -105 select 1;
#X obj 162 180 pdp_qt~;
#X obj 141 354 pdp2gem;
#X obj 141 425 outlet;
#X msg 2 274 colorspace YUV;
#X obj 271 -70 world_light;
#X obj 271 -97 gemhead;
#X obj 344 100 pdp_qt_player;
#X obj 357 281 outlet~;
#X obj 298 280 outlet~;
#X floatatom 419 149 5 0 0 0 - - -;
#X floatatom 171 284 5 0 0 0 - - -;
#X connect 0 0 9 0;
#X connect 1 0 10 0;
#X connect 2 0 0 0;
#X connect 4 0 2 0;
#X connect 5 0 8 0;
#X connect 6 0 1 0;
#X connect 6 0 2 1;
#X connect 7 0 1 0;
#X connect 7 0 2 1;
#X connect 8 0 7 0;
#X connect 8 1 6 0;
#X connect 9 0 10 0;
#X connect 9 1 19 0;
#X connect 9 2 3 0;
#X connect 9 2 15 0;
#X connect 9 3 17 0;
#X connect 9 4 16 0;
#X connect 10 0 11 0;
#X connect 12 0 10 0;
#X connect 14 0 13 0;
#X connect 15 0 9 0;
#X connect 15 1 9 1;
#X connect 15 1 18 0;
