#N canvas 1028 205 1016 535 10;
#X obj 172 53 inlet;
#X obj 243 56 inlet;
#X obj 216 705 pix_texture;
#X obj 216 366 colorRGB;
#X obj 465 265 / 255;
#X text 530 53 Green;
#X text 488 52 Red;
#X text 580 54 Blue;
#X text 625 53 Alpha;
#X obj 216 209 rotateXYZ;
#X obj 304 96 * 1.5;
#X obj 364 100 * 1.5;
#X obj 423 100 * 1.5;
#X obj 698 591 pack f f f;
#X msg 241 596 1;
#X obj 241 561 loadbang;
#X obj 216 518 translateXYZ;
#X obj 838 564 t b;
#X obj 216 659 scale XYZ;
#X obj 216 748 rectangle 16 12;
#X obj 216 146 alpha;
#X text 303 39 c12;
#X text 363 35 c13;
#X text 425 41 c14;
#X text 480 39 c2;
#X text 526 43 c3;
#X text 575 43 c4;
#X text 622 41 c1;
#X text 683 51 c18;
#X text 736 54 c19;
#X text 784 51 c20;
#X text 857 56 c15;
#X text 903 51 c16;
#X text 958 51 c17;
#X obj 304 60 inlet;
#X obj 364 58 inlet;
#X obj 423 60 inlet;
#X obj 484 68 inlet;
#X obj 530 69 inlet;
#X obj 579 70 inlet;
#X obj 627 71 inlet;
#X obj 685 71 inlet;
#X obj 738 72 inlet;
#X obj 789 70 inlet;
#X obj 861 72 inlet;
#X obj 906 72 inlet;
#X obj 954 71 inlet;
#X obj 216 268 pix_alpha;
#X msg -161 221 0;
#X msg -120 221 1;
#X obj -79 217 pack f f f;
#X obj -79 67 vsl 15 128 0 127 0 0 empty empty empty 0 -9 0 10 -262144
-1 -1 0 1;
#X obj -51 66 vsl 15 128 0 127 0 0 empty empty empty 0 -9 0 10 -262144
-1 -1 0 1;
#X obj -22 69 vsl 15 128 0 127 0 0 empty empty empty 0 -9 0 10 -262144
-1 -1 0 1;
#X obj 50 205 pack f f f;
#X obj 50 55 vsl 15 128 0 127 0 0 empty empty empty 0 -9 0 10 -262144
-1 -1 0 1;
#X obj 73 53 vsl 15 128 0 127 0 0 empty empty empty 0 -9 0 10 -262144
-1 -1 0 1;
#X obj 103 56 vsl 15 128 0 127 0 0 empty empty empty 0 -9 0 10 -262144
-1 -1 0 1;
#X obj 473 369 - 32768;
#X obj 411 367 - 32768;
#X obj 411 416 / 4096;
#X obj 473 418 / 4096;
#X obj 536 416 / 4096;
#X obj 655 521 / 128;
#X obj 700 520 / 128;
#X obj 748 522 / 128;
#X obj 536 372 - 32768;
#X obj 536 459 - 8;
#X obj 321 262 / 128;
#X obj 368 263 / 128;
#X obj 417 264 / 128;
#X connect 0 0 20 0;
#X connect 1 0 20 0;
#X connect 2 0 19 0;
#X connect 3 0 16 0;
#X connect 4 0 3 4;
#X connect 9 0 47 0;
#X connect 10 0 9 1;
#X connect 11 0 9 2;
#X connect 12 0 9 3;
#X connect 13 0 18 2;
#X connect 14 0 18 1;
#X connect 15 0 14 0;
#X connect 16 0 18 0;
#X connect 17 0 13 0;
#X connect 18 0 2 0;
#X connect 20 0 9 0;
#X connect 34 0 10 0;
#X connect 35 0 11 0;
#X connect 36 0 12 0;
#X connect 37 0 68 0;
#X connect 38 0 69 0;
#X connect 39 0 70 0;
#X connect 40 0 4 0;
#X connect 41 0 59 0;
#X connect 42 0 58 0;
#X connect 43 0 66 0;
#X connect 44 0 63 0;
#X connect 45 0 64 0;
#X connect 46 0 65 0;
#X connect 47 0 3 0;
#X connect 48 0 47 1;
#X connect 49 0 47 2;
#X connect 50 0 47 3;
#X connect 51 0 50 0;
#X connect 52 0 50 1;
#X connect 53 0 50 2;
#X connect 54 0 47 4;
#X connect 55 0 54 0;
#X connect 56 0 54 1;
#X connect 57 0 54 2;
#X connect 58 0 61 0;
#X connect 59 0 60 0;
#X connect 60 0 16 1;
#X connect 61 0 16 2;
#X connect 62 0 67 0;
#X connect 63 0 13 0;
#X connect 64 0 13 1;
#X connect 64 0 17 0;
#X connect 65 0 13 2;
#X connect 65 0 17 0;
#X connect 66 0 62 0;
#X connect 67 0 16 3;
#X connect 68 0 3 1;
#X connect 69 0 3 2;
#X connect 70 0 3 3;
