#N canvas 0 54 1280 852 10;
#X obj 152 313 pix_texture;
#X obj 318 296 pix_aging;
#X obj 317 509 pix_kaleidoscope;
#X floatatom 398 461 5 0 0 0 - - -;
#X floatatom 451 461 5 0 0 0 - - -;
#X floatatom 500 461 5 0 0 0 - - -;
#X floatatom 553 461 5 0 0 0 - - -;
#X floatatom 603 460 5 0 0 0 - - -;
#X floatatom 657 461 5 0 0 0 - - -;
#X floatatom 710 461 5 0 0 0 - - -;
#X obj 318 322 pix_duotone;
#X obj 318 349 pix_halftone;
#X obj 324 160 pix_invert;
#X floatatom 457 353 5 0 0 0 - - -;
#X obj 319 377 pix_motionblur 0.8;
#X obj 319 405 pix_puzzle;
#X obj 319 431 pix_posterize;
#X floatatom 415 403 5 0 0 0 - - -;
#X floatatom 465 402 5 0 0 0 - - -;
#X obj 319 457 pix_rds;
#X obj 331 269 pix_refraction;
#X obj 317 241 pix_roll;
#X floatatom 394 241 5 0 0 0 - - -;
#X obj 320 208 pix_rtx;
#X obj 490 148 bng 15 250 50 0 empty empty empty 0 -6 0 8 -262144 -1
-1;
#X obj 492 76 tgl 15 0 empty empty empty 0 -6 0 8 -262144 -1 -1 0 1
;
#X obj 512 205 line;
#X msg 478 173 0 \, 288 500;
#X obj 473 118 metro 1000;
#X msg 195 470 scratch \$1;
#X floatatom 208 433 5 0 0 0 - - -;
#X floatatom 217 507 5 0 0 0 - - -;
#X obj 144 376 square 4;
#X obj 100 85 gem_route;
#X connect 0 0 32 0;
#X connect 1 0 0 0;
#X connect 3 0 2 1;
#X connect 4 0 2 2;
#X connect 5 0 2 3;
#X connect 6 0 2 4;
#X connect 7 0 2 5;
#X connect 8 0 2 6;
#X connect 9 0 2 7;
#X connect 13 0 14 1;
#X connect 17 0 16 1;
#X connect 18 0 16 2;
#X connect 21 0 1 0;
#X connect 22 0 21 1;
#X connect 25 0 28 0;
#X connect 26 0 22 0;
#X connect 27 0 26 0;
#X connect 28 0 27 0;
#X connect 28 0 24 0;
#X connect 29 0 31 0;
#X connect 30 0 29 0;
