#N canvas 613 51 595 610 10;
#X declare -lib cyclone;
#X obj 227 124 pix_film;
#X msg 300 34 open \$1;
#X msg 372 68 auto \$1;
#X obj 372 -4 tgl 40 1 empty empty empty 0 -6 0 8 -262144 -1 -1 1 1
;
#X obj 300 0 inlet;
#X obj 586 139 counter;
#X obj 625 111 r nbf;
#X msg 595 111 2;
#X obj 586 86 metro 20;
#X obj 643 88 loadbang;
#X obj 589 38 hsl 128 15 100 10 0 0 empty empty empty -2 -8 0 10 -262144
-1 -1 8700 1;
#X obj 586 58 t b f;
#X obj 586 172 s frame;
#X floatatom 641 173 5 0 0 0 - - -;
#X text 586 20 adjust speed;
#X obj 732 2 r nbf;
#X obj 732 22 bng 15 250 50 0 empty empty empty 17 7 0 10 -262144 -1
-1;
#X obj 442 66 r frame;
#X obj 249 152 unpack f f f;
#X floatatom 249 179 5 0 0 0 - - -;
#X obj 249 206 s nbf;
#X obj 227 398 pix_texture;
#X obj 17 7 import cyclone;
#X obj 228 227 alpha;
#X floatatom 305 261 5 0 0 0 - - -;
#X floatatom 298 233 5 0 0 0 - - -;
#X floatatom 321 292 5 0 0 0 - - -;
#X obj 391 225 hsl 128 15 0 2 0 0 empty empty empty -2 -8 0 10 -262144
-1 -1 6000 1;
#X obj 392 258 hsl 128 15 0 2 0 0 empty empty empty -2 -8 0 10 -262144
-1 -1 6500 1;
#X obj 393 287 hsl 128 15 0 2 0 0 empty empty empty -2 -8 0 10 -262144
-1 -1 7200 1;
#X obj 407 324 hsl 128 15 0 1 0 0 empty empty empty -2 -8 0 10 -262144
-1 -1 12700 1;
#X obj 228 311 colorRGB;
#X floatatom 341 332 5 0 0 0 - - -;
#X obj 227 23 gemhead 20;
#X obj 227 497 rectangle 8 6;
#X connect 0 0 23 0;
#X connect 0 1 18 0;
#X connect 1 0 0 0;
#X connect 2 0 0 0;
#X connect 3 0 2 0;
#X connect 4 0 1 0;
#X connect 5 0 12 0;
#X connect 5 0 13 0;
#X connect 6 0 5 4;
#X connect 7 0 5 1;
#X connect 8 0 5 0;
#X connect 9 0 7 0;
#X connect 10 0 11 0;
#X connect 11 0 8 0;
#X connect 11 1 8 1;
#X connect 15 0 16 0;
#X connect 16 0 10 0;
#X connect 17 0 0 1;
#X connect 18 0 19 0;
#X connect 19 0 20 0;
#X connect 21 0 34 0;
#X connect 23 0 31 0;
#X connect 24 0 31 2;
#X connect 25 0 31 1;
#X connect 26 0 31 3;
#X connect 27 0 25 0;
#X connect 28 0 24 0;
#X connect 29 0 26 0;
#X connect 30 0 32 0;
#X connect 31 0 21 0;
#X connect 32 0 31 4;
#X connect 33 0 0 0;
