#N canvas 0 54 1666 940 10;
#X obj 340 947 dac~;
#X msg 98 304 open \$1;
#X msg 341 627 start;
#X msg 451 628 stop;
#X msg 395 627 pause;
#X obj 339 905 *~;
#X obj 370 905 *~;
#X floatatom 726 555 5 0 0 0 - - -;
#X obj 615 606 dbtorms;
#X obj 615 653 pack 0 50;
#X obj 689 815 line~;
#X msg 870 507 90;
#X obj 341 742 oggread~;
#X floatatom 371 778 5 0 0 0 - - -;
#X obj 428 780 bng 15 250 50 0 empty empty empty 17 7 0 10 -262144
-1 -1;
#X msg 504 630 resume;
#X obj 98 132 inlet;
#X obj 193 132 inlet;
#X obj 98 251 spigot;
#X obj 193 173 select 3;
#X msg 193 207 1;
#X msg 238 208 0;
#X obj 396 146 r c9;
#X obj 396 362 cambio;
#X obj 396 406 / 25;
#X obj 396 462 select 0 6 7;
#X obj 615 141 r c21;
#X obj 615 194 / 2.55;
#X obj 396 433 int;
#X obj 396 306 spigot;
#X obj 780 145 r c22;
#X obj 560 816 line~;
#X text 618 122 Vol;
#X text 783 125 Pan;
#X obj 780 203 / 255;
#X connect 1 0 12 0;
#X connect 2 0 12 0;
#X connect 3 0 12 0;
#X connect 4 0 12 0;
#X connect 5 0 0 0;
#X connect 6 0 0 1;
#X connect 7 0 8 0;
#X connect 8 0 9 0;
#X connect 9 0 31 0;
#X connect 9 0 10 0;
#X connect 10 0 6 1;
#X connect 11 0 7 0;
#X connect 11 0 10 1;
#X connect 12 0 5 0;
#X connect 12 1 6 0;
#X connect 12 2 13 0;
#X connect 12 3 14 0;
#X connect 15 0 12 0;
#X connect 16 0 18 0;
#X connect 17 0 19 0;
#X connect 18 0 1 0;
#X connect 19 0 20 0;
#X connect 19 1 21 0;
#X connect 20 0 18 1;
#X connect 20 0 29 1;
#X connect 21 0 18 1;
#X connect 21 0 29 1;
#X connect 22 0 29 0;
#X connect 23 0 24 0;
#X connect 24 0 28 0;
#X connect 25 0 2 0;
#X connect 25 1 4 0;
#X connect 25 2 15 0;
#X connect 26 0 27 0;
#X connect 27 0 8 0;
#X connect 27 0 10 1;
#X connect 27 0 31 1;
#X connect 28 0 25 0;
#X connect 29 0 23 0;
#X connect 30 0 34 0;
#X connect 31 0 5 1;
