#N canvas 616 54 925 926 10;
#X obj 95 -14 r c7;
#X obj 95 110 cambio;
#X obj 188 -14 r c8;
#X floatatom 344 46 5 0 0 0 - - -;
#X floatatom 126 3 5 0 0 0 - - -;
#X obj 95 76 spigot;
#X floatatom 204 93 5 0 0 0 - - -;
#X floatatom 276 126 5 0 0 0 - - -;
#X obj 188 29 expr $f1 >= 76 && $f1<100;
#X symbolatom 95 628 80 0 0 0 - - -;
#X text 497 496 Note : you can scroll the list by dragging;
#X text 495 507 the mouse in the yellow area;
#X text 497 518 You can select and scroll in the blue area;
#X obj 95 426 playlist ogg 400 200 {Helvetica 14 normal} grey yellow
black red;
#X msg 95 176 seek \$1;
#X symbolatom 291 654 50 0 0 0 - - -;
#X symbolatom 488 678 50 0 0 0 - - -;
#X msg 760 262 sort \$1;
#X obj 760 232 tgl 15 0 empty empty empty 0 -6 0 8 -262144 -1 -1 1
1;
#X text 761 210 Use alphabetical or creation time order;
#X msg 250 164 font Helvetica normal 14;
#X obj 631 231 tgl 15 0 empty empty empty 0 -6 0 8 -262144 -1 -1 1
1;
#X msg 631 262 graphics \$1;
#X text 521 207 Show or hide graphics;
#X msg 687 161 1;
#X obj 412 165 config;
#X msg 412 270 location \$1;
#X obj 412 202 symbol;
#X obj 540 101 loadbang;
#X obj 180 947 dac~;
#X obj -3 776 mp3play~;
#X msg 94 675 open \$1;
#X msg 161 677 start;
#X msg 258 676 stop;
#X msg 212 674 pause;
#X obj 150 908 *~;
#X obj 231 915 *~;
#X floatatom 192 776 5 0 0 0 - - -;
#X obj 189 806 dbtorms;
#X obj 187 842 pack 0 50;
#X obj 186 873 line~;
#X msg 292 741 90;
#X obj 22 861 speedlim 50;
#X floatatom 24 899 5 0 0 0 - - -;
#X obj 58 778 bng 15 250 50 0 empty empty empty 17 7 0 10 -262144 -1
-1;
#X obj 48 628 bng 15 250 50 0 empty empty empty 17 7 0 10 -262144 -1
-1;
#X obj 341 742 oggread~;
#X floatatom 372 779 5 0 0 0 - - -;
#X obj 423 744 bng 15 250 50 0 empty empty empty 17 7 0 10 -262144
-1 -1;
#X msg 324 684 resume;
#X obj 412 238 makefilename %s/ogg;
#X obj 459 105 bng 15 250 50 0 empty empty empty 17 7 0 10 -262144
-1 -1;
#X connect 0 0 4 0;
#X connect 0 0 5 0;
#X connect 1 0 7 0;
#X connect 1 0 14 0;
#X connect 2 0 8 0;
#X connect 5 0 6 0;
#X connect 5 0 1 0;
#X connect 8 0 3 0;
#X connect 8 0 5 1;
#X connect 13 0 9 0;
#X connect 13 0 31 0;
#X connect 13 0 45 0;
#X connect 13 1 15 0;
#X connect 13 2 16 0;
#X connect 14 0 13 0;
#X connect 17 0 13 0;
#X connect 18 0 17 0;
#X connect 20 0 13 0;
#X connect 21 0 22 0;
#X connect 22 0 13 0;
#X connect 24 0 21 0;
#X connect 24 0 18 0;
#X connect 25 0 27 0;
#X connect 26 0 13 0;
#X connect 27 0 50 0;
#X connect 28 0 25 0;
#X connect 28 0 24 0;
#X connect 28 0 20 0;
#X connect 30 0 35 0;
#X connect 30 1 36 0;
#X connect 30 2 42 0;
#X connect 30 3 44 0;
#X connect 31 0 46 0;
#X connect 32 0 30 0;
#X connect 32 0 46 0;
#X connect 33 0 30 0;
#X connect 33 0 46 0;
#X connect 34 0 30 0;
#X connect 35 0 29 0;
#X connect 36 0 29 1;
#X connect 37 0 38 0;
#X connect 38 0 39 0;
#X connect 39 0 40 0;
#X connect 40 0 35 1;
#X connect 40 0 36 1;
#X connect 41 0 37 0;
#X connect 41 0 40 1;
#X connect 42 0 43 0;
#X connect 46 0 35 0;
#X connect 46 1 36 0;
#X connect 46 2 47 0;
#X connect 46 3 48 0;
#X connect 49 0 46 0;
#X connect 50 0 26 0;
#X connect 51 0 25 0;
