#N canvas 0 87 1366 681 10;
#X obj 639 538 *~ 0;
#X obj 696 538 *~ 0;
#X obj 717 460 dbtorms;
#X obj 660 460 dbtorms;
#X obj 345 53 inlet~;
#X obj 424 55 inlet~;
#X obj 688 652 dac~;
#X obj 775 136 / 2.55;
#X obj 489 56 inlet~;
#X obj 576 56 inlet~;
#X obj 677 59 inlet;
#X obj 418 374 spigot~;
#X obj 946 372 spigot~;
#X obj 859 370 spigot~;
#X obj 498 375 spigot~;
#X obj 677 266 sel 1 4;
#X msg 577 328 0;
#X msg 622 329 1;
#X msg 763 330 0;
#X msg 805 329 1;
#X text 635 33 Selector entrada;
#X text 392 31 L/R;
#X text 543 26 L/R;
#X obj 775 60 inlet;
#X text 769 36 Volumen c21;
#X obj 903 69 inlet;
#X text 895 43 Pan c22;
#X obj 639 609 gpan~;
#X obj 903 132 / 255;
#X connect 0 0 27 0;
#X connect 1 0 27 1;
#X connect 2 0 1 1;
#X connect 3 0 0 1;
#X connect 4 0 11 0;
#X connect 5 0 14 0;
#X connect 7 0 3 0;
#X connect 7 0 2 0;
#X connect 8 0 13 0;
#X connect 9 0 12 0;
#X connect 10 0 15 0;
#X connect 11 0 0 0;
#X connect 12 0 1 0;
#X connect 13 0 0 0;
#X connect 14 0 1 0;
#X connect 15 0 16 0;
#X connect 15 0 19 0;
#X connect 15 1 17 0;
#X connect 15 1 18 0;
#X connect 15 2 17 0;
#X connect 15 2 19 0;
#X connect 16 0 11 1;
#X connect 16 0 14 1;
#X connect 17 0 14 1;
#X connect 17 0 11 1;
#X connect 18 0 13 1;
#X connect 18 0 12 1;
#X connect 19 0 13 1;
#X connect 19 0 12 1;
#X connect 23 0 7 0;
#X connect 25 0 28 0;
#X connect 27 0 6 0;
#X connect 27 1 6 1;
#X connect 28 0 27 2;
