#N canvas 0 554 1379 363 10;
#X obj 205 -51 artnetin;
#X obj 102 298 list split 32;
#X obj -698 547 s c1;
#X obj -653 547 s c2;
#X obj -604 548 s c3;
#X obj -508 551 s c5;
#X obj -461 554 s c6;
#X obj -411 554 s c7;
#X obj -364 553 s c8;
#X obj -317 554 s c9;
#X obj -272 554 s c10;
#X obj -226 554 s c11;
#X obj -180 556 s c12;
#X obj -130 558 s c13;
#X obj -81 556 s c14;
#X obj -33 557 s c15;
#X obj 18 561 s c16;
#X obj 66 589 s c17;
#X obj 111 593 s c18;
#X obj 155 597 s c19;
#X obj 203 597 s c20;
#X obj 251 597 s c21;
#X obj 302 597 s c22;
#X obj 351 598 s c23;
#X obj 401 597 s c24;
#X obj 454 604 s c25;
#X obj 503 604 s c26;
#X obj 599 606 s c28;
#X obj 553 604 s c27;
#X obj 648 607 s c29;
#X obj 693 605 s c30;
#X obj 99 335 unpack f f f f f f f f f f f f f f f f f f f f f f f
f f f f f f f f f;
#X obj 741 605 s c31;
#X obj 790 603 s c32;
#X obj -556 550 s c4;
#X msg 284 -113 destroy;
#X text 309 118 Subnet Universo;
#X obj 132 15 loadbang;
#X obj 74 264 list split;
#X obj 582 332 list split 32;
#X obj 569 282 list split;
#X obj 131 233 - 1;
#X obj 626 238 - 1;
#X msg 106 61 1;
#X msg 168 59 33;
#X floatatom -92 1 5 0 0 0 - - -;
#X obj 27 361 bng 15 250 50 0 empty empty empty 17 7 0 10 -262144 -1
-1;
#X obj 379 -272 r input_selector;
#X obj 205 -171 spigot;
#X obj 379 -241 select 0;
#X msg 325 -205 1;
#X msg 371 -204 0;
#X floatatom 106 141 5 0 0 0 - - -;
#X floatatom 167 140 5 0 0 0 - - -;
#X text 100 123 Layer 1;
#X text 159 121 Layer 2;
#X text 181 101 DMX Address;
#X obj 467 140 bng 15 250 50 0 empty empty empty 17 7 0 10 -262144
-1 -1;
#X text 455 117 Destroy;
#X text 351 99 ArtNet control;
#X floatatom 317 139 5 0 0 0 - - -;
#X floatatom 365 140 5 0 0 0 - - -;
#X obj 427 137 bng 15 250 50 0 empty empty empty 17 7 0 10 -262144
-1 -1;
#X text 412 116 create;
#X obj 317 189 t f;
#X obj 317 223 pack f f;
#X msg 336 39 0;
#X text 210 122 Layer 3;
#X text 262 121 Layer 4;
#X floatatom 217 140 5 0 0 0 - - -;
#X floatatom 271 140 5 0 0 0 - - -;
#X msg 217 61 65;
#X msg 271 63 73;
#X obj 205 -276 r render_status_send;
#X floatatom 163 -260 5 0 0 0 - - -;
#X floatatom 496 -269 5 0 0 0 - - -;
#X obj 168 -99 bng 15 1000 10 0 empty empty empty 17 7 0 10 -262144
-1 -1;
#X obj 350 -240 bng 15 250 50 0 empty empty empty 17 7 0 10 -262144
-1 -1;
#X obj 205 -213 int;
#X obj -318 522 change;
#X obj -272 523 change;
#X obj -228 523 change;
#X obj -179 524 change;
#X obj -132 525 change;
#X obj -83 525 change;
#X obj -34 527 change;
#X obj 15 526 change;
#X obj 64 524 change;
#X obj 110 525 change;
#X obj 154 525 change;
#X obj 203 526 change;
#X obj 250 527 change;
#X obj 299 527 change;
#X obj 348 529 change;
#X obj 397 528 change;
#X obj 452 526 change;
#X obj 498 527 change;
#X obj 542 527 change;
#X obj 591 528 change;
#X obj 638 529 change;
#X obj 687 529 change;
#X obj 736 531 change;
#X obj 785 530 change;
#X obj -698 518 change;
#X obj -652 519 change;
#X obj -608 519 change;
#X obj -559 520 change;
#X obj -512 521 change;
#X obj -463 521 change;
#X obj -414 523 change;
#X obj -365 522 change;
#X msg 425 -94 create \$1 \$2;
#X obj 205 -115 metro 50;
#X floatatom -692 593 5 0 0 0 - - -;
#X msg 483 -133 close;
#X floatatom -225 590 5 0 0 0 - - -;
#X floatatom -273 588 5 0 0 0 - - -;
#X floatatom -320 590 5 0 0 0 - - -;
#X floatatom 46 427 5 0 0 0 - - -;
#X floatatom 119 450 5 0 0 0 - - -;
#X floatatom -609 592 5 0 0 0 - - -;
#X floatatom -652 593 5 0 0 0 - - -;
#X floatatom -565 592 5 0 0 0 - - -;
#X obj 258 -50 bng 15 250 50 0 empty empty empty 17 7 0 10 -262144
-1 -1;
#X symbolatom -93 -33 10 0 0 0 - - -;
#X floatatom 210 -16 5 0 0 0 - - -;
#X msg 382 -138 open 1 1;
#X connect 0 0 38 0;
#X connect 0 0 123 0;
#X connect 0 0 124 0;
#X connect 0 0 125 0;
#X connect 1 0 31 0;
#X connect 31 0 45 0;
#X connect 31 0 46 0;
#X connect 31 0 103 0;
#X connect 31 1 104 0;
#X connect 31 1 118 0;
#X connect 31 2 105 0;
#X connect 31 2 119 0;
#X connect 31 3 106 0;
#X connect 31 4 107 0;
#X connect 31 5 108 0;
#X connect 31 6 109 0;
#X connect 31 7 110 0;
#X connect 31 8 79 0;
#X connect 31 9 80 0;
#X connect 31 10 81 0;
#X connect 31 11 82 0;
#X connect 31 12 83 0;
#X connect 31 13 84 0;
#X connect 31 14 85 0;
#X connect 31 15 86 0;
#X connect 31 16 87 0;
#X connect 31 17 88 0;
#X connect 31 18 89 0;
#X connect 31 19 90 0;
#X connect 31 20 91 0;
#X connect 31 21 92 0;
#X connect 31 22 93 0;
#X connect 31 23 94 0;
#X connect 31 24 95 0;
#X connect 31 25 96 0;
#X connect 31 26 97 0;
#X connect 31 27 98 0;
#X connect 31 28 99 0;
#X connect 31 29 100 0;
#X connect 31 30 101 0;
#X connect 31 31 102 0;
#X connect 37 0 44 0;
#X connect 37 0 43 0;
#X connect 37 0 71 0;
#X connect 37 0 72 0;
#X connect 38 1 1 0;
#X connect 40 1 39 0;
#X connect 41 0 38 1;
#X connect 42 0 40 1;
#X connect 43 0 52 0;
#X connect 44 0 53 0;
#X connect 47 0 49 0;
#X connect 47 0 75 0;
#X connect 49 0 50 0;
#X connect 49 0 77 0;
#X connect 49 0 78 0;
#X connect 49 1 51 0;
#X connect 50 0 48 1;
#X connect 51 0 48 1;
#X connect 52 0 41 0;
#X connect 53 0 42 0;
#X connect 57 0 35 0;
#X connect 60 0 64 0;
#X connect 61 0 65 1;
#X connect 62 0 61 0;
#X connect 62 0 60 0;
#X connect 64 0 65 0;
#X connect 65 0 111 0;
#X connect 66 0 61 0;
#X connect 66 0 60 0;
#X connect 71 0 69 0;
#X connect 72 0 70 0;
#X connect 73 0 74 0;
#X connect 73 0 78 0;
#X connect 78 0 48 0;
#X connect 79 0 9 0;
#X connect 79 0 117 0;
#X connect 80 0 10 0;
#X connect 80 0 116 0;
#X connect 81 0 11 0;
#X connect 81 0 115 0;
#X connect 82 0 12 0;
#X connect 83 0 13 0;
#X connect 84 0 14 0;
#X connect 85 0 15 0;
#X connect 86 0 16 0;
#X connect 87 0 17 0;
#X connect 88 0 18 0;
#X connect 89 0 19 0;
#X connect 90 0 20 0;
#X connect 91 0 21 0;
#X connect 92 0 22 0;
#X connect 93 0 23 0;
#X connect 94 0 24 0;
#X connect 95 0 25 0;
#X connect 96 0 26 0;
#X connect 97 0 28 0;
#X connect 98 0 27 0;
#X connect 99 0 29 0;
#X connect 100 0 30 0;
#X connect 101 0 32 0;
#X connect 102 0 33 0;
#X connect 103 0 2 0;
#X connect 103 0 113 0;
#X connect 104 0 3 0;
#X connect 104 0 121 0;
#X connect 105 0 4 0;
#X connect 105 0 120 0;
#X connect 106 0 34 0;
#X connect 106 0 122 0;
#X connect 107 0 5 0;
#X connect 108 0 6 0;
#X connect 109 0 7 0;
#X connect 110 0 8 0;
#X connect 112 0 76 0;
#X connect 114 0 0 0;
#X connect 126 0 0 0;
#X coords 0 -1 1 1 420 60 1 100 100;
