#N canvas 453 54 827 809 10;
#X obj 60 281 pix_image;
#X msg -36 200 open \$1;
#X msg 174 230 thread 1;
#X obj 174 204 loadbang;
#X obj 60 147 gemhead;
#X obj -36 13 inlet;
#X obj 60 3 inlet;
#X msg 60 61 1;
#X msg 105 60 0;
#X obj -36 148 spigot;
#X obj 60 34 select 2;
#X obj 60 341 outlet;
#X connect 0 0 11 0;
#X connect 1 0 0 0;
#X connect 2 0 0 0;
#X connect 3 0 2 0;
#X connect 4 0 0 0;
#X connect 5 0 9 0;
#X connect 6 0 10 0;
#X connect 7 0 4 0;
#X connect 7 0 9 1;
#X connect 8 0 4 0;
#X connect 8 0 9 1;
#X connect 9 0 1 0;
#X connect 10 0 7 0;
#X connect 10 1 8 0;
