#N canvas 157 182 827 809 10;
#X obj 60 281 pix_image;
#X obj 60 776 pix_texture;
#X obj 60 348 alpha;
#X obj 60 466 colorRGB;
#X obj 255 385 / 255;
#X obj 207 384 / 127;
#X obj 158 383 / 127;
#X obj 111 382 / 127;
#X obj 112 352 r c2;
#X obj 158 353 r c3;
#X obj 207 354 r c4;
#X obj 255 355 r c1;
#X msg -163 159 open \$1;
#X text 251 336 Alpha;
#X msg 174 230 thread 1;
#X obj 174 204 loadbang;
#X obj 60 90 gemhead;
#X obj 60 203 rotateXYZ;
#X obj 82 113 r c12;
#X obj 127 112 r c13;
#X obj 172 115 r c14;
#X obj 60 612 translateXYZ;
#X obj 83 494 r c18;
#X obj 138 495 r c19;
#X obj 189 493 r c20;
#X obj 81 137 * 1.5;
#X obj 125 136 * 1.5;
#X obj 172 140 * 1.5;
#X obj 60 743 scale XYZ;
#X obj 139 634 r c15;
#X obj 184 634 r c16;
#X obj 235 635 r c17;
#X obj 139 702 pack f f f;
#X msg 80 672 1;
#X obj 80 637 loadbang;
#X obj 299 718 t b;
#X obj 60 833 rectangle 16 12;
#X obj 83 528 / 5;
#X obj 138 529 / 5;
#X obj 189 528 / 10;
#X obj 189 575 - 20;
#X obj 139 669 / 128;
#X obj 184 668 / 128;
#X obj 235 672 / 128;
#X obj 84 571 - 25;
#X obj 138 574 - 25;
#X obj -163 57 inlet;
#X obj 60 3 inlet;
#X msg 60 61 1;
#X msg 117 61 0;
#X obj -163 107 spigot;
#X obj 60 34 select 1;
#X connect 0 0 2 0;
#X connect 1 0 36 0;
#X connect 2 0 3 0;
#X connect 3 0 21 0;
#X connect 4 0 3 4;
#X connect 5 0 3 3;
#X connect 6 0 3 2;
#X connect 7 0 3 1;
#X connect 8 0 7 0;
#X connect 9 0 6 0;
#X connect 10 0 5 0;
#X connect 11 0 4 0;
#X connect 12 0 0 0;
#X connect 14 0 0 0;
#X connect 15 0 14 0;
#X connect 16 0 17 0;
#X connect 17 0 0 0;
#X connect 18 0 25 0;
#X connect 19 0 26 0;
#X connect 20 0 27 0;
#X connect 21 0 28 0;
#X connect 22 0 37 0;
#X connect 23 0 38 0;
#X connect 24 0 39 0;
#X connect 25 0 17 1;
#X connect 26 0 17 2;
#X connect 27 0 17 3;
#X connect 28 0 1 0;
#X connect 29 0 41 0;
#X connect 30 0 35 0;
#X connect 30 0 42 0;
#X connect 31 0 43 0;
#X connect 32 0 28 2;
#X connect 33 0 28 1;
#X connect 34 0 33 0;
#X connect 35 0 32 0;
#X connect 37 0 44 0;
#X connect 38 0 45 0;
#X connect 39 0 40 0;
#X connect 40 0 21 3;
#X connect 41 0 32 0;
#X connect 42 0 32 1;
#X connect 44 0 21 1;
#X connect 45 0 21 2;
#X connect 46 0 50 0;
#X connect 47 0 51 0;
#X connect 48 0 16 0;
#X connect 48 0 50 1;
#X connect 49 0 16 0;
#X connect 49 0 50 1;
#X connect 50 0 12 0;
#X connect 51 0 48 0;
#X connect 51 1 49 0;
