#N canvas 1028 89 1016 665 10;
#N canvas 1028 63 1016 665 audio_player 1;
#X msg 239 357 open \$1;
#X msg 383 478 start;
#X msg 438 479 stop;
#X obj 384 568 oggread~;
#X msg 491 481 resume;
#X obj 239 185 inlet;
#X obj 334 185 inlet;
#X obj 239 304 spigot;
#X msg 334 260 1;
#X msg 379 261 0;
#X obj 436 377 / 25;
#X obj 436 346 spigot;
#X obj 436 406 int;
#X obj 436 186 r \$0-c5;
#X obj 365 619 *~ 0;
#X obj 422 619 *~ 0;
#X obj 541 563 dbtorms;
#X obj 484 563 dbtorms;
#X obj 414 733 dac~;
#X obj 365 690 gpan~;
#X obj 580 466 r \$0-c1;
#X obj 665 465 r \$0-c2;
#X text 578 449 Volumen;
#X text 677 449 Pan;
#X obj 665 505 * 0.00392157;
#X obj 334 226 select 1;
#X obj 436 434 select 0 1 2;
#X msg 214 511 seek \$1;
#X obj 214 446 r \$0-c8;
#X obj 580 502 * 0.0015308;
#X obj 214 477 * 0.01;
#X obj 465 621 s \$0-position;
#X connect 0 0 3 0;
#X connect 1 0 3 0;
#X connect 2 0 3 0;
#X connect 3 0 14 0;
#X connect 3 1 15 0;
#X connect 3 2 31 0;
#X connect 4 0 3 0;
#X connect 5 0 7 0;
#X connect 6 0 25 0;
#X connect 7 0 0 0;
#X connect 8 0 7 1;
#X connect 8 0 11 1;
#X connect 9 0 7 1;
#X connect 9 0 11 1;
#X connect 10 0 12 0;
#X connect 11 0 10 0;
#X connect 12 0 26 0;
#X connect 13 0 11 0;
#X connect 14 0 19 0;
#X connect 15 0 19 1;
#X connect 16 0 15 1;
#X connect 17 0 14 1;
#X connect 19 0 18 0;
#X connect 19 1 18 1;
#X connect 20 0 29 0;
#X connect 21 0 24 0;
#X connect 24 0 19 2;
#X connect 25 0 8 0;
#X connect 25 1 9 0;
#X connect 26 0 1 0;
#X connect 26 1 2 0;
#X connect 26 2 4 0;
#X connect 27 0 3 0;
#X connect 28 0 30 0;
#X connect 29 0 17 0;
#X connect 29 0 16 0;
#X connect 30 0 27 0;
#X connect 30 0 31 0;
#X restore 122 -29 pd audio_player;
#X obj 430 296 change;
#X obj 483 296 change;
#X obj 533 296 change;
#X obj 589 296 change;
#X obj 646 296 change;
#X obj 701 296 change;
#X obj 756 296 change;
#X obj 818 296 change;
#X obj 35 296 change;
#X obj 83 296 change;
#X obj 128 296 change;
#X obj 173 296 change;
#X obj 226 296 change;
#X obj 277 296 change;
#X obj 323 296 change;
#X obj 376 296 change;
#X obj 630 43 inlet;
#X obj 35 423 s \$0-c1;
#X obj 83 321 s \$0-c2;
#X obj 128 321 s \$0-c3;
#X obj 173 321 s \$0-c4;
#X obj 226 321 s \$0-c5;
#X obj 277 321 s \$0-c6;
#X obj 376 429 s \$0-c8;
#X obj 483 321 s \$0-c10;
#X obj 533 321 s \$0-c11;
#X obj 589 321 s \$0-c12;
#X obj 646 321 s \$0-c13;
#X obj 701 321 s \$0-c14;
#X obj 756 321 s \$0-c15;
#X obj 818 321 s \$0-c16;
#N canvas 1052 96 566 668 selector 0;
#X obj 1069 -51 loadbang;
#X obj 622 779 outlet;
#X obj 991 163 outlet;
#X obj 959 -118 / 25;
#X obj 680 87 spigot;
#X msg 775 10 1;
#X msg 813 10 0;
#X msg 922 37 1;
#X msg 962 37 2;
#X msg 998 37 3;
#X msg 1032 37 4;
#X obj 959 -48 select 1 2 3 4;
#X msg 1066 37 0;
#X msg 652 447 symbol \$1;
#X text 680 9 folder;
#X obj 732 67 r config_s;
#X obj 959 -78 int;
#X obj 732 107 symbol;
#X obj 652 567 hcs/folder_list;
#X obj 741 606 t l;
#X obj 653 718 list split 1;
#X obj 622 699 list split;
#X obj 652 471 t b a;
#X obj 730 522 symbol;
#X obj 616 500 t b b;
#X obj 652 527 t b b;
#X obj 622 659 list;
#X obj 652 607 list prepend;
#X obj 835 499 b;
#X msg 732 187 symbol \$1;
#X obj 645 228 hcs/folder_list;
#X obj 704 198 b;
#X obj 750 268 t l;
#X obj 624 302 list;
#X obj 645 268 list prepend;
#X obj 624 342 list split;
#X obj 652 367 list split 1;
#X obj 652 407 makefilename %s/*;
#X obj 481 612 int;
#X obj 518 607 + 1;
#X msg 420 572 0;
#X msg 515 529 0;
#X msg 549 529 1;
#X obj 481 572 metro 100;
#X obj 543 696 b;
#X obj 622 739 symbol;
#X obj 481 666 select 1;
#X obj 732 147 makefilename %s/sound/*;
#X obj 680 47 r \$0-c3;
#X obj 835 459 r \$0-c4;
#X text 845 230 Tipo de media: 0 Off 1 Playback;
#X obj 959 -158 r \$0-c6;
#X connect 0 0 12 0;
#X connect 3 0 16 0;
#X connect 4 0 35 1;
#X connect 4 0 31 0;
#X connect 5 0 4 1;
#X connect 6 0 4 1;
#X connect 7 0 2 0;
#X connect 8 0 2 0;
#X connect 9 0 2 0;
#X connect 10 0 2 0;
#X connect 11 0 7 0;
#X connect 11 0 5 0;
#X connect 11 0 17 0;
#X connect 11 1 8 0;
#X connect 11 1 6 0;
#X connect 11 2 9 0;
#X connect 11 2 6 0;
#X connect 11 3 6 0;
#X connect 11 3 10 0;
#X connect 11 4 6 0;
#X connect 11 4 12 0;
#X connect 12 0 2 0;
#X connect 13 0 22 0;
#X connect 15 0 17 0;
#X connect 16 0 11 0;
#X connect 17 0 47 0;
#X connect 18 0 27 0;
#X connect 19 0 27 1;
#X connect 20 0 45 1;
#X connect 21 1 20 0;
#X connect 22 0 24 0;
#X connect 22 0 42 0;
#X connect 22 1 23 0;
#X connect 23 0 18 1;
#X connect 24 0 26 0;
#X connect 24 1 25 0;
#X connect 25 0 18 0;
#X connect 25 1 27 1;
#X connect 26 0 21 0;
#X connect 27 0 19 0;
#X connect 27 0 26 1;
#X connect 28 0 26 0;
#X connect 28 0 42 0;
#X connect 29 0 30 1;
#X connect 29 0 31 0;
#X connect 30 0 34 0;
#X connect 31 0 30 0;
#X connect 31 0 34 1;
#X connect 31 0 33 0;
#X connect 32 0 34 1;
#X connect 33 0 35 0;
#X connect 34 0 32 0;
#X connect 34 0 33 1;
#X connect 35 1 36 0;
#X connect 36 0 37 0;
#X connect 37 0 13 0;
#X connect 38 0 39 0;
#X connect 38 0 46 0;
#X connect 39 0 38 1;
#X connect 40 0 38 1;
#X connect 41 0 43 0;
#X connect 42 0 43 0;
#X connect 43 0 38 0;
#X connect 44 0 45 0;
#X connect 45 0 1 0;
#X connect 46 0 41 0;
#X connect 46 0 40 0;
#X connect 46 0 44 0;
#X connect 47 0 29 0;
#X connect 48 0 4 0;
#X connect 49 0 21 1;
#X connect 49 0 28 0;
#X connect 51 0 3 0;
#X restore 37 -94 pd selector;
#X floatatom 9 32 5 0 0 0 - - -;
#X symbolatom 10 9 80 0 0 0 - - -;
#X obj 630 68 list split 16;
#X obj 630 93 unpack f f f f f f f f f f f f f f f f;
#X obj 35 352 << 8;
#X obj 35 393 +;
#X obj 81 359 t b f;
#X obj 376 343 << 8;
#X obj 376 384 +;
#X obj 430 343 t b f;
#X text 549 -26 c1 Vol c2 pan c3 folder c4 file c5 playback c6 Control
c7 Volumen fino 8 Entry point Coarse 9 Entry point fine;
#X floatatom 53 32 10 0 0 1 Current_Position #0-position -;
#X connect 1 0 42 0;
#X connect 2 0 25 0;
#X connect 3 0 26 0;
#X connect 4 0 27 0;
#X connect 5 0 28 0;
#X connect 6 0 29 0;
#X connect 7 0 30 0;
#X connect 8 0 31 0;
#X connect 9 0 37 0;
#X connect 10 0 19 0;
#X connect 11 0 20 0;
#X connect 12 0 21 0;
#X connect 13 0 22 0;
#X connect 14 0 23 0;
#X connect 15 0 39 0;
#X connect 16 0 40 0;
#X connect 17 0 35 0;
#X connect 32 0 34 0;
#X connect 32 0 0 0;
#X connect 32 1 33 0;
#X connect 32 1 0 1;
#X connect 35 0 36 0;
#X connect 36 0 9 0;
#X connect 36 1 10 0;
#X connect 36 2 11 0;
#X connect 36 3 12 0;
#X connect 36 4 13 0;
#X connect 36 5 14 0;
#X connect 36 6 15 0;
#X connect 36 7 16 0;
#X connect 36 8 1 0;
#X connect 36 9 2 0;
#X connect 36 10 3 0;
#X connect 36 11 4 0;
#X connect 36 12 5 0;
#X connect 36 13 6 0;
#X connect 36 14 7 0;
#X connect 36 15 8 0;
#X connect 37 0 38 0;
#X connect 38 0 18 0;
#X connect 39 0 38 0;
#X connect 39 1 38 1;
#X connect 40 0 41 0;
#X connect 41 0 24 0;
#X connect 42 0 41 0;
#X connect 42 1 41 1;
#X coords 0 -1 1 1 500 60 2 0 0;
