#N canvas 1284 75 1016 665 10;
#X obj 630 78 unpack f f f f f f f f f f f f f f f f f f f f f f f
f f f f f f f f f;
#X obj 50 242 change;
#X obj 144 242 change;
#X obj 234 278 change;
#X obj 331 278 change;
#X obj 425 300 change;
#X obj 523 300 change;
#X obj 621 300 change;
#X obj 234 362 change;
#X obj 331 362 change;
#X obj 425 384 change;
#X obj 523 384 change;
#X obj 621 384 change;
#X obj 783 242 change;
#X obj 834 242 change;
#X obj 903 242 change;
#X obj 964 242 change;
#X obj 1021 242 change;
#X obj 764 323 change;
#X obj 821 323 change;
#X obj 889 323 change;
#X obj 964 326 change;
#X obj 1021 326 change;
#X obj 1097 323 change;
#X obj 1081 178 change;
#X obj -228 158 change;
#X obj -136 158 change;
#X obj -48 158 change;
#X obj 50 158 change;
#X obj 144 158 change;
#X obj -228 242 change;
#X obj -136 242 change;
#X obj -48 242 change;
#X obj 630 36 list split 32;
#X obj 1464 -6 unpack f f f f f f f f f f f f f f f f f f f f f f f
f f f f f f f f f;
#X obj 1304 262 change;
#X obj 1376 262 change;
#X obj 1433 178 change;
#X obj 1503 178 change;
#X obj 1562 178 change;
#X obj 1611 178 change;
#X obj 1672 178 change;
#X obj 1433 262 change;
#X obj 1503 262 change;
#X obj 1562 262 change;
#X obj 1611 262 change;
#X obj 1672 262 change;
#X obj 1760 178 change;
#X obj 1816 178 change;
#X obj 1881 178 change;
#X obj 1939 178 change;
#X obj 1996 178 change;
#X obj 1760 262 change;
#X obj 1816 262 change;
#X obj 1881 262 change;
#X obj 1939 262 change;
#X obj 1996 262 change;
#X obj 2067 178 change;
#X obj 2136 178 change;
#X obj 1135 178 change;
#X obj 1190 178 change;
#X obj 1248 178 change;
#X obj 1304 178 change;
#X obj 1376 178 change;
#X obj 1135 262 change;
#X obj 1190 262 change;
#X obj 1248 262 change;
#X obj 425 426 << 8;
#X obj 425 468 +;
#X obj 523 426 << 8;
#X obj 523 468 +;
#X obj 621 426 << 8;
#X obj 621 468 +;
#X text 821 406 Alpha High;
#X text 1021 409 Alpha Low;
#X obj 630 -6 inlet;
#X obj -228 200 s \$0-c1;
#X obj -136 200 s \$0-c2;
#X obj -48 200 s \$0-c3;
#X obj 50 200 s \$0-c4;
#X obj 144 200 s \$0-c5;
#X obj -221 300 s \$0-c6;
#X obj -138 300 s \$0-c7;
#X obj -50 300 s \$0-c8;
#X obj 54 300 s \$0-c9;
#X obj 148 300 s \$0-c10;
#X obj 234 320 s \$0-c11;
#X obj 331 320 s \$0-c12;
#X obj 425 342 s \$0-c13;
#X obj 523 342 s \$0-c14;
#X obj 621 342 s \$0-c15;
#X obj 234 404 s \$0-c16;
#X obj 327 492 s \$0-c17;
#X obj 425 510 s \$0-c18;
#X obj 523 510 s \$0-c19;
#X obj 621 510 s \$0-c20;
#X obj 764 365 s \$0-c26;
#X obj 821 365 s \$0-c27;
#X obj 889 365 s \$0-c28;
#X obj 964 368 s \$0-c29;
#X obj 1021 368 s \$0-c30;
#X obj 1097 365 s \$0-c31;
#X obj 1081 220 s \$0-c32;
#X obj 1135 220 s \$0-c33;
#X obj 1190 220 s \$0-c34;
#X obj 1248 220 s \$0-c35;
#X obj 1304 220 s \$0-c36;
#X obj 1376 220 s \$0-c37;
#X obj 1433 220 s \$0-c43;
#X obj 1503 220 s \$0-c44;
#X obj 1562 220 s \$0-c45;
#X obj 1611 220 s \$0-c46;
#X obj 1672 220 s \$0-c47;
#X obj 1135 304 s \$0-c38;
#X obj 1190 304 s \$0-c39;
#X obj 1248 304 s \$0-c40;
#X obj 1304 304 s \$0-c41;
#X obj 1376 304 s \$0-c42;
#X obj 1433 304 s \$0-c48;
#X obj 1503 304 s \$0-c49;
#X obj 1562 304 s \$0-c50;
#X obj 1611 304 s \$0-c51;
#X obj 1672 304 s \$0-c52;
#X obj 1760 304 s \$0-c58;
#X obj 1816 304 s \$0-c59;
#X obj 1881 304 s \$0-c60;
#X obj 1939 304 s \$0-c61;
#X obj 1996 304 s \$0-c62;
#X obj 1760 220 s \$0-c53;
#X obj 1816 220 s \$0-c54;
#X obj 1881 220 s \$0-c55;
#X obj 1939 220 s \$0-c56;
#X obj 1996 220 s \$0-c57;
#X obj 2067 220 s \$0-c63;
#X obj 2136 220 s \$0-c64;
#X obj 964 284 s \$0-c24;
#X obj 1021 284 s \$0-c25;
#N canvas 4 165 1272 777 selector 0;
#X obj 1190 257 symbol;
#X obj 1499 -20 loadbang;
#X obj 748 604 outlet;
#X obj 1370 621 outlet;
#X obj 1326 -23 / 25;
#X obj 1055 255 symbol;
#X obj 909 252 symbol;
#X obj 1326 11 int;
#X obj 646 323 getfilenames;
#X obj 645 131 spigot;
#X msg 845 101 1;
#X msg 845 137 0;
#X msg 1198 138 1;
#X msg 1288 136 2;
#X msg 1354 138 3;
#X msg 1418 139 4;
#X obj 1326 59 select 1 2 3 4;
#X msg 1499 144 0;
#X text 1230 638 Tipo de media: 0 Off 1 Video 2 Imagen 3 Texto 4 Audio
;
#X obj 748 520 getfilenames;
#X msg 817 422 symbol \$1;
#X obj 646 359 makefilename %s/*;
#X text 641 5 folder;
#X text 746 408 file;
#X msg 715 282 symbol \$1;
#X obj 789 473 t b;
#X obj 715 183 r config_s;
#X obj 909 215 t b;
#X obj 1055 211 t b;
#X obj 1190 210 t b;
#X obj 1326 36 change;
#X obj 646 225 int;
#X obj 906 172 t b;
#X obj 715 251 makefilename %s/video/*.vid;
#X obj 909 288 makefilename %s/image/*;
#X obj 1055 291 makefilename %s/fonts/*;
#X obj 1190 293 makefilename %s/ogg/*;
#X obj 645 24 r \$0-c6;
#X obj 748 426 r \$0-c7;
#X obj 1326 -57 r \$0-c8;
#X floatatom 672 464 5 0 0 0 - - -;
#X symbolatom 882 585 50 0 0 0 - - -;
#X symbolatom 967 510 80 0 0 0 - - -;
#X floatatom 1234 -12 5 0 0 0 - - -;
#X connect 0 0 36 0;
#X connect 1 0 17 0;
#X connect 4 0 7 0;
#X connect 5 0 35 0;
#X connect 6 0 34 0;
#X connect 7 0 30 0;
#X connect 8 0 21 0;
#X connect 9 0 31 0;
#X connect 10 0 9 1;
#X connect 11 0 9 1;
#X connect 12 0 3 0;
#X connect 12 0 32 0;
#X connect 13 0 3 0;
#X connect 13 0 27 0;
#X connect 14 0 3 0;
#X connect 14 0 28 0;
#X connect 15 0 3 0;
#X connect 15 0 29 0;
#X connect 16 0 12 0;
#X connect 16 0 10 0;
#X connect 16 1 13 0;
#X connect 16 1 11 0;
#X connect 16 2 14 0;
#X connect 16 2 11 0;
#X connect 16 3 11 0;
#X connect 16 3 15 0;
#X connect 16 4 11 0;
#X connect 16 4 17 0;
#X connect 17 0 3 0;
#X connect 19 0 2 0;
#X connect 19 0 41 0;
#X connect 20 0 19 1;
#X connect 20 0 25 0;
#X connect 20 0 42 0;
#X connect 21 0 20 0;
#X connect 24 0 8 1;
#X connect 25 0 19 0;
#X connect 26 0 6 0;
#X connect 26 0 5 0;
#X connect 26 0 0 0;
#X connect 26 0 33 0;
#X connect 27 0 6 0;
#X connect 28 0 5 0;
#X connect 29 0 0 0;
#X connect 30 0 16 0;
#X connect 31 0 8 0;
#X connect 32 0 31 0;
#X connect 32 0 8 0;
#X connect 33 0 24 0;
#X connect 34 0 20 0;
#X connect 35 0 20 0;
#X connect 36 0 20 0;
#X connect 37 0 9 0;
#X connect 38 0 40 0;
#X connect 38 0 19 0;
#X connect 39 0 4 0;
#X connect 39 0 43 0;
#X restore 332 583 pd selector;
#N canvas 5 51 450 300 imagen 0;
#X obj 100 321 pix_image;
#X msg 4 240 open \$1;
#X msg 214 270 thread 1;
#X obj 214 244 loadbang;
#X obj 100 187 gemhead;
#X obj 4 53 inlet;
#X obj 100 43 inlet;
#X msg 100 101 1;
#X msg 145 100 0;
#X obj 4 188 spigot;
#X obj 100 74 select 2;
#X obj 100 381 outlet;
#X connect 0 0 11 0;
#X connect 1 0 0 0;
#X connect 2 0 0 0;
#X connect 3 0 2 0;
#X connect 4 0 0 0;
#X connect 5 0 9 0;
#X connect 6 0 10 0;
#X connect 7 0 4 0;
#X connect 7 0 9 1;
#X connect 8 0 4 0;
#X connect 8 0 9 1;
#X connect 9 0 1 0;
#X connect 10 0 7 0;
#X connect 10 1 8 0;
#X restore 176 737 pd imagen;
#N canvas 4 51 1272 969 video 0;
#X msg 22 1051 open \$1;
#X obj 147 982 gemhead;
#X obj 22 913 spigot;
#X obj 26 -125 inlet;
#X obj 152 -136 inlet;
#X msg 193 862 0;
#X msg 148 862 1;
#X obj 148 824 select 1;
#X obj 171 1112 pdp_qt~;
#X obj 147 1283 pdp2gem;
#X obj 147 1354 outlet;
#X obj 277 859 world_light;
#X obj 277 832 gemhead;
#X obj 363 1210 outlet~;
#X obj 304 1209 outlet~;
#X obj 1123 1002 spigot;
#X obj 973 437 expr $f1 > 244 && $f1 < 250;
#X obj 1156 836 expr 1 - $f1;
#X obj 1155 747 ||;
#X obj 1156 395 t b;
#X obj 973 873 t b;
#X obj 845 867 t b;
#X obj 845 589 select 1;
#X obj 845 437 > 249;
#X obj 1447 899 counter;
#X msg 1731 790 0;
#X obj 1966 273 / 25;
#X obj 1966 307 int 0;
#X obj 1783 345 select 0;
#X obj 1854 345 select 1;
#X msg 1778 791 1;
#X obj 1917 346 select 2;
#X obj 1976 348 select 3;
#X obj 2042 348 select 4;
#X obj 2186 354 select 6;
#X obj 2119 353 select 5;
#X obj 1801 491 t b;
#X obj 1910 488 t b;
#X obj 2120 546 t b;
#X obj 2328 712 t b;
#X obj 1447 711 metro 25;
#X msg 1447 658 1;
#X obj 1447 1098 ==;
#X obj 2286 712 t b;
#X text 1551 1412 Un solo disparo;
#X msg 2286 1249 0;
#X msg 2328 1252 1;
#X obj 1659 1413 spigot;
#X obj 2255 353 select 7;
#X text 1789 13 0-10 Normal 11-20 Back 21-30 Ping-pong 31-40 Normal
una vez 41-50 Back una vez 51-60 Ping-Pong una vez 61-70 Stop/pause
71-80 Continue;
#X obj 1447 764 spigot 1;
#X msg 1596 638 0;
#X text 1443 747 play/pause;
#X text 1627 641 Pause;
#X msg 1523 637 1;
#X text 1553 638 Play;
#X text 1742 764 Modos del contador;
#X obj 1248 536 *;
#X obj 1248 612 int;
#X obj 1317 437 int;
#X msg 1505 1019 1;
#X msg 1536 1019 0;
#X obj 1769 1062 spigot;
#X msg 1847 1008 1;
#X msg 1886 1014 0;
#X obj 1770 1107 ==;
#X obj 1248 404 t b;
#X obj 1447 1050 spigot;
#X obj 1447 1166 t b;
#X text 1483 1165 Normal - Forward;
#X obj 1770 1208 t b;
#X text 1791 464 Normal;
#X text 1909 466 Back;
#X text 2143 549 PingPong;
#X text 1782 1248 Back;
#X msg 2116 992 1;
#X text 1273 614 Loop inferior;
#X obj 2085 1041 spigot;
#X msg 2148 992 0;
#X text 2072 1228 PingPong;
#X obj 1449 1225 int;
#X obj 1616 342 t b;
#X obj 1448 298 int;
#X obj 1616 458 *;
#X text 1533 498 loop superior;
#X obj 1489 270 * 1;
#X text 1362 275 Frames de la peli;
#X obj 1544 341 int 255;
#X obj 1275 437 int 0;
#X text 672 67 0-244 Speed 244-249 auto 1 vez 250-255 auto loop;
#X text 883 404 Metodos Auto;
#X text 1003 419 Auto 1 vez;
#X text 799 415 Auto Loop;
#X obj 1248 483 / 255;
#X obj 1631 418 * 0.00392157;
#X obj 1616 516 int;
#X obj 1544 61 loadbang;
#X obj 973 67 int;
#X obj 1616 285 int;
#X obj 1248 354 int;
#X obj 1513 413 t b;
#X msg 1051 948 stop;
#X msg 846 1020 loop 1;
#X msg 974 1018 loop 0;
#X msg 1012 950 play;
#X msg 1088 951 cont;
#X obj 972 683 select 1;
#X obj 1447 1129 sel 1;
#X obj 1770 1154 sel 1;
#X obj 2031 1090 ==;
#X obj 2031 1158 t b;
#X obj 2031 1121 sel 1;
#X obj 2128 1094 ==;
#X obj 2129 1180 t b;
#X obj 2129 1126 sel 1;
#X obj 2143 1066 - 1;
#X text 961 12 c5;
#X text 1231 66 Inicio Loop c10;
#X text 1600 44 Final loop c11;
#X text 1901 54 Control y modos de reproduccion c9;
#X obj 301 714 loadbang;
#X msg 222 941 1;
#X msg 247 1257 colorspace RGBA;
#X obj 974 36 r \$0-c5;
#X obj 1248 83 r \$0-c10;
#X obj 1616 65 r \$0-c11;
#X obj 1965 76 r \$0-c9;
#X floatatom 390 1149 5 0 0 0 - - -;
#X floatatom 1089 1086 5 0 0 0 - - -;
#X obj 1051 878 t b;
#X floatatom 1047 793 5 0 0 0 - - -;
#X obj 1205 801 bng 15 250 50 0 empty empty empty 17 7 0 10 -262144
-1 -1;
#X obj 1052 836 select 0;
#X connect 0 0 8 0;
#X connect 1 0 9 0;
#X connect 2 0 0 0;
#X connect 3 0 2 0;
#X connect 4 0 7 0;
#X connect 5 0 2 1;
#X connect 5 0 1 0;
#X connect 6 0 2 1;
#X connect 7 0 6 0;
#X connect 7 1 5 0;
#X connect 8 0 9 0;
#X connect 8 2 82 0;
#X connect 8 2 121 0;
#X connect 8 2 127 0;
#X connect 8 3 14 0;
#X connect 8 4 13 0;
#X connect 9 0 10 0;
#X connect 12 0 11 0;
#X connect 15 0 128 0;
#X connect 15 0 8 0;
#X connect 16 0 18 1;
#X connect 16 0 106 0;
#X connect 17 0 15 1;
#X connect 18 0 17 0;
#X connect 18 0 130 0;
#X connect 18 0 131 0;
#X connect 18 0 132 0;
#X connect 19 0 18 0;
#X connect 20 0 103 0;
#X connect 20 0 104 0;
#X connect 21 0 102 0;
#X connect 21 0 104 0;
#X connect 22 0 21 0;
#X connect 23 0 22 0;
#X connect 23 0 18 0;
#X connect 24 0 15 0;
#X connect 24 0 67 0;
#X connect 24 0 62 0;
#X connect 24 0 77 0;
#X connect 25 0 24 1;
#X connect 26 0 27 0;
#X connect 27 0 28 0;
#X connect 27 0 29 0;
#X connect 27 0 31 0;
#X connect 27 0 32 0;
#X connect 27 0 33 0;
#X connect 27 0 34 0;
#X connect 27 0 35 0;
#X connect 27 0 48 0;
#X connect 28 0 36 0;
#X connect 28 0 43 0;
#X connect 29 0 37 0;
#X connect 29 0 43 0;
#X connect 30 0 24 1;
#X connect 31 0 38 0;
#X connect 31 0 43 0;
#X connect 32 0 36 0;
#X connect 32 0 39 0;
#X connect 33 0 37 0;
#X connect 33 0 39 0;
#X connect 34 0 51 0;
#X connect 34 0 101 0;
#X connect 35 0 39 0;
#X connect 35 0 38 0;
#X connect 36 0 25 0;
#X connect 36 0 24 2;
#X connect 36 0 58 0;
#X connect 36 0 60 0;
#X connect 36 0 64 0;
#X connect 36 0 54 0;
#X connect 36 0 78 0;
#X connect 36 0 105 0;
#X connect 37 0 30 0;
#X connect 37 0 24 2;
#X connect 37 0 61 0;
#X connect 37 0 63 0;
#X connect 37 0 54 0;
#X connect 37 0 78 0;
#X connect 37 0 95 0;
#X connect 38 0 64 0;
#X connect 38 0 75 0;
#X connect 38 0 54 0;
#X connect 38 0 105 0;
#X connect 38 0 61 0;
#X connect 38 0 25 0;
#X connect 38 0 58 0;
#X connect 39 0 46 0;
#X connect 40 0 50 0;
#X connect 41 0 40 0;
#X connect 42 0 107 0;
#X connect 43 0 45 0;
#X connect 45 0 47 1;
#X connect 46 0 47 1;
#X connect 47 0 51 0;
#X connect 47 0 101 0;
#X connect 48 0 54 0;
#X connect 48 0 105 0;
#X connect 50 0 24 0;
#X connect 51 0 50 1;
#X connect 54 0 50 1;
#X connect 57 0 58 0;
#X connect 58 0 65 1;
#X connect 58 0 24 2;
#X connect 58 0 80 1;
#X connect 58 0 24 3;
#X connect 58 0 115 0;
#X connect 59 0 57 1;
#X connect 60 0 67 1;
#X connect 61 0 67 1;
#X connect 62 0 65 0;
#X connect 63 0 62 1;
#X connect 63 0 24 1;
#X connect 64 0 62 1;
#X connect 65 0 108 0;
#X connect 66 0 88 0;
#X connect 66 0 93 0;
#X connect 67 0 42 0;
#X connect 68 0 47 0;
#X connect 68 0 80 0;
#X connect 70 0 47 0;
#X connect 70 0 24 4;
#X connect 75 0 77 1;
#X connect 77 0 109 0;
#X connect 77 0 112 0;
#X connect 78 0 77 1;
#X connect 80 0 24 2;
#X connect 81 0 83 0;
#X connect 82 0 41 0;
#X connect 82 0 88 0;
#X connect 82 0 94 0;
#X connect 82 0 100 0;
#X connect 83 0 95 0;
#X connect 85 0 40 1;
#X connect 87 0 83 0;
#X connect 88 0 93 0;
#X connect 93 0 57 0;
#X connect 94 0 83 1;
#X connect 95 0 42 1;
#X connect 95 0 24 4;
#X connect 95 0 109 1;
#X connect 96 0 87 0;
#X connect 97 0 16 0;
#X connect 97 0 19 0;
#X connect 97 0 23 0;
#X connect 97 0 85 0;
#X connect 98 0 81 0;
#X connect 98 0 87 0;
#X connect 99 0 59 0;
#X connect 99 0 66 0;
#X connect 100 0 83 0;
#X connect 101 0 8 0;
#X connect 102 0 8 0;
#X connect 103 0 8 0;
#X connect 104 0 8 0;
#X connect 105 0 8 0;
#X connect 106 0 20 0;
#X connect 107 0 68 0;
#X connect 108 0 70 0;
#X connect 109 0 111 0;
#X connect 110 0 30 0;
#X connect 111 0 110 0;
#X connect 112 0 114 0;
#X connect 113 0 25 0;
#X connect 113 0 47 0;
#X connect 114 0 113 0;
#X connect 115 0 112 1;
#X connect 120 0 5 0;
#X connect 120 0 122 0;
#X connect 121 0 1 0;
#X connect 122 0 9 0;
#X connect 123 0 97 0;
#X connect 124 0 99 0;
#X connect 125 0 98 0;
#X connect 126 0 26 0;
#X connect 129 0 101 0;
#X connect 132 0 129 0;
#X restore 284 737 pd video;
#N canvas 4 51 450 300 audio_player 0;
#X msg 138 344 open \$1;
#X msg 381 667 start;
#X msg 436 668 stop;
#X obj 382 757 oggread~;
#X msg 489 670 resume;
#X obj 138 172 inlet;
#X obj 233 172 inlet;
#X obj 138 291 spigot;
#X msg 233 247 1;
#X msg 278 248 0;
#X obj 436 446 / 25;
#X obj 436 503 select 0 6 7;
#X obj 436 473 int;
#X obj 436 346 spigot;
#X obj 233 213 select 4;
#X obj 215 898 outlet~;
#X obj 283 900 outlet~;
#X obj 436 186 r \$0-c9;
#X connect 0 0 3 0;
#X connect 1 0 3 0;
#X connect 2 0 3 0;
#X connect 3 0 15 0;
#X connect 3 1 16 0;
#X connect 4 0 3 0;
#X connect 5 0 7 0;
#X connect 6 0 14 0;
#X connect 7 0 0 0;
#X connect 8 0 7 1;
#X connect 8 0 13 1;
#X connect 9 0 7 1;
#X connect 9 0 13 1;
#X connect 10 0 12 0;
#X connect 11 0 1 0;
#X connect 11 1 2 0;
#X connect 11 2 4 0;
#X connect 12 0 11 0;
#X connect 13 0 10 0;
#X connect 14 0 8 0;
#X connect 14 1 9 0;
#X connect 17 0 13 0;
#X restore 440 737 pd audio_player;
#N canvas 1284 75 1016 665 video_render 0;
#X obj 232 74 inlet;
#X obj 231 542 colorRGB;
#X obj 462 445 / 255;
#X text 540 63 Green;
#X text 498 62 Red;
#X text 590 64 Blue;
#X text 635 63 Alpha;
#X obj 232 233 rotateXYZ;
#X obj 713 779 pack f f f;
#X msg 256 772 1;
#X obj 256 737 loadbang;
#X obj 231 694 translateXYZ;
#X obj 853 742 t b;
#X obj 231 835 scale XYZ;
#X obj 232 170 alpha;
#X text 313 49 c12;
#X text 373 45 c13;
#X text 435 51 c14;
#X text 490 49 c2;
#X text 536 53 c3;
#X text 585 53 c4;
#X text 632 51 c1;
#X text 693 61 c18;
#X text 746 64 c19;
#X text 794 61 c20;
#X text 867 66 c15;
#X text 913 61 c16;
#X text 968 61 c17;
#X obj 231 423 pix_alpha;
#X obj 488 545 - 32768;
#X obj 426 543 - 32768;
#X obj 426 592 / 4096;
#X obj 488 594 / 4096;
#X obj 551 592 / 4096;
#X obj 670 697 / 128;
#X obj 715 697 / 128;
#X obj 763 697 / 128;
#X obj 551 548 - 32768;
#X obj 551 635 - 8;
#X obj 318 442 / 128;
#X obj 365 443 / 128;
#X obj 414 444 / 128;
#X msg -202 196 0;
#X msg -262 174 1;
#X msg -261 202 0;
#X msg -202 155 1;
#X obj 314 106 - 128;
#X obj 374 110 - 128;
#X obj 433 110 - 128;
#X obj -254 114 loadbang;
#X msg 587 1011 set 1 1 \$1 \$2 \$3;
#X msg 375 1011 set 1 0 \$1 \$2 \$3;
#X msg 726 1011 set 0 1 \$1 \$2 \$3;
#X obj 230 1006 pix_texture;
#X obj 442 888 - 128;
#X obj 504 888 - 128;
#X obj 515 952 t b;
#X obj 574 888 - 128;
#X obj 636 888 - 128;
#X obj 655 950 t b;
#X obj 734 888 - 128;
#X obj 780 888 - 128;
#X obj 810 945 t b;
#X msg 886 1016 set 0 0 \$1 \$2 \$3;
#X obj 872 888 - 128;
#X obj 934 888 - 128;
#X obj 948 955 t b;
#X obj 230 1105 curve3d 1 1;
#X obj 586 978 pack f f 5;
#X obj 748 979 pack f f 5;
#X obj 886 979 pack f f 5;
#X obj 456 979 pack f f 5;
#X obj 442 925 / 16;
#X obj 504 925 / 16;
#X obj 574 925 / 16;
#X obj 636 925 / 16;
#X obj 734 925 / 16;
#X obj 780 925 / 16;
#X obj 872 925 / 16;
#X obj 934 925 / 16;
#N canvas 4 51 1272 969 fx 0;
#X obj 612 -94 inlet;
#X obj 1110 822 outlet;
#X obj 897 207 gate 2;
#X obj 807 -2 + 1;
#X floatatom 878 18 5 0 0 0 - - -;
#X obj 807 -38 < 1;
#X obj 432 96 / 255;
#X obj 496 96 / 255;
#X obj 557 96 / 255;
#X obj 620 96 / 255;
#X msg 56 -20 BackDropKeyVFX;
#X msg 9 -22 BackLightVFX;
#X msg 9 9 BloomVFX.;
#X msg 9 40 BurnVFX;
#X msg 11 73 ChromiumVFX;
#X msg 11 104 ColourReduceVFX;
#X msg 11 135 ColourWarpVFX;
#X msg 12 165 DeInterlaceVFX;
#X msg 12 196 DilateVFX;
#X msg 12 227 DirectionalBlurVFX;
#X msg 12 258 DodgeVFX;
#X msg 12 289 ExclusionVFX;
#X msg 12 320 FishEyeVFX;
#X msg 12 351 GaussianBlurVFX;
#X msg 12 382 GlowVFX;
#X msg 12 413 HalfToneVFX;
#X msg 28 511 LevelsVFX;
#X msg 28 542 LionelBlurVFX;
#X msg 28 573 LumaCycleVFX;
#X msg 28 604 LumaKeyVFX;
#X msg 28 635 LumaOffsetVFX;
#X msg 28 666 MetaImageVFX;
#X msg 28 697 MixerVFX;
#X msg 28 728 PanSpinZoomVFX;
#X msg 28 759 PosterizeVFX;
#X msg 28 788 RadialBlurVFX;
#X msg 28 817 RectDistortVFX;
#X msg 28 846 RefractionVFX;
#X msg 29 901 SlideVFX;
#X msg 28 878 SmearVFX;
#X msg 28 923 SolarizeVFX;
#X msg 27 947 SpiralBlurVFX;
#X msg 65 1006 SquashVFX;
#X msg 65 1035 StaticVFX;
#X msg 65 1064 StretchVFX;
#X msg 65 1093 TileVFX;
#X msg 65 1119 TimeBlurVFX;
#X msg 65 1144 TimeSliceVFX;
#X msg 65 1173 TimeWarpVFX;
#X msg 65 1202 TVPixelVFX;
#X msg 65 1231 VectorizeVFX;
#X msg 68 1260 WaveVFX;
#X msg 438 152 #1 \$1;
#X msg 615 152 #4 \$1;
#X msg 550 152 #3 \$1;
#X msg 488 152 #2 \$1;
#X obj 155 -68 select 1 2 3 4 5 6 7 8 9 10 11 12 13 14 15 16;
#X obj 200 427 select 17 18 19 20 21 22 23 24 25 26 27 28 29 30 31
32;
#X obj 542 973 select 33 34 35 36 37 38 39 40 41 42 43 44 45 46 47
48;
#X msg 28 480 open KaleidascopeVFX;
#X msg 713 604 open WaveVFX;
#X obj 822 691 pix_freeframe;
#X msg 834 390 open \$1;
#X text 937 206 Bypass;
#X obj 432 58 r \$0-c41;
#X obj 496 58 r \$0-c42;
#X obj 557 58 r \$0-c43;
#X obj 620 58 r \$0-c44;
#X obj 807 -78 r \$0-c40;
#X obj 912 -80 loadbang;
#X msg 914 -46 1;
#X obj 1066 -61 bng 15 250 50 0 empty empty empty 17 7 0 10 -262144
-1 -1;
#X connect 0 0 2 1;
#X connect 2 0 61 0;
#X connect 2 1 1 0;
#X connect 3 0 4 0;
#X connect 3 0 2 0;
#X connect 5 0 3 0;
#X connect 6 0 52 0;
#X connect 7 0 55 0;
#X connect 8 0 54 0;
#X connect 9 0 53 0;
#X connect 10 0 62 0;
#X connect 11 0 62 0;
#X connect 12 0 62 0;
#X connect 13 0 62 0;
#X connect 14 0 62 0;
#X connect 15 0 62 0;
#X connect 16 0 62 0;
#X connect 17 0 62 0;
#X connect 18 0 62 0;
#X connect 19 0 62 0;
#X connect 20 0 62 0;
#X connect 21 0 62 0;
#X connect 22 0 62 0;
#X connect 23 0 62 0;
#X connect 24 0 62 0;
#X connect 25 0 62 0;
#X connect 26 0 62 0;
#X connect 27 0 62 0;
#X connect 28 0 62 0;
#X connect 29 0 62 0;
#X connect 30 0 62 0;
#X connect 31 0 62 0;
#X connect 32 0 62 0;
#X connect 33 0 62 0;
#X connect 34 0 62 0;
#X connect 35 0 62 0;
#X connect 36 0 62 0;
#X connect 37 0 62 0;
#X connect 38 0 62 0;
#X connect 39 0 62 0;
#X connect 40 0 62 0;
#X connect 41 0 62 0;
#X connect 42 0 62 0;
#X connect 43 0 62 0;
#X connect 44 0 62 0;
#X connect 45 0 62 0;
#X connect 46 0 62 0;
#X connect 47 0 62 0;
#X connect 48 0 62 0;
#X connect 49 0 62 0;
#X connect 50 0 62 0;
#X connect 51 0 62 0;
#X connect 52 0 62 0;
#X connect 53 0 62 0;
#X connect 54 0 62 0;
#X connect 55 0 62 0;
#X connect 56 0 10 0;
#X connect 56 1 11 0;
#X connect 56 2 12 0;
#X connect 56 3 13 0;
#X connect 56 4 14 0;
#X connect 56 5 15 0;
#X connect 56 6 16 0;
#X connect 56 7 17 0;
#X connect 56 8 18 0;
#X connect 56 9 19 0;
#X connect 56 10 20 0;
#X connect 56 11 21 0;
#X connect 56 12 22 0;
#X connect 56 13 23 0;
#X connect 56 14 24 0;
#X connect 56 15 25 0;
#X connect 56 16 57 0;
#X connect 57 0 59 0;
#X connect 57 1 26 0;
#X connect 57 2 27 0;
#X connect 57 3 28 0;
#X connect 57 4 29 0;
#X connect 57 5 30 0;
#X connect 57 6 31 0;
#X connect 57 7 32 0;
#X connect 57 8 33 0;
#X connect 57 9 34 0;
#X connect 57 10 35 0;
#X connect 57 11 36 0;
#X connect 57 12 37 0;
#X connect 57 13 39 0;
#X connect 57 14 40 0;
#X connect 57 15 41 0;
#X connect 57 16 58 0;
#X connect 58 0 42 0;
#X connect 58 1 43 0;
#X connect 58 2 44 0;
#X connect 58 3 45 0;
#X connect 58 4 46 0;
#X connect 58 5 47 0;
#X connect 58 6 48 0;
#X connect 58 7 49 0;
#X connect 58 8 50 0;
#X connect 58 9 51 0;
#X connect 59 0 62 0;
#X connect 60 0 61 0;
#X connect 61 0 1 0;
#X connect 62 0 61 0;
#X connect 64 0 6 0;
#X connect 65 0 7 0;
#X connect 66 0 8 0;
#X connect 67 0 9 0;
#X connect 68 0 5 0;
#X connect 68 0 56 0;
#X connect 69 0 70 0;
#X connect 70 0 3 0;
#X connect 71 0 69 0;
#X restore 232 895 pd fx;
#X text -146 41 R;
#X text -71 41 G;
#X text -52 60 B;
#X obj -123 193 pack f f f;
#X obj -123 111 t b;
#X obj -154 81 / 255;
#X obj -80 83 / 255;
#X obj -7 83 / 255;
#X obj -123 152 delay 10;
#X obj -150 42 r \$0-c26;
#X obj -80 42 r \$0-c27;
#X obj -7 42 r \$0-c28;
#X text 125 41 G;
#X text 127 60 B;
#X obj 73 193 pack f f f;
#X obj 73 111 t b;
#X obj 47 83 / 255;
#X obj 116 83 / 255;
#X obj 189 83 / 255;
#X obj 73 152 delay 10;
#X obj 47 42 r \$0-c29;
#X obj 116 42 r \$0-c30;
#X obj 189 44 r \$0-c31;
#X obj 314 70 r \$0-c12;
#X obj 374 68 r \$0-c13;
#X obj 433 70 r \$0-c14;
#X obj 494 78 r \$0-c2;
#X obj 540 79 r \$0-c3;
#X obj 589 80 r \$0-c4;
#X obj 637 81 r \$0-c1;
#X obj 695 81 r \$0-c18;
#X obj 748 82 r \$0-c19;
#X obj 799 80 r \$0-c20;
#X obj 871 82 r \$0-c15;
#X obj 916 82 r \$0-c16;
#X obj 964 81 r \$0-c17;
#X obj 442 851 r \$0-c32;
#X obj 504 851 r \$0-c33;
#X obj 574 851 r \$0-c34;
#X obj 636 851 r \$0-c35;
#X obj 725 851 r \$0-c36;
#X obj 780 851 r \$0-c37;
#X obj 872 851 r \$0-c38;
#X obj 934 851 r \$0-c39;
#X msg 362 902 8 8 5;
#X floatatom 404 971 5 0 0 0 - - -;
#X floatatom 523 1010 5 0 0 0 - - -;
#X msg 343 949 8 -8 5;
#X msg 378 855 -8 8 5;
#X msg 427 793 -8 -8 5;
#X obj 352 743 delay 100;
#X obj 435 707 bng 15 250 50 0 empty empty empty 17 7 0 10 -262144
-1 -1;
#X connect 0 0 14 0;
#X connect 1 0 11 0;
#X connect 2 0 1 4;
#X connect 7 0 28 0;
#X connect 8 0 13 2;
#X connect 9 0 13 1;
#X connect 10 0 9 0;
#X connect 10 0 128 0;
#X connect 10 0 125 0;
#X connect 10 0 129 0;
#X connect 10 0 130 0;
#X connect 10 0 131 0;
#X connect 11 0 13 0;
#X connect 12 0 8 0;
#X connect 13 0 80 0;
#X connect 14 0 7 0;
#X connect 28 0 1 0;
#X connect 29 0 32 0;
#X connect 30 0 31 0;
#X connect 31 0 11 1;
#X connect 32 0 11 2;
#X connect 33 0 38 0;
#X connect 34 0 8 0;
#X connect 35 0 8 1;
#X connect 35 0 12 0;
#X connect 36 0 8 2;
#X connect 36 0 12 0;
#X connect 37 0 33 0;
#X connect 38 0 11 3;
#X connect 39 0 1 1;
#X connect 40 0 1 2;
#X connect 41 0 1 3;
#X connect 42 0 28 2;
#X connect 43 0 28 1;
#X connect 44 0 28 1;
#X connect 45 0 28 2;
#X connect 46 0 7 1;
#X connect 47 0 7 2;
#X connect 48 0 7 3;
#X connect 49 0 43 0;
#X connect 49 0 42 0;
#X connect 50 0 67 0;
#X connect 51 0 67 0;
#X connect 52 0 67 0;
#X connect 53 0 67 0;
#X connect 54 0 72 0;
#X connect 55 0 73 0;
#X connect 56 0 71 0;
#X connect 57 0 74 0;
#X connect 58 0 75 0;
#X connect 59 0 68 0;
#X connect 60 0 76 0;
#X connect 61 0 77 0;
#X connect 62 0 69 0;
#X connect 63 0 67 0;
#X connect 64 0 78 0;
#X connect 65 0 79 0;
#X connect 66 0 70 0;
#X connect 68 0 50 0;
#X connect 69 0 52 0;
#X connect 70 0 63 0;
#X connect 71 0 51 0;
#X connect 72 0 71 0;
#X connect 72 0 126 0;
#X connect 73 0 56 0;
#X connect 73 0 71 1;
#X connect 73 0 127 0;
#X connect 74 0 68 0;
#X connect 75 0 59 0;
#X connect 75 0 68 1;
#X connect 76 0 69 0;
#X connect 77 0 62 0;
#X connect 77 0 69 1;
#X connect 78 0 70 0;
#X connect 79 0 66 0;
#X connect 79 0 70 1;
#X connect 80 0 53 0;
#X connect 84 0 28 3;
#X connect 85 0 89 0;
#X connect 86 0 84 0;
#X connect 87 0 85 0;
#X connect 87 0 84 1;
#X connect 88 0 85 0;
#X connect 88 0 84 2;
#X connect 89 0 84 0;
#X connect 90 0 86 0;
#X connect 91 0 87 0;
#X connect 92 0 88 0;
#X connect 95 0 28 4;
#X connect 96 0 100 0;
#X connect 97 0 95 0;
#X connect 98 0 96 0;
#X connect 98 0 95 1;
#X connect 99 0 96 0;
#X connect 99 0 95 2;
#X connect 100 0 95 0;
#X connect 101 0 97 0;
#X connect 102 0 98 0;
#X connect 103 0 99 0;
#X connect 104 0 46 0;
#X connect 105 0 47 0;
#X connect 106 0 48 0;
#X connect 107 0 39 0;
#X connect 108 0 40 0;
#X connect 109 0 41 0;
#X connect 110 0 2 0;
#X connect 111 0 30 0;
#X connect 112 0 29 0;
#X connect 113 0 37 0;
#X connect 114 0 34 0;
#X connect 115 0 35 0;
#X connect 116 0 36 0;
#X connect 117 0 54 0;
#X connect 118 0 55 0;
#X connect 119 0 57 0;
#X connect 120 0 58 0;
#X connect 121 0 60 0;
#X connect 122 0 61 0;
#X connect 123 0 64 0;
#X connect 124 0 65 0;
#X connect 125 0 50 0;
#X connect 128 0 51 0;
#X connect 129 0 52 0;
#X connect 130 0 63 0;
#X connect 131 0 10 0;
#X connect 132 0 10 0;
#X restore -85 843 pd video_render;
#N canvas 4 51 450 300 audio_mix 0;
#X obj 649 548 *~ 0;
#X obj 706 548 *~ 0;
#X obj 727 470 dbtorms;
#X obj 670 470 dbtorms;
#X obj 355 63 inlet~;
#X obj 434 65 inlet~;
#X obj 698 662 dac~;
#X obj 785 146 / 2.55;
#X obj 499 66 inlet~;
#X obj 586 66 inlet~;
#X obj 687 69 inlet;
#X obj 428 384 spigot~;
#X obj 956 382 spigot~;
#X obj 869 380 spigot~;
#X obj 508 385 spigot~;
#X obj 687 276 sel 1 4;
#X msg 587 338 0;
#X msg 632 339 1;
#X msg 773 340 0;
#X msg 815 339 1;
#X text 645 43 Selector entrada;
#X text 402 41 L/R;
#X text 553 36 L/R;
#X obj 649 619 gpan~;
#X obj 913 142 / 255;
#X obj 785 70 r \$0-c24;
#X text 779 46 Volumen c24;
#X text 905 53 Pan c25;
#X obj 913 79 r \$0-c25;
#X connect 0 0 23 0;
#X connect 1 0 23 1;
#X connect 2 0 1 1;
#X connect 3 0 0 1;
#X connect 4 0 11 0;
#X connect 5 0 14 0;
#X connect 7 0 3 0;
#X connect 7 0 2 0;
#X connect 8 0 13 0;
#X connect 9 0 12 0;
#X connect 10 0 15 0;
#X connect 11 0 0 0;
#X connect 12 0 1 0;
#X connect 13 0 0 0;
#X connect 14 0 1 0;
#X connect 15 0 16 0;
#X connect 15 0 19 0;
#X connect 15 1 17 0;
#X connect 15 1 18 0;
#X connect 15 2 17 0;
#X connect 15 2 19 0;
#X connect 16 0 11 1;
#X connect 16 0 14 1;
#X connect 17 0 14 1;
#X connect 17 0 11 1;
#X connect 18 0 13 1;
#X connect 18 0 12 1;
#X connect 19 0 13 1;
#X connect 19 0 12 1;
#X connect 23 0 6 0;
#X connect 23 1 6 1;
#X connect 24 0 23 2;
#X connect 25 0 7 0;
#X connect 28 0 24 0;
#X restore 274 875 pd audio_mix;
#X symbolatom -185 508 80 0 0 0 - - -;
#X floatatom -184 542 5 0 0 0 - - -;
#X floatatom -152 431 5 0 0 0 - - -;
#N canvas 168 71 1108 945 texto 0;
#X obj 421 34 gemhead;
#X msg 252 388 font \$1;
#X obj 421 86 rotateXYZ;
#X obj 422 608 text3d;
#X obj 421 58 alpha;
#X obj 421 215 colorRGB;
#X obj 639 146 / 255;
#X obj 421 388 translateXYZ;
#X obj 252 -65 inlet;
#X obj 252 34 spigot;
#X obj 420 -95 inlet;
#X msg 466 -15 0;
#X msg 420 -19 1;
#X obj 420 -57 select 3;
#X text 851 -59 Texto c6;
#X text 942 -59 c12;
#X text 981 -59 c13;
#X text 1025 -59 c14;
#X text 1099 -59 Red c2;
#X text 1143 -59 Green c3;
#X text 1196 -59 Blue c4;
#X text 1243 -59 Alpha c1;
#X text 1322 -56 c18;
#X text 1384 -56 c19;
#X text 1442 -56 c20;
#X text 1492 -59 Size c15;
#X obj 853 -35 r \$0-c6;
#X obj 925 -35 r \$0-c12;
#X obj 984 -35 r \$0-c13;
#X obj 1044 -34 r \$0-c14;
#X obj 1099 -35 r \$0-c2;
#X obj 1149 -35 r \$0-c3;
#X obj 1204 -35 r \$0-c4;
#X obj 1255 -35 r \$0-c1;
#X obj 1376 -35 r \$0-c19;
#X obj 1508 -35 r \$0-c15;
#X obj 1440 -35 r \$0-c20;
#X obj 1317 -35 r \$0-c18;
#X obj 459 304 - 32768;
#X obj 520 304 - 32768;
#X obj 576 304 - 32768;
#X obj 459 342 / 4096;
#X obj 520 342 / 4096;
#X obj 576 341 / 4096;
#X obj 495 146 / 128;
#X obj 542 146 / 128;
#X obj 591 146 / 128;
#X obj 490 58 - 128;
#X obj 543 58 - 128;
#X obj 596 58 - 128;
#X obj 856 364 coll text.txt;
#C flags 1 0;
#C 1 Hello!;
#C 2 Next Generation;
#C 3 Pure Media Server;
#C 4 como mola;
#C 5 esto es una frase muy pero que muy larga y no puedo usar comas
;
#C 6 otra frasecita;
#C 7 ya no se que poner;
#C restore;
#X obj 856 420 prepend text;
#X obj 1363 510 / 8;
#X connect 0 0 4 0;
#X connect 1 0 3 0;
#X connect 2 0 5 0;
#X connect 4 0 2 0;
#X connect 5 0 7 0;
#X connect 6 0 5 4;
#X connect 7 0 3 0;
#X connect 8 0 9 0;
#X connect 9 0 1 0;
#X connect 10 0 13 0;
#X connect 11 0 0 0;
#X connect 11 0 9 1;
#X connect 12 0 0 0;
#X connect 12 0 9 1;
#X connect 13 0 12 0;
#X connect 13 1 11 0;
#X connect 26 0 50 0;
#X connect 27 0 47 0;
#X connect 28 0 48 0;
#X connect 29 0 49 0;
#X connect 30 0 44 0;
#X connect 31 0 45 0;
#X connect 32 0 46 0;
#X connect 33 0 6 0;
#X connect 34 0 39 0;
#X connect 35 0 52 0;
#X connect 36 0 40 0;
#X connect 37 0 38 0;
#X connect 38 0 41 0;
#X connect 39 0 42 0;
#X connect 40 0 43 0;
#X connect 41 0 7 1;
#X connect 42 0 7 2;
#X connect 43 0 7 3;
#X connect 44 0 5 1;
#X connect 45 0 5 2;
#X connect 46 0 5 3;
#X connect 47 0 2 1;
#X connect 48 0 2 2;
#X connect 49 0 2 3;
#X connect 50 0 51 0;
#X connect 51 0 3 0;
#X connect 52 0 3 1;
#X restore -67 722 pd texto;
#X connect 0 0 25 0;
#X connect 0 1 26 0;
#X connect 0 2 27 0;
#X connect 0 3 28 0;
#X connect 0 4 29 0;
#X connect 0 5 30 0;
#X connect 0 6 31 0;
#X connect 0 7 32 0;
#X connect 0 8 1 0;
#X connect 0 9 2 0;
#X connect 0 10 3 0;
#X connect 0 11 4 0;
#X connect 0 12 5 0;
#X connect 0 13 6 0;
#X connect 0 14 7 0;
#X connect 0 15 8 0;
#X connect 0 16 9 0;
#X connect 0 17 10 0;
#X connect 0 18 11 0;
#X connect 0 19 12 0;
#X connect 0 20 13 0;
#X connect 0 21 14 0;
#X connect 0 22 15 0;
#X connect 0 23 16 0;
#X connect 0 24 17 0;
#X connect 0 25 18 0;
#X connect 0 26 19 0;
#X connect 0 27 20 0;
#X connect 0 28 21 0;
#X connect 0 29 22 0;
#X connect 0 30 23 0;
#X connect 0 31 24 0;
#X connect 1 0 84 0;
#X connect 2 0 85 0;
#X connect 3 0 86 0;
#X connect 4 0 87 0;
#X connect 5 0 88 0;
#X connect 6 0 89 0;
#X connect 7 0 90 0;
#X connect 8 0 91 0;
#X connect 9 0 92 0;
#X connect 10 0 67 0;
#X connect 11 0 69 0;
#X connect 12 0 71 0;
#X connect 13 0 68 1;
#X connect 14 0 70 1;
#X connect 15 0 72 1;
#X connect 16 0 135 0;
#X connect 17 0 136 0;
#X connect 18 0 96 0;
#X connect 19 0 97 0;
#X connect 20 0 98 0;
#X connect 21 0 99 0;
#X connect 22 0 100 0;
#X connect 23 0 101 0;
#X connect 24 0 102 0;
#X connect 25 0 76 0;
#X connect 25 0 145 0;
#X connect 26 0 77 0;
#X connect 27 0 78 0;
#X connect 28 0 79 0;
#X connect 29 0 80 0;
#X connect 30 0 81 0;
#X connect 31 0 82 0;
#X connect 32 0 83 0;
#X connect 33 0 0 0;
#X connect 33 1 34 0;
#X connect 34 0 59 0;
#X connect 34 1 60 0;
#X connect 34 2 61 0;
#X connect 34 3 62 0;
#X connect 34 4 63 0;
#X connect 34 5 64 0;
#X connect 34 6 65 0;
#X connect 34 7 66 0;
#X connect 34 8 35 0;
#X connect 34 9 36 0;
#X connect 34 10 37 0;
#X connect 34 11 38 0;
#X connect 34 12 39 0;
#X connect 34 13 40 0;
#X connect 34 14 41 0;
#X connect 34 15 42 0;
#X connect 34 16 43 0;
#X connect 34 17 44 0;
#X connect 34 18 45 0;
#X connect 34 19 46 0;
#X connect 34 20 47 0;
#X connect 34 21 48 0;
#X connect 34 22 49 0;
#X connect 34 23 50 0;
#X connect 34 24 51 0;
#X connect 34 25 52 0;
#X connect 34 26 53 0;
#X connect 34 27 54 0;
#X connect 34 28 55 0;
#X connect 34 29 56 0;
#X connect 34 30 57 0;
#X connect 34 31 58 0;
#X connect 35 0 116 0;
#X connect 36 0 117 0;
#X connect 37 0 108 0;
#X connect 38 0 109 0;
#X connect 39 0 110 0;
#X connect 40 0 111 0;
#X connect 41 0 112 0;
#X connect 42 0 118 0;
#X connect 43 0 119 0;
#X connect 44 0 120 0;
#X connect 45 0 121 0;
#X connect 46 0 122 0;
#X connect 47 0 128 0;
#X connect 48 0 129 0;
#X connect 49 0 130 0;
#X connect 50 0 131 0;
#X connect 51 0 132 0;
#X connect 52 0 123 0;
#X connect 53 0 124 0;
#X connect 54 0 125 0;
#X connect 55 0 126 0;
#X connect 56 0 127 0;
#X connect 57 0 133 0;
#X connect 58 0 134 0;
#X connect 59 0 103 0;
#X connect 60 0 104 0;
#X connect 61 0 105 0;
#X connect 62 0 106 0;
#X connect 63 0 107 0;
#X connect 64 0 113 0;
#X connect 65 0 114 0;
#X connect 66 0 115 0;
#X connect 67 0 68 0;
#X connect 68 0 93 0;
#X connect 69 0 70 0;
#X connect 70 0 94 0;
#X connect 71 0 72 0;
#X connect 72 0 95 0;
#X connect 75 0 33 0;
#X connect 137 0 138 0;
#X connect 137 0 139 0;
#X connect 137 0 140 0;
#X connect 137 0 143 0;
#X connect 137 0 146 0;
#X connect 137 1 138 1;
#X connect 137 1 139 1;
#X connect 137 1 140 1;
#X connect 137 1 144 0;
#X connect 137 1 146 1;
#X connect 138 0 141 0;
#X connect 139 0 141 0;
#X connect 139 1 142 0;
#X connect 139 2 142 1;
#X connect 140 0 142 2;
#X connect 140 1 142 3;
#X coords 0 -1 1 1 500 60 1 -200 500;
