#N canvas 0 511 1392 480 10;
#X obj 169 -314 tgl 50 1 render_status_send render_status_receive Render
-20 -15 0 25 -260097 -1 -260097 0 1;
#X obj -25 -192 fondo;
#X obj 162 -83 imagen_1;
#X obj 212 -83 texto_1;
#X obj 257 -83 audio_1;
#X floatatom 210 -136 5 0 0 0 - - -;
#X symbolatom 38 -153 80 0 0 0 - - -;
#X obj 106 -137 selector_medios_1;
#X obj 38 -300 hradio 30 1 0 3 input_selector empty Input_Selector
0 -8 2 12 -258113 -262144 -258113 0;
#X obj -25 -253 midi;
#X obj -26 -223 manual;
#X text 44 -271 DMX/MIDI/Manual;
#X text -195 -224 Open for manual control -->;
#X text -52 -154 Open File -->;
#X text 515 -306 A render ON;
#X text 515 -288 S render OFF;
#X text 515 -269 Esc Destroy Windows;
#X text 516 -249 C create Window;
#X text 517 -229 F Fullscreen;
#X text 517 -210 R Reset graphics;
#X obj 27 -233 dmx;
#N canvas 0 396 1392 595 interface 0;
#X msg 861 -161 color 0 0 0;
#X msg 281 -163 create;
#X msg 947 -161 destroy;
#X msg 665 -160 reset;
#X msg 726 -159 print;
#X obj 506 -205 tgl 15 0 empty empty empty 17 7 0 10 -262144 -1 -1
1 1;
#X msg 506 -160 border \$1;
#X msg 405 -160 fullscreen \$1;
#X msg 579 -160 topmost \$1;
#X obj 579 -204 tgl 15 0 empty empty empty 17 7 0 10 -262144 -1 -1
0 1;
#X floatatom 453 -345 5 0 0 0 - - -;
#X msg 113 -50 1;
#X obj 947 -206 select 27;
#X msg 34 -52 0;
#X text 953 -223 Escape;
#X msg 405 -190 1;
#X msg 340 -162 cursor 0;
#X floatatom 836 -343 5 0 0 0 - - -;
#X obj 948 -260 select 9;
#X obj 113 -159 select 38;
#X text 343 29 A para renderizar Escape destruye la ventana de video
S para la renderizacion C para crear la pantalla f pantalla completa
R resetea propiedades graficas;
#X obj 34 -165 select 39;
#X obj 562 -369 loadbang;
#X obj 77 6 s render_status_receive;
#X obj 311 -67 r render_status_send;
#X obj 395 -362 key;
#X obj 113 -205 select 65;
#X text 128 -190 A;
#X obj 34 -208 select 83;
#X text 50 -194 S;
#X obj 200 -202 select 67;
#X text 215 -182 C;
#X msg 782 -159 title PMS;
#X obj 665 -198 select 82;
#X obj 405 -236 select 70;
#X obj 733 -360 gemkeyboard;
#X floatatom 1021 -48 5 0 0 0 - - -;
#X floatatom 1071 -48 5 0 0 0 - - -;
#X msg 1054 -128 0;
#X floatatom 1021 4 5 0 0 0 - - -;
#X floatatom 1072 3 5 0 0 0 - - -;
#X msg 1222 -66 1280;
#X msg 1276 -65 1024;
#X obj 911 -16 pack f f;
#X msg 911 17 offset \$1 \$2;
#X obj 1015 43 pack f f;
#X obj 911 -78 t b;
#X obj 1094 45 t b;
#X text 1018 -71 Window position;
#X text 1027 -23 Window Size;
#X msg 1004 -130 1280;
#X msg 1016 76 dimen \$1 \$2;
#X msg 781 -45 offset 300 300;
#X msg 786 -20 dimen 300 300;
#X obj 704 125 print WINDOW;
#X msg 506 -247 1;
#X obj 767 -220 delay 50;
#X obj 580 -15 gemwin 25;
#X connect 0 0 57 0;
#X connect 1 0 54 0;
#X connect 1 0 57 0;
#X connect 2 0 54 0;
#X connect 2 0 57 0;
#X connect 3 0 54 0;
#X connect 3 0 57 0;
#X connect 4 0 57 0;
#X connect 5 0 6 0;
#X connect 6 0 57 0;
#X connect 7 0 54 0;
#X connect 7 0 57 0;
#X connect 8 0 57 0;
#X connect 9 0 8 0;
#X connect 11 0 23 0;
#X connect 12 0 2 0;
#X connect 13 0 23 0;
#X connect 15 0 7 0;
#X connect 16 0 57 0;
#X connect 18 0 2 0;
#X connect 19 0 11 0;
#X connect 21 0 13 0;
#X connect 22 0 13 0;
#X connect 22 0 0 0;
#X connect 22 0 32 0;
#X connect 22 0 38 0;
#X connect 22 0 55 0;
#X connect 22 0 42 0;
#X connect 24 0 57 0;
#X connect 25 0 10 0;
#X connect 25 0 12 0;
#X connect 25 0 26 0;
#X connect 25 0 28 0;
#X connect 25 0 30 0;
#X connect 25 0 33 0;
#X connect 25 0 34 0;
#X connect 26 0 11 0;
#X connect 28 0 13 0;
#X connect 30 0 1 0;
#X connect 30 0 11 0;
#X connect 32 0 57 0;
#X connect 33 0 3 0;
#X connect 33 0 56 0;
#X connect 34 0 15 0;
#X connect 34 0 16 0;
#X connect 35 0 17 0;
#X connect 35 0 18 0;
#X connect 35 0 19 0;
#X connect 35 0 21 0;
#X connect 36 0 43 0;
#X connect 37 0 43 1;
#X connect 37 0 46 0;
#X connect 38 0 37 0;
#X connect 38 0 50 0;
#X connect 39 0 45 0;
#X connect 40 0 45 1;
#X connect 40 0 47 0;
#X connect 41 0 39 0;
#X connect 42 0 40 0;
#X connect 42 0 41 0;
#X connect 43 0 44 0;
#X connect 44 0 54 0;
#X connect 44 0 57 0;
#X connect 45 0 51 0;
#X connect 46 0 43 0;
#X connect 47 0 45 0;
#X connect 50 0 36 0;
#X connect 51 0 54 0;
#X connect 51 0 57 0;
#X connect 52 0 57 0;
#X connect 53 0 57 0;
#X connect 55 0 5 0;
#X connect 56 0 32 0;
#X coords 0 -1 1 0 125 125 1 1000 -100;
#X restore 700 -313 pd interface;
#X obj 559 -168 config;
#N canvas 608 54 752 604 videomix_1 0;
#X obj 152 20 inlet;
#X obj 223 23 inlet;
#X obj 196 672 pix_texture;
#X obj 196 333 colorRGB;
#X obj 395 255 / 255;
#X obj 347 254 / 127;
#X obj 298 253 / 127;
#X obj 251 252 / 127;
#X obj 252 222 r c2;
#X obj 298 223 r c3;
#X obj 347 224 r c4;
#X obj 395 225 r c1;
#X text 298 207 Green;
#X text 256 206 Red;
#X text 348 208 Blue;
#X text 393 207 Alpha;
#X obj 196 176 rotateXYZ;
#X obj 286 77 r c12;
#X obj 346 75 r c13;
#X obj 405 77 r c14;
#X obj 221 367 r c18;
#X obj 274 368 r c19;
#X obj 325 366 r c20;
#X obj 286 113 * 1.5;
#X obj 346 117 * 1.5;
#X obj 405 117 * 1.5;
#X obj 333 515 r c15;
#X obj 378 515 r c16;
#X obj 426 514 r c17;
#X obj 333 583 pack f f f;
#X msg 221 576 1;
#X obj 221 541 loadbang;
#X obj 196 485 translateXYZ;
#X obj 325 443 - 20;
#X obj 325 401 / 10;
#X obj 457 603 t b;
#X obj 333 550 / 128;
#X obj 378 549 / 128;
#X obj 274 402 / 5;
#X obj 221 401 / 5;
#X obj 221 445 - 25;
#X obj 274 444 - 25;
#X obj 426 551 / 128;
#X obj 196 626 scale XYZ;
#X obj 196 715 rectangle 16 12;
#X obj 196 113 alpha;
#X connect 0 0 45 0;
#X connect 1 0 45 0;
#X connect 2 0 44 0;
#X connect 3 0 32 0;
#X connect 4 0 3 4;
#X connect 5 0 3 3;
#X connect 6 0 3 2;
#X connect 7 0 3 1;
#X connect 8 0 7 0;
#X connect 9 0 6 0;
#X connect 10 0 5 0;
#X connect 11 0 4 0;
#X connect 16 0 3 0;
#X connect 17 0 23 0;
#X connect 18 0 24 0;
#X connect 19 0 25 0;
#X connect 20 0 39 0;
#X connect 21 0 38 0;
#X connect 22 0 34 0;
#X connect 23 0 16 1;
#X connect 24 0 16 2;
#X connect 25 0 16 3;
#X connect 26 0 36 0;
#X connect 27 0 37 0;
#X connect 28 0 42 0;
#X connect 29 0 43 2;
#X connect 30 0 43 1;
#X connect 31 0 30 0;
#X connect 32 0 43 0;
#X connect 33 0 32 3;
#X connect 34 0 33 0;
#X connect 35 0 29 0;
#X connect 36 0 29 0;
#X connect 37 0 29 1;
#X connect 37 0 35 0;
#X connect 38 0 41 0;
#X connect 39 0 40 0;
#X connect 40 0 32 1;
#X connect 41 0 32 2;
#X connect 42 0 29 2;
#X connect 42 0 35 0;
#X connect 43 0 2 0;
#X connect 45 0 16 0;
#X restore 84 -10 pd videomix_1;
#X obj 66 -87 video_1;
#X connect 2 0 23 1;
#X connect 7 0 6 0;
#X connect 7 0 2 0;
#X connect 7 0 3 0;
#X connect 7 0 4 0;
#X connect 7 0 24 0;
#X connect 7 1 5 0;
#X connect 7 1 2 1;
#X connect 7 1 3 1;
#X connect 7 1 4 1;
#X connect 7 1 24 1;
#X connect 24 0 23 0;
#X coords 0 0 1 1 85 60 0;
