#N canvas 0 454 1379 487 10;
#X obj 169 -314 tgl 50 1 render_status_send render_status_receive Render
-20 -15 0 25 -260097 -1 -260097 0 1;
#X floatatom 172 -123 5 0 0 0 - - -;
#X symbolatom 38 -153 50 0 0 0 - - -;
#X obj 38 -300 hradio 30 1 0 3 input_selector empty Input_Selector
0 -8 2 12 -258113 -262144 -258113 0;
#X text 44 -271 DMX/MIDI/Manual;
#X text -219 -219 Open for manual control -->;
#X text -52 -154 Open File -->;
#X text 515 -306 A render ON;
#X text 515 -288 S render OFF;
#X text 515 -269 Esc Destroy Windows;
#X text 516 -249 C create Window;
#X text 517 -229 F Fullscreen;
#X text 517 -210 R Reset graphics;
#N canvas 0 396 1392 595 interface 0;
#X msg 861 -161 color 0 0 0;
#X msg 281 -163 create;
#X msg 947 -161 destroy;
#X msg 665 -160 reset;
#X msg 726 -159 print;
#X obj 506 -205 tgl 15 0 empty empty empty 17 7 0 10 -262144 -1 -1
1 1;
#X msg 506 -160 border \$1;
#X msg 405 -160 fullscreen \$1;
#X msg 579 -160 topmost \$1;
#X obj 579 -204 tgl 15 0 empty empty empty 17 7 0 10 -262144 -1 -1
0 1;
#X floatatom 453 -345 5 0 0 0 - - -;
#X msg 113 -50 1;
#X obj 947 -206 select 27;
#X msg 34 -52 0;
#X text 953 -223 Escape;
#X msg 405 -190 1;
#X msg 340 -162 cursor 0;
#X floatatom 836 -343 5 0 0 0 - - -;
#X obj 948 -260 select 9;
#X obj 113 -159 select 38;
#X text 343 29 A para renderizar Escape destruye la ventana de video
S para la renderizacion C para crear la pantalla f pantalla completa
R resetea propiedades graficas;
#X obj 34 -165 select 39;
#X obj 562 -369 loadbang;
#X obj 77 6 s render_status_receive;
#X obj 311 -67 r render_status_send;
#X obj 395 -362 key;
#X obj 113 -205 select 65;
#X text 128 -190 A;
#X obj 34 -208 select 83;
#X text 50 -194 S;
#X obj 200 -202 select 67;
#X text 215 -182 C;
#X msg 782 -159 title PMS;
#X obj 665 -198 select 82;
#X obj 405 -236 select 70;
#X obj 733 -360 gemkeyboard;
#X floatatom 1021 -48 5 0 0 0 - - -;
#X floatatom 1071 -48 5 0 0 0 - - -;
#X msg 1054 -128 0;
#X floatatom 1021 4 5 0 0 0 - - -;
#X floatatom 1072 3 5 0 0 0 - - -;
#X msg 1222 -66 1280;
#X msg 1276 -65 1024;
#X obj 911 -16 pack f f;
#X msg 911 17 offset \$1 \$2;
#X obj 1015 43 pack f f;
#X obj 911 -78 t b;
#X obj 1094 45 t b;
#X text 1018 -71 Window position;
#X text 1027 -23 Window Size;
#X msg 1004 -130 1280;
#X msg 1016 76 dimen \$1 \$2;
#X msg 781 -45 offset 300 300;
#X msg 786 -20 dimen 300 300;
#X obj 704 125 print WINDOW;
#X msg 506 -247 1;
#X obj 767 -220 delay 50;
#X obj 580 -15 gemwin 25;
#X connect 0 0 57 0;
#X connect 1 0 54 0;
#X connect 1 0 57 0;
#X connect 2 0 54 0;
#X connect 2 0 57 0;
#X connect 3 0 54 0;
#X connect 3 0 57 0;
#X connect 4 0 57 0;
#X connect 5 0 6 0;
#X connect 6 0 57 0;
#X connect 7 0 54 0;
#X connect 7 0 57 0;
#X connect 8 0 57 0;
#X connect 9 0 8 0;
#X connect 11 0 23 0;
#X connect 12 0 2 0;
#X connect 13 0 23 0;
#X connect 15 0 7 0;
#X connect 16 0 57 0;
#X connect 18 0 2 0;
#X connect 19 0 11 0;
#X connect 21 0 13 0;
#X connect 22 0 13 0;
#X connect 22 0 0 0;
#X connect 22 0 32 0;
#X connect 22 0 38 0;
#X connect 22 0 55 0;
#X connect 22 0 42 0;
#X connect 24 0 57 0;
#X connect 25 0 10 0;
#X connect 25 0 12 0;
#X connect 25 0 26 0;
#X connect 25 0 28 0;
#X connect 25 0 30 0;
#X connect 25 0 33 0;
#X connect 25 0 34 0;
#X connect 26 0 11 0;
#X connect 28 0 13 0;
#X connect 30 0 1 0;
#X connect 30 0 11 0;
#X connect 32 0 57 0;
#X connect 33 0 3 0;
#X connect 33 0 56 0;
#X connect 34 0 15 0;
#X connect 34 0 16 0;
#X connect 35 0 17 0;
#X connect 35 0 18 0;
#X connect 35 0 19 0;
#X connect 35 0 21 0;
#X connect 36 0 43 0;
#X connect 37 0 43 1;
#X connect 37 0 46 0;
#X connect 38 0 37 0;
#X connect 38 0 50 0;
#X connect 39 0 45 0;
#X connect 40 0 45 1;
#X connect 40 0 47 0;
#X connect 41 0 39 0;
#X connect 42 0 40 0;
#X connect 42 0 41 0;
#X connect 43 0 44 0;
#X connect 44 0 54 0;
#X connect 44 0 57 0;
#X connect 45 0 51 0;
#X connect 46 0 43 0;
#X connect 47 0 45 0;
#X connect 50 0 36 0;
#X connect 51 0 54 0;
#X connect 51 0 57 0;
#X connect 52 0 57 0;
#X connect 53 0 57 0;
#X connect 55 0 5 0;
#X connect 56 0 32 0;
#X coords 0 -1 1 0 125 125 1 1000 -100;
#X restore 700 -313 pd interface;
#N canvas 608 54 752 604 videomix_1 0;
#X obj 152 20 inlet;
#X obj 223 23 inlet;
#X obj 196 672 pix_texture;
#X obj 196 333 colorRGB;
#X obj 395 255 / 255;
#X obj 347 254 / 127;
#X obj 298 253 / 127;
#X obj 251 252 / 127;
#X obj 252 222 r c2;
#X obj 298 223 r c3;
#X obj 347 224 r c4;
#X obj 395 225 r c1;
#X text 298 207 Green;
#X text 256 206 Red;
#X text 348 208 Blue;
#X text 393 207 Alpha;
#X obj 196 176 rotateXYZ;
#X obj 286 77 r c12;
#X obj 346 75 r c13;
#X obj 405 77 r c14;
#X obj 221 367 r c18;
#X obj 274 368 r c19;
#X obj 325 366 r c20;
#X obj 286 113 * 1.5;
#X obj 346 117 * 1.5;
#X obj 405 117 * 1.5;
#X obj 333 515 r c15;
#X obj 378 515 r c16;
#X obj 426 514 r c17;
#X obj 333 583 pack f f f;
#X msg 221 576 1;
#X obj 221 541 loadbang;
#X obj 196 485 translateXYZ;
#X obj 325 443 - 20;
#X obj 325 401 / 10;
#X obj 457 603 t b;
#X obj 333 550 / 128;
#X obj 378 549 / 128;
#X obj 274 402 / 5;
#X obj 221 401 / 5;
#X obj 221 445 - 25;
#X obj 274 444 - 25;
#X obj 426 551 / 128;
#X obj 196 626 scale XYZ;
#X obj 196 715 rectangle 16 12;
#X obj 196 113 alpha;
#X connect 0 0 45 0;
#X connect 1 0 45 0;
#X connect 2 0 44 0;
#X connect 3 0 32 0;
#X connect 4 0 3 4;
#X connect 5 0 3 3;
#X connect 6 0 3 2;
#X connect 7 0 3 1;
#X connect 8 0 7 0;
#X connect 9 0 6 0;
#X connect 10 0 5 0;
#X connect 11 0 4 0;
#X connect 16 0 3 0;
#X connect 17 0 23 0;
#X connect 18 0 24 0;
#X connect 19 0 25 0;
#X connect 20 0 39 0;
#X connect 21 0 38 0;
#X connect 22 0 34 0;
#X connect 23 0 16 1;
#X connect 24 0 16 2;
#X connect 25 0 16 3;
#X connect 26 0 36 0;
#X connect 27 0 37 0;
#X connect 28 0 42 0;
#X connect 29 0 43 2;
#X connect 30 0 43 1;
#X connect 31 0 30 0;
#X connect 32 0 43 0;
#X connect 33 0 32 3;
#X connect 34 0 33 0;
#X connect 35 0 29 0;
#X connect 36 0 29 0;
#X connect 37 0 29 1;
#X connect 37 0 35 0;
#X connect 38 0 41 0;
#X connect 39 0 40 0;
#X connect 40 0 32 1;
#X connect 41 0 32 2;
#X connect 42 0 29 2;
#X connect 42 0 35 0;
#X connect 43 0 2 0;
#X connect 45 0 16 0;
#X restore 64 -10 pd videomix_1;
#X obj 559 -168 config;
#N canvas 0 0 1173 801 dmx 0;
#X obj 461 330 artnetin;
#X obj -155 482 list split 32;
#X text 319 128 Subnet Universo;
#X obj 91 -44 loadbang;
#X obj -183 448 list split;
#X obj 6 486 list split 32;
#X obj -22 449 list split;
#X obj 115 212 - 1;
#X obj 176 211 - 1;
#X msg 116 71 1;
#X msg 178 69 33;
#X floatatom 116 151 5 0 0 0 - - -;
#X floatatom 177 150 5 0 0 0 - - -;
#X text 110 133 Layer 1;
#X text 169 131 Layer 2;
#X text 192 109 DMX Address;
#X obj 476 148 bng 15 250 50 0 empty empty empty 17 7 0 10 -262144
-1 -1;
#X text 361 109 ArtNet control;
#X floatatom 327 149 5 0 0 0 - - -;
#X floatatom 375 150 5 0 0 0 - - -;
#X obj 437 147 bng 15 250 50 0 empty empty empty 17 7 0 10 -262144
-1 -1;
#X obj 327 207 t f;
#X obj 327 233 pack f f;
#X msg 346 49 0;
#X text 220 132 Layer 3;
#X text 272 131 Layer 4;
#X floatatom 227 150 5 0 0 0 - - -;
#X floatatom 281 150 5 0 0 0 - - -;
#X msg 227 71 65;
#X msg 281 73 73;
#X msg 477 209 close;
#X obj 521 348 bng 15 250 50 0 empty empty empty 17 7 0 10 -262144
-1 -1;
#X msg 408 262 open \$1 \$2;
#X text 430 128 open;
#X text 465 128 close;
#N canvas 541 273 449 300 demux_1 0;
#X obj -441 434 s c1;
#X obj -396 434 s c2;
#X obj -347 435 s c3;
#X obj -251 438 s c5;
#X obj -461 554 s c6;
#X obj -411 554 s c7;
#X obj -364 553 s c8;
#X obj -317 554 s c9;
#X obj -272 554 s c10;
#X obj -226 554 s c11;
#X obj -180 556 s c12;
#X obj -130 558 s c13;
#X obj -81 556 s c14;
#X obj -33 557 s c15;
#X obj 18 561 s c16;
#X obj 66 589 s c17;
#X obj 111 593 s c18;
#X obj 155 597 s c19;
#X obj 203 597 s c20;
#X obj 251 597 s c21;
#X obj 302 597 s c22;
#X obj 351 598 s c23;
#X obj 401 597 s c24;
#X obj 454 604 s c25;
#X obj 503 604 s c26;
#X obj 351 491 s c28;
#X obj 553 604 s c27;
#X obj 400 492 s c29;
#X obj 445 490 s c30;
#X obj 99 335 unpack f f f f f f f f f f f f f f f f f f f f f f f
f f f f f f f f f;
#X obj 493 490 s c31;
#X obj 542 488 s c32;
#X obj -299 437 s c4;
#X obj 79 344 bng 15 250 50 0 empty empty empty 17 7 0 10 -262144 -1
-1;
#X obj -318 522 change;
#X obj -272 523 change;
#X obj -228 523 change;
#X obj -179 524 change;
#X obj -132 525 change;
#X obj -83 525 change;
#X obj -34 527 change;
#X obj 15 526 change;
#X obj 64 524 change;
#X obj 110 525 change;
#X obj 154 525 change;
#X obj 203 526 change;
#X obj 250 527 change;
#X obj 299 527 change;
#X obj 348 529 change;
#X obj 397 528 change;
#X obj 452 526 change;
#X obj 498 527 change;
#X obj 542 527 change;
#X obj 343 413 change;
#X obj 390 414 change;
#X obj 439 414 change;
#X obj 488 416 change;
#X obj 537 415 change;
#X obj -441 405 change;
#X obj -395 406 change;
#X obj -351 406 change;
#X obj -302 407 change;
#X obj -255 408 change;
#X obj -463 521 change;
#X obj -414 523 change;
#X obj -365 522 change;
#X floatatom -435 480 5 0 0 0 - - -;
#X floatatom 2 338 5 0 0 0 - - -;
#X floatatom -352 479 5 0 0 0 - - -;
#X floatatom -395 480 5 0 0 0 - - -;
#X floatatom -308 479 5 0 0 0 - - -;
#X obj 99 281 inlet;
#X connect 29 0 33 0;
#X connect 29 0 58 0;
#X connect 29 1 59 0;
#X connect 29 1 67 0;
#X connect 29 2 60 0;
#X connect 29 3 61 0;
#X connect 29 4 62 0;
#X connect 29 5 63 0;
#X connect 29 6 64 0;
#X connect 29 7 65 0;
#X connect 29 8 34 0;
#X connect 29 9 35 0;
#X connect 29 10 36 0;
#X connect 29 11 37 0;
#X connect 29 12 38 0;
#X connect 29 13 39 0;
#X connect 29 14 40 0;
#X connect 29 15 41 0;
#X connect 29 16 42 0;
#X connect 29 17 43 0;
#X connect 29 18 44 0;
#X connect 29 19 45 0;
#X connect 29 20 46 0;
#X connect 29 21 47 0;
#X connect 29 22 48 0;
#X connect 29 23 49 0;
#X connect 29 24 50 0;
#X connect 29 25 51 0;
#X connect 29 26 52 0;
#X connect 29 27 53 0;
#X connect 29 28 54 0;
#X connect 29 29 55 0;
#X connect 29 30 56 0;
#X connect 29 31 57 0;
#X connect 34 0 7 0;
#X connect 35 0 8 0;
#X connect 36 0 9 0;
#X connect 37 0 10 0;
#X connect 38 0 11 0;
#X connect 39 0 12 0;
#X connect 40 0 13 0;
#X connect 41 0 14 0;
#X connect 42 0 15 0;
#X connect 43 0 16 0;
#X connect 44 0 17 0;
#X connect 45 0 18 0;
#X connect 46 0 19 0;
#X connect 47 0 20 0;
#X connect 48 0 21 0;
#X connect 49 0 22 0;
#X connect 50 0 23 0;
#X connect 51 0 24 0;
#X connect 52 0 26 0;
#X connect 53 0 25 0;
#X connect 54 0 27 0;
#X connect 55 0 28 0;
#X connect 56 0 30 0;
#X connect 57 0 31 0;
#X connect 58 0 0 0;
#X connect 58 0 66 0;
#X connect 59 0 1 0;
#X connect 59 0 69 0;
#X connect 60 0 2 0;
#X connect 60 0 68 0;
#X connect 61 0 32 0;
#X connect 61 0 70 0;
#X connect 62 0 3 0;
#X connect 63 0 4 0;
#X connect 64 0 5 0;
#X connect 65 0 6 0;
#X connect 71 0 29 0;
#X restore -155 516 pd demux_1;
#N canvas 0 0 1280 943 demux_2 0;
#X obj 109 345 unpack f f f f f f f f f f f f f f f f f f f f f f f
f f f f f f f f f;
#X obj 89 354 bng 15 250 50 0 empty empty empty 17 7 0 10 -262144 -1
-1;
#X obj -308 532 change;
#X obj -262 533 change;
#X obj -218 533 change;
#X obj -169 534 change;
#X obj -122 535 change;
#X obj -73 535 change;
#X obj -24 537 change;
#X obj 25 536 change;
#X obj 74 534 change;
#X obj 120 535 change;
#X obj 164 535 change;
#X obj 213 536 change;
#X obj 260 537 change;
#X obj 309 537 change;
#X obj 358 539 change;
#X obj 407 538 change;
#X obj 462 536 change;
#X obj 508 537 change;
#X obj 552 537 change;
#X obj 353 423 change;
#X obj 400 424 change;
#X obj 449 424 change;
#X obj 498 426 change;
#X obj 547 425 change;
#X obj -431 415 change;
#X obj -385 416 change;
#X obj -341 416 change;
#X obj -292 417 change;
#X obj -245 418 change;
#X obj -453 531 change;
#X obj -404 533 change;
#X obj -355 532 change;
#X floatatom -425 490 5 0 0 0 - - -;
#X floatatom 12 348 5 0 0 0 - - -;
#X floatatom -342 489 5 0 0 0 - - -;
#X floatatom -385 490 5 0 0 0 - - -;
#X floatatom -298 489 5 0 0 0 - - -;
#X obj 109 291 inlet;
#X obj -431 444 s c33;
#X obj -386 444 s c34;
#X obj -337 445 s c35;
#X obj -289 447 s c36;
#X obj -241 448 s c37;
#X obj -451 564 s c38;
#X obj -401 564 s c39;
#X obj -354 563 s c40;
#X obj -307 564 s c41;
#X obj -262 564 s c42;
#X obj -216 564 s c43;
#X obj -170 566 s c44;
#X obj -120 568 s c45;
#X obj -71 566 s c46;
#X obj -23 567 s c47;
#X obj 28 571 s c48;
#X obj 76 599 s c49;
#X obj 121 603 s c50;
#X obj 165 607 s c51;
#X obj 213 607 s c52;
#X obj 261 607 s c53;
#X obj 312 607 s c54;
#X obj 361 608 s c55;
#X obj 411 607 s c56;
#X obj 464 614 s c57;
#X obj 513 614 s c58;
#X obj 563 614 s c59;
#X obj 361 501 s c60;
#X obj 410 502 s c61;
#X obj 455 500 s c62;
#X obj 503 500 s c63;
#X obj 552 498 s c64;
#X connect 0 0 1 0;
#X connect 0 0 26 0;
#X connect 0 1 27 0;
#X connect 0 1 35 0;
#X connect 0 2 28 0;
#X connect 0 3 29 0;
#X connect 0 4 30 0;
#X connect 0 5 31 0;
#X connect 0 6 32 0;
#X connect 0 7 33 0;
#X connect 0 8 2 0;
#X connect 0 9 3 0;
#X connect 0 10 4 0;
#X connect 0 11 5 0;
#X connect 0 12 6 0;
#X connect 0 13 7 0;
#X connect 0 14 8 0;
#X connect 0 15 9 0;
#X connect 0 16 10 0;
#X connect 0 17 11 0;
#X connect 0 18 12 0;
#X connect 0 19 13 0;
#X connect 0 20 14 0;
#X connect 0 21 15 0;
#X connect 0 22 16 0;
#X connect 0 23 17 0;
#X connect 0 24 18 0;
#X connect 0 25 19 0;
#X connect 0 26 20 0;
#X connect 0 27 21 0;
#X connect 0 28 22 0;
#X connect 0 29 23 0;
#X connect 0 30 24 0;
#X connect 0 31 25 0;
#X connect 2 0 48 0;
#X connect 3 0 49 0;
#X connect 4 0 50 0;
#X connect 5 0 51 0;
#X connect 6 0 52 0;
#X connect 7 0 53 0;
#X connect 8 0 54 0;
#X connect 9 0 55 0;
#X connect 10 0 56 0;
#X connect 11 0 57 0;
#X connect 12 0 58 0;
#X connect 13 0 59 0;
#X connect 14 0 60 0;
#X connect 15 0 61 0;
#X connect 16 0 62 0;
#X connect 17 0 63 0;
#X connect 18 0 64 0;
#X connect 19 0 65 0;
#X connect 20 0 66 0;
#X connect 21 0 67 0;
#X connect 22 0 68 0;
#X connect 23 0 69 0;
#X connect 24 0 70 0;
#X connect 25 0 71 0;
#X connect 26 0 34 0;
#X connect 26 0 40 0;
#X connect 27 0 37 0;
#X connect 27 0 41 0;
#X connect 28 0 36 0;
#X connect 28 0 42 0;
#X connect 29 0 38 0;
#X connect 29 0 43 0;
#X connect 30 0 44 0;
#X connect 31 0 45 0;
#X connect 32 0 46 0;
#X connect 33 0 47 0;
#X connect 39 0 0 0;
#X restore 6 523 pd demux_2;
#X obj 123 481 list split 32;
#X obj 95 444 list split;
#X obj 227 212 - 1;
#N canvas 0 0 1280 943 demux_3 0;
#X obj 109 345 unpack f f f f f f f f f f f f f f f f f f f f f f f
f f f f f f f f f;
#X obj 89 354 bng 15 250 50 0 empty empty empty 17 7 0 10 -262144 -1
-1;
#X obj -308 532 change;
#X obj -262 533 change;
#X obj -218 533 change;
#X obj -169 534 change;
#X obj -122 535 change;
#X obj -73 535 change;
#X obj -24 537 change;
#X obj 25 536 change;
#X obj 74 534 change;
#X obj 120 535 change;
#X obj 164 535 change;
#X obj 213 536 change;
#X obj 260 537 change;
#X obj 309 537 change;
#X obj 358 539 change;
#X obj 407 538 change;
#X obj 462 536 change;
#X obj 508 537 change;
#X obj 552 537 change;
#X obj 353 423 change;
#X obj 400 424 change;
#X obj 449 424 change;
#X obj 498 426 change;
#X obj 547 425 change;
#X obj -431 415 change;
#X obj -385 416 change;
#X obj -341 416 change;
#X obj -292 417 change;
#X obj -245 418 change;
#X obj -453 531 change;
#X obj -404 533 change;
#X obj -355 532 change;
#X floatatom -425 490 5 0 0 0 - - -;
#X floatatom 12 348 5 0 0 0 - - -;
#X floatatom -342 489 5 0 0 0 - - -;
#X floatatom -385 490 5 0 0 0 - - -;
#X floatatom -298 489 5 0 0 0 - - -;
#X obj 109 291 inlet;
#X obj -431 444 s c65;
#X obj -386 444 s c66;
#X obj -337 445 s c67;
#X obj -289 447 s c68;
#X obj -241 448 s c69;
#X obj -451 564 s c70;
#X obj -401 564 s c71;
#X obj -354 563 s c72;
#X obj -307 564 s c73;
#X obj -262 564 s c74;
#X obj -216 564 s c75;
#X obj -170 566 s c76;
#X obj -122 567 s c77;
#X obj -73 565 s c78;
#X obj -24 567 s c79;
#X obj 25 573 s c80;
#X obj 74 598 s c81;
#X obj 121 603 s c82;
#X obj 165 607 s c83;
#X obj 213 607 s c84;
#X obj 261 607 s c85;
#X obj 312 607 s c86;
#X obj 361 608 s c87;
#X obj 411 607 s c88;
#X obj 464 614 s c89;
#X obj 513 614 s c90;
#X obj 563 614 s c91;
#X obj 361 501 s c92;
#X obj 410 502 s c93;
#X obj 455 500 s c94;
#X obj 503 500 s c95;
#X obj 552 498 s c96;
#X connect 0 0 1 0;
#X connect 0 0 26 0;
#X connect 0 1 27 0;
#X connect 0 1 35 0;
#X connect 0 2 28 0;
#X connect 0 3 29 0;
#X connect 0 4 30 0;
#X connect 0 5 31 0;
#X connect 0 6 32 0;
#X connect 0 7 33 0;
#X connect 0 8 2 0;
#X connect 0 9 3 0;
#X connect 0 10 4 0;
#X connect 0 11 5 0;
#X connect 0 12 6 0;
#X connect 0 13 7 0;
#X connect 0 14 8 0;
#X connect 0 15 9 0;
#X connect 0 16 10 0;
#X connect 0 17 11 0;
#X connect 0 18 12 0;
#X connect 0 19 13 0;
#X connect 0 20 14 0;
#X connect 0 21 15 0;
#X connect 0 22 16 0;
#X connect 0 23 17 0;
#X connect 0 24 18 0;
#X connect 0 25 19 0;
#X connect 0 26 20 0;
#X connect 0 27 21 0;
#X connect 0 28 22 0;
#X connect 0 29 23 0;
#X connect 0 30 24 0;
#X connect 0 31 25 0;
#X connect 2 0 48 0;
#X connect 3 0 49 0;
#X connect 4 0 50 0;
#X connect 5 0 51 0;
#X connect 6 0 52 0;
#X connect 7 0 53 0;
#X connect 8 0 54 0;
#X connect 9 0 55 0;
#X connect 10 0 56 0;
#X connect 11 0 57 0;
#X connect 12 0 58 0;
#X connect 13 0 59 0;
#X connect 14 0 60 0;
#X connect 15 0 61 0;
#X connect 16 0 62 0;
#X connect 17 0 63 0;
#X connect 18 0 64 0;
#X connect 19 0 65 0;
#X connect 20 0 66 0;
#X connect 21 0 67 0;
#X connect 22 0 68 0;
#X connect 23 0 69 0;
#X connect 24 0 70 0;
#X connect 25 0 71 0;
#X connect 26 0 34 0;
#X connect 26 0 40 0;
#X connect 27 0 37 0;
#X connect 27 0 41 0;
#X connect 28 0 36 0;
#X connect 28 0 42 0;
#X connect 29 0 38 0;
#X connect 29 0 43 0;
#X connect 30 0 44 0;
#X connect 31 0 45 0;
#X connect 32 0 46 0;
#X connect 33 0 47 0;
#X connect 39 0 0 0;
#X restore 123 518 pd demux_3;
#X obj 257 485 list split 32;
#X obj 229 448 list split;
#X obj 281 221 - 1;
#N canvas 0 0 1280 943 demux_4 0;
#X obj 109 345 unpack f f f f f f f f f f f f f f f f f f f f f f f
f f f f f f f f f;
#X obj 89 354 bng 15 250 50 0 empty empty empty 17 7 0 10 -262144 -1
-1;
#X obj -308 532 change;
#X obj -262 533 change;
#X obj -218 533 change;
#X obj -169 534 change;
#X obj -122 535 change;
#X obj -73 535 change;
#X obj -24 537 change;
#X obj 25 536 change;
#X obj 74 534 change;
#X obj 120 535 change;
#X obj 164 535 change;
#X obj 213 536 change;
#X obj 260 537 change;
#X obj 309 537 change;
#X obj 358 539 change;
#X obj 407 538 change;
#X obj 462 536 change;
#X obj 508 537 change;
#X obj 552 537 change;
#X obj 353 423 change;
#X obj 400 424 change;
#X obj 449 424 change;
#X obj 498 426 change;
#X obj 547 425 change;
#X obj -431 415 change;
#X obj -385 416 change;
#X obj -341 416 change;
#X obj -292 417 change;
#X obj -245 418 change;
#X obj -453 531 change;
#X obj -404 533 change;
#X obj -355 532 change;
#X floatatom -425 490 5 0 0 0 - - -;
#X floatatom 12 348 5 0 0 0 - - -;
#X floatatom -342 489 5 0 0 0 - - -;
#X floatatom -385 490 5 0 0 0 - - -;
#X floatatom -298 489 5 0 0 0 - - -;
#X obj 109 291 inlet;
#X obj -431 444 s c97;
#X obj -386 444 s c98;
#X obj -337 445 s c99;
#X obj -289 447 s c100;
#X obj -241 448 s c101;
#X obj -451 564 s c102;
#X obj -401 564 s c103;
#X obj -354 563 s c104;
#X obj -307 564 s c105;
#X obj -262 564 s c106;
#X obj -216 564 s c107;
#X obj -170 566 s c108;
#X obj -122 567 s c109;
#X obj -73 565 s c110;
#X obj -24 567 s c111;
#X obj 25 573 s c112;
#X obj 74 598 s c113;
#X obj 121 603 s c114;
#X obj 165 607 s c115;
#X obj 213 607 s c116;
#X obj 261 607 s c117;
#X obj 312 607 s c118;
#X obj 361 608 s c119;
#X obj 411 607 s c120;
#X obj 464 614 s c121;
#X obj 513 614 s c122;
#X obj 563 614 s c123;
#X obj 361 501 s c124;
#X obj 410 502 s c125;
#X obj 455 500 s c126;
#X obj 504 501 s c127;
#X obj 552 498 s c128;
#X connect 0 0 1 0;
#X connect 0 0 26 0;
#X connect 0 1 27 0;
#X connect 0 1 35 0;
#X connect 0 2 28 0;
#X connect 0 3 29 0;
#X connect 0 4 30 0;
#X connect 0 5 31 0;
#X connect 0 6 32 0;
#X connect 0 7 33 0;
#X connect 0 8 2 0;
#X connect 0 9 3 0;
#X connect 0 10 4 0;
#X connect 0 11 5 0;
#X connect 0 12 6 0;
#X connect 0 13 7 0;
#X connect 0 14 8 0;
#X connect 0 15 9 0;
#X connect 0 16 10 0;
#X connect 0 17 11 0;
#X connect 0 18 12 0;
#X connect 0 19 13 0;
#X connect 0 20 14 0;
#X connect 0 21 15 0;
#X connect 0 22 16 0;
#X connect 0 23 17 0;
#X connect 0 24 18 0;
#X connect 0 25 19 0;
#X connect 0 26 20 0;
#X connect 0 27 21 0;
#X connect 0 28 22 0;
#X connect 0 29 23 0;
#X connect 0 30 24 0;
#X connect 0 31 25 0;
#X connect 2 0 48 0;
#X connect 3 0 49 0;
#X connect 4 0 50 0;
#X connect 5 0 51 0;
#X connect 6 0 52 0;
#X connect 7 0 53 0;
#X connect 8 0 54 0;
#X connect 9 0 55 0;
#X connect 10 0 56 0;
#X connect 11 0 57 0;
#X connect 12 0 58 0;
#X connect 13 0 59 0;
#X connect 14 0 60 0;
#X connect 15 0 61 0;
#X connect 16 0 62 0;
#X connect 17 0 63 0;
#X connect 18 0 64 0;
#X connect 19 0 65 0;
#X connect 20 0 66 0;
#X connect 21 0 67 0;
#X connect 22 0 68 0;
#X connect 23 0 69 0;
#X connect 24 0 70 0;
#X connect 25 0 71 0;
#X connect 26 0 34 0;
#X connect 26 0 40 0;
#X connect 27 0 37 0;
#X connect 27 0 41 0;
#X connect 28 0 36 0;
#X connect 28 0 42 0;
#X connect 29 0 38 0;
#X connect 29 0 43 0;
#X connect 30 0 44 0;
#X connect 31 0 45 0;
#X connect 32 0 46 0;
#X connect 33 0 47 0;
#X connect 39 0 0 0;
#X restore 257 522 pd demux_4;
#X obj 640 256 r input_selector;
#X obj 459 398 spigot;
#X msg 572 358 1;
#X msg 605 358 0;
#X obj 640 297 sel 0;
#X connect 0 0 31 0;
#X connect 0 0 46 0;
#X connect 1 0 35 0;
#X connect 3 0 10 0;
#X connect 3 0 9 0;
#X connect 3 0 28 0;
#X connect 3 0 29 0;
#X connect 4 1 1 0;
#X connect 5 0 36 0;
#X connect 6 1 5 0;
#X connect 7 0 4 1;
#X connect 8 0 6 1;
#X connect 9 0 11 0;
#X connect 10 0 12 0;
#X connect 11 0 7 0;
#X connect 12 0 8 0;
#X connect 16 0 30 0;
#X connect 18 0 21 0;
#X connect 19 0 22 1;
#X connect 20 0 19 0;
#X connect 20 0 18 0;
#X connect 21 0 22 0;
#X connect 22 0 32 0;
#X connect 23 0 19 0;
#X connect 23 0 18 0;
#X connect 26 0 39 0;
#X connect 27 0 43 0;
#X connect 28 0 26 0;
#X connect 29 0 27 0;
#X connect 30 0 0 0;
#X connect 32 0 0 0;
#X connect 37 0 40 0;
#X connect 38 1 37 0;
#X connect 39 0 38 1;
#X connect 41 0 44 0;
#X connect 42 1 41 0;
#X connect 43 0 42 1;
#X connect 45 0 49 0;
#X connect 46 0 42 0;
#X connect 46 0 38 0;
#X connect 46 0 6 0;
#X connect 46 0 4 0;
#X connect 47 0 46 1;
#X connect 48 0 46 1;
#X connect 49 0 47 0;
#X connect 49 1 48 0;
#X coords 0 -1 1 1 400 100 1 100 100;
#X restore 38 -253 pd dmx;
#N canvas 0 0 450 300 fondo 0;
#X obj 625 -124 color 0 0 0;
#X obj 625 -168 alpha;
#X obj 625 31 pix_alpha;
#X text 608 -227 Pantalla fondo Negra;
#X floatatom 637 -49 5 0 0 0 - - -;
#X floatatom 677 -48 5 0 0 0 - - -;
#X obj 637 -85 tgl 15 0 empty empty empty 17 7 0 10 -262144 -1 -1 0
1;
#X obj 677 -85 tgl 15 0 empty empty empty 17 7 0 10 -262144 -1 -1 0
1;
#X msg 875 -42 0 0 0;
#X msg 722 -46 0 0 0;
#X msg 775 -44 1 1 1;
#X msg 825 -43 1 1 1;
#X obj 625 -205 gemhead 5;
#X obj 625 94 translateXYZ;
#X obj 764 24 loadbang;
#X obj 625 131 rectangle 16 12;
#X obj 843 105 bng 15 250 50 0 empty empty empty 17 7 0 10 -262144
-1 -1;
#X msg 722 63 -50;
#X msg 713 -150 1 1 1;
#X connect 0 0 2 0;
#X connect 1 0 0 0;
#X connect 2 0 13 0;
#X connect 4 0 2 1;
#X connect 5 0 2 2;
#X connect 6 0 4 0;
#X connect 7 0 5 0;
#X connect 8 0 2 4;
#X connect 9 0 2 3;
#X connect 10 0 2 3;
#X connect 11 0 2 4;
#X connect 12 0 1 0;
#X connect 13 0 15 0;
#X connect 14 0 17 0;
#X connect 16 0 17 0;
#X connect 17 0 13 3;
#X connect 18 0 0 1;
#X restore -34 -186 pd fondo;
#N canvas 0 0 450 300 manual 0;
#X obj -4 245 s c1;
#X obj 37 244 s c2;
#X obj 76 245 s c3;
#X obj 159 247 s c5;
#X obj 190 245 s c6;
#X obj 125 246 s c4;
#X obj -17 62 vsl 15 128 0 255 0 0 empty empty Alpha 0 -9 0 10 -191407
-1 -1 0 1;
#X obj 37 62 vsl 15 128 0 255 0 0 empty empty Red 0 -9 0 10 -258113
-1 -258113 0 1;
#X obj 76 65 vsl 15 128 0 255 0 1 empty empty Green 0 -9 0 10 -4034
-1 -1 6300 1;
#X obj 125 67 vsl 15 128 0 255 0 0 empty empty Blue 0 -9 0 10 -4160
-1 -1 0 1;
#X obj 159 70 vsl 15 128 0 255 0 0 empty empty Speed 0 -9 0 10 -261234
-1 -1 0 1;
#X obj -4 213 int;
#X obj 76 211 int;
#X obj 37 212 int;
#X obj 125 213 int;
#X obj 190 212 int;
#X obj 159 213 int;
#X obj 306 38 vsl 15 128 0 255 0 0 empty empty Reproduc 0 -9 0 10 -261234
-1 -1 0 1;
#X obj 355 48 vsl 15 128 0 255 0 0 empty empty inicio_loop 0 -9 0 10
-203904 -1 -1 0 1;
#X obj 385 61 vsl 15 128 0 255 0 0 empty empty Fin_loop 0 -9 0 10 -203904
-1 -1 0 1;
#X obj 418 81 vsl 15 128 0 255 0 0 empty empty RotX 0 -9 0 10 -204786
-1 -1 0 1;
#X obj 231 212 int;
#X obj 306 193 int;
#X obj 272 224 int;
#X obj 355 197 int;
#X obj 418 223 int;
#X obj 385 209 int;
#X obj 463 84 vsl 15 128 0 255 0 0 empty empty RotY 0 -9 0 10 -204786
-1 -1 0 1;
#X obj 502 82 vsl 15 128 0 255 0 0 empty empty RotZ 0 -9 0 10 -204786
-1 -1 0 1;
#X obj 547 73 vsl 15 128 0 255 0 0 empty empty Size 0 -9 0 10 -260097
-1 -1 0 1;
#X obj 581 72 vsl 15 128 0 255 0 0 empty empty empty 0 -9 0 10 -260097
-1 -1 0 1;
#X obj 615 75 vsl 15 128 0 255 0 0 empty empty empty 0 -9 0 10 -260097
-1 -1 0 1;
#X obj 664 80 vsl 15 128 0 255 0 0 empty empty empty 0 -9 0 10 -4034
-1 -1 0 1;
#X obj 463 230 int;
#X obj 547 215 int;
#X obj 502 226 int;
#X obj 583 218 int;
#X obj 664 223 int;
#X obj 613 218 int;
#X obj 699 80 vsl 15 128 0 255 0 0 empty empty empty 0 -9 0 10 -4034
-1 -1 0 1;
#X obj 730 80 vsl 15 128 0 255 0 0 empty empty empty 0 -9 0 10 -4034
-1 -1 0 1;
#X obj 801 81 vsl 15 128 0 255 0 0 empty empty Volumen 0 -9 0 10 -4032
-1 -1 0 1;
#X obj 867 81 vsl 15 128 0 255 0 0 empty empty Pan 0 -9 0 10 -4032
-1 -1 0 1;
#X obj 1028 83 vsl 15 128 0 255 0 0 empty empty empty 0 -9 0 10 -262144
-1 -1 0 1;
#X obj 1062 82 vsl 15 128 0 255 0 0 empty empty empty 0 -9 0 10 -262144
-1 -1 0 1;
#X obj 700 224 int;
#X obj 801 223 int;
#X obj 730 224 int;
#X obj 867 223 int;
#X obj 1059 225 int;
#X obj 1026 226 int;
#X obj 1103 81 vsl 15 128 0 255 0 0 empty empty empty 0 -9 0 10 -262144
-1 -1 0 1;
#X obj 1133 82 vsl 15 128 0 255 0 0 empty empty empty 0 -9 0 10 -262144
-1 -1 0 1;
#X obj 1166 83 vsl 15 128 0 255 0 0 empty empty empty 0 -9 0 10 -262144
-1 -1 0 1;
#X obj 1200 82 vsl 15 128 0 255 0 0 empty empty empty 0 -9 0 10 -262144
-1 -1 0 1;
#X obj 1234 85 vsl 15 128 0 255 0 0 empty empty empty 0 -9 0 10 -262144
-1 -1 0 1;
#X obj 1268 84 vsl 15 128 0 255 0 0 empty empty empty 0 -9 0 10 -262144
-1 -1 0 1;
#X obj 1103 226 int;
#X obj 1166 225 int;
#X obj 1133 226 int;
#X obj 1202 228 int;
#X obj 1265 227 int;
#X obj 1232 228 int;
#X obj 1304 77 vsl 15 128 0 255 0 0 empty empty empty 0 -9 0 10 -262144
-1 -1 0 1;
#X obj 1338 76 vsl 15 128 0 255 0 0 empty empty empty 0 -9 0 10 -262144
-1 -1 0 1;
#X obj 1335 219 int;
#X obj 1302 220 int;
#X obj 231 244 s c7;
#X obj 272 256 s c8;
#X obj 306 227 s c9;
#X obj 355 230 s c10;
#X obj 385 243 s c11;
#X obj 418 257 s c12;
#X obj 463 262 s c13;
#X obj 502 258 s c14;
#X obj 547 249 s c15;
#X obj 581 251 s c16;
#X obj 615 252 s c17;
#X obj 664 258 s c18;
#X obj 700 256 s c19;
#X obj 730 256 s c20;
#X obj 801 257 s c21;
#X obj 865 256 s c22;
#X obj 1028 260 s c23;
#X obj 1062 262 s c24;
#X obj 1103 258 s c25;
#X obj 1133 258 s c26;
#X obj 1166 259 s c27;
#X obj 1200 261 s c28;
#X obj 1234 262 s c29;
#X obj 1268 264 s c30;
#X obj 1304 254 s c31;
#X obj 1338 256 s c32;
#X floatatom 191 279 5 0 0 0 - - -;
#X floatatom 234 278 5 0 0 0 - - -;
#X floatatom 288 293 5 0 0 0 - - -;
#X floatatom 348 262 5 0 0 0 - - -;
#X msg 694 -9 128;
#X msg 360 -66 255;
#X msg 98 -45 128;
#X text 672 56 Position;
#X floatatom 157 279 5 0 0 0 - - -;
#X msg 159 -53 40;
#X msg 288 -78 0;
#X floatatom -4 287 5 0 0 0 - - -;
#X obj 190 81 vradio 15 1 0 8 empty empty Folder 0 -8 0 10 -257985
-1 -1 0;
#X obj 230 -100 vradio 15 1 0 25 empty empty File 0 -8 0 10 -257985
-1 -1 0;
#X floatatom 550 282 5 0 0 0 - - -;
#X floatatom 603 284 5 0 0 0 - - -;
#X obj 273 69 vsl 15 128 0 127 0 0 empty empty Media 0 -9 0 10 -257985
-1 -1 0 1;
#X obj 224 -164 bng 15 250 50 0 empty empty Locate 17 7 0 10 -258113
-1 -1;
#X msg 586 8 32;
#X obj 498 -90 vsl 15 128 0 127 0 0 empty empty empty 0 -9 0 10 -262144
-1 -1 0 1;
#X connect 6 0 11 0;
#X connect 7 0 13 0;
#X connect 8 0 12 0;
#X connect 9 0 14 0;
#X connect 10 0 16 0;
#X connect 11 0 0 0;
#X connect 11 0 104 0;
#X connect 12 0 2 0;
#X connect 13 0 1 0;
#X connect 14 0 5 0;
#X connect 15 0 4 0;
#X connect 15 0 93 0;
#X connect 16 0 3 0;
#X connect 16 0 101 0;
#X connect 17 0 22 0;
#X connect 18 0 24 0;
#X connect 19 0 26 0;
#X connect 20 0 25 0;
#X connect 21 0 67 0;
#X connect 21 0 94 0;
#X connect 22 0 69 0;
#X connect 22 0 96 0;
#X connect 23 0 68 0;
#X connect 23 0 95 0;
#X connect 24 0 70 0;
#X connect 25 0 72 0;
#X connect 26 0 71 0;
#X connect 27 0 33 0;
#X connect 28 0 35 0;
#X connect 29 0 34 0;
#X connect 29 0 107 0;
#X connect 30 0 36 0;
#X connect 30 0 108 0;
#X connect 31 0 38 0;
#X connect 32 0 37 0;
#X connect 33 0 73 0;
#X connect 34 0 75 0;
#X connect 35 0 74 0;
#X connect 36 0 76 0;
#X connect 37 0 78 0;
#X connect 38 0 77 0;
#X connect 39 0 45 0;
#X connect 40 0 47 0;
#X connect 41 0 46 0;
#X connect 42 0 48 0;
#X connect 43 0 50 0;
#X connect 44 0 49 0;
#X connect 45 0 79 0;
#X connect 46 0 81 0;
#X connect 47 0 80 0;
#X connect 48 0 82 0;
#X connect 49 0 84 0;
#X connect 50 0 83 0;
#X connect 51 0 57 0;
#X connect 52 0 59 0;
#X connect 53 0 58 0;
#X connect 54 0 60 0;
#X connect 55 0 62 0;
#X connect 56 0 61 0;
#X connect 57 0 85 0;
#X connect 58 0 87 0;
#X connect 59 0 86 0;
#X connect 60 0 88 0;
#X connect 61 0 90 0;
#X connect 62 0 89 0;
#X connect 63 0 66 0;
#X connect 64 0 65 0;
#X connect 65 0 92 0;
#X connect 66 0 91 0;
#X connect 97 0 40 0;
#X connect 97 0 32 0;
#X connect 97 0 39 0;
#X connect 98 0 19 0;
#X connect 99 0 7 0;
#X connect 99 0 8 0;
#X connect 99 0 9 0;
#X connect 102 0 10 0;
#X connect 103 0 6 0;
#X connect 103 0 17 0;
#X connect 103 0 20 0;
#X connect 103 0 27 0;
#X connect 103 0 28 0;
#X connect 105 0 15 0;
#X connect 106 0 21 0;
#X connect 109 0 23 0;
#X connect 110 0 99 0;
#X connect 110 0 102 0;
#X connect 110 0 103 0;
#X connect 110 0 98 0;
#X connect 110 0 111 0;
#X connect 110 0 97 0;
#X connect 111 0 29 0;
#X connect 111 0 30 0;
#X connect 111 0 31 0;
#X connect 112 0 15 0;
#X restore -37 -219 pd manual;
#N canvas 0 0 450 300 midi 0;
#X obj 713 -220 notein;
#X floatatom 679 -220 5 0 0 0 - - -;
#X floatatom 755 -220 5 0 0 0 - - -;
#X obj 68 318 s c1;
#X obj 68 287 int;
#X obj 110 287 int;
#X obj 110 319 s c2;
#X obj 157 288 int;
#X obj 199 288 int;
#X obj 157 319 s c3;
#X obj 199 320 s c4;
#X obj 240 288 int;
#X obj 282 288 int;
#X obj 329 289 int;
#X obj 371 289 int;
#X obj 240 319 s c5;
#X obj 194 110 select 0 1 2 3 4 5 6 7 8 9 10 11 12 13 14 15 16 17 18
19;
#X obj 410 292 int;
#X obj 452 292 int;
#X obj 499 293 int;
#X obj 541 293 int;
#X obj 582 293 int;
#X obj 624 293 int;
#X obj 671 294 int;
#X obj 713 294 int;
#X obj 756 294 int;
#X obj 803 295 int;
#X obj 845 295 int;
#X obj 282 322 s c6;
#X obj 331 322 s c7;
#X obj 371 322 s c8;
#X obj 410 323 s c9;
#X obj 452 325 s c10;
#X obj 499 324 s c11;
#X obj 541 325 s c12;
#X obj 582 324 s c13;
#X obj 624 326 s c14;
#X obj 671 326 s c15;
#X obj 713 327 s c16;
#X obj 756 327 s c17;
#X obj 803 327 s c18;
#X obj 845 328 s c19;
#X obj 892 293 int;
#X obj 892 326 s c20;
#X obj 1070 300 int;
#X obj 1112 300 int;
#X obj 1159 301 int;
#X obj 1201 301 int;
#X obj 1242 301 int;
#X obj 1284 301 int;
#X obj 1331 302 int;
#X obj 1373 302 int;
#X obj 1412 305 int;
#X obj 1454 305 int;
#X obj 1501 306 int;
#X obj 1543 306 int;
#X obj 1584 306 int;
#X obj 1626 306 int;
#X obj 1673 307 int;
#X obj 1715 307 int;
#X obj 1758 307 int;
#X obj 1805 308 int;
#X obj 1847 308 int;
#X obj 1894 306 int;
#X obj 77 661 int;
#X obj 119 661 int;
#X obj 166 662 int;
#X obj 208 662 int;
#X obj 249 662 int;
#X obj 291 662 int;
#X obj 338 663 int;
#X obj 380 663 int;
#X obj 419 666 int;
#X obj 461 666 int;
#X obj 508 667 int;
#X obj 550 667 int;
#X obj 591 667 int;
#X obj 633 667 int;
#X obj 680 668 int;
#X obj 722 668 int;
#X obj 765 668 int;
#X obj 814 668 int;
#X obj 859 668 int;
#X obj 906 666 int;
#X obj 1052 684 int;
#X obj 1094 684 int;
#X obj 1141 685 int;
#X obj 1183 685 int;
#X obj 1224 685 int;
#X obj 1266 685 int;
#X obj 1313 686 int;
#X obj 1355 686 int;
#X obj 1394 689 int;
#X obj 1436 689 int;
#X obj 1483 690 int;
#X obj 1525 690 int;
#X obj 1566 690 int;
#X obj 1608 690 int;
#X obj 1655 691 int;
#X obj 1697 691 int;
#X obj 1740 691 int;
#X obj 1787 692 int;
#X obj 1829 692 int;
#X obj 1876 690 int;
#X obj 1732 153 int;
#X obj 1714 537 int;
#X obj 739 514 int;
#X obj 1069 331 s c33;
#X obj 1112 332 s c34;
#X obj 1159 332 s c35;
#X obj 1201 333 s c36;
#X obj 1242 334 s c37;
#X obj 1285 335 s c38;
#X obj 1333 335 s c39;
#X obj 1373 335 s c40;
#X obj 1412 336 s c41;
#X obj 1454 338 s c42;
#X obj 1501 338 s c43;
#X obj 1543 338 s c44;
#X obj 1584 337 s c45;
#X obj 1626 339 s c46;
#X obj 1673 339 s c47;
#X obj 1714 340 s c48;
#X obj 1758 340 s c49;
#X obj 1805 340 s c50;
#X obj 1847 341 s c51;
#X obj 1894 339 s c52;
#X obj 1201 76 select 32 34 35 36 37 38 39 40 41 42 43 44 45 46 47
48 49 50 51 52;
#X obj 203 484 select 64 65 66 67 68 69 70 71 72 73 74 75 76 77 78
79 80 81 82 83;
#X obj 1178 507 select 96 97 98 99 100 101 102 103 104 105 106 107
108 109 110 111 112 113 114 115;
#X obj 77 692 s c65;
#X obj 120 693 s c66;
#X obj 166 693 s c67;
#X obj 208 694 s c68;
#X obj 249 693 s c69;
#X obj 291 696 s c70;
#X obj 340 696 s c71;
#X obj 381 696 s c72;
#X obj 419 697 s c73;
#X obj 461 699 s c74;
#X obj 509 698 s c75;
#X obj 550 699 s c76;
#X obj 591 698 s c77;
#X obj 633 700 s c78;
#X obj 680 700 s c79;
#X obj 722 701 s c80;
#X obj 765 701 s c81;
#X obj 814 700 s c82;
#X obj 859 701 s c83;
#X obj 906 699 s c84;
#X obj 1052 716 s c97;
#X obj 1094 716 s c98;
#X obj 1142 716 s c99;
#X obj 1183 717 s c100;
#X obj 1224 716 s c101;
#X obj 1266 719 s c102;
#X obj 1315 719 s c103;
#X obj 1355 719 s c104;
#X obj 1394 720 s c105;
#X obj 1436 722 s c106;
#X obj 1483 721 s c107;
#X obj 1525 722 s c108;
#X obj 1566 721 s c109;
#X obj 1608 723 s c110;
#X obj 1655 723 s c111;
#X obj 1697 724 s c112;
#X obj 1740 724 s c113;
#X obj 1786 724 s c114;
#X obj 1829 725 s c115;
#X obj 1876 723 s c116;
#X floatatom 37 689 5 0 0 0 - - -;
#X floatatom 67 335 5 0 0 0 - - -;
#X floatatom 199 337 5 0 0 0 - - -;
#X floatatom 487 775 5 0 0 0 - - -;
#X floatatom 1054 757 5 0 0 0 - - -;
#X obj 729 -3 spigot;
#X obj 918 -50 != 0;
#X floatatom 948 -50 5 0 0 0 - - -;
#X obj 729 107 int;
#X obj 729 54 + 1;
#X obj 729 32 * 2;
#X msg 918 -10 0;
#X obj 902 -50 bng 15 250 50 0 empty empty empty 17 7 0 10 -262144
-1 -1;
#X floatatom 240 336 5 0 0 0 - - -;
#X floatatom 681 71 5 0 0 0 - - -;
#X floatatom 330 340 5 0 0 0 - - -;
#X obj 729 -71 spigot;
#X obj 830 -211 r input_selector;
#X obj 830 -160 select 1;
#X msg 830 -108 1;
#X msg 875 -108 0;
#X obj 811 -107 bng 15 250 50 0 empty empty empty 17 7 0 10 -262144
-1 -1;
#X obj 902 -104 bng 15 250 50 0 empty empty empty 17 7 0 10 -262144
-1 -1;
#X connect 0 0 1 0;
#X connect 0 0 16 0;
#X connect 0 0 128 0;
#X connect 0 0 127 0;
#X connect 0 0 129 0;
#X connect 0 1 2 0;
#X connect 0 1 176 0;
#X connect 0 1 186 0;
#X connect 4 0 3 0;
#X connect 4 0 171 0;
#X connect 5 0 6 0;
#X connect 7 0 9 0;
#X connect 8 0 10 0;
#X connect 8 0 172 0;
#X connect 11 0 15 0;
#X connect 11 0 183 0;
#X connect 12 0 28 0;
#X connect 13 0 29 0;
#X connect 13 0 185 0;
#X connect 14 0 30 0;
#X connect 16 0 4 0;
#X connect 16 1 5 0;
#X connect 16 2 7 0;
#X connect 16 3 8 0;
#X connect 16 4 11 0;
#X connect 16 5 12 0;
#X connect 16 6 13 0;
#X connect 16 7 14 0;
#X connect 16 8 17 0;
#X connect 16 9 18 0;
#X connect 16 10 19 0;
#X connect 16 11 20 0;
#X connect 16 12 21 0;
#X connect 16 13 22 0;
#X connect 16 14 23 0;
#X connect 16 15 24 0;
#X connect 16 16 25 0;
#X connect 16 17 26 0;
#X connect 16 18 27 0;
#X connect 16 19 42 0;
#X connect 17 0 31 0;
#X connect 18 0 32 0;
#X connect 19 0 33 0;
#X connect 20 0 34 0;
#X connect 21 0 35 0;
#X connect 22 0 36 0;
#X connect 23 0 37 0;
#X connect 24 0 38 0;
#X connect 25 0 39 0;
#X connect 26 0 40 0;
#X connect 27 0 41 0;
#X connect 42 0 43 0;
#X connect 44 0 107 0;
#X connect 45 0 108 0;
#X connect 46 0 109 0;
#X connect 47 0 110 0;
#X connect 48 0 111 0;
#X connect 49 0 112 0;
#X connect 50 0 113 0;
#X connect 51 0 114 0;
#X connect 52 0 115 0;
#X connect 53 0 116 0;
#X connect 54 0 117 0;
#X connect 55 0 118 0;
#X connect 56 0 119 0;
#X connect 57 0 120 0;
#X connect 58 0 121 0;
#X connect 59 0 122 0;
#X connect 60 0 123 0;
#X connect 61 0 124 0;
#X connect 62 0 125 0;
#X connect 63 0 126 0;
#X connect 64 0 130 0;
#X connect 64 0 170 0;
#X connect 65 0 131 0;
#X connect 66 0 132 0;
#X connect 67 0 133 0;
#X connect 68 0 134 0;
#X connect 69 0 135 0;
#X connect 70 0 136 0;
#X connect 71 0 137 0;
#X connect 72 0 138 0;
#X connect 73 0 139 0;
#X connect 74 0 140 0;
#X connect 74 0 173 0;
#X connect 75 0 141 0;
#X connect 76 0 142 0;
#X connect 77 0 143 0;
#X connect 78 0 144 0;
#X connect 79 0 145 0;
#X connect 80 0 146 0;
#X connect 81 0 147 0;
#X connect 82 0 148 0;
#X connect 83 0 149 0;
#X connect 84 0 150 0;
#X connect 84 0 174 0;
#X connect 85 0 151 0;
#X connect 86 0 152 0;
#X connect 87 0 153 0;
#X connect 88 0 154 0;
#X connect 89 0 155 0;
#X connect 90 0 156 0;
#X connect 91 0 157 0;
#X connect 92 0 158 0;
#X connect 93 0 159 0;
#X connect 94 0 160 0;
#X connect 95 0 161 0;
#X connect 96 0 162 0;
#X connect 97 0 163 0;
#X connect 98 0 164 0;
#X connect 99 0 165 0;
#X connect 100 0 166 0;
#X connect 101 0 167 0;
#X connect 102 0 168 0;
#X connect 103 0 169 0;
#X connect 104 0 44 1;
#X connect 104 0 45 1;
#X connect 104 0 46 1;
#X connect 104 0 47 1;
#X connect 104 0 48 1;
#X connect 104 0 49 1;
#X connect 104 0 50 1;
#X connect 104 0 51 1;
#X connect 104 0 52 1;
#X connect 104 0 53 1;
#X connect 104 0 54 1;
#X connect 104 0 55 1;
#X connect 104 0 56 1;
#X connect 104 0 57 1;
#X connect 104 0 58 1;
#X connect 104 0 59 1;
#X connect 104 0 60 1;
#X connect 104 0 61 1;
#X connect 104 0 62 1;
#X connect 104 0 63 1;
#X connect 105 0 84 1;
#X connect 105 0 85 1;
#X connect 105 0 86 1;
#X connect 105 0 87 1;
#X connect 105 0 88 1;
#X connect 105 0 89 1;
#X connect 105 0 90 1;
#X connect 105 0 91 1;
#X connect 105 0 92 1;
#X connect 105 0 93 1;
#X connect 105 0 94 1;
#X connect 105 0 95 1;
#X connect 105 0 96 1;
#X connect 105 0 97 1;
#X connect 105 0 98 1;
#X connect 105 0 99 1;
#X connect 105 0 100 1;
#X connect 105 0 101 1;
#X connect 105 0 102 1;
#X connect 105 0 103 1;
#X connect 106 0 64 1;
#X connect 106 0 65 1;
#X connect 106 0 66 1;
#X connect 106 0 67 1;
#X connect 106 0 68 1;
#X connect 106 0 69 1;
#X connect 106 0 70 1;
#X connect 106 0 71 1;
#X connect 106 0 72 1;
#X connect 106 0 73 1;
#X connect 106 0 74 1;
#X connect 106 0 75 1;
#X connect 106 0 76 1;
#X connect 106 0 77 1;
#X connect 106 0 78 1;
#X connect 106 0 79 1;
#X connect 106 0 80 1;
#X connect 106 0 81 1;
#X connect 106 0 82 1;
#X connect 106 0 83 1;
#X connect 127 0 44 0;
#X connect 127 1 45 0;
#X connect 127 2 46 0;
#X connect 127 3 47 0;
#X connect 127 4 48 0;
#X connect 127 5 49 0;
#X connect 127 6 50 0;
#X connect 127 7 51 0;
#X connect 127 8 52 0;
#X connect 127 9 53 0;
#X connect 127 10 54 0;
#X connect 127 11 55 0;
#X connect 127 12 56 0;
#X connect 127 13 57 0;
#X connect 127 14 58 0;
#X connect 127 15 59 0;
#X connect 127 16 60 0;
#X connect 127 17 61 0;
#X connect 127 18 62 0;
#X connect 127 19 63 0;
#X connect 128 0 64 0;
#X connect 128 1 65 0;
#X connect 128 2 66 0;
#X connect 128 3 67 0;
#X connect 128 4 68 0;
#X connect 128 5 69 0;
#X connect 128 6 70 0;
#X connect 128 7 71 0;
#X connect 128 8 72 0;
#X connect 128 9 73 0;
#X connect 128 10 74 0;
#X connect 128 11 75 0;
#X connect 128 12 76 0;
#X connect 128 13 77 0;
#X connect 128 14 78 0;
#X connect 128 15 79 0;
#X connect 128 16 80 0;
#X connect 128 17 81 0;
#X connect 128 18 82 0;
#X connect 128 19 83 0;
#X connect 129 0 84 0;
#X connect 129 1 85 0;
#X connect 129 2 86 0;
#X connect 129 3 87 0;
#X connect 129 4 88 0;
#X connect 129 5 89 0;
#X connect 129 6 90 0;
#X connect 129 7 91 0;
#X connect 129 8 92 0;
#X connect 129 9 93 0;
#X connect 129 10 94 0;
#X connect 129 11 95 0;
#X connect 129 12 96 0;
#X connect 129 13 97 0;
#X connect 129 14 98 0;
#X connect 129 15 99 0;
#X connect 129 16 100 0;
#X connect 129 17 101 0;
#X connect 129 18 102 0;
#X connect 129 19 103 0;
#X connect 175 0 180 0;
#X connect 176 0 175 1;
#X connect 176 0 177 0;
#X connect 176 0 181 0;
#X connect 176 0 182 0;
#X connect 178 0 4 1;
#X connect 178 0 5 1;
#X connect 178 0 7 1;
#X connect 178 0 8 1;
#X connect 178 0 11 1;
#X connect 178 0 12 1;
#X connect 178 0 13 1;
#X connect 178 0 14 1;
#X connect 178 0 17 1;
#X connect 178 0 18 1;
#X connect 178 0 19 1;
#X connect 178 0 20 1;
#X connect 178 0 21 1;
#X connect 178 0 22 1;
#X connect 178 0 23 1;
#X connect 178 0 24 1;
#X connect 178 0 25 1;
#X connect 178 0 26 1;
#X connect 178 0 27 1;
#X connect 178 0 42 1;
#X connect 178 0 104 0;
#X connect 178 0 105 0;
#X connect 178 0 106 0;
#X connect 179 0 178 0;
#X connect 179 0 184 0;
#X connect 180 0 179 0;
#X connect 181 0 178 0;
#X connect 186 0 175 0;
#X connect 187 0 188 0;
#X connect 188 0 189 0;
#X connect 188 1 190 0;
#X connect 189 0 186 1;
#X connect 189 0 191 0;
#X connect 190 0 186 1;
#X connect 190 0 192 0;
#X restore -38 -250 pd midi;
#N canvas 0 0 450 300 selector_medios_1 0;
#X obj 105 -4 r c7;
#X obj 1296 -82 r c8;
#X floatatom 136 13 5 0 0 0 - - -;
#X symbolatom 105 638 80 0 0 0 - - -;
#X text 507 506 Note : you can scroll the list by dragging;
#X text 505 517 the mouse in the yellow area;
#X text 507 528 You can select and scroll in the blue area;
#X obj 105 436 playlist all 400 200 {Helvetica 12 normal} grey yellow
black red;
#X msg 105 186 seek \$1;
#X symbolatom 301 664 50 0 0 0 - - -;
#X symbolatom 498 688 50 0 0 0 - - -;
#X msg 441 108 sort \$1;
#X obj 441 78 tgl 15 0 empty empty empty 0 -6 0 8 -262144 -1 -1 0 1
;
#X text 391 58 Use alphabetical or creation time order;
#X obj 312 77 tgl 15 0 empty empty empty 0 -6 0 8 -262144 -1 -1 0 1
;
#X msg 312 108 graphics \$1;
#X text 239 58 Show or hide graphics;
#X msg 368 7 1;
#X msg 927 360 location \$1;
#X obj 1218 281 symbol;
#X obj 300 -52 loadbang;
#X obj 90 638 bng 15 250 50 0 empty empty empty 17 7 0 10 -262144 -1
-1;
#X obj 1218 317 makefilename %s/ogg;
#X obj 105 735 outlet;
#X text 77 751 Fichero a reproducir;
#X obj 1340 591 outlet;
#X obj 615 -51 r c6;
#X text 103 -27 File;
#X text 610 -74 Folder;
#X text 1279 -104 Media Type;
#X obj 1296 -50 / 25;
#X obj 1083 279 symbol;
#X obj 1083 315 makefilename %s/fonts;
#X obj 937 276 symbol;
#X obj 937 312 makefilename %s/image;
#X obj 1296 -16 int;
#X floatatom 1231 -1 5 0 0 0 - - -;
#X obj 617 300 getfilenames;
#X obj 686 268 makefilename %s/video/*.vid;
#X obj 615 101 spigot;
#X msg 815 71 1;
#X msg 815 107 0;
#X obj 1136 107 bng 15 250 50 0 empty empty empty 17 7 0 10 -262144
-1 -1;
#X obj 1232 106 bng 15 250 50 0 empty empty empty 17 7 0 10 -262144
-1 -1;
#X obj 594 301 bng 15 250 50 0 empty empty empty 17 7 0 10 -262144
-1 -1;
#X floatatom 583 -52 5 0 0 0 - - -;
#X floatatom 562 101 5 0 0 0 - - -;
#X symbolatom 617 428 50 0 0 0 - - -;
#X symbolatom 754 460 50 0 0 0 - - -;
#X obj 584 252 bng 15 250 50 0 empty empty empty 17 7 0 10 -262144
-1 -1;
#X msg 204 8 font Helvetica normal 12;
#X obj 488 242 loadbang;
#X obj 760 299 bng 15 250 50 0 empty empty empty 17 7 0 10 -262144
-1 -1;
#X obj 1431 113 bng 15 250 50 0 empty empty empty 17 7 0 10 -262144
-1 -1;
#X obj 1360 109 bng 15 250 50 0 empty empty empty 17 7 0 10 -262144
-1 -1;
#X msg 1168 108 1;
#X msg 1258 106 2;
#X msg 1324 108 3;
#X msg 1388 109 4;
#X obj 1293 33 select 1 2 3 4;
#X msg 1469 114 0;
#X obj 69 376 bng 15 250 50 0 empty empty empty 17 7 0 10 -262144 -1
-1;
#X obj 686 147 config;
#X obj 1218 243 config;
#X obj 1083 241 config;
#X obj 937 200 config;
#X text 1200 608 Tipo de media: 0 Off 1 Video 2 Imagen 3 Texto 4 Audio
;
#X connect 0 0 2 0;
#X connect 0 0 8 0;
#X connect 1 0 30 0;
#X connect 3 0 23 0;
#X connect 7 0 3 0;
#X connect 7 0 21 0;
#X connect 7 1 9 0;
#X connect 7 2 10 0;
#X connect 8 0 7 0;
#X connect 11 0 7 0;
#X connect 12 0 11 0;
#X connect 14 0 15 0;
#X connect 15 0 7 0;
#X connect 17 0 14 0;
#X connect 17 0 12 0;
#X connect 18 0 7 0;
#X connect 19 0 22 0;
#X connect 20 0 17 0;
#X connect 20 0 50 0;
#X connect 22 0 18 0;
#X connect 26 0 39 0;
#X connect 26 0 45 0;
#X connect 30 0 35 0;
#X connect 31 0 32 0;
#X connect 32 0 18 0;
#X connect 33 0 34 0;
#X connect 34 0 18 0;
#X connect 35 0 36 0;
#X connect 35 0 59 0;
#X connect 37 0 18 0;
#X connect 37 0 44 0;
#X connect 37 0 47 0;
#X connect 38 0 37 1;
#X connect 38 0 48 0;
#X connect 38 0 52 0;
#X connect 39 0 46 0;
#X connect 39 0 37 0;
#X connect 40 0 39 1;
#X connect 41 0 39 1;
#X connect 49 0 37 0;
#X connect 50 0 7 0;
#X connect 51 0 37 0;
#X connect 55 0 25 0;
#X connect 55 0 42 0;
#X connect 55 0 62 0;
#X connect 56 0 25 0;
#X connect 56 0 43 0;
#X connect 56 0 65 0;
#X connect 57 0 25 0;
#X connect 57 0 54 0;
#X connect 57 0 64 0;
#X connect 58 0 25 0;
#X connect 58 0 53 0;
#X connect 58 0 63 0;
#X connect 59 0 55 0;
#X connect 59 0 40 0;
#X connect 59 1 56 0;
#X connect 59 1 41 0;
#X connect 59 2 57 0;
#X connect 59 2 41 0;
#X connect 59 3 41 0;
#X connect 59 3 58 0;
#X connect 59 4 41 0;
#X connect 59 4 60 0;
#X connect 60 0 25 0;
#X connect 61 0 7 0;
#X connect 62 0 38 0;
#X connect 63 0 19 0;
#X connect 64 0 31 0;
#X connect 65 0 33 0;
#X restore 43 -125 pd selector_medios_1;
#N canvas 0 0 450 300 video_1 0;
#X msg 26 132 open \$1;
#X obj 152 18 gemhead;
#X obj 26 -6 spigot;
#X floatatom 191 248 5 0 0 0 - - -;
#X obj 26 -125 inlet;
#X obj 152 -136 inlet;
#X msg 197 -57 0;
#X msg 152 -57 1;
#X obj 152 -95 select 1;
#X obj 172 190 pdp_qt~;
#X obj 151 364 pdp2gem;
#X obj 151 435 outlet;
#X msg 12 284 colorspace YUV;
#X obj 281 -60 world_light;
#X obj 281 -87 gemhead;
#X obj 354 110 pdp_qt_player;
#X obj 367 291 outlet~;
#X obj 308 290 outlet~;
#X floatatom 429 159 5 0 0 0 - - -;
#X floatatom 181 294 5 0 0 0 - - -;
#X connect 0 0 9 0;
#X connect 1 0 10 0;
#X connect 2 0 0 0;
#X connect 4 0 2 0;
#X connect 5 0 8 0;
#X connect 6 0 1 0;
#X connect 6 0 2 1;
#X connect 7 0 1 0;
#X connect 7 0 2 1;
#X connect 8 0 7 0;
#X connect 8 1 6 0;
#X connect 9 0 10 0;
#X connect 9 1 19 0;
#X connect 9 2 3 0;
#X connect 9 2 15 0;
#X connect 9 3 17 0;
#X connect 9 4 16 0;
#X connect 10 0 11 0;
#X connect 12 0 10 0;
#X connect 14 0 13 0;
#X connect 15 0 9 0;
#X connect 15 1 9 1;
#X connect 15 1 18 0;
#X restore 8 -79 pd video_1;
#N canvas 0 0 450 300 imagen_1 0;
#X obj 70 291 pix_image;
#X msg -26 210 open \$1;
#X msg 184 240 thread 1;
#X obj 184 214 loadbang;
#X obj 70 157 gemhead;
#X obj -26 23 inlet;
#X obj 70 13 inlet;
#X msg 70 71 1;
#X msg 115 70 0;
#X obj -26 158 spigot;
#X obj 70 44 select 2;
#X obj 70 351 outlet;
#X connect 0 0 11 0;
#X connect 1 0 0 0;
#X connect 2 0 0 0;
#X connect 3 0 2 0;
#X connect 4 0 0 0;
#X connect 5 0 9 0;
#X connect 6 0 10 0;
#X connect 7 0 4 0;
#X connect 7 0 9 1;
#X connect 8 0 4 0;
#X connect 8 0 9 1;
#X connect 9 0 1 0;
#X connect 10 0 7 0;
#X connect 10 1 8 0;
#X restore 97 -77 pd imagen_1;
#N canvas 0 0 450 300 texto_1 0;
#X obj 381 -15 gemhead;
#X msg 212 348 font \$1;
#X msg 1142 535 justify left base;
#X obj 381 46 rotateXYZ;
#X obj 787 556 text3d;
#X obj 381 18 alpha;
#X obj 381 175 colorRGB;
#X obj 599 109 / 255;
#X obj 551 108 / 127;
#X obj 502 107 / 127;
#X obj 455 106 / 127;
#X obj 456 76 r c2;
#X obj 502 77 r c3;
#X obj 551 78 r c4;
#X obj 599 79 r c1;
#X text 502 61 Green;
#X text 460 60 Red;
#X text 552 62 Blue;
#X text 597 61 Alpha;
#X text 949 98 Texto;
#X obj 652 219 expr $f1 < 25;
#X obj 795 217 expr $f1 >= 25 && $f1 <50;
#X obj 504 -17 r c12;
#X obj 549 -17 r c13;
#X obj 594 -16 r c14;
#X msg 652 297 text hello world!;
#X obj 965 218 expr $f1 >=50 && $f1<75;
#X obj 650 336 bng 15 250 50 0 empty empty empty 17 7 0 10 -262144
-1 -1;
#X obj 801 338 bng 15 250 50 0 empty empty empty 17 7 0 10 -262144
-1 -1;
#X obj 970 337 bng 15 250 50 0 empty empty empty 17 7 0 10 -262144
-1 -1;
#X floatatom 585 214 5 0 0 0 - - -;
#X obj 627 220 bng 15 250 50 0 empty empty empty 17 7 0 10 -262144
-1 -1;
#X floatatom 836 252 5 0 0 0 - - -;
#X obj 816 254 bng 15 250 50 0 empty empty empty 17 7 0 10 -262144
-1 -1;
#X floatatom 1047 243 5 0 0 0 - - -;
#X obj 1023 249 bng 15 250 50 0 empty empty empty 17 7 0 10 -262144
-1 -1;
#X obj 652 259 spigot;
#X obj 794 271 spigot;
#X obj 963 274 spigot;
#X obj 1127 335 bng 15 250 50 0 empty empty empty 17 7 0 10 -262144
-1 -1;
#X obj 1180 247 bng 15 250 50 0 empty empty empty 17 7 0 10 -262144
-1 -1;
#X obj 1120 272 spigot;
#X msg 1122 297 text Server;
#X obj 1122 216 expr $f1 >=75 && $f1<100;
#X msg 965 299 text Media;
#X obj 1293 334 bng 15 250 50 0 empty empty empty 17 7 0 10 -262144
-1 -1;
#X obj 1346 246 bng 15 250 50 0 empty empty empty 17 7 0 10 -262144
-1 -1;
#X obj 1286 271 spigot;
#X msg 1288 296 text Next;
#X obj 1288 215 expr $f1 >=100 && $f1<125;
#X obj 1460 333 bng 15 250 50 0 empty empty empty 17 7 0 10 -262144
-1 -1;
#X obj 1513 245 bng 15 250 50 0 empty empty empty 17 7 0 10 -262144
-1 -1;
#X obj 1453 270 spigot;
#X obj 1455 214 expr $f1 >=125 && $f1<150;
#X msg 1455 295 text Generation;
#X obj 1323 439 r c15;
#X text 1325 422 Size;
#X floatatom 831 129 5 0 0 0 - - -;
#X obj 381 355 translateXYZ;
#X obj 419 216 r c18;
#X obj 480 216 r c19;
#X obj 536 214 r c20;
#X obj 556 24 * 1.5;
#X obj 503 19 * 1.5;
#X obj 450 20 * 1.5;
#X obj 1323 470 / 3;
#X msg 795 301 text Pure;
#X obj 536 267 / 10;
#X obj 536 306 - 20;
#X obj 419 264 / 5;
#X obj 480 267 / 5;
#X obj 417 302 - 25;
#X obj 480 299 - 25;
#X obj 212 -105 inlet;
#X obj 212 -6 spigot;
#X obj 380 -135 inlet;
#X msg 426 -56 0;
#X msg 381 -55 1;
#X obj 953 115 r c6;
#X obj 381 -94 select 3;
#X connect 0 0 5 0;
#X connect 1 0 4 0;
#X connect 2 0 4 0;
#X connect 3 0 6 0;
#X connect 5 0 3 0;
#X connect 6 0 58 0;
#X connect 7 0 6 4;
#X connect 8 0 6 3;
#X connect 9 0 6 2;
#X connect 10 0 6 1;
#X connect 11 0 10 0;
#X connect 12 0 9 0;
#X connect 13 0 8 0;
#X connect 14 0 7 0;
#X connect 20 0 30 0;
#X connect 20 0 31 0;
#X connect 20 0 36 1;
#X connect 20 0 36 0;
#X connect 21 0 32 0;
#X connect 21 0 33 0;
#X connect 21 0 37 1;
#X connect 21 0 37 0;
#X connect 22 0 64 0;
#X connect 23 0 63 0;
#X connect 24 0 62 0;
#X connect 25 0 4 0;
#X connect 25 0 27 0;
#X connect 26 0 35 0;
#X connect 26 0 34 0;
#X connect 26 0 38 1;
#X connect 26 0 38 0;
#X connect 36 0 25 0;
#X connect 37 0 66 0;
#X connect 38 0 44 0;
#X connect 41 0 42 0;
#X connect 42 0 39 0;
#X connect 42 0 4 0;
#X connect 43 0 40 0;
#X connect 43 0 41 1;
#X connect 43 0 41 0;
#X connect 44 0 4 0;
#X connect 44 0 29 0;
#X connect 47 0 48 0;
#X connect 48 0 45 0;
#X connect 48 0 4 0;
#X connect 49 0 46 0;
#X connect 49 0 47 1;
#X connect 49 0 47 0;
#X connect 52 0 54 0;
#X connect 53 0 51 0;
#X connect 53 0 52 1;
#X connect 53 0 52 0;
#X connect 54 0 50 0;
#X connect 54 0 4 0;
#X connect 55 0 65 0;
#X connect 58 0 4 0;
#X connect 59 0 69 0;
#X connect 60 0 70 0;
#X connect 61 0 67 0;
#X connect 62 0 3 3;
#X connect 63 0 3 2;
#X connect 64 0 3 1;
#X connect 65 0 4 1;
#X connect 66 0 4 0;
#X connect 66 0 28 0;
#X connect 67 0 68 0;
#X connect 68 0 58 3;
#X connect 69 0 71 0;
#X connect 70 0 72 0;
#X connect 71 0 58 1;
#X connect 72 0 58 2;
#X connect 73 0 74 0;
#X connect 74 0 1 0;
#X connect 75 0 79 0;
#X connect 76 0 0 0;
#X connect 76 0 74 1;
#X connect 77 0 0 0;
#X connect 77 0 74 1;
#X connect 78 0 20 0;
#X connect 78 0 21 0;
#X connect 78 0 26 0;
#X connect 78 0 43 0;
#X connect 78 0 49 0;
#X connect 78 0 53 0;
#X connect 78 0 57 0;
#X connect 79 0 77 0;
#X connect 79 1 76 0;
#X restore 186 -78 pd texto_1;
#N canvas 0 0 450 300 audio_1 0;
#X msg 108 314 open \$1;
#X msg 351 637 start;
#X msg 406 638 stop;
#X obj 352 727 oggread~;
#X floatatom 381 788 5 0 0 0 - - -;
#X obj 438 790 bng 15 250 50 0 empty empty empty 17 7 0 10 -262144
-1 -1;
#X msg 459 640 resume;
#X obj 108 142 inlet;
#X obj 203 142 inlet;
#X obj 108 261 spigot;
#X msg 203 217 1;
#X msg 248 218 0;
#X obj 406 156 r c9;
#X obj 406 416 / 25;
#X obj 406 473 select 0 6 7;
#X obj 406 443 int;
#X obj 406 316 spigot;
#X obj 203 183 select 4;
#X obj 185 868 outlet~;
#X obj 253 870 outlet~;
#X connect 0 0 3 0;
#X connect 1 0 3 0;
#X connect 2 0 3 0;
#X connect 3 0 18 0;
#X connect 3 1 19 0;
#X connect 3 2 4 0;
#X connect 3 3 5 0;
#X connect 6 0 3 0;
#X connect 7 0 9 0;
#X connect 8 0 17 0;
#X connect 9 0 0 0;
#X connect 10 0 9 1;
#X connect 10 0 16 1;
#X connect 11 0 9 1;
#X connect 11 0 16 1;
#X connect 12 0 16 0;
#X connect 13 0 15 0;
#X connect 14 0 1 0;
#X connect 14 1 2 0;
#X connect 14 2 6 0;
#X connect 15 0 14 0;
#X connect 16 0 13 0;
#X connect 17 0 10 0;
#X connect 17 1 11 0;
#X restore 266 -82 pd audio_1;
#N canvas 0 0 450 300 audio_mix_1 0;
#X obj 171 826 *~ 0;
#X obj 466 829 *~ 0;
#X obj 491 750 dbtorms;
#X obj 196 747 dbtorms;
#X obj 38 44 inlet~;
#X obj 93 45 inlet~;
#X obj 802 68 r c21;
#X obj 1138 -53 r c22;
#X obj 308 933 dac~;
#X obj 802 113 / 2.55;
#X obj 490 36 inlet~;
#X obj 543 36 inlet~;
#X obj 289 -10 inlet;
#X obj 27 175 spigot~;
#X obj 555 173 spigot~;
#X obj 468 171 spigot~;
#X obj 107 176 spigot~;
#X obj 289 20 sel 1 4;
#X floatatom 734 132 5 0 0 0 - - -;
#X floatatom 555 770 15 0 0 0 - - -;
#X msg 162 94 0;
#X msg 207 94 1;
#X msg 334 84 0;
#X msg 376 83 1;
#X floatatom 238 9 5 0 0 0 - - -;
#X floatatom 258 767 15 0 0 0 - - -;
#X floatatom 1203 16 5 0 0 0 - - -;
#X obj 761 -68 vsl 15 128 0 255 0 0 empty empty empty 0 -9 0 10 -262144
-1 -1 0 1;
#X obj 1039 -80 hsl 128 15 0 255 0 0 empty empty empty -2 -8 0 10 -262144
-1 -1 0 1;
#X obj 563 451 spigot;
#X obj 695 449 spigot;
#X obj 695 514 *;
#X obj 680 452 bng 15 250 50 0 empty empty empty 17 7 0 10 -262144
-1 -1;
#X obj 919 140 bng 15 250 50 0 empty empty empty 17 7 0 10 -262144
-1 -1;
#X obj 997 139 bng 15 250 50 0 empty empty empty 17 7 0 10 -262144
-1 -1;
#X obj 948 74 int;
#X msg 644 403 1;
#X msg 687 404 0;
#X obj 948 141 sel 0;
#X obj 1138 -4 / 127.5;
#X floatatom 709 534 5 0 0 0 - - -;
#X msg 1036 -136 128;
#X obj 1245 646 spigot;
#X obj 958 571 spigot;
#X obj 958 636 *;
#X obj 1007 590 bng 15 250 50 0 empty empty empty 17 7 0 10 -262144
-1 -1;
#X msg 1090 478 1;
#X msg 1133 479 0;
#X floatatom 984 656 5 0 0 0 - - -;
#X floatatom 1253 666 5 0 0 0 - - -;
#X floatatom 599 470 5 0 0 0 - - -;
#X text 796 44 Volumen;
#X text 1183 -55 Pan;
#X text 260 -31 Selector entrada;
#X text 75 21 L/R;
#X text 523 6 L/R;
#X floatatom 1174 120 5 0 0 0 - - -;
#X obj 1138 100 - 2;
#X obj 1292 649 bng 15 250 50 0 empty empty empty 17 7 0 10 -262144
-1 -1;
#X floatatom 721 271 5 0 0 0 - - -;
#X obj 756 272 float;
#X obj 768 245 t b;
#X obj 1138 167 abs;
#X connect 0 0 8 0;
#X connect 1 0 8 1;
#X connect 2 0 1 1;
#X connect 2 0 19 0;
#X connect 3 0 0 1;
#X connect 3 0 25 0;
#X connect 4 0 13 0;
#X connect 5 0 16 0;
#X connect 6 0 9 0;
#X connect 7 0 39 0;
#X connect 9 0 18 0;
#X connect 9 0 60 0;
#X connect 10 0 15 0;
#X connect 11 0 14 0;
#X connect 12 0 17 0;
#X connect 12 0 24 0;
#X connect 13 0 0 0;
#X connect 14 0 1 0;
#X connect 15 0 0 0;
#X connect 16 0 1 0;
#X connect 17 0 20 0;
#X connect 17 0 23 0;
#X connect 17 1 21 0;
#X connect 17 1 22 0;
#X connect 17 2 21 0;
#X connect 17 2 23 0;
#X connect 20 0 13 1;
#X connect 20 0 16 1;
#X connect 21 0 16 1;
#X connect 21 0 13 1;
#X connect 22 0 15 1;
#X connect 22 0 14 1;
#X connect 23 0 15 1;
#X connect 23 0 14 1;
#X connect 27 0 9 0;
#X connect 28 0 39 0;
#X connect 29 0 3 0;
#X connect 29 0 50 0;
#X connect 30 0 31 0;
#X connect 30 0 32 0;
#X connect 31 0 2 0;
#X connect 31 0 40 0;
#X connect 35 0 38 0;
#X connect 36 0 29 1;
#X connect 36 0 30 1;
#X connect 37 0 29 1;
#X connect 37 0 30 1;
#X connect 38 0 33 0;
#X connect 38 0 36 0;
#X connect 38 0 47 0;
#X connect 38 0 61 0;
#X connect 38 1 34 0;
#X connect 38 1 37 0;
#X connect 38 1 46 0;
#X connect 38 1 61 0;
#X connect 39 0 26 0;
#X connect 39 0 31 1;
#X connect 39 0 35 0;
#X connect 39 0 57 0;
#X connect 41 0 28 0;
#X connect 42 0 2 0;
#X connect 42 0 49 0;
#X connect 42 0 58 0;
#X connect 43 0 44 0;
#X connect 43 0 45 0;
#X connect 44 0 48 0;
#X connect 44 0 3 0;
#X connect 46 0 42 1;
#X connect 46 0 43 1;
#X connect 47 0 42 1;
#X connect 47 0 43 1;
#X connect 57 0 56 0;
#X connect 57 0 62 0;
#X connect 60 0 59 0;
#X connect 60 0 29 0;
#X connect 60 0 30 0;
#X connect 60 0 42 0;
#X connect 60 0 43 0;
#X connect 61 0 60 0;
#X connect 62 0 44 1;
#X restore 160 -9 pd audio_mix_1;
#X connect 20 0 2 0;
#X connect 20 0 21 0;
#X connect 20 0 22 0;
#X connect 20 0 23 0;
#X connect 20 0 24 0;
#X connect 20 1 1 0;
#X connect 20 1 21 1;
#X connect 20 1 22 1;
#X connect 20 1 23 1;
#X connect 20 1 24 1;
#X connect 20 1 25 2;
#X connect 21 0 14 0;
#X connect 21 1 25 0;
#X connect 21 2 25 1;
#X connect 22 0 14 1;
#X connect 24 0 25 3;
#X connect 24 1 25 4;
#X coords 0 0 1 1 85 60 0;
