#N canvas 1028 279 483 457 10;
#X obj 338 -313 tgl 50 1 render_status_send render_status_receive Render
-20 -15 0 25 -260097 -1 -260097 1 1;
#X obj 39 -306 hradio 30 1 0 3 input_selector empty Input_Selector
0 -8 2 12 -258113 -262144 -258113 0;
#X text 42 -273 DMX/MIDI/Manual;
#X text 118 -137 A render ON;
#X text 118 -118 S render OFF;
#X text 118 -99 Esc Destroy Windows;
#X text 118 -80 C create Window;
#X text 118 -61 F Fullscreen;
#X text 118 -42 R Reset graphics;
#N canvas 1 314 1364 452 interface 0;
#X msg 2122 -164 color 0 0 0;
#X msg 962 -164 create;
#X msg 2306 -165 destroy;
#X msg 1730 -162 reset;
#X msg 1852 -164 print;
#X obj 1412 -190 tgl 15 0 empty empty empty 17 7 0 10 -262144 -1 -1
1 1;
#X msg 1412 -147 border \$1;
#X msg 1210 -145 fullscreen \$1;
#X msg 1558 -164 topmost \$1;
#X obj 1558 -207 tgl 15 0 empty empty empty 17 7 0 10 -262144 -1 -1
0 1;
#X floatatom 1306 -361 5 0 0 0 - - -;
#X msg 626 -51 1;
#X obj 2275 -226 select 27;
#X msg 468 -51 0;
#X text 2342 -232 Escape;
#X msg 1210 -190 1;
#X msg 1080 -164 cursor 0;
#X floatatom 2072 -342 5 0 0 0 - - -;
#X obj 2392 -228 select 9;
#X obj 626 -162 select 38;
#X text 1086 30 A para renderizar Escape destruye la ventana de video
S para la renderizacion C para crear la pantalla f pantalla completa
R resetea propiedades graficas;
#X obj 468 -162 select 39;
#X obj 1524 -361 loadbang;
#X obj 554 7 s render_status_receive;
#X obj 1022 -51 r render_status_send;
#X obj 1190 -361 key;
#X obj 626 -207 select 65;
#X text 656 -189 A;
#X obj 468 -207 select 83;
#X text 500 -208 S;
#X obj 800 -207 select 67;
#X text 830 -165 C;
#X msg 1964 -164 title PMS;
#X obj 1730 -207 select 82;
#X obj 1210 -235 select 70;
#X obj 1866 -361 gemkeyboard;
#X floatatom 2409 -75 5 0 0 0 - - -;
#X floatatom 2457 -75 5 0 0 0 - - -;
#X msg 2508 -129 0;
#X floatatom 2408 -30 5 0 0 0 - - -;
#X floatatom 2458 -30 5 0 0 0 - - -;
#X obj 2222 -14 pack f f;
#X msg 2222 31 offset \$1 \$2;
#X obj 2436 53 pack f f;
#X obj 2222 -77 t b;
#X obj 2588 31 t b;
#X text 2406 -99 Window position;
#X text 2417 -53 Window Size;
#X msg 2408 -129 1280;
#X msg 2436 98 dimen \$1 \$2;
#X msg 1962 -51 offset 300 300;
#X msg 1962 -6 dimen 300 300;
#X obj 1808 126 print WINDOW;
#X msg 1412 -235 1;
#X obj 1934 -207 delay 50;
#X obj 1560 -14 gemwin 25;
#X msg 2844 -51 640;
#X msg 2952 -51 420;
#X connect 0 0 55 0;
#X connect 1 0 52 0;
#X connect 1 0 55 0;
#X connect 2 0 52 0;
#X connect 2 0 55 0;
#X connect 3 0 52 0;
#X connect 3 0 55 0;
#X connect 4 0 55 0;
#X connect 5 0 6 0;
#X connect 6 0 55 0;
#X connect 7 0 52 0;
#X connect 7 0 55 0;
#X connect 8 0 55 0;
#X connect 9 0 8 0;
#X connect 11 0 23 0;
#X connect 12 0 2 0;
#X connect 13 0 23 0;
#X connect 15 0 7 0;
#X connect 16 0 55 0;
#X connect 18 0 2 0;
#X connect 19 0 11 0;
#X connect 21 0 13 0;
#X connect 22 0 13 0;
#X connect 22 0 0 0;
#X connect 22 0 32 0;
#X connect 22 0 38 0;
#X connect 22 0 53 0;
#X connect 22 0 57 0;
#X connect 24 0 55 0;
#X connect 25 0 10 0;
#X connect 25 0 12 0;
#X connect 25 0 26 0;
#X connect 25 0 28 0;
#X connect 25 0 30 0;
#X connect 25 0 33 0;
#X connect 25 0 34 0;
#X connect 26 0 11 0;
#X connect 28 0 13 0;
#X connect 30 0 1 0;
#X connect 30 0 11 0;
#X connect 32 0 55 0;
#X connect 33 0 3 0;
#X connect 33 0 54 0;
#X connect 34 0 15 0;
#X connect 34 0 16 0;
#X connect 35 0 17 0;
#X connect 35 0 18 0;
#X connect 35 0 19 0;
#X connect 35 0 21 0;
#X connect 36 0 41 0;
#X connect 37 0 41 1;
#X connect 37 0 44 0;
#X connect 38 0 37 0;
#X connect 38 0 48 0;
#X connect 39 0 43 0;
#X connect 40 0 43 1;
#X connect 40 0 45 0;
#X connect 41 0 42 0;
#X connect 42 0 52 0;
#X connect 42 0 55 0;
#X connect 43 0 49 0;
#X connect 44 0 41 0;
#X connect 45 0 43 0;
#X connect 48 0 36 0;
#X connect 49 0 52 0;
#X connect 49 0 55 0;
#X connect 50 0 55 0;
#X connect 51 0 55 0;
#X connect 53 0 5 0;
#X connect 54 0 32 0;
#X connect 56 0 39 0;
#X connect 57 0 40 0;
#X connect 57 0 56 0;
#X coords 0 -1 1 0 100 100 2 2400 -100;
#X restore 329 -143 pd interface;
#X obj 31 -11 config;
#N canvas 7 97 1016 599 dmx 0;
#X obj 395 -7 loadbang;
#X obj -7 437 list split;
#X obj 99 444 list split;
#X obj 50 385 - 1;
#X obj 156 386 - 1;
#X msg 208 72 1;
#X floatatom 211 175 5 0 0 0 - - -;
#X floatatom 258 174 5 0 0 0 - - -;
#X text 204 151 Layer 1;
#X text 252 151 Layer 2;
#X text 270 122 DMX Address;
#X obj 564 160 bng 30 250 50 0 empty empty Close 0 -7 0 10 -258113
-258113 -258113;
#X floatatom 475 171 5 0 0 0 - - -;
#X obj 527 161 bng 30 250 50 0 empty empty Open 0 -7 0 10 -4034 -4034
-4034;
#X msg 668 50 0;
#X text 306 150 Layer 3;
#X text 358 149 Layer 4;
#X floatatom 312 173 5 0 0 0 - - -;
#X floatatom 365 173 5 0 0 0 - - -;
#X msg 564 293 close;
#X obj 202 447 list split;
#X obj 259 390 - 1;
#X obj 308 446 list split;
#X obj 365 367 - 1;
#X obj 649 224 r input_selector;
#X obj 519 380 spigot;
#X msg 649 328 1;
#X msg 676 328 0;
#X obj 649 265 sel 0;
#X obj 575 245 t b;
#X obj 519 343 ola2pd;
#X msg 475 235 universe \$1;
#X msg 524 290 open;
#X text 461 149 Universo;
#X text 495 117 OLA Control;
#X obj 438 167 bng 10 100 10 0 empty empty DMX -5 -7 0 10 -262144 -1
-1;
#X obj 21 479 list split 64;
#X obj 127 482 list split 64;
#X obj 230 482 list split 64;
#X obj 336 483 list split 64;
#X msg 332 72 65;
#X msg 430 72 129;
#X obj 336 524 s dmx4;
#X obj 127 523 s dmx2;
#X obj 21 520 s dmx1;
#X obj 230 523 s dmx3;
#X msg 538 72 193;
#X connect 0 0 40 0;
#X connect 0 0 5 0;
#X connect 0 0 41 0;
#X connect 0 0 46 0;
#X connect 1 1 36 0;
#X connect 2 1 37 0;
#X connect 3 0 1 1;
#X connect 4 0 2 1;
#X connect 5 0 6 0;
#X connect 6 0 3 0;
#X connect 7 0 4 0;
#X connect 11 0 19 0;
#X connect 12 0 31 0;
#X connect 13 0 29 0;
#X connect 13 0 32 0;
#X connect 14 0 12 0;
#X connect 17 0 21 0;
#X connect 18 0 23 0;
#X connect 19 0 30 0;
#X connect 20 1 38 0;
#X connect 21 0 20 1;
#X connect 22 1 39 0;
#X connect 23 0 22 1;
#X connect 24 0 28 0;
#X connect 25 0 22 0;
#X connect 25 0 20 0;
#X connect 25 0 2 0;
#X connect 25 0 1 0;
#X connect 26 0 25 1;
#X connect 27 0 25 1;
#X connect 28 0 26 0;
#X connect 28 1 27 0;
#X connect 29 0 26 0;
#X connect 30 0 25 0;
#X connect 30 0 35 0;
#X connect 31 0 30 0;
#X connect 32 0 30 0;
#X connect 36 0 44 0;
#X connect 37 0 43 0;
#X connect 38 0 45 0;
#X connect 39 0 42 0;
#X connect 40 0 7 0;
#X connect 41 0 17 0;
#X connect 46 0 18 0;
#X coords 0 -1 1 1 400 100 2 200 100;
#X restore 28 -250 pd dmx;
#N canvas 0 0 450 300 fondo 0;
#X obj 1250 -123 color 0 0 0;
#X obj 1250 -167 alpha;
#X obj 1250 31 pix_alpha;
#X text 1216 -226 Pantalla fondo Negra;
#X floatatom 1274 -48 5 0 0 0 - - -;
#X floatatom 1354 -47 5 0 0 0 - - -;
#X obj 1274 -84 tgl 15 0 empty empty empty 17 7 0 10 -262144 -1 -1
0 1;
#X obj 1354 -84 tgl 15 0 empty empty empty 17 7 0 10 -262144 -1 -1
0 1;
#X msg 1750 -41 0 0 0;
#X msg 1444 -45 0 0 0;
#X msg 1550 -43 1 1 1;
#X msg 1650 -42 1 1 1;
#X obj 1250 -204 gemhead 5;
#X obj 1250 94 translateXYZ;
#X obj 1528 24 loadbang;
#X obj 1250 131 rectangle 16 12;
#X obj 1686 105 bng 15 250 50 0 empty empty empty 17 7 0 10 -262144
-1 -1;
#X msg 1444 63 -50;
#X msg 1426 -149 1 1 1;
#X connect 0 0 2 0;
#X connect 1 0 0 0;
#X connect 2 0 13 0;
#X connect 4 0 2 1;
#X connect 5 0 2 2;
#X connect 6 0 4 0;
#X connect 7 0 5 0;
#X connect 8 0 2 4;
#X connect 9 0 2 3;
#X connect 10 0 2 3;
#X connect 11 0 2 4;
#X connect 12 0 1 0;
#X connect 13 0 15 0;
#X connect 14 0 17 0;
#X connect 16 0 17 0;
#X connect 17 0 13 3;
#X connect 18 0 0 1;
#X restore 240 -144 pd fondo;
#N canvas 4 73 1272 947 capa1 0;
#X obj 548 773 imagen;
#X obj 430 772 audio_player;
#X obj 283 599 selector;
#X obj 764 422 s c26;
#X obj 889 423 s c28;
#X obj 817 421 s c27;
#X obj 953 425 s c29;
#X obj 1020 427 s c30;
#X obj 621 75 unpack f f f f f f f f f f f f f f f f f f f f f f f
f f f f f f f f f;
#X obj 1082 266 s c31;
#X obj 1134 269 s c32;
#X obj 53 237 change;
#X obj 145 238 change;
#X obj 223 271 change;
#X obj 321 272 change;
#X obj 415 273 change;
#X obj 513 273 change;
#X obj 611 275 change;
#X obj 225 359 change;
#X obj 323 357 change;
#X obj 415 358 change;
#X obj 503 358 change;
#X obj 601 359 change;
#X obj 749 234 change;
#X obj 824 232 change;
#X obj 893 232 change;
#X obj 954 234 change;
#X obj 1011 233 change;
#X obj 761 347 change;
#X obj 816 347 change;
#X obj 884 346 change;
#X obj 950 348 change;
#X obj 1019 348 change;
#X obj 1082 235 change;
#X obj 1138 238 change;
#X obj -238 148 change;
#X obj -146 149 change;
#X obj -58 149 change;
#X obj 40 150 change;
#X obj 134 151 change;
#X obj -237 236 change;
#X obj -139 238 change;
#X obj -41 237 change;
#X obj 304 774 video ------;
#X obj -382 795 texto ---------------------------------;
#X obj 342 897 audio_mix ----------------;
#X obj 712 896 video_render --------------------------;
#X obj 620 28 list split 32;
#X obj 1201 76 s c1;
#X obj 1236 77 s c2;
#X obj 1287 72 s c3;
#X obj 1393 74 s c5;
#X obj 1187 170 s c6;
#X obj 1243 160 s c7;
#X obj 1284 151 s c8;
#X obj 1330 159 s c9;
#X obj 1382 152 s c10;
#X obj 1458 196 s c11;
#X obj 1504 190 s c12;
#X obj 1554 185 s c13;
#X obj 1603 183 s c14;
#X obj 1654 180 s c15;
#X obj 1450 290 s c16;
#X obj 1507 289 s c17;
#X obj 1561 291 s c18;
#X obj 1606 293 s c19;
#X obj 1650 295 s c20;
#X obj 1761 189 s c21;
#X obj 1811 189 s c22;
#X obj 1872 184 s c23;
#X obj 1933 185 s c24;
#X obj 1984 185 s c25;
#X obj 1750 257 s c26;
#X obj 1871 263 s c28;
#X obj 1816 258 s c27;
#X obj 1929 268 s c29;
#X obj 1978 270 s c30;
#X obj 1454 -20 unpack f f f f f f f f f f f f f f f f f f f f f f
f f f f f f f f f f;
#X obj 2072 222 s c31;
#X obj 1986 221 s c32;
#X obj 1336 73 s c4;
#X obj 1325 112 change;
#X obj 1382 115 change;
#X obj 1454 165 change;
#X obj 1506 158 change;
#X obj 1550 152 change;
#X obj 1599 152 change;
#X obj 1652 150 change;
#X obj 1446 224 change;
#X obj 1503 224 change;
#X obj 1559 223 change;
#X obj 1604 221 change;
#X obj 1650 224 change;
#X obj 1755 132 change;
#X obj 1811 132 change;
#X obj 1876 136 change;
#X obj 1934 143 change;
#X obj 1991 143 change;
#X obj 1750 223 change;
#X obj 1814 228 change;
#X obj 1871 229 change;
#X obj 1926 227 change;
#X obj 1981 227 change;
#X obj 2062 148 change;
#X obj 2160 147 change;
#X obj 1201 40 change;
#X obj 1236 44 change;
#X obj 1279 43 change;
#X obj 1330 43 change;
#X obj 1390 42 change;
#X obj 1186 131 change;
#X obj 1237 129 change;
#X obj 1282 120 change;
#X obj 620 -16 r dmx1;
#X obj 415 393 << 8;
#X obj 415 435 +;
#X obj 505 394 << 8;
#X obj 505 443 +;
#X obj 601 398 << 8;
#X obj 601 440 +;
#X connect 0 0 46 1;
#X connect 1 0 45 2;
#X connect 1 1 45 3;
#X connect 2 0 0 0;
#X connect 2 0 1 0;
#X connect 2 0 43 0;
#X connect 2 0 44 0;
#X connect 2 1 0 1;
#X connect 2 1 1 1;
#X connect 2 1 43 1;
#X connect 2 1 44 1;
#X connect 2 1 45 4;
#X connect 8 0 35 0;
#X connect 8 1 36 0;
#X connect 8 2 37 0;
#X connect 8 3 38 0;
#X connect 8 4 39 0;
#X connect 8 5 40 0;
#X connect 8 6 41 0;
#X connect 8 7 42 0;
#X connect 8 8 11 0;
#X connect 8 9 12 0;
#X connect 8 10 13 0;
#X connect 8 11 14 0;
#X connect 8 12 15 0;
#X connect 8 13 16 0;
#X connect 8 14 17 0;
#X connect 8 15 18 0;
#X connect 8 16 19 0;
#X connect 8 17 20 0;
#X connect 8 18 21 0;
#X connect 8 19 22 0;
#X connect 8 20 23 0;
#X connect 8 21 24 0;
#X connect 8 22 25 0;
#X connect 8 23 26 0;
#X connect 8 24 27 0;
#X connect 8 25 28 0;
#X connect 8 26 29 0;
#X connect 8 27 30 0;
#X connect 8 28 31 0;
#X connect 8 29 32 0;
#X connect 8 30 33 0;
#X connect 8 31 34 0;
#X connect 11 0 43 5;
#X connect 11 0 1 2;
#X connect 12 0 43 3;
#X connect 13 0 43 4;
#X connect 14 0 46 2;
#X connect 14 0 44 3;
#X connect 15 0 46 3;
#X connect 15 0 44 4;
#X connect 16 0 46 4;
#X connect 16 0 44 5;
#X connect 17 0 46 12;
#X connect 17 0 44 13;
#X connect 18 0 46 13;
#X connect 19 0 46 14;
#X connect 20 0 114 0;
#X connect 21 0 116 0;
#X connect 22 0 118 0;
#X connect 23 0 115 1;
#X connect 24 0 117 1;
#X connect 25 0 119 1;
#X connect 26 0 45 5;
#X connect 27 0 45 6;
#X connect 28 0 3 0;
#X connect 29 0 5 0;
#X connect 30 0 4 0;
#X connect 31 0 6 0;
#X connect 32 0 7 0;
#X connect 33 0 9 0;
#X connect 34 0 10 0;
#X connect 35 0 44 9;
#X connect 35 0 46 8;
#X connect 36 0 44 6;
#X connect 36 0 46 5;
#X connect 37 0 46 6;
#X connect 37 0 44 7;
#X connect 38 0 46 7;
#X connect 38 0 44 8;
#X connect 39 0 43 2;
#X connect 40 0 2 0;
#X connect 40 0 44 2;
#X connect 41 0 2 1;
#X connect 42 0 2 2;
#X connect 43 0 46 1;
#X connect 43 1 45 0;
#X connect 43 2 45 1;
#X connect 47 0 8 0;
#X connect 47 1 77 0;
#X connect 77 0 105 0;
#X connect 77 1 106 0;
#X connect 77 2 107 0;
#X connect 77 3 108 0;
#X connect 77 4 109 0;
#X connect 77 5 110 0;
#X connect 77 6 111 0;
#X connect 77 7 112 0;
#X connect 77 8 81 0;
#X connect 77 9 82 0;
#X connect 77 10 83 0;
#X connect 77 11 84 0;
#X connect 77 12 85 0;
#X connect 77 13 86 0;
#X connect 77 14 87 0;
#X connect 77 15 88 0;
#X connect 77 16 89 0;
#X connect 77 17 90 0;
#X connect 77 18 91 0;
#X connect 77 19 92 0;
#X connect 77 20 93 0;
#X connect 77 21 94 0;
#X connect 77 22 95 0;
#X connect 77 23 96 0;
#X connect 77 24 97 0;
#X connect 77 25 98 0;
#X connect 77 26 99 0;
#X connect 77 27 100 0;
#X connect 77 28 101 0;
#X connect 77 29 102 0;
#X connect 77 30 103 0;
#X connect 77 31 104 0;
#X connect 81 0 55 0;
#X connect 82 0 56 0;
#X connect 83 0 57 0;
#X connect 84 0 58 0;
#X connect 85 0 59 0;
#X connect 86 0 60 0;
#X connect 87 0 61 0;
#X connect 88 0 62 0;
#X connect 89 0 63 0;
#X connect 90 0 64 0;
#X connect 91 0 65 0;
#X connect 92 0 66 0;
#X connect 93 0 67 0;
#X connect 94 0 68 0;
#X connect 95 0 69 0;
#X connect 96 0 70 0;
#X connect 97 0 71 0;
#X connect 98 0 72 0;
#X connect 99 0 74 0;
#X connect 100 0 73 0;
#X connect 101 0 75 0;
#X connect 102 0 76 0;
#X connect 103 0 78 0;
#X connect 104 0 79 0;
#X connect 105 0 48 0;
#X connect 106 0 49 0;
#X connect 107 0 50 0;
#X connect 108 0 80 0;
#X connect 109 0 51 0;
#X connect 110 0 52 0;
#X connect 111 0 53 0;
#X connect 112 0 54 0;
#X connect 113 0 47 0;
#X connect 114 0 115 0;
#X connect 115 0 46 9;
#X connect 115 0 44 10;
#X connect 116 0 117 0;
#X connect 117 0 46 10;
#X connect 117 0 44 11;
#X connect 118 0 119 0;
#X connect 119 0 46 11;
#X connect 119 0 44 12;
#X restore 240 -123 pd capa1;
#N canvas 0 75 1680 951 capa2 0;
#X obj 558 783 imagen;
#X obj 440 782 audio_player;
#X obj 293 609 selector;
#X obj 893 313 s c23;
#X obj 958 313 s c24;
#X obj 1028 317 s c25;
#X obj 766 446 s c26;
#X obj 858 446 s c28;
#X obj 810 443 s c27;
#X obj 910 447 s c29;
#X obj 961 449 s c30;
#X obj 631 85 unpack f f f f f f f f f f f f f f f f f f f f f f f
f f f f f f f f f;
#X obj 1092 276 s c31;
#X obj 1144 279 s c32;
#X obj 63 247 change;
#X obj 155 248 change;
#X obj 233 281 change;
#X obj 331 282 change;
#X obj 425 283 change;
#X obj 523 283 change;
#X obj 621 285 change;
#X obj 235 369 change;
#X obj 333 367 change;
#X obj 425 368 change;
#X obj 513 368 change;
#X obj 611 369 change;
#X obj 759 244 change;
#X obj 834 242 change;
#X obj 903 242 change;
#X obj 964 244 change;
#X obj 1021 243 change;
#X obj 769 370 change;
#X obj 809 369 change;
#X obj 853 369 change;
#X obj 907 370 change;
#X obj 949 373 change;
#X obj 1092 245 change;
#X obj 1148 248 change;
#X obj -228 158 change;
#X obj -136 159 change;
#X obj -48 159 change;
#X obj 50 160 change;
#X obj 144 161 change;
#X obj -227 246 change;
#X obj -129 248 change;
#X obj -31 247 change;
#X obj 314 784 video ------;
#X obj -372 805 texto ---------------------------------;
#X obj 352 907 audio_mix ----------------;
#X obj 630 38 list split 32;
#X obj 1211 86 s c1;
#X obj 1246 87 s c2;
#X obj 1297 82 s c3;
#X obj 1403 84 s c5;
#X obj 1197 180 s c6;
#X obj 1253 170 s c7;
#X obj 1294 161 s c8;
#X obj 1340 169 s c9;
#X obj 1392 162 s c10;
#X obj 1468 206 s c11;
#X obj 1514 200 s c12;
#X obj 1564 195 s c13;
#X obj 1613 193 s c14;
#X obj 1664 190 s c15;
#X obj 1460 300 s c16;
#X obj 1517 299 s c17;
#X obj 1571 301 s c18;
#X obj 1616 303 s c19;
#X obj 1660 305 s c20;
#X obj 1771 199 s c21;
#X obj 1821 199 s c22;
#X obj 1882 194 s c23;
#X obj 1943 195 s c24;
#X obj 1994 195 s c25;
#X obj 1760 267 s c26;
#X obj 1881 273 s c28;
#X obj 1826 268 s c27;
#X obj 1939 278 s c29;
#X obj 1988 280 s c30;
#X obj 1464 -10 unpack f f f f f f f f f f f f f f f f f f f f f f
f f f f f f f f f f;
#X obj 2082 232 s c31;
#X obj 1996 231 s c32;
#X obj 1346 83 s c4;
#X obj 1335 122 change;
#X obj 1392 125 change;
#X obj 1464 175 change;
#X obj 1516 168 change;
#X obj 1560 162 change;
#X obj 1609 162 change;
#X obj 1662 160 change;
#X obj 1456 234 change;
#X obj 1513 234 change;
#X obj 1569 233 change;
#X obj 1614 231 change;
#X obj 1660 234 change;
#X obj 1765 142 change;
#X obj 1821 142 change;
#X obj 1886 146 change;
#X obj 1944 153 change;
#X obj 2001 153 change;
#X obj 1760 233 change;
#X obj 1824 238 change;
#X obj 1881 239 change;
#X obj 1936 237 change;
#X obj 1991 237 change;
#X obj 2072 158 change;
#X obj 2170 157 change;
#X obj 1211 50 change;
#X obj 1246 54 change;
#X obj 1289 53 change;
#X obj 1340 53 change;
#X obj 1400 52 change;
#X obj 1196 141 change;
#X obj 1247 139 change;
#X obj 1292 130 change;
#X obj 630 -6 r dmx2;
#X obj 722 906 video_render --------------------------;
#X connect 0 0 116 1;
#X connect 1 0 48 2;
#X connect 1 1 48 3;
#X connect 2 0 0 0;
#X connect 2 0 1 0;
#X connect 2 0 46 0;
#X connect 2 0 47 0;
#X connect 2 1 0 1;
#X connect 2 1 1 1;
#X connect 2 1 46 1;
#X connect 2 1 47 1;
#X connect 2 1 48 4;
#X connect 11 0 38 0;
#X connect 11 1 39 0;
#X connect 11 2 40 0;
#X connect 11 3 41 0;
#X connect 11 4 42 0;
#X connect 11 5 43 0;
#X connect 11 6 44 0;
#X connect 11 7 45 0;
#X connect 11 8 14 0;
#X connect 11 9 15 0;
#X connect 11 10 16 0;
#X connect 11 11 17 0;
#X connect 11 12 18 0;
#X connect 11 13 19 0;
#X connect 11 14 20 0;
#X connect 11 15 21 0;
#X connect 11 16 22 0;
#X connect 11 17 23 0;
#X connect 11 18 24 0;
#X connect 11 19 25 0;
#X connect 11 20 26 0;
#X connect 11 21 27 0;
#X connect 11 22 28 0;
#X connect 11 23 29 0;
#X connect 11 24 30 0;
#X connect 11 25 31 0;
#X connect 11 26 32 0;
#X connect 11 27 33 0;
#X connect 11 28 34 0;
#X connect 11 29 35 0;
#X connect 11 30 36 0;
#X connect 11 31 37 0;
#X connect 14 0 46 5;
#X connect 14 0 1 2;
#X connect 15 0 46 3;
#X connect 16 0 46 4;
#X connect 17 0 47 3;
#X connect 17 0 116 2;
#X connect 18 0 47 4;
#X connect 18 0 116 3;
#X connect 19 0 47 5;
#X connect 19 0 116 4;
#X connect 20 0 47 13;
#X connect 20 0 116 12;
#X connect 21 0 116 13;
#X connect 22 0 116 14;
#X connect 23 0 47 10;
#X connect 23 0 116 9;
#X connect 24 0 47 11;
#X connect 24 0 116 10;
#X connect 25 0 47 12;
#X connect 25 0 116 11;
#X connect 26 0 48 5;
#X connect 27 0 48 6;
#X connect 28 0 3 0;
#X connect 29 0 4 0;
#X connect 30 0 5 0;
#X connect 31 0 6 0;
#X connect 32 0 8 0;
#X connect 33 0 7 0;
#X connect 34 0 9 0;
#X connect 35 0 10 0;
#X connect 36 0 12 0;
#X connect 37 0 13 0;
#X connect 38 0 47 9;
#X connect 38 0 116 8;
#X connect 39 0 47 6;
#X connect 39 0 116 5;
#X connect 40 0 47 7;
#X connect 40 0 116 6;
#X connect 41 0 47 8;
#X connect 41 0 116 7;
#X connect 42 0 46 2;
#X connect 43 0 2 0;
#X connect 43 0 47 2;
#X connect 44 0 2 1;
#X connect 45 0 2 2;
#X connect 46 0 116 1;
#X connect 46 1 48 0;
#X connect 46 2 48 1;
#X connect 49 0 11 0;
#X connect 49 1 79 0;
#X connect 79 0 107 0;
#X connect 79 1 108 0;
#X connect 79 2 109 0;
#X connect 79 3 110 0;
#X connect 79 4 111 0;
#X connect 79 5 112 0;
#X connect 79 6 113 0;
#X connect 79 7 114 0;
#X connect 79 8 83 0;
#X connect 79 9 84 0;
#X connect 79 10 85 0;
#X connect 79 11 86 0;
#X connect 79 12 87 0;
#X connect 79 13 88 0;
#X connect 79 14 89 0;
#X connect 79 15 90 0;
#X connect 79 16 91 0;
#X connect 79 17 92 0;
#X connect 79 18 93 0;
#X connect 79 19 94 0;
#X connect 79 20 95 0;
#X connect 79 21 96 0;
#X connect 79 22 97 0;
#X connect 79 23 98 0;
#X connect 79 24 99 0;
#X connect 79 25 100 0;
#X connect 79 26 101 0;
#X connect 79 27 102 0;
#X connect 79 28 103 0;
#X connect 79 29 104 0;
#X connect 79 30 105 0;
#X connect 79 31 106 0;
#X connect 83 0 57 0;
#X connect 84 0 58 0;
#X connect 85 0 59 0;
#X connect 86 0 60 0;
#X connect 87 0 61 0;
#X connect 88 0 62 0;
#X connect 89 0 63 0;
#X connect 90 0 64 0;
#X connect 91 0 65 0;
#X connect 92 0 66 0;
#X connect 93 0 67 0;
#X connect 94 0 68 0;
#X connect 95 0 69 0;
#X connect 96 0 70 0;
#X connect 97 0 71 0;
#X connect 98 0 72 0;
#X connect 99 0 73 0;
#X connect 100 0 74 0;
#X connect 101 0 76 0;
#X connect 102 0 75 0;
#X connect 103 0 77 0;
#X connect 104 0 78 0;
#X connect 105 0 80 0;
#X connect 106 0 81 0;
#X connect 107 0 50 0;
#X connect 108 0 51 0;
#X connect 109 0 52 0;
#X connect 110 0 82 0;
#X connect 111 0 53 0;
#X connect 112 0 54 0;
#X connect 113 0 55 0;
#X connect 114 0 56 0;
#X connect 115 0 49 0;
#X restore 240 -102 pd capa2;
#N canvas 0 75 1680 951 capa3 0;
#X obj 568 793 imagen;
#X obj 450 792 audio_player;
#X obj 303 619 selector;
#X obj 903 323 s c23;
#X obj 968 323 s c24;
#X obj 1038 327 s c25;
#X obj 776 456 s c26;
#X obj 868 456 s c28;
#X obj 820 453 s c27;
#X obj 920 457 s c29;
#X obj 971 459 s c30;
#X obj 641 95 unpack f f f f f f f f f f f f f f f f f f f f f f f
f f f f f f f f f;
#X obj 1102 286 s c31;
#X obj 1154 289 s c32;
#X obj 73 257 change;
#X obj 165 258 change;
#X obj 243 291 change;
#X obj 341 292 change;
#X obj 435 293 change;
#X obj 533 293 change;
#X obj 631 295 change;
#X obj 245 379 change;
#X obj 343 377 change;
#X obj 435 378 change;
#X obj 523 378 change;
#X obj 621 379 change;
#X obj 769 254 change;
#X obj 844 252 change;
#X obj 913 252 change;
#X obj 974 254 change;
#X obj 1031 253 change;
#X obj 779 380 change;
#X obj 819 379 change;
#X obj 863 379 change;
#X obj 917 380 change;
#X obj 959 383 change;
#X obj 1102 255 change;
#X obj 1158 258 change;
#X obj -218 168 change;
#X obj -126 169 change;
#X obj -38 169 change;
#X obj 60 170 change;
#X obj 154 171 change;
#X obj -217 256 change;
#X obj -119 258 change;
#X obj -21 257 change;
#X obj 324 794 video ------;
#X obj -362 815 texto ---------------------------------;
#X obj 362 917 audio_mix ----------------;
#X obj 640 48 list split 32;
#X obj 1221 96 s c1;
#X obj 1256 97 s c2;
#X obj 1307 92 s c3;
#X obj 1413 94 s c5;
#X obj 1207 190 s c6;
#X obj 1263 180 s c7;
#X obj 1304 171 s c8;
#X obj 1350 179 s c9;
#X obj 1402 172 s c10;
#X obj 1478 216 s c11;
#X obj 1524 210 s c12;
#X obj 1574 205 s c13;
#X obj 1623 203 s c14;
#X obj 1674 200 s c15;
#X obj 1470 310 s c16;
#X obj 1527 309 s c17;
#X obj 1581 311 s c18;
#X obj 1626 313 s c19;
#X obj 1670 315 s c20;
#X obj 1781 209 s c21;
#X obj 1831 209 s c22;
#X obj 1892 204 s c23;
#X obj 1953 205 s c24;
#X obj 2004 205 s c25;
#X obj 1770 277 s c26;
#X obj 1891 283 s c28;
#X obj 1836 278 s c27;
#X obj 1949 288 s c29;
#X obj 1998 290 s c30;
#X obj 1474 0 unpack f f f f f f f f f f f f f f f f f f f f f f f
f f f f f f f f f;
#X obj 2092 242 s c31;
#X obj 2006 241 s c32;
#X obj 1356 93 s c4;
#X obj 1345 132 change;
#X obj 1402 135 change;
#X obj 1474 185 change;
#X obj 1526 178 change;
#X obj 1570 172 change;
#X obj 1619 172 change;
#X obj 1672 170 change;
#X obj 1466 244 change;
#X obj 1523 244 change;
#X obj 1579 243 change;
#X obj 1624 241 change;
#X obj 1670 244 change;
#X obj 1775 152 change;
#X obj 1831 152 change;
#X obj 1896 156 change;
#X obj 1954 163 change;
#X obj 2011 163 change;
#X obj 1770 243 change;
#X obj 1834 248 change;
#X obj 1891 249 change;
#X obj 1946 247 change;
#X obj 2001 247 change;
#X obj 2082 168 change;
#X obj 2180 167 change;
#X obj 1221 60 change;
#X obj 1256 64 change;
#X obj 1299 63 change;
#X obj 1350 63 change;
#X obj 1410 62 change;
#X obj 1206 151 change;
#X obj 1257 149 change;
#X obj 1302 140 change;
#X obj 640 4 r dmx3;
#X obj 732 916 video_render --------------------------;
#X connect 0 0 116 1;
#X connect 1 0 48 2;
#X connect 1 1 48 3;
#X connect 2 0 0 0;
#X connect 2 0 1 0;
#X connect 2 0 46 0;
#X connect 2 0 47 0;
#X connect 2 1 0 1;
#X connect 2 1 1 1;
#X connect 2 1 46 1;
#X connect 2 1 47 1;
#X connect 2 1 48 4;
#X connect 11 0 38 0;
#X connect 11 1 39 0;
#X connect 11 2 40 0;
#X connect 11 3 41 0;
#X connect 11 4 42 0;
#X connect 11 5 43 0;
#X connect 11 6 44 0;
#X connect 11 7 45 0;
#X connect 11 8 14 0;
#X connect 11 9 15 0;
#X connect 11 10 16 0;
#X connect 11 11 17 0;
#X connect 11 12 18 0;
#X connect 11 13 19 0;
#X connect 11 14 20 0;
#X connect 11 15 21 0;
#X connect 11 16 22 0;
#X connect 11 17 23 0;
#X connect 11 18 24 0;
#X connect 11 19 25 0;
#X connect 11 20 26 0;
#X connect 11 21 27 0;
#X connect 11 22 28 0;
#X connect 11 23 29 0;
#X connect 11 24 30 0;
#X connect 11 25 31 0;
#X connect 11 26 32 0;
#X connect 11 27 33 0;
#X connect 11 28 34 0;
#X connect 11 29 35 0;
#X connect 11 30 36 0;
#X connect 11 31 37 0;
#X connect 14 0 46 5;
#X connect 14 0 1 2;
#X connect 15 0 46 3;
#X connect 16 0 46 4;
#X connect 17 0 47 3;
#X connect 17 0 116 2;
#X connect 18 0 47 4;
#X connect 18 0 116 3;
#X connect 19 0 47 5;
#X connect 19 0 116 4;
#X connect 20 0 47 13;
#X connect 20 0 116 12;
#X connect 21 0 116 13;
#X connect 22 0 116 14;
#X connect 23 0 47 10;
#X connect 23 0 116 9;
#X connect 24 0 47 11;
#X connect 24 0 116 10;
#X connect 25 0 47 12;
#X connect 25 0 116 11;
#X connect 26 0 48 5;
#X connect 27 0 48 6;
#X connect 28 0 3 0;
#X connect 29 0 4 0;
#X connect 30 0 5 0;
#X connect 31 0 6 0;
#X connect 32 0 8 0;
#X connect 33 0 7 0;
#X connect 34 0 9 0;
#X connect 35 0 10 0;
#X connect 36 0 12 0;
#X connect 37 0 13 0;
#X connect 38 0 47 9;
#X connect 38 0 116 8;
#X connect 39 0 47 6;
#X connect 39 0 116 5;
#X connect 40 0 47 7;
#X connect 40 0 116 6;
#X connect 41 0 47 8;
#X connect 41 0 116 7;
#X connect 42 0 46 2;
#X connect 43 0 2 0;
#X connect 43 0 47 2;
#X connect 44 0 2 1;
#X connect 45 0 2 2;
#X connect 46 0 116 1;
#X connect 46 1 48 0;
#X connect 46 2 48 1;
#X connect 49 0 11 0;
#X connect 49 1 79 0;
#X connect 79 0 107 0;
#X connect 79 1 108 0;
#X connect 79 2 109 0;
#X connect 79 3 110 0;
#X connect 79 4 111 0;
#X connect 79 5 112 0;
#X connect 79 6 113 0;
#X connect 79 7 114 0;
#X connect 79 8 83 0;
#X connect 79 9 84 0;
#X connect 79 10 85 0;
#X connect 79 11 86 0;
#X connect 79 12 87 0;
#X connect 79 13 88 0;
#X connect 79 14 89 0;
#X connect 79 15 90 0;
#X connect 79 16 91 0;
#X connect 79 17 92 0;
#X connect 79 18 93 0;
#X connect 79 19 94 0;
#X connect 79 20 95 0;
#X connect 79 21 96 0;
#X connect 79 22 97 0;
#X connect 79 23 98 0;
#X connect 79 24 99 0;
#X connect 79 25 100 0;
#X connect 79 26 101 0;
#X connect 79 27 102 0;
#X connect 79 28 103 0;
#X connect 79 29 104 0;
#X connect 79 30 105 0;
#X connect 79 31 106 0;
#X connect 83 0 57 0;
#X connect 84 0 58 0;
#X connect 85 0 59 0;
#X connect 86 0 60 0;
#X connect 87 0 61 0;
#X connect 88 0 62 0;
#X connect 89 0 63 0;
#X connect 90 0 64 0;
#X connect 91 0 65 0;
#X connect 92 0 66 0;
#X connect 93 0 67 0;
#X connect 94 0 68 0;
#X connect 95 0 69 0;
#X connect 96 0 70 0;
#X connect 97 0 71 0;
#X connect 98 0 72 0;
#X connect 99 0 73 0;
#X connect 100 0 74 0;
#X connect 101 0 76 0;
#X connect 102 0 75 0;
#X connect 103 0 77 0;
#X connect 104 0 78 0;
#X connect 105 0 80 0;
#X connect 106 0 81 0;
#X connect 107 0 50 0;
#X connect 108 0 51 0;
#X connect 109 0 52 0;
#X connect 110 0 82 0;
#X connect 111 0 53 0;
#X connect 112 0 54 0;
#X connect 113 0 55 0;
#X connect 114 0 56 0;
#X connect 115 0 49 0;
#X restore 240 -81 pd capa3;
#N canvas 5 107 1024 570 capa4 0;
#X obj 578 803 imagen;
#X obj 460 802 audio_player;
#X obj 313 629 selector;
#X obj 913 333 s c23;
#X obj 978 333 s c24;
#X obj 1048 337 s c25;
#X obj 786 466 s c26;
#X obj 878 466 s c28;
#X obj 830 463 s c27;
#X obj 930 467 s c29;
#X obj 981 469 s c30;
#X obj 651 105 unpack f f f f f f f f f f f f f f f f f f f f f f f
f f f f f f f f f;
#X obj 1112 296 s c31;
#X obj 1164 299 s c32;
#X obj 83 267 change;
#X obj 175 268 change;
#X obj 253 301 change;
#X obj 351 302 change;
#X obj 445 303 change;
#X obj 543 303 change;
#X obj 641 305 change;
#X obj 255 389 change;
#X obj 353 387 change;
#X obj 445 388 change;
#X obj 533 388 change;
#X obj 631 389 change;
#X obj 779 264 change;
#X obj 854 262 change;
#X obj 923 262 change;
#X obj 984 264 change;
#X obj 1041 263 change;
#X obj 789 390 change;
#X obj 829 389 change;
#X obj 873 389 change;
#X obj 927 390 change;
#X obj 969 393 change;
#X obj 1112 265 change;
#X obj 1168 268 change;
#X obj -208 178 change;
#X obj -116 179 change;
#X obj -28 179 change;
#X obj 70 180 change;
#X obj 164 181 change;
#X obj -207 266 change;
#X obj -109 268 change;
#X obj -11 267 change;
#X obj 334 804 video ------;
#X obj -352 825 texto ---------------------------------;
#X obj 372 927 audio_mix ----------------;
#X obj 650 58 list split 32;
#X obj 1231 106 s c1;
#X obj 1266 107 s c2;
#X obj 1317 102 s c3;
#X obj 1423 104 s c5;
#X obj 1217 200 s c6;
#X obj 1273 190 s c7;
#X obj 1314 181 s c8;
#X obj 1360 189 s c9;
#X obj 1412 182 s c10;
#X obj 1488 226 s c11;
#X obj 1534 220 s c12;
#X obj 1584 215 s c13;
#X obj 1633 213 s c14;
#X obj 1684 210 s c15;
#X obj 1480 320 s c16;
#X obj 1537 319 s c17;
#X obj 1591 321 s c18;
#X obj 1636 323 s c19;
#X obj 1680 325 s c20;
#X obj 1791 219 s c21;
#X obj 1841 219 s c22;
#X obj 1902 214 s c23;
#X obj 1963 215 s c24;
#X obj 2014 215 s c25;
#X obj 1780 287 s c26;
#X obj 1901 293 s c28;
#X obj 1846 288 s c27;
#X obj 1959 298 s c29;
#X obj 2008 300 s c30;
#X obj 1484 10 unpack f f f f f f f f f f f f f f f f f f f f f f f
f f f f f f f f f;
#X obj 2102 252 s c31;
#X obj 2016 251 s c32;
#X obj 1366 103 s c4;
#X obj 1355 142 change;
#X obj 1412 145 change;
#X obj 1484 195 change;
#X obj 1536 188 change;
#X obj 1580 182 change;
#X obj 1629 182 change;
#X obj 1682 180 change;
#X obj 1476 254 change;
#X obj 1533 254 change;
#X obj 1589 253 change;
#X obj 1634 251 change;
#X obj 1680 254 change;
#X obj 1785 162 change;
#X obj 1841 162 change;
#X obj 1906 166 change;
#X obj 1964 173 change;
#X obj 2021 173 change;
#X obj 1780 253 change;
#X obj 1844 258 change;
#X obj 1901 259 change;
#X obj 1956 257 change;
#X obj 2011 257 change;
#X obj 2092 178 change;
#X obj 2190 177 change;
#X obj 1231 70 change;
#X obj 1266 74 change;
#X obj 1309 73 change;
#X obj 1360 73 change;
#X obj 1420 72 change;
#X obj 1216 161 change;
#X obj 1267 159 change;
#X obj 1312 150 change;
#X obj 650 14 r dmx4;
#X obj 742 926 video_render --------------------------;
#X connect 0 0 116 1;
#X connect 1 0 48 2;
#X connect 1 1 48 3;
#X connect 2 0 0 0;
#X connect 2 0 1 0;
#X connect 2 0 46 0;
#X connect 2 0 47 0;
#X connect 2 1 0 1;
#X connect 2 1 1 1;
#X connect 2 1 46 1;
#X connect 2 1 47 1;
#X connect 2 1 48 4;
#X connect 11 0 38 0;
#X connect 11 1 39 0;
#X connect 11 2 40 0;
#X connect 11 3 41 0;
#X connect 11 4 42 0;
#X connect 11 5 43 0;
#X connect 11 6 44 0;
#X connect 11 7 45 0;
#X connect 11 8 14 0;
#X connect 11 9 15 0;
#X connect 11 10 16 0;
#X connect 11 11 17 0;
#X connect 11 12 18 0;
#X connect 11 13 19 0;
#X connect 11 14 20 0;
#X connect 11 15 21 0;
#X connect 11 16 22 0;
#X connect 11 17 23 0;
#X connect 11 18 24 0;
#X connect 11 19 25 0;
#X connect 11 20 26 0;
#X connect 11 21 27 0;
#X connect 11 22 28 0;
#X connect 11 23 29 0;
#X connect 11 24 30 0;
#X connect 11 25 31 0;
#X connect 11 26 32 0;
#X connect 11 27 33 0;
#X connect 11 28 34 0;
#X connect 11 29 35 0;
#X connect 11 30 36 0;
#X connect 11 31 37 0;
#X connect 14 0 46 5;
#X connect 14 0 1 2;
#X connect 15 0 46 3;
#X connect 16 0 46 4;
#X connect 17 0 47 3;
#X connect 17 0 116 2;
#X connect 18 0 47 4;
#X connect 18 0 116 3;
#X connect 19 0 47 5;
#X connect 19 0 116 4;
#X connect 20 0 47 13;
#X connect 20 0 116 12;
#X connect 21 0 116 13;
#X connect 22 0 116 14;
#X connect 23 0 47 10;
#X connect 23 0 116 9;
#X connect 24 0 47 11;
#X connect 24 0 116 10;
#X connect 25 0 47 12;
#X connect 25 0 116 11;
#X connect 26 0 48 5;
#X connect 27 0 48 6;
#X connect 28 0 3 0;
#X connect 29 0 4 0;
#X connect 30 0 5 0;
#X connect 31 0 6 0;
#X connect 32 0 8 0;
#X connect 33 0 7 0;
#X connect 34 0 9 0;
#X connect 35 0 10 0;
#X connect 36 0 12 0;
#X connect 37 0 13 0;
#X connect 38 0 47 9;
#X connect 38 0 116 8;
#X connect 39 0 47 6;
#X connect 39 0 116 5;
#X connect 40 0 47 7;
#X connect 40 0 116 6;
#X connect 41 0 47 8;
#X connect 41 0 116 7;
#X connect 42 0 46 2;
#X connect 43 0 2 0;
#X connect 43 0 47 2;
#X connect 44 0 2 1;
#X connect 45 0 2 2;
#X connect 46 0 116 1;
#X connect 46 1 48 0;
#X connect 46 2 48 1;
#X connect 49 0 11 0;
#X connect 49 1 79 0;
#X connect 79 0 107 0;
#X connect 79 1 108 0;
#X connect 79 2 109 0;
#X connect 79 3 110 0;
#X connect 79 4 111 0;
#X connect 79 5 112 0;
#X connect 79 6 113 0;
#X connect 79 7 114 0;
#X connect 79 8 83 0;
#X connect 79 9 84 0;
#X connect 79 10 85 0;
#X connect 79 11 86 0;
#X connect 79 12 87 0;
#X connect 79 13 88 0;
#X connect 79 14 89 0;
#X connect 79 15 90 0;
#X connect 79 16 91 0;
#X connect 79 17 92 0;
#X connect 79 18 93 0;
#X connect 79 19 94 0;
#X connect 79 20 95 0;
#X connect 79 21 96 0;
#X connect 79 22 97 0;
#X connect 79 23 98 0;
#X connect 79 24 99 0;
#X connect 79 25 100 0;
#X connect 79 26 101 0;
#X connect 79 27 102 0;
#X connect 79 28 103 0;
#X connect 79 29 104 0;
#X connect 79 30 105 0;
#X connect 79 31 106 0;
#X connect 83 0 57 0;
#X connect 84 0 58 0;
#X connect 85 0 59 0;
#X connect 86 0 60 0;
#X connect 87 0 61 0;
#X connect 88 0 62 0;
#X connect 89 0 63 0;
#X connect 90 0 64 0;
#X connect 91 0 65 0;
#X connect 92 0 66 0;
#X connect 93 0 67 0;
#X connect 94 0 68 0;
#X connect 95 0 69 0;
#X connect 96 0 70 0;
#X connect 97 0 71 0;
#X connect 98 0 72 0;
#X connect 99 0 73 0;
#X connect 100 0 74 0;
#X connect 101 0 76 0;
#X connect 102 0 75 0;
#X connect 103 0 77 0;
#X connect 104 0 78 0;
#X connect 105 0 80 0;
#X connect 106 0 81 0;
#X connect 107 0 50 0;
#X connect 108 0 51 0;
#X connect 109 0 52 0;
#X connect 110 0 82 0;
#X connect 111 0 53 0;
#X connect 112 0 54 0;
#X connect 113 0 55 0;
#X connect 114 0 56 0;
#X connect 115 0 49 0;
#X restore 240 -60 pd capa4;
#X coords 0 0 1 1 85 60 0;
