#N canvas 107 54 1272 480 10;
#X obj 76 -75 video_1;
#X obj 169 -314 tgl 50 1 render_status_send render_status_receive Render
-20 -15 0 25 -260097 -1 -260097 0 1;
#X obj -25 -192 fondo;
#X obj 122 -76 imagen_1;
#X obj 172 -76 texto_1;
#X obj 219 -78 audio_1;
#X floatatom 210 -136 5 0 0 0 - - -;
#X symbolatom 38 -153 80 0 0 0 - - -;
#X obj 102 -136 selector_medios_1;
#X obj 38 -300 hradio 30 1 0 3 input_selector empty Input_Selector
0 -8 2 12 -258113 -262144 -4160 0;
#X obj -25 -253 midi;
#X obj -26 -223 manual;
#X text 44 -271 DMX/MIDI/Manual;
#X text -195 -224 Open for manual control -->;
#X text -52 -154 Open File -->;
#X text 515 -306 A render ON;
#X text 515 -288 S render OFF;
#X text 515 -269 Esc Destroy Windows;
#X text 516 -249 C create Window;
#X text 517 -229 F Fullscreen;
#X text 517 -210 R Reset graphics;
#X obj 27 -233 dmx;
#N canvas 0 396 1392 595 interface 1;
#X msg 861 -161 color 0 0 0;
#X msg 281 -163 create;
#X msg 947 -161 destroy;
#X msg 665 -160 reset;
#X msg 726 -159 print;
#X obj 506 -205 tgl 15 0 empty empty empty 17 7 0 10 -262144 -1 -1
0 1;
#X msg 506 -160 border \$1;
#X msg 405 -160 fullscreen \$1;
#X msg 579 -160 topmost \$1;
#X obj 579 -204 tgl 15 0 empty empty empty 17 7 0 10 -262144 -1 -1
0 1;
#X floatatom 453 -345 5 0 0 0 - - -;
#X msg 113 -50 1;
#X obj 947 -206 select 27;
#X msg 34 -52 0;
#X text 953 -223 Escape;
#X msg 405 -190 1;
#X msg 340 -162 cursor 0;
#X floatatom 836 -343 5 0 0 0 - - -;
#X obj 948 -260 select 9;
#X obj 113 -159 select 38;
#X text 343 29 A para renderizar Escape destruye la ventana de video
S para la renderizacion C para crear la pantalla f pantalla completa
R resetea propiedades graficas;
#X obj 34 -165 select 39;
#X obj 562 -369 loadbang;
#X obj 77 6 s render_status_receive;
#X obj 311 -67 r render_status_send;
#X obj 395 -362 key;
#X obj 113 -205 select 65;
#X text 128 -190 A;
#X obj 34 -208 select 83;
#X text 50 -194 S;
#X obj 200 -202 select 67;
#X text 215 -182 C;
#X msg 782 -159 title PMS;
#X obj 665 -198 select 82;
#X obj 405 -236 select 70;
#X obj 580 -15 gemwin 30;
#X obj 733 -360 gemkeyboard;
#X floatatom 1021 -48 5 0 0 0 - - -;
#X floatatom 1071 -48 5 0 0 0 - - -;
#X msg 1054 -128 0;
#X floatatom 1021 4 5 0 0 0 - - -;
#X floatatom 1072 3 5 0 0 0 - - -;
#X msg 1222 -66 1280;
#X msg 1276 -65 1024;
#X obj 911 -16 pack f f;
#X msg 911 17 offset \$1 \$2;
#X obj 1015 43 pack f f;
#X obj 911 -78 t b;
#X obj 1094 45 t b;
#X text 1018 -71 Window position;
#X text 1027 -23 Window Size;
#X msg 1004 -130 1280;
#X msg 1016 76 dimen \$1 \$2;
#X msg 781 -45 offset 300 300;
#X msg 786 -20 dimen 300 300;
#X msg 506 -247 0;
#X obj 704 125 print WINDOW;
#X connect 0 0 35 0;
#X connect 1 0 35 0;
#X connect 1 0 56 0;
#X connect 2 0 35 0;
#X connect 2 0 56 0;
#X connect 3 0 35 0;
#X connect 3 0 56 0;
#X connect 4 0 35 0;
#X connect 5 0 6 0;
#X connect 6 0 35 0;
#X connect 7 0 35 0;
#X connect 7 0 56 0;
#X connect 8 0 35 0;
#X connect 9 0 8 0;
#X connect 11 0 23 0;
#X connect 12 0 2 0;
#X connect 13 0 23 0;
#X connect 15 0 7 0;
#X connect 16 0 35 0;
#X connect 18 0 2 0;
#X connect 19 0 11 0;
#X connect 21 0 13 0;
#X connect 22 0 13 0;
#X connect 22 0 0 0;
#X connect 22 0 32 0;
#X connect 22 0 51 0;
#X connect 22 0 39 0;
#X connect 22 0 55 0;
#X connect 22 0 42 0;
#X connect 22 0 43 0;
#X connect 24 0 35 0;
#X connect 25 0 10 0;
#X connect 25 0 12 0;
#X connect 25 0 26 0;
#X connect 25 0 28 0;
#X connect 25 0 30 0;
#X connect 25 0 33 0;
#X connect 25 0 34 0;
#X connect 26 0 11 0;
#X connect 28 0 13 0;
#X connect 30 0 1 0;
#X connect 30 0 11 0;
#X connect 32 0 35 0;
#X connect 33 0 3 0;
#X connect 34 0 15 0;
#X connect 34 0 16 0;
#X connect 36 0 17 0;
#X connect 36 0 18 0;
#X connect 36 0 19 0;
#X connect 36 0 21 0;
#X connect 37 0 44 0;
#X connect 38 0 44 1;
#X connect 38 0 47 0;
#X connect 39 0 38 0;
#X connect 40 0 46 0;
#X connect 41 0 46 1;
#X connect 41 0 48 0;
#X connect 42 0 40 0;
#X connect 43 0 41 0;
#X connect 44 0 45 0;
#X connect 45 0 35 0;
#X connect 45 0 56 0;
#X connect 46 0 52 0;
#X connect 47 0 44 0;
#X connect 48 0 46 0;
#X connect 51 0 37 0;
#X connect 52 0 35 0;
#X connect 52 0 56 0;
#X connect 53 0 35 0;
#X connect 54 0 35 0;
#X connect 55 0 5 0;
#X coords 0 -1 1 0 125 125 1 1000 -100;
#X restore 700 -313 pd interface;
#X obj 559 -168 config;
#X connect 8 0 7 0;
#X connect 8 0 0 0;
#X connect 8 0 3 0;
#X connect 8 0 4 0;
#X connect 8 0 5 0;
#X connect 8 1 6 0;
#X connect 8 1 0 1;
#X connect 8 1 3 1;
#X connect 8 1 4 1;
#X connect 8 1 5 1;
#X coords 0 0 1 1 85 60 0;
