#N canvas 925 87 434 413 10;
#X declare -lib Gem -lib pdp -lib zexy -lib gem2pdp;
#X obj 338 -313 tgl 50 1 render_status_send render_status_receive Render
-20 -15 0 25 -260097 -1 -260097 0 1;
#X obj 39 -306 hradio 30 1 0 3 input_selector empty Input_Selector
0 -8 2 12 -258113 -262144 -258113 0;
#X text 42 -273 DMX/MIDI/Manual;
#X text 118 -137 A render ON;
#X text 118 -118 S render OFF;
#X text 118 -99 Esc Destroy Windows;
#X text 118 -80 C create Window;
#X text 118 -61 F Fullscreen;
#X text 118 -42 R Reset graphics;
#N canvas 0 314 1364 452 interface 0;
#X msg 2122 -164 color 0 0 0;
#X msg 962 -164 create;
#X msg 2306 -165 destroy;
#X msg 1730 -162 reset;
#X msg 1852 -164 print;
#X obj 1412 -190 tgl 15 0 empty empty empty 17 7 0 10 -262144 -1 -1
1 1;
#X msg 1412 -147 border \$1;
#X msg 1210 -145 fullscreen \$1;
#X msg 1558 -164 topmost \$1;
#X obj 1558 -207 tgl 15 0 empty empty empty 17 7 0 10 -262144 -1 -1
0 1;
#X floatatom 1306 -361 5 0 0 0 - - -;
#X msg 626 -51 1;
#X obj 2275 -226 select 27;
#X msg 468 -51 0;
#X text 2342 -232 Escape;
#X msg 1210 -190 1;
#X msg 1080 -164 cursor 0;
#X floatatom 2072 -342 5 0 0 0 - - -;
#X obj 2392 -228 select 9;
#X obj 626 -162 select 38;
#X text 1086 30 A para renderizar Escape destruye la ventana de video
S para la renderizacion C para crear la pantalla f pantalla completa
R resetea propiedades graficas;
#X obj 468 -162 select 39;
#X obj 1524 -361 loadbang;
#X obj 554 7 s render_status_receive;
#X obj 1022 -51 r render_status_send;
#X obj 1190 -361 key;
#X obj 626 -207 select 65;
#X text 656 -189 A;
#X obj 468 -207 select 83;
#X text 500 -208 S;
#X obj 800 -207 select 67;
#X text 830 -165 C;
#X msg 1964 -164 title PMS;
#X obj 1730 -207 select 82;
#X obj 1210 -235 select 70;
#X obj 1866 -361 gemkeyboard;
#X floatatom 2409 -75 5 0 0 0 - - -;
#X floatatom 2457 -75 5 0 0 0 - - -;
#X msg 2508 -129 0;
#X floatatom 2408 -30 5 0 0 0 - - -;
#X floatatom 2458 -30 5 0 0 0 - - -;
#X msg 2844 -51 1280;
#X msg 2952 -51 1024;
#X obj 2222 -14 pack f f;
#X msg 2222 31 offset \$1 \$2;
#X obj 2436 53 pack f f;
#X obj 2222 -77 t b;
#X obj 2588 31 t b;
#X text 2406 -99 Window position;
#X text 2417 -53 Window Size;
#X msg 2408 -129 1280;
#X msg 2436 98 dimen \$1 \$2;
#X msg 1962 -51 offset 300 300;
#X msg 1962 -6 dimen 300 300;
#X obj 1808 126 print WINDOW;
#X msg 1412 -235 1;
#X obj 1934 -207 delay 50;
#X obj 1560 -14 gemwin 25;
#X connect 0 0 57 0;
#X connect 1 0 54 0;
#X connect 1 0 57 0;
#X connect 2 0 54 0;
#X connect 2 0 57 0;
#X connect 3 0 54 0;
#X connect 3 0 57 0;
#X connect 4 0 57 0;
#X connect 5 0 6 0;
#X connect 6 0 57 0;
#X connect 7 0 54 0;
#X connect 7 0 57 0;
#X connect 8 0 57 0;
#X connect 9 0 8 0;
#X connect 11 0 23 0;
#X connect 12 0 2 0;
#X connect 13 0 23 0;
#X connect 15 0 7 0;
#X connect 16 0 57 0;
#X connect 18 0 2 0;
#X connect 19 0 11 0;
#X connect 21 0 13 0;
#X connect 22 0 13 0;
#X connect 22 0 0 0;
#X connect 22 0 32 0;
#X connect 22 0 38 0;
#X connect 22 0 55 0;
#X connect 22 0 42 0;
#X connect 24 0 57 0;
#X connect 25 0 10 0;
#X connect 25 0 12 0;
#X connect 25 0 26 0;
#X connect 25 0 28 0;
#X connect 25 0 30 0;
#X connect 25 0 33 0;
#X connect 25 0 34 0;
#X connect 26 0 11 0;
#X connect 28 0 13 0;
#X connect 30 0 1 0;
#X connect 30 0 11 0;
#X connect 32 0 57 0;
#X connect 33 0 3 0;
#X connect 33 0 56 0;
#X connect 34 0 15 0;
#X connect 34 0 16 0;
#X connect 35 0 17 0;
#X connect 35 0 18 0;
#X connect 35 0 19 0;
#X connect 35 0 21 0;
#X connect 36 0 43 0;
#X connect 37 0 43 1;
#X connect 37 0 46 0;
#X connect 38 0 37 0;
#X connect 38 0 50 0;
#X connect 39 0 45 0;
#X connect 40 0 45 1;
#X connect 40 0 47 0;
#X connect 41 0 39 0;
#X connect 42 0 40 0;
#X connect 42 0 41 0;
#X connect 43 0 44 0;
#X connect 44 0 54 0;
#X connect 44 0 57 0;
#X connect 45 0 51 0;
#X connect 46 0 43 0;
#X connect 47 0 45 0;
#X connect 50 0 36 0;
#X connect 51 0 54 0;
#X connect 51 0 57 0;
#X connect 52 0 57 0;
#X connect 53 0 57 0;
#X connect 55 0 5 0;
#X connect 56 0 32 0;
#X coords 0 -1 1 0 100 100 2 2400 -100;
#X restore 328 -139 pd interface;
#X obj 29 -24 config;
#N canvas 23 481 1173 599 dmx 0;
#X obj 522 345 artnetin;
#X obj 21 479 list split 32;
#X text 425 148 Subnet Universo;
#X obj 395 -7 loadbang;
#X obj -7 437 list split;
#X obj 127 482 list split 32;
#X obj 99 444 list split;
#X obj 50 385 - 1;
#X obj 156 386 - 1;
#X msg 208 72 1;
#X msg 332 72 33;
#X floatatom 211 175 5 0 0 0 - - -;
#X floatatom 258 174 5 0 0 0 - - -;
#X text 204 151 Layer 1;
#X text 252 151 Layer 2;
#X text 270 122 DMX Address;
#X obj 564 160 bng 30 250 50 0 empty empty Close 0 -7 0 10 -258113
-258113 -258113;
#X text 438 122 ArtNet control;
#X floatatom 430 172 5 0 0 0 - - -;
#X floatatom 475 171 5 0 0 0 - - -;
#X obj 527 161 bng 30 250 50 0 empty empty Open 0 -7 0 10 -4034 -4034
-4034;
#X obj 430 219 t f;
#X obj 430 260 pack f f;
#X msg 668 50 0;
#X text 306 150 Layer 3;
#X text 358 149 Layer 4;
#X floatatom 312 173 5 0 0 0 - - -;
#X floatatom 365 173 5 0 0 0 - - -;
#X msg 430 72 65;
#X msg 538 72 73;
#X msg 564 293 close;
#X msg 430 293 open \$1 \$2;
#N canvas 541 273 449 300 demux_1 0;
#X obj -881 434 s c1;
#X obj -791 434 s c2;
#X obj -693 435 s c3;
#X obj -501 438 s c5;
#X obj -921 554 s c6;
#X obj -821 554 s c7;
#X obj -727 553 s c8;
#X obj -633 554 s c9;
#X obj -543 554 s c10;
#X obj -451 554 s c11;
#X obj -359 556 s c12;
#X obj -259 558 s c13;
#X obj -161 556 s c14;
#X obj -65 557 s c15;
#X obj 36 561 s c16;
#X obj 132 589 s c17;
#X obj 222 593 s c18;
#X obj 310 597 s c19;
#X obj 406 597 s c20;
#X obj 502 597 s c21;
#X obj 604 597 s c22;
#X obj 702 598 s c23;
#X obj 802 597 s c24;
#X obj 908 604 s c25;
#X obj 1006 604 s c26;
#X obj 702 491 s c28;
#X obj 1106 604 s c27;
#X obj 800 492 s c29;
#X obj 890 490 s c30;
#X obj 198 335 unpack f f f f f f f f f f f f f f f f f f f f f f f
f f f f f f f f f;
#X obj 986 490 s c31;
#X obj 1084 488 s c32;
#X obj -597 437 s c4;
#X obj 158 344 bng 15 250 50 0 empty empty empty 17 7 0 10 -262144
-1 -1;
#X obj -635 522 change;
#X obj -543 523 change;
#X obj -455 523 change;
#X obj -357 524 change;
#X obj -263 525 change;
#X obj -165 525 change;
#X obj -67 527 change;
#X obj 30 526 change;
#X obj 128 524 change;
#X obj 220 525 change;
#X obj 308 525 change;
#X obj 406 526 change;
#X obj 500 527 change;
#X obj 598 527 change;
#X obj 696 529 change;
#X obj 794 528 change;
#X obj 904 526 change;
#X obj 996 527 change;
#X obj 1084 527 change;
#X obj 686 413 change;
#X obj 780 414 change;
#X obj 878 414 change;
#X obj 976 416 change;
#X obj 1074 415 change;
#X obj -881 405 change;
#X obj -789 406 change;
#X obj -701 406 change;
#X obj -603 407 change;
#X obj -509 408 change;
#X obj -925 521 change;
#X obj -827 523 change;
#X obj -729 522 change;
#X floatatom -869 480 5 0 0 0 - - -;
#X floatatom 4 338 5 0 0 0 - - -;
#X floatatom -703 479 5 0 0 0 - - -;
#X floatatom -789 480 5 0 0 0 - - -;
#X floatatom -615 479 5 0 0 0 - - -;
#X obj 198 281 inlet;
#X connect 29 0 33 0;
#X connect 29 0 58 0;
#X connect 29 1 59 0;
#X connect 29 1 67 0;
#X connect 29 2 60 0;
#X connect 29 3 61 0;
#X connect 29 4 62 0;
#X connect 29 5 63 0;
#X connect 29 6 64 0;
#X connect 29 7 65 0;
#X connect 29 8 34 0;
#X connect 29 9 35 0;
#X connect 29 10 36 0;
#X connect 29 11 37 0;
#X connect 29 12 38 0;
#X connect 29 13 39 0;
#X connect 29 14 40 0;
#X connect 29 15 41 0;
#X connect 29 16 42 0;
#X connect 29 17 43 0;
#X connect 29 18 44 0;
#X connect 29 19 45 0;
#X connect 29 20 46 0;
#X connect 29 21 47 0;
#X connect 29 22 48 0;
#X connect 29 23 49 0;
#X connect 29 24 50 0;
#X connect 29 25 51 0;
#X connect 29 26 52 0;
#X connect 29 27 53 0;
#X connect 29 28 54 0;
#X connect 29 29 55 0;
#X connect 29 30 56 0;
#X connect 29 31 57 0;
#X connect 34 0 7 0;
#X connect 35 0 8 0;
#X connect 36 0 9 0;
#X connect 37 0 10 0;
#X connect 38 0 11 0;
#X connect 39 0 12 0;
#X connect 40 0 13 0;
#X connect 41 0 14 0;
#X connect 42 0 15 0;
#X connect 43 0 16 0;
#X connect 44 0 17 0;
#X connect 45 0 18 0;
#X connect 46 0 19 0;
#X connect 47 0 20 0;
#X connect 48 0 21 0;
#X connect 49 0 22 0;
#X connect 50 0 23 0;
#X connect 51 0 24 0;
#X connect 52 0 26 0;
#X connect 53 0 25 0;
#X connect 54 0 27 0;
#X connect 55 0 28 0;
#X connect 56 0 30 0;
#X connect 57 0 31 0;
#X connect 58 0 0 0;
#X connect 58 0 66 0;
#X connect 59 0 1 0;
#X connect 59 0 69 0;
#X connect 60 0 2 0;
#X connect 60 0 68 0;
#X connect 61 0 32 0;
#X connect 61 0 70 0;
#X connect 62 0 3 0;
#X connect 63 0 4 0;
#X connect 64 0 5 0;
#X connect 65 0 6 0;
#X connect 71 0 29 0;
#X restore 21 520 pd demux_1;
#N canvas 0 0 1280 943 demux_2 0;
#X obj 218 345 unpack f f f f f f f f f f f f f f f f f f f f f f f
f f f f f f f f f;
#X obj 178 354 bng 15 250 50 0 empty empty empty 17 7 0 10 -262144
-1 -1;
#X obj -615 532 change;
#X obj -523 533 change;
#X obj -435 533 change;
#X obj -337 534 change;
#X obj -243 535 change;
#X obj -145 535 change;
#X obj -47 537 change;
#X obj 50 536 change;
#X obj 148 534 change;
#X obj 240 535 change;
#X obj 328 535 change;
#X obj 426 536 change;
#X obj 520 537 change;
#X obj 618 537 change;
#X obj 716 539 change;
#X obj 814 538 change;
#X obj 924 536 change;
#X obj 1016 537 change;
#X obj 1104 537 change;
#X obj 706 423 change;
#X obj 800 424 change;
#X obj 898 424 change;
#X obj 996 426 change;
#X obj 1094 425 change;
#X obj -861 415 change;
#X obj -769 416 change;
#X obj -681 416 change;
#X obj -583 417 change;
#X obj -489 418 change;
#X obj -905 531 change;
#X obj -807 533 change;
#X obj -709 532 change;
#X floatatom -849 490 5 0 0 0 - - -;
#X floatatom 24 348 5 0 0 0 - - -;
#X floatatom -683 489 5 0 0 0 - - -;
#X floatatom -769 490 5 0 0 0 - - -;
#X floatatom -595 489 5 0 0 0 - - -;
#X obj 218 291 inlet;
#X obj -861 444 s c33;
#X obj -771 444 s c34;
#X obj -673 445 s c35;
#X obj -577 447 s c36;
#X obj -481 448 s c37;
#X obj -901 564 s c38;
#X obj -801 564 s c39;
#X obj -707 563 s c40;
#X obj -613 564 s c41;
#X obj -523 564 s c42;
#X obj -431 564 s c43;
#X obj -339 566 s c44;
#X obj -239 568 s c45;
#X obj -141 566 s c46;
#X obj -45 567 s c47;
#X obj 56 571 s c48;
#X obj 152 599 s c49;
#X obj 242 603 s c50;
#X obj 330 607 s c51;
#X obj 426 607 s c52;
#X obj 522 607 s c53;
#X obj 624 607 s c54;
#X obj 722 608 s c55;
#X obj 822 607 s c56;
#X obj 928 614 s c57;
#X obj 1026 614 s c58;
#X obj 1126 614 s c59;
#X obj 722 501 s c60;
#X obj 820 502 s c61;
#X obj 910 500 s c62;
#X obj 1006 500 s c63;
#X obj 1104 498 s c64;
#X connect 0 0 1 0;
#X connect 0 0 26 0;
#X connect 0 1 27 0;
#X connect 0 1 35 0;
#X connect 0 2 28 0;
#X connect 0 3 29 0;
#X connect 0 4 30 0;
#X connect 0 5 31 0;
#X connect 0 6 32 0;
#X connect 0 7 33 0;
#X connect 0 8 2 0;
#X connect 0 9 3 0;
#X connect 0 10 4 0;
#X connect 0 11 5 0;
#X connect 0 12 6 0;
#X connect 0 13 7 0;
#X connect 0 14 8 0;
#X connect 0 15 9 0;
#X connect 0 16 10 0;
#X connect 0 17 11 0;
#X connect 0 18 12 0;
#X connect 0 19 13 0;
#X connect 0 20 14 0;
#X connect 0 21 15 0;
#X connect 0 22 16 0;
#X connect 0 23 17 0;
#X connect 0 24 18 0;
#X connect 0 25 19 0;
#X connect 0 26 20 0;
#X connect 0 27 21 0;
#X connect 0 28 22 0;
#X connect 0 29 23 0;
#X connect 0 30 24 0;
#X connect 0 31 25 0;
#X connect 2 0 48 0;
#X connect 3 0 49 0;
#X connect 4 0 50 0;
#X connect 5 0 51 0;
#X connect 6 0 52 0;
#X connect 7 0 53 0;
#X connect 8 0 54 0;
#X connect 9 0 55 0;
#X connect 10 0 56 0;
#X connect 11 0 57 0;
#X connect 12 0 58 0;
#X connect 13 0 59 0;
#X connect 14 0 60 0;
#X connect 15 0 61 0;
#X connect 16 0 62 0;
#X connect 17 0 63 0;
#X connect 18 0 64 0;
#X connect 19 0 65 0;
#X connect 20 0 66 0;
#X connect 21 0 67 0;
#X connect 22 0 68 0;
#X connect 23 0 69 0;
#X connect 24 0 70 0;
#X connect 25 0 71 0;
#X connect 26 0 34 0;
#X connect 26 0 40 0;
#X connect 27 0 37 0;
#X connect 27 0 41 0;
#X connect 28 0 36 0;
#X connect 28 0 42 0;
#X connect 29 0 38 0;
#X connect 29 0 43 0;
#X connect 30 0 44 0;
#X connect 31 0 45 0;
#X connect 32 0 46 0;
#X connect 33 0 47 0;
#X connect 39 0 0 0;
#X restore 127 523 pd demux_2;
#X obj 230 482 list split 32;
#X obj 202 447 list split;
#X obj 259 390 - 1;
#N canvas 0 444 1280 679 demux_3 0;
#X obj 218 345 unpack f f f f f f f f f f f f f f f f f f f f f f f
f f f f f f f f f;
#X obj 178 354 bng 15 250 50 0 empty empty empty 17 7 0 10 -262144
-1 -1;
#X obj -615 532 change;
#X obj -523 533 change;
#X obj -435 533 change;
#X obj -337 534 change;
#X obj -243 535 change;
#X obj -145 535 change;
#X obj -47 537 change;
#X obj 50 536 change;
#X obj 148 534 change;
#X obj 240 535 change;
#X obj 328 535 change;
#X obj 426 536 change;
#X obj 520 537 change;
#X obj 618 537 change;
#X obj 716 539 change;
#X obj 814 538 change;
#X obj 924 536 change;
#X obj 1016 537 change;
#X obj 1104 537 change;
#X obj 706 423 change;
#X obj 800 424 change;
#X obj 898 424 change;
#X obj 996 426 change;
#X obj 1094 425 change;
#X obj -861 415 change;
#X obj -769 416 change;
#X obj -681 416 change;
#X obj -583 417 change;
#X obj -489 418 change;
#X obj -905 531 change;
#X obj -807 533 change;
#X obj -709 532 change;
#X floatatom -849 490 5 0 0 0 - - -;
#X floatatom 24 348 5 0 0 0 - - -;
#X floatatom -683 489 5 0 0 0 - - -;
#X floatatom -769 490 5 0 0 0 - - -;
#X floatatom -595 489 5 0 0 0 - - -;
#X obj 218 291 inlet;
#X obj -861 444 s c65;
#X obj -771 444 s c66;
#X obj -673 445 s c67;
#X obj -577 447 s c68;
#X obj -481 448 s c69;
#X obj -901 564 s c70;
#X obj -801 564 s c71;
#X obj -707 563 s c72;
#X obj -613 564 s c73;
#X obj -523 564 s c74;
#X obj -431 564 s c75;
#X obj -339 566 s c76;
#X obj -243 567 s c77;
#X obj -145 565 s c78;
#X obj -47 567 s c79;
#X obj 50 573 s c80;
#X obj 148 598 s c81;
#X obj 242 603 s c82;
#X obj 330 607 s c83;
#X obj 426 607 s c84;
#X obj 522 607 s c85;
#X obj 624 607 s c86;
#X obj 722 608 s c87;
#X obj 822 607 s c88;
#X obj 928 614 s c89;
#X obj 1026 614 s c90;
#X obj 1126 614 s c91;
#X obj 722 501 s c92;
#X obj 820 502 s c93;
#X obj 910 500 s c94;
#X obj 1006 500 s c95;
#X obj 1104 498 s c96;
#X connect 0 0 1 0;
#X connect 0 0 26 0;
#X connect 0 1 27 0;
#X connect 0 1 35 0;
#X connect 0 2 28 0;
#X connect 0 3 29 0;
#X connect 0 4 30 0;
#X connect 0 5 31 0;
#X connect 0 6 32 0;
#X connect 0 7 33 0;
#X connect 0 8 2 0;
#X connect 0 9 3 0;
#X connect 0 10 4 0;
#X connect 0 11 5 0;
#X connect 0 12 6 0;
#X connect 0 13 7 0;
#X connect 0 14 8 0;
#X connect 0 15 9 0;
#X connect 0 16 10 0;
#X connect 0 17 11 0;
#X connect 0 18 12 0;
#X connect 0 19 13 0;
#X connect 0 20 14 0;
#X connect 0 21 15 0;
#X connect 0 22 16 0;
#X connect 0 23 17 0;
#X connect 0 24 18 0;
#X connect 0 25 19 0;
#X connect 0 26 20 0;
#X connect 0 27 21 0;
#X connect 0 28 22 0;
#X connect 0 29 23 0;
#X connect 0 30 24 0;
#X connect 0 31 25 0;
#X connect 2 0 48 0;
#X connect 3 0 49 0;
#X connect 4 0 50 0;
#X connect 5 0 51 0;
#X connect 6 0 52 0;
#X connect 7 0 53 0;
#X connect 8 0 54 0;
#X connect 9 0 55 0;
#X connect 10 0 56 0;
#X connect 11 0 57 0;
#X connect 12 0 58 0;
#X connect 13 0 59 0;
#X connect 14 0 60 0;
#X connect 15 0 61 0;
#X connect 16 0 62 0;
#X connect 17 0 63 0;
#X connect 18 0 64 0;
#X connect 19 0 65 0;
#X connect 20 0 66 0;
#X connect 21 0 67 0;
#X connect 22 0 68 0;
#X connect 23 0 69 0;
#X connect 24 0 70 0;
#X connect 25 0 71 0;
#X connect 26 0 34 0;
#X connect 26 0 40 0;
#X connect 27 0 37 0;
#X connect 27 0 41 0;
#X connect 28 0 36 0;
#X connect 28 0 42 0;
#X connect 29 0 38 0;
#X connect 29 0 43 0;
#X connect 30 0 44 0;
#X connect 31 0 45 0;
#X connect 32 0 46 0;
#X connect 33 0 47 0;
#X connect 39 0 0 0;
#X restore 230 523 pd demux_3;
#X obj 336 483 list split 32;
#X obj 308 446 list split;
#X obj 365 367 - 1;
#N canvas 0 0 1280 943 demux_4 0;
#X obj 218 345 unpack f f f f f f f f f f f f f f f f f f f f f f f
f f f f f f f f f;
#X obj 178 354 bng 15 250 50 0 empty empty empty 17 7 0 10 -262144
-1 -1;
#X obj -615 532 change;
#X obj -523 533 change;
#X obj -435 533 change;
#X obj -337 534 change;
#X obj -243 535 change;
#X obj -145 535 change;
#X obj -47 537 change;
#X obj 50 536 change;
#X obj 148 534 change;
#X obj 240 535 change;
#X obj 328 535 change;
#X obj 426 536 change;
#X obj 520 537 change;
#X obj 618 537 change;
#X obj 716 539 change;
#X obj 814 538 change;
#X obj 924 536 change;
#X obj 1016 537 change;
#X obj 1104 537 change;
#X obj 706 423 change;
#X obj 800 424 change;
#X obj 898 424 change;
#X obj 996 426 change;
#X obj 1094 425 change;
#X obj -861 415 change;
#X obj -769 416 change;
#X obj -681 416 change;
#X obj -583 417 change;
#X obj -489 418 change;
#X obj -905 531 change;
#X obj -807 533 change;
#X obj -709 532 change;
#X floatatom -849 490 5 0 0 0 - - -;
#X floatatom 24 348 5 0 0 0 - - -;
#X floatatom -683 489 5 0 0 0 - - -;
#X floatatom -769 490 5 0 0 0 - - -;
#X floatatom -595 489 5 0 0 0 - - -;
#X obj 218 291 inlet;
#X obj -861 444 s c97;
#X obj -771 444 s c98;
#X obj -673 445 s c99;
#X obj -577 447 s c100;
#X obj -481 448 s c101;
#X obj -901 564 s c102;
#X obj -801 564 s c103;
#X obj -707 563 s c104;
#X obj -613 564 s c105;
#X obj -523 564 s c106;
#X obj -431 564 s c107;
#X obj -339 566 s c108;
#X obj -243 567 s c109;
#X obj -145 565 s c110;
#X obj -47 567 s c111;
#X obj 50 573 s c112;
#X obj 148 598 s c113;
#X obj 242 603 s c114;
#X obj 330 607 s c115;
#X obj 426 607 s c116;
#X obj 522 607 s c117;
#X obj 624 607 s c118;
#X obj 722 608 s c119;
#X obj 822 607 s c120;
#X obj 928 614 s c121;
#X obj 1026 614 s c122;
#X obj 1126 614 s c123;
#X obj 722 501 s c124;
#X obj 820 502 s c125;
#X obj 910 500 s c126;
#X obj 1008 501 s c127;
#X obj 1104 498 s c128;
#X connect 0 0 1 0;
#X connect 0 0 26 0;
#X connect 0 1 27 0;
#X connect 0 1 35 0;
#X connect 0 2 28 0;
#X connect 0 3 29 0;
#X connect 0 4 30 0;
#X connect 0 5 31 0;
#X connect 0 6 32 0;
#X connect 0 7 33 0;
#X connect 0 8 2 0;
#X connect 0 9 3 0;
#X connect 0 10 4 0;
#X connect 0 11 5 0;
#X connect 0 12 6 0;
#X connect 0 13 7 0;
#X connect 0 14 8 0;
#X connect 0 15 9 0;
#X connect 0 16 10 0;
#X connect 0 17 11 0;
#X connect 0 18 12 0;
#X connect 0 19 13 0;
#X connect 0 20 14 0;
#X connect 0 21 15 0;
#X connect 0 22 16 0;
#X connect 0 23 17 0;
#X connect 0 24 18 0;
#X connect 0 25 19 0;
#X connect 0 26 20 0;
#X connect 0 27 21 0;
#X connect 0 28 22 0;
#X connect 0 29 23 0;
#X connect 0 30 24 0;
#X connect 0 31 25 0;
#X connect 2 0 48 0;
#X connect 3 0 49 0;
#X connect 4 0 50 0;
#X connect 5 0 51 0;
#X connect 6 0 52 0;
#X connect 7 0 53 0;
#X connect 8 0 54 0;
#X connect 9 0 55 0;
#X connect 10 0 56 0;
#X connect 11 0 57 0;
#X connect 12 0 58 0;
#X connect 13 0 59 0;
#X connect 14 0 60 0;
#X connect 15 0 61 0;
#X connect 16 0 62 0;
#X connect 17 0 63 0;
#X connect 18 0 64 0;
#X connect 19 0 65 0;
#X connect 20 0 66 0;
#X connect 21 0 67 0;
#X connect 22 0 68 0;
#X connect 23 0 69 0;
#X connect 24 0 70 0;
#X connect 25 0 71 0;
#X connect 26 0 34 0;
#X connect 26 0 40 0;
#X connect 27 0 37 0;
#X connect 27 0 41 0;
#X connect 28 0 36 0;
#X connect 28 0 42 0;
#X connect 29 0 38 0;
#X connect 29 0 43 0;
#X connect 30 0 44 0;
#X connect 31 0 45 0;
#X connect 32 0 46 0;
#X connect 33 0 47 0;
#X connect 39 0 0 0;
#X restore 336 524 pd demux_4;
#X obj 649 224 r input_selector;
#X obj 522 380 spigot;
#X msg 649 328 1;
#X msg 676 328 0;
#X obj 649 265 sel 0;
#X connect 0 0 43 0;
#X connect 1 0 32 0;
#X connect 3 0 10 0;
#X connect 3 0 9 0;
#X connect 3 0 28 0;
#X connect 3 0 29 0;
#X connect 4 1 1 0;
#X connect 5 0 33 0;
#X connect 6 1 5 0;
#X connect 7 0 4 1;
#X connect 8 0 6 1;
#X connect 9 0 11 0;
#X connect 10 0 12 0;
#X connect 11 0 7 0;
#X connect 12 0 8 0;
#X connect 16 0 30 0;
#X connect 18 0 21 0;
#X connect 19 0 22 1;
#X connect 20 0 19 0;
#X connect 20 0 18 0;
#X connect 21 0 22 0;
#X connect 22 0 31 0;
#X connect 23 0 19 0;
#X connect 23 0 18 0;
#X connect 26 0 36 0;
#X connect 27 0 40 0;
#X connect 28 0 26 0;
#X connect 29 0 27 0;
#X connect 30 0 0 0;
#X connect 31 0 0 0;
#X connect 34 0 37 0;
#X connect 35 1 34 0;
#X connect 36 0 35 1;
#X connect 38 0 41 0;
#X connect 39 1 38 0;
#X connect 40 0 39 1;
#X connect 42 0 46 0;
#X connect 43 0 39 0;
#X connect 43 0 35 0;
#X connect 43 0 6 0;
#X connect 43 0 4 0;
#X connect 44 0 43 1;
#X connect 45 0 43 1;
#X connect 46 0 44 0;
#X connect 46 1 45 0;
#X coords 0 -1 1 1 400 100 2 200 100;
#X restore 28 -250 pd dmx;
#N canvas 0 0 450 300 fondo 0;
#X obj 1250 -123 color 0 0 0;
#X obj 1250 -167 alpha;
#X obj 1250 31 pix_alpha;
#X text 1216 -226 Pantalla fondo Negra;
#X floatatom 1274 -48 5 0 0 0 - - -;
#X floatatom 1354 -47 5 0 0 0 - - -;
#X obj 1274 -84 tgl 15 0 empty empty empty 17 7 0 10 -262144 -1 -1
0 1;
#X obj 1354 -84 tgl 15 0 empty empty empty 17 7 0 10 -262144 -1 -1
0 1;
#X msg 1750 -41 0 0 0;
#X msg 1444 -45 0 0 0;
#X msg 1550 -43 1 1 1;
#X msg 1650 -42 1 1 1;
#X obj 1250 -204 gemhead 5;
#X obj 1250 94 translateXYZ;
#X obj 1528 24 loadbang;
#X obj 1250 131 rectangle 16 12;
#X obj 1686 105 bng 15 250 50 0 empty empty empty 17 7 0 10 -262144
-1 -1;
#X msg 1444 63 -50;
#X msg 1426 -149 1 1 1;
#X connect 0 0 2 0;
#X connect 1 0 0 0;
#X connect 2 0 13 0;
#X connect 4 0 2 1;
#X connect 5 0 2 2;
#X connect 6 0 4 0;
#X connect 7 0 5 0;
#X connect 8 0 2 4;
#X connect 9 0 2 3;
#X connect 10 0 2 3;
#X connect 11 0 2 4;
#X connect 12 0 1 0;
#X connect 13 0 15 0;
#X connect 14 0 17 0;
#X connect 16 0 17 0;
#X connect 17 0 13 3;
#X connect 18 0 0 1;
#X restore 240 -144 pd fondo;
#N canvas 0 472 1344 294 manual 0;
#X obj -7 245 s c1;
#X obj 74 244 s c2;
#X obj 152 245 s c3;
#X obj 318 247 s c5;
#X obj 380 245 s c6;
#X obj 250 246 s c4;
#X obj -33 62 vsl 15 128 0 255 0 0 empty empty Alpha 0 -9 0 10 -191407
-1 -1 12700 1;
#X obj 74 62 vsl 15 128 0 255 0 0 empty empty Red 0 -9 0 10 -258113
-1 -258113 6375 1;
#X obj 152 65 vsl 15 128 0 255 0 1 empty empty Green 0 -9 0 10 -4034
-1 -1 6375 1;
#X obj 250 67 vsl 15 128 0 255 0 0 empty empty Blue 0 -9 0 10 -4160
-1 -1 6375 1;
#X obj 318 70 vsl 15 128 0 255 0 0 empty empty Speed 0 -9 0 10 -261234
-1 -1 1992 1;
#X obj -7 213 int;
#X obj 152 211 int;
#X obj 74 212 int;
#X obj 250 213 int;
#X obj 380 212 int;
#X obj 318 213 int;
#X obj 612 38 vsl 15 128 0 255 0 0 empty empty Reproduc 0 -9 0 10 -261234
-1 -1 0 1;
#X obj 710 48 vsl 15 128 0 255 0 0 empty empty inicio_loop 0 -9 0 10
-203904 -1 -1 0 1;
#X obj 770 61 vsl 15 128 0 255 0 0 empty empty Fin_loop 0 -9 0 10 -203904
-1 -1 12700 1;
#X obj 836 81 vsl 15 128 0 255 0 0 empty empty RotX 0 -9 0 10 -204786
-1 -1 0 1;
#X obj 462 212 int;
#X obj 612 193 int;
#X obj 544 224 int;
#X obj 710 197 int;
#X obj 836 223 int;
#X obj 770 209 int;
#X obj 926 84 vsl 15 128 0 255 0 0 empty empty RotY 0 -9 0 10 -204786
-1 -1 0 1;
#X obj 1004 82 vsl 15 128 0 255 0 0 empty empty RotZ 0 -9 0 10 -204786
-1 -1 0 1;
#X obj 1094 73 vsl 15 128 0 255 0 0 empty empty Size 0 -9 0 10 -260097
-1 -1 1594 1;
#X obj 1162 72 vsl 15 128 0 255 0 0 empty empty empty 0 -9 0 10 -260097
-1 -1 1594 1;
#X obj 1230 75 vsl 15 128 0 255 0 0 empty empty empty 0 -9 0 10 -260097
-1 -1 1594 1;
#X obj 1328 80 vsl 15 128 0 255 0 0 empty empty empty 0 -9 0 10 -4034
-1 -1 6375 1;
#X obj 926 230 int;
#X obj 1094 215 int;
#X obj 1004 226 int;
#X obj 1166 218 int;
#X obj 1328 223 int;
#X obj 1226 218 int;
#X obj 1398 80 vsl 15 128 0 255 0 0 empty empty empty 0 -9 0 10 -4034
-1 -1 6375 1;
#X obj 1460 80 vsl 15 128 0 255 0 0 empty empty empty 0 -9 0 10 -4034
-1 -1 6375 1;
#X obj 1602 81 vsl 15 128 0 255 0 0 empty empty Volumen 0 -9 0 10 -4032
-1 -1 12700 1;
#X obj 1734 81 vsl 15 128 0 255 0 0 empty empty Pan 0 -9 0 10 -4032
-1 -1 6375 1;
#X obj 2056 83 vsl 15 128 0 255 0 0 empty empty empty 0 -9 0 10 -262144
-1 -1 0 1;
#X obj 2124 82 vsl 15 128 0 255 0 0 empty empty empty 0 -9 0 10 -262144
-1 -1 0 1;
#X obj 1400 224 int;
#X obj 1602 223 int;
#X obj 1460 224 int;
#X obj 1734 223 int;
#X obj 2118 225 int;
#X obj 2052 226 int;
#X obj 2206 81 vsl 15 128 0 255 0 0 empty empty empty 0 -9 0 10 -262144
-1 -1 0 1;
#X obj 2266 82 vsl 15 128 0 255 0 0 empty empty empty 0 -9 0 10 -262144
-1 -1 0 1;
#X obj 2332 83 vsl 15 128 0 255 0 0 empty empty empty 0 -9 0 10 -262144
-1 -1 0 1;
#X obj 2400 82 vsl 15 128 0 255 0 0 empty empty empty 0 -9 0 10 -262144
-1 -1 0 1;
#X obj 2468 85 vsl 15 128 0 255 0 0 empty empty empty 0 -9 0 10 -262144
-1 -1 0 1;
#X obj 2536 84 vsl 15 128 0 255 0 0 empty empty empty 0 -9 0 10 -262144
-1 -1 0 1;
#X obj 2206 226 int;
#X obj 2332 225 int;
#X obj 2266 226 int;
#X obj 2404 228 int;
#X obj 2530 227 int;
#X obj 2464 228 int;
#X obj 2608 77 vsl 15 128 0 255 0 0 empty empty empty 0 -9 0 10 -262144
-1 -1 0 1;
#X obj 2676 76 vsl 15 128 0 255 0 0 empty empty empty 0 -9 0 10 -262144
-1 -1 0 1;
#X obj 2670 219 int;
#X obj 2604 220 int;
#X obj 462 244 s c7;
#X obj 544 256 s c8;
#X obj 612 227 s c9;
#X obj 710 230 s c10;
#X obj 770 243 s c11;
#X obj 836 257 s c12;
#X obj 926 262 s c13;
#X obj 1004 258 s c14;
#X obj 1094 249 s c15;
#X obj 1162 251 s c16;
#X obj 1230 252 s c17;
#X obj 1328 258 s c18;
#X obj 1400 256 s c19;
#X obj 1460 256 s c20;
#X obj 1602 257 s c21;
#X obj 1730 256 s c22;
#X obj 2056 260 s c23;
#X obj 2124 262 s c24;
#X obj 2206 258 s c25;
#X obj 2266 258 s c26;
#X obj 2332 259 s c27;
#X obj 2400 261 s c28;
#X obj 2468 262 s c29;
#X obj 2536 264 s c30;
#X obj 2608 254 s c31;
#X obj 2676 256 s c32;
#X floatatom 382 279 5 0 0 0 - - -;
#X floatatom 468 278 5 0 0 0 - - -;
#X floatatom 552 204 5 0 0 0 - - -;
#X floatatom 696 262 5 0 0 0 - - -;
#X msg 1388 -8 128;
#X msg 720 -65 255;
#X msg 196 -44 128;
#X text 1344 56 Position;
#X floatatom 314 279 5 0 0 0 - - -;
#X msg 318 -52 40;
#X msg 576 -77 0;
#X floatatom -7 287 5 0 0 0 - - -;
#X obj 380 81 vradio 15 1 0 8 empty empty Folder 0 -8 0 10 -257985
-1 -1 0;
#X obj 460 -99 vradio 15 1 0 25 empty empty File 0 -8 0 10 -257985
-1 -1 0;
#X floatatom 1100 282 5 0 0 0 - - -;
#X floatatom 1206 284 5 0 0 0 - - -;
#X obj 546 69 vsl 15 128 0 127 0 0 empty empty Media 0 -9 0 10 -257985
-1 -1 0 1;
#X obj 459 -180 bng 50 250 50 0 empty empty Locate -50 30 0 14 -258113
-1 -258113;
#X msg 1172 8 32;
#X obj 420 60 vsl 15 128 0 127 0 0 empty empty empty 0 -9 0 10 -262144
-1 -1 0 1;
#X floatatom 1515 248 5 0 0 0 - - -;
#X obj 458 -200 loadbang;
#X connect 6 0 11 0;
#X connect 7 0 13 0;
#X connect 8 0 12 0;
#X connect 9 0 14 0;
#X connect 10 0 16 0;
#X connect 11 0 0 0;
#X connect 11 0 104 0;
#X connect 12 0 2 0;
#X connect 13 0 1 0;
#X connect 14 0 5 0;
#X connect 15 0 4 0;
#X connect 15 0 93 0;
#X connect 16 0 3 0;
#X connect 16 0 101 0;
#X connect 17 0 22 0;
#X connect 18 0 24 0;
#X connect 19 0 26 0;
#X connect 20 0 25 0;
#X connect 21 0 67 0;
#X connect 21 0 94 0;
#X connect 22 0 69 0;
#X connect 22 0 96 0;
#X connect 23 0 68 0;
#X connect 23 0 95 0;
#X connect 24 0 70 0;
#X connect 25 0 72 0;
#X connect 26 0 71 0;
#X connect 27 0 33 0;
#X connect 28 0 35 0;
#X connect 29 0 34 0;
#X connect 29 0 107 0;
#X connect 30 0 36 0;
#X connect 30 0 108 0;
#X connect 31 0 38 0;
#X connect 32 0 37 0;
#X connect 33 0 73 0;
#X connect 34 0 75 0;
#X connect 35 0 74 0;
#X connect 36 0 76 0;
#X connect 37 0 78 0;
#X connect 38 0 77 0;
#X connect 39 0 45 0;
#X connect 40 0 47 0;
#X connect 41 0 46 0;
#X connect 42 0 48 0;
#X connect 43 0 50 0;
#X connect 44 0 49 0;
#X connect 45 0 79 0;
#X connect 46 0 81 0;
#X connect 47 0 80 0;
#X connect 47 0 113 0;
#X connect 48 0 82 0;
#X connect 49 0 84 0;
#X connect 50 0 83 0;
#X connect 51 0 57 0;
#X connect 52 0 59 0;
#X connect 53 0 58 0;
#X connect 54 0 60 0;
#X connect 55 0 62 0;
#X connect 56 0 61 0;
#X connect 57 0 85 0;
#X connect 58 0 87 0;
#X connect 59 0 86 0;
#X connect 60 0 88 0;
#X connect 61 0 90 0;
#X connect 62 0 89 0;
#X connect 63 0 66 0;
#X connect 64 0 65 0;
#X connect 65 0 92 0;
#X connect 66 0 91 0;
#X connect 97 0 40 0;
#X connect 97 0 32 0;
#X connect 97 0 39 0;
#X connect 97 0 42 0;
#X connect 98 0 19 0;
#X connect 98 0 41 0;
#X connect 98 0 6 0;
#X connect 99 0 7 0;
#X connect 99 0 8 0;
#X connect 99 0 9 0;
#X connect 102 0 10 0;
#X connect 103 0 17 0;
#X connect 103 0 20 0;
#X connect 103 0 27 0;
#X connect 103 0 28 0;
#X connect 105 0 15 0;
#X connect 106 0 21 0;
#X connect 109 0 23 0;
#X connect 110 0 99 0;
#X connect 110 0 102 0;
#X connect 110 0 103 0;
#X connect 110 0 98 0;
#X connect 110 0 111 0;
#X connect 110 0 97 0;
#X connect 111 0 29 0;
#X connect 111 0 30 0;
#X connect 111 0 31 0;
#X connect 112 0 15 0;
#X connect 114 0 110 0;
#X restore 51 -84 pd manual;
#N canvas 0 0 450 300 midi 0;
#X obj 1426 -219 notein;
#X floatatom 1358 -219 5 0 0 0 - - -;
#X floatatom 1510 -219 5 0 0 0 - - -;
#X obj 136 318 s c1;
#X obj 136 287 int;
#X obj 220 287 int;
#X obj 220 319 s c2;
#X obj 314 288 int;
#X obj 398 288 int;
#X obj 314 319 s c3;
#X obj 398 320 s c4;
#X obj 480 288 int;
#X obj 564 288 int;
#X obj 658 289 int;
#X obj 742 289 int;
#X obj 480 319 s c5;
#X obj 388 110 select 0 1 2 3 4 5 6 7 8 9 10 11 12 13 14 15 16 17 18
19;
#X obj 820 292 int;
#X obj 904 292 int;
#X obj 998 293 int;
#X obj 1082 293 int;
#X obj 1164 293 int;
#X obj 1248 293 int;
#X obj 1342 294 int;
#X obj 1426 294 int;
#X obj 1512 294 int;
#X obj 1606 295 int;
#X obj 1690 295 int;
#X obj 564 322 s c6;
#X obj 662 322 s c7;
#X obj 742 322 s c8;
#X obj 820 323 s c9;
#X obj 904 325 s c10;
#X obj 998 324 s c11;
#X obj 1082 325 s c12;
#X obj 1164 324 s c13;
#X obj 1248 326 s c14;
#X obj 1342 326 s c15;
#X obj 1426 327 s c16;
#X obj 1512 327 s c17;
#X obj 1606 327 s c18;
#X obj 1690 328 s c19;
#X obj 1784 293 int;
#X obj 1784 326 s c20;
#X obj 2140 300 int;
#X obj 2224 300 int;
#X obj 2318 301 int;
#X obj 2402 301 int;
#X obj 2484 301 int;
#X obj 2568 301 int;
#X obj 2662 302 int;
#X obj 2746 302 int;
#X obj 2824 305 int;
#X obj 2908 305 int;
#X obj 3002 306 int;
#X obj 3086 306 int;
#X obj 3168 306 int;
#X obj 3252 306 int;
#X obj 3346 307 int;
#X obj 3430 307 int;
#X obj 3516 307 int;
#X obj 3610 308 int;
#X obj 3694 308 int;
#X obj 3788 306 int;
#X obj 154 661 int;
#X obj 238 661 int;
#X obj 332 662 int;
#X obj 416 662 int;
#X obj 498 662 int;
#X obj 582 662 int;
#X obj 676 663 int;
#X obj 760 663 int;
#X obj 838 666 int;
#X obj 922 666 int;
#X obj 1016 667 int;
#X obj 1100 667 int;
#X obj 1182 667 int;
#X obj 1266 667 int;
#X obj 1360 668 int;
#X obj 1444 668 int;
#X obj 1530 668 int;
#X obj 1628 668 int;
#X obj 1718 668 int;
#X obj 1812 666 int;
#X obj 2104 684 int;
#X obj 2188 684 int;
#X obj 2282 685 int;
#X obj 2366 685 int;
#X obj 2448 685 int;
#X obj 2532 685 int;
#X obj 2626 686 int;
#X obj 2710 686 int;
#X obj 2788 689 int;
#X obj 2872 689 int;
#X obj 2966 690 int;
#X obj 3050 690 int;
#X obj 3132 690 int;
#X obj 3216 690 int;
#X obj 3310 691 int;
#X obj 3394 691 int;
#X obj 3480 691 int;
#X obj 3574 692 int;
#X obj 3658 692 int;
#X obj 3752 690 int;
#X obj 3464 153 int;
#X obj 3428 537 int;
#X obj 1478 514 int;
#X obj 2138 331 s c33;
#X obj 2224 332 s c34;
#X obj 2318 332 s c35;
#X obj 2402 333 s c36;
#X obj 2484 334 s c37;
#X obj 2570 335 s c38;
#X obj 2666 335 s c39;
#X obj 2746 335 s c40;
#X obj 2824 336 s c41;
#X obj 2908 338 s c42;
#X obj 3002 338 s c43;
#X obj 3086 338 s c44;
#X obj 3168 337 s c45;
#X obj 3252 339 s c46;
#X obj 3346 339 s c47;
#X obj 3428 340 s c48;
#X obj 3516 340 s c49;
#X obj 3610 340 s c50;
#X obj 3694 341 s c51;
#X obj 3788 339 s c52;
#X obj 2402 76 select 32 34 35 36 37 38 39 40 41 42 43 44 45 46 47
48 49 50 51 52;
#X obj 406 484 select 64 65 66 67 68 69 70 71 72 73 74 75 76 77 78
79 80 81 82 83;
#X obj 2356 507 select 96 97 98 99 100 101 102 103 104 105 106 107
108 109 110 111 112 113 114 115;
#X obj 154 692 s c65;
#X obj 240 693 s c66;
#X obj 332 693 s c67;
#X obj 416 694 s c68;
#X obj 498 693 s c69;
#X obj 582 696 s c70;
#X obj 680 696 s c71;
#X obj 762 696 s c72;
#X obj 838 697 s c73;
#X obj 922 699 s c74;
#X obj 1018 698 s c75;
#X obj 1100 699 s c76;
#X obj 1182 698 s c77;
#X obj 1266 700 s c78;
#X obj 1360 700 s c79;
#X obj 1444 701 s c80;
#X obj 1530 701 s c81;
#X obj 1628 700 s c82;
#X obj 1718 701 s c83;
#X obj 1812 699 s c84;
#X obj 2104 716 s c97;
#X obj 2188 716 s c98;
#X obj 2284 716 s c99;
#X obj 2366 717 s c100;
#X obj 2448 716 s c101;
#X obj 2532 719 s c102;
#X obj 2630 719 s c103;
#X obj 2710 719 s c104;
#X obj 2788 720 s c105;
#X obj 2872 722 s c106;
#X obj 2966 721 s c107;
#X obj 3050 722 s c108;
#X obj 3132 721 s c109;
#X obj 3216 723 s c110;
#X obj 3310 723 s c111;
#X obj 3394 724 s c112;
#X obj 3480 724 s c113;
#X obj 3572 724 s c114;
#X obj 3658 725 s c115;
#X obj 3752 723 s c116;
#X floatatom 74 689 5 0 0 0 - - -;
#X floatatom 134 335 5 0 0 0 - - -;
#X floatatom 398 337 5 0 0 0 - - -;
#X floatatom 974 775 5 0 0 0 - - -;
#X floatatom 2108 757 5 0 0 0 - - -;
#X obj 1458 -2 spigot;
#X obj 1836 -49 != 0;
#X floatatom 1896 -49 5 0 0 0 - - -;
#X obj 1458 107 int;
#X obj 1458 54 + 1;
#X obj 1458 32 * 2;
#X msg 1836 -9 0;
#X obj 1804 -49 bng 15 250 50 0 empty empty empty 17 7 0 10 -262144
-1 -1;
#X floatatom 480 336 5 0 0 0 - - -;
#X floatatom 1362 71 5 0 0 0 - - -;
#X floatatom 660 340 5 0 0 0 - - -;
#X obj 1458 -70 spigot;
#X obj 1660 -210 r input_selector;
#X obj 1660 -159 select 1;
#X msg 1660 -107 1;
#X msg 1750 -107 0;
#X obj 1622 -106 bng 15 250 50 0 empty empty empty 17 7 0 10 -262144
-1 -1;
#X obj 1804 -103 bng 15 250 50 0 empty empty empty 17 7 0 10 -262144
-1 -1;
#X connect 0 0 1 0;
#X connect 0 0 16 0;
#X connect 0 0 128 0;
#X connect 0 0 127 0;
#X connect 0 0 129 0;
#X connect 0 1 2 0;
#X connect 0 1 176 0;
#X connect 0 1 186 0;
#X connect 4 0 3 0;
#X connect 4 0 171 0;
#X connect 5 0 6 0;
#X connect 7 0 9 0;
#X connect 8 0 10 0;
#X connect 8 0 172 0;
#X connect 11 0 15 0;
#X connect 11 0 183 0;
#X connect 12 0 28 0;
#X connect 13 0 29 0;
#X connect 13 0 185 0;
#X connect 14 0 30 0;
#X connect 16 0 4 0;
#X connect 16 1 5 0;
#X connect 16 2 7 0;
#X connect 16 3 8 0;
#X connect 16 4 11 0;
#X connect 16 5 12 0;
#X connect 16 6 13 0;
#X connect 16 7 14 0;
#X connect 16 8 17 0;
#X connect 16 9 18 0;
#X connect 16 10 19 0;
#X connect 16 11 20 0;
#X connect 16 12 21 0;
#X connect 16 13 22 0;
#X connect 16 14 23 0;
#X connect 16 15 24 0;
#X connect 16 16 25 0;
#X connect 16 17 26 0;
#X connect 16 18 27 0;
#X connect 16 19 42 0;
#X connect 17 0 31 0;
#X connect 18 0 32 0;
#X connect 19 0 33 0;
#X connect 20 0 34 0;
#X connect 21 0 35 0;
#X connect 22 0 36 0;
#X connect 23 0 37 0;
#X connect 24 0 38 0;
#X connect 25 0 39 0;
#X connect 26 0 40 0;
#X connect 27 0 41 0;
#X connect 42 0 43 0;
#X connect 44 0 107 0;
#X connect 45 0 108 0;
#X connect 46 0 109 0;
#X connect 47 0 110 0;
#X connect 48 0 111 0;
#X connect 49 0 112 0;
#X connect 50 0 113 0;
#X connect 51 0 114 0;
#X connect 52 0 115 0;
#X connect 53 0 116 0;
#X connect 54 0 117 0;
#X connect 55 0 118 0;
#X connect 56 0 119 0;
#X connect 57 0 120 0;
#X connect 58 0 121 0;
#X connect 59 0 122 0;
#X connect 60 0 123 0;
#X connect 61 0 124 0;
#X connect 62 0 125 0;
#X connect 63 0 126 0;
#X connect 64 0 130 0;
#X connect 64 0 170 0;
#X connect 65 0 131 0;
#X connect 66 0 132 0;
#X connect 67 0 133 0;
#X connect 68 0 134 0;
#X connect 69 0 135 0;
#X connect 70 0 136 0;
#X connect 71 0 137 0;
#X connect 72 0 138 0;
#X connect 73 0 139 0;
#X connect 74 0 140 0;
#X connect 74 0 173 0;
#X connect 75 0 141 0;
#X connect 76 0 142 0;
#X connect 77 0 143 0;
#X connect 78 0 144 0;
#X connect 79 0 145 0;
#X connect 80 0 146 0;
#X connect 81 0 147 0;
#X connect 82 0 148 0;
#X connect 83 0 149 0;
#X connect 84 0 150 0;
#X connect 84 0 174 0;
#X connect 85 0 151 0;
#X connect 86 0 152 0;
#X connect 87 0 153 0;
#X connect 88 0 154 0;
#X connect 89 0 155 0;
#X connect 90 0 156 0;
#X connect 91 0 157 0;
#X connect 92 0 158 0;
#X connect 93 0 159 0;
#X connect 94 0 160 0;
#X connect 95 0 161 0;
#X connect 96 0 162 0;
#X connect 97 0 163 0;
#X connect 98 0 164 0;
#X connect 99 0 165 0;
#X connect 100 0 166 0;
#X connect 101 0 167 0;
#X connect 102 0 168 0;
#X connect 103 0 169 0;
#X connect 104 0 44 1;
#X connect 104 0 45 1;
#X connect 104 0 46 1;
#X connect 104 0 47 1;
#X connect 104 0 48 1;
#X connect 104 0 49 1;
#X connect 104 0 50 1;
#X connect 104 0 51 1;
#X connect 104 0 52 1;
#X connect 104 0 53 1;
#X connect 104 0 54 1;
#X connect 104 0 55 1;
#X connect 104 0 56 1;
#X connect 104 0 57 1;
#X connect 104 0 58 1;
#X connect 104 0 59 1;
#X connect 104 0 60 1;
#X connect 104 0 61 1;
#X connect 104 0 62 1;
#X connect 104 0 63 1;
#X connect 105 0 84 1;
#X connect 105 0 85 1;
#X connect 105 0 86 1;
#X connect 105 0 87 1;
#X connect 105 0 88 1;
#X connect 105 0 89 1;
#X connect 105 0 90 1;
#X connect 105 0 91 1;
#X connect 105 0 92 1;
#X connect 105 0 93 1;
#X connect 105 0 94 1;
#X connect 105 0 95 1;
#X connect 105 0 96 1;
#X connect 105 0 97 1;
#X connect 105 0 98 1;
#X connect 105 0 99 1;
#X connect 105 0 100 1;
#X connect 105 0 101 1;
#X connect 105 0 102 1;
#X connect 105 0 103 1;
#X connect 106 0 64 1;
#X connect 106 0 65 1;
#X connect 106 0 66 1;
#X connect 106 0 67 1;
#X connect 106 0 68 1;
#X connect 106 0 69 1;
#X connect 106 0 70 1;
#X connect 106 0 71 1;
#X connect 106 0 72 1;
#X connect 106 0 73 1;
#X connect 106 0 74 1;
#X connect 106 0 75 1;
#X connect 106 0 76 1;
#X connect 106 0 77 1;
#X connect 106 0 78 1;
#X connect 106 0 79 1;
#X connect 106 0 80 1;
#X connect 106 0 81 1;
#X connect 106 0 82 1;
#X connect 106 0 83 1;
#X connect 127 0 44 0;
#X connect 127 1 45 0;
#X connect 127 2 46 0;
#X connect 127 3 47 0;
#X connect 127 4 48 0;
#X connect 127 5 49 0;
#X connect 127 6 50 0;
#X connect 127 7 51 0;
#X connect 127 8 52 0;
#X connect 127 9 53 0;
#X connect 127 10 54 0;
#X connect 127 11 55 0;
#X connect 127 12 56 0;
#X connect 127 13 57 0;
#X connect 127 14 58 0;
#X connect 127 15 59 0;
#X connect 127 16 60 0;
#X connect 127 17 61 0;
#X connect 127 18 62 0;
#X connect 127 19 63 0;
#X connect 128 0 64 0;
#X connect 128 1 65 0;
#X connect 128 2 66 0;
#X connect 128 3 67 0;
#X connect 128 4 68 0;
#X connect 128 5 69 0;
#X connect 128 6 70 0;
#X connect 128 7 71 0;
#X connect 128 8 72 0;
#X connect 128 9 73 0;
#X connect 128 10 74 0;
#X connect 128 11 75 0;
#X connect 128 12 76 0;
#X connect 128 13 77 0;
#X connect 128 14 78 0;
#X connect 128 15 79 0;
#X connect 128 16 80 0;
#X connect 128 17 81 0;
#X connect 128 18 82 0;
#X connect 128 19 83 0;
#X connect 129 0 84 0;
#X connect 129 1 85 0;
#X connect 129 2 86 0;
#X connect 129 3 87 0;
#X connect 129 4 88 0;
#X connect 129 5 89 0;
#X connect 129 6 90 0;
#X connect 129 7 91 0;
#X connect 129 8 92 0;
#X connect 129 9 93 0;
#X connect 129 10 94 0;
#X connect 129 11 95 0;
#X connect 129 12 96 0;
#X connect 129 13 97 0;
#X connect 129 14 98 0;
#X connect 129 15 99 0;
#X connect 129 16 100 0;
#X connect 129 17 101 0;
#X connect 129 18 102 0;
#X connect 129 19 103 0;
#X connect 175 0 180 0;
#X connect 176 0 175 1;
#X connect 176 0 177 0;
#X connect 176 0 181 0;
#X connect 176 0 182 0;
#X connect 178 0 4 1;
#X connect 178 0 5 1;
#X connect 178 0 7 1;
#X connect 178 0 8 1;
#X connect 178 0 11 1;
#X connect 178 0 12 1;
#X connect 178 0 13 1;
#X connect 178 0 14 1;
#X connect 178 0 17 1;
#X connect 178 0 18 1;
#X connect 178 0 19 1;
#X connect 178 0 20 1;
#X connect 178 0 21 1;
#X connect 178 0 22 1;
#X connect 178 0 23 1;
#X connect 178 0 24 1;
#X connect 178 0 25 1;
#X connect 178 0 26 1;
#X connect 178 0 27 1;
#X connect 178 0 42 1;
#X connect 178 0 104 0;
#X connect 178 0 105 0;
#X connect 178 0 106 0;
#X connect 179 0 178 0;
#X connect 179 0 184 0;
#X connect 180 0 179 0;
#X connect 181 0 178 0;
#X connect 186 0 175 0;
#X connect 187 0 188 0;
#X connect 188 0 189 0;
#X connect 188 1 190 0;
#X connect 189 0 186 1;
#X connect 189 0 191 0;
#X connect 190 0 186 1;
#X connect 190 0 192 0;
#X restore 51 -114 pd midi;
#N canvas 0 229 1118 537 capa1 0;
#X obj 174 35 r c6;
#X obj 262 35 r c7;
#X obj 344 35 r c8;
#X obj -153 35 r c5;
#X obj 12 35 r c11;
#X obj -77 35 r c10;
#X obj 106 35 r c9;
#X obj 766 35 r c12;
#X obj 862 35 r c13;
#X obj 948 35 r c14;
#X obj 1038 35 r c2;
#X obj 1120 35 r c3;
#X obj 1200 35 r c4;
#X obj 1280 35 r c1;
#X obj 1378 35 r c18;
#X obj 1482 35 r c19;
#X obj 1582 35 r c20;
#X obj 1684 35 r c15;
#X obj 1788 35 r c16;
#X obj 1894 35 r c17;
#X obj 348 330 r c21;
#X obj 435 330 r c22;
#X obj 642 330 video_render;
#X obj 1034 330 texto;
#X obj 512 265 imagen;
#X obj -117 265 audio_player;
#X obj 200 431 audio_mix;
#X obj 230 96 selector;
#X obj 312 257 video;
#X connect 0 0 23 2;
#X connect 0 0 27 0;
#X connect 1 0 27 1;
#X connect 2 0 27 2;
#X connect 3 0 28 2;
#X connect 4 0 28 4;
#X connect 5 0 28 3;
#X connect 6 0 25 2;
#X connect 6 0 28 5;
#X connect 7 0 22 2;
#X connect 7 0 23 3;
#X connect 8 0 22 3;
#X connect 8 0 23 4;
#X connect 9 0 22 4;
#X connect 9 0 23 5;
#X connect 10 0 22 5;
#X connect 10 0 23 6;
#X connect 11 0 22 6;
#X connect 11 0 23 7;
#X connect 12 0 22 7;
#X connect 12 0 23 8;
#X connect 13 0 22 8;
#X connect 13 0 23 9;
#X connect 14 0 22 9;
#X connect 14 0 23 10;
#X connect 15 0 22 10;
#X connect 15 0 23 11;
#X connect 16 0 22 11;
#X connect 16 0 23 12;
#X connect 17 0 22 12;
#X connect 17 0 23 13;
#X connect 18 0 22 13;
#X connect 19 0 22 14;
#X connect 20 0 26 5;
#X connect 21 0 26 6;
#X connect 24 0 22 1;
#X connect 25 0 26 2;
#X connect 25 1 26 3;
#X connect 27 0 23 0;
#X connect 27 0 24 0;
#X connect 27 0 25 0;
#X connect 27 0 28 0;
#X connect 27 1 23 1;
#X connect 27 1 24 1;
#X connect 27 1 25 1;
#X connect 27 1 26 4;
#X connect 27 1 28 1;
#X connect 28 0 22 1;
#X connect 28 1 26 0;
#X connect 28 2 26 1;
#X restore 240 -123 pd capa1;
#N canvas 517 257 450 401 capa2 0;
#X obj 652 340 video_render;
#X obj 1044 340 texto;
#X obj 522 275 imagen;
#X obj -107 275 audio_player;
#X obj 210 441 audio_mix;
#X obj 322 267 video;
#X obj -143 45 r c37;
#X obj -67 45 r c42;
#X obj 22 45 r c43;
#X obj 116 45 r c41;
#X obj 184 45 r c38;
#X obj 272 45 r c39;
#X obj 354 45 r c40;
#X obj 358 340 r c53;
#X obj 445 340 r c54;
#X obj 776 45 r c44;
#X obj 872 45 r c45;
#X obj 958 45 r c46;
#X obj 1048 45 r c34;
#X obj 1130 45 r c35;
#X obj 1210 45 r c36;
#X obj 1290 45 r c33;
#X obj 1388 45 r c50;
#X obj 1492 45 r c51;
#X obj 1592 45 r c52;
#X obj 1694 45 r c47;
#X obj 1798 45 r c48;
#X obj 1904 45 r c49;
#X obj 240 106 selector;
#X connect 2 0 0 1;
#X connect 3 0 4 2;
#X connect 3 1 4 3;
#X connect 5 0 0 1;
#X connect 5 1 4 0;
#X connect 5 2 4 1;
#X connect 6 0 5 2;
#X connect 7 0 5 3;
#X connect 8 0 5 4;
#X connect 9 0 3 2;
#X connect 9 0 5 5;
#X connect 10 0 1 2;
#X connect 10 0 28 0;
#X connect 11 0 28 1;
#X connect 12 0 28 2;
#X connect 13 0 4 5;
#X connect 14 0 4 6;
#X connect 15 0 0 2;
#X connect 15 0 1 3;
#X connect 16 0 0 3;
#X connect 16 0 1 4;
#X connect 17 0 0 4;
#X connect 17 0 1 5;
#X connect 18 0 0 5;
#X connect 18 0 1 6;
#X connect 19 0 0 6;
#X connect 19 0 1 7;
#X connect 20 0 0 7;
#X connect 20 0 1 8;
#X connect 21 0 0 8;
#X connect 21 0 1 9;
#X connect 22 0 0 9;
#X connect 22 0 1 10;
#X connect 23 0 0 10;
#X connect 23 0 1 11;
#X connect 24 0 0 11;
#X connect 24 0 1 12;
#X connect 25 0 0 12;
#X connect 25 0 1 13;
#X connect 26 0 0 13;
#X connect 27 0 0 14;
#X connect 28 0 1 0;
#X connect 28 0 2 0;
#X connect 28 0 3 0;
#X connect 28 0 5 0;
#X connect 28 1 1 1;
#X connect 28 1 2 1;
#X connect 28 1 3 1;
#X connect 28 1 4 4;
#X connect 28 1 5 1;
#X restore 240 -102 pd capa2;
#N canvas 1 87 450 300 capa3 0;
#X obj 662 350 video_render;
#X obj 1054 350 texto;
#X obj 532 285 imagen;
#X obj -97 285 audio_player;
#X obj 220 451 audio_mix;
#X obj 332 277 video;
#X obj -133 55 r c69;
#X obj -57 55 r c74;
#X obj 32 55 r c75;
#X obj 126 55 r c73;
#X obj 194 55 r c70;
#X obj 282 55 r c71;
#X obj 364 55 r c72;
#X obj 786 55 r c76;
#X obj 882 55 r c77;
#X obj 968 55 r c78;
#X obj 1058 55 r c66;
#X obj 1140 55 r c67;
#X obj 1220 55 r c68;
#X obj 1300 55 r c65;
#X obj 1398 55 r c82;
#X obj 1502 55 r c83;
#X obj 1602 55 r c84;
#X obj 1704 55 r c79;
#X obj 1808 55 r c80;
#X obj 1864 54 r c81;
#X obj 368 350 r c85;
#X obj 455 350 r c86;
#X obj 250 116 selector;
#X connect 2 0 0 1;
#X connect 3 0 4 2;
#X connect 3 1 4 3;
#X connect 5 0 0 1;
#X connect 5 1 4 0;
#X connect 5 2 4 1;
#X connect 6 0 5 2;
#X connect 7 0 5 3;
#X connect 8 0 5 4;
#X connect 9 0 3 2;
#X connect 9 0 5 5;
#X connect 10 0 1 2;
#X connect 10 0 28 0;
#X connect 11 0 28 1;
#X connect 12 0 28 2;
#X connect 13 0 0 2;
#X connect 13 0 1 3;
#X connect 14 0 0 3;
#X connect 14 0 1 4;
#X connect 15 0 0 4;
#X connect 15 0 1 5;
#X connect 16 0 0 5;
#X connect 16 0 1 6;
#X connect 17 0 0 6;
#X connect 17 0 1 7;
#X connect 18 0 0 7;
#X connect 18 0 1 8;
#X connect 19 0 0 8;
#X connect 19 0 1 9;
#X connect 20 0 0 9;
#X connect 20 0 1 10;
#X connect 21 0 0 10;
#X connect 21 0 1 11;
#X connect 22 0 0 11;
#X connect 22 0 1 12;
#X connect 23 0 0 12;
#X connect 23 0 1 13;
#X connect 24 0 0 13;
#X connect 25 0 0 14;
#X connect 26 0 4 5;
#X connect 27 0 4 6;
#X connect 28 0 1 0;
#X connect 28 0 2 0;
#X connect 28 0 3 0;
#X connect 28 0 5 0;
#X connect 28 1 1 1;
#X connect 28 1 2 1;
#X connect 28 1 3 1;
#X connect 28 1 4 4;
#X connect 28 1 5 1;
#X restore 240 -81 pd capa3;
#N canvas 1 87 450 300 capa4 0;
#X obj 1924 65 r c17;
#X obj 672 360 video_render;
#X obj 1064 360 texto;
#X obj 542 295 imagen;
#X obj -87 295 audio_player;
#X obj 230 461 audio_mix;
#X obj 342 287 video;
#X obj -123 65 r c101;
#X obj -47 65 r c106;
#X obj 42 65 r c107;
#X obj 136 65 r c105;
#X obj 204 65 r c102;
#X obj 292 65 r c103;
#X obj 374 65 r c104;
#X obj 796 65 r c88;
#X obj 892 65 r c109;
#X obj 978 65 r c110;
#X obj 1068 65 r c98;
#X obj 1150 65 r c99;
#X obj 1230 65 r c100;
#X obj 1310 65 r c97;
#X obj 1408 65 r c114;
#X obj 1512 65 r c115;
#X obj 1612 65 r c116;
#X obj 1714 65 r c111;
#X obj 1818 65 r c112;
#X obj 378 360 r c117;
#X obj 465 360 r c118;
#X obj 260 126 selector;
#X connect 0 0 1 14;
#X connect 3 0 1 1;
#X connect 4 0 5 2;
#X connect 4 1 5 3;
#X connect 6 0 1 1;
#X connect 6 1 5 0;
#X connect 6 2 5 1;
#X connect 7 0 6 2;
#X connect 8 0 6 3;
#X connect 9 0 6 4;
#X connect 10 0 4 2;
#X connect 10 0 6 5;
#X connect 11 0 2 2;
#X connect 11 0 28 0;
#X connect 12 0 28 1;
#X connect 13 0 28 2;
#X connect 14 0 1 2;
#X connect 14 0 2 3;
#X connect 15 0 1 3;
#X connect 15 0 2 4;
#X connect 16 0 1 4;
#X connect 16 0 2 5;
#X connect 17 0 1 5;
#X connect 17 0 2 6;
#X connect 18 0 1 6;
#X connect 18 0 2 7;
#X connect 19 0 1 7;
#X connect 19 0 2 8;
#X connect 20 0 1 8;
#X connect 20 0 2 9;
#X connect 21 0 1 9;
#X connect 21 0 2 10;
#X connect 22 0 1 10;
#X connect 22 0 2 11;
#X connect 23 0 1 11;
#X connect 23 0 2 12;
#X connect 24 0 1 12;
#X connect 24 0 2 13;
#X connect 25 0 1 13;
#X connect 26 0 5 5;
#X connect 27 0 5 6;
#X connect 28 0 2 0;
#X connect 28 0 3 0;
#X connect 28 0 4 0;
#X connect 28 0 6 0;
#X connect 28 1 2 1;
#X connect 28 1 3 1;
#X connect 28 1 4 1;
#X connect 28 1 5 4;
#X connect 28 1 6 1;
#X restore 240 -60 pd capa4;
#X obj 148 -280 import Gem pdp zexy gem2pdp;
#X coords 0 0 1 1 85 60 0;
