#N canvas 0 54 1399 940 10;
#X obj -14 235 s c1;
#X obj 27 234 s c2;
#X obj 66 235 s c3;
#X obj 149 237 s c5;
#X obj 180 235 s c6;
#X obj 115 236 s c4;
#X obj -27 52 vsl 15 128 0 255 0 0 empty empty Alpha 0 -9 0 10 -191407
-1 -1 0 1;
#X obj 27 52 vsl 15 128 0 255 0 0 empty empty Red 0 -9 0 10 -258113
-1 -258113 6375 1;
#X obj 66 55 vsl 15 128 0 255 0 1 empty empty Green 0 -9 0 10 -4034
-1 -1 6375 1;
#X obj 115 57 vsl 15 128 0 255 0 0 empty empty Blue 0 -9 0 10 -4160
-1 -1 6375 1;
#X obj 149 60 vsl 15 128 0 255 0 0 empty empty Speed 0 -9 0 10 -261234
-1 -1 1992 1;
#X obj -14 203 int;
#X obj 66 201 int;
#X obj 27 202 int;
#X obj 115 203 int;
#X obj 180 202 int;
#X obj 149 203 int;
#X obj 296 28 vsl 15 128 0 255 0 0 empty empty Reproduc 0 -9 0 10 -261234
-1 -1 0 1;
#X obj 345 38 vsl 15 128 0 255 0 0 empty empty inicio_loop 0 -9 0 10
-203904 -1 -1 0 1;
#X obj 375 51 vsl 15 128 0 255 0 0 empty empty Fin_loop 0 -9 0 10 -203904
-1 -1 12700 1;
#X obj 408 71 vsl 15 128 0 255 0 0 empty empty RotX 0 -9 0 10 -204786
-1 -1 0 1;
#X obj 221 202 int;
#X obj 296 183 int;
#X obj 262 214 int;
#X obj 345 187 int;
#X obj 408 213 int;
#X obj 375 199 int;
#X obj 453 74 vsl 15 128 0 255 0 0 empty empty RotY 0 -9 0 10 -204786
-1 -1 0 1;
#X obj 492 72 vsl 15 128 0 255 0 0 empty empty RotZ 0 -9 0 10 -204786
-1 -1 0 1;
#X obj 537 63 vsl 15 128 0 255 0 0 empty empty Size 0 -9 0 10 -260097
-1 -1 1096 1;
#X obj 571 62 vsl 15 128 0 255 0 0 empty empty empty 0 -9 0 10 -260097
-1 -1 1096 1;
#X obj 605 65 vsl 15 128 0 255 0 0 empty empty empty 0 -9 0 10 -260097
-1 -1 1096 1;
#X obj 654 70 vsl 15 128 0 255 0 0 empty empty empty 0 -9 0 10 -4034
-1 -1 6375 1;
#X obj 453 220 int;
#X obj 537 205 int;
#X obj 492 216 int;
#X obj 573 208 int;
#X obj 654 213 int;
#X obj 603 208 int;
#X obj 689 70 vsl 15 128 0 255 0 0 empty empty empty 0 -9 0 10 -4034
-1 -1 6375 1;
#X obj 720 70 vsl 15 128 0 255 0 0 empty empty empty 0 -9 0 10 -4034
-1 -1 6375 1;
#X obj 791 71 vsl 15 128 0 255 0 0 empty empty Volumen 0 -9 0 10 -4032
-1 -1 0 1;
#X obj 857 71 vsl 15 128 0 255 0 0 empty empty Pan 0 -9 0 10 -4032
-1 -1 0 1;
#X obj 1018 73 vsl 15 128 0 255 0 0 empty empty empty 0 -9 0 10 -262144
-1 -1 0 1;
#X obj 1052 72 vsl 15 128 0 255 0 0 empty empty empty 0 -9 0 10 -262144
-1 -1 0 1;
#X obj 690 214 int;
#X obj 791 213 int;
#X obj 720 214 int;
#X obj 857 213 int;
#X obj 1049 215 int;
#X obj 1016 216 int;
#X obj 1093 71 vsl 15 128 0 255 0 0 empty empty empty 0 -9 0 10 -262144
-1 -1 0 1;
#X obj 1123 72 vsl 15 128 0 255 0 0 empty empty empty 0 -9 0 10 -262144
-1 -1 0 1;
#X obj 1156 73 vsl 15 128 0 255 0 0 empty empty empty 0 -9 0 10 -262144
-1 -1 0 1;
#X obj 1190 72 vsl 15 128 0 255 0 0 empty empty empty 0 -9 0 10 -262144
-1 -1 0 1;
#X obj 1224 75 vsl 15 128 0 255 0 0 empty empty empty 0 -9 0 10 -262144
-1 -1 0 1;
#X obj 1258 74 vsl 15 128 0 255 0 0 empty empty empty 0 -9 0 10 -262144
-1 -1 0 1;
#X obj 1093 216 int;
#X obj 1156 215 int;
#X obj 1123 216 int;
#X obj 1192 218 int;
#X obj 1255 217 int;
#X obj 1222 218 int;
#X obj 1294 67 vsl 15 128 0 255 0 0 empty empty empty 0 -9 0 10 -262144
-1 -1 0 1;
#X obj 1328 66 vsl 15 128 0 255 0 0 empty empty empty 0 -9 0 10 -262144
-1 -1 0 1;
#X obj 1325 209 int;
#X obj 1292 210 int;
#X obj 221 234 s c7;
#X obj 262 246 s c8;
#X obj 296 217 s c9;
#X obj 345 220 s c10;
#X obj 375 233 s c11;
#X obj 408 247 s c12;
#X obj 453 252 s c13;
#X obj 492 248 s c14;
#X obj 537 239 s c15;
#X obj 571 241 s c16;
#X obj 605 242 s c17;
#X obj 654 248 s c18;
#X obj 690 246 s c19;
#X obj 720 246 s c20;
#X obj 791 247 s c21;
#X obj 855 246 s c22;
#X obj 1018 250 s c23;
#X obj 1052 252 s c24;
#X obj 1093 248 s c25;
#X obj 1123 248 s c26;
#X obj 1156 249 s c27;
#X obj 1190 251 s c28;
#X obj 1224 252 s c29;
#X obj 1258 254 s c30;
#X obj 1294 244 s c31;
#X obj 1328 246 s c32;
#X floatatom 181 269 5 0 0 0 - - -;
#X floatatom 224 268 5 0 0 0 - - -;
#X floatatom 278 283 5 0 0 0 - - -;
#X floatatom 338 252 5 0 0 0 - - -;
#X msg 684 -19 128;
#X msg 350 -76 255;
#X msg 88 -55 128;
#X text 662 46 Position;
#X floatatom 147 269 5 0 0 0 - - -;
#X msg 149 -63 40;
#X msg 278 -88 0;
#X floatatom -14 277 5 0 0 0 - - -;
#X obj 180 71 vradio 15 1 0 8 empty empty Folder 0 -8 0 10 -257985
-1 -1 1;
#X obj 221 95 vradio 15 1 0 5 empty empty File 0 -8 0 10 -257985 -1
-1 2;
#X floatatom 540 272 5 0 0 0 - - -;
#X floatatom 593 274 5 0 0 0 - - -;
#X msg 576 -2 22;
#X obj 263 59 vsl 15 128 0 127 0 0 empty empty Media 0 -9 0 10 -257985
-1 -1 0 1;
#X obj 214 -174 bng 15 250 50 0 empty empty Locate 17 7 0 10 -258113
-1 -1;
#X connect 6 0 11 0;
#X connect 7 0 13 0;
#X connect 8 0 12 0;
#X connect 9 0 14 0;
#X connect 10 0 16 0;
#X connect 11 0 0 0;
#X connect 11 0 104 0;
#X connect 12 0 2 0;
#X connect 13 0 1 0;
#X connect 14 0 5 0;
#X connect 15 0 4 0;
#X connect 15 0 93 0;
#X connect 16 0 3 0;
#X connect 16 0 101 0;
#X connect 17 0 22 0;
#X connect 18 0 24 0;
#X connect 19 0 26 0;
#X connect 20 0 25 0;
#X connect 21 0 67 0;
#X connect 21 0 94 0;
#X connect 22 0 69 0;
#X connect 22 0 96 0;
#X connect 23 0 68 0;
#X connect 23 0 95 0;
#X connect 24 0 70 0;
#X connect 25 0 72 0;
#X connect 26 0 71 0;
#X connect 27 0 33 0;
#X connect 28 0 35 0;
#X connect 29 0 34 0;
#X connect 29 0 107 0;
#X connect 30 0 36 0;
#X connect 30 0 108 0;
#X connect 31 0 38 0;
#X connect 32 0 37 0;
#X connect 33 0 73 0;
#X connect 34 0 75 0;
#X connect 35 0 74 0;
#X connect 36 0 76 0;
#X connect 37 0 78 0;
#X connect 38 0 77 0;
#X connect 39 0 45 0;
#X connect 40 0 47 0;
#X connect 41 0 46 0;
#X connect 42 0 48 0;
#X connect 43 0 50 0;
#X connect 44 0 49 0;
#X connect 45 0 79 0;
#X connect 46 0 81 0;
#X connect 47 0 80 0;
#X connect 48 0 82 0;
#X connect 49 0 84 0;
#X connect 50 0 83 0;
#X connect 51 0 57 0;
#X connect 52 0 59 0;
#X connect 53 0 58 0;
#X connect 54 0 60 0;
#X connect 55 0 62 0;
#X connect 56 0 61 0;
#X connect 57 0 85 0;
#X connect 58 0 87 0;
#X connect 59 0 86 0;
#X connect 60 0 88 0;
#X connect 61 0 90 0;
#X connect 62 0 89 0;
#X connect 63 0 66 0;
#X connect 64 0 65 0;
#X connect 65 0 92 0;
#X connect 66 0 91 0;
#X connect 97 0 40 0;
#X connect 97 0 32 0;
#X connect 97 0 39 0;
#X connect 98 0 19 0;
#X connect 99 0 7 0;
#X connect 99 0 8 0;
#X connect 99 0 9 0;
#X connect 102 0 10 0;
#X connect 103 0 6 0;
#X connect 103 0 17 0;
#X connect 103 0 20 0;
#X connect 103 0 27 0;
#X connect 103 0 28 0;
#X connect 105 0 15 0;
#X connect 106 0 21 0;
#X connect 109 0 29 0;
#X connect 109 0 30 0;
#X connect 109 0 31 0;
#X connect 110 0 23 0;
#X connect 111 0 99 0;
#X connect 111 0 102 0;
#X connect 111 0 103 0;
#X connect 111 0 98 0;
#X connect 111 0 109 0;
#X connect 111 0 97 0;
