#N canvas 805 552 611 261 10;
#N canvas 315 169 952 599 dmx 0;
#X obj -7 437 list split;
#X obj 99 444 list split;
#X obj 50 385 - 1;
#X obj 156 386 - 1;
#X msg 432 206 close;
#X obj 202 447 list split;
#X obj 259 390 - 1;
#X obj 308 446 list split;
#X obj 365 367 - 1;
#X msg 330 206 universe \$1;
#X msg 486 209 open;
#X obj 434 457 list split;
#X obj 491 378 - 1;
#X obj 558 448 list split;
#X obj 615 369 - 1;
#X obj 675 449 list split;
#X obj 732 370 - 1;
#X obj 800 445 list split;
#X obj 857 366 - 1;
#X obj -7 379 spigot;
#X obj 95 402 spigot;
#X obj 204 397 spigot;
#X obj 314 393 spigot;
#X obj 421 395 spigot;
#X obj 556 405 spigot;
#X obj 672 407 spigot;
#X obj 798 394 spigot;
#X obj 21 479 list split 49;
#X obj 127 482 list split 49;
#X obj 230 482 list split 49;
#X obj 336 483 list split 49;
#X obj 462 494 list split 49;
#X obj 586 485 list split 49;
#X obj 703 486 list split 49;
#X obj 828 482 list split 49;
#X obj 27 208 r layer1;
#X obj 100 204 r layer2;
#X obj 167 209 r layer3;
#X obj 233 202 r layer4;
#X obj 521 256 r layer5;
#X obj 606 281 r layer6;
#X obj 722 280 r layer7;
#X obj 858 278 r layer8;
#X obj 435 94 r ola;
#X obj 434 154 select 0;
#X obj 331 93 r universe;
#X obj 21 520 s dmx1;
#X obj 127 523 s dmx2;
#X obj 230 523 s dmx3;
#X obj 330 522 s dmx4;
#X obj 462 535 s dmx5;
#X obj 586 526 s dmx6;
#X obj 703 527 s dmx7;
#X obj 828 523 s dmx8;
#X obj 410 243 ola2pd;
#X connect 0 1 27 0;
#X connect 1 1 28 0;
#X connect 2 0 0 1;
#X connect 3 0 1 1;
#X connect 4 0 54 0;
#X connect 5 1 29 0;
#X connect 6 0 5 1;
#X connect 7 1 30 0;
#X connect 8 0 7 1;
#X connect 9 0 54 0;
#X connect 10 0 54 0;
#X connect 11 1 31 0;
#X connect 12 0 11 1;
#X connect 13 1 32 0;
#X connect 14 0 13 1;
#X connect 15 1 33 0;
#X connect 16 0 15 1;
#X connect 17 1 34 0;
#X connect 18 0 17 1;
#X connect 19 0 0 0;
#X connect 20 0 1 0;
#X connect 21 0 5 0;
#X connect 22 0 7 0;
#X connect 23 0 11 0;
#X connect 24 0 13 0;
#X connect 25 0 15 0;
#X connect 26 0 17 0;
#X connect 27 0 46 0;
#X connect 28 0 47 0;
#X connect 29 0 48 0;
#X connect 30 0 49 0;
#X connect 31 0 50 0;
#X connect 32 0 51 0;
#X connect 33 0 52 0;
#X connect 34 0 53 0;
#X connect 35 0 2 0;
#X connect 35 0 19 1;
#X connect 36 0 20 1;
#X connect 36 0 3 0;
#X connect 37 0 21 1;
#X connect 37 0 6 0;
#X connect 38 0 8 0;
#X connect 38 0 22 1;
#X connect 39 0 12 0;
#X connect 39 0 23 1;
#X connect 40 0 14 0;
#X connect 40 0 24 1;
#X connect 41 0 16 0;
#X connect 41 0 25 1;
#X connect 42 0 18 0;
#X connect 42 0 26 1;
#X connect 43 0 44 0;
#X connect 44 0 4 0;
#X connect 44 1 10 0;
#X connect 45 0 9 0;
#X connect 54 0 19 0;
#X connect 54 0 20 0;
#X connect 54 0 21 0;
#X connect 54 0 22 0;
#X connect 54 0 23 0;
#X connect 54 0 24 0;
#X connect 54 0 25 0;
#X connect 54 0 26 0;
#X coords 0 -1 1 1 10 10 1 10 10;
#X restore -346 -438 pd dmx;
#N canvas 67 201 240 272 fondo 0;
#X obj -452 -118 color 0 0 0;
#X obj -452 -150 alpha;
#X text -486 -209 Pantalla fondo Negra;
#X obj -452 -187 gemhead 5;
#X obj -451 -49 translateXYZ;
#X obj -352 -170 loadbang;
#X obj -451 3 rectangle 16 12;
#X msg -352 -110 -50;
#X connect 0 0 4 0;
#X connect 1 0 0 0;
#X connect 3 0 1 0;
#X connect 4 0 6 0;
#X connect 5 0 7 0;
#X connect 7 0 4 3;
#X restore -301 -438 pd fondo;
#X text -384 -470 (c) 2012 Santi Noreña puremediaserver@gmail.com
GPL License;
#N canvas 610 161 450 300 receive 0;
#X obj 71 -398 select 1;
#X obj 123 -358 select 2 3 4 5;
#X obj 22 -242 s winposx;
#X obj 101 -240 s winposy;
#X obj 170 -238 s winsizex;
#X obj 249 -238 s winsizey;
#X obj 22 -266 float;
#X obj 101 -268 float;
#X obj 170 -274 float;
#X obj 250 -270 float;
#X obj 342 -231 s layer1;
#X obj 677 -389 select 11 12 13 14 15 16 17 18;
#X obj 400 -228 s layer2;
#X obj 460 -226 s layer3;
#X obj 540 -223 s layer4;
#X obj 599 -223 s layer5;
#X obj 663 -221 s layer6;
#X obj 725 -224 s layer7;
#X obj 791 -226 s layer8;
#X obj 342 -266 float;
#X obj 396 -267 float;
#X obj 451 -266 float;
#X obj 540 -266 float;
#X obj 789 -263 float;
#X obj 592 -265 float;
#X obj 659 -269 float;
#X obj 721 -263 float;
#X obj 861 -252 float;
#X obj 861 -227 s ola;
#X obj 911 -252 float;
#X obj 911 -226 s universe;
#X obj 718 -415 s path;
#X obj -1 -351 float;
#X obj 452 -449 unpack f f s;
#X obj 452 -477 netreceive 9195;
#X obj 872 -324 select 20 21;
#X floatatom 604 -458 5 0 0 0 - - -;
#X obj 0 -316 s window;
#X connect 0 0 32 0;
#X connect 0 1 1 0;
#X connect 1 0 6 0;
#X connect 1 1 7 0;
#X connect 1 2 8 0;
#X connect 1 3 9 0;
#X connect 1 4 11 0;
#X connect 6 0 2 0;
#X connect 7 0 3 0;
#X connect 8 0 4 0;
#X connect 9 0 5 0;
#X connect 11 0 19 0;
#X connect 11 1 20 0;
#X connect 11 2 21 0;
#X connect 11 3 22 0;
#X connect 11 4 24 0;
#X connect 11 5 25 0;
#X connect 11 6 26 0;
#X connect 11 7 23 0;
#X connect 11 8 35 0;
#X connect 19 0 10 0;
#X connect 20 0 12 0;
#X connect 21 0 13 0;
#X connect 22 0 14 0;
#X connect 23 0 18 0;
#X connect 24 0 15 0;
#X connect 25 0 16 0;
#X connect 26 0 17 0;
#X connect 27 0 28 0;
#X connect 29 0 30 0;
#X connect 32 0 37 0;
#X connect 33 0 0 0;
#X connect 33 1 6 1;
#X connect 33 1 7 1;
#X connect 33 1 8 1;
#X connect 33 1 9 1;
#X connect 33 1 19 1;
#X connect 33 1 20 1;
#X connect 33 1 21 1;
#X connect 33 1 22 1;
#X connect 33 1 24 1;
#X connect 33 1 25 1;
#X connect 33 1 26 1;
#X connect 33 1 23 1;
#X connect 33 1 27 1;
#X connect 33 1 29 1;
#X connect 33 1 32 1;
#X connect 33 2 31 0;
#X connect 34 0 33 0;
#X connect 34 1 36 0;
#X connect 35 0 27 0;
#X connect 35 1 29 0;
#X restore -244 -438 pd receive;
#N canvas 1151 173 450 564 window 0;
#X msg 987 -347 color 0 0 0;
#X msg 117 -352 create;
#X msg 192 -352 destroy;
#X msg 721 -349 print;
#X msg 561 -352 border \$1;
#X msg 467 -352 fullscreen \$1;
#X msg 641 -350 topmost \$1;
#X msg 773 -349 cursor 0;
#X obj 698 -474 loadbang;
#X msg 918 -348 title PMS;
#X obj 368 -400 pack f f;
#X msg 368 -355 offset \$1 \$2;
#X obj 264 -401 pack f f;
#X msg 264 -354 dimen \$1 \$2;
#X obj 19 -349 s init;
#X msg 840 -348 profile 2;
#X obj 8 -425 select 1;
#X obj 76 -424 select 0;
#X obj 365 -473 r winposx;
#X obj 431 -472 r winposy;
#X obj 382 -434 t b;
#X obj 212 -474 r winsizex;
#X obj 288 -475 r winsizey;
#X obj 274 -433 t b;
#X msg 605 -427 0;
#X obj 122 -473 gemkeyboard;
#X obj 160 -425 select 9;
#X msg 117 -261 1;
#X obj 117 -293 delay 10;
#X obj 117 -323 t b;
#X obj 40 -467 r window;
#X floatatom 120 33 0 0 0 0 - - -;
#X obj 120 -55 cputime;
#X obj 120 -195 loadbang;
#X msg 120 -167 1;
#X floatatom 120 -139 0 0 0 0 - - -;
#X obj 120 -83 t b b;
#X obj 120 5 * 0.1;
#X obj 120 -26 int;
#X text 165 -139 <-- on/off;
#X obj 308 -220 gemwin 30;
#X obj 120 -111 metro 1000;
#X connect 0 0 40 0;
#X connect 1 0 29 0;
#X connect 1 0 40 0;
#X connect 2 0 40 0;
#X connect 3 0 40 0;
#X connect 4 0 40 0;
#X connect 5 0 40 0;
#X connect 6 0 40 0;
#X connect 7 0 40 0;
#X connect 8 0 0 0;
#X connect 8 0 9 0;
#X connect 8 0 24 0;
#X connect 8 0 7 0;
#X connect 8 0 15 0;
#X connect 9 0 40 0;
#X connect 10 0 11 0;
#X connect 11 0 40 0;
#X connect 12 0 13 0;
#X connect 13 0 40 0;
#X connect 15 0 40 0;
#X connect 16 0 1 0;
#X connect 16 0 14 0;
#X connect 17 0 2 0;
#X connect 18 0 10 0;
#X connect 19 0 10 1;
#X connect 19 0 20 0;
#X connect 20 0 10 0;
#X connect 21 0 12 0;
#X connect 22 0 12 1;
#X connect 22 0 23 0;
#X connect 23 0 12 0;
#X connect 24 0 6 0;
#X connect 24 0 4 0;
#X connect 25 0 26 0;
#X connect 26 0 2 0;
#X connect 27 0 40 0;
#X connect 28 0 27 0;
#X connect 29 0 28 0;
#X connect 30 0 16 0;
#X connect 30 0 17 0;
#X connect 32 0 38 0;
#X connect 33 0 34 0;
#X connect 34 0 35 0;
#X connect 35 0 41 0;
#X connect 36 0 32 0;
#X connect 36 1 32 1;
#X connect 37 0 31 0;
#X connect 38 0 37 0;
#X connect 41 0 36 0;
#X restore -175 -438 pd window;
#N canvas 623 151 450 300 layer_5 0;
#X obj -253 -28 layer;
#X msg -132 -32 1;
#X msg -177 -33 0;
#X obj -177 -55 select 0;
#X obj -177 -80 r layer5;
#X obj -253 -81 r dmx5;
#X msg -253 10 5 \$1;
#X obj -253 32 print togui;
#X obj -169 4 spigot;
#X obj -106 -124 r metro;
#X obj -169 34 spigot;
#X msg -111 34 0;
#X msg -107 3 1;
#X obj -169 56 t b;
#X obj -43 122 s togui;
#X msg -421 17 layerimage 15;
#X obj -50 -57 delay 400;
#X connect 0 0 6 0;
#X connect 0 1 8 0;
#X connect 1 0 8 1;
#X connect 2 0 8 1;
#X connect 3 0 2 0;
#X connect 3 1 1 0;
#X connect 4 0 3 0;
#X connect 4 0 0 1;
#X connect 5 0 0 0;
#X connect 6 0 7 0;
#X connect 8 0 10 0;
#X connect 9 0 16 0;
#X connect 10 0 13 0;
#X connect 10 0 14 0;
#X connect 11 0 10 1;
#X connect 12 0 10 1;
#X connect 13 0 11 0;
#X connect 15 0 14 0;
#X connect 16 0 14 0;
#X connect 16 0 12 0;
#X connect 16 0 15 0;
#X restore -166 -380 pd layer_5;
#X obj -476 -294 r togui;
#X obj -350 -338 loadbang;
#X msg -407 -294 0;
#X obj -407 -259 print togui;
#N canvas 1 93 450 300 layer_6 0;
#X obj -253 -28 layer;
#X msg -132 -32 1;
#X msg -177 -33 0;
#X obj -177 -55 select 0;
#X obj -253 32 print togui;
#X obj -169 4 spigot;
#X obj -106 -124 r metro;
#X obj -169 34 spigot;
#X msg -111 34 0;
#X msg -107 3 1;
#X obj -169 56 t b;
#X obj -44 132 s togui;
#X msg -421 17 layerimage 16;
#X obj -253 -81 r dmx6;
#X obj -177 -80 r layer6;
#X msg -253 10 6 \$1;
#X obj -48 -38 delay 500;
#X connect 0 0 15 0;
#X connect 0 1 5 0;
#X connect 1 0 5 1;
#X connect 2 0 5 1;
#X connect 3 0 2 0;
#X connect 3 1 1 0;
#X connect 5 0 7 0;
#X connect 6 0 16 0;
#X connect 7 0 10 0;
#X connect 7 0 11 0;
#X connect 8 0 7 1;
#X connect 9 0 7 1;
#X connect 10 0 8 0;
#X connect 12 0 11 0;
#X connect 13 0 0 0;
#X connect 14 0 3 0;
#X connect 14 0 0 1;
#X connect 15 0 4 0;
#X connect 16 0 11 0;
#X connect 16 0 9 0;
#X connect 16 0 12 0;
#X restore -95 -380 pd layer_6;
#N canvas 1 93 450 300 layer_7 0;
#X obj -253 -28 layer;
#X msg -132 -32 1;
#X msg -177 -33 0;
#X obj -177 -55 select 0;
#X obj -253 32 print togui;
#X obj -169 4 spigot;
#X obj -106 -124 r metro;
#X obj -169 34 spigot;
#X msg -111 34 0;
#X msg -107 3 1;
#X obj -169 56 t b;
#X obj -46 119 s togui;
#X msg -421 17 layerimage 17;
#X msg -253 10 7 \$1;
#X obj -253 -81 r dmx7;
#X obj -177 -80 r layer7;
#X obj -54 -37 delay 600;
#X connect 0 0 13 0;
#X connect 0 1 5 0;
#X connect 1 0 5 1;
#X connect 2 0 5 1;
#X connect 3 0 2 0;
#X connect 3 1 1 0;
#X connect 5 0 7 0;
#X connect 6 0 16 0;
#X connect 7 0 10 0;
#X connect 7 0 11 0;
#X connect 8 0 7 1;
#X connect 9 0 7 1;
#X connect 10 0 8 0;
#X connect 12 0 11 0;
#X connect 13 0 4 0;
#X connect 14 0 0 0;
#X connect 15 0 3 0;
#X connect 15 0 0 1;
#X connect 16 0 11 0;
#X connect 16 0 9 0;
#X connect 16 0 12 0;
#X restore -25 -379 pd layer_7;
#N canvas 1 109 450 300 layer_8 0;
#X obj -253 -28 layer;
#X msg -132 -32 1;
#X msg -177 -33 0;
#X obj -177 -55 select 0;
#X obj -253 32 print togui;
#X obj -169 4 spigot;
#X obj -106 -124 r metro;
#X obj -169 34 spigot;
#X msg -111 34 0;
#X msg -107 3 1;
#X obj -169 56 t b;
#X obj -78 108 s togui;
#X obj -253 -81 r dmx8;
#X obj -177 -80 r layer8;
#X msg -253 10 8 \$1;
#X msg -421 17 layerimage 18;
#X obj -57 -58 delay 700;
#X connect 0 0 14 0;
#X connect 0 1 5 0;
#X connect 1 0 5 1;
#X connect 2 0 5 1;
#X connect 3 0 2 0;
#X connect 3 1 1 0;
#X connect 5 0 7 0;
#X connect 6 0 16 0;
#X connect 7 0 10 0;
#X connect 7 0 11 0;
#X connect 8 0 7 1;
#X connect 9 0 7 1;
#X connect 10 0 8 0;
#X connect 12 0 0 0;
#X connect 13 0 3 0;
#X connect 13 0 0 1;
#X connect 14 0 4 0;
#X connect 15 0 11 0;
#X connect 16 0 11 0;
#X connect 16 0 9 0;
#X connect 16 0 15 0;
#X restore 46 -379 pd layer_8;
#N canvas 1 117 450 300 layer_4 0;
#X obj -253 -28 layer;
#X msg -132 -32 1;
#X msg -177 -33 0;
#X obj -177 -55 select 0;
#X obj -169 4 spigot;
#X obj -106 -124 r metro;
#X obj -169 34 spigot;
#X msg -111 34 0;
#X msg -107 3 1;
#X obj -169 56 t b;
#X obj -39 147 s togui;
#X obj -253 -81 r dmx4;
#X obj -253 32 print togui;
#X msg -253 10 4 \$1;
#X msg -421 17 layerimage 14;
#X obj -53 -70 delay 300;
#X obj -177 -80 r layer4;
#X connect 0 0 13 0;
#X connect 0 1 4 0;
#X connect 1 0 4 1;
#X connect 2 0 4 1;
#X connect 3 0 2 0;
#X connect 3 1 1 0;
#X connect 4 0 6 0;
#X connect 5 0 15 0;
#X connect 6 0 9 0;
#X connect 6 0 10 0;
#X connect 7 0 6 1;
#X connect 8 0 6 1;
#X connect 9 0 7 0;
#X connect 11 0 0 0;
#X connect 13 0 12 0;
#X connect 14 0 10 0;
#X connect 15 0 10 0;
#X connect 15 0 8 0;
#X connect 15 0 14 0;
#X connect 16 0 3 0;
#X connect 16 0 0 1;
#X restore -237 -380 pd layer_4;
#N canvas 1 93 450 300 layer_3 0;
#X obj -253 -28 layer;
#X msg -132 -32 1;
#X msg -177 -33 0;
#X obj -177 -55 select 0;
#X obj -253 32 print togui;
#X obj -169 4 spigot;
#X obj -106 -124 r metro;
#X obj -169 34 spigot;
#X msg -111 34 0;
#X msg -107 3 1;
#X obj -169 56 t b;
#X obj -82 141 s togui;
#X msg -295 86 layerimage 13;
#X obj -253 -81 r dmx3;
#X obj -177 -80 r layer3;
#X msg -253 10 3 \$1;
#X obj -51 -30 delay 200;
#X connect 0 0 15 0;
#X connect 0 1 5 0;
#X connect 1 0 5 1;
#X connect 2 0 5 1;
#X connect 3 0 2 0;
#X connect 3 1 1 0;
#X connect 5 0 7 0;
#X connect 6 0 16 0;
#X connect 7 0 10 0;
#X connect 7 0 11 0;
#X connect 8 0 7 1;
#X connect 9 0 7 1;
#X connect 10 0 8 0;
#X connect 12 0 11 0;
#X connect 13 0 0 0;
#X connect 14 0 3 0;
#X connect 14 0 0 1;
#X connect 15 0 4 0;
#X connect 16 0 9 0;
#X connect 16 0 11 0;
#X connect 16 0 12 0;
#X restore -306 -380 pd layer_3;
#N canvas 1 93 450 300 layer_2 0;
#X obj -253 -28 layer;
#X msg -132 -32 1;
#X msg -177 -33 0;
#X obj -177 -55 select 0;
#X obj -253 32 print togui;
#X obj -169 4 spigot;
#X obj -106 -124 r metro;
#X obj -169 34 spigot;
#X msg -111 34 0;
#X msg -107 3 1;
#X obj -169 56 t b;
#X obj -351 129 s togui;
#X msg -421 17 layerimage 12;
#X msg -253 10 2 \$1;
#X obj -253 -81 r dmx2;
#X obj -177 -80 r layer2;
#X obj -106 -96 delay 100;
#X obj -46 83 t b;
#X connect 0 0 13 0;
#X connect 0 1 5 0;
#X connect 1 0 5 1;
#X connect 2 0 5 1;
#X connect 3 0 2 0;
#X connect 3 1 1 0;
#X connect 5 0 7 0;
#X connect 6 0 16 0;
#X connect 7 0 10 0;
#X connect 7 0 11 0;
#X connect 8 0 7 1;
#X connect 9 0 7 1;
#X connect 10 0 8 0;
#X connect 12 0 11 0;
#X connect 12 0 17 0;
#X connect 13 0 4 0;
#X connect 14 0 0 0;
#X connect 15 0 3 0;
#X connect 15 0 0 1;
#X connect 16 0 9 0;
#X connect 16 0 12 0;
#X connect 17 0 11 0;
#X restore -374 -380 pd layer_2;
#N canvas 1 117 450 300 layer_1 0;
#X obj -253 -28 layer;
#X msg -132 -32 1;
#X msg -177 -33 0;
#X obj -177 -55 select 0;
#X obj -169 4 spigot;
#X obj -106 -124 r metro;
#X obj -169 34 spigot;
#X msg -111 34 0;
#X msg -107 3 1;
#X obj -169 56 t b;
#X obj -29 148 s togui;
#X obj -253 -81 r dmx1;
#X obj -177 -80 r layer1;
#X msg -253 10 1 \$1;
#X msg -258 69 layerimage 11;
#X obj -253 32 s textgui;
#X connect 0 0 13 0;
#X connect 0 1 4 0;
#X connect 1 0 4 1;
#X connect 2 0 4 1;
#X connect 3 0 2 0;
#X connect 3 1 1 0;
#X connect 4 0 6 0;
#X connect 5 0 8 0;
#X connect 5 0 14 0;
#X connect 5 0 10 0;
#X connect 6 0 9 0;
#X connect 6 0 10 0;
#X connect 7 0 6 1;
#X connect 8 0 6 1;
#X connect 9 0 7 0;
#X connect 11 0 0 0;
#X connect 12 0 3 0;
#X connect 12 0 0 1;
#X connect 13 0 15 0;
#X connect 14 0 10 0;
#X restore -442 -380 pd layer_1;
#X obj -476 -259 pix2jpg;
#X obj -298 -271 metro 1000;
#X obj -298 -237 s metro;
#X msg -298 -299 1;
#X obj -364 -297 r textgui;
#X connect 6 0 17 0;
#X connect 7 0 8 0;
#X connect 7 0 20 0;
#X connect 8 0 9 0;
#X connect 18 0 19 0;
#X connect 20 0 18 0;
#X connect 21 0 9 0;
#X coords 0 0 1 1 85 60 0;
