#N canvas 185 90 838 622 10;
#N canvas 4 75 1016 665 dmx 0;
#X obj 310 -54 loadbang;
#X obj -7 437 list split;
#X obj 99 444 list split;
#X obj 50 385 - 1;
#X obj 156 386 - 1;
#X msg 213 11 1;
#X floatatom 207 144 5 0 0 0 - - -;
#X floatatom 258 144 5 0 0 0 - - -;
#X text 201 119 Layer 1;
#X text 250 120 Layer 2;
#X text 269 100 DMX Address;
#X obj 564 160 bng 30 250 50 0 empty empty Close 0 -7 0 10 -258113
-258113 -258113;
#X floatatom 475 171 5 0 0 0 - - -;
#X obj 527 161 bng 30 250 50 0 empty empty Open 0 -7 0 10 -4034 -4034
-4034;
#X text 300 119 Layer 3;
#X text 353 119 Layer 4;
#X floatatom 309 144 5 0 0 0 - - -;
#X floatatom 361 144 5 0 0 0 - - -;
#X msg 563 309 close;
#X obj 202 447 list split;
#X obj 259 390 - 1;
#X obj 308 446 list split;
#X obj 365 367 - 1;
#X obj 489 347 ola2pd;
#X msg 438 307 universe \$1;
#X msg 523 306 open;
#X text 461 149 Universo;
#X text 495 117 OLA Control;
#X obj 433 122 bng 20 200 200 0 empty empty DMX 0 -7 0 10 -262144 -1
-1;
#X obj 21 520 outlet;
#X obj 127 523 outlet;
#X obj 230 523 outlet;
#X obj 336 524 outlet;
#X floatatom 207 184 5 0 0 0 - - -;
#X floatatom 258 184 5 0 0 0 - - -;
#X floatatom 309 184 5 0 0 0 - - -;
#X floatatom 361 184 5 0 0 0 - - -;
#X text 199 163 Layer 5;
#X text 250 162 Layer 6;
#X text 300 163 Layer 7;
#X text 354 162 Layer 8;
#X obj 434 457 list split;
#X obj 491 378 - 1;
#X obj 462 535 outlet;
#X obj 558 448 list split;
#X obj 615 369 - 1;
#X obj 586 526 outlet;
#X obj 675 449 list split;
#X obj 732 370 - 1;
#X obj 703 527 outlet;
#X obj 800 445 list split;
#X obj 857 366 - 1;
#X obj 828 523 outlet;
#X obj 212 248 tgl 15 0 empty empty empty 17 7 0 10 -262144 -1 -1 0
1;
#X obj 232 248 tgl 15 0 empty empty empty 17 7 0 10 -262144 -1 -1 0
1;
#X obj 252 248 tgl 15 0 empty empty empty 17 7 0 10 -262144 -1 -1 0
1;
#X obj 271 248 tgl 15 0 empty empty empty 17 7 0 10 -262144 -1 -1 0
1;
#X obj 290 248 tgl 15 0 empty empty empty 17 7 0 10 -262144 -1 -1 0
1;
#X obj 313 248 tgl 15 0 empty empty empty 17 7 0 10 -262144 -1 -1 0
1;
#X obj 334 248 tgl 15 0 empty empty empty 17 7 0 10 -262144 -1 -1 0
1;
#X obj 355 248 tgl 15 0 empty empty empty 17 7 0 10 -262144 -1 -1 0
1;
#X obj -7 379 spigot;
#X obj 95 402 spigot;
#X obj 204 397 spigot;
#X obj 314 393 spigot;
#X obj 421 395 spigot;
#X obj 556 405 spigot;
#X obj 672 407 spigot;
#X obj 798 394 spigot;
#X obj 21 479 list split 49;
#X obj 127 482 list split 49;
#X obj 230 482 list split 49;
#X obj 336 483 list split 49;
#X obj 462 494 list split 49;
#X obj 586 485 list split 49;
#X obj 703 486 list split 49;
#X obj 828 482 list split 49;
#X msg 668 50 1;
#X msg 260 14 17;
#X msg 314 15 33;
#X msg 367 16 49;
#X msg 219 58 65;
#X msg 268 56 81;
#X msg 331 57 97;
#X msg 388 62 113;
#X connect 0 0 78 0;
#X connect 0 0 5 0;
#X connect 0 0 79 0;
#X connect 0 0 80 0;
#X connect 0 0 84 0;
#X connect 0 0 83 0;
#X connect 0 0 82 0;
#X connect 0 0 81 0;
#X connect 0 0 77 0;
#X connect 1 1 69 0;
#X connect 2 1 70 0;
#X connect 3 0 1 1;
#X connect 4 0 2 1;
#X connect 5 0 6 0;
#X connect 6 0 3 0;
#X connect 7 0 4 0;
#X connect 11 0 18 0;
#X connect 12 0 24 0;
#X connect 13 0 25 0;
#X connect 16 0 20 0;
#X connect 17 0 22 0;
#X connect 18 0 23 0;
#X connect 19 1 71 0;
#X connect 20 0 19 1;
#X connect 21 1 72 0;
#X connect 22 0 21 1;
#X connect 23 0 28 0;
#X connect 23 0 61 0;
#X connect 23 0 62 0;
#X connect 23 0 63 0;
#X connect 23 0 64 0;
#X connect 23 0 65 0;
#X connect 23 0 66 0;
#X connect 23 0 67 0;
#X connect 23 0 68 0;
#X connect 24 0 23 0;
#X connect 25 0 23 0;
#X connect 33 0 42 0;
#X connect 34 0 45 0;
#X connect 35 0 48 0;
#X connect 36 0 51 0;
#X connect 41 1 73 0;
#X connect 42 0 41 1;
#X connect 44 1 74 0;
#X connect 45 0 44 1;
#X connect 47 1 75 0;
#X connect 48 0 47 1;
#X connect 50 1 76 0;
#X connect 51 0 50 1;
#X connect 53 0 61 1;
#X connect 54 0 62 1;
#X connect 55 0 63 1;
#X connect 56 0 64 1;
#X connect 57 0 65 1;
#X connect 58 0 66 1;
#X connect 59 0 67 1;
#X connect 60 0 68 1;
#X connect 61 0 1 0;
#X connect 62 0 2 0;
#X connect 63 0 19 0;
#X connect 64 0 21 0;
#X connect 65 0 41 0;
#X connect 66 0 44 0;
#X connect 67 0 47 0;
#X connect 68 0 50 0;
#X connect 69 0 29 0;
#X connect 70 0 30 0;
#X connect 71 0 31 0;
#X connect 72 0 32 0;
#X connect 73 0 43 0;
#X connect 74 0 46 0;
#X connect 75 0 49 0;
#X connect 76 0 52 0;
#X connect 77 0 12 0;
#X connect 78 0 7 0;
#X connect 79 0 16 0;
#X connect 80 0 17 0;
#X connect 81 0 33 0;
#X connect 82 0 34 0;
#X connect 83 0 35 0;
#X connect 84 0 36 0;
#X coords 0 -1 1 1 400 200 2 200 100;
#X restore 255 48 pd dmx;
#X obj 249 250 layer_audio;
#X obj 249 371 layer_audio;
#X obj 248 431 layer_audio;
#X obj 248 489 layer_audio;
#X obj 248 313 layer_audio;
#X obj 248 556 layer_audio;
#X obj 249 630 layer_audio;
#X obj 252 675 layer_audio;
#X msg 502 190 \; pd dsp 1;
#X msg 578 190 \; pd dsp 0;
#X obj 502 164 loadbang;
#X connect 0 0 1 0;
#X connect 0 1 5 0;
#X connect 0 2 2 0;
#X connect 0 3 3 0;
#X connect 0 4 4 0;
#X connect 0 5 6 0;
#X connect 0 6 7 0;
#X connect 0 7 8 0;
#X connect 11 0 9 0;
