#N canvas 355 157 798 537 10;
#N canvas 315 169 952 599 dmx 0;
#X obj -7 437 list split;
#X obj 99 444 list split;
#X obj 50 385 - 1;
#X obj 156 386 - 1;
#X msg 432 206 close;
#X obj 202 447 list split;
#X obj 259 390 - 1;
#X obj 308 446 list split;
#X obj 365 367 - 1;
#X msg 330 206 universe \$1;
#X msg 486 209 open;
#X obj 434 457 list split;
#X obj 491 378 - 1;
#X obj 558 448 list split;
#X obj 615 369 - 1;
#X obj 675 449 list split;
#X obj 732 370 - 1;
#X obj 800 445 list split;
#X obj 857 366 - 1;
#X obj -7 379 spigot;
#X obj 95 402 spigot;
#X obj 204 397 spigot;
#X obj 314 393 spigot;
#X obj 421 395 spigot;
#X obj 556 405 spigot;
#X obj 672 407 spigot;
#X obj 798 394 spigot;
#X obj 21 479 list split 49;
#X obj 127 482 list split 49;
#X obj 230 482 list split 49;
#X obj 336 483 list split 49;
#X obj 462 494 list split 49;
#X obj 586 485 list split 49;
#X obj 703 486 list split 49;
#X obj 828 482 list split 49;
#X obj 27 208 r layer1;
#X obj 100 204 r layer2;
#X obj 167 209 r layer3;
#X obj 233 202 r layer4;
#X obj 521 256 r layer5;
#X obj 606 281 r layer6;
#X obj 722 280 r layer7;
#X obj 858 278 r layer8;
#X obj 435 94 r ola;
#X obj 434 154 select 0;
#X obj 331 93 r universe;
#X obj 21 520 s dmx1;
#X obj 127 523 s dmx2;
#X obj 230 523 s dmx3;
#X obj 330 522 s dmx4;
#X obj 462 535 s dmx5;
#X obj 586 526 s dmx6;
#X obj 703 527 s dmx7;
#X obj 828 523 s dmx8;
#X obj 410 243 ola2pd;
#X connect 0 1 27 0;
#X connect 1 1 28 0;
#X connect 2 0 0 1;
#X connect 3 0 1 1;
#X connect 4 0 54 0;
#X connect 5 1 29 0;
#X connect 6 0 5 1;
#X connect 7 1 30 0;
#X connect 8 0 7 1;
#X connect 9 0 54 0;
#X connect 10 0 54 0;
#X connect 11 1 31 0;
#X connect 12 0 11 1;
#X connect 13 1 32 0;
#X connect 14 0 13 1;
#X connect 15 1 33 0;
#X connect 16 0 15 1;
#X connect 17 1 34 0;
#X connect 18 0 17 1;
#X connect 19 0 0 0;
#X connect 20 0 1 0;
#X connect 21 0 5 0;
#X connect 22 0 7 0;
#X connect 23 0 11 0;
#X connect 24 0 13 0;
#X connect 25 0 15 0;
#X connect 26 0 17 0;
#X connect 27 0 46 0;
#X connect 28 0 47 0;
#X connect 29 0 48 0;
#X connect 30 0 49 0;
#X connect 31 0 50 0;
#X connect 32 0 51 0;
#X connect 33 0 52 0;
#X connect 34 0 53 0;
#X connect 35 0 2 0;
#X connect 35 0 19 1;
#X connect 36 0 20 1;
#X connect 36 0 3 0;
#X connect 37 0 21 1;
#X connect 37 0 6 0;
#X connect 38 0 8 0;
#X connect 38 0 22 1;
#X connect 39 0 12 0;
#X connect 39 0 23 1;
#X connect 40 0 14 0;
#X connect 40 0 24 1;
#X connect 41 0 16 0;
#X connect 41 0 25 1;
#X connect 42 0 18 0;
#X connect 42 0 26 1;
#X connect 43 0 44 0;
#X connect 44 0 4 0;
#X connect 44 1 10 0;
#X connect 45 0 9 0;
#X connect 54 0 19 0;
#X connect 54 0 20 0;
#X connect 54 0 21 0;
#X connect 54 0 22 0;
#X connect 54 0 23 0;
#X connect 54 0 24 0;
#X connect 54 0 25 0;
#X connect 54 0 26 0;
#X coords 0 -1 1 1 10 10 1 10 10;
#X restore -353 -434 pd dmx;
#N canvas 67 201 240 272 fondo 0;
#X obj -452 -118 color 0 0 0;
#X obj -452 -150 alpha;
#X text -486 -209 Pantalla fondo Negra;
#X obj -452 -187 gemhead 5;
#X obj -451 -49 translateXYZ;
#X obj -352 -170 loadbang;
#X obj -451 3 rectangle 16 12;
#X msg -352 -110 -50;
#X connect 0 0 4 0;
#X connect 1 0 0 0;
#X connect 3 0 1 0;
#X connect 4 0 6 0;
#X connect 5 0 7 0;
#X connect 7 0 4 3;
#X restore -301 -434 pd fondo;
#X msg 431 -355 send 4 \$1;
#X obj -488 -315 layer;
#X obj -91 -366 layer;
#X obj 430 -125 layer;
#X obj 130 -87 layer;
#X obj 431 -385 layer;
#X obj 142 -364 layer;
#X obj -203 -40 layer;
#X obj 334 -130 layer;
#X msg -343 -329 1;
#X msg -388 -331 0;
#X obj -388 -396 r layer1;
#X obj -388 -365 select 0;
#X obj -43 -397 r layer2;
#X msg 261 -310 1;
#X msg 208 -311 0;
#X obj 208 -371 select 0;
#X obj 208 -402 r layer3;
#X msg 539 -382 1;
#X msg 494 -384 0;
#X obj 494 -409 select 0;
#X obj 494 -436 r layer4;
#X msg -239 -29 1;
#X msg -292 -30 0;
#X obj -292 -52 select 0;
#X obj -292 -77 r layer5;
#X msg 91 -89 1;
#X msg 38 -90 0;
#X obj 38 -115 select 0;
#X obj 38 -142 r layer6;
#X msg 297 -112 1;
#X msg 244 -113 0;
#X obj 244 -138 select 0;
#X obj 244 -165 r layer7;
#X msg 571 -129 1;
#X msg 518 -130 0;
#X obj 518 -155 select 0;
#X obj 518 -182 r layer8;
#X text -369 -471 (c) 2012 Santi Noreña puremediaserver@gmail.com
GPL License;
#X obj -488 -341 r dmx1;
#X obj -91 -397 r dmx2;
#X obj 142 -397 r dmx3;
#X obj 431 -427 r dmx4;
#X obj -203 -70 r dmx5;
#X obj 130 -141 r dmx6;
#X obj 335 -165 r dmx7;
#X obj 430 -184 r dmx8;
#N canvas 610 161 450 300 receive 0;
#X obj 71 -398 select 1;
#X obj 123 -358 select 2 3 4 5;
#X obj 22 -242 s winposx;
#X obj 101 -240 s winposy;
#X obj 170 -238 s winsizex;
#X obj 249 -238 s winsizey;
#X obj 22 -266 float;
#X obj 101 -268 float;
#X obj 170 -274 float;
#X obj 250 -270 float;
#X obj 342 -231 s layer1;
#X obj 677 -389 select 11 12 13 14 15 16 17 18;
#X obj 400 -228 s layer2;
#X obj 460 -226 s layer3;
#X obj 540 -223 s layer4;
#X obj 599 -223 s layer5;
#X obj 663 -221 s layer6;
#X obj 725 -224 s layer7;
#X obj 791 -226 s layer8;
#X obj 342 -266 float;
#X obj 396 -267 float;
#X obj 451 -266 float;
#X obj 540 -266 float;
#X obj 789 -263 float;
#X obj 592 -265 float;
#X obj 659 -269 float;
#X obj 721 -263 float;
#X obj 861 -252 float;
#X obj 861 -227 s ola;
#X obj 911 -252 float;
#X obj 911 -226 s universe;
#X obj 718 -415 s path;
#X obj -1 -351 float;
#X obj 452 -449 unpack f f s;
#X obj 452 -477 netreceive 9195;
#X obj 872 -324 select 20 21;
#X floatatom 604 -458 5 0 0 0 - - -;
#X obj 0 -316 s window;
#X connect 0 0 32 0;
#X connect 0 1 1 0;
#X connect 1 0 6 0;
#X connect 1 1 7 0;
#X connect 1 2 8 0;
#X connect 1 3 9 0;
#X connect 1 4 11 0;
#X connect 6 0 2 0;
#X connect 7 0 3 0;
#X connect 8 0 4 0;
#X connect 9 0 5 0;
#X connect 11 0 19 0;
#X connect 11 1 20 0;
#X connect 11 2 21 0;
#X connect 11 3 22 0;
#X connect 11 4 24 0;
#X connect 11 5 25 0;
#X connect 11 6 26 0;
#X connect 11 7 23 0;
#X connect 11 8 35 0;
#X connect 19 0 10 0;
#X connect 20 0 12 0;
#X connect 21 0 13 0;
#X connect 22 0 14 0;
#X connect 23 0 18 0;
#X connect 24 0 15 0;
#X connect 25 0 16 0;
#X connect 26 0 17 0;
#X connect 27 0 28 0;
#X connect 29 0 30 0;
#X connect 32 0 37 0;
#X connect 33 0 0 0;
#X connect 33 1 6 1;
#X connect 33 1 7 1;
#X connect 33 1 8 1;
#X connect 33 1 9 1;
#X connect 33 1 19 1;
#X connect 33 1 20 1;
#X connect 33 1 21 1;
#X connect 33 1 22 1;
#X connect 33 1 24 1;
#X connect 33 1 25 1;
#X connect 33 1 26 1;
#X connect 33 1 23 1;
#X connect 33 1 27 1;
#X connect 33 1 29 1;
#X connect 33 1 32 1;
#X connect 33 2 31 0;
#X connect 34 0 33 0;
#X connect 34 1 36 0;
#X connect 35 0 27 0;
#X connect 35 1 29 0;
#X restore -241 -433 pd receive;
#N canvas 1 93 450 300 window 0;
#X msg 987 -347 color 0 0 0;
#X msg 117 -352 create;
#X msg 192 -352 destroy;
#X msg 721 -349 print;
#X msg 561 -352 border \$1;
#X msg 467 -352 fullscreen \$1;
#X msg 641 -350 topmost \$1;
#X msg 773 -349 cursor 0;
#X obj 698 -474 loadbang;
#X msg 918 -348 title PMS;
#X obj 368 -400 pack f f;
#X msg 368 -355 offset \$1 \$2;
#X obj 264 -401 pack f f;
#X msg 264 -354 dimen \$1 \$2;
#X obj 19 -349 s init;
#X msg 840 -348 profile 2;
#X obj 8 -425 select 1;
#X obj 76 -424 select 0;
#X obj 365 -473 r winposx;
#X obj 431 -472 r winposy;
#X obj 382 -434 t b;
#X obj 212 -474 r winsizex;
#X obj 288 -475 r winsizey;
#X obj 274 -433 t b;
#X msg 605 -427 0;
#X obj 122 -473 gemkeyboard;
#X obj 160 -425 select 9;
#X msg 117 -261 1;
#X obj 117 -293 delay 10;
#X obj 117 -323 t b;
#X obj 308 -220 gemwin 30;
#X obj 40 -467 r window;
#X connect 0 0 30 0;
#X connect 1 0 29 0;
#X connect 1 0 30 0;
#X connect 2 0 30 0;
#X connect 3 0 30 0;
#X connect 4 0 30 0;
#X connect 5 0 30 0;
#X connect 6 0 30 0;
#X connect 7 0 30 0;
#X connect 8 0 0 0;
#X connect 8 0 9 0;
#X connect 8 0 24 0;
#X connect 8 0 7 0;
#X connect 8 0 15 0;
#X connect 9 0 30 0;
#X connect 10 0 11 0;
#X connect 11 0 30 0;
#X connect 12 0 13 0;
#X connect 13 0 30 0;
#X connect 15 0 30 0;
#X connect 16 0 1 0;
#X connect 16 0 14 0;
#X connect 17 0 2 0;
#X connect 18 0 10 0;
#X connect 19 0 10 1;
#X connect 19 0 20 0;
#X connect 20 0 10 0;
#X connect 21 0 12 0;
#X connect 22 0 12 1;
#X connect 22 0 23 0;
#X connect 23 0 12 0;
#X connect 24 0 6 0;
#X connect 24 0 4 0;
#X connect 25 0 26 0;
#X connect 26 0 2 0;
#X connect 27 0 30 0;
#X connect 28 0 27 0;
#X connect 29 0 28 0;
#X connect 31 0 16 0;
#X connect 31 0 17 0;
#X restore -166 -432 pd window;
#X obj 431 -330 s send;
#X obj -211 -390 loadbang;
#X obj -114 -99 pix2jpg;
#X obj -21 -361 select 0;
#X msg 24 -332 1;
#X msg -21 -333 0;
#X msg -212 -361 1;
#X obj -212 -328 metro 1000;
#X obj -83 -238 spigot;
#X obj -119 -211 t b;
#X obj -380 -279 spigot;
#X obj -380 -238 spigot;
#X msg -321 -241 0;
#X msg -322 -265 1;
#X obj -427 -208 t b;
#X obj -82 -215 spigot;
#X msg -3 -213 0;
#X msg -13 -244 1;
#X obj -93 -166 bng 15 250 50 0 empty empty empty 17 7 0 10 -262144
-1 -1;
#X obj -297 -140 bng 15 250 50 0 empty empty empty 17 7 0 10 -262144
-1 -1;
#X obj 124 -213 t b;
#X obj 204 -253 spigot;
#X obj 205 -219 spigot;
#X msg 336 -227 0;
#X msg 319 -274 1;
#X obj 127 -169 bng 15 250 50 0 empty empty empty 17 7 0 10 -262144
-1 -1;
#X obj -12 -294 delay 200;
#X obj 53 -256 delay 200;
#X obj -4 -127 bng 15 250 50 0 empty empty empty 17 7 0 10 -262144
-1 -1;
#X obj 20 -243 t b;
#X obj 201 -187 t b;
#X obj -354 -200 t b;
#X msg -523 -203 layerimage 11;
#X msg -208 -209 layerimage 12;
#X msg 50 -214 layerimage 13;
#X msg 503 -351 layerimage 14;
#X msg -488 -291 layername 1 \$1;
#X msg -91 -337 layername 2 \$1;
#X msg 142 -316 layername 3 \$1;
#X msg -203 -2 layername 5 \$1;
#X msg 128 -52 layername 6 \$1;
#X msg 334 -96 layername 7 \$1;
#X msg 433 -88 layername 8 \$1;
#X msg -277 -229 layername 30 loadb;
#X msg -261 -271 layername 0 dd;
#X connect 2 0 51 0;
#X connect 3 0 87 0;
#X connect 3 1 61 0;
#X connect 4 0 88 0;
#X connect 4 1 59 0;
#X connect 4 1 79 0;
#X connect 4 1 80 0;
#X connect 5 0 93 0;
#X connect 6 0 91 0;
#X connect 7 0 2 0;
#X connect 8 0 89 0;
#X connect 8 1 72 0;
#X connect 9 0 90 0;
#X connect 10 0 92 0;
#X connect 11 0 61 1;
#X connect 12 0 61 1;
#X connect 13 0 14 0;
#X connect 13 0 3 1;
#X connect 14 0 12 0;
#X connect 14 1 11 0;
#X connect 15 0 4 1;
#X connect 15 0 54 0;
#X connect 16 0 72 1;
#X connect 17 0 72 1;
#X connect 18 0 17 0;
#X connect 18 1 16 0;
#X connect 19 0 18 0;
#X connect 19 0 8 1;
#X connect 22 0 21 0;
#X connect 22 1 20 0;
#X connect 23 0 22 0;
#X connect 23 0 7 1;
#X connect 26 0 25 0;
#X connect 26 1 24 0;
#X connect 27 0 26 0;
#X connect 27 0 9 1;
#X connect 30 0 29 0;
#X connect 30 1 28 0;
#X connect 31 0 30 0;
#X connect 31 0 6 1;
#X connect 34 0 33 0;
#X connect 34 1 32 0;
#X connect 35 0 34 0;
#X connect 35 0 10 1;
#X connect 38 0 37 0;
#X connect 38 1 36 0;
#X connect 39 0 38 0;
#X connect 39 0 5 1;
#X connect 41 0 3 0;
#X connect 42 0 4 0;
#X connect 43 0 8 0;
#X connect 44 0 7 0;
#X connect 45 0 9 0;
#X connect 46 0 6 0;
#X connect 47 0 10 0;
#X connect 48 0 5 0;
#X connect 52 0 57 0;
#X connect 54 0 56 0;
#X connect 54 1 55 0;
#X connect 55 0 59 1;
#X connect 56 0 59 1;
#X connect 57 0 58 0;
#X connect 58 0 64 0;
#X connect 58 0 65 0;
#X connect 58 0 83 0;
#X connect 58 0 77 0;
#X connect 59 0 66 0;
#X connect 60 0 53 0;
#X connect 60 0 69 0;
#X connect 61 0 62 0;
#X connect 62 0 53 0;
#X connect 62 0 82 0;
#X connect 63 0 62 1;
#X connect 64 0 62 1;
#X connect 65 0 53 0;
#X connect 65 0 70 0;
#X connect 66 0 53 0;
#X connect 67 0 66 1;
#X connect 68 0 66 1;
#X connect 71 0 53 0;
#X connect 71 0 76 0;
#X connect 72 0 73 0;
#X connect 73 0 53 0;
#X connect 73 0 81 0;
#X connect 74 0 73 1;
#X connect 75 0 73 1;
#X connect 77 0 68 0;
#X connect 77 0 60 0;
#X connect 77 0 78 0;
#X connect 77 0 84 0;
#X connect 78 0 85 0;
#X connect 78 0 71 0;
#X connect 78 0 75 0;
#X connect 80 0 67 0;
#X connect 81 0 74 0;
#X connect 82 0 63 0;
#X connect 83 0 53 0;
#X connect 84 0 53 0;
#X connect 85 0 53 0;
#X connect 94 0 53 0;
#X connect 95 0 53 0;
#X coords 0 0 1 1 85 60 0;
