#N canvas 144 163 1221 604 10;
#N canvas 1 85 1272 689 interface 0;
#X msg 1114 -275 color 0 0 0;
#X msg 238 -297 create;
#X msg 313 -297 destroy;
#X msg 848 -277 print;
#X msg 688 -280 border \$1;
#X msg 594 -280 fullscreen \$1;
#X msg 768 -278 topmost \$1;
#X msg 900 -277 cursor 0;
#X obj 800 -494 loadbang;
#X msg 1045 -276 title PMS;
#X obj 489 -345 pack f f;
#X msg 489 -300 offset \$1 \$2;
#X obj 385 -346 pack f f;
#X msg 385 -299 dimen \$1 \$2;
#X obj 345 100 print WINDOW;
#X obj 140 -294 s init;
#X msg 967 -276 profile 2;
#X obj 249 -446 inlet;
#X obj 210 -379 select 1;
#X obj 278 -378 select 0;
#X obj 656 108 gemwin 25;
#X obj 486 -418 r winposx;
#X obj 552 -417 r winposy;
#X obj 503 -379 t b;
#X obj 340 -436 r winsizex;
#X obj 416 -437 r winsizey;
#X obj 395 -378 t b;
#X msg 688 -368 0;
#X obj 86 -449 gemkeyboard;
#X floatatom 27 -392 5 0 0 0 - - -;
#X obj 86 -414 select 9;
#X msg 449 18 1;
#X obj 503 60 tgl 15 0 empty empty empty 17 7 0 10 -262144 -1 -1 0
1;
#X obj 155 -68 delay 500;
#X obj 219 -139 bng 15 250 50 0 empty empty empty 17 7 0 10 -262144
-1 -1;
#X obj 158 24 bng 15 250 50 0 empty empty empty 17 7 0 10 -262144 -1
-1;
#X floatatom 62 75 5 0 0 0 - - -;
#X floatatom 8 73 5 0 0 0 - - -;
#X floatatom 61 25 5 0 0 0 - - -;
#X floatatom 7 23 5 0 0 0 - - -;
#X obj 87 -311 bng 15 250 50 0 empty empty empty 17 7 0 10 -262144
-1 -1;
#X obj 193 -411 bng 15 250 50 0 empty empty empty 17 7 0 10 -262144
-1 -1;
#X connect 0 0 20 0;
#X connect 1 0 14 0;
#X connect 1 0 20 0;
#X connect 1 0 34 0;
#X connect 2 0 14 0;
#X connect 2 0 20 0;
#X connect 3 0 20 0;
#X connect 4 0 20 0;
#X connect 5 0 20 0;
#X connect 6 0 20 0;
#X connect 7 0 20 0;
#X connect 8 0 0 0;
#X connect 8 0 9 0;
#X connect 8 0 27 0;
#X connect 8 0 7 0;
#X connect 8 0 16 0;
#X connect 9 0 20 0;
#X connect 10 0 11 0;
#X connect 11 0 14 0;
#X connect 11 0 20 0;
#X connect 12 0 13 0;
#X connect 13 0 14 0;
#X connect 13 0 20 0;
#X connect 16 0 20 0;
#X connect 17 0 18 0;
#X connect 17 0 19 0;
#X connect 17 0 41 0;
#X connect 18 0 1 0;
#X connect 18 0 15 0;
#X connect 18 0 40 0;
#X connect 19 0 2 0;
#X connect 21 0 10 0;
#X connect 21 0 39 0;
#X connect 22 0 10 1;
#X connect 22 0 23 0;
#X connect 22 0 38 0;
#X connect 23 0 10 0;
#X connect 24 0 12 0;
#X connect 24 0 37 0;
#X connect 25 0 12 1;
#X connect 25 0 26 0;
#X connect 25 0 36 0;
#X connect 26 0 12 0;
#X connect 27 0 6 0;
#X connect 27 0 4 0;
#X connect 28 0 29 0;
#X connect 28 0 30 0;
#X connect 30 0 2 0;
#X connect 31 0 32 0;
#X connect 32 0 20 0;
#X connect 33 0 31 0;
#X connect 33 0 35 0;
#X connect 34 0 33 0;
#X coords 0 -1 1 0 100 100 2 0 0;
#X restore 608 -263 pd interface;
#N canvas 72 84 951 599 dmx 0;
#X obj -7 437 list split;
#X obj 99 444 list split;
#X obj 50 385 - 1;
#X obj 156 386 - 1;
#X msg 464 -56 1;
#X floatatom 207 144 5 0 0 0 - - -;
#X floatatom 258 144 5 0 0 0 - - -;
#X text 198 120 Layer 1;
#X text 250 120 Layer 2;
#X text 269 100 DMX Address;
#X obj 564 160 bng 30 250 50 0 empty empty Close 0 -7 0 10 -258113
-258113 -258113;
#X floatatom 475 171 5 0 0 0 - - -;
#X obj 527 161 bng 30 250 50 0 empty empty Open 0 -7 0 10 -4034 -4034
-4034;
#X msg 668 50 0;
#X text 300 119 Layer 3;
#X text 353 119 Layer 4;
#X floatatom 309 144 5 0 0 0 - - -;
#X floatatom 361 144 5 0 0 0 - - -;
#X msg 563 309 close;
#X obj 202 447 list split;
#X obj 259 390 - 1;
#X obj 308 446 list split;
#X obj 365 367 - 1;
#X obj 489 347 ola2pd;
#X msg 438 307 universe \$1;
#X msg 523 306 open;
#X text 461 149 Universo;
#X text 495 117 OLA Control;
#X obj 433 122 bng 20 200 200 0 empty empty DMX 0 -7 0 10 -262144 -1
-1;
#X msg 511 -53 65;
#X msg 565 -53 129;
#X msg 618 -51 193;
#X obj 21 520 outlet;
#X obj 127 523 outlet;
#X obj 230 523 outlet;
#X obj 336 524 outlet;
#X floatatom 207 184 5 0 0 0 - - -;
#X floatatom 258 184 5 0 0 0 - - -;
#X floatatom 309 184 5 0 0 0 - - -;
#X floatatom 361 184 5 0 0 0 - - -;
#X text 199 163 Layer 5;
#X text 250 162 Layer 6;
#X text 300 163 Layer 7;
#X text 354 162 Layer 8;
#X msg 470 -9 257;
#X msg 519 -11 321;
#X msg 582 -10 385;
#X msg 639 -5 449;
#X obj 434 457 list split;
#X obj 491 378 - 1;
#X obj 462 535 outlet;
#X obj 558 448 list split;
#X obj 615 369 - 1;
#X obj 586 526 outlet;
#X obj 675 449 list split;
#X obj 732 370 - 1;
#X obj 703 527 outlet;
#X obj 800 445 list split;
#X obj 857 366 - 1;
#X obj 828 523 outlet;
#X obj 205 247 tgl 15 0 empty empty empty 17 7 0 10 -262144 -1 -1 0
1;
#X obj 232 248 tgl 15 0 empty empty empty 17 7 0 10 -262144 -1 -1 0
65;
#X obj 252 248 tgl 15 0 empty empty empty 17 7 0 10 -262144 -1 -1 0
129;
#X obj 271 248 tgl 15 0 empty empty empty 17 7 0 10 -262144 -1 -1 0
193;
#X obj 290 248 tgl 15 0 empty empty empty 17 7 0 10 -262144 -1 -1 0
257;
#X obj 313 248 tgl 15 0 empty empty empty 17 7 0 10 -262144 -1 -1 0
321;
#X obj 334 248 tgl 15 0 empty empty empty 17 7 0 10 -262144 -1 -1 0
385;
#X obj 355 248 tgl 15 0 empty empty empty 17 7 0 10 -262144 -1 -1 0
449;
#X obj -7 379 spigot;
#X obj 95 402 spigot;
#X obj 204 397 spigot;
#X obj 314 393 spigot;
#X obj 421 395 spigot;
#X obj 556 405 spigot;
#X obj 672 407 spigot;
#X obj 798 394 spigot;
#X obj 21 479 list split 49;
#X obj 127 482 list split 49;
#X obj 230 482 list split 49;
#X obj 336 483 list split 49;
#X obj 462 494 list split 49;
#X obj 586 485 list split 49;
#X obj 703 486 list split 49;
#X obj 828 482 list split 49;
#X obj 110 20 r layer1;
#X obj 181 22 r layer2;
#X obj 248 22 r layer3;
#X obj 315 23 r layer4;
#X obj 30 82 r layer5;
#X obj 103 86 r layer6;
#X obj 202 73 r layer7;
#X obj 342 59 r layer8;
#X obj 707 116 r ola;
#X obj 706 177 select 0;
#X obj 632 117 r universe;
#X connect 0 1 76 0;
#X connect 1 1 77 0;
#X connect 2 0 0 1;
#X connect 3 0 1 1;
#X connect 4 0 5 0;
#X connect 5 0 2 0;
#X connect 6 0 3 0;
#X connect 10 0 18 0;
#X connect 11 0 24 0;
#X connect 12 0 25 0;
#X connect 13 0 11 0;
#X connect 16 0 20 0;
#X connect 17 0 22 0;
#X connect 18 0 23 0;
#X connect 19 1 78 0;
#X connect 20 0 19 1;
#X connect 21 1 79 0;
#X connect 22 0 21 1;
#X connect 23 0 28 0;
#X connect 23 0 68 0;
#X connect 23 0 69 0;
#X connect 23 0 70 0;
#X connect 23 0 71 0;
#X connect 23 0 72 0;
#X connect 23 0 73 0;
#X connect 23 0 74 0;
#X connect 23 0 75 0;
#X connect 24 0 23 0;
#X connect 25 0 23 0;
#X connect 29 0 6 0;
#X connect 30 0 16 0;
#X connect 31 0 17 0;
#X connect 36 0 49 0;
#X connect 37 0 52 0;
#X connect 38 0 55 0;
#X connect 39 0 58 0;
#X connect 44 0 36 0;
#X connect 45 0 37 0;
#X connect 46 0 38 0;
#X connect 47 0 39 0;
#X connect 48 1 80 0;
#X connect 49 0 48 1;
#X connect 51 1 81 0;
#X connect 52 0 51 1;
#X connect 54 1 82 0;
#X connect 55 0 54 1;
#X connect 57 1 83 0;
#X connect 58 0 57 1;
#X connect 60 0 68 1;
#X connect 61 0 69 1;
#X connect 62 0 70 1;
#X connect 63 0 71 1;
#X connect 64 0 72 1;
#X connect 65 0 73 1;
#X connect 66 0 74 1;
#X connect 67 0 75 1;
#X connect 68 0 0 0;
#X connect 69 0 1 0;
#X connect 70 0 19 0;
#X connect 71 0 21 0;
#X connect 72 0 48 0;
#X connect 73 0 51 0;
#X connect 74 0 54 0;
#X connect 75 0 57 0;
#X connect 76 0 32 0;
#X connect 77 0 33 0;
#X connect 78 0 34 0;
#X connect 79 0 35 0;
#X connect 80 0 50 0;
#X connect 81 0 53 0;
#X connect 82 0 56 0;
#X connect 83 0 59 0;
#X connect 84 0 5 0;
#X connect 84 0 60 0;
#X connect 85 0 6 0;
#X connect 85 0 61 0;
#X connect 86 0 16 0;
#X connect 86 0 62 0;
#X connect 87 0 17 0;
#X connect 87 0 63 0;
#X connect 88 0 36 0;
#X connect 88 0 64 0;
#X connect 89 0 37 0;
#X connect 89 0 65 0;
#X connect 90 0 38 0;
#X connect 90 0 66 0;
#X connect 91 0 39 0;
#X connect 91 0 67 0;
#X connect 92 0 93 0;
#X connect 93 0 18 0;
#X connect 93 1 25 0;
#X connect 94 0 11 0;
#X coords 0 -1 1 1 400 200 2 200 100;
#X restore 56 -328 pd dmx;
#N canvas 71 130 240 272 fondo 0;
#X obj -452 -118 color 0 0 0;
#X obj -452 -150 alpha;
#X text -486 -209 Pantalla fondo Negra;
#X obj -452 -187 gemhead 5;
#X obj -451 -49 translateXYZ;
#X obj -352 -170 loadbang;
#X obj -451 3 rectangle 16 12;
#X msg -352 -110 -50;
#X connect 0 0 4 0;
#X connect 1 0 0 0;
#X connect 3 0 1 0;
#X connect 4 0 6 0;
#X connect 5 0 7 0;
#X connect 7 0 4 3;
#X restore 738 -341 pd fondo;
#X floatatom 1003 -458 5 0 0 0 - - -;
#X obj 779 -456 print tcp;
#X floatatom 813 -406 5 0 0 0 - - -;
#X floatatom 962 -407 5 0 0 0 - - -;
#X obj 816 -346 select 1;
#X obj 876 -310 select 2 3 4 5;
#X obj 804 -227 s winposx;
#X obj 819 -203 s winposy;
#X obj 881 -202 s winsizex;
#X obj 950 -201 s winsizey;
#X obj 801 -262 float;
#X obj 844 -256 float;
#X obj 881 -256 float;
#X obj 950 -258 float;
#X obj 970 -32 s layer1;
#X obj 1109 -278 select 11 12 13 14 15 16 17 18;
#X obj 1028 -29 s layer2;
#X obj 1088 -27 s layer3;
#X obj 1168 -24 s layer4;
#X obj 1227 -24 s layer5;
#X obj 1291 -22 s layer6;
#X obj 1353 -25 s layer7;
#X obj 1419 -27 s layer8;
#X obj 970 -67 float;
#X obj 1024 -68 float;
#X obj 1079 -67 float;
#X obj 1168 -67 float;
#X obj 1417 -64 float;
#X obj 1220 -66 float;
#X obj 1287 -70 float;
#X obj 1349 -64 float;
#X obj 1412 -129 float;
#X obj 1412 -104 s ola;
#X obj 1462 -129 float;
#X obj 1462 -103 s universe;
#X obj 1102 -366 s path;
#X obj 62 -420 config;
#X obj 816 -306 float;
#X obj 876 -380 unpack f f s;
#X symbolatom 1093 -392 50 0 0 0 - - -;
#X obj 877 -488 netreceive 9195;
#X obj 851 234 netsend;
#X floatatom 851 302 5 0 0 0 - - -;
#X msg 1102 176 disconnect;
#X obj 852 6 loadbang;
#X msg 850 150 connect localhost 9196;
#X msg 615 -110 send 1 \$1;
#X msg 652 -62 send 2 \$1;
#X msg 700 -1 send 3 \$1;
#X msg 744 39 send 4 \$1;
#X msg 624 132 send 5 \$1;
#X msg 628 203 send 6 \$1;
#X msg 643 280 send 7 \$1;
#X msg 635 332 send 8 \$1;
#X obj 5 -125 layer;
#X obj 7 -65 layer;
#X obj 9 310 layer;
#X obj 7 183 layer;
#X obj 6 57 layer;
#X obj 6 -3 layer;
#X obj 9 122 layer;
#X obj 8 246 layer;
#X obj 1419 -201 select 20 21 19;
#X obj 849 65 delay 2000;
#X connect 1 0 57 0;
#X connect 1 1 58 0;
#X connect 1 2 62 0;
#X connect 1 3 61 0;
#X connect 1 4 63 0;
#X connect 1 5 60 0;
#X connect 1 6 64 0;
#X connect 1 7 59 0;
#X connect 7 0 40 0;
#X connect 7 1 8 0;
#X connect 8 0 13 0;
#X connect 8 1 14 0;
#X connect 8 2 15 0;
#X connect 8 3 16 0;
#X connect 8 4 18 0;
#X connect 13 0 9 0;
#X connect 14 0 10 0;
#X connect 15 0 11 0;
#X connect 16 0 12 0;
#X connect 18 0 26 0;
#X connect 18 1 27 0;
#X connect 18 2 28 0;
#X connect 18 3 29 0;
#X connect 18 4 31 0;
#X connect 18 5 32 0;
#X connect 18 6 33 0;
#X connect 18 7 30 0;
#X connect 18 8 65 0;
#X connect 26 0 17 0;
#X connect 27 0 19 0;
#X connect 28 0 20 0;
#X connect 29 0 21 0;
#X connect 30 0 25 0;
#X connect 31 0 22 0;
#X connect 32 0 23 0;
#X connect 33 0 24 0;
#X connect 34 0 35 0;
#X connect 36 0 37 0;
#X connect 40 0 0 0;
#X connect 41 0 5 0;
#X connect 41 0 7 0;
#X connect 41 1 6 0;
#X connect 41 1 13 1;
#X connect 41 1 14 1;
#X connect 41 1 15 1;
#X connect 41 1 16 1;
#X connect 41 1 26 1;
#X connect 41 1 27 1;
#X connect 41 1 28 1;
#X connect 41 1 29 1;
#X connect 41 1 31 1;
#X connect 41 1 32 1;
#X connect 41 1 33 1;
#X connect 41 1 30 1;
#X connect 41 1 34 1;
#X connect 41 1 36 1;
#X connect 41 1 40 1;
#X connect 41 2 38 0;
#X connect 41 2 42 0;
#X connect 43 0 4 0;
#X connect 43 0 41 0;
#X connect 43 1 3 0;
#X connect 44 0 45 0;
#X connect 46 0 44 0;
#X connect 47 0 66 0;
#X connect 48 0 44 0;
#X connect 49 0 44 0;
#X connect 50 0 44 0;
#X connect 51 0 44 0;
#X connect 52 0 44 0;
#X connect 53 0 44 0;
#X connect 54 0 44 0;
#X connect 55 0 44 0;
#X connect 56 0 44 0;
#X connect 57 0 49 0;
#X connect 58 0 50 0;
#X connect 59 0 56 0;
#X connect 60 0 54 0;
#X connect 61 0 52 0;
#X connect 62 0 51 0;
#X connect 63 0 53 0;
#X connect 64 0 55 0;
#X connect 65 0 34 0;
#X connect 65 1 36 0;
#X connect 65 2 48 0;
#X connect 66 0 48 0;
#X coords 0 0 1 1 85 60 0;
