#N canvas 0 54 1388 924 10;
#X obj 95 -14 r c7;
#X obj 95 110 cambio;
#X obj 1286 -92 r c8;
#X floatatom 126 3 5 0 0 0 - - -;
#X floatatom 135 126 5 0 0 0 - - -;
#X symbolatom 95 628 80 0 0 0 - - -;
#X text 497 496 Note : you can scroll the list by dragging;
#X text 495 507 the mouse in the yellow area;
#X text 497 518 You can select and scroll in the blue area;
#X obj 95 426 playlist all 400 200 {Helvetica 14 normal} grey yellow
black red;
#X msg 95 176 seek \$1;
#X symbolatom 291 654 50 0 0 0 - - -;
#X symbolatom 488 678 50 0 0 0 - - -;
#X msg 431 98 sort \$1;
#X obj 431 68 tgl 15 0 empty empty empty 0 -6 0 8 -262144 -1 -1 1 1
;
#X text 381 48 Use alphabetical or creation time order;
#X msg 194 -2 font Helvetica normal 14;
#X obj 302 67 tgl 15 0 empty empty empty 0 -6 0 8 -262144 -1 -1 1 1
;
#X msg 302 98 graphics \$1;
#X text 229 48 Show or hide graphics;
#X msg 358 -3 1;
#X obj 1169 217 config;
#X msg 917 350 location \$1;
#X obj 1169 254 symbol;
#X obj 290 -62 loadbang;
#X obj 80 628 bng 15 250 50 0 empty empty empty 17 7 0 10 -262144 -1
-1;
#X obj 1169 290 makefilename %s/ogg;
#X obj 95 725 outlet;
#X text 67 741 Fichero a reproducir;
#X obj 1330 581 outlet;
#X text 1332 601 Tipo de media: 0 Video 1 Imagen 2 Texto 3 Audio;
#X obj 605 -61 r c6;
#X text 93 -37 File;
#X text 600 -84 Folder;
#X text 1269 -114 Media Type;
#X msg 1158 98 0;
#X msg 1378 99 3;
#X obj 1286 -60 / 25;
#X obj 1286 15 select 0 1 2 3;
#X msg 1248 96 1;
#X msg 1314 98 2;
#X obj 1034 215 config;
#X obj 1034 252 symbol;
#X obj 1034 288 makefilename %s/fonts;
#X obj 888 212 config;
#X obj 888 249 symbol;
#X obj 888 285 makefilename %s/image;
#X obj 1286 -26 int;
#X floatatom 1221 -11 5 0 0 0 - - -;
#X obj 676 183 config;
#X obj 676 220 symbol;
#X obj 605 139 cambio;
#X obj 606 290 getfilenames;
#X obj 676 258 makefilename %s/video/*.vid;
#X obj 605 91 spigot;
#X msg 805 61 1;
#X msg 805 97 0;
#X obj 1126 97 bng 15 250 50 0 empty empty empty 17 7 0 10 -262144
-1 -1;
#X obj 1222 96 bng 15 250 50 0 empty empty empty 17 7 0 10 -262144
-1 -1;
#X obj 584 291 bng 15 250 50 0 empty empty empty 17 7 0 10 -262144
-1 -1;
#X connect 0 0 3 0;
#X connect 0 0 1 0;
#X connect 1 0 4 0;
#X connect 1 0 10 0;
#X connect 2 0 37 0;
#X connect 5 0 27 0;
#X connect 9 0 5 0;
#X connect 9 0 25 0;
#X connect 9 1 11 0;
#X connect 9 2 12 0;
#X connect 10 0 9 0;
#X connect 13 0 9 0;
#X connect 14 0 13 0;
#X connect 16 0 9 0;
#X connect 17 0 18 0;
#X connect 18 0 9 0;
#X connect 20 0 17 0;
#X connect 20 0 14 0;
#X connect 21 0 23 0;
#X connect 22 0 9 0;
#X connect 23 0 26 0;
#X connect 24 0 20 0;
#X connect 24 0 16 0;
#X connect 26 0 22 0;
#X connect 31 0 54 0;
#X connect 35 0 29 0;
#X connect 35 0 49 0;
#X connect 35 0 57 0;
#X connect 36 0 29 0;
#X connect 36 0 21 0;
#X connect 37 0 47 0;
#X connect 38 0 35 0;
#X connect 38 0 55 0;
#X connect 38 1 39 0;
#X connect 38 1 56 0;
#X connect 38 2 40 0;
#X connect 38 2 56 0;
#X connect 38 3 56 0;
#X connect 38 4 36 0;
#X connect 38 4 56 0;
#X connect 39 0 29 0;
#X connect 39 0 44 0;
#X connect 39 0 58 0;
#X connect 40 0 29 0;
#X connect 40 0 41 0;
#X connect 41 0 42 0;
#X connect 42 0 43 0;
#X connect 43 0 22 0;
#X connect 44 0 45 0;
#X connect 45 0 46 0;
#X connect 46 0 22 0;
#X connect 47 0 38 0;
#X connect 47 0 48 0;
#X connect 49 0 50 0;
#X connect 50 0 53 0;
#X connect 51 0 52 0;
#X connect 52 0 22 0;
#X connect 52 0 59 0;
#X connect 53 0 52 1;
#X connect 54 0 51 0;
#X connect 55 0 54 1;
#X connect 56 0 54 1;
