#N canvas 0 253 1195 675 10;
#X obj 95 -14 r c7;
#X obj 1286 -92 r c8;
#X floatatom 126 3 5 0 0 0 - - -;
#X symbolatom 95 628 80 0 0 0 - - -;
#X text 497 496 Note : you can scroll the list by dragging;
#X text 495 507 the mouse in the yellow area;
#X text 497 518 You can select and scroll in the blue area;
#X obj 95 426 playlist all 400 200 {Helvetica 12 normal} grey yellow
black red;
#X msg 95 176 seek \$1;
#X symbolatom 291 654 50 0 0 0 - - -;
#X symbolatom 488 678 50 0 0 0 - - -;
#X msg 431 98 sort \$1;
#X obj 431 68 tgl 15 0 empty empty empty 0 -6 0 8 -262144 -1 -1 1 1
;
#X text 381 48 Use alphabetical or creation time order;
#X obj 302 67 tgl 15 0 empty empty empty 0 -6 0 8 -262144 -1 -1 1 1
;
#X msg 302 98 graphics \$1;
#X text 229 48 Show or hide graphics;
#X msg 358 -3 1;
#X msg 917 350 location \$1;
#X obj 1208 271 symbol;
#X obj 290 -62 loadbang;
#X obj 80 628 bng 15 250 50 0 empty empty empty 17 7 0 10 -262144 -1
-1;
#X obj 1208 307 makefilename %s/ogg;
#X obj 95 725 outlet;
#X text 67 741 Fichero a reproducir;
#X obj 1330 581 outlet;
#X obj 605 -61 r c6;
#X text 93 -37 File;
#X text 600 -84 Folder;
#X text 1269 -114 Media Type;
#X obj 1286 -60 / 25;
#X obj 1073 269 symbol;
#X obj 1073 305 makefilename %s/fonts;
#X obj 927 266 symbol;
#X obj 927 302 makefilename %s/image;
#X obj 1286 -26 int;
#X floatatom 1221 -11 5 0 0 0 - - -;
#X obj 607 290 getfilenames;
#X obj 676 258 makefilename %s/video/*.vid;
#X obj 605 91 spigot;
#X msg 805 61 1;
#X msg 805 97 0;
#X obj 1126 97 bng 15 250 50 0 empty empty empty 17 7 0 10 -262144
-1 -1;
#X obj 1222 96 bng 15 250 50 0 empty empty empty 17 7 0 10 -262144
-1 -1;
#X obj 584 291 bng 15 250 50 0 empty empty empty 17 7 0 10 -262144
-1 -1;
#X floatatom 573 -62 5 0 0 0 - - -;
#X floatatom 552 91 5 0 0 0 - - -;
#X symbolatom 607 418 50 0 0 0 - - -;
#X symbolatom 744 450 50 0 0 0 - - -;
#X obj 574 242 bng 15 250 50 0 empty empty empty 17 7 0 10 -262144
-1 -1;
#X msg 194 -2 font Helvetica normal 12;
#X obj 478 232 loadbang;
#X obj 750 289 bng 15 250 50 0 empty empty empty 17 7 0 10 -262144
-1 -1;
#X obj 1421 103 bng 15 250 50 0 empty empty empty 17 7 0 10 -262144
-1 -1;
#X obj 1350 99 bng 15 250 50 0 empty empty empty 17 7 0 10 -262144
-1 -1;
#X msg 1158 98 1;
#X msg 1248 96 2;
#X msg 1314 98 3;
#X msg 1378 99 4;
#X obj 1283 23 select 1 2 3 4;
#X msg 1459 104 0;
#X obj 59 366 bng 15 250 50 0 empty empty empty 17 7 0 10 -262144 -1
-1;
#X obj 676 137 config;
#X obj 1208 233 config;
#X obj 1073 231 config;
#X obj 927 190 config;
#X text 1190 598 Tipo de media: 0 Off 1 Video 2 Imagen 3 Texto 4 Audio
;
#X connect 0 0 2 0;
#X connect 0 0 8 0;
#X connect 1 0 30 0;
#X connect 3 0 23 0;
#X connect 7 0 3 0;
#X connect 7 0 21 0;
#X connect 7 1 9 0;
#X connect 7 2 10 0;
#X connect 8 0 7 0;
#X connect 11 0 7 0;
#X connect 12 0 11 0;
#X connect 14 0 15 0;
#X connect 15 0 7 0;
#X connect 17 0 14 0;
#X connect 17 0 12 0;
#X connect 18 0 7 0;
#X connect 19 0 22 0;
#X connect 20 0 17 0;
#X connect 20 0 50 0;
#X connect 22 0 18 0;
#X connect 26 0 39 0;
#X connect 26 0 45 0;
#X connect 30 0 35 0;
#X connect 31 0 32 0;
#X connect 32 0 18 0;
#X connect 33 0 34 0;
#X connect 34 0 18 0;
#X connect 35 0 36 0;
#X connect 35 0 59 0;
#X connect 37 0 18 0;
#X connect 37 0 44 0;
#X connect 37 0 47 0;
#X connect 38 0 37 1;
#X connect 38 0 48 0;
#X connect 38 0 52 0;
#X connect 39 0 46 0;
#X connect 39 0 37 0;
#X connect 40 0 39 1;
#X connect 41 0 39 1;
#X connect 49 0 37 0;
#X connect 50 0 7 0;
#X connect 51 0 37 0;
#X connect 55 0 25 0;
#X connect 55 0 42 0;
#X connect 55 0 62 0;
#X connect 56 0 25 0;
#X connect 56 0 43 0;
#X connect 56 0 65 0;
#X connect 57 0 25 0;
#X connect 57 0 54 0;
#X connect 57 0 64 0;
#X connect 58 0 25 0;
#X connect 58 0 53 0;
#X connect 58 0 63 0;
#X connect 59 0 55 0;
#X connect 59 0 40 0;
#X connect 59 1 56 0;
#X connect 59 1 41 0;
#X connect 59 2 57 0;
#X connect 59 2 41 0;
#X connect 59 3 41 0;
#X connect 59 3 58 0;
#X connect 59 4 41 0;
#X connect 59 4 60 0;
#X connect 60 0 25 0;
#X connect 61 0 7 0;
#X connect 62 0 38 0;
#X connect 63 0 19 0;
#X connect 64 0 31 0;
#X connect 65 0 33 0;
