#N canvas 0 245 923 742 10;
#X obj 144 187 pix_film;
#X msg -180 163 open \$1;
#X obj 166 232 unpack f f f;
#X obj 144 758 pix_texture;
#X obj 144 306 alpha;
#X obj 144 419 colorRGB;
#X obj 343 341 / 255;
#X obj 295 340 / 127;
#X obj 246 339 / 127;
#X obj 199 338 / 127;
#X obj 200 308 r c2;
#X obj 246 309 r c3;
#X obj 295 310 r c4;
#X obj 343 311 r c1;
#X obj 144 -27 gemhead;
#X obj 143 -115 r c8;
#X obj 143 -82 < 25;
#X obj -180 134 spigot;
#X text 246 293 Green;
#X text 204 292 Red;
#X text 296 294 Blue;
#X text 341 293 Alpha;
#X text 835 -165 Speed;
#X text 125 -136 Tipo media;
#X obj 196 112 pix_film_player_1;
#X obj 144 42 rotateXYZ;
#X obj 213 -27 r c12;
#X obj 258 -27 r c13;
#X obj 303 -26 r c14;
#X obj 169 453 r c18;
#X obj 222 454 r c19;
#X obj 273 452 r c20;
#X obj 167 10 * 1.5;
#X obj 227 14 * 1.5;
#X obj 286 14 * 1.5;
#X obj 281 601 r c15;
#X obj 326 601 r c16;
#X obj 374 600 r c17;
#X obj 281 669 pack f f f;
#X obj 374 637 / 32;
#X msg 169 662 1;
#X obj 169 627 loadbang;
#X floatatom 338 129 5 0 0 0 - - -;
#X floatatom 268 249 5 0 0 0 - - -;
#X floatatom 220 -65 5 0 0 0 - - -;
#X floatatom 221 -98 5 0 0 0 - - -;
#X obj 144 88 color 0 0 0;
#X obj 365 204 bng 15 250 50 0 empty empty empty 17 7 0 10 -262144
-1 -1;
#X floatatom -40 -87 5 0 0 0 - - -;
#X text 12 -131 Fichero;
#X text -169 -135 Directorio;
#X floatatom -200 -96 5 0 0 0 - - -;
#X obj 20 -28 makefilename %d.mov;
#X obj -180 74 pack s s s;
#X obj -152 -46 makefilename %d;
#X obj -180 106 l2s /;
#X obj -180 1 t b;
#X obj -152 -113 r c6;
#X obj 20 -104 r c7;
#X obj -180 43 config;
#X obj 20 -64 cambio;
#X floatatom -39 -47 5 0 0 0 - - -;
#X obj -152 -79 cambio;
#X obj 144 801 rectangle 16 12;
#X obj 144 571 translateXYZ;
#X obj 144 712 scale XY;
#X obj 273 529 - 20;
#X obj 273 487 / 10;
#X obj 378 681 t b;
#X obj 281 636 / 128;
#X obj 326 635 / 128;
#X obj 222 488 / 5;
#X obj 169 487 / 5;
#X obj 169 531 - 25;
#X obj 222 530 - 25;
#X connect 0 0 4 0;
#X connect 0 1 2 0;
#X connect 0 2 47 0;
#X connect 0 2 24 0;
#X connect 1 0 0 0;
#X connect 2 0 24 1;
#X connect 2 0 43 0;
#X connect 3 0 63 0;
#X connect 4 0 5 0;
#X connect 5 0 64 0;
#X connect 6 0 5 4;
#X connect 7 0 5 3;
#X connect 8 0 5 2;
#X connect 9 0 5 1;
#X connect 10 0 9 0;
#X connect 11 0 8 0;
#X connect 12 0 7 0;
#X connect 13 0 6 0;
#X connect 14 0 25 0;
#X connect 15 0 16 0;
#X connect 15 0 45 0;
#X connect 16 0 14 0;
#X connect 16 0 17 1;
#X connect 16 0 44 0;
#X connect 17 0 1 0;
#X connect 24 0 0 0;
#X connect 24 1 0 1;
#X connect 24 1 42 0;
#X connect 25 0 46 0;
#X connect 26 0 32 0;
#X connect 27 0 33 0;
#X connect 28 0 34 0;
#X connect 29 0 72 0;
#X connect 30 0 71 0;
#X connect 31 0 67 0;
#X connect 32 0 25 1;
#X connect 33 0 25 2;
#X connect 34 0 25 3;
#X connect 35 0 69 0;
#X connect 36 0 70 0;
#X connect 37 0 39 0;
#X connect 38 0 65 2;
#X connect 40 0 65 1;
#X connect 41 0 40 0;
#X connect 46 0 0 0;
#X connect 52 0 53 2;
#X connect 53 0 55 0;
#X connect 54 0 53 1;
#X connect 55 0 17 0;
#X connect 56 0 59 0;
#X connect 57 0 51 0;
#X connect 57 0 62 0;
#X connect 58 0 48 0;
#X connect 58 0 60 0;
#X connect 59 0 53 0;
#X connect 60 0 52 0;
#X connect 60 0 61 0;
#X connect 60 0 56 0;
#X connect 62 0 54 0;
#X connect 62 0 56 0;
#X connect 64 0 65 0;
#X connect 65 0 3 0;
#X connect 66 0 64 3;
#X connect 67 0 66 0;
#X connect 68 0 38 0;
#X connect 69 0 38 0;
#X connect 70 0 38 1;
#X connect 70 0 68 0;
#X connect 71 0 74 0;
#X connect 72 0 73 0;
#X connect 73 0 64 1;
#X connect 74 0 64 2;
