#N canvas 456 25 795 668 10;
#X declare -lib cyclone;
#X obj 144 203 pix_film;
#X msg 25 21 open \$1;
#X obj 25 -120 inlet;
#X obj 166 232 unpack f f f;
#X obj 144 758 pix_texture;
#X obj 144 306 alpha;
#X obj 144 419 colorRGB;
#X obj 343 341 / 255;
#X obj 295 340 / 127;
#X obj 246 339 / 127;
#X obj 199 338 / 127;
#X obj 143 -82 < 25;
#X obj 25 -24 spigot;
#X text 246 293 Green;
#X text 204 292 Red;
#X text 296 294 Blue;
#X text 341 293 Alpha;
#X text 835 -165 Speed;
#X text 125 -136 Tipo media;
#X text -3 -137 Archivo para abrir;
#X obj 144 42 rotateXYZ;
#X obj 144 571 translateXYZ;
#X obj 144 801 rectangle 4 3;
#X obj 167 530 - 5;
#X obj 167 487 / 25;
#X obj 222 488 / 25;
#X obj 222 533 - 5;
#X obj 273 534 - 5;
#X obj 273 487 / 25;
#X obj 167 10 * 1.5;
#X obj 227 14 * 1.5;
#X obj 286 14 * 1.5;
#X obj 281 669 pack f f f;
#X obj 281 636 / 32;
#X obj 326 635 / 32;
#X obj 374 637 / 32;
#X obj 144 712 scale XY;
#X msg 166 663 1;
#X obj 166 628 loadbang;
#X obj 143 -115 r c40;
#X obj 167 453 r c50;
#X obj 223 454 r c51;
#X obj 273 452 r c52;
#X obj 281 602 r c47;
#X obj 326 601 r c48;
#X obj 374 600 r c49;
#X obj 144 -27 gemhead 20;
#X floatatom 341 207 5 0 0 0 - - -;
#X obj 196 112 pix_film_player_2;
#X obj 200 308 r c34;
#X obj 246 309 r c35;
#X obj 295 310 r c36;
#X obj 343 311 r c33;
#X obj 213 -27 r c44;
#X obj 258 -27 r c45;
#X obj 303 -26 r c46;
#X connect 0 0 5 0;
#X connect 0 1 3 0;
#X connect 0 2 48 0;
#X connect 1 0 0 0;
#X connect 2 0 12 0;
#X connect 3 0 48 1;
#X connect 4 0 22 0;
#X connect 5 0 6 0;
#X connect 6 0 21 0;
#X connect 7 0 6 4;
#X connect 8 0 6 3;
#X connect 9 0 6 2;
#X connect 10 0 6 1;
#X connect 11 0 12 1;
#X connect 11 0 46 0;
#X connect 12 0 1 0;
#X connect 20 0 0 0;
#X connect 21 0 36 0;
#X connect 23 0 21 1;
#X connect 24 0 23 0;
#X connect 25 0 26 0;
#X connect 26 0 21 2;
#X connect 27 0 21 3;
#X connect 28 0 27 0;
#X connect 29 0 20 1;
#X connect 30 0 20 2;
#X connect 31 0 20 3;
#X connect 32 0 36 2;
#X connect 33 0 32 0;
#X connect 34 0 32 1;
#X connect 35 0 32 2;
#X connect 36 0 4 0;
#X connect 37 0 36 1;
#X connect 38 0 37 0;
#X connect 39 0 11 0;
#X connect 40 0 24 0;
#X connect 41 0 25 0;
#X connect 42 0 28 0;
#X connect 43 0 33 0;
#X connect 44 0 34 0;
#X connect 45 0 35 0;
#X connect 46 0 20 0;
#X connect 48 0 0 0;
#X connect 48 1 0 1;
#X connect 48 1 47 0;
#X connect 49 0 10 0;
#X connect 50 0 9 0;
#X connect 51 0 8 0;
#X connect 52 0 7 0;
#X connect 53 0 29 0;
#X connect 54 0 30 0;
#X connect 55 0 31 0;
