#N canvas 1 87 1267 679 10;
#X msg 12 1041 open \$1;
#X obj 138 927 gemhead;
#X obj 12 903 spigot;
#X floatatom 177 1157 5 0 0 0 - - -;
#X obj 16 -135 inlet;
#X obj 142 -146 inlet;
#X msg 183 852 0;
#X msg 138 852 1;
#X obj 138 814 select 1;
#X obj 155 1083 pdp_qt~;
#X obj 137 1273 pdp2gem;
#X obj 137 1344 outlet;
#X msg -2 1193 colorspace YUV;
#X obj 267 849 world_light;
#X obj 267 822 gemhead;
#X obj 353 1200 outlet~;
#X obj 294 1199 outlet~;
#X floatatom 167 1203 5 0 0 0 - - -;
#X obj 1113 992 spigot;
#X floatatom 1177 1008 5 0 0 0 - - -;
#X floatatom 1005 443 5 0 0 0 - - -;
#X obj 963 427 expr $f1 > 244 && $f1 < 250;
#X floatatom 1181 754 5 0 0 0 - - -;
#X obj 1146 826 expr 1 - $f1;
#X floatatom 1113 826 5 0 0 0 - - -;
#X obj 1145 737 ||;
#X obj 1146 385 t b;
#X obj 963 863 t b;
#X obj 835 857 t b;
#X obj 947 866 bng 15 250 50 0 empty empty empty 17 7 0 10 -262144
-1 -1;
#X obj 822 856 bng 15 250 50 0 empty empty empty 17 7 0 10 -262144
-1 -1;
#X obj 835 579 select 1;
#X obj 835 427 > 249;
#X floatatom 805 427 5 0 0 0 - - -;
#X obj 1437 889 counter;
#X msg 1721 780 0;
#X obj 1956 263 / 25;
#X obj 1956 297 int 0;
#X obj 1773 335 select 0;
#X obj 1844 335 select 1;
#X msg 1768 781 1;
#X obj 1907 336 select 2;
#X obj 1966 338 select 3;
#X obj 2032 338 select 4;
#X obj 2176 344 select 6;
#X obj 2109 343 select 5;
#X obj 1791 481 t b;
#X obj 1900 478 t b;
#X obj 2110 536 t b;
#X obj 2318 702 t b;
#X obj 1437 701 metro 25;
#X msg 1437 648 1;
#X obj 1437 1088 ==;
#X obj 2276 702 t b;
#X text 1541 1402 Un solo disparo;
#X msg 2276 1239 0;
#X msg 2318 1242 1;
#X obj 1649 1403 spigot;
#X obj 2245 343 select 7;
#X text 1779 3 0-10 Normal 11-20 Back 21-30 Ping-pong 31-40 Normal
una vez 41-50 Back una vez 51-60 Ping-Pong una vez 61-70 Stop/pause
71-80 Continue;
#X obj 1437 754 spigot 1;
#X msg 1586 628 0;
#X text 1433 737 play/pause;
#X text 1617 631 Pause;
#X msg 1513 627 1;
#X text 1543 628 Play;
#X floatatom 1406 887 5 0 0 0 - - -;
#X text 1732 754 Modos del contador;
#X obj 1238 526 *;
#X obj 1238 602 int;
#X obj 1307 427 int;
#X msg 1495 1009 1;
#X msg 1526 1009 0;
#X obj 1759 1052 spigot;
#X msg 1837 998 1;
#X msg 1876 1004 0;
#X obj 1760 1097 ==;
#X obj 1238 394 t b;
#X obj 1437 1040 spigot;
#X obj 1437 1156 t b;
#X text 1473 1155 Normal - Forward;
#X obj 1760 1198 t b;
#X text 1781 454 Normal;
#X text 1899 456 Back;
#X text 2133 539 PingPong;
#X text 1772 1238 Back;
#X msg 2106 982 1;
#X text 1263 604 Loop inferior;
#X obj 2075 1031 spigot;
#X msg 2138 982 0;
#X text 2062 1218 PingPong;
#X obj 1439 1215 int;
#X obj 1606 332 t b;
#X obj 1438 288 int;
#X obj 1606 448 *;
#X text 1523 488 loop superior;
#X obj 1479 260 * 1;
#X text 1352 265 Frames de la peli;
#X floatatom 1207 602 5 0 0 0 - - -;
#X floatatom 1572 507 5 0 0 0 - - -;
#X obj 1534 331 int 255;
#X obj 1265 427 int 0;
#X floatatom 1405 306 5 0 0 0 - - -;
#X floatatom 932 27 5 0 0 0 - - -;
#X text 662 57 0-244 Speed 244-249 auto 1 vez 250-255 auto loop;
#X obj 986 941 bng 15 250 50 0 empty empty empty 17 7 0 10 -262144
-1 -1;
#X text 873 394 Metodos Auto;
#X text 993 409 Auto 1 vez;
#X text 789 405 Auto Loop;
#X obj 1238 473 / 255;
#X obj 1412 1172 bng 15 250 50 0 empty empty empty 17 7 0 10 -262144
-1 -1;
#X floatatom 1702 424 10 0 0 0 - - -;
#X floatatom 1669 465 5 0 0 0 - - -;
#X floatatom 1671 292 5 0 0 0 - - -;
#X floatatom 1655 72 5 0 0 0 - - -;
#X obj 1621 408 * 0.00392157;
#X obj 1630 349 bng 15 250 50 0 empty empty empty 17 7 0 10 -262144
-1 -1;
#X obj 1606 506 int;
#X floatatom 1407 1215 5 0 0 0 - - -;
#X floatatom 1461 1089 5 0 0 0 - - -;
#X obj 1783 1198 bng 15 250 50 0 empty empty empty 17 7 0 10 -262144
-1 -1;
#X floatatom 1728 1052 5 0 0 0 - - -;
#X obj 1420 1086 bng 15 250 50 0 empty empty empty 17 7 0 10 -262144
-1 -1;
#X obj 1744 1097 bng 15 250 50 0 empty empty empty 17 7 0 10 -262144
-1 -1;
#X obj 1629 507 bng 15 250 50 0 empty empty empty 17 7 0 10 -262144
-1 -1;
#X obj 1689 1405 bng 15 250 50 0 empty empty empty 17 7 0 10 -262144
-1 -1;
#X obj 1534 51 loadbang;
#X obj 963 57 int;
#X obj 1606 275 int;
#X obj 1238 344 int;
#X obj 1503 403 t b;
#X msg 1041 938 stop;
#X msg 836 1010 loop 1;
#X msg 964 1008 loop 0;
#X msg 1002 940 play;
#X msg 1078 941 cont;
#X obj 1490 626 bng 15 250 50 0 empty empty empty 17 7 0 10 -262144
-1 -1;
#X obj 962 673 select 1;
#X obj 1437 1119 sel 1;
#X obj 1760 1144 sel 1;
#X obj 1443 1233 bng 15 250 50 0 empty empty empty 17 7 0 10 -262144
-1 -1;
#X obj 2021 1080 ==;
#X obj 2021 1148 t b;
#X obj 2027 1165 bng 15 250 50 0 empty empty empty 17 7 0 10 -262144
-1 -1;
#X floatatom 2045 1081 5 0 0 0 - - -;
#X obj 2004 1078 bng 15 250 50 0 empty empty empty 17 7 0 10 -262144
-1 -1;
#X obj 2021 1111 sel 1;
#X text 2060 1167 comment;
#X obj 2118 1084 ==;
#X obj 2119 1170 t b;
#X obj 2142 1170 bng 15 250 50 0 empty empty empty 17 7 0 10 -262144
-1 -1;
#X obj 2102 1084 bng 15 250 50 0 empty empty empty 17 7 0 10 -262144
-1 -1;
#X obj 2119 1116 sel 1;
#X text 2162 1169 comment;
#X obj 1219 638 bng 15 250 50 0 empty empty empty 17 7 0 10 -262144
-1 -1;
#X obj 2133 1056 - 1;
#X text 951 2 c5;
#X obj 964 26 inlet;
#X text 1221 56 Inicio Loop c10;
#X obj 1238 73 inlet;
#X text 1590 34 Final loop c11;
#X obj 1606 55 inlet;
#X text 1891 44 Control y modos de reproduccion c9;
#X obj 1955 66 inlet;
#X connect 0 0 9 0;
#X connect 1 0 10 0;
#X connect 2 0 0 0;
#X connect 4 0 2 0;
#X connect 5 0 8 0;
#X connect 6 0 1 0;
#X connect 6 0 2 1;
#X connect 7 0 1 0;
#X connect 7 0 2 1;
#X connect 8 0 7 0;
#X connect 8 1 6 0;
#X connect 9 0 10 0;
#X connect 9 1 17 0;
#X connect 9 2 3 0;
#X connect 9 2 93 0;
#X connect 9 3 16 0;
#X connect 9 4 15 0;
#X connect 10 0 11 0;
#X connect 12 0 10 0;
#X connect 14 0 13 0;
#X connect 18 0 19 0;
#X connect 18 0 9 1;
#X connect 21 0 20 0;
#X connect 21 0 25 1;
#X connect 21 0 137 0;
#X connect 23 0 18 1;
#X connect 23 0 24 0;
#X connect 25 0 22 0;
#X connect 25 0 23 0;
#X connect 26 0 25 0;
#X connect 27 0 133 0;
#X connect 27 0 29 0;
#X connect 27 0 134 0;
#X connect 28 0 132 0;
#X connect 28 0 30 0;
#X connect 28 0 134 0;
#X connect 31 0 28 0;
#X connect 32 0 33 0;
#X connect 32 0 31 0;
#X connect 32 0 25 0;
#X connect 34 0 66 0;
#X connect 34 0 18 0;
#X connect 34 0 78 0;
#X connect 34 0 73 0;
#X connect 34 0 88 0;
#X connect 35 0 34 1;
#X connect 36 0 37 0;
#X connect 37 0 38 0;
#X connect 37 0 39 0;
#X connect 37 0 41 0;
#X connect 37 0 42 0;
#X connect 37 0 43 0;
#X connect 37 0 44 0;
#X connect 37 0 45 0;
#X connect 37 0 58 0;
#X connect 38 0 46 0;
#X connect 38 0 53 0;
#X connect 39 0 47 0;
#X connect 39 0 53 0;
#X connect 40 0 34 1;
#X connect 41 0 48 0;
#X connect 41 0 53 0;
#X connect 42 0 46 0;
#X connect 42 0 49 0;
#X connect 43 0 47 0;
#X connect 43 0 49 0;
#X connect 44 0 61 0;
#X connect 44 0 131 0;
#X connect 45 0 49 0;
#X connect 45 0 48 0;
#X connect 46 0 35 0;
#X connect 46 0 34 2;
#X connect 46 0 69 0;
#X connect 46 0 71 0;
#X connect 46 0 75 0;
#X connect 46 0 64 0;
#X connect 46 0 89 0;
#X connect 46 0 135 0;
#X connect 47 0 40 0;
#X connect 47 0 34 2;
#X connect 47 0 72 0;
#X connect 47 0 74 0;
#X connect 47 0 64 0;
#X connect 47 0 89 0;
#X connect 47 0 117 0;
#X connect 48 0 75 0;
#X connect 48 0 86 0;
#X connect 48 0 64 0;
#X connect 48 0 135 0;
#X connect 48 0 72 0;
#X connect 48 0 35 0;
#X connect 48 0 69 0;
#X connect 49 0 56 0;
#X connect 50 0 60 0;
#X connect 51 0 50 0;
#X connect 52 0 119 0;
#X connect 52 0 122 0;
#X connect 52 0 138 0;
#X connect 53 0 55 0;
#X connect 55 0 57 1;
#X connect 56 0 57 1;
#X connect 57 0 61 0;
#X connect 57 0 125 0;
#X connect 57 0 131 0;
#X connect 58 0 64 0;
#X connect 58 0 135 0;
#X connect 60 0 34 0;
#X connect 61 0 60 1;
#X connect 64 0 60 1;
#X connect 64 0 136 0;
#X connect 68 0 69 0;
#X connect 69 0 76 1;
#X connect 69 0 34 2;
#X connect 69 0 91 1;
#X connect 69 0 34 3;
#X connect 69 0 98 0;
#X connect 69 0 154 0;
#X connect 69 0 155 0;
#X connect 70 0 68 1;
#X connect 71 0 78 1;
#X connect 72 0 78 1;
#X connect 73 0 121 0;
#X connect 73 0 76 0;
#X connect 74 0 73 1;
#X connect 74 0 34 1;
#X connect 75 0 73 1;
#X connect 76 0 123 0;
#X connect 76 0 139 0;
#X connect 77 0 101 0;
#X connect 77 0 109 0;
#X connect 78 0 52 0;
#X connect 79 0 57 0;
#X connect 79 0 110 0;
#X connect 79 0 91 0;
#X connect 81 0 57 0;
#X connect 81 0 120 0;
#X connect 81 0 34 4;
#X connect 86 0 88 1;
#X connect 88 0 141 0;
#X connect 88 0 148 0;
#X connect 89 0 88 1;
#X connect 91 0 118 0;
#X connect 91 0 140 0;
#X connect 91 0 34 2;
#X connect 92 0 94 0;
#X connect 92 0 116 0;
#X connect 93 0 51 0;
#X connect 93 0 101 0;
#X connect 93 0 102 0;
#X connect 93 0 115 0;
#X connect 93 0 130 0;
#X connect 94 0 112 0;
#X connect 94 0 117 0;
#X connect 96 0 50 1;
#X connect 100 0 94 0;
#X connect 101 0 109 0;
#X connect 109 0 68 0;
#X connect 115 0 111 0;
#X connect 115 0 94 1;
#X connect 117 0 99 0;
#X connect 117 0 52 1;
#X connect 117 0 34 4;
#X connect 117 0 124 0;
#X connect 117 0 141 1;
#X connect 126 0 100 0;
#X connect 127 0 21 0;
#X connect 127 0 26 0;
#X connect 127 0 32 0;
#X connect 127 0 96 0;
#X connect 128 0 92 0;
#X connect 128 0 100 0;
#X connect 128 0 113 0;
#X connect 129 0 70 0;
#X connect 129 0 77 0;
#X connect 130 0 94 0;
#X connect 131 0 9 0;
#X connect 132 0 9 0;
#X connect 133 0 9 0;
#X connect 134 0 105 0;
#X connect 134 0 9 0;
#X connect 135 0 9 0;
#X connect 137 0 27 0;
#X connect 138 0 79 0;
#X connect 139 0 81 0;
#X connect 141 0 144 0;
#X connect 141 0 145 0;
#X connect 141 0 146 0;
#X connect 142 0 143 0;
#X connect 142 0 40 0;
#X connect 146 0 142 0;
#X connect 148 0 151 0;
#X connect 148 0 152 0;
#X connect 149 0 150 0;
#X connect 149 0 35 0;
#X connect 149 0 57 0;
#X connect 152 0 149 0;
#X connect 155 0 148 1;
#X connect 157 0 103 0;
#X connect 157 0 127 0;
#X connect 159 0 129 0;
#X connect 161 0 114 0;
#X connect 161 0 128 0;
#X connect 163 0 36 0;
#X coords 0 679 1 678 85 60 0;
