#N canvas 161 192 1087 668 10;
#X floatatom 674 -279 5 0 0 0 - - -;
#X obj 637 -193 !=;
#X obj 683 -231 int 0;
#X obj 639 35 counter;
#X obj 592 213 t b;
#X obj 592 158 spigot 1;
#X obj 592 -139 spigot 1;
#X msg 1005 -63 1;
#X msg 913 -101 0;
#X msg 679 124 0;
#X msg 638 122 1;
#X text 380 -259 Detector de cambio de valor;
#X text 609 -319 comment;
#X floatatom 579 339 5 0 0 0 - - -;
#X obj 622 337 outlet;
#X obj 622 282 int;
#X obj 676 341 bng 15 250 50 0 empty empty empty 17 7 0 10 -262144
-1 -1;
#X obj 622 243 spigot;
#X msg 656 189 1;
#X msg 701 244 0;
#X text 805 84 Detector Anti rebotes Bang;
#X floatatom 526 52 5 0 0 0 - - -;
#X text 803 112 Deja pasar el primer bang y corta 10 ms el canal.;
#X obj 639 -47 metro 10;
#X obj 773 -292 loadbang;
#X floatatom 538 -122 5 0 0 0 - - -;
#X floatatom 674 -175 5 0 0 0 - - -;
#X floatatom 509 -211 5 0 0 0 - - -;
#X floatatom 738 -214 5 0 0 0 - - -;
#X obj 578 -229 pipe 1;
#X obj 624 -296 inlet;
#X obj 639 83 select 2;
#X connect 1 0 6 1;
#X connect 1 0 26 0;
#X connect 2 0 28 0;
#X connect 2 0 1 0;
#X connect 3 0 21 0;
#X connect 3 0 31 0;
#X connect 4 0 7 0;
#X connect 4 0 9 0;
#X connect 5 0 4 0;
#X connect 5 0 18 0;
#X connect 6 0 5 0;
#X connect 6 0 25 0;
#X connect 7 0 3 2;
#X connect 7 0 23 0;
#X connect 8 0 3 2;
#X connect 8 0 23 0;
#X connect 9 0 5 1;
#X connect 10 0 5 1;
#X connect 15 0 14 0;
#X connect 15 0 16 0;
#X connect 15 0 13 0;
#X connect 17 0 19 0;
#X connect 17 0 15 0;
#X connect 18 0 17 1;
#X connect 19 0 17 1;
#X connect 23 0 3 0;
#X connect 24 0 2 0;
#X connect 29 0 6 0;
#X connect 29 0 27 0;
#X connect 29 0 1 1;
#X connect 30 0 2 0;
#X connect 30 0 0 0;
#X connect 30 0 17 0;
#X connect 30 0 29 0;
#X connect 31 0 7 0;
#X connect 31 0 8 0;
#X connect 31 0 10 0;
