#N canvas 0 25 1272 689 10;
#X floatatom 905 -220 5 0 0 0 - - -;
#X obj 637 -193 !=;
#X obj 682 -244 int 0;
#X obj 524 -74 counter;
#X obj 538 36 t b;
#X obj 469 -150 metro 20;
#X obj 592 39 spigot 1;
#X obj 592 -124 spigot 1;
#X msg 382 -106 1;
#X msg 384 -72 0;
#X msg 706 -11 0;
#X msg 643 -9 1;
#X text 198 -97 Detector Anti rebotes Bang;
#X text 380 -259 Detector de cambio de valor;
#X obj 562 -252 pipe 60;
#X obj 623 -296 inlet;
#X text 609 -319 comment;
#X floatatom 579 220 5 0 0 0 - - -;
#X obj 622 218 outlet;
#X obj 622 163 int;
#X obj 676 222 bng 15 250 50 0 empty empty empty 17 7 0 10 -262144
-1 -1;
#X obj 525 -37 select 10;
#X obj 622 124 spigot;
#X msg 656 70 1;
#X msg 713 128 0;
#X connect 1 0 7 1;
#X connect 2 0 1 1;
#X connect 3 0 21 0;
#X connect 4 0 8 0;
#X connect 4 0 10 0;
#X connect 5 0 3 0;
#X connect 6 0 4 0;
#X connect 6 0 23 0;
#X connect 7 0 6 0;
#X connect 8 0 3 2;
#X connect 8 0 5 0;
#X connect 9 0 5 0;
#X connect 9 0 3 2;
#X connect 10 0 6 1;
#X connect 11 0 6 1;
#X connect 14 0 1 0;
#X connect 14 0 7 0;
#X connect 15 0 14 0;
#X connect 15 0 2 0;
#X connect 15 0 0 0;
#X connect 15 0 22 0;
#X connect 19 0 18 0;
#X connect 19 0 20 0;
#X connect 19 0 17 0;
#X connect 21 0 8 0;
#X connect 21 0 9 0;
#X connect 21 0 11 0;
#X connect 22 0 24 0;
#X connect 22 0 19 0;
#X connect 23 0 22 1;
#X connect 24 0 22 1;
