#N canvas 683 356 589 337 10;
#X declare -lib zexy;
#X declare -lib cyclone;
#X declare -lib cyclone;
#X declare -lib zexy;
#X declare -lib cyclone;
#X declare -lib cyclone;
#X declare -lib Gem;
#X obj 273 -116 media_1;
#X msg 438 -238 color 0 0 0;
#X msg 337 -238 dimen 320 200;
#X msg 523 -239 create;
#X msg 581 -238 destroy;
#X msg 654 -237 reset;
#X obj 472 -165 gemwin;
#X obj 286 -238 tgl 15 1 empty empty Go! 17 7 0 10 -260097 -1 -260097
0 1;
#X obj 286 -165 dmx;
#X obj 345 -73 video_2;
#X obj 345 -117 media_2;
#X obj 273 -73 video_1;
#X obj 193 -115 fondo;
#X text 204 -240 Pinchar para renderizar y leer DMX;
#X connect 0 0 11 0;
#X connect 1 0 6 0;
#X connect 2 0 6 0;
#X connect 3 0 6 0;
#X connect 4 0 6 0;
#X connect 5 0 6 0;
#X connect 7 0 6 0;
#X connect 7 0 8 0;
#X connect 10 0 9 0;
