#N canvas 480 187 695 440 10;
#X declare -lib cyclone;
#X declare -lib zexy;
#X declare -lib cyclone;
#X declare -lib Gem;
#X obj 170 -192 video_1;
#X obj 171 -222 media_1;
#X obj -26 -243 import Gem;
#X msg 431 -180 color 0 0 0;
#X msg 332 -181 dimen 320 200;
#X msg 528 -179 create;
#X msg 591 -176 destroy;
#X msg 663 -177 reset;
#X obj 523 -106 gemwin;
#X obj 977 -162 color 0 0 0;
#X obj 986 -207 alpha;
#X obj 988 -6 pix_alpha;
#X obj 987 38 rectangle 8 6;
#X obj 270 -70 artnetin;
#X obj 270 -98 metro 50;
#X obj 270 -253 tgl 15 0 empty empty empty 17 7 0 10 -262144 -1 -1
1 1;
#X floatatom 528 228 5 0 0 0 - - -;
#X obj 581 136 unpack f f f f f f f f f f f f f f f f f f f f f f f
f f f f f f f f f;
#X obj 527 253 s c33;
#X obj 562 230 s c34;
#X obj 596 231 s c35;
#X obj 610 253 s c36;
#X obj 623 283 s c37;
#X obj 634 315 s c38;
#X obj 645 344 s c39;
#X obj 659 374 s c40;
#X obj 668 230 s c41;
#X obj 679 256 s c42;
#X obj 691 285 s c43;
#X obj 703 314 s c44;
#X obj 715 342 s c45;
#X obj 728 374 s c46;
#X obj 738 232 s c47;
#X obj 749 257 s c48;
#X obj 762 286 s c49;
#X obj 775 315 s c50;
#X obj 787 346 s c51;
#X obj 800 376 s c52;
#X obj 810 238 s c53;
#X obj 822 262 s c54;
#X obj 834 290 s c55;
#X obj 846 319 s c56;
#X obj 858 350 s c57;
#X obj 870 379 s c58;
#X obj 882 235 s c59;
#X obj 894 257 s c60;
#X obj 907 287 s c61;
#X obj 919 315 s c62;
#X obj 936 343 s c63;
#X obj 965 375 s c64;
#X obj 271 -43 list split 32;
#X obj 583 86 list split 32;
#X floatatom 12 179 5 0 0 0 - - -;
#X obj 8 208 s c1;
#X obj 49 209 s c2;
#X obj 6 275 s c3;
#X obj 123 239 s c5;
#X obj 134 271 s c6;
#X obj 145 300 s c7;
#X obj 159 330 s c8;
#X obj 168 186 s c9;
#X obj 179 212 s c10;
#X obj 191 241 s c11;
#X obj 203 270 s c12;
#X obj 215 298 s c13;
#X obj 228 330 s c14;
#X obj 238 188 s c15;
#X obj 249 213 s c16;
#X obj 262 242 s c17;
#X obj 275 271 s c18;
#X obj 287 302 s c19;
#X obj 300 332 s c20;
#X obj 310 194 s c21;
#X obj 322 218 s c22;
#X obj 334 246 s c23;
#X obj 346 275 s c24;
#X obj 358 306 s c25;
#X obj 370 335 s c26;
#X obj 394 213 s c28;
#X obj 382 191 s c27;
#X obj 407 243 s c29;
#X obj 419 271 s c30;
#X obj 73 141 unpack f f f f f f f f f f f f f f f f f f f f f f f
f f f f f f f f f;
#X obj 436 299 s c31;
#X obj 465 331 s c32;
#X floatatom 49 180 5 0 0 0 - - -;
#X floatatom 6 244 5 0 0 0 - - -;
#X text 28 26 1 Alpha - Dimmer 2 Rojo 3 Verde 4 Azul 5 Speed 6 Directorio
7 Archivo 8 tipo Media;
#X floatatom 47 244 5 0 0 0 - - -;
#X obj 47 276 s c4;
#X floatatom 993 -115 5 0 0 0 - - -;
#X floatatom 1055 -105 5 0 0 0 - - -;
#X obj 989 -242 gemhead 10;
#X obj 1078 -140 tgl 15 0 empty empty empty 17 7 0 10 -262144 -1 -1
0 1;
#X obj 1112 -135 tgl 15 0 empty empty empty 17 7 0 10 -262144 -1 -1
0 1;
#X msg 1149 52 0 0 0;
#X msg 1092 -58 0 0 0;
#X msg 1168 -59 1 1 1;
#X msg 1148 14 1 1 1;
#X text 25 -124 Hace falta meter esto en un subpatch por limpieza;
#X text 296 -251 Pinchar para leer ArtNet y renderizar \; antes hay
que crear la ventana \; hay que encontrar un método más elegante;
#X text 972 -264 Pantalla fondo Negra Meter en subpatch?;
#X connect 1 0 0 0;
#X connect 3 0 8 0;
#X connect 4 0 8 0;
#X connect 5 0 8 0;
#X connect 6 0 8 0;
#X connect 7 0 8 0;
#X connect 9 0 11 0;
#X connect 10 0 9 0;
#X connect 11 0 12 0;
#X connect 13 0 50 0;
#X connect 14 0 13 0;
#X connect 15 0 14 0;
#X connect 15 0 8 0;
#X connect 16 0 18 0;
#X connect 17 0 16 0;
#X connect 17 1 19 0;
#X connect 17 2 20 0;
#X connect 17 3 21 0;
#X connect 17 4 22 0;
#X connect 17 5 23 0;
#X connect 17 6 24 0;
#X connect 17 7 25 0;
#X connect 17 8 26 0;
#X connect 17 9 27 0;
#X connect 17 10 28 0;
#X connect 17 11 29 0;
#X connect 17 12 30 0;
#X connect 17 13 31 0;
#X connect 17 14 32 0;
#X connect 17 15 33 0;
#X connect 17 16 34 0;
#X connect 17 17 35 0;
#X connect 17 18 36 0;
#X connect 17 19 37 0;
#X connect 17 20 38 0;
#X connect 17 21 39 0;
#X connect 17 22 40 0;
#X connect 17 23 41 0;
#X connect 17 24 42 0;
#X connect 17 25 43 0;
#X connect 17 26 44 0;
#X connect 17 27 45 0;
#X connect 17 28 46 0;
#X connect 17 29 47 0;
#X connect 17 30 48 0;
#X connect 17 31 49 0;
#X connect 50 0 82 0;
#X connect 50 1 51 0;
#X connect 51 0 17 0;
#X connect 52 0 53 0;
#X connect 82 0 52 0;
#X connect 82 1 85 0;
#X connect 82 2 86 0;
#X connect 82 3 88 0;
#X connect 82 4 56 0;
#X connect 82 5 57 0;
#X connect 82 6 58 0;
#X connect 82 7 59 0;
#X connect 82 8 60 0;
#X connect 82 9 61 0;
#X connect 82 10 62 0;
#X connect 82 11 63 0;
#X connect 82 12 64 0;
#X connect 82 13 65 0;
#X connect 82 14 66 0;
#X connect 82 15 67 0;
#X connect 82 16 68 0;
#X connect 82 17 69 0;
#X connect 82 18 70 0;
#X connect 82 19 71 0;
#X connect 82 20 72 0;
#X connect 82 21 73 0;
#X connect 82 22 74 0;
#X connect 82 23 75 0;
#X connect 82 24 76 0;
#X connect 82 25 77 0;
#X connect 82 26 79 0;
#X connect 82 27 78 0;
#X connect 82 28 80 0;
#X connect 82 29 81 0;
#X connect 82 30 83 0;
#X connect 82 31 84 0;
#X connect 85 0 54 0;
#X connect 86 0 55 0;
#X connect 88 0 89 0;
#X connect 90 0 11 1;
#X connect 91 0 11 2;
#X connect 92 0 10 0;
#X connect 93 0 90 0;
#X connect 94 0 91 0;
#X connect 95 0 11 4;
#X connect 96 0 11 3;
#X connect 97 0 11 3;
#X connect 98 0 11 4;
