#N canvas 486 25 764 668 10;
#X declare -lib zexy;
#X declare -lib cyclone;
#X declare -lib zexy;
#X declare -lib cyclone;
#X declare -lib cyclone;
#X declare -lib zexy;
#X declare -lib Gem;
#X declare -lib zexy;
#X declare -lib cyclone;
#X obj 544 74 media_1;
#X msg 1034 -158 color 0 0 0;
#X msg 1101 -87 dimen 320 200;
#X msg 281 -163 create;
#X msg 863 -159 destroy;
#X msg 665 -160 reset;
#X obj 718 70 media_2;
#X obj 544 117 video_1;
#X obj 227 -37 pipe 500;
#X msg 726 -159 print;
#X obj 506 -205 tgl 15 0 empty empty empty 17 7 0 10 -262144 -1 -1
0 1;
#X msg 506 -160 border \$1;
#X msg 405 -160 fullscreen \$1;
#X msg 579 -160 topmost \$1;
#X obj 579 -204 tgl 15 0 empty empty empty 17 7 0 10 -262144 -1 -1
0 1;
#X floatatom 414 -306 5 0 0 0 - - -;
#X msg 113 -50 1;
#X obj 863 -199 select 27;
#X obj 34 -208 select 115;
#X msg 34 -52 0;
#X msg 1104 -120 dimen 1280 768;
#X text 42 -188 s;
#X text 870 -217 Escape;
#X obj 200 -202 select 99;
#X obj 405 -236 select 102;
#X msg 405 -190 1;
#X msg 932 -160 offset 1280 0;
#X text 918 -176 Escritorio extendido;
#X obj 665 -198 select 114;
#X obj 113 -205 select 97;
#X text 120 -182 a;
#X obj 732 -360 gemkeyboard;
#X msg 340 -162 cursor 0;
#X floatatom 732 -321 5 0 0 0 - - -;
#X obj 864 -253 select 9;
#X obj 580 -15 gemwin 25;
#X obj 113 -159 select 38;
#X text 377 11 A para renderizar Escape destruye la ventana de video
S para la renderizacion C para crear la pantalla f pantalla completa
R resetea propiedades graficas;
#X obj 34 -165 select 39;
#X text 242 -220 c;
#X obj 8 -345 loadbang;
#X obj 475 116 imagen_1;
#X obj 226 165 tgl 50 1 empty empty Go! 17 7 0 25 -232576 -1 -260097
1 1;
#X obj 411 74 fondo;
#X obj 602 117 texto_1;
#X obj 226 253 dmx;
#X obj 269 257 manualx;
#X obj 395 -362 key;
#X text 324 258 Quitar la x final (dejar en "manual") y renombrar dmx
para tener acceso al control mediante una pantalla de faders. Solo
la capa 1 de momento.;
#X obj 772 120 texto_2;
#X obj 660 118 imagen_2;
#X obj 718 119 video_2;
#X connect 0 0 7 0;
#X connect 1 0 35 0;
#X connect 2 0 35 0;
#X connect 3 0 35 0;
#X connect 4 0 35 0;
#X connect 5 0 35 0;
#X connect 6 0 51 0;
#X connect 8 0 35 0;
#X connect 9 0 35 0;
#X connect 10 0 11 0;
#X connect 11 0 35 0;
#X connect 12 0 35 0;
#X connect 13 0 35 0;
#X connect 14 0 13 0;
#X connect 16 0 42 0;
#X connect 17 0 4 0;
#X connect 18 0 19 0;
#X connect 19 0 42 0;
#X connect 20 0 35 0;
#X connect 23 0 3 0;
#X connect 23 0 16 0;
#X connect 24 0 25 0;
#X connect 24 0 32 0;
#X connect 25 0 12 0;
#X connect 26 0 35 0;
#X connect 28 0 5 0;
#X connect 29 0 16 0;
#X connect 31 0 33 0;
#X connect 31 0 34 0;
#X connect 31 0 36 0;
#X connect 31 0 38 0;
#X connect 32 0 35 0;
#X connect 34 0 4 0;
#X connect 36 0 16 0;
#X connect 38 0 19 0;
#X connect 40 0 19 0;
#X connect 42 0 8 0;
#X connect 42 0 45 0;
#X connect 47 0 15 0;
#X connect 47 0 17 0;
#X connect 47 0 18 0;
#X connect 47 0 23 0;
#X connect 47 0 28 0;
#X connect 47 0 29 0;
#X connect 47 0 24 0;
