#N canvas 0 25 1272 689 10;
#X declare -lib zexy;
#X declare -lib cyclone;
#X declare -lib zexy;
#X declare -lib cyclone;
#X declare -lib Gem;
#X declare -lib cyclone;
#X declare -lib cyclone;
#X obj 902 111 media_1;
#X msg 1034 -158 color 0 0 0;
#X msg 1101 -87 dimen 320 200;
#X msg 281 -163 create;
#X msg 863 -159 destroy;
#X msg 665 -160 reset;
#X obj 226 165 tgl 50 1 empty empty Go! 17 7 0 25 -232576 -1 -260097
1 1;
#X obj 226 257 dmx;
#X obj 1077 156 video_2;
#X obj 1076 107 media_2;
#X obj 902 154 video_1;
#X obj 851 112 fondo;
#X obj 227 -37 pipe 500;
#X msg 726 -159 print;
#X obj 506 -205 tgl 15 0 empty empty empty 17 7 0 10 -262144 -1 -1
0 1;
#X msg 506 -160 border \$1;
#X msg 405 -160 fullscreen \$1;
#X msg 579 -160 topmost \$1;
#X obj 579 -204 tgl 15 0 empty empty empty 17 7 0 10 -262144 -1 -1
0 1;
#X floatatom 414 -306 5 0 0 0 - - -;
#X msg 113 -50 1;
#X obj 863 -199 select 27;
#X obj 34 -208 select 115;
#X msg 34 -52 0;
#X msg 1104 -120 dimen 1280 768;
#X text 42 -188 s;
#X text 870 -217 Escape;
#X obj 200 -202 select 99;
#X obj 405 -236 select 102;
#X msg 405 -190 1;
#X msg 932 -160 offset 1280 0;
#X text 918 -176 Escritorio extendido;
#X obj 665 -198 select 114;
#X obj 113 -205 select 97;
#X text 120 -182 a;
#X obj 732 -360 gemkeyboard;
#X msg 340 -162 cursor 0;
#X floatatom 732 -321 5 0 0 0 - - -;
#X obj 864 -253 select 9;
#X obj 580 -15 gemwin 25;
#X obj 113 -159 select 38;
#X obj 395 -362 key;
#X obj 963 155 pix_film_player_1;
#X text 450 53 A para renderizar Escape destruye la ventana de video
S para la renderizacion C para crear la pantalla f pantalla completa
R resetea propiedades graficas;
#X obj 1147 154 pix_film_player_2;
#X obj 34 -165 select 39;
#X text 242 -220 c;
#X connect 0 0 10 0;
#X connect 1 0 39 0;
#X connect 2 0 39 0;
#X connect 3 0 39 0;
#X connect 4 0 39 0;
#X connect 5 0 39 0;
#X connect 6 0 7 0;
#X connect 6 0 12 0;
#X connect 8 0 44 0;
#X connect 9 0 8 0;
#X connect 10 0 42 0;
#X connect 12 0 39 0;
#X connect 13 0 39 0;
#X connect 14 0 15 0;
#X connect 15 0 39 0;
#X connect 16 0 39 0;
#X connect 17 0 39 0;
#X connect 18 0 17 0;
#X connect 20 0 6 0;
#X connect 21 0 4 0;
#X connect 22 0 23 0;
#X connect 23 0 6 0;
#X connect 24 0 39 0;
#X connect 27 0 3 0;
#X connect 27 0 20 0;
#X connect 28 0 29 0;
#X connect 28 0 36 0;
#X connect 29 0 16 0;
#X connect 30 0 39 0;
#X connect 32 0 5 0;
#X connect 33 0 20 0;
#X connect 35 0 37 0;
#X connect 35 0 38 0;
#X connect 35 0 40 0;
#X connect 35 0 45 0;
#X connect 36 0 39 0;
#X connect 38 0 4 0;
#X connect 40 0 20 0;
#X connect 41 0 19 0;
#X connect 41 0 21 0;
#X connect 41 0 22 0;
#X connect 41 0 27 0;
#X connect 41 0 32 0;
#X connect 41 0 33 0;
#X connect 41 0 28 0;
#X connect 42 0 10 1;
#X connect 44 0 8 1;
#X connect 45 0 23 0;
