#N canvas 606 431 641 300 10;
#X obj 18 233 s c1;
#X obj 48 233 s c2;
#X obj 81 234 s c3;
#X obj 149 237 s c5;
#X obj 180 235 s c6;
#X obj 115 236 s c4;
#X obj 18 29 vsl 15 128 0 255 0 0 empty empty Alpha 0 -9 0 10 -191407
-1 -1 12700 1;
#X obj 48 45 vsl 15 128 0 255 0 0 empty empty Red 0 -9 0 10 -258113
-1 -258113 7000 1;
#X obj 81 54 vsl 15 128 0 255 0 1 empty empty Green 0 -9 0 10 -4034
-1 -1 7500 1;
#X obj 115 57 vsl 15 128 0 255 0 0 empty empty Blue 0 -9 0 10 -4160
-1 -1 7900 1;
#X obj 149 60 vsl 15 128 0 255 0 0 empty empty Speed 0 -9 0 10 -261234
-1 -1 700 1;
#X obj 180 32 vsl 15 128 0 10 0 0 empty empty Directorio 0 -9 0 10
-261234 -1 -1 1000 1;
#X obj 18 201 int;
#X obj 81 200 int;
#X obj 48 201 int;
#X obj 115 203 int;
#X obj 180 202 int;
#X obj 149 203 int;
#X obj 221 45 vsl 15 128 0 255 0 0 empty empty Fichero 0 -9 0 10 -261234
-1 -1 0 1;
#X obj 251 58 vsl 15 128 0 255 0 0 empty empty Media 0 -9 0 10 -261234
-1 -1 3400 1;
#X obj 284 19 vsl 15 128 0 255 0 0 empty empty Reproduc 0 -9 0 10 -261234
-1 -1 3600 1;
#X obj 318 32 vsl 15 128 0 255 0 0 empty empty inicio_loop 0 -9 0 10
-203904 -1 -1 0 1;
#X obj 350 50 vsl 15 128 0 255 0 0 empty empty Fin_loop 0 -9 0 10 -203904
-1 -1 12700 1;
#X obj 383 61 vsl 15 128 0 255 0 0 empty empty RotX 0 -9 0 10 -204786
-1 -1 0 1;
#X obj 221 202 int;
#X obj 284 201 int;
#X obj 251 202 int;
#X obj 318 204 int;
#X obj 383 203 int;
#X obj 350 204 int;
#X obj 428 64 vsl 15 128 0 255 0 0 empty empty RotY 0 -9 0 10 -204786
-1 -1 0 1;
#X obj 458 66 vsl 15 128 0 255 0 0 empty empty RotZ 0 -9 0 10 -204786
-1 -1 0 1;
#X obj 491 67 vsl 15 128 0 255 0 0 empty empty Size 0 -9 0 10 -204786
-1 -1 1200 1;
#X obj 525 66 vsl 15 128 0 255 0 0 empty empty empty 0 -9 0 10 -262144
-1 -1 0 1;
#X obj 559 69 vsl 15 128 0 255 0 0 empty empty empty 0 -9 0 10 -262144
-1 -1 0 1;
#X obj 593 68 vsl 15 128 0 255 0 0 empty empty empty 0 -9 0 10 -262144
-1 -1 0 1;
#X obj 428 210 int;
#X obj 491 209 int;
#X obj 458 210 int;
#X obj 527 212 int;
#X obj 590 211 int;
#X obj 557 212 int;
#X obj 642 67 vsl 15 128 0 255 0 0 empty empty empty 0 -9 0 10 -262144
-1 -1 0 1;
#X obj 672 68 vsl 15 128 0 255 0 0 empty empty empty 0 -9 0 10 -262144
-1 -1 0 1;
#X obj 705 69 vsl 15 128 0 255 0 0 empty empty empty 0 -9 0 10 -262144
-1 -1 0 1;
#X obj 739 68 vsl 15 128 0 255 0 0 empty empty empty 0 -9 0 10 -262144
-1 -1 0 1;
#X obj 773 71 vsl 15 128 0 255 0 0 empty empty empty 0 -9 0 10 -262144
-1 -1 0 1;
#X obj 807 70 vsl 15 128 0 255 0 0 empty empty empty 0 -9 0 10 -262144
-1 -1 0 1;
#X obj 642 212 int;
#X obj 705 211 int;
#X obj 672 212 int;
#X obj 741 214 int;
#X obj 804 213 int;
#X obj 771 214 int;
#X obj 848 69 vsl 15 128 0 255 0 0 empty empty empty 0 -9 0 10 -262144
-1 -1 0 1;
#X obj 878 70 vsl 15 128 0 255 0 0 empty empty empty 0 -9 0 10 -262144
-1 -1 0 1;
#X obj 911 71 vsl 15 128 0 255 0 0 empty empty empty 0 -9 0 10 -262144
-1 -1 0 1;
#X obj 945 70 vsl 15 128 0 255 0 0 empty empty empty 0 -9 0 10 -262144
-1 -1 0 1;
#X obj 979 73 vsl 15 128 0 255 0 0 empty empty empty 0 -9 0 10 -262144
-1 -1 0 1;
#X obj 1013 72 vsl 15 128 0 255 0 0 empty empty empty 0 -9 0 10 -262144
-1 -1 0 1;
#X obj 848 214 int;
#X obj 911 213 int;
#X obj 878 214 int;
#X obj 947 216 int;
#X obj 1010 215 int;
#X obj 977 216 int;
#X obj 1049 65 vsl 15 128 0 255 0 0 empty empty empty 0 -9 0 10 -262144
-1 -1 0 1;
#X obj 1083 64 vsl 15 128 0 255 0 0 empty empty empty 0 -9 0 10 -262144
-1 -1 0 1;
#X obj 1080 207 int;
#X obj 1047 208 int;
#X obj 221 234 s c7;
#X obj 251 234 s c8;
#X obj 284 235 s c9;
#X obj 318 237 s c10;
#X obj 350 238 s c11;
#X obj 383 237 s c12;
#X obj 428 242 s c13;
#X obj 458 242 s c14;
#X obj 491 243 s c15;
#X obj 525 245 s c16;
#X obj 559 246 s c17;
#X obj 593 248 s c18;
#X obj 642 244 s c19;
#X obj 672 244 s c20;
#X obj 705 245 s c21;
#X obj 739 247 s c22;
#X obj 773 248 s c23;
#X obj 807 250 s c24;
#X obj 848 246 s c25;
#X obj 878 246 s c26;
#X obj 911 247 s c27;
#X obj 945 249 s c28;
#X obj 979 250 s c29;
#X obj 1013 252 s c30;
#X obj 1049 242 s c31;
#X obj 1083 244 s c32;
#X floatatom 181 269 5 0 0 0 - - -;
#X floatatom 224 268 5 0 0 0 - - -;
#X floatatom 267 271 5 0 0 0 - - -;
#X floatatom 311 269 5 0 0 0 - - -;
#X connect 6 0 12 0;
#X connect 7 0 14 0;
#X connect 8 0 13 0;
#X connect 9 0 15 0;
#X connect 10 0 17 0;
#X connect 11 0 16 0;
#X connect 12 0 0 0;
#X connect 13 0 2 0;
#X connect 14 0 1 0;
#X connect 15 0 5 0;
#X connect 16 0 4 0;
#X connect 16 0 96 0;
#X connect 17 0 3 0;
#X connect 18 0 24 0;
#X connect 19 0 26 0;
#X connect 20 0 25 0;
#X connect 21 0 27 0;
#X connect 22 0 29 0;
#X connect 23 0 28 0;
#X connect 24 0 70 0;
#X connect 24 0 97 0;
#X connect 25 0 72 0;
#X connect 25 0 99 0;
#X connect 26 0 71 0;
#X connect 26 0 98 0;
#X connect 27 0 73 0;
#X connect 28 0 75 0;
#X connect 29 0 74 0;
#X connect 30 0 36 0;
#X connect 31 0 38 0;
#X connect 32 0 37 0;
#X connect 33 0 39 0;
#X connect 34 0 41 0;
#X connect 35 0 40 0;
#X connect 36 0 76 0;
#X connect 37 0 78 0;
#X connect 38 0 77 0;
#X connect 39 0 79 0;
#X connect 40 0 81 0;
#X connect 41 0 80 0;
#X connect 42 0 48 0;
#X connect 43 0 50 0;
#X connect 44 0 49 0;
#X connect 45 0 51 0;
#X connect 46 0 53 0;
#X connect 47 0 52 0;
#X connect 48 0 82 0;
#X connect 49 0 84 0;
#X connect 50 0 83 0;
#X connect 51 0 85 0;
#X connect 52 0 87 0;
#X connect 53 0 86 0;
#X connect 54 0 60 0;
#X connect 55 0 62 0;
#X connect 56 0 61 0;
#X connect 57 0 63 0;
#X connect 58 0 65 0;
#X connect 59 0 64 0;
#X connect 60 0 88 0;
#X connect 61 0 90 0;
#X connect 62 0 89 0;
#X connect 63 0 91 0;
#X connect 64 0 93 0;
#X connect 65 0 92 0;
#X connect 66 0 69 0;
#X connect 67 0 68 0;
#X connect 68 0 95 0;
#X connect 69 0 94 0;
