#N canvas 508 25 764 668 10;
#X msg 415 377 font \$1;
#X msg 1132 525 justify left base;
#X obj 39 158 rotateXYZ;
#X obj 777 546 text3d;
#X floatatom 123 75 5 0 0 0 - - -;
#X obj 40 59 expr $f1 >= 50 && $f1<75;
#X obj 39 130 alpha;
#X obj 39 287 colorRGB;
#X obj 257 221 / 255;
#X obj 209 220 / 127;
#X obj 160 219 / 127;
#X obj 113 218 / 127;
#X text 160 173 Green;
#X text 118 172 Red;
#X text 210 174 Blue;
#X text 255 173 Alpha;
#X text 87 13 Tipo media;
#X text 412 94 Fuente;
#X text 939 88 Texto;
#X obj 642 209 expr $f1 < 25;
#X obj 785 207 expr $f1 >= 25 && $f1 <50;
#X obj 415 336 l2s /;
#X obj 415 248 config;
#X obj 415 299 pack s s;
#X obj 460 249 makefilename fonts/%d.ttf;
#X msg 642 287 text hello world!;
#X obj 955 208 expr $f1 >=50 && $f1<75;
#X obj 640 326 bng 15 250 50 0 empty empty empty 17 7 0 10 -262144
-1 -1;
#X obj 791 328 bng 15 250 50 0 empty empty empty 17 7 0 10 -262144
-1 -1;
#X obj 960 327 bng 15 250 50 0 empty empty empty 17 7 0 10 -262144
-1 -1;
#X floatatom 575 204 5 0 0 0 - - -;
#X obj 617 210 bng 15 250 50 0 empty empty empty 17 7 0 10 -262144
-1 -1;
#X floatatom 826 242 5 0 0 0 - - -;
#X obj 806 244 bng 15 250 50 0 empty empty empty 17 7 0 10 -262144
-1 -1;
#X floatatom 1037 233 5 0 0 0 - - -;
#X obj 1013 239 bng 15 250 50 0 empty empty empty 17 7 0 10 -262144
-1 -1;
#X obj 642 249 spigot;
#X obj 784 261 spigot;
#X obj 953 264 spigot;
#X obj 1117 325 bng 15 250 50 0 empty empty empty 17 7 0 10 -262144
-1 -1;
#X obj 1170 237 bng 15 250 50 0 empty empty empty 17 7 0 10 -262144
-1 -1;
#X obj 1110 262 spigot;
#X msg 1112 287 text Server;
#X obj 1112 206 expr $f1 >=75 && $f1<100;
#X msg 955 289 text Media;
#X obj 1283 324 bng 15 250 50 0 empty empty empty 17 7 0 10 -262144
-1 -1;
#X obj 1336 236 bng 15 250 50 0 empty empty empty 17 7 0 10 -262144
-1 -1;
#X obj 1276 261 spigot;
#X msg 1278 286 text Next;
#X obj 1278 205 expr $f1 >=100 && $f1<125;
#X obj 1450 323 bng 15 250 50 0 empty empty empty 17 7 0 10 -262144
-1 -1;
#X obj 1503 235 bng 15 250 50 0 empty empty empty 17 7 0 10 -262144
-1 -1;
#X obj 1443 260 spigot;
#X obj 1445 204 expr $f1 >=125 && $f1<150;
#X msg 1445 285 text Generation;
#X text 1315 412 Size;
#X obj 415 167 spigot;
#X floatatom 821 119 5 0 0 0 - - -;
#X obj 39 467 translateXYZ;
#X obj 77 376 / 25;
#X obj 75 413 - 5;
#X obj 138 379 / 25;
#X obj 138 411 - 5;
#X obj 194 379 / 25;
#X obj 194 417 - 5;
#X obj 214 136 * 1.5;
#X obj 161 131 * 1.5;
#X obj 108 132 * 1.5;
#X obj 1313 460 / 3;
#X msg 785 291 text Pure;
#X obj 40 10 r c40;
#X obj 162 95 r c44;
#X obj 207 95 r c45;
#X obj 415 110 r c38;
#X obj 77 328 r c50;
#X obj 138 328 r c51;
#X obj 194 326 r c52;
#X obj 943 105 r c39;
#X obj 1313 429 r c47;
#X obj 40 100 gemhead 20;
#X obj 114 188 r c34;
#X obj 160 189 r c35;
#X obj 209 190 r c36;
#X obj 257 191 r c33;
#X obj 415 198 cambio;
#X obj 252 96 r c46;
#X connect 0 0 3 0;
#X connect 1 0 3 0;
#X connect 2 0 7 0;
#X connect 5 0 4 0;
#X connect 5 0 56 1;
#X connect 5 0 79 0;
#X connect 6 0 2 0;
#X connect 7 0 58 0;
#X connect 8 0 7 4;
#X connect 9 0 7 3;
#X connect 10 0 7 2;
#X connect 11 0 7 1;
#X connect 19 0 30 0;
#X connect 19 0 31 0;
#X connect 19 0 36 1;
#X connect 19 0 36 0;
#X connect 20 0 32 0;
#X connect 20 0 33 0;
#X connect 20 0 37 1;
#X connect 20 0 37 0;
#X connect 21 0 0 0;
#X connect 22 0 23 0;
#X connect 23 0 21 0;
#X connect 24 0 23 1;
#X connect 25 0 3 0;
#X connect 25 0 27 0;
#X connect 26 0 35 0;
#X connect 26 0 34 0;
#X connect 26 0 38 1;
#X connect 26 0 38 0;
#X connect 36 0 25 0;
#X connect 37 0 69 0;
#X connect 38 0 44 0;
#X connect 41 0 42 0;
#X connect 42 0 39 0;
#X connect 42 0 3 0;
#X connect 43 0 40 0;
#X connect 43 0 41 1;
#X connect 43 0 41 0;
#X connect 44 0 3 0;
#X connect 44 0 29 0;
#X connect 47 0 48 0;
#X connect 48 0 45 0;
#X connect 48 0 3 0;
#X connect 49 0 46 0;
#X connect 49 0 47 1;
#X connect 49 0 47 0;
#X connect 52 0 54 0;
#X connect 53 0 51 0;
#X connect 53 0 52 1;
#X connect 53 0 52 0;
#X connect 54 0 50 0;
#X connect 54 0 3 0;
#X connect 56 0 84 0;
#X connect 58 0 3 0;
#X connect 59 0 60 0;
#X connect 60 0 58 1;
#X connect 61 0 62 0;
#X connect 62 0 58 2;
#X connect 63 0 64 0;
#X connect 64 0 58 3;
#X connect 65 0 2 3;
#X connect 66 0 2 2;
#X connect 67 0 2 1;
#X connect 68 0 3 1;
#X connect 69 0 3 0;
#X connect 69 0 28 0;
#X connect 70 0 5 0;
#X connect 71 0 67 0;
#X connect 72 0 66 0;
#X connect 73 0 56 0;
#X connect 74 0 59 0;
#X connect 75 0 61 0;
#X connect 76 0 63 0;
#X connect 77 0 19 0;
#X connect 77 0 20 0;
#X connect 77 0 26 0;
#X connect 77 0 43 0;
#X connect 77 0 49 0;
#X connect 77 0 53 0;
#X connect 77 0 57 0;
#X connect 78 0 68 0;
#X connect 79 0 6 0;
#X connect 80 0 11 0;
#X connect 81 0 10 0;
#X connect 82 0 9 0;
#X connect 83 0 8 0;
#X connect 84 0 22 0;
#X connect 84 0 24 0;
#X connect 85 0 65 0;
