#N canvas 468 23 795 668 10;
#X declare -lib cyclone;
#X obj 144 187 pix_film;
#X msg 25 21 open \$1;
#X obj 25 -120 inlet;
#X obj 166 232 unpack f f f;
#X obj 144 758 pix_texture;
#X obj 144 306 alpha;
#X obj 144 419 colorRGB;
#X obj 343 341 / 255;
#X obj 295 340 / 127;
#X obj 246 339 / 127;
#X obj 199 338 / 127;
#X obj 200 308 r c2;
#X obj 246 309 r c3;
#X obj 295 310 r c4;
#X obj 343 311 r c1;
#X obj 144 -27 gemhead;
#X obj 143 -115 r c8;
#X obj 143 -82 < 25;
#X obj 25 -24 spigot;
#X text 246 293 Green;
#X text 204 292 Red;
#X text 296 294 Blue;
#X text 341 293 Alpha;
#X text 835 -165 Speed;
#X text 125 -136 Tipo media;
#X text -3 -137 Archivo para abrir;
#X obj 196 112 pix_film_player_1;
#X obj 144 42 rotateXYZ;
#X obj 213 -27 r c12;
#X obj 258 -27 r c13;
#X obj 303 -26 r c14;
#X obj 144 571 translateXYZ;
#X obj 167 453 r c18;
#X obj 222 454 r c19;
#X obj 273 452 r c20;
#X obj 167 530 - 5;
#X obj 167 487 / 25;
#X obj 222 488 / 25;
#X obj 222 533 - 5;
#X obj 273 534 - 5;
#X obj 273 487 / 25;
#X obj 167 10 * 1.5;
#X obj 227 14 * 1.5;
#X obj 286 14 * 1.5;
#X obj 281 601 r c15;
#X obj 326 601 r c16;
#X obj 374 600 r c17;
#X obj 281 669 pack f f f;
#X obj 281 636 / 32;
#X obj 326 635 / 32;
#X obj 374 637 / 32;
#X msg 166 663 1;
#X obj 166 628 loadbang;
#X floatatom 338 129 5 0 0 0 - - -;
#X floatatom 268 249 5 0 0 0 - - -;
#X floatatom 220 -65 5 0 0 0 - - -;
#X floatatom 221 -98 5 0 0 0 - - -;
#X obj 144 801 rectangle 8 6;
#X obj 144 712 scale XYZ;
#X floatatom 471 701 5 0 0 0 - - -;
#X obj 422 701 t b;
#X obj 144 88 color 0 0 0;
#X obj 365 204 bng 15 250 50 0 empty empty empty 17 7 0 10 -262144
-1 -1;
#X connect 0 0 5 0;
#X connect 0 1 3 0;
#X connect 0 2 62 0;
#X connect 0 2 26 0;
#X connect 1 0 0 0;
#X connect 2 0 18 0;
#X connect 3 0 26 1;
#X connect 3 0 54 0;
#X connect 4 0 57 0;
#X connect 5 0 6 0;
#X connect 6 0 31 0;
#X connect 7 0 6 4;
#X connect 8 0 6 3;
#X connect 9 0 6 2;
#X connect 10 0 6 1;
#X connect 11 0 10 0;
#X connect 12 0 9 0;
#X connect 13 0 8 0;
#X connect 14 0 7 0;
#X connect 15 0 27 0;
#X connect 16 0 17 0;
#X connect 16 0 56 0;
#X connect 17 0 15 0;
#X connect 17 0 18 1;
#X connect 17 0 55 0;
#X connect 18 0 1 0;
#X connect 26 0 0 0;
#X connect 26 1 0 1;
#X connect 26 1 53 0;
#X connect 27 0 61 0;
#X connect 28 0 41 0;
#X connect 29 0 42 0;
#X connect 30 0 43 0;
#X connect 31 0 58 0;
#X connect 32 0 36 0;
#X connect 33 0 37 0;
#X connect 34 0 40 0;
#X connect 35 0 31 1;
#X connect 36 0 35 0;
#X connect 37 0 38 0;
#X connect 38 0 31 2;
#X connect 39 0 31 3;
#X connect 40 0 39 0;
#X connect 41 0 27 1;
#X connect 42 0 27 2;
#X connect 43 0 27 3;
#X connect 44 0 48 0;
#X connect 45 0 49 0;
#X connect 45 0 59 0;
#X connect 46 0 50 0;
#X connect 47 0 58 2;
#X connect 48 0 47 0;
#X connect 49 0 47 1;
#X connect 49 0 60 0;
#X connect 50 0 47 2;
#X connect 50 0 60 0;
#X connect 51 0 58 1;
#X connect 52 0 51 0;
#X connect 58 0 4 0;
#X connect 60 0 48 0;
#X connect 61 0 0 0;
