#N canvas 337 25 914 668 10;
#X declare -lib cyclone;
#X obj -45 156 pix_film;
#X msg 37 64 open \$1;
#X msg 99 100 auto \$1;
#X obj 99 28 tgl 40 1 empty empty empty 0 -6 0 8 -262144 -1 -1 0 1
;
#X obj 37 31 inlet;
#X obj 440 682 counter;
#X obj -23 185 unpack f f f;
#X obj -45 430 pix_texture;
#X obj 726 25 import cyclone;
#X obj -45 259 alpha;
#X obj -45 378 colorRGB;
#X obj -45 487 rectangle 8 6;
#X obj 152 296 / 255;
#X obj 104 295 / 127;
#X obj 55 294 / 127;
#X obj 8 293 / 127;
#X obj 9 263 r c2;
#X obj 55 264 r c3;
#X obj 104 265 r c4;
#X obj 152 266 r c1;
#X obj 247 686 s frame1;
#X obj 186 685 r frame1;
#X obj 501 199 r c5;
#X obj -45 55 gemhead 10;
#X obj 914 -10 r c9;
#X msg 471 605 0;
#X obj 914 56 / 25;
#X obj 914 90 int 0;
#X floatatom 674 128 5 0 0 0 - - -;
#X obj 731 128 select 0;
#X obj 802 128 select 1;
#X msg 510 607 1;
#X floatatom 469 199 5 0 0 0 - - -;
#X floatatom 469 294 5 0 0 0 - - -;
#X obj 865 129 select 2;
#X obj 924 131 select 3;
#X obj 990 131 select 4;
#X obj 1134 137 select 6;
#X obj 1067 136 select 5;
#X obj 749 274 t b;
#X obj 861 273 t b;
#X obj 1001 275 t b;
#X obj 1407 266 t b;
#X obj 455 497 metro 25;
#X msg 455 444 1;
#X obj 456 803 ==;
#X obj 1310 274 t b;
#X obj 406 809 bng 15 250 50 0 empty empty empty 17 7 0 10 -262144
-1 -1;
#X floatatom 422 809 5 0 0 0 - - -;
#X text 499 1195 Un solo disparo;
#X msg 1347 1104 0;
#X msg 1389 1107 1;
#X obj 607 1196 spigot;
#X obj 1203 134 select 7;
#X text 263 -30 0-10 Normal 11-20 Back 21-30 Ping-pong 31-40 Normal
una vez 41-50 Back una vez 51-60 Ping-Pong una vez 61-70 Stop/pause
71-80 Continue;
#X obj 592 1198 bng 15 250 50 0 empty empty empty 17 7 0 10 -262144
-1 -1;
#X obj 455 550 spigot 1;
#X msg 607 496 0;
#X text 451 533 play/pause;
#X text 638 499 Pause;
#X msg 533 497 1;
#X text 567 499 Play;
#X floatatom 412 720 5 0 0 0 - - -;
#X text 956 -13 Control y modos de reproduccion;
#X text 474 590 Modos del contador;
#X obj 320 304 *;
#X obj 320 70 r c10;
#X floatatom 272 87 5 0 0 0 - - -;
#X floatatom 250 267 5 0 0 0 - - -;
#X floatatom 269 136 5 0 0 0 - - -;
#X obj 302 138 bng 15 250 50 0 empty empty empty 17 7 0 10 -262144
-1 -1;
#X floatatom 254 321 5 0 0 0 - - -;
#X obj 277 296 bng 15 250 50 0 empty empty empty 17 7 0 10 -262144
-1 -1;
#X obj 320 399 int;
#X floatatom 274 399 5 0 0 0 - - -;
#X obj 305 400 bng 15 250 50 0 empty empty empty 17 7 0 10 -262144
-1 -1;
#X obj 239 321 bng 15 250 50 0 empty empty empty 17 7 0 10 -262144
-1 -1;
#X obj 320 122 cambio;
#X obj 367 201 int;
#X obj 455 858 spigot;
#X msg 520 887 1;
#X msg 551 887 0;
#X obj 742 917 spigot;
#X msg 836 891 1;
#X msg 873 891 0;
#X obj 742 835 ==;
#X obj 320 172 t b;
#X floatatom 392 218 5 0 0 0 - - -;
#X obj 331 202 int;
#X obj 271 218 bng 15 250 50 0 empty empty empty 17 7 0 10 -262144
-1 -1;
#X floatatom 238 218 5 0 0 0 - - -;
#X obj 726 918 bng 15 250 50 0 empty empty empty 17 7 0 10 -262144
-1 -1;
#X obj 726 853 bng 15 250 50 0 empty empty empty 17 7 0 10 -262144
-1 -1;
#X floatatom 424 856 5 0 0 0 - - -;
#X obj 408 856 bng 15 250 50 0 empty empty empty 17 7 0 10 -262144
-1 -1;
#X obj 455 914 spigot;
#X obj 407 913 bng 15 250 50 0 empty empty empty 17 7 0 10 -262144
-1 -1;
#X floatatom 423 913 5 0 0 0 - - -;
#X msg 501 857 0;
#X obj 455 963 t b;
#X text 483 964 Normal - Forward;
#X text 337 96 Inicio Loop;
#X obj 320 251 / 255;
#X obj 441 963 bng 15 250 50 0 empty empty empty 17 7 0 10 -262144
-1 -1;
#X obj 914 17 cambio;
#X obj 742 881 spigot;
#X obj 724 881 bng 15 250 50 0 empty empty empty 17 7 0 10 -262144
-1 -1;
#X obj 742 943 t b;
#X text 739 247 Normal;
#X text 857 249 Back;
#X text 1012 256 PingPong;
#X floatatom 694 852 5 0 0 0 - - -;
#X msg 798 864 0;
#X obj 439 497 bng 15 250 50 0 empty empty empty 17 7 0 10 -262144
-1 -1;
#X obj 439 550 bng 15 250 50 0 empty empty empty 17 7 0 10 -262144
-1 -1;
#X text 777 941 Back;
#X obj 727 942 bng 15 250 50 0 empty empty empty 17 7 0 10 -262144
-1 -1;
#X obj 291 362 bng 15 250 50 0 empty empty empty 17 7 0 10 -262144
-1 -1;
#X msg 1131 852 1;
#X obj 741 978 int;
#X obj 725 981 bng 15 250 50 0 empty empty empty 17 7 0 10 -262144
-1 -1;
#X floatatom 693 981 5 0 0 0 - - -;
#X text 345 401 Loop inferior;
#X obj 1091 908 spigot;
#X msg 1163 852 0;
#X text 1162 883 PingPong;
#X obj 455 1005 int;
#X floatatom 424 1005 5 0 0 0 - - -;
#X obj 1076 908 bng 15 250 50 0 empty empty empty 17 7 0 10 -262144
-1 -1;
#X obj 1091 940 int;
#X msg 1220 859 0;
#X obj 1076 940 bng 15 250 50 0 empty empty empty 17 7 0 10 -262144
-1 -1;
#X floatatom 1044 939 5 0 0 0 - - -;
#X msg 1021 845 1;
#X msg 1072 849 0;
#X obj 617 513 bng 15 250 50 0 empty empty empty 17 7 0 10 -262144
-1 -1;
#X obj 1132 1011 spigot;
#X msg 1208 978 1;
#X obj 1117 1011 bng 15 250 50 0 empty empty empty 17 7 0 10 -262144
-1 -1;
#X obj 564 66 r c11;
#X obj 564 95 cambio;
#X text 554 45 Final loop;
#X obj 564 125 t b;
#X obj 453 25 int;
#X text 425 6 futuro inlet;
#X obj 617 163 int;
#X obj 567 196 / 255;
#X obj 567 243 *;
#X obj 595 264 int;
#X text 615 278 loop superior;
#X obj 575 280 bng 15 250 50 0 empty empty empty 17 7 0 10 -262144
-1 -1;
#X floatatom 543 279 5 0 0 0 - - -;
#X floatatom 615 82 5 0 0 0 - - -;
#X floatatom 619 112 5 0 0 0 - - -;
#X floatatom 473 115 5 0 0 0 - - -;
#X floatatom 534 196 5 0 0 0 - - -;
#X floatatom 640 163 5 0 0 0 - - -;
#X floatatom 590 244 5 0 0 0 - - -;
#X obj 471 770 - 1;
#X floatatom 505 788 5 0 0 0 - - -;
#X obj 536 156 int;
#X obj 510 168 bng 15 250 50 0 empty empty empty 17 7 0 10 -262144
-1 -1;
#X floatatom 488 153 5 0 0 0 - - -;
#X obj 387 350 t b;
#X text 174 711 futuro inlet/outlet;
#X msg 1266 935 0;
#X obj 501 293 * 1;
#X connect 0 0 9 0;
#X connect 0 1 6 0;
#X connect 1 0 0 0;
#X connect 2 0 0 0;
#X connect 3 0 2 0;
#X connect 4 0 1 0;
#X connect 5 0 45 0;
#X connect 5 0 20 0;
#X connect 5 0 62 0;
#X connect 5 0 85 0;
#X connect 6 0 143 0;
#X connect 7 0 11 0;
#X connect 9 0 10 0;
#X connect 10 0 7 0;
#X connect 12 0 10 4;
#X connect 13 0 10 3;
#X connect 14 0 10 2;
#X connect 15 0 10 1;
#X connect 16 0 15 0;
#X connect 17 0 14 0;
#X connect 18 0 13 0;
#X connect 19 0 12 0;
#X connect 21 0 0 1;
#X connect 22 0 32 0;
#X connect 22 0 166 0;
#X connect 23 0 0 0;
#X connect 24 0 104 0;
#X connect 25 0 5 1;
#X connect 26 0 27 0;
#X connect 27 0 29 0;
#X connect 27 0 30 0;
#X connect 27 0 34 0;
#X connect 27 0 35 0;
#X connect 27 0 36 0;
#X connect 27 0 37 0;
#X connect 27 0 38 0;
#X connect 27 0 28 0;
#X connect 27 0 53 0;
#X connect 29 0 39 0;
#X connect 29 0 46 0;
#X connect 30 0 40 0;
#X connect 30 0 46 0;
#X connect 31 0 5 1;
#X connect 34 0 41 0;
#X connect 34 0 46 0;
#X connect 35 0 39 0;
#X connect 35 0 42 0;
#X connect 36 0 40 0;
#X connect 36 0 42 0;
#X connect 37 0 57 0;
#X connect 38 0 42 0;
#X connect 38 0 41 0;
#X connect 39 0 25 0;
#X connect 39 0 5 2;
#X connect 39 0 73 0;
#X connect 39 0 80 0;
#X connect 39 0 84 0;
#X connect 39 0 60 0;
#X connect 39 0 124 0;
#X connect 39 0 165 0;
#X connect 40 0 31 0;
#X connect 40 0 5 2;
#X connect 40 0 81 0;
#X connect 40 0 83 0;
#X connect 40 0 60 0;
#X connect 40 0 124 0;
#X connect 40 0 165 0;
#X connect 41 0 5 2;
#X connect 41 0 73 0;
#X connect 41 0 84 0;
#X connect 41 0 118 0;
#X connect 41 0 80 0;
#X connect 41 0 60 0;
#X connect 41 0 130 0;
#X connect 41 0 81 0;
#X connect 41 0 165 0;
#X connect 42 0 51 0;
#X connect 43 0 56 0;
#X connect 43 0 113 0;
#X connect 44 0 43 0;
#X connect 45 0 47 0;
#X connect 45 0 48 0;
#X connect 45 0 79 0;
#X connect 45 0 79 1;
#X connect 46 0 50 0;
#X connect 50 0 52 1;
#X connect 51 0 52 1;
#X connect 52 0 55 0;
#X connect 52 0 57 0;
#X connect 53 0 60 0;
#X connect 56 0 5 0;
#X connect 56 0 114 0;
#X connect 57 0 56 1;
#X connect 57 0 135 0;
#X connect 60 0 56 1;
#X connect 65 0 71 0;
#X connect 65 0 76 0;
#X connect 65 0 73 0;
#X connect 66 0 67 0;
#X connect 66 0 77 0;
#X connect 73 0 74 0;
#X connect 73 0 75 0;
#X connect 73 0 85 1;
#X connect 73 0 5 2;
#X connect 73 0 126 1;
#X connect 73 0 5 3;
#X connect 77 0 69 0;
#X connect 77 0 70 0;
#X connect 77 0 78 0;
#X connect 77 0 86 0;
#X connect 78 0 87 0;
#X connect 78 0 65 1;
#X connect 79 0 93 0;
#X connect 79 0 94 0;
#X connect 79 0 95 0;
#X connect 79 0 98 0;
#X connect 79 0 133 0;
#X connect 79 0 137 0;
#X connect 80 0 95 1;
#X connect 81 0 95 1;
#X connect 82 0 91 0;
#X connect 82 0 107 0;
#X connect 83 0 82 1;
#X connect 84 0 82 1;
#X connect 85 0 92 0;
#X connect 85 0 105 0;
#X connect 85 0 105 1;
#X connect 85 0 111 0;
#X connect 86 0 88 0;
#X connect 86 0 102 0;
#X connect 88 0 89 0;
#X connect 88 0 90 0;
#X connect 88 0 102 0;
#X connect 95 0 97 0;
#X connect 95 0 96 0;
#X connect 95 0 99 0;
#X connect 98 0 79 1;
#X connect 99 0 103 0;
#X connect 99 0 52 0;
#X connect 99 0 126 0;
#X connect 102 0 68 0;
#X connect 102 0 72 0;
#X connect 102 0 65 0;
#X connect 104 0 26 0;
#X connect 105 0 82 0;
#X connect 105 0 112 0;
#X connect 105 0 106 0;
#X connect 105 0 134 0;
#X connect 105 0 136 0;
#X connect 107 0 116 0;
#X connect 107 0 52 0;
#X connect 107 0 119 0;
#X connect 112 0 105 1;
#X connect 117 0 73 0;
#X connect 118 0 123 1;
#X connect 119 0 120 0;
#X connect 119 0 121 0;
#X connect 119 0 5 3;
#X connect 123 0 128 0;
#X connect 123 0 129 0;
#X connect 124 0 123 1;
#X connect 126 0 127 0;
#X connect 126 0 5 3;
#X connect 129 0 5 1;
#X connect 129 0 131 0;
#X connect 129 0 132 0;
#X connect 130 0 129 0;
#X connect 133 0 123 0;
#X connect 134 0 123 0;
#X connect 136 0 52 0;
#X connect 136 0 138 0;
#X connect 137 0 136 1;
#X connect 139 0 140 0;
#X connect 139 0 152 0;
#X connect 140 0 142 0;
#X connect 140 0 145 0;
#X connect 140 0 153 0;
#X connect 142 0 146 0;
#X connect 142 0 160 0;
#X connect 143 0 88 0;
#X connect 143 0 44 0;
#X connect 143 0 154 0;
#X connect 143 0 160 0;
#X connect 145 0 156 0;
#X connect 145 0 147 1;
#X connect 146 0 147 0;
#X connect 146 0 155 0;
#X connect 147 0 148 0;
#X connect 147 0 157 0;
#X connect 148 0 5 4;
#X connect 148 0 119 0;
#X connect 148 0 150 0;
#X connect 148 0 151 0;
#X connect 148 0 158 0;
#X connect 148 0 163 0;
#X connect 158 0 45 1;
#X connect 158 0 159 0;
#X connect 160 0 146 0;
#X connect 160 0 161 0;
#X connect 160 0 162 0;
#X connect 163 0 73 0;
#X connect 165 0 136 1;
#X connect 166 0 33 0;
#X connect 166 0 43 1;
