#N canvas 456 25 795 668 10;
#X declare -lib cyclone;
#X obj 144 203 pix_film;
#X msg -158 2 open \$1;
#X obj -159 -120 inlet;
#X obj 166 232 unpack f f f;
#X obj 144 477 pix_texture;
#X obj 144 306 alpha;
#X obj 144 425 colorRGB;
#X obj 144 534 rectangle 8 6;
#X obj 341 343 / 255;
#X obj 293 342 / 127;
#X obj 244 341 / 127;
#X obj 197 340 / 127;
#X obj 198 310 r c2;
#X obj 244 311 r c3;
#X obj 293 312 r c4;
#X obj 341 313 r c1;
#X floatatom 166 269 5 0 0 0 - - -;
#X obj 144 -27 gemhead;
#X obj 143 -115 r c8;
#X obj 143 -82 < 25;
#X floatatom 205 -68 5 0 0 0 - - -;
#X floatatom 199 -99 5 0 0 0 - - -;
#X obj -158 -43 spigot;
#X text 244 295 Green;
#X text 202 294 Red;
#X text 294 296 Blue;
#X text 339 295 Alpha;
#X text 835 -165 Speed;
#X text 125 -136 Tipo media;
#X text -187 -137 Archivo para abrir;
#X floatatom 472 142 5 0 0 0 - - -;
#X msg 342 185;
#X floatatom 168 110 5 0 0 0 - - -;
#X obj 306 220 bng 15 250 50 0 empty empty empty 17 7 0 10 -262144
-1 -1;
#X obj 285 95 pix_film_player_auto;
#X connect 0 0 5 0;
#X connect 0 1 3 0;
#X connect 0 2 33 0;
#X connect 0 2 34 0;
#X connect 1 0 0 0;
#X connect 2 0 22 0;
#X connect 3 0 16 0;
#X connect 3 0 34 1;
#X connect 4 0 7 0;
#X connect 5 0 6 0;
#X connect 6 0 4 0;
#X connect 8 0 6 4;
#X connect 9 0 6 3;
#X connect 10 0 6 2;
#X connect 11 0 6 1;
#X connect 12 0 11 0;
#X connect 13 0 10 0;
#X connect 14 0 9 0;
#X connect 15 0 8 0;
#X connect 17 0 0 0;
#X connect 18 0 19 0;
#X connect 18 0 21 0;
#X connect 19 0 20 0;
#X connect 19 0 17 0;
#X connect 19 0 22 1;
#X connect 22 0 1 0;
#X connect 34 0 0 0;
#X connect 34 0 31 0;
#X connect 34 0 32 0;
#X connect 34 1 0 1;
#X connect 34 1 30 0;
