#N canvas 756 25 516 512 10;
#X declare -lib cyclone;
#X obj 228 124 pix_film;
#X msg 310 32 open \$1;
#X msg 372 68 auto \$1;
#X obj 372 -4 tgl 40 1 empty empty empty 0 -6 0 8 -262144 -1 -1 0 1
;
#X obj 310 -1 inlet;
#X obj 614 204 counter;
#X obj 614 151 metro 20;
#X obj 671 153 loadbang;
#X floatatom 669 238 5 0 0 0 - - -;
#X obj 249 152 unpack f f f;
#X floatatom 249 179 5 0 0 0 - - -;
#X obj 228 398 pix_texture;
#X obj 475 11 import cyclone;
#X obj 228 227 alpha;
#X obj 228 346 colorRGB;
#X obj 228 455 rectangle 8 6;
#X obj 425 265 / 255;
#X obj 377 263 / 127;
#X obj 328 262 / 127;
#X obj 281 261 / 127;
#X obj 614 45 r nbf2;
#X obj 249 206 s nbf2;
#X obj 425 234 r c33;
#X obj 659 44 r c37;
#X obj 282 231 r c34;
#X obj 328 232 r c35;
#X obj 377 233 r c36;
#X obj 614 237 s frame2;
#X obj 442 66 r frame2;
#X obj 653 176 r nbf2;
#X msg 623 176 0;
#X obj 228 23 gemhead 20;
#X obj 659 92 * 2;
#X connect 0 0 13 0;
#X connect 0 1 9 0;
#X connect 1 0 0 0;
#X connect 2 0 0 0;
#X connect 3 0 2 0;
#X connect 4 0 1 0;
#X connect 5 0 8 0;
#X connect 5 0 27 0;
#X connect 6 0 5 0;
#X connect 7 0 30 0;
#X connect 9 0 10 0;
#X connect 10 0 21 0;
#X connect 11 0 15 0;
#X connect 13 0 14 0;
#X connect 14 0 11 0;
#X connect 16 0 14 4;
#X connect 17 0 14 3;
#X connect 18 0 14 2;
#X connect 19 0 14 1;
#X connect 20 0 6 0;
#X connect 20 0 30 0;
#X connect 22 0 16 0;
#X connect 23 0 32 0;
#X connect 24 0 19 0;
#X connect 25 0 18 0;
#X connect 26 0 17 0;
#X connect 28 0 0 1;
#X connect 29 0 5 4;
#X connect 30 0 5 1;
#X connect 30 0 5 2;
#X connect 31 0 0 0;
#X connect 32 0 6 1;
