#N canvas 0 25 1272 689 10;
#X declare -lib cyclone;
#X obj 228 124 pix_film;
#X msg 310 32 open \$1;
#X msg 372 68 auto \$1;
#X obj 372 -4 tgl 40 1 empty empty empty 0 -6 0 8 -262144 -1 -1 0 1
;
#X obj 310 -1 inlet;
#X obj 639 543 counter;
#X floatatom 566 606 5 0 0 0 - - -;
#X obj 249 152 unpack f f f;
#X floatatom 249 179 5 0 0 0 - - -;
#X obj 228 398 pix_texture;
#X obj 475 11 import cyclone;
#X obj 228 227 alpha;
#X obj 228 346 colorRGB;
#X obj 228 455 rectangle 8 6;
#X obj 425 264 / 255;
#X obj 377 263 / 127;
#X obj 328 262 / 127;
#X obj 281 261 / 127;
#X obj 282 231 r c2;
#X obj 328 232 r c3;
#X obj 377 233 r c4;
#X obj 425 234 r c1;
#X obj 616 596 s frame1;
#X obj 249 206 s nbf1;
#X obj 442 66 r frame1;
#X obj 659 45 r c5;
#X obj 228 23 gemhead 10;
#X obj 914 -10 r c9;
#X text 1013 -3 Reproduccion;
#X msg 731 373 0;
#X obj 915 62 / 25;
#X obj 915 91 int 0;
#X floatatom 823 70 5 0 0 0 - - -;
#X obj 731 128 select 0;
#X obj 802 128 select 1;
#X msg 802 373 1;
#X msg 864 372 2;
#X floatatom 583 87 5 0 0 0 - - -;
#X floatatom 582 132 5 0 0 0 - - -;
#X text 138 548 0-10 Normal 11-20 Back 21-30 Ping-pong 31-40 Normal
una vez 41-50 Back una vez 61-70 Ping-Pong una vez 71-80 Stop;
#X obj 865 129 select 2;
#X obj 924 131 select 3;
#X obj 990 131 select 4;
#X obj 1137 134 select 6;
#X obj 1067 136 select 5;
#X obj 731 334 t b;
#X obj 802 335 t b;
#X obj 864 335 t b;
#X obj 991 344 t b;
#X msg 1226 393 0;
#X obj 464 502 metro 25;
#X msg 464 420 1;
#X obj 828 471 r nbf1;
#X obj 539 273 t b;
#X obj 914 17 cambio;
#X floatatom 827 34 5 0 0 0 - - -;
#X obj 1139 43 bng 15 250 50 0 empty empty empty 17 7 0 10 -262144
-1 -1;
#X obj 810 518 ==;
#X msg 991 485 1;
#X obj 946 578 spigot 0;
#X obj 1081 479 t b;
#X floatatom 785 576 5 0 0 0 - - -;
#X floatatom 922 637 5 0 0 0 - - -;
#X obj 938 346 t b;
#X msg 942 484 0;
#X obj 659 82 * 10;
#X msg 525 419 0;
#X obj 875 556 cambio;
#X floatatom 895 509 5 0 0 0 - - -;
#X obj 991 397 delay 500;
#X obj 1017 626 bng 15 250 50 0 empty empty empty 17 7 0 10 -262144
-1 -1;
#X obj 882 595 bng 15 250 50 0 empty empty empty 17 7 0 10 -262144
-1 -1;
#X obj 747 572 bng 15 250 50 0 empty empty empty 17 7 0 10 -262144
-1 -1;
#X text 1004 546 Esto no funciona \, los frames van demasiado rapido
como para que cambio.pd lo detecte y == hece bang con cada comparacion
;
#X text 748 611 Detector de Un solo disparo;
#X text 997 369 Necesario para que empiece la reproduccion;
#X connect 0 0 11 0;
#X connect 0 1 7 0;
#X connect 1 0 0 0;
#X connect 2 0 0 0;
#X connect 3 0 2 0;
#X connect 4 0 1 0;
#X connect 5 0 6 0;
#X connect 5 0 22 0;
#X connect 5 0 57 0;
#X connect 7 0 8 0;
#X connect 8 0 23 0;
#X connect 9 0 13 0;
#X connect 11 0 12 0;
#X connect 12 0 9 0;
#X connect 14 0 12 4;
#X connect 15 0 12 3;
#X connect 16 0 12 2;
#X connect 17 0 12 1;
#X connect 18 0 17 0;
#X connect 19 0 16 0;
#X connect 20 0 15 0;
#X connect 21 0 14 0;
#X connect 24 0 0 1;
#X connect 25 0 37 0;
#X connect 25 0 65 0;
#X connect 26 0 0 0;
#X connect 27 0 54 0;
#X connect 27 0 55 0;
#X connect 29 0 5 1;
#X connect 30 0 31 0;
#X connect 31 0 33 0;
#X connect 31 0 34 0;
#X connect 31 0 40 0;
#X connect 31 0 41 0;
#X connect 31 0 42 0;
#X connect 31 0 43 0;
#X connect 31 0 44 0;
#X connect 31 0 32 0;
#X connect 33 0 45 0;
#X connect 33 0 53 0;
#X connect 33 0 63 0;
#X connect 34 0 46 0;
#X connect 34 0 53 0;
#X connect 34 0 63 0;
#X connect 35 0 5 1;
#X connect 36 0 5 1;
#X connect 40 0 47 0;
#X connect 40 0 53 0;
#X connect 40 0 63 0;
#X connect 40 1 53 0;
#X connect 41 0 45 0;
#X connect 41 0 48 0;
#X connect 41 0 53 0;
#X connect 41 0 63 0;
#X connect 42 0 46 0;
#X connect 42 0 48 0;
#X connect 42 0 53 0;
#X connect 42 0 63 0;
#X connect 43 0 49 0;
#X connect 44 0 47 0;
#X connect 44 0 48 0;
#X connect 44 0 53 0;
#X connect 44 0 63 0;
#X connect 45 0 29 0;
#X connect 46 0 35 0;
#X connect 47 0 36 0;
#X connect 48 0 69 0;
#X connect 49 0 50 0;
#X connect 50 0 5 0;
#X connect 51 0 50 0;
#X connect 52 0 5 4;
#X connect 52 0 68 0;
#X connect 52 0 57 1;
#X connect 53 0 51 0;
#X connect 53 0 66 0;
#X connect 53 0 5 3;
#X connect 54 0 30 0;
#X connect 54 0 56 0;
#X connect 57 0 61 0;
#X connect 57 0 67 0;
#X connect 57 0 72 0;
#X connect 58 0 59 1;
#X connect 59 0 60 0;
#X connect 59 0 62 0;
#X connect 59 0 70 0;
#X connect 60 0 49 0;
#X connect 63 0 64 0;
#X connect 64 0 59 1;
#X connect 65 0 38 0;
#X connect 65 0 50 1;
#X connect 66 0 5 2;
#X connect 67 0 59 0;
#X connect 67 0 71 0;
#X connect 69 0 58 0;
