#N canvas 375 25 876 668 10;
#X declare -lib cyclone;
#X obj -45 156 pix_film;
#X msg 37 64 open \$1;
#X msg 99 100 auto \$1;
#X obj 99 28 tgl 40 1 empty empty empty 0 -6 0 8 -262144 -1 -1 0 1
;
#X obj 37 31 inlet;
#X obj 495 588 counter;
#X obj -24 184 unpack f f f;
#X floatatom -24 211 5 0 0 0 - - -;
#X obj -45 430 pix_texture;
#X obj 475 11 import cyclone;
#X obj -45 259 alpha;
#X obj -45 378 colorRGB;
#X obj -45 487 rectangle 8 6;
#X obj 152 296 / 255;
#X obj 104 295 / 127;
#X obj 55 294 / 127;
#X obj 8 293 / 127;
#X obj 9 263 r c2;
#X obj 55 264 r c3;
#X obj 104 265 r c4;
#X obj 152 266 r c1;
#X obj 417 694 s frame1;
#X obj -24 238 s nbf1;
#X obj 169 98 r frame1;
#X obj 542 239 r c5;
#X obj -45 55 gemhead 10;
#X obj 914 -10 r c9;
#X msg 673 461 0;
#X obj 914 56 / 25;
#X obj 914 90 int 0;
#X floatatom 674 128 5 0 0 0 - - -;
#X obj 731 128 select 0;
#X obj 802 128 select 1;
#X msg 712 463 1;
#X msg 753 464 2;
#X floatatom 501 256 5 0 0 0 - - -;
#X floatatom 504 310 5 0 0 0 - - -;
#X obj 865 129 select 2;
#X obj 924 131 select 3;
#X obj 990 131 select 4;
#X obj 1134 137 select 6;
#X obj 1067 136 select 5;
#X obj 749 274 t b;
#X obj 799 272 t b;
#X obj 853 273 t b;
#X obj 1152 332 t b;
#X obj 495 486 metro 25;
#X msg 495 433 1;
#X obj 630 227 r nbf1;
#X obj 914 17 cambio;
#X obj 738 901 ==;
#X obj 992 335 t b;
#X floatatom 589 244 5 0 0 0 - - -;
#X obj 678 918 bng 15 250 50 0 empty empty empty 17 7 0 10 -262144
-1 -1;
#X obj 599 305 t b;
#X msg 604 455 0;
#X text 584 435 Primer Frame;
#X obj 687 987 bng 15 250 50 0 empty empty empty 17 7 0 10 -262144
-1 -1;
#X msg 738 935 0;
#X obj 738 970 spigot;
#X floatatom 693 917 5 0 0 0 - - -;
#X floatatom 701 987 5 0 0 0 - - -;
#X text 789 1013 Un solo disparo;
#X msg 990 912 0;
#X msg 1028 913 1;
#X obj 738 1010 spigot;
#X obj 753 865 int;
#X floatatom 715 882 5 0 0 0 - - -;
#X obj 673 697 t b;
#X obj 682 713 bng 15 250 50 0 empty empty empty 17 7 0 10 -262144
-1 -1;
#X obj 754 833 spigot;
#X msg 755 794 1;
#X obj 1203 134 select 7;
#X text 250 113 0-10 Normal 11-20 Back 21-30 Ping-pong 31-40 Normal
una vez 41-50 Back una vez 51-60 Ping-Pong una vez 61-70 Stop/pause
71-80 Continue;
#X floatatom 787 850 5 0 0 0 - - -;
#X obj 715 792 int;
#X floatatom 697 809 5 0 0 0 - - -;
#X obj 736 1027 bng 15 250 50 0 empty empty empty 17 7 0 10 -262144
-1 -1;
#X msg 790 795 0;
#X obj 495 537 spigot 1;
#X msg 1028 398 0;
#X text 429 537 play/pause;
#X text 1059 401 Pause;
#X msg 1027 423 1;
#X text 1061 425 Play;
#X obj 908 331 t b;
#X floatatom 447 605 5 0 0 0 - - -;
#X obj 853 582 delay 1000;
#X obj 886 599 bng 15 250 50 0 empty empty empty 17 7 0 10 -262144
-1 -1;
#X msg 872 705 1;
#X text 1013 -3 Control y modos de reproduccion;
#X text 676 446 Modos del contador;
#X obj 542 293 * 4;
#X connect 0 0 10 0;
#X connect 0 1 6 0;
#X connect 1 0 0 0;
#X connect 2 0 0 0;
#X connect 3 0 2 0;
#X connect 4 0 1 0;
#X connect 5 0 50 0;
#X connect 5 0 68 0;
#X connect 5 0 21 0;
#X connect 5 0 86 0;
#X connect 6 0 7 0;
#X connect 7 0 22 0;
#X connect 8 0 12 0;
#X connect 10 0 11 0;
#X connect 11 0 8 0;
#X connect 13 0 11 4;
#X connect 14 0 11 3;
#X connect 15 0 11 2;
#X connect 16 0 11 1;
#X connect 17 0 16 0;
#X connect 18 0 15 0;
#X connect 19 0 14 0;
#X connect 20 0 13 0;
#X connect 23 0 0 1;
#X connect 24 0 35 0;
#X connect 24 0 92 0;
#X connect 25 0 0 0;
#X connect 26 0 49 0;
#X connect 27 0 5 1;
#X connect 28 0 29 0;
#X connect 29 0 31 0;
#X connect 29 0 32 0;
#X connect 29 0 37 0;
#X connect 29 0 38 0;
#X connect 29 0 39 0;
#X connect 29 0 40 0;
#X connect 29 0 41 0;
#X connect 29 0 30 0;
#X connect 29 0 72 0;
#X connect 31 0 42 0;
#X connect 31 0 51 0;
#X connect 31 0 55 0;
#X connect 32 0 43 0;
#X connect 32 0 51 0;
#X connect 32 0 55 0;
#X connect 33 0 5 1;
#X connect 34 0 5 1;
#X connect 37 0 44 0;
#X connect 37 0 51 0;
#X connect 37 0 55 0;
#X connect 38 0 42 0;
#X connect 38 0 45 0;
#X connect 38 0 55 0;
#X connect 39 0 43 0;
#X connect 39 0 45 0;
#X connect 39 0 55 0;
#X connect 40 0 80 0;
#X connect 41 0 44 0;
#X connect 41 0 45 0;
#X connect 41 0 55 0;
#X connect 41 0 85 0;
#X connect 42 0 27 0;
#X connect 42 0 71 0;
#X connect 43 0 33 0;
#X connect 43 0 78 0;
#X connect 43 0 89 0;
#X connect 44 0 34 0;
#X connect 44 0 78 0;
#X connect 45 0 64 0;
#X connect 45 0 83 0;
#X connect 46 0 79 0;
#X connect 47 0 46 0;
#X connect 48 0 5 4;
#X connect 48 0 52 0;
#X connect 48 0 54 0;
#X connect 48 0 75 0;
#X connect 48 0 47 0;
#X connect 48 0 83 0;
#X connect 49 0 28 0;
#X connect 50 0 53 0;
#X connect 50 0 59 1;
#X connect 50 0 60 0;
#X connect 50 0 58 0;
#X connect 51 0 63 0;
#X connect 51 0 83 0;
#X connect 54 0 55 0;
#X connect 55 0 5 3;
#X connect 55 0 5 2;
#X connect 55 0 59 0;
#X connect 58 0 59 0;
#X connect 59 0 57 0;
#X connect 59 0 61 0;
#X connect 59 0 65 0;
#X connect 63 0 65 1;
#X connect 64 0 65 1;
#X connect 65 0 77 0;
#X connect 65 0 80 0;
#X connect 66 0 50 1;
#X connect 66 0 67 0;
#X connect 68 0 66 0;
#X connect 68 0 69 0;
#X connect 68 0 75 0;
#X connect 70 0 66 0;
#X connect 70 0 74 0;
#X connect 71 0 70 1;
#X connect 72 0 83 0;
#X connect 75 0 70 0;
#X connect 75 0 76 0;
#X connect 78 0 70 1;
#X connect 79 0 5 0;
#X connect 80 0 79 1;
#X connect 83 0 79 1;
#X connect 85 0 71 0;
#X connect 85 0 87 0;
#X connect 87 0 78 0;
#X connect 87 0 89 0;
#X connect 87 0 88 0;
#X connect 89 0 66 0;
#X connect 92 0 36 0;
#X connect 92 0 46 1;
