#N canvas 0 138 588 689 10;
#X obj 156 288 artnetin;
#X floatatom 156 392 5 0 0 0 - - -;
#X floatatom 207 395 5 0 0 0 - - -;
#X floatatom 251 397 5 0 0 0 - - -;
#X floatatom 294 401 5 0 0 0 - - -;
#X floatatom 404 400 5 0 0 0 - - -;
#X floatatom 502 408 5 0 0 0 - - -;
#X obj 157 333 unpack f f f f f f f f f f f f f f f f f f f f f f f
f f f f f f f;
#X obj 156 11 tgl 15 0 empty empty empty 17 7 0 10 -262144 -1 -1 0
1;
#X obj 157 85 metro 50;
#X msg 74 236 close;
#X obj 90 292 bng 15 250 50 0 empty empty empty 17 7 0 10 -262144 -1
-1;
#X symbolatom 78 332 10 0 0 0 - - -;
#X msg 211 176 destroy;
#X msg 283 165 create 1 1;
#X msg 248 237 open 0 0;
#X connect 0 0 7 0;
#X connect 0 0 11 0;
#X connect 0 0 12 0;
#X connect 7 0 1 0;
#X connect 7 1 2 0;
#X connect 7 2 3 0;
#X connect 7 3 4 0;
#X connect 7 19 5 0;
#X connect 7 29 6 0;
#X connect 8 0 9 0;
#X connect 9 0 0 0;
#X connect 10 0 0 0;
#X connect 13 0 0 0;
#X connect 14 0 0 0;
#X connect 15 0 0 0;
