#N canvas 0 25 1192 689 10;
#X obj 205 -51 artnetin;
#X obj 205 -115 metro 50;
#X obj 581 136 unpack f f f f f f f f f f f f f f f f f f f f f f f
f f f f f f f f f;
#X obj 527 195 s c33;
#X obj 558 230 s c34;
#X obj 596 231 s c35;
#X obj 610 253 s c36;
#X obj 623 283 s c37;
#X obj 634 315 s c38;
#X obj 645 344 s c39;
#X obj 659 374 s c40;
#X obj 668 230 s c41;
#X obj 679 256 s c42;
#X obj 691 285 s c43;
#X obj 703 314 s c44;
#X obj 715 342 s c45;
#X obj 728 374 s c46;
#X obj 738 232 s c47;
#X obj 749 257 s c48;
#X obj 762 286 s c49;
#X obj 775 315 s c50;
#X obj 787 346 s c51;
#X obj 800 376 s c52;
#X obj 810 238 s c53;
#X obj 822 262 s c54;
#X obj 834 290 s c55;
#X obj 846 319 s c56;
#X obj 858 350 s c57;
#X obj 870 379 s c58;
#X obj 882 235 s c59;
#X obj 894 257 s c60;
#X obj 907 287 s c61;
#X obj 919 315 s c62;
#X obj 936 343 s c63;
#X obj 965 375 s c64;
#X obj 101 39 list split 32;
#X obj 8 208 s c1;
#X obj 49 209 s c2;
#X obj 85 262 s c3;
#X obj 123 239 s c5;
#X obj 134 271 s c6;
#X obj 145 300 s c7;
#X obj 159 330 s c8;
#X obj 168 186 s c9;
#X obj 179 212 s c10;
#X obj 191 241 s c11;
#X obj 203 270 s c12;
#X obj 215 298 s c13;
#X obj 228 330 s c14;
#X obj 238 188 s c15;
#X obj 249 213 s c16;
#X obj 262 242 s c17;
#X obj 275 271 s c18;
#X obj 287 302 s c19;
#X obj 300 332 s c20;
#X obj 310 194 s c21;
#X obj 322 218 s c22;
#X obj 334 246 s c23;
#X obj 346 275 s c24;
#X obj 358 306 s c25;
#X obj 370 335 s c26;
#X obj 394 213 s c28;
#X obj 382 191 s c27;
#X obj 407 243 s c29;
#X obj 419 271 s c30;
#X obj 86 113 unpack f f f f f f f f f f f f f f f f f f f f f f f
f f f f f f f f f;
#X obj 436 299 s c31;
#X obj 465 331 s c32;
#X obj 106 285 s c4;
#X obj 205 -177 inlet;
#X text 832 -168 1 Alpha - Dimmer 2 Rojo 3 Verde 4 Azul 5 Speed 6 Directorio
7 Archivo 8 tipo Media 9 Reproduccion 10 Inicio loop 11 Final Loop
;
#X msg 284 -113 destroy;
#X text 541 -147 Subnet Universo;
#X obj 391 -163 loadbang;
#X floatatom 1036 157 5 0 0 0 - - -;
#X floatatom 1110 165 5 0 0 0 - - -;
#X obj 73 5 list split;
#X text 0 -76 Direccion DMX capa 1;
#X obj 581 73 list split 32;
#X text 683 -52 direccion DMX capa 2;
#X obj 1064 254 r c33;
#X floatatom 1064 302 5 0 0 0 - - -;
#X obj 1148 256 r c34;
#X floatatom 1148 301 5 0 0 0 - - -;
#X obj 568 23 list split;
#X floatatom 16 365 5 0 0 0 - - -;
#X floatatom 514 430 5 0 0 0 - - -;
#X obj 283 -160 select 1;
#X obj 105 -160 select 0;
#X obj 105 -42 - 1;
#X obj 644 -16 - 1;
#X msg 124 -75 1;
#X msg 643 -55 33;
#X msg 410 -109 create 5 5;
#X obj 1111 118 r c7;
#X obj 1036 114 r c6;
#X connect 0 0 76 0;
#X connect 0 0 84 0;
#X connect 1 0 0 0;
#X connect 2 0 3 0;
#X connect 2 0 86 0;
#X connect 2 1 4 0;
#X connect 2 2 5 0;
#X connect 2 3 6 0;
#X connect 2 4 7 0;
#X connect 2 5 8 0;
#X connect 2 6 9 0;
#X connect 2 7 10 0;
#X connect 2 8 11 0;
#X connect 2 9 12 0;
#X connect 2 10 13 0;
#X connect 2 11 14 0;
#X connect 2 12 15 0;
#X connect 2 13 16 0;
#X connect 2 14 17 0;
#X connect 2 15 18 0;
#X connect 2 16 19 0;
#X connect 2 17 20 0;
#X connect 2 18 21 0;
#X connect 2 19 22 0;
#X connect 2 20 23 0;
#X connect 2 21 24 0;
#X connect 2 22 25 0;
#X connect 2 23 26 0;
#X connect 2 24 27 0;
#X connect 2 25 28 0;
#X connect 2 26 29 0;
#X connect 2 27 30 0;
#X connect 2 28 31 0;
#X connect 2 29 32 0;
#X connect 2 30 33 0;
#X connect 2 31 34 0;
#X connect 35 0 65 0;
#X connect 65 0 36 0;
#X connect 65 0 85 0;
#X connect 65 1 37 0;
#X connect 65 2 38 0;
#X connect 65 3 68 0;
#X connect 65 4 39 0;
#X connect 65 5 40 0;
#X connect 65 6 41 0;
#X connect 65 7 42 0;
#X connect 65 8 43 0;
#X connect 65 9 44 0;
#X connect 65 10 45 0;
#X connect 65 11 46 0;
#X connect 65 12 47 0;
#X connect 65 13 48 0;
#X connect 65 14 49 0;
#X connect 65 15 50 0;
#X connect 65 16 51 0;
#X connect 65 17 52 0;
#X connect 65 18 53 0;
#X connect 65 19 54 0;
#X connect 65 20 55 0;
#X connect 65 21 56 0;
#X connect 65 22 57 0;
#X connect 65 23 58 0;
#X connect 65 24 59 0;
#X connect 65 25 60 0;
#X connect 65 26 62 0;
#X connect 65 27 61 0;
#X connect 65 28 63 0;
#X connect 65 29 64 0;
#X connect 65 30 66 0;
#X connect 65 31 67 0;
#X connect 69 0 1 0;
#X connect 69 0 87 0;
#X connect 69 0 88 0;
#X connect 71 0 0 0;
#X connect 73 0 92 0;
#X connect 73 0 91 0;
#X connect 73 0 93 0;
#X connect 76 1 35 0;
#X connect 78 0 2 0;
#X connect 80 0 81 0;
#X connect 82 0 83 0;
#X connect 84 1 78 0;
#X connect 89 0 76 1;
#X connect 90 0 84 1;
#X connect 91 0 89 0;
#X connect 92 0 90 0;
#X connect 93 0 0 0;
#X connect 94 0 75 0;
#X connect 95 0 74 0;
