#N canvas 435 25 666 649 10;
#X declare -lib zexy;
#X obj 417 10 r c7;
#X obj 369 63 cambio;
#X obj 37 47 r c8;
#X floatatom 120 112 5 0 0 0 - - -;
#X obj 299 130 config;
#X obj 300 95 t b;
#X obj 60 281 pix_image;
#X obj 58 519 pix_texture;
#X obj 58 348 alpha;
#X obj 58 467 colorRGB;
#X obj 58 576 rectangle 8 6;
#X obj 255 385 / 255;
#X obj 207 384 / 127;
#X obj 158 383 / 127;
#X obj 111 382 / 127;
#X obj 112 352 r c2;
#X obj 158 353 r c3;
#X obj 207 354 r c4;
#X obj 255 355 r c1;
#X floatatom 538 52 5 0 0 0 - - -;
#X obj 36 140 gemhead;
#X msg 207 260 open \$1;
#X obj 36 13 import zexy;
#X obj 355 238 l2s /;
#X obj 355 184 pack s s;
#X obj 452 130 makefilename imagenes/%d.jpg;
#X text 251 336 Alpha;
#X msg 128 209 thread 1;
#X obj 128 174 loadbang;
#X obj 36 95 expr $f1 >= 25 && $f1<50;
#X connect 0 0 1 0;
#X connect 0 0 19 0;
#X connect 0 0 25 0;
#X connect 1 0 5 0;
#X connect 2 0 29 0;
#X connect 4 0 24 0;
#X connect 5 0 4 0;
#X connect 6 0 8 0;
#X connect 7 0 10 0;
#X connect 8 0 9 0;
#X connect 9 0 7 0;
#X connect 11 0 9 4;
#X connect 12 0 9 3;
#X connect 13 0 9 2;
#X connect 14 0 9 1;
#X connect 15 0 14 0;
#X connect 16 0 13 0;
#X connect 17 0 12 0;
#X connect 18 0 11 0;
#X connect 20 0 6 0;
#X connect 21 0 6 0;
#X connect 23 0 21 0;
#X connect 24 0 23 0;
#X connect 25 0 24 1;
#X connect 27 0 6 0;
#X connect 28 0 27 0;
#X connect 29 0 3 0;
#X connect 29 0 20 0;
