#N canvas 468 69 666 649 10;
#X declare -lib zexy;
#X obj 312 -4 r c7;
#X obj 312 67 cambio;
#X obj 60 6 r c8;
#X floatatom 120 67 5 0 0 0 - - -;
#X obj 60 281 pix_image;
#X obj 60 776 pix_texture;
#X obj 60 348 alpha;
#X obj 60 466 colorRGB;
#X obj 255 385 / 255;
#X obj 207 384 / 127;
#X obj 158 383 / 127;
#X obj 111 382 / 127;
#X obj 112 352 r c2;
#X obj 158 353 r c3;
#X obj 207 354 r c4;
#X obj 255 355 r c1;
#X floatatom 416 13 5 0 0 0 - - -;
#X msg 312 218 open \$1;
#X obj 36 -32 import zexy;
#X obj 312 179 l2s /;
#X obj 312 136 pack s s;
#X text 251 336 Alpha;
#X msg 174 230 thread 1;
#X obj 174 204 loadbang;
#X obj 60 49 expr $f1 >= 25 && $f1<50;
#X obj 312 97 config;
#X obj 60 90 gemhead;
#X obj 60 203 rotateXYZ;
#X obj 82 113 r c12;
#X obj 127 112 r c13;
#X obj 172 115 r c14;
#X obj 312 33 spigot;
#X obj 60 612 translateXYZ;
#X obj 83 494 r c18;
#X obj 138 495 r c19;
#X obj 189 493 r c20;
#X obj 81 137 * 1.5;
#X obj 125 136 * 1.5;
#X obj 172 140 * 1.5;
#X obj 60 743 scale XYZ;
#X obj 139 634 r c15;
#X obj 184 634 r c16;
#X obj 235 635 r c17;
#X obj 139 702 pack f f f;
#X msg 80 672 1;
#X obj 80 637 loadbang;
#X floatatom 421 50 5 0 0 0 - - -;
#X obj 417 201 bng 15 250 50 0 empty empty empty 17 7 0 10 -262144
-1 -1;
#X obj 273 99 bng 15 250 50 0 empty empty empty 17 7 0 10 -262144 -1
-1;
#X obj 276 135 bng 15 250 50 0 empty empty empty 17 7 0 10 -262144
-1 -1;
#X obj 490 212 bng 15 250 50 0 empty empty empty 17 7 0 10 -262144
-1 -1;
#X floatatom 493 83 5 0 0 0 - - -;
#X obj 488 173 print;
#X obj 407 114 makefilename imagenes/%d.jpg;
#X obj 299 718 t b;
#X obj 60 833 rectangle 16 12;
#X obj 83 528 / 5;
#X obj 138 529 / 5;
#X obj 189 528 / 10;
#X obj 189 575 - 20;
#X obj 139 669 / 128;
#X obj 184 668 / 128;
#X obj 235 672 / 128;
#X obj 84 571 - 25;
#X obj 138 574 - 25;
#X connect 0 0 16 0;
#X connect 0 0 31 0;
#X connect 0 0 53 0;
#X connect 1 0 25 0;
#X connect 1 0 49 0;
#X connect 1 0 51 0;
#X connect 2 0 24 0;
#X connect 4 0 6 0;
#X connect 5 0 55 0;
#X connect 6 0 7 0;
#X connect 7 0 32 0;
#X connect 8 0 7 4;
#X connect 9 0 7 3;
#X connect 10 0 7 2;
#X connect 11 0 7 1;
#X connect 12 0 11 0;
#X connect 13 0 10 0;
#X connect 14 0 9 0;
#X connect 15 0 8 0;
#X connect 17 0 4 0;
#X connect 19 0 17 0;
#X connect 19 0 52 0;
#X connect 20 0 19 0;
#X connect 20 0 47 0;
#X connect 22 0 4 0;
#X connect 23 0 22 0;
#X connect 24 0 3 0;
#X connect 24 0 26 0;
#X connect 24 0 31 1;
#X connect 25 0 20 0;
#X connect 25 0 50 0;
#X connect 26 0 27 0;
#X connect 27 0 4 0;
#X connect 28 0 36 0;
#X connect 29 0 37 0;
#X connect 30 0 38 0;
#X connect 31 0 46 0;
#X connect 31 0 48 0;
#X connect 31 0 1 0;
#X connect 32 0 39 0;
#X connect 33 0 56 0;
#X connect 34 0 57 0;
#X connect 35 0 58 0;
#X connect 36 0 27 1;
#X connect 37 0 27 2;
#X connect 38 0 27 3;
#X connect 39 0 5 0;
#X connect 40 0 60 0;
#X connect 41 0 54 0;
#X connect 41 0 61 0;
#X connect 42 0 62 0;
#X connect 43 0 39 2;
#X connect 44 0 39 1;
#X connect 45 0 44 0;
#X connect 53 0 20 1;
#X connect 54 0 43 0;
#X connect 56 0 63 0;
#X connect 57 0 64 0;
#X connect 58 0 59 0;
#X connect 59 0 32 3;
#X connect 60 0 43 0;
#X connect 61 0 43 1;
#X connect 63 0 32 1;
#X connect 64 0 32 2;
