#N canvas 39 25 1272 689 10;
#X declare -lib zexy;
#X declare -lib cyclone;
#X declare -lib cyclone;
#X declare -lib zexy;
#X declare -lib cyclone;
#X declare -lib cyclone;
#X declare -lib Gem;
#X obj 342 -15 media_1;
#X msg 556 28 color 0 0 0;
#X msg 301 -160 dimen 320 200;
#X msg 592 -37 create;
#X msg 238 -58 destroy;
#X msg 593 -125 reset;
#X obj 475 -20 gemwin;
#X obj 278 -290 tgl 50 1 empty empty Go! 17 7 0 25 -232576 -1 -260097
0 1;
#X obj 16 3 dmx;
#X obj 414 28 video_2;
#X obj 414 -16 media_2;
#X obj 342 28 video_1;
#X obj 291 -14 fondo;
#X obj 224 -159 pipe 500;
#X msg 594 -94 print;
#X obj 506 -205 tgl 15 0 empty empty empty 17 7 0 10 -262144 -1 -1
0 1;
#X msg 506 -160 border \$1;
#X obj 405 -208 tgl 15 0 empty empty empty 17 7 0 10 -262144 -1 -1
1 1;
#X msg 405 -160 fullscreen \$1;
#X msg 557 -4 offset 40 40;
#X msg 579 -160 topmost \$1;
#X obj 579 -204 tgl 15 0 empty empty empty 17 7 0 10 -262144 -1 -1
0 1;
#X obj 218 -128 key;
#X floatatom 218 30 5 0 0 0 - - -;
#X obj 59 -88 select 114;
#X msg 134 -138 1;
#X obj 238 -88 select 27;
#X obj 137 -86 select 115;
#X msg 73 -138 0;
#X text 30 72 R para renderizar Escape para destruir la pantalla S
para para la renderizacion;
#X text 650 -2 1280 0 para la segunda pantalla \, o la resolucion que
sea;
#X msg 291 -199 dimen 1280 768;
#X connect 0 0 11 0;
#X connect 1 0 6 0;
#X connect 2 0 6 0;
#X connect 3 0 6 0;
#X connect 4 0 6 0;
#X connect 5 0 6 0;
#X connect 7 0 8 0;
#X connect 7 0 13 0;
#X connect 10 0 9 0;
#X connect 13 0 6 0;
#X connect 14 0 6 0;
#X connect 15 0 16 0;
#X connect 16 0 6 0;
#X connect 17 0 18 0;
#X connect 18 0 6 0;
#X connect 19 0 6 0;
#X connect 20 0 6 0;
#X connect 21 0 20 0;
#X connect 22 0 23 0;
#X connect 22 0 24 0;
#X connect 22 0 26 0;
#X connect 22 0 27 0;
#X connect 24 0 25 0;
#X connect 25 0 7 0;
#X connect 26 0 4 0;
#X connect 27 0 28 0;
#X connect 28 0 7 0;
#X connect 31 0 6 0;
