#N canvas 0 25 1251 689 10;
#X declare -lib zexy;
#X declare -lib cyclone;
#X floatatom 735 -318 5 0 0 0 - - -;
#X text 803 -366 Fichero;
#X text 597 -362 Directorio;
#X floatatom 528 -309 5 0 0 0 - - -;
#X obj 848 220 makefilename %d.mov;
#X obj 658 259 pack s s s;
#X obj 686 219 makefilename %d;
#X obj 658 296 l2s /;
#X obj 658 342 outlet;
#X obj 146 -298 import zexy;
#X obj 620 -90 !=;
#X obj 686 -131 int 0;
#X obj 848 -157 int 0;
#X obj 800 -89 !=;
#X obj 581 221 config;
#X obj 581 155 t b;
#X obj 372 247 counter;
#X obj 147 -264 import cyclone;
#X obj 478 105 t b;
#X obj 371 172 metro 20;
#X obj 538 56 spigot 1;
#X obj 564 -39 spigot 1;
#X obj 755 -51 spigot 1;
#X msg 219 118 1;
#X msg 204 220 0;
#X msg 640 66 0;
#X msg 646 18 1;
#X text 229 46 Detector Anti rebotes Bang;
#X text 385 -89 Detector de cambio de valor;
#X obj 552 -131 pipe 60;
#X obj 740 -161 pipe 60;
#X obj 371 317 select 100;
#X obj 619 -324 r c6;
#X obj 814 -335 r c7;
#X floatatom 370 367 5 0 0 0 - - -;
#X text 48 -133 Tipo media 0-10 video 11-20 imagenes 21-30 texto 31-40
live cam;
#X connect 4 0 5 2;
#X connect 5 0 7 0;
#X connect 6 0 5 1;
#X connect 7 0 8 0;
#X connect 10 0 21 1;
#X connect 11 0 10 1;
#X connect 11 0 6 0;
#X connect 12 0 13 1;
#X connect 12 0 4 0;
#X connect 13 0 22 1;
#X connect 14 0 5 0;
#X connect 15 0 14 0;
#X connect 16 0 31 0;
#X connect 18 0 23 0;
#X connect 18 0 25 0;
#X connect 19 0 16 0;
#X connect 20 0 18 0;
#X connect 20 0 15 0;
#X connect 21 0 20 0;
#X connect 22 0 20 0;
#X connect 23 0 16 2;
#X connect 23 0 19 0;
#X connect 24 0 19 0;
#X connect 24 0 16 2;
#X connect 25 0 20 1;
#X connect 26 0 20 1;
#X connect 29 0 10 0;
#X connect 29 0 21 0;
#X connect 30 0 13 0;
#X connect 30 0 22 0;
#X connect 31 0 23 0;
#X connect 31 0 24 0;
#X connect 31 0 26 0;
#X connect 31 0 34 0;
#X connect 32 0 3 0;
#X connect 32 0 11 0;
#X connect 32 0 29 0;
#X connect 33 0 0 0;
#X connect 33 0 12 0;
#X connect 33 0 30 0;
