#N canvas 0 25 1251 668 10;
#X declare -lib cyclone;
#X obj 455 717 counter;
#X obj 117 71 import cyclone;
#X msg 471 605 0;
#X obj 914 56 / 25;
#X obj 914 90 int 0;
#X obj 731 128 select 0;
#X obj 802 128 select 1;
#X msg 510 607 1;
#X obj 865 129 select 2;
#X obj 924 131 select 3;
#X obj 990 131 select 4;
#X obj 1134 137 select 6;
#X obj 1067 136 select 5;
#X obj 749 274 t b;
#X obj 861 273 t b;
#X obj 1001 275 t b;
#X obj 1407 266 t b;
#X obj 455 497 metro 25;
#X msg 455 444 1;
#X obj 511 988 ==;
#X obj 1310 274 t b;
#X text 499 1195 Un solo disparo;
#X msg 1347 1104 0;
#X msg 1389 1107 1;
#X obj 607 1196 spigot;
#X obj 1203 134 select 7;
#X text 1047 19 0-10 Normal 11-20 Back 21-30 Ping-pong 31-40 Normal
una vez 41-50 Back una vez 51-60 Ping-Pong una vez 61-70 Stop/pause
71-80 Continue;
#X obj 455 550 spigot 1;
#X msg 591 460 0;
#X text 451 533 play/pause;
#X text 622 463 Pause;
#X msg 524 464 1;
#X text 552 466 Play;
#X text 850 -32 Control y modos de reproduccion;
#X text 474 590 Modos del contador;
#X obj 320 304 *;
#X obj 320 399 int;
#X obj 320 122 cambio;
#X obj 367 201 int;
#X obj 511 1033 spigot;
#X msg 575 1072 1;
#X msg 606 1072 0;
#X obj 785 865 spigot;
#X msg 879 839 1;
#X msg 916 839 0;
#X obj 785 783 ==;
#X obj 320 172 t b;
#X obj 331 202 int;
#X obj 510 1099 spigot;
#X msg 481 1033 0;
#X obj 421 1160 t b;
#X text 449 1161 Normal - Forward;
#X text 304 -5 Inicio Loop;
#X obj 320 251 / 255;
#X obj 914 17 cambio;
#X obj 785 829 spigot;
#X obj 785 891 t b;
#X text 739 247 Normal;
#X text 857 249 Back;
#X text 1012 256 PingPong;
#X msg 841 812 0;
#X text 820 889 Back;
#X msg 1095 956 1;
#X obj 784 926 int;
#X text 236 401 Loop inferior;
#X obj 1055 1012 spigot;
#X msg 1127 956 0;
#X text 1126 987 PingPong;
#X obj 421 1289 int;
#X obj 1055 1044 int;
#X msg 1184 963 0;
#X msg 985 949 1;
#X msg 1036 953 0;
#X obj 1096 1115 spigot;
#X msg 1172 1082 1;
#X obj 564 95 cambio;
#X text 554 -24 Final loop;
#X obj 564 125 t b;
#X obj 454 54 int;
#X obj 617 163 int;
#X obj 564 194 / 255;
#X obj 564 241 *;
#X obj 546 378 int;
#X text 590 280 loop superior;
#X obj 536 156 int;
#X obj 387 350 t b;
#X msg 1230 1039 0;
#X obj 501 293 * 1;
#X obj 454 18 inlet;
#X obj 200 782 outlet;
#X text 503 -23 Speed;
#X text 174 801 Frame a renderizar;
#X text 377 34 Total de Frames de la peli;
#X text 48 112 Utiliza 4 canales entre 0 y 255 valores;
#X text -47 139 ************************ pix_film_player V-0.0.1 Santiago
noreña belfegor@gmail.com **************************;
#X obj 320 13 r c40;
#X obj 505 -6 r c37;
#X obj 564 -3 43;
#X obj 914 -10 r c41;
#X floatatom 176 289 5 0 0 0 - - -;
#X connect 0 0 19 0;
#X connect 0 0 45 0;
#X connect 0 0 89 0;
#X connect 2 0 0 1;
#X connect 3 0 4 0;
#X connect 4 0 5 0;
#X connect 4 0 6 0;
#X connect 4 0 8 0;
#X connect 4 0 9 0;
#X connect 4 0 10 0;
#X connect 4 0 11 0;
#X connect 4 0 12 0;
#X connect 4 0 25 0;
#X connect 5 0 13 0;
#X connect 5 0 20 0;
#X connect 6 0 14 0;
#X connect 6 0 20 0;
#X connect 7 0 0 1;
#X connect 8 0 15 0;
#X connect 8 0 20 0;
#X connect 9 0 13 0;
#X connect 9 0 16 0;
#X connect 10 0 14 0;
#X connect 10 0 16 0;
#X connect 11 0 28 0;
#X connect 12 0 16 0;
#X connect 12 0 15 0;
#X connect 13 0 2 0;
#X connect 13 0 0 2;
#X connect 13 0 36 0;
#X connect 13 0 40 0;
#X connect 13 0 44 0;
#X connect 13 0 31 0;
#X connect 13 0 66 0;
#X connect 13 0 86 0;
#X connect 14 0 7 0;
#X connect 14 0 0 2;
#X connect 14 0 41 0;
#X connect 14 0 43 0;
#X connect 14 0 31 0;
#X connect 14 0 66 0;
#X connect 14 0 86 0;
#X connect 15 0 0 2;
#X connect 15 0 36 0;
#X connect 15 0 44 0;
#X connect 15 0 62 0;
#X connect 15 0 40 0;
#X connect 15 0 31 0;
#X connect 15 0 70 0;
#X connect 15 0 41 0;
#X connect 15 0 86 0;
#X connect 16 0 23 0;
#X connect 17 0 27 0;
#X connect 18 0 17 0;
#X connect 19 0 39 1;
#X connect 19 0 39 0;
#X connect 20 0 22 0;
#X connect 22 0 24 1;
#X connect 23 0 24 1;
#X connect 24 0 28 0;
#X connect 25 0 31 0;
#X connect 27 0 0 0;
#X connect 28 0 27 1;
#X connect 31 0 27 1;
#X connect 35 0 36 0;
#X connect 36 0 45 1;
#X connect 36 0 0 2;
#X connect 36 0 68 1;
#X connect 36 0 0 3;
#X connect 37 0 38 0;
#X connect 37 0 46 0;
#X connect 38 0 35 1;
#X connect 39 0 48 0;
#X connect 39 0 71 0;
#X connect 39 0 74 0;
#X connect 39 0 49 0;
#X connect 40 0 48 1;
#X connect 41 0 48 1;
#X connect 42 0 56 0;
#X connect 43 0 42 1;
#X connect 44 0 42 1;
#X connect 45 0 55 0;
#X connect 45 0 55 1;
#X connect 46 0 47 0;
#X connect 46 0 53 0;
#X connect 47 0 53 0;
#X connect 48 0 50 0;
#X connect 49 0 39 1;
#X connect 50 0 24 0;
#X connect 50 0 68 0;
#X connect 53 0 35 0;
#X connect 54 0 3 0;
#X connect 55 0 42 0;
#X connect 55 0 60 0;
#X connect 55 0 72 0;
#X connect 55 0 73 0;
#X connect 56 0 24 0;
#X connect 56 0 63 0;
#X connect 60 0 55 1;
#X connect 62 0 65 1;
#X connect 63 0 0 3;
#X connect 65 0 69 0;
#X connect 66 0 65 1;
#X connect 68 0 0 3;
#X connect 69 0 0 1;
#X connect 70 0 69 0;
#X connect 71 0 65 0;
#X connect 72 0 65 0;
#X connect 73 0 24 0;
#X connect 74 0 73 1;
#X connect 75 0 77 0;
#X connect 75 0 79 0;
#X connect 77 0 80 0;
#X connect 77 0 84 0;
#X connect 78 0 47 0;
#X connect 78 0 18 0;
#X connect 78 0 84 0;
#X connect 79 0 81 1;
#X connect 80 0 81 0;
#X connect 81 0 82 0;
#X connect 82 0 0 4;
#X connect 82 0 63 0;
#X connect 82 0 85 0;
#X connect 82 0 19 1;
#X connect 84 0 80 0;
#X connect 86 0 73 1;
#X connect 87 0 17 1;
#X connect 88 0 78 0;
#X connect 95 0 37 0;
#X connect 95 0 99 0;
#X connect 96 0 87 0;
#X connect 97 0 75 0;
#X connect 98 0 54 0;
