#N canvas 0 25 1251 668 10;
#X obj -45 156 pix_film;
#X msg 37 64 open \$1;
#X msg 99 100 auto \$1;
#X obj 99 28 tgl 40 1 empty empty empty 0 -6 0 8 -262144 -1 -1 0 1
;
#X obj 37 31 inlet;
#X obj -23 185 unpack f f f;
#X obj -45 430 pix_texture;
#X obj -45 259 alpha;
#X obj -45 378 colorRGB;
#X obj -45 487 rectangle 8 6;
#X obj 152 296 / 255;
#X obj 104 295 / 127;
#X obj 55 294 / 127;
#X obj 8 293 / 127;
#X obj 214 102 inlet;
#X obj -23 216 outlet;
#X obj 9 263 r c34;
#X obj 55 264 r c35;
#X obj 104 265 r c36;
#X obj 152 266 r c33;
#X floatatom 221 235 5 0 0 0 - - -;
#X obj -45 55 gemhead;
#X connect 0 0 7 0;
#X connect 0 1 5 0;
#X connect 1 0 0 0;
#X connect 2 0 0 0;
#X connect 3 0 2 0;
#X connect 4 0 1 0;
#X connect 5 0 15 0;
#X connect 5 0 20 0;
#X connect 6 0 9 0;
#X connect 7 0 8 0;
#X connect 8 0 6 0;
#X connect 10 0 8 4;
#X connect 11 0 8 3;
#X connect 12 0 8 2;
#X connect 13 0 8 1;
#X connect 14 0 0 1;
#X connect 16 0 13 0;
#X connect 17 0 12 0;
#X connect 18 0 11 0;
#X connect 19 0 10 0;
#X connect 21 0 0 0;
