#N canvas 33 83 835 631 10;
#X declare -lib cyclone;
#X obj 227 124 pix_film;
#X msg 300 34 open \$1;
#X msg 372 68 auto \$1;
#X obj 372 -4 tgl 40 1 empty empty empty 0 -6 0 8 -262144 -1 -1 0 1
;
#X obj 300 0 inlet;
#X obj 586 139 counter;
#X obj 625 111 r nbf;
#X msg 595 111 2;
#X obj 586 86 metro 20;
#X obj 643 88 loadbang;
#X obj 586 6 hsl 128 15 100 10 0 0 empty empty empty -2 -8 0 10 -262144
-1 -1 0 1;
#X obj 586 172 s frame;
#X floatatom 641 173 5 0 0 0 - - -;
#X text 586 20 adjust speed;
#X obj 732 2 r nbf;
#X obj 732 22 bng 15 250 50 0 empty empty empty 17 7 0 10 -262144 -1
-1;
#X obj 442 66 r frame;
#X obj 249 152 unpack f f f;
#X floatatom 249 179 5 0 0 0 - - -;
#X obj 249 206 s nbf;
#X obj 227 398 pix_texture;
#X obj 17 7 import cyclone;
#X obj 228 227 alpha;
#X floatatom 305 261 5 0 0 0 - - -;
#X floatatom 298 233 5 0 0 0 - - -;
#X floatatom 313 286 5 0 0 0 - - -;
#X obj 228 311 colorRGB;
#X floatatom 341 332 5 0 0 0 - - -;
#X obj 227 23 gemhead 20;
#X obj 227 497 rectangle 8 6;
#X obj 565 298 r c1;
#X floatatom 503 322 5 0 0 0 - - -;
#X obj 425 343 / 255;
#X obj 300 175 r c2;
#X obj 370 230 r c3;
#X obj 437 247 r c4;
#X obj 393 285 / 127;
#X obj 348 254 / 127;
#X obj 299 205 / 127;
#X obj 531 4 r c5;
#X floatatom 526 47 5 0 0 0 - - -;
#X floatatom 630 43 5 0 0 0 - - -;
#X obj 528 82 * 4;
#X connect 0 0 22 0;
#X connect 0 1 17 0;
#X connect 1 0 0 0;
#X connect 2 0 0 0;
#X connect 3 0 2 0;
#X connect 4 0 1 0;
#X connect 5 0 11 0;
#X connect 5 0 12 0;
#X connect 6 0 5 4;
#X connect 7 0 5 1;
#X connect 8 0 5 0;
#X connect 9 0 7 0;
#X connect 14 0 15 0;
#X connect 15 0 8 0;
#X connect 16 0 0 1;
#X connect 17 0 18 0;
#X connect 18 0 19 0;
#X connect 20 0 29 0;
#X connect 22 0 26 0;
#X connect 23 0 26 2;
#X connect 24 0 26 1;
#X connect 25 0 26 3;
#X connect 26 0 20 0;
#X connect 27 0 26 4;
#X connect 28 0 0 0;
#X connect 30 0 31 0;
#X connect 31 0 32 0;
#X connect 32 0 27 0;
#X connect 33 0 38 0;
#X connect 34 0 37 0;
#X connect 35 0 36 0;
#X connect 36 0 25 0;
#X connect 37 0 23 0;
#X connect 38 0 24 0;
#X connect 39 0 40 0;
#X connect 40 0 42 0;
#X connect 41 0 8 1;
#X connect 42 0 41 0;
