#N canvas 0 104 1032 464 10;
#X obj 465 16 gemwin_control;
#X obj 466 60 import Gem;
#X obj 285 48 gemhead;
#X text 340 53 movie-clip;
#X obj 312 283 unpack 0 0 0;
#X floatatom 298 306 5 0 0 3 length - -;
#X floatatom 347 306 5 0 0 3 width - -;
#X obj 361 249 bng 15 250 50 0 empty empty end_reached 20 7 0 10 -262144
-1 -1;
#X floatatom 615 211 5 0 10000 1 frame# - -;
#X msg 303 170 auto \$1;
#X obj 303 152 tgl 15 0 empty empty empty 0 -6 0 8 -24198 -1 -1 0 1
;
#X msg 314 194 colorspace Grey;
#X floatatom 394 307 5 0 0 0 - - -;
#X obj 285 236 pix_film;
#X obj 285 343 pix_texture;
#X obj 285 393 cuboid 4 3 3;
#X obj 285 368 translateXYZ 0 0 -3;
#X msg 441 195 colorspace RGBA;
#X obj 578 263 bng 15 250 50 0 empty empty empty 17 7 0 10 -262144
-1 -1;
#X obj 625 301 hsl 128 15 50 500 1 0 empty empty empty -2 -8 0 10 -262144
-1 -1 0 1;
#X obj 451 369 select;
#X obj 580 336 t b f;
#X obj 580 371 metro 20;
#X obj 580 401 float;
#X obj 513 401 + 1;
#X msg 64 199 open /home/santi/media/1/1.mov;
#X floatatom 532 338 5 0 0 0 - - -;
#X obj 835 124 artnetin;
#X obj 838 83 bng 15 250 50 0 empty empty empty 17 7 0 10 -262144 -1
-1;
#X floatatom 837 180 5 0 0 0 - - -;
#X connect 2 0 13 0;
#X connect 4 0 5 0;
#X connect 4 1 6 0;
#X connect 4 2 12 0;
#X connect 5 0 18 0;
#X connect 5 0 20 1;
#X connect 7 0 18 0;
#X connect 8 0 13 1;
#X connect 9 0 13 0;
#X connect 10 0 9 0;
#X connect 11 0 13 0;
#X connect 13 0 14 0;
#X connect 13 1 4 0;
#X connect 13 2 7 0;
#X connect 14 0 16 0;
#X connect 16 0 15 0;
#X connect 17 0 13 0;
#X connect 18 0 19 0;
#X connect 18 0 26 0;
#X connect 19 0 21 0;
#X connect 20 0 18 0;
#X connect 21 0 22 0;
#X connect 21 1 22 1;
#X connect 22 0 23 0;
#X connect 23 0 24 0;
#X connect 23 0 8 0;
#X connect 24 0 23 0;
#X connect 24 0 20 0;
#X connect 25 0 13 0;
#X connect 26 0 23 0;
#X connect 27 0 29 0;
#X connect 28 0 27 0;
