#N canvas 508 29 745 572 10;
#X declare -lib zexy;
#X floatatom 326 -63 5 0 0 0 - - -;
#X text 317 -262 Fichero;
#X text 216 -262 Directorio;
#X floatatom 237 -63 5 0 0 0 - - -;
#X obj 418 0 makefilename %d.mov;
#X obj 238 38 pack s s s;
#X obj 266 -1 makefilename %d;
#X obj 238 77 l2s /;
#X obj 167 -3 config dir;
#X text 40 -402 Modelo de selectro de medios. Este módulo pasará a
los reproductores el nombre del fichero. Para Hacer: - Implementar
diferentes sistemas de directorios para diferentes medias. Necesitará
un inlet de selección. - Hacer los nombres de ficheros y directorios
más amigables para los humanos.s;
#X obj 238 111 outlet;
#X obj 242 -300 inlet;
#X obj 226 -126 hradio 15 1 0 3 empty empty empty 0 -8 0 10 -262144
-1 -1 0;
#X obj 232 -95 + 1;
#X obj 316 -132 hradio 15 1 0 3 empty empty empty 0 -8 0 10 -262144
-1 -1 0;
#X obj 322 -101 + 1;
#X obj 461 -175 import zexy;
#X connect 0 0 4 0;
#X connect 0 0 8 0;
#X connect 3 0 6 0;
#X connect 3 0 8 0;
#X connect 4 0 5 2;
#X connect 5 0 7 0;
#X connect 6 0 5 1;
#X connect 7 0 10 0;
#X connect 8 0 5 0;
#X connect 11 0 12 0;
#X connect 11 0 14 0;
#X connect 12 0 13 0;
#X connect 13 0 3 0;
#X connect 14 0 15 0;
#X connect 15 0 0 0;
