#N canvas 0 25 1280 692 10;
#X declare -lib zexy;
#X declare -lib cyclone;
#X floatatom 859 -245 5 0 0 0 - - -;
#X text 815 -323 Fichero;
#X text 609 -319 Directorio;
#X floatatom 714 -252 5 0 0 0 - - -;
#X obj 831 132 makefilename %d.mov;
#X obj 730 167 pack s s s;
#X obj 714 134 makefilename %d;
#X obj 730 198 l2s /;
#X text 8 -424 Modelo de selectro de medios. Este módulo pasará a los
reproductores el nombre del fichero. Para Hacer: - Implementar diferentes
sistemas de directorios para diferentes medias. Necesitará un inlet
de selección. - Hacer los nombres de ficheros y directorios más amigables
para los humanos.s;
#X obj 730 238 outlet;
#X obj 1027 -210 import zexy;
#X obj 630 -288 r c6;
#X obj 828 -296 r c7;
#X obj 837 235 print;
#X floatatom 637 -161 5 0 0 0 - - -;
#X obj 637 -193 !=;
#X obj 714 -216 int 0;
#X obj 859 -210 int 0;
#X obj 828 -174 !=;
#X obj 609 136 config;
#X obj 609 91 t b;
#X floatatom 490 61 5 0 0 0 - - -;
#X floatatom 75 -189 5 0 0 0 - - -;
#X obj 400 162 counter;
#X obj 1028 -176 import cyclone;
#X floatatom 399 28 5 0 0 0 - - -;
#X floatatom 609 28 5 0 0 0 - - -;
#X obj 490 4 t b;
#X floatatom 242 225 5 0 0 0 - - -;
#X floatatom 110 11 5 0 0 0 - - -;
#X obj 562 -252 pipe 60;
#X obj 399 87 metro 20;
#X obj 591 -47 spigot 1;
#X obj 399 232 select 10;
#X obj 592 -124 spigot 1;
#X obj 782 -137 spigot 1;
#X obj 768 -246 pipe 60;
#X connect 0 0 17 0;
#X connect 3 0 16 0;
#X connect 4 0 5 2;
#X connect 5 0 7 0;
#X connect 6 0 5 1;
#X connect 7 0 9 0;
#X connect 7 0 13 0;
#X connect 11 0 3 0;
#X connect 11 0 30 0;
#X connect 12 0 0 0;
#X connect 12 0 36 0;
#X connect 14 0 34 1;
#X connect 15 0 14 0;
#X connect 16 0 15 1;
#X connect 16 0 6 0;
#X connect 17 0 18 1;
#X connect 17 0 4 0;
#X connect 18 0 35 1;
#X connect 19 0 5 0;
#X connect 20 0 19 0;
#X connect 21 0 23 2;
#X connect 21 0 32 1;
#X connect 22 0 32 1;
#X connect 23 0 28 0;
#X connect 23 0 33 0;
#X connect 25 0 31 0;
#X connect 26 0 20 0;
#X connect 27 0 21 0;
#X connect 27 0 25 0;
#X connect 29 0 23 2;
#X connect 29 0 31 0;
#X connect 30 0 15 0;
#X connect 30 0 34 0;
#X connect 31 0 23 0;
#X connect 32 0 26 0;
#X connect 32 0 27 0;
#X connect 33 0 22 0;
#X connect 33 0 29 0;
#X connect 34 0 32 0;
#X connect 35 0 32 0;
#X connect 36 0 18 0;
#X connect 36 0 35 0;
