#N canvas 0 25 1280 692 10;
#X obj 119 98 artnetin;
#X symbolatom 16 115 10 0 0 0 - - -;
#X floatatom 118 203 5 0 0 0 - - -;
#X floatatom 169 206 5 0 0 0 - - -;
#X floatatom 213 208 5 0 0 0 - - -;
#X floatatom 256 212 5 0 0 0 - - -;
#X floatatom 366 211 5 0 0 0 - - -;
#X floatatom 464 219 5 0 0 0 - - -;
#X obj 120 52 metro 50;
#X obj 124 10 tgl 15 0 empty empty empty 17 7 0 10 -262144 -1 -1 0
1;
#X obj 119 144 unpack f f f f f f f f f f f f f f f f f f f f f f f
f f f f f f f;
#X connect 0 0 1 0;
#X connect 0 0 10 0;
#X connect 8 0 0 0;
#X connect 9 0 8 0;
#X connect 10 0 2 0;
#X connect 10 1 3 0;
#X connect 10 2 4 0;
#X connect 10 3 5 0;
#X connect 10 19 6 0;
#X connect 10 29 7 0;
